G04 #@! TF.GenerationSoftware,KiCad,Pcbnew,(5.1.9-0-10_14)*
G04 #@! TF.CreationDate,2021-05-13T22:37:09+10:00*
G04 #@! TF.ProjectId,NA6,4e41362e-6b69-4636-9164-5f7063625858,rev?*
G04 #@! TF.SameCoordinates,Original*
G04 #@! TF.FileFunction,Soldermask,Bot*
G04 #@! TF.FilePolarity,Negative*
%FSLAX46Y46*%
G04 Gerber Fmt 4.6, Leading zero omitted, Abs format (unit mm)*
G04 Created by KiCad (PCBNEW (5.1.9-0-10_14)) date 2021-05-13 22:37:09*
%MOMM*%
%LPD*%
G01*
G04 APERTURE LIST*
%ADD10O,1.802000X1.802000*%
%ADD11C,5.352000*%
%ADD12C,1.752000*%
%ADD13C,1.483000*%
%ADD14C,1.602000*%
%ADD15C,4.202000*%
%ADD16C,1.902000*%
%ADD17O,2.302000X2.302000*%
%ADD18O,1.829200X1.829200*%
G04 APERTURE END LIST*
D10*
X188976000Y-52324000D03*
X195834000Y-52324000D03*
X193548000Y-52324000D03*
X175260000Y-52324000D03*
X179832000Y-52324000D03*
X177546000Y-52324000D03*
X186690000Y-52324000D03*
X182118000Y-52324000D03*
X184404000Y-52324000D03*
X191262000Y-52324000D03*
X188976000Y-50038000D03*
X195834000Y-50038000D03*
X193548000Y-50038000D03*
X175260000Y-50038000D03*
X179832000Y-50038000D03*
X177546000Y-50038000D03*
X186690000Y-50038000D03*
X182118000Y-50038000D03*
X184404000Y-50038000D03*
X191262000Y-50038000D03*
X188976000Y-47752000D03*
X195834000Y-47752000D03*
X193548000Y-47752000D03*
X175260000Y-47752000D03*
X179832000Y-47752000D03*
X177546000Y-47752000D03*
X186690000Y-47752000D03*
X182118000Y-47752000D03*
X184404000Y-47752000D03*
X191262000Y-47752000D03*
X188976000Y-45466000D03*
X195834000Y-45466000D03*
X193548000Y-45466000D03*
X175260000Y-45466000D03*
X179832000Y-45466000D03*
X177546000Y-45466000D03*
X186690000Y-45466000D03*
X182118000Y-45466000D03*
X184404000Y-45466000D03*
X191262000Y-45466000D03*
X188976000Y-43180000D03*
X195834000Y-43180000D03*
X193548000Y-43180000D03*
X175260000Y-43180000D03*
X179832000Y-43180000D03*
X177546000Y-43180000D03*
X186690000Y-43180000D03*
X182118000Y-43180000D03*
X184404000Y-43180000D03*
X191262000Y-43180000D03*
X188976000Y-40894000D03*
X195834000Y-40894000D03*
X193548000Y-40894000D03*
X175260000Y-40894000D03*
X179832000Y-40894000D03*
X177546000Y-40894000D03*
X186690000Y-40894000D03*
X182118000Y-40894000D03*
X184404000Y-40894000D03*
X191262000Y-40894000D03*
X195834000Y-38608000D03*
X193548000Y-38608000D03*
X191262000Y-38608000D03*
X188976000Y-38608000D03*
X186690000Y-38608000D03*
X184404000Y-38608000D03*
X182118000Y-38608000D03*
X179832000Y-38608000D03*
X177546000Y-38608000D03*
X175260000Y-38608000D03*
D11*
X115300000Y-127050000D03*
X115300000Y-88200000D03*
X115300000Y-42350000D03*
D12*
X121000000Y-47400000D03*
X121000000Y-50900000D03*
X121000000Y-54400000D03*
X121000000Y-57500000D03*
X121000000Y-60500000D03*
X121000000Y-63500000D03*
X121000000Y-66500000D03*
X121000000Y-69500000D03*
X121000000Y-72500000D03*
X121000000Y-75500000D03*
X121000000Y-78500000D03*
X121000000Y-81600000D03*
X121000000Y-85100000D03*
X121000000Y-91300000D03*
X121000000Y-94400000D03*
X121000000Y-97400000D03*
X121000000Y-100400000D03*
X121000000Y-103400000D03*
X121000000Y-106400000D03*
X121000000Y-109400000D03*
X121000000Y-112400000D03*
X121000000Y-115400000D03*
X121000000Y-118500000D03*
X121000000Y-122000000D03*
X125500000Y-47400000D03*
X125500000Y-50900000D03*
X125500000Y-54400000D03*
X125500000Y-57500000D03*
X125500000Y-60500000D03*
X125500000Y-63500000D03*
X125500000Y-66500000D03*
X125500000Y-69500000D03*
X125500000Y-72500000D03*
X125500000Y-75500000D03*
X125500000Y-78500000D03*
X125500000Y-81600000D03*
X125500000Y-85100000D03*
X125500000Y-91300000D03*
X125500000Y-94400000D03*
X125500000Y-97400000D03*
X125500000Y-100400000D03*
X125500000Y-103400000D03*
X125500000Y-106400000D03*
X125500000Y-109400000D03*
X125500000Y-112400000D03*
X125500000Y-115400000D03*
X125500000Y-118500000D03*
X125500000Y-122000000D03*
D13*
X155000000Y-88714000D03*
X152000000Y-88714000D03*
D10*
X206500000Y-39014000D03*
X206500000Y-41554000D03*
X206500000Y-44094000D03*
X206500000Y-46634000D03*
X206500000Y-49174000D03*
G36*
G01*
X207401000Y-50864000D02*
X207401000Y-52564000D01*
G75*
G02*
X207350000Y-52615000I-51000J0D01*
G01*
X205650000Y-52615000D01*
G75*
G02*
X205599000Y-52564000I0J51000D01*
G01*
X205599000Y-50864000D01*
G75*
G02*
X205650000Y-50813000I51000J0D01*
G01*
X207350000Y-50813000D01*
G75*
G02*
X207401000Y-50864000I0J-51000D01*
G01*
G37*
G36*
G01*
X199783000Y-50966000D02*
X199783000Y-52666000D01*
G75*
G02*
X199732000Y-52717000I-51000J0D01*
G01*
X198032000Y-52717000D01*
G75*
G02*
X197981000Y-52666000I0J51000D01*
G01*
X197981000Y-50966000D01*
G75*
G02*
X198032000Y-50915000I51000J0D01*
G01*
X199732000Y-50915000D01*
G75*
G02*
X199783000Y-50966000I0J-51000D01*
G01*
G37*
X198882000Y-49276000D03*
X198882000Y-46736000D03*
X198882000Y-44196000D03*
X198882000Y-41656000D03*
X198882000Y-39116000D03*
G36*
G01*
X171311000Y-39966000D02*
X171311000Y-38266000D01*
G75*
G02*
X171362000Y-38215000I51000J0D01*
G01*
X173062000Y-38215000D01*
G75*
G02*
X173113000Y-38266000I0J-51000D01*
G01*
X173113000Y-39966000D01*
G75*
G02*
X173062000Y-40017000I-51000J0D01*
G01*
X171362000Y-40017000D01*
G75*
G02*
X171311000Y-39966000I0J51000D01*
G01*
G37*
X172212000Y-41656000D03*
X172212000Y-44196000D03*
X172212000Y-46736000D03*
X172212000Y-49276000D03*
X172212000Y-51816000D03*
D14*
X175500000Y-82714000D03*
X175500000Y-85254000D03*
X175500000Y-87794000D03*
X175500000Y-90334000D03*
X175500000Y-92874000D03*
X175500000Y-95414000D03*
D15*
X187820000Y-100614000D03*
X187820000Y-77464000D03*
D16*
X167000000Y-111714000D03*
X165000000Y-119214000D03*
D17*
X170380000Y-120214000D03*
G36*
G01*
X179151000Y-119114000D02*
X179151000Y-121314000D01*
G75*
G02*
X179100000Y-121365000I-51000J0D01*
G01*
X176900000Y-121365000D01*
G75*
G02*
X176849000Y-121314000I0J51000D01*
G01*
X176849000Y-119114000D01*
G75*
G02*
X176900000Y-119063000I51000J0D01*
G01*
X179100000Y-119063000D01*
G75*
G02*
X179151000Y-119114000I0J-51000D01*
G01*
G37*
G36*
G01*
X203900000Y-116063000D02*
X206100000Y-116063000D01*
G75*
G02*
X206151000Y-116114000I0J-51000D01*
G01*
X206151000Y-118314000D01*
G75*
G02*
X206100000Y-118365000I-51000J0D01*
G01*
X203900000Y-118365000D01*
G75*
G02*
X203849000Y-118314000I0J51000D01*
G01*
X203849000Y-116114000D01*
G75*
G02*
X203900000Y-116063000I51000J0D01*
G01*
G37*
X205000000Y-124834000D03*
G36*
G01*
X203900000Y-105563000D02*
X206100000Y-105563000D01*
G75*
G02*
X206151000Y-105614000I0J-51000D01*
G01*
X206151000Y-107814000D01*
G75*
G02*
X206100000Y-107865000I-51000J0D01*
G01*
X203900000Y-107865000D01*
G75*
G02*
X203849000Y-107814000I0J51000D01*
G01*
X203849000Y-105614000D01*
G75*
G02*
X203900000Y-105563000I51000J0D01*
G01*
G37*
X205000000Y-114334000D03*
D18*
X160800000Y-104674000D03*
X155720000Y-104674000D03*
X153180000Y-104674000D03*
X150640000Y-104674000D03*
X148100000Y-104674000D03*
X145560000Y-104674000D03*
X143020000Y-104674000D03*
X140480000Y-104674000D03*
X196360000Y-56414000D03*
X193820000Y-56414000D03*
X191280000Y-56414000D03*
X188740000Y-56414000D03*
X186200000Y-56414000D03*
X183660000Y-56414000D03*
X181120000Y-56414000D03*
X178580000Y-56414000D03*
X173500000Y-56414000D03*
X170960000Y-56414000D03*
X168420000Y-56414000D03*
X165880000Y-56414000D03*
X163340000Y-56414000D03*
X160800000Y-56414000D03*
X158260000Y-56414000D03*
X155720000Y-56414000D03*
X136416000Y-56414000D03*
X151656000Y-56414000D03*
X149116000Y-56414000D03*
X146576000Y-56414000D03*
X128796000Y-56414000D03*
X131336000Y-56414000D03*
X133876000Y-56414000D03*
X138956000Y-56414000D03*
X141496000Y-56414000D03*
X144036000Y-56414000D03*
X137940000Y-104674000D03*
X163340000Y-104674000D03*
X165880000Y-104674000D03*
X168420000Y-104674000D03*
X170960000Y-104674000D03*
X173500000Y-104674000D03*
X176040000Y-104674000D03*
X178580000Y-104674000D03*
X183660000Y-104674000D03*
X186200000Y-104674000D03*
X188740000Y-104674000D03*
X191280000Y-104674000D03*
X193820000Y-104674000D03*
X196360000Y-104674000D03*
X198900000Y-104674000D03*
X201440000Y-104674000D03*
X203980000Y-56414000D03*
X206520000Y-56414000D03*
X203980000Y-58954000D03*
X206520000Y-58954000D03*
X203980000Y-61494000D03*
X206520000Y-61494000D03*
X203980000Y-64034000D03*
X206520000Y-64034000D03*
X203980000Y-66574000D03*
X206520000Y-66574000D03*
X203980000Y-69114000D03*
X206520000Y-69114000D03*
X203980000Y-71654000D03*
X206520000Y-71654000D03*
X203980000Y-74194000D03*
X206520000Y-74194000D03*
X203980000Y-76734000D03*
X206520000Y-76734000D03*
X203980000Y-79274000D03*
X206520000Y-79274000D03*
X203980000Y-81814000D03*
X206520000Y-81814000D03*
X203980000Y-84354000D03*
X206520000Y-84354000D03*
X203980000Y-86894000D03*
X206520000Y-86894000D03*
X203980000Y-89434000D03*
X206520000Y-89434000D03*
X203980000Y-91974000D03*
X206520000Y-91974000D03*
X203980000Y-94514000D03*
X206520000Y-94514000D03*
X203980000Y-97054000D03*
X206520000Y-97054000D03*
X203980000Y-99594000D03*
X206520000Y-99594000D03*
G36*
G01*
X131992000Y-64123000D02*
X133692000Y-64123000D01*
G75*
G02*
X133743000Y-64174000I0J-51000D01*
G01*
X133743000Y-65874000D01*
G75*
G02*
X133692000Y-65925000I-51000J0D01*
G01*
X131992000Y-65925000D01*
G75*
G02*
X131941000Y-65874000I0J51000D01*
G01*
X131941000Y-64174000D01*
G75*
G02*
X131992000Y-64123000I51000J0D01*
G01*
G37*
D10*
X130302000Y-65024000D03*
G36*
G01*
X167501000Y-39966000D02*
X167501000Y-38266000D01*
G75*
G02*
X167552000Y-38215000I51000J0D01*
G01*
X169252000Y-38215000D01*
G75*
G02*
X169303000Y-38266000I0J-51000D01*
G01*
X169303000Y-39966000D01*
G75*
G02*
X169252000Y-40017000I-51000J0D01*
G01*
X167552000Y-40017000D01*
G75*
G02*
X167501000Y-39966000I0J51000D01*
G01*
G37*
X168402000Y-41656000D03*
X168402000Y-44196000D03*
X168402000Y-46736000D03*
X168402000Y-49276000D03*
X168402000Y-51816000D03*
G36*
G01*
X132168000Y-131203000D02*
X130468000Y-131203000D01*
G75*
G02*
X130417000Y-131152000I0J51000D01*
G01*
X130417000Y-129452000D01*
G75*
G02*
X130468000Y-129401000I51000J0D01*
G01*
X132168000Y-129401000D01*
G75*
G02*
X132219000Y-129452000I0J-51000D01*
G01*
X132219000Y-131152000D01*
G75*
G02*
X132168000Y-131203000I-51000J0D01*
G01*
G37*
X133858000Y-130302000D03*
G36*
G01*
X176669000Y-77890000D02*
X176669000Y-79590000D01*
G75*
G02*
X176618000Y-79641000I-51000J0D01*
G01*
X174918000Y-79641000D01*
G75*
G02*
X174867000Y-79590000I0J51000D01*
G01*
X174867000Y-77890000D01*
G75*
G02*
X174918000Y-77839000I51000J0D01*
G01*
X176618000Y-77839000D01*
G75*
G02*
X176669000Y-77890000I0J-51000D01*
G01*
G37*
X175768000Y-76200000D03*
G36*
G01*
X179209000Y-112434000D02*
X179209000Y-114134000D01*
G75*
G02*
X179158000Y-114185000I-51000J0D01*
G01*
X177458000Y-114185000D01*
G75*
G02*
X177407000Y-114134000I0J51000D01*
G01*
X177407000Y-112434000D01*
G75*
G02*
X177458000Y-112383000I51000J0D01*
G01*
X179158000Y-112383000D01*
G75*
G02*
X179209000Y-112434000I0J-51000D01*
G01*
G37*
X178308000Y-110744000D03*
G36*
G01*
X193155000Y-110070000D02*
X193155000Y-108370000D01*
G75*
G02*
X193206000Y-108319000I51000J0D01*
G01*
X194906000Y-108319000D01*
G75*
G02*
X194957000Y-108370000I0J-51000D01*
G01*
X194957000Y-110070000D01*
G75*
G02*
X194906000Y-110121000I-51000J0D01*
G01*
X193206000Y-110121000D01*
G75*
G02*
X193155000Y-110070000I0J51000D01*
G01*
G37*
M02*
