G04 #@! TF.GenerationSoftware,KiCad,Pcbnew,7.0.11*
G04 #@! TF.CreationDate,2026-02-08T08:31:11+11:00*
G04 #@! TF.ProjectId,DropBear,44726f70-4265-4617-922e-6b696361645f,rev?*
G04 #@! TF.SameCoordinates,Original*
G04 #@! TF.FileFunction,Soldermask,Bot*
G04 #@! TF.FilePolarity,Negative*
%FSLAX46Y46*%
G04 Gerber Fmt 4.6, Leading zero omitted, Abs format (unit mm)*
G04 Created by KiCad (PCBNEW 7.0.11) date 2026-02-08 08:31:11*
%MOMM*%
%LPD*%
G01*
G04 APERTURE LIST*
%ADD10C,1.381000*%
%ADD11C,1.635000*%
%ADD12C,2.000000*%
%ADD13R,1.600000X1.600000*%
%ADD14O,1.600000X1.600000*%
%ADD15C,5.500000*%
%ADD16C,2.500000*%
%ADD17C,2.540000*%
%ADD18C,1.524000*%
%ADD19C,1.600000*%
%ADD20C,1.300000*%
G04 APERTURE END LIST*
D10*
X195500000Y-44000000D03*
X198500000Y-44000000D03*
D11*
X233172000Y-44196000D03*
X233172000Y-41656000D03*
X233172000Y-39116000D03*
X233172000Y-36576000D03*
X233172000Y-34036000D03*
X228092000Y-44196000D03*
X228092000Y-41656000D03*
X228092000Y-39116000D03*
X228092000Y-36576000D03*
X228092000Y-34036000D03*
D12*
X174396000Y-112805000D03*
X174396000Y-108655000D03*
X174396000Y-105325000D03*
X174396000Y-101995000D03*
X174396000Y-98665000D03*
X174396000Y-95335000D03*
X174396000Y-92005000D03*
X174396000Y-87855000D03*
X170196000Y-112805000D03*
X170196000Y-108655000D03*
X170196000Y-105325000D03*
X170196000Y-101995000D03*
X170196000Y-98665000D03*
X170196000Y-95335000D03*
X170196000Y-92005000D03*
X170196000Y-87855000D03*
X165996000Y-112805000D03*
X165996000Y-108655000D03*
X165996000Y-105325000D03*
X165996000Y-101995000D03*
X165996000Y-98665000D03*
X165996000Y-95335000D03*
X165996000Y-92005000D03*
X165996000Y-87855000D03*
X174396000Y-59465000D03*
X174396000Y-55315000D03*
X174396000Y-51985000D03*
X174396000Y-48655000D03*
X174396000Y-45325000D03*
X174396000Y-41995000D03*
X174396000Y-38665000D03*
X174396000Y-34515000D03*
X170196000Y-59465000D03*
X170196000Y-55315000D03*
X170196000Y-51985000D03*
X170196000Y-48655000D03*
X170196000Y-45325000D03*
X170196000Y-41995000D03*
X170196000Y-38665000D03*
X170196000Y-34515000D03*
X165996000Y-59465000D03*
X165996000Y-55315000D03*
X165996000Y-51985000D03*
X165996000Y-48655000D03*
X165996000Y-45325000D03*
X165996000Y-41995000D03*
X165996000Y-38665000D03*
X165996000Y-34515000D03*
D10*
X205500000Y-44000000D03*
X208500000Y-44000000D03*
D13*
X259334000Y-102870000D03*
D14*
X259334000Y-105410000D03*
X259334000Y-107950000D03*
X259334000Y-110490000D03*
X259334000Y-113030000D03*
X259334000Y-115570000D03*
X259334000Y-118110000D03*
X259334000Y-120650000D03*
X272034000Y-120650000D03*
X272034000Y-118110000D03*
X272034000Y-115570000D03*
X272034000Y-113030000D03*
X272034000Y-110490000D03*
X272034000Y-107950000D03*
X272034000Y-105410000D03*
X272034000Y-102870000D03*
D15*
X266160000Y-117200000D03*
X266160000Y-30500000D03*
X183102000Y-30480000D03*
D16*
X257040395Y-54610000D03*
D17*
X266570395Y-54610000D03*
D10*
X215500000Y-44000000D03*
X218500000Y-44000000D03*
X219500000Y-98706000D03*
X219500000Y-95706000D03*
D18*
X237693200Y-118872000D03*
X237693200Y-103632000D03*
X235153200Y-118872000D03*
X235153200Y-103632000D03*
X232613200Y-118872000D03*
X232613200Y-103632000D03*
X230073200Y-118872000D03*
X230073200Y-103632000D03*
X227533200Y-118872000D03*
X227533200Y-103632000D03*
X224993200Y-118872000D03*
X224993200Y-103632000D03*
X222453200Y-118872000D03*
X222453200Y-103632000D03*
X219913200Y-118872000D03*
X219913200Y-103632000D03*
D13*
X199136000Y-80620000D03*
D19*
X201676000Y-80620000D03*
X204216000Y-80620000D03*
X206756000Y-80620000D03*
X209296000Y-80620000D03*
X211836000Y-80620000D03*
X214376000Y-80620000D03*
X216916000Y-80620000D03*
X219456000Y-80620000D03*
X221996000Y-80620000D03*
X224536000Y-80620000D03*
X227076000Y-80620000D03*
X229616000Y-80620000D03*
X232156000Y-80620000D03*
X234696000Y-80620000D03*
X237236000Y-80620000D03*
X239776000Y-80620000D03*
X242316000Y-80620000D03*
X244856000Y-80620000D03*
X247396000Y-80620000D03*
X249936000Y-80620000D03*
X252476000Y-80620000D03*
X255016000Y-80620000D03*
X257556000Y-80620000D03*
X257556000Y-65380000D03*
X255016000Y-65380000D03*
X252476000Y-65380000D03*
X249936000Y-65380000D03*
X247396000Y-65380000D03*
X244856000Y-65380000D03*
X242316000Y-65380000D03*
X239776000Y-65380000D03*
X237236000Y-65380000D03*
X234696000Y-65380000D03*
X232156000Y-65380000D03*
X229616000Y-65380000D03*
X227076000Y-65380000D03*
X224536000Y-65380000D03*
X221996000Y-65380000D03*
X219456000Y-65380000D03*
X216916000Y-65380000D03*
X214376000Y-65380000D03*
X211836000Y-65380000D03*
X209296000Y-65380000D03*
X206756000Y-65380000D03*
X204216000Y-65380000D03*
X201676000Y-65380000D03*
X199136000Y-65380000D03*
X201676000Y-67920000D03*
X244856000Y-78080000D03*
X244856000Y-75540000D03*
X244856000Y-73000000D03*
X244856000Y-70460000D03*
X244856000Y-67920000D03*
D20*
X199866000Y-71730000D03*
X199866000Y-74270000D03*
D15*
X183388000Y-117094000D03*
M02*
