G04 #@! TF.GenerationSoftware,KiCad,Pcbnew,(6.0.0-0)*
G04 #@! TF.CreationDate,2023-01-22T15:48:09+00:00*
G04 #@! TF.ProjectId,VR-Conditioner-MAX9926+reg,56522d43-6f6e-4646-9974-696f6e65722d,3.74*
G04 #@! TF.SameCoordinates,PX6a95280PY6f6d640*
G04 #@! TF.FileFunction,AssemblyDrawing,Top*
%FSLAX46Y46*%
G04 Gerber Fmt 4.6, Leading zero omitted, Abs format (unit mm)*
G04 Created by KiCad (PCBNEW (6.0.0-0)) date 2023-01-22 15:48:09*
%MOMM*%
%LPD*%
G01*
G04 APERTURE LIST*
%ADD10C,0.150000*%
%ADD11C,0.060000*%
%ADD12C,0.080000*%
%ADD13C,0.120000*%
%ADD14C,0.040000*%
%ADD15C,0.100000*%
%ADD16C,0.152400*%
G04 APERTURE END LIST*
D10*
G04 #@! TO.C,C1*
X24376142Y8564620D02*
X23804714Y8564620D01*
X24090428Y8564620D02*
X24090428Y9564620D01*
X23995190Y9421762D01*
X23899952Y9326524D01*
X23804714Y9278905D01*
X24995190Y9564620D02*
X25090428Y9564620D01*
X25185666Y9517000D01*
X25233285Y9469381D01*
X25280904Y9374143D01*
X25328523Y9183667D01*
X25328523Y8945572D01*
X25280904Y8755096D01*
X25233285Y8659858D01*
X25185666Y8612239D01*
X25090428Y8564620D01*
X24995190Y8564620D01*
X24899952Y8612239D01*
X24852333Y8659858D01*
X24804714Y8755096D01*
X24757095Y8945572D01*
X24757095Y9183667D01*
X24804714Y9374143D01*
X24852333Y9469381D01*
X24899952Y9517000D01*
X24995190Y9564620D01*
X25757095Y9231286D02*
X25757095Y8564620D01*
X25757095Y9136048D02*
X25804714Y9183667D01*
X25899952Y9231286D01*
X26042809Y9231286D01*
X26138047Y9183667D01*
X26185666Y9088429D01*
X26185666Y8564620D01*
D11*
X20189833Y9001143D02*
X20170785Y8982096D01*
X20113642Y8963048D01*
X20075547Y8963048D01*
X20018404Y8982096D01*
X19980309Y9020191D01*
X19961261Y9058286D01*
X19942214Y9134477D01*
X19942214Y9191620D01*
X19961261Y9267810D01*
X19980309Y9305905D01*
X20018404Y9344000D01*
X20075547Y9363048D01*
X20113642Y9363048D01*
X20170785Y9344000D01*
X20189833Y9324953D01*
X20570785Y8963048D02*
X20342214Y8963048D01*
X20456500Y8963048D02*
X20456500Y9363048D01*
X20418404Y9305905D01*
X20380309Y9267810D01*
X20342214Y9248762D01*
D10*
G04 #@! TO.C,C2*
X24217452Y10469620D02*
X23646023Y10469620D01*
X23931738Y10469620D02*
X23931738Y11469620D01*
X23836500Y11326762D01*
X23741261Y11231524D01*
X23646023Y11183905D01*
X24836500Y11469620D02*
X24931738Y11469620D01*
X25026976Y11422000D01*
X25074595Y11374381D01*
X25122214Y11279143D01*
X25169833Y11088667D01*
X25169833Y10850572D01*
X25122214Y10660096D01*
X25074595Y10564858D01*
X25026976Y10517239D01*
X24931738Y10469620D01*
X24836500Y10469620D01*
X24741261Y10517239D01*
X24693642Y10564858D01*
X24646023Y10660096D01*
X24598404Y10850572D01*
X24598404Y11088667D01*
X24646023Y11279143D01*
X24693642Y11374381D01*
X24741261Y11422000D01*
X24836500Y11469620D01*
X25788880Y11469620D02*
X25884119Y11469620D01*
X25979357Y11422000D01*
X26026976Y11374381D01*
X26074595Y11279143D01*
X26122214Y11088667D01*
X26122214Y10850572D01*
X26074595Y10660096D01*
X26026976Y10564858D01*
X25979357Y10517239D01*
X25884119Y10469620D01*
X25788880Y10469620D01*
X25693642Y10517239D01*
X25646023Y10564858D01*
X25598404Y10660096D01*
X25550785Y10850572D01*
X25550785Y11088667D01*
X25598404Y11279143D01*
X25646023Y11374381D01*
X25693642Y11422000D01*
X25788880Y11469620D01*
X26550785Y11136286D02*
X26550785Y10469620D01*
X26550785Y11041048D02*
X26598404Y11088667D01*
X26693642Y11136286D01*
X26836500Y11136286D01*
X26931738Y11088667D01*
X26979357Y10993429D01*
X26979357Y10469620D01*
D11*
X20189833Y10906143D02*
X20170785Y10887096D01*
X20113642Y10868048D01*
X20075547Y10868048D01*
X20018404Y10887096D01*
X19980309Y10925191D01*
X19961261Y10963286D01*
X19942214Y11039477D01*
X19942214Y11096620D01*
X19961261Y11172810D01*
X19980309Y11210905D01*
X20018404Y11249000D01*
X20075547Y11268048D01*
X20113642Y11268048D01*
X20170785Y11249000D01*
X20189833Y11229953D01*
X20342214Y11229953D02*
X20361261Y11249000D01*
X20399357Y11268048D01*
X20494595Y11268048D01*
X20532690Y11249000D01*
X20551738Y11229953D01*
X20570785Y11191858D01*
X20570785Y11153762D01*
X20551738Y11096620D01*
X20323166Y10868048D01*
X20570785Y10868048D01*
D10*
G04 #@! TO.C,C3*
X24217333Y12374620D02*
X23645904Y12374620D01*
X23931619Y12374620D02*
X23931619Y13374620D01*
X23836380Y13231762D01*
X23741142Y13136524D01*
X23645904Y13088905D01*
X25074476Y13041286D02*
X25074476Y12374620D01*
X24645904Y13041286D02*
X24645904Y12517477D01*
X24693523Y12422239D01*
X24788761Y12374620D01*
X24931619Y12374620D01*
X25026857Y12422239D01*
X25074476Y12469858D01*
D11*
X20189833Y12811143D02*
X20170785Y12792096D01*
X20113642Y12773048D01*
X20075547Y12773048D01*
X20018404Y12792096D01*
X19980309Y12830191D01*
X19961261Y12868286D01*
X19942214Y12944477D01*
X19942214Y13001620D01*
X19961261Y13077810D01*
X19980309Y13115905D01*
X20018404Y13154000D01*
X20075547Y13173048D01*
X20113642Y13173048D01*
X20170785Y13154000D01*
X20189833Y13134953D01*
X20323166Y13173048D02*
X20570785Y13173048D01*
X20437452Y13020667D01*
X20494595Y13020667D01*
X20532690Y13001620D01*
X20551738Y12982572D01*
X20570785Y12944477D01*
X20570785Y12849239D01*
X20551738Y12811143D01*
X20532690Y12792096D01*
X20494595Y12773048D01*
X20380309Y12773048D01*
X20342214Y12792096D01*
X20323166Y12811143D01*
D10*
G04 #@! TO.C,C4*
X10533142Y309620D02*
X9961714Y309620D01*
X10247428Y309620D02*
X10247428Y1309620D01*
X10152190Y1166762D01*
X10056952Y1071524D01*
X9961714Y1023905D01*
X11152190Y1309620D02*
X11247428Y1309620D01*
X11342666Y1262000D01*
X11390285Y1214381D01*
X11437904Y1119143D01*
X11485523Y928667D01*
X11485523Y690572D01*
X11437904Y500096D01*
X11390285Y404858D01*
X11342666Y357239D01*
X11247428Y309620D01*
X11152190Y309620D01*
X11056952Y357239D01*
X11009333Y404858D01*
X10961714Y500096D01*
X10914095Y690572D01*
X10914095Y928667D01*
X10961714Y1119143D01*
X11009333Y1214381D01*
X11056952Y1262000D01*
X11152190Y1309620D01*
X12342666Y976286D02*
X12342666Y309620D01*
X11914095Y976286D02*
X11914095Y452477D01*
X11961714Y357239D01*
X12056952Y309620D01*
X12199809Y309620D01*
X12295047Y357239D01*
X12342666Y404858D01*
D12*
X12362666Y8965429D02*
X12338857Y8941620D01*
X12267428Y8917810D01*
X12219809Y8917810D01*
X12148380Y8941620D01*
X12100761Y8989239D01*
X12076952Y9036858D01*
X12053142Y9132096D01*
X12053142Y9203524D01*
X12076952Y9298762D01*
X12100761Y9346381D01*
X12148380Y9394000D01*
X12219809Y9417810D01*
X12267428Y9417810D01*
X12338857Y9394000D01*
X12362666Y9370191D01*
X12791238Y9251143D02*
X12791238Y8917810D01*
X12672190Y9441620D02*
X12553142Y9084477D01*
X12862666Y9084477D01*
D10*
G04 #@! TO.C,C10*
X341333Y14089120D02*
X-230096Y14089120D01*
X55619Y14089120D02*
X55619Y15089120D01*
X-39620Y14946262D01*
X-134858Y14851024D01*
X-230096Y14803405D01*
X769904Y14755786D02*
X769904Y14089120D01*
X769904Y14660548D02*
X817523Y14708167D01*
X912761Y14755786D01*
X1055619Y14755786D01*
X1150857Y14708167D01*
X1198476Y14612929D01*
X1198476Y14089120D01*
D11*
X5267357Y14398643D02*
X5248309Y14379596D01*
X5191166Y14360548D01*
X5153071Y14360548D01*
X5095928Y14379596D01*
X5057833Y14417691D01*
X5038785Y14455786D01*
X5019738Y14531977D01*
X5019738Y14589120D01*
X5038785Y14665310D01*
X5057833Y14703405D01*
X5095928Y14741500D01*
X5153071Y14760548D01*
X5191166Y14760548D01*
X5248309Y14741500D01*
X5267357Y14722453D01*
X5648309Y14360548D02*
X5419738Y14360548D01*
X5534023Y14360548D02*
X5534023Y14760548D01*
X5495928Y14703405D01*
X5457833Y14665310D01*
X5419738Y14646262D01*
X5895928Y14760548D02*
X5934023Y14760548D01*
X5972119Y14741500D01*
X5991166Y14722453D01*
X6010214Y14684358D01*
X6029261Y14608167D01*
X6029261Y14512929D01*
X6010214Y14436739D01*
X5991166Y14398643D01*
X5972119Y14379596D01*
X5934023Y14360548D01*
X5895928Y14360548D01*
X5857833Y14379596D01*
X5838785Y14398643D01*
X5819738Y14436739D01*
X5800690Y14512929D01*
X5800690Y14608167D01*
X5819738Y14684358D01*
X5838785Y14722453D01*
X5857833Y14741500D01*
X5895928Y14760548D01*
D10*
G04 #@! TO.C,C20*
X341333Y7929620D02*
X-230096Y7929620D01*
X55619Y7929620D02*
X55619Y8929620D01*
X-39620Y8786762D01*
X-134858Y8691524D01*
X-230096Y8643905D01*
X769904Y8596286D02*
X769904Y7929620D01*
X769904Y8501048D02*
X817523Y8548667D01*
X912761Y8596286D01*
X1055619Y8596286D01*
X1150857Y8548667D01*
X1198476Y8453429D01*
X1198476Y7929620D01*
D11*
X5267357Y8112143D02*
X5248309Y8093096D01*
X5191166Y8074048D01*
X5153071Y8074048D01*
X5095928Y8093096D01*
X5057833Y8131191D01*
X5038785Y8169286D01*
X5019738Y8245477D01*
X5019738Y8302620D01*
X5038785Y8378810D01*
X5057833Y8416905D01*
X5095928Y8455000D01*
X5153071Y8474048D01*
X5191166Y8474048D01*
X5248309Y8455000D01*
X5267357Y8435953D01*
X5419738Y8435953D02*
X5438785Y8455000D01*
X5476880Y8474048D01*
X5572119Y8474048D01*
X5610214Y8455000D01*
X5629261Y8435953D01*
X5648309Y8397858D01*
X5648309Y8359762D01*
X5629261Y8302620D01*
X5400690Y8074048D01*
X5648309Y8074048D01*
X5895928Y8474048D02*
X5934023Y8474048D01*
X5972119Y8455000D01*
X5991166Y8435953D01*
X6010214Y8397858D01*
X6029261Y8321667D01*
X6029261Y8226429D01*
X6010214Y8150239D01*
X5991166Y8112143D01*
X5972119Y8093096D01*
X5934023Y8074048D01*
X5895928Y8074048D01*
X5857833Y8093096D01*
X5838785Y8112143D01*
X5819738Y8150239D01*
X5800690Y8226429D01*
X5800690Y8321667D01*
X5819738Y8397858D01*
X5838785Y8435953D01*
X5857833Y8455000D01*
X5895928Y8474048D01*
D10*
G04 #@! TO.C,R22*
X-595239Y9961620D02*
X-1166667Y9961620D01*
X-880953Y9961620D02*
X-880953Y10961620D01*
X-976191Y10818762D01*
X-1071429Y10723524D01*
X-1166667Y10675905D01*
X23809Y10961620D02*
X119047Y10961620D01*
X214285Y10914000D01*
X261904Y10866381D01*
X309523Y10771143D01*
X357142Y10580667D01*
X357142Y10342572D01*
X309523Y10152096D01*
X261904Y10056858D01*
X214285Y10009239D01*
X119047Y9961620D01*
X23809Y9961620D01*
X-71429Y10009239D01*
X-119048Y10056858D01*
X-166667Y10152096D01*
X-214286Y10342572D01*
X-214286Y10580667D01*
X-166667Y10771143D01*
X-119048Y10866381D01*
X-71429Y10914000D01*
X23809Y10961620D01*
X785714Y9961620D02*
X785714Y10961620D01*
X880952Y10342572D02*
X1166666Y9961620D01*
X1166666Y10628286D02*
X785714Y10247334D01*
D13*
X5105714Y9838096D02*
X4839047Y10219048D01*
X4648571Y9838096D02*
X4648571Y10638096D01*
X4953333Y10638096D01*
X5029523Y10600000D01*
X5067619Y10561905D01*
X5105714Y10485715D01*
X5105714Y10371429D01*
X5067619Y10295239D01*
X5029523Y10257143D01*
X4953333Y10219048D01*
X4648571Y10219048D01*
X5410476Y10561905D02*
X5448571Y10600000D01*
X5524761Y10638096D01*
X5715238Y10638096D01*
X5791428Y10600000D01*
X5829523Y10561905D01*
X5867619Y10485715D01*
X5867619Y10409524D01*
X5829523Y10295239D01*
X5372380Y9838096D01*
X5867619Y9838096D01*
X6172380Y10561905D02*
X6210476Y10600000D01*
X6286666Y10638096D01*
X6477142Y10638096D01*
X6553333Y10600000D01*
X6591428Y10561905D01*
X6629523Y10485715D01*
X6629523Y10409524D01*
X6591428Y10295239D01*
X6134285Y9838096D01*
X6629523Y9838096D01*
D10*
G04 #@! TO.C,R21*
X-595239Y5897620D02*
X-1166667Y5897620D01*
X-880953Y5897620D02*
X-880953Y6897620D01*
X-976191Y6754762D01*
X-1071429Y6659524D01*
X-1166667Y6611905D01*
X23809Y6897620D02*
X119047Y6897620D01*
X214285Y6850000D01*
X261904Y6802381D01*
X309523Y6707143D01*
X357142Y6516667D01*
X357142Y6278572D01*
X309523Y6088096D01*
X261904Y5992858D01*
X214285Y5945239D01*
X119047Y5897620D01*
X23809Y5897620D01*
X-71429Y5945239D01*
X-119048Y5992858D01*
X-166667Y6088096D01*
X-214286Y6278572D01*
X-214286Y6516667D01*
X-166667Y6707143D01*
X-119048Y6802381D01*
X-71429Y6850000D01*
X23809Y6897620D01*
X785714Y5897620D02*
X785714Y6897620D01*
X880952Y6278572D02*
X1166666Y5897620D01*
X1166666Y6564286D02*
X785714Y6183334D01*
D13*
X5105214Y5988096D02*
X4838547Y6369048D01*
X4648071Y5988096D02*
X4648071Y6788096D01*
X4952833Y6788096D01*
X5029023Y6750000D01*
X5067119Y6711905D01*
X5105214Y6635715D01*
X5105214Y6521429D01*
X5067119Y6445239D01*
X5029023Y6407143D01*
X4952833Y6369048D01*
X4648071Y6369048D01*
X5409976Y6711905D02*
X5448071Y6750000D01*
X5524261Y6788096D01*
X5714738Y6788096D01*
X5790928Y6750000D01*
X5829023Y6711905D01*
X5867119Y6635715D01*
X5867119Y6559524D01*
X5829023Y6445239D01*
X5371880Y5988096D01*
X5867119Y5988096D01*
X6629023Y5988096D02*
X6171880Y5988096D01*
X6400452Y5988096D02*
X6400452Y6788096D01*
X6324261Y6673810D01*
X6248071Y6597620D01*
X6171880Y6559524D01*
D10*
G04 #@! TO.C,R11*
X-595239Y12247620D02*
X-1166667Y12247620D01*
X-880953Y12247620D02*
X-880953Y13247620D01*
X-976191Y13104762D01*
X-1071429Y13009524D01*
X-1166667Y12961905D01*
X23809Y13247620D02*
X119047Y13247620D01*
X214285Y13200000D01*
X261904Y13152381D01*
X309523Y13057143D01*
X357142Y12866667D01*
X357142Y12628572D01*
X309523Y12438096D01*
X261904Y12342858D01*
X214285Y12295239D01*
X119047Y12247620D01*
X23809Y12247620D01*
X-71429Y12295239D01*
X-119048Y12342858D01*
X-166667Y12438096D01*
X-214286Y12628572D01*
X-214286Y12866667D01*
X-166667Y13057143D01*
X-119048Y13152381D01*
X-71429Y13200000D01*
X23809Y13247620D01*
X785714Y12247620D02*
X785714Y13247620D01*
X880952Y12628572D02*
X1166666Y12247620D01*
X1166666Y12914286D02*
X785714Y12533334D01*
D13*
X5137214Y12211096D02*
X4870547Y12592048D01*
X4680071Y12211096D02*
X4680071Y13011096D01*
X4984833Y13011096D01*
X5061023Y12973000D01*
X5099119Y12934905D01*
X5137214Y12858715D01*
X5137214Y12744429D01*
X5099119Y12668239D01*
X5061023Y12630143D01*
X4984833Y12592048D01*
X4680071Y12592048D01*
X5899119Y12211096D02*
X5441976Y12211096D01*
X5670547Y12211096D02*
X5670547Y13011096D01*
X5594357Y12896810D01*
X5518166Y12820620D01*
X5441976Y12782524D01*
X6661023Y12211096D02*
X6203880Y12211096D01*
X6432452Y12211096D02*
X6432452Y13011096D01*
X6356261Y12896810D01*
X6280071Y12820620D01*
X6203880Y12782524D01*
D10*
G04 #@! TO.C,FID1*
X413047Y2230429D02*
X79714Y2230429D01*
X79714Y1706620D02*
X79714Y2706620D01*
X555904Y2706620D01*
X936857Y1706620D02*
X936857Y2373286D01*
X936857Y2706620D02*
X889238Y2659000D01*
X936857Y2611381D01*
X984476Y2659000D01*
X936857Y2706620D01*
X936857Y2611381D01*
X1841619Y1706620D02*
X1841619Y2706620D01*
X1841619Y1754239D02*
X1746380Y1706620D01*
X1555904Y1706620D01*
X1460666Y1754239D01*
X1413047Y1801858D01*
X1365428Y1897096D01*
X1365428Y2182810D01*
X1413047Y2278048D01*
X1460666Y2325667D01*
X1555904Y2373286D01*
X1746380Y2373286D01*
X1841619Y2325667D01*
X2746380Y2373286D02*
X2746380Y1706620D01*
X2317809Y2373286D02*
X2317809Y1849477D01*
X2365428Y1754239D01*
X2460666Y1706620D01*
X2603523Y1706620D01*
X2698761Y1754239D01*
X2746380Y1801858D01*
X3651142Y1754239D02*
X3555904Y1706620D01*
X3365428Y1706620D01*
X3270190Y1754239D01*
X3222571Y1801858D01*
X3174952Y1897096D01*
X3174952Y2182810D01*
X3222571Y2278048D01*
X3270190Y2325667D01*
X3365428Y2373286D01*
X3555904Y2373286D01*
X3651142Y2325667D01*
X4079714Y1706620D02*
X4079714Y2373286D01*
X4079714Y2706620D02*
X4032095Y2659000D01*
X4079714Y2611381D01*
X4127333Y2659000D01*
X4079714Y2706620D01*
X4079714Y2611381D01*
X4984476Y1706620D02*
X4984476Y2230429D01*
X4936857Y2325667D01*
X4841619Y2373286D01*
X4651142Y2373286D01*
X4555904Y2325667D01*
X4984476Y1754239D02*
X4889238Y1706620D01*
X4651142Y1706620D01*
X4555904Y1754239D01*
X4508285Y1849477D01*
X4508285Y1944715D01*
X4555904Y2039953D01*
X4651142Y2087572D01*
X4889238Y2087572D01*
X4984476Y2135191D01*
X5603523Y1706620D02*
X5508285Y1754239D01*
X5460666Y1849477D01*
X5460666Y2706620D01*
D14*
X3849714Y4078286D02*
X3783047Y4078286D01*
X3783047Y3973524D02*
X3783047Y4173524D01*
X3878285Y4173524D01*
X3954476Y3973524D02*
X3954476Y4173524D01*
X4049714Y3973524D02*
X4049714Y4173524D01*
X4097333Y4173524D01*
X4125904Y4164000D01*
X4144952Y4144953D01*
X4154476Y4125905D01*
X4164000Y4087810D01*
X4164000Y4059239D01*
X4154476Y4021143D01*
X4144952Y4002096D01*
X4125904Y3983048D01*
X4097333Y3973524D01*
X4049714Y3973524D01*
X4354476Y3973524D02*
X4240190Y3973524D01*
X4297333Y3973524D02*
X4297333Y4173524D01*
X4278285Y4144953D01*
X4259238Y4125905D01*
X4240190Y4116381D01*
D10*
G04 #@! TO.C,FID2*
X20733047Y23185429D02*
X20399714Y23185429D01*
X20399714Y22661620D02*
X20399714Y23661620D01*
X20875904Y23661620D01*
X21256857Y22661620D02*
X21256857Y23328286D01*
X21256857Y23661620D02*
X21209238Y23614000D01*
X21256857Y23566381D01*
X21304476Y23614000D01*
X21256857Y23661620D01*
X21256857Y23566381D01*
X22161619Y22661620D02*
X22161619Y23661620D01*
X22161619Y22709239D02*
X22066380Y22661620D01*
X21875904Y22661620D01*
X21780666Y22709239D01*
X21733047Y22756858D01*
X21685428Y22852096D01*
X21685428Y23137810D01*
X21733047Y23233048D01*
X21780666Y23280667D01*
X21875904Y23328286D01*
X22066380Y23328286D01*
X22161619Y23280667D01*
X23066380Y23328286D02*
X23066380Y22661620D01*
X22637809Y23328286D02*
X22637809Y22804477D01*
X22685428Y22709239D01*
X22780666Y22661620D01*
X22923523Y22661620D01*
X23018761Y22709239D01*
X23066380Y22756858D01*
X23971142Y22709239D02*
X23875904Y22661620D01*
X23685428Y22661620D01*
X23590190Y22709239D01*
X23542571Y22756858D01*
X23494952Y22852096D01*
X23494952Y23137810D01*
X23542571Y23233048D01*
X23590190Y23280667D01*
X23685428Y23328286D01*
X23875904Y23328286D01*
X23971142Y23280667D01*
X24399714Y22661620D02*
X24399714Y23328286D01*
X24399714Y23661620D02*
X24352095Y23614000D01*
X24399714Y23566381D01*
X24447333Y23614000D01*
X24399714Y23661620D01*
X24399714Y23566381D01*
X25304476Y22661620D02*
X25304476Y23185429D01*
X25256857Y23280667D01*
X25161619Y23328286D01*
X24971142Y23328286D01*
X24875904Y23280667D01*
X25304476Y22709239D02*
X25209238Y22661620D01*
X24971142Y22661620D01*
X24875904Y22709239D01*
X24828285Y22804477D01*
X24828285Y22899715D01*
X24875904Y22994953D01*
X24971142Y23042572D01*
X25209238Y23042572D01*
X25304476Y23090191D01*
X25923523Y22661620D02*
X25828285Y22709239D01*
X25780666Y22804477D01*
X25780666Y23661620D01*
D14*
X20994714Y21223286D02*
X20928047Y21223286D01*
X20928047Y21118524D02*
X20928047Y21318524D01*
X21023285Y21318524D01*
X21099476Y21118524D02*
X21099476Y21318524D01*
X21194714Y21118524D02*
X21194714Y21318524D01*
X21242333Y21318524D01*
X21270904Y21309000D01*
X21289952Y21289953D01*
X21299476Y21270905D01*
X21309000Y21232810D01*
X21309000Y21204239D01*
X21299476Y21166143D01*
X21289952Y21147096D01*
X21270904Y21128048D01*
X21242333Y21118524D01*
X21194714Y21118524D01*
X21385190Y21299477D02*
X21394714Y21309000D01*
X21413761Y21318524D01*
X21461380Y21318524D01*
X21480428Y21309000D01*
X21489952Y21299477D01*
X21499476Y21280429D01*
X21499476Y21261381D01*
X21489952Y21232810D01*
X21375666Y21118524D01*
X21499476Y21118524D01*
D10*
G04 #@! TO.C,J3*
X-7492405Y18724548D02*
X-7587643Y18772167D01*
X-7635262Y18819786D01*
X-7682881Y18915024D01*
X-7682881Y18962643D01*
X-7635262Y19057881D01*
X-7587643Y19105500D01*
X-7492405Y19153120D01*
X-7301929Y19153120D01*
X-7206691Y19105500D01*
X-7159072Y19057881D01*
X-7111453Y18962643D01*
X-7111453Y18915024D01*
X-7159072Y18819786D01*
X-7206691Y18772167D01*
X-7301929Y18724548D01*
X-7492405Y18724548D01*
X-7587643Y18676929D01*
X-7635262Y18629310D01*
X-7682881Y18534072D01*
X-7682881Y18343596D01*
X-7635262Y18248358D01*
X-7587643Y18200739D01*
X-7492405Y18153120D01*
X-7301929Y18153120D01*
X-7206691Y18200739D01*
X-7159072Y18248358D01*
X-7111453Y18343596D01*
X-7111453Y18534072D01*
X-7159072Y18629310D01*
X-7206691Y18676929D01*
X-7301929Y18724548D01*
X-6682881Y18534072D02*
X-5920977Y18534072D01*
X-5444786Y18819786D02*
X-5444786Y17819786D01*
X-5444786Y18772167D02*
X-5349548Y18819786D01*
X-5159072Y18819786D01*
X-5063834Y18772167D01*
X-5016215Y18724548D01*
X-4968596Y18629310D01*
X-4968596Y18343596D01*
X-5016215Y18248358D01*
X-5063834Y18200739D01*
X-5159072Y18153120D01*
X-5349548Y18153120D01*
X-5444786Y18200739D01*
X-4540024Y18153120D02*
X-4540024Y18819786D01*
X-4540024Y19153120D02*
X-4587643Y19105500D01*
X-4540024Y19057881D01*
X-4492405Y19105500D01*
X-4540024Y19153120D01*
X-4540024Y19057881D01*
X-4063834Y18819786D02*
X-4063834Y18153120D01*
X-4063834Y18724548D02*
X-4016215Y18772167D01*
X-3920977Y18819786D01*
X-3778120Y18819786D01*
X-3682881Y18772167D01*
X-3635262Y18676929D01*
X-3635262Y18153120D01*
X-2397167Y18153120D02*
X-2397167Y19153120D01*
X-1968596Y18153120D02*
X-1968596Y18676929D01*
X-2016215Y18772167D01*
X-2111453Y18819786D01*
X-2254310Y18819786D01*
X-2349548Y18772167D01*
X-2397167Y18724548D01*
X-1111453Y18200739D02*
X-1206691Y18153120D01*
X-1397167Y18153120D01*
X-1492405Y18200739D01*
X-1540024Y18295977D01*
X-1540024Y18676929D01*
X-1492405Y18772167D01*
X-1397167Y18819786D01*
X-1206691Y18819786D01*
X-1111453Y18772167D01*
X-1063834Y18676929D01*
X-1063834Y18581691D01*
X-1540024Y18486453D01*
X-206691Y18153120D02*
X-206691Y18676929D01*
X-254310Y18772167D01*
X-349548Y18819786D01*
X-540024Y18819786D01*
X-635262Y18772167D01*
X-206691Y18200739D02*
X-301929Y18153120D01*
X-540024Y18153120D01*
X-635262Y18200739D01*
X-682881Y18295977D01*
X-682881Y18391215D01*
X-635262Y18486453D01*
X-540024Y18534072D01*
X-301929Y18534072D01*
X-206691Y18581691D01*
X698071Y18153120D02*
X698071Y19153120D01*
X698071Y18200739D02*
X602833Y18153120D01*
X412357Y18153120D01*
X317119Y18200739D01*
X269500Y18248358D01*
X221880Y18343596D01*
X221880Y18629310D01*
X269500Y18724548D01*
X317119Y18772167D01*
X412357Y18819786D01*
X602833Y18819786D01*
X698071Y18772167D01*
X1555214Y18200739D02*
X1459976Y18153120D01*
X1269500Y18153120D01*
X1174261Y18200739D01*
X1126642Y18295977D01*
X1126642Y18676929D01*
X1174261Y18772167D01*
X1269500Y18819786D01*
X1459976Y18819786D01*
X1555214Y18772167D01*
X1602833Y18676929D01*
X1602833Y18581691D01*
X1126642Y18486453D01*
X2031404Y18153120D02*
X2031404Y18819786D01*
X2031404Y18629310D02*
X2079023Y18724548D01*
X2126642Y18772167D01*
X2221880Y18819786D01*
X2317119Y18819786D01*
X9509166Y18581620D02*
X9509166Y17867334D01*
X9461547Y17724477D01*
X9366309Y17629239D01*
X9223452Y17581620D01*
X9128214Y17581620D01*
X9890119Y18581620D02*
X10509166Y18581620D01*
X10175833Y18200667D01*
X10318690Y18200667D01*
X10413928Y18153048D01*
X10461547Y18105429D01*
X10509166Y18010191D01*
X10509166Y17772096D01*
X10461547Y17676858D01*
X10413928Y17629239D01*
X10318690Y17581620D01*
X10032976Y17581620D01*
X9937738Y17629239D01*
X9890119Y17676858D01*
G04 #@! TO.C,R10*
X24137952Y16184620D02*
X23566523Y16184620D01*
X23852238Y16184620D02*
X23852238Y17184620D01*
X23757000Y17041762D01*
X23661761Y16946524D01*
X23566523Y16898905D01*
X24566523Y16184620D02*
X24566523Y17184620D01*
X24661761Y16565572D02*
X24947476Y16184620D01*
X24947476Y16851286D02*
X24566523Y16470334D01*
D11*
X19999357Y16583048D02*
X19866023Y16773524D01*
X19770785Y16583048D02*
X19770785Y16983048D01*
X19923166Y16983048D01*
X19961261Y16964000D01*
X19980309Y16944953D01*
X19999357Y16906858D01*
X19999357Y16849715D01*
X19980309Y16811620D01*
X19961261Y16792572D01*
X19923166Y16773524D01*
X19770785Y16773524D01*
X20380309Y16583048D02*
X20151738Y16583048D01*
X20266023Y16583048D02*
X20266023Y16983048D01*
X20227928Y16925905D01*
X20189833Y16887810D01*
X20151738Y16868762D01*
X20627928Y16983048D02*
X20666023Y16983048D01*
X20704119Y16964000D01*
X20723166Y16944953D01*
X20742214Y16906858D01*
X20761261Y16830667D01*
X20761261Y16735429D01*
X20742214Y16659239D01*
X20723166Y16621143D01*
X20704119Y16602096D01*
X20666023Y16583048D01*
X20627928Y16583048D01*
X20589833Y16602096D01*
X20570785Y16621143D01*
X20551738Y16659239D01*
X20532690Y16735429D01*
X20532690Y16830667D01*
X20551738Y16906858D01*
X20570785Y16944953D01*
X20589833Y16964000D01*
X20627928Y16983048D01*
D10*
G04 #@! TO.C,R20*
X24137952Y14279620D02*
X23566523Y14279620D01*
X23852238Y14279620D02*
X23852238Y15279620D01*
X23757000Y15136762D01*
X23661761Y15041524D01*
X23566523Y14993905D01*
X24566523Y14279620D02*
X24566523Y15279620D01*
X24661761Y14660572D02*
X24947476Y14279620D01*
X24947476Y14946286D02*
X24566523Y14565334D01*
D11*
X19999357Y14678048D02*
X19866023Y14868524D01*
X19770785Y14678048D02*
X19770785Y15078048D01*
X19923166Y15078048D01*
X19961261Y15059000D01*
X19980309Y15039953D01*
X19999357Y15001858D01*
X19999357Y14944715D01*
X19980309Y14906620D01*
X19961261Y14887572D01*
X19923166Y14868524D01*
X19770785Y14868524D01*
X20151738Y15039953D02*
X20170785Y15059000D01*
X20208880Y15078048D01*
X20304119Y15078048D01*
X20342214Y15059000D01*
X20361261Y15039953D01*
X20380309Y15001858D01*
X20380309Y14963762D01*
X20361261Y14906620D01*
X20132690Y14678048D01*
X20380309Y14678048D01*
X20627928Y15078048D02*
X20666023Y15078048D01*
X20704119Y15059000D01*
X20723166Y15039953D01*
X20742214Y15001858D01*
X20761261Y14925667D01*
X20761261Y14830429D01*
X20742214Y14754239D01*
X20723166Y14716143D01*
X20704119Y14697096D01*
X20666023Y14678048D01*
X20627928Y14678048D01*
X20589833Y14697096D01*
X20570785Y14716143D01*
X20551738Y14754239D01*
X20532690Y14830429D01*
X20532690Y14925667D01*
X20551738Y15001858D01*
X20570785Y15039953D01*
X20589833Y15059000D01*
X20627928Y15078048D01*
D10*
G04 #@! TO.C,U1*
X15136880Y15709900D02*
X15374976Y15709900D01*
X15279738Y15471805D02*
X15374976Y15709900D01*
X15279738Y15947996D01*
X15565452Y15567043D02*
X15374976Y15709900D01*
X15565452Y15852758D01*
X15136880Y15709900D02*
X15374976Y15709900D01*
X15279738Y15471805D02*
X15374976Y15709900D01*
X15279738Y15947996D01*
X15565452Y15567043D02*
X15374976Y15709900D01*
X15565452Y15852758D01*
G04 #@! TO.C,R13*
X10755428Y23836286D02*
X10755428Y23169620D01*
X10517333Y24217239D02*
X10279238Y23502953D01*
X10898285Y23502953D01*
X11279238Y23264858D02*
X11326857Y23217239D01*
X11279238Y23169620D01*
X11231619Y23217239D01*
X11279238Y23264858D01*
X11279238Y23169620D01*
X11660190Y24169620D02*
X12326857Y24169620D01*
X11898285Y23169620D01*
X12707809Y23169620D02*
X12707809Y24169620D01*
X12803047Y23550572D02*
X13088761Y23169620D01*
X13088761Y23836286D02*
X12707809Y23455334D01*
X10533142Y20629620D02*
X10199809Y21105810D01*
X9961714Y20629620D02*
X9961714Y21629620D01*
X10342666Y21629620D01*
X10437904Y21582000D01*
X10485523Y21534381D01*
X10533142Y21439143D01*
X10533142Y21296286D01*
X10485523Y21201048D01*
X10437904Y21153429D01*
X10342666Y21105810D01*
X9961714Y21105810D01*
X11485523Y20629620D02*
X10914095Y20629620D01*
X11199809Y20629620D02*
X11199809Y21629620D01*
X11104571Y21486762D01*
X11009333Y21391524D01*
X10914095Y21343905D01*
X11818857Y21629620D02*
X12437904Y21629620D01*
X12104571Y21248667D01*
X12247428Y21248667D01*
X12342666Y21201048D01*
X12390285Y21153429D01*
X12437904Y21058191D01*
X12437904Y20820096D01*
X12390285Y20724858D01*
X12342666Y20677239D01*
X12247428Y20629620D01*
X11961714Y20629620D01*
X11866476Y20677239D01*
X11818857Y20724858D01*
G04 #@! TO.C,R23*
X23709428Y19518286D02*
X23709428Y18851620D01*
X23471333Y19899239D02*
X23233238Y19184953D01*
X23852285Y19184953D01*
X24233238Y18946858D02*
X24280857Y18899239D01*
X24233238Y18851620D01*
X24185619Y18899239D01*
X24233238Y18946858D01*
X24233238Y18851620D01*
X24614190Y19851620D02*
X25280857Y19851620D01*
X24852285Y18851620D01*
X25661809Y18851620D02*
X25661809Y19851620D01*
X25757047Y19232572D02*
X26042761Y18851620D01*
X26042761Y19518286D02*
X25661809Y19137334D01*
X17772142Y18343620D02*
X17438809Y18819810D01*
X17200714Y18343620D02*
X17200714Y19343620D01*
X17581666Y19343620D01*
X17676904Y19296000D01*
X17724523Y19248381D01*
X17772142Y19153143D01*
X17772142Y19010286D01*
X17724523Y18915048D01*
X17676904Y18867429D01*
X17581666Y18819810D01*
X17200714Y18819810D01*
X18153095Y19248381D02*
X18200714Y19296000D01*
X18295952Y19343620D01*
X18534047Y19343620D01*
X18629285Y19296000D01*
X18676904Y19248381D01*
X18724523Y19153143D01*
X18724523Y19057905D01*
X18676904Y18915048D01*
X18105476Y18343620D01*
X18724523Y18343620D01*
X19057857Y19343620D02*
X19676904Y19343620D01*
X19343571Y18962667D01*
X19486428Y18962667D01*
X19581666Y18915048D01*
X19629285Y18867429D01*
X19676904Y18772191D01*
X19676904Y18534096D01*
X19629285Y18438858D01*
X19581666Y18391239D01*
X19486428Y18343620D01*
X19200714Y18343620D01*
X19105476Y18391239D01*
X19057857Y18438858D01*
G04 #@! TO.C,H1*
X19598285Y1706620D02*
X19598285Y2706620D01*
X19931619Y1992334D01*
X20264952Y2706620D01*
X20264952Y1706620D01*
X20884000Y1706620D02*
X20788761Y1754239D01*
X20741142Y1801858D01*
X20693523Y1897096D01*
X20693523Y2182810D01*
X20741142Y2278048D01*
X20788761Y2325667D01*
X20884000Y2373286D01*
X21026857Y2373286D01*
X21122095Y2325667D01*
X21169714Y2278048D01*
X21217333Y2182810D01*
X21217333Y1897096D01*
X21169714Y1801858D01*
X21122095Y1754239D01*
X21026857Y1706620D01*
X20884000Y1706620D01*
X22074476Y2373286D02*
X22074476Y1706620D01*
X21645904Y2373286D02*
X21645904Y1849477D01*
X21693523Y1754239D01*
X21788761Y1706620D01*
X21931619Y1706620D01*
X22026857Y1754239D01*
X22074476Y1801858D01*
X22550666Y2373286D02*
X22550666Y1706620D01*
X22550666Y2278048D02*
X22598285Y2325667D01*
X22693523Y2373286D01*
X22836380Y2373286D01*
X22931619Y2325667D01*
X22979238Y2230429D01*
X22979238Y1706620D01*
X23312571Y2373286D02*
X23693523Y2373286D01*
X23455428Y2706620D02*
X23455428Y1849477D01*
X23503047Y1754239D01*
X23598285Y1706620D01*
X23693523Y1706620D01*
X24026857Y1706620D02*
X24026857Y2373286D01*
X24026857Y2706620D02*
X23979238Y2659000D01*
X24026857Y2611381D01*
X24074476Y2659000D01*
X24026857Y2706620D01*
X24026857Y2611381D01*
X24503047Y2373286D02*
X24503047Y1706620D01*
X24503047Y2278048D02*
X24550666Y2325667D01*
X24645904Y2373286D01*
X24788761Y2373286D01*
X24884000Y2325667D01*
X24931619Y2230429D01*
X24931619Y1706620D01*
X25836380Y2373286D02*
X25836380Y1563762D01*
X25788761Y1468524D01*
X25741142Y1420905D01*
X25645904Y1373286D01*
X25503047Y1373286D01*
X25407809Y1420905D01*
X25836380Y1754239D02*
X25741142Y1706620D01*
X25550666Y1706620D01*
X25455428Y1754239D01*
X25407809Y1801858D01*
X25360190Y1897096D01*
X25360190Y2182810D01*
X25407809Y2278048D01*
X25455428Y2325667D01*
X25550666Y2373286D01*
X25741142Y2373286D01*
X25836380Y2325667D01*
X26312571Y1706620D02*
X26312571Y2706620D01*
X26312571Y2230429D02*
X26884000Y2230429D01*
X26884000Y1706620D02*
X26884000Y2706620D01*
X27503047Y1706620D02*
X27407809Y1754239D01*
X27360190Y1801858D01*
X27312571Y1897096D01*
X27312571Y2182810D01*
X27360190Y2278048D01*
X27407809Y2325667D01*
X27503047Y2373286D01*
X27645904Y2373286D01*
X27741142Y2325667D01*
X27788761Y2278048D01*
X27836380Y2182810D01*
X27836380Y1897096D01*
X27788761Y1801858D01*
X27741142Y1754239D01*
X27645904Y1706620D01*
X27503047Y1706620D01*
X28407809Y1706620D02*
X28312571Y1754239D01*
X28264952Y1849477D01*
X28264952Y2706620D01*
X29169714Y1754239D02*
X29074476Y1706620D01*
X28884000Y1706620D01*
X28788761Y1754239D01*
X28741142Y1849477D01*
X28741142Y2230429D01*
X28788761Y2325667D01*
X28884000Y2373286D01*
X29074476Y2373286D01*
X29169714Y2325667D01*
X29217333Y2230429D01*
X29217333Y2135191D01*
X28741142Y2039953D01*
X19477095Y4881620D02*
X19477095Y5881620D01*
X19477095Y5405429D02*
X20048523Y5405429D01*
X20048523Y4881620D02*
X20048523Y5881620D01*
X21048523Y4881620D02*
X20477095Y4881620D01*
X20762809Y4881620D02*
X20762809Y5881620D01*
X20667571Y5738762D01*
X20572333Y5643524D01*
X20477095Y5595905D01*
G04 #@! TO.C,H2*
X-3261715Y22661620D02*
X-3261715Y23661620D01*
X-2928381Y22947334D01*
X-2595048Y23661620D01*
X-2595048Y22661620D01*
X-1976000Y22661620D02*
X-2071239Y22709239D01*
X-2118858Y22756858D01*
X-2166477Y22852096D01*
X-2166477Y23137810D01*
X-2118858Y23233048D01*
X-2071239Y23280667D01*
X-1976000Y23328286D01*
X-1833143Y23328286D01*
X-1737905Y23280667D01*
X-1690286Y23233048D01*
X-1642667Y23137810D01*
X-1642667Y22852096D01*
X-1690286Y22756858D01*
X-1737905Y22709239D01*
X-1833143Y22661620D01*
X-1976000Y22661620D01*
X-785524Y23328286D02*
X-785524Y22661620D01*
X-1214096Y23328286D02*
X-1214096Y22804477D01*
X-1166477Y22709239D01*
X-1071239Y22661620D01*
X-928381Y22661620D01*
X-833143Y22709239D01*
X-785524Y22756858D01*
X-309334Y23328286D02*
X-309334Y22661620D01*
X-309334Y23233048D02*
X-261715Y23280667D01*
X-166477Y23328286D01*
X-23620Y23328286D01*
X71619Y23280667D01*
X119238Y23185429D01*
X119238Y22661620D01*
X452571Y23328286D02*
X833523Y23328286D01*
X595428Y23661620D02*
X595428Y22804477D01*
X643047Y22709239D01*
X738285Y22661620D01*
X833523Y22661620D01*
X1166857Y22661620D02*
X1166857Y23328286D01*
X1166857Y23661620D02*
X1119238Y23614000D01*
X1166857Y23566381D01*
X1214476Y23614000D01*
X1166857Y23661620D01*
X1166857Y23566381D01*
X1643047Y23328286D02*
X1643047Y22661620D01*
X1643047Y23233048D02*
X1690666Y23280667D01*
X1785904Y23328286D01*
X1928761Y23328286D01*
X2024000Y23280667D01*
X2071619Y23185429D01*
X2071619Y22661620D01*
X2976380Y23328286D02*
X2976380Y22518762D01*
X2928761Y22423524D01*
X2881142Y22375905D01*
X2785904Y22328286D01*
X2643047Y22328286D01*
X2547809Y22375905D01*
X2976380Y22709239D02*
X2881142Y22661620D01*
X2690666Y22661620D01*
X2595428Y22709239D01*
X2547809Y22756858D01*
X2500190Y22852096D01*
X2500190Y23137810D01*
X2547809Y23233048D01*
X2595428Y23280667D01*
X2690666Y23328286D01*
X2881142Y23328286D01*
X2976380Y23280667D01*
X3452571Y22661620D02*
X3452571Y23661620D01*
X3452571Y23185429D02*
X4024000Y23185429D01*
X4024000Y22661620D02*
X4024000Y23661620D01*
X4643047Y22661620D02*
X4547809Y22709239D01*
X4500190Y22756858D01*
X4452571Y22852096D01*
X4452571Y23137810D01*
X4500190Y23233048D01*
X4547809Y23280667D01*
X4643047Y23328286D01*
X4785904Y23328286D01*
X4881142Y23280667D01*
X4928761Y23233048D01*
X4976380Y23137810D01*
X4976380Y22852096D01*
X4928761Y22756858D01*
X4881142Y22709239D01*
X4785904Y22661620D01*
X4643047Y22661620D01*
X5547809Y22661620D02*
X5452571Y22709239D01*
X5404952Y22804477D01*
X5404952Y23661620D01*
X6309714Y22709239D02*
X6214476Y22661620D01*
X6024000Y22661620D01*
X5928761Y22709239D01*
X5881142Y22804477D01*
X5881142Y23185429D01*
X5928761Y23280667D01*
X6024000Y23328286D01*
X6214476Y23328286D01*
X6309714Y23280667D01*
X6357333Y23185429D01*
X6357333Y23090191D01*
X5881142Y22994953D01*
X4872095Y19486620D02*
X4872095Y20486620D01*
X4872095Y20010429D02*
X5443523Y20010429D01*
X5443523Y19486620D02*
X5443523Y20486620D01*
X5872095Y20391381D02*
X5919714Y20439000D01*
X6014952Y20486620D01*
X6253047Y20486620D01*
X6348285Y20439000D01*
X6395904Y20391381D01*
X6443523Y20296143D01*
X6443523Y20200905D01*
X6395904Y20058048D01*
X5824476Y19486620D01*
X6443523Y19486620D01*
G04 #@! TO.C,U2*
X14660761Y309620D02*
X14184571Y309620D01*
X14184571Y1309620D01*
X14898857Y1309620D02*
X15565523Y1309620D01*
X15136952Y309620D01*
X16089333Y881048D02*
X15994095Y928667D01*
X15946476Y976286D01*
X15898857Y1071524D01*
X15898857Y1119143D01*
X15946476Y1214381D01*
X15994095Y1262000D01*
X16089333Y1309620D01*
X16279809Y1309620D01*
X16375047Y1262000D01*
X16422666Y1214381D01*
X16470285Y1119143D01*
X16470285Y1071524D01*
X16422666Y976286D01*
X16375047Y928667D01*
X16279809Y881048D01*
X16089333Y881048D01*
X15994095Y833429D01*
X15946476Y785810D01*
X15898857Y690572D01*
X15898857Y500096D01*
X15946476Y404858D01*
X15994095Y357239D01*
X16089333Y309620D01*
X16279809Y309620D01*
X16375047Y357239D01*
X16422666Y404858D01*
X16470285Y500096D01*
X16470285Y690572D01*
X16422666Y785810D01*
X16375047Y833429D01*
X16279809Y881048D01*
X17089333Y1309620D02*
X17184571Y1309620D01*
X17279809Y1262000D01*
X17327428Y1214381D01*
X17375047Y1119143D01*
X17422666Y928667D01*
X17422666Y690572D01*
X17375047Y500096D01*
X17327428Y404858D01*
X17279809Y357239D01*
X17184571Y309620D01*
X17089333Y309620D01*
X16994095Y357239D01*
X16946476Y404858D01*
X16898857Y500096D01*
X16851238Y690572D01*
X16851238Y928667D01*
X16898857Y1119143D01*
X16946476Y1214381D01*
X16994095Y1262000D01*
X17089333Y1309620D01*
X18327428Y1309620D02*
X17851238Y1309620D01*
X17803619Y833429D01*
X17851238Y881048D01*
X17946476Y928667D01*
X18184571Y928667D01*
X18279809Y881048D01*
X18327428Y833429D01*
X18375047Y738191D01*
X18375047Y500096D01*
X18327428Y404858D01*
X18279809Y357239D01*
X18184571Y309620D01*
X17946476Y309620D01*
X17851238Y357239D01*
X17803619Y404858D01*
X9271095Y7405620D02*
X9271095Y6596096D01*
X9318714Y6500858D01*
X9366333Y6453239D01*
X9461571Y6405620D01*
X9652047Y6405620D01*
X9747285Y6453239D01*
X9794904Y6500858D01*
X9842523Y6596096D01*
X9842523Y7405620D01*
X10271095Y7310381D02*
X10318714Y7358000D01*
X10413952Y7405620D01*
X10652047Y7405620D01*
X10747285Y7358000D01*
X10794904Y7310381D01*
X10842523Y7215143D01*
X10842523Y7119905D01*
X10794904Y6977048D01*
X10223476Y6405620D01*
X10842523Y6405620D01*
G04 #@! TO.C,R12*
X-595239Y16057620D02*
X-1166667Y16057620D01*
X-880953Y16057620D02*
X-880953Y17057620D01*
X-976191Y16914762D01*
X-1071429Y16819524D01*
X-1166667Y16771905D01*
X23809Y17057620D02*
X119047Y17057620D01*
X214285Y17010000D01*
X261904Y16962381D01*
X309523Y16867143D01*
X357142Y16676667D01*
X357142Y16438572D01*
X309523Y16248096D01*
X261904Y16152858D01*
X214285Y16105239D01*
X119047Y16057620D01*
X23809Y16057620D01*
X-71429Y16105239D01*
X-119048Y16152858D01*
X-166667Y16248096D01*
X-214286Y16438572D01*
X-214286Y16676667D01*
X-166667Y16867143D01*
X-119048Y16962381D01*
X-71429Y17010000D01*
X23809Y17057620D01*
X785714Y16057620D02*
X785714Y17057620D01*
X880952Y16438572D02*
X1166666Y16057620D01*
X1166666Y16724286D02*
X785714Y16343334D01*
D13*
X5137214Y16148096D02*
X4870547Y16529048D01*
X4680071Y16148096D02*
X4680071Y16948096D01*
X4984833Y16948096D01*
X5061023Y16910000D01*
X5099119Y16871905D01*
X5137214Y16795715D01*
X5137214Y16681429D01*
X5099119Y16605239D01*
X5061023Y16567143D01*
X4984833Y16529048D01*
X4680071Y16529048D01*
X5899119Y16148096D02*
X5441976Y16148096D01*
X5670547Y16148096D02*
X5670547Y16948096D01*
X5594357Y16833810D01*
X5518166Y16757620D01*
X5441976Y16719524D01*
X6203880Y16871905D02*
X6241976Y16910000D01*
X6318166Y16948096D01*
X6508642Y16948096D01*
X6584833Y16910000D01*
X6622928Y16871905D01*
X6661023Y16795715D01*
X6661023Y16719524D01*
X6622928Y16605239D01*
X6165785Y16148096D01*
X6661023Y16148096D01*
D15*
G04 #@! TO.C,C1*
X19456500Y8744000D02*
X19456500Y9544000D01*
X21056500Y8744000D02*
X19456500Y8744000D01*
X21056500Y9544000D02*
X21056500Y8744000D01*
X19456500Y9544000D02*
X21056500Y9544000D01*
G04 #@! TO.C,C2*
X21056500Y10649000D02*
X19456500Y10649000D01*
X19456500Y11449000D02*
X21056500Y11449000D01*
X21056500Y11449000D02*
X21056500Y10649000D01*
X19456500Y10649000D02*
X19456500Y11449000D01*
G04 #@! TO.C,C3*
X19456500Y13354000D02*
X21056500Y13354000D01*
X19456500Y12554000D02*
X19456500Y13354000D01*
X21056500Y13354000D02*
X21056500Y12554000D01*
X21056500Y12554000D02*
X19456500Y12554000D01*
G04 #@! TO.C,C4*
X11319000Y9744000D02*
X13319000Y9744000D01*
X13319000Y8544000D02*
X11319000Y8544000D01*
X13319000Y9744000D02*
X13319000Y8544000D01*
X11319000Y8544000D02*
X11319000Y9744000D01*
G04 #@! TO.C,C10*
X4724500Y14141500D02*
X4724500Y14941500D01*
X6324500Y14141500D02*
X4724500Y14141500D01*
X4724500Y14941500D02*
X6324500Y14941500D01*
X6324500Y14941500D02*
X6324500Y14141500D01*
G04 #@! TO.C,C20*
X4724500Y8655000D02*
X6324500Y8655000D01*
X6324500Y8655000D02*
X6324500Y7855000D01*
X6324500Y7855000D02*
X4724500Y7855000D01*
X4724500Y7855000D02*
X4724500Y8655000D01*
G04 #@! TO.C,R22*
X7220000Y11000000D02*
X7220000Y9400000D01*
X7220000Y9400000D02*
X4020000Y9400000D01*
X4020000Y9400000D02*
X4020000Y11000000D01*
X4020000Y11000000D02*
X7220000Y11000000D01*
G04 #@! TO.C,R21*
X7219500Y5550000D02*
X4019500Y5550000D01*
X7219500Y7150000D02*
X7219500Y5550000D01*
X4019500Y7150000D02*
X7219500Y7150000D01*
X4019500Y5550000D02*
X4019500Y7150000D01*
G04 #@! TO.C,R11*
X4051500Y13373000D02*
X7251500Y13373000D01*
X4051500Y11773000D02*
X4051500Y13373000D01*
X7251500Y11773000D02*
X4051500Y11773000D01*
X7251500Y13373000D02*
X7251500Y11773000D01*
G04 #@! TO.C,FID1*
X4564000Y4064000D02*
G75*
G03*
X4564000Y4064000I-500000J0D01*
G01*
G04 #@! TO.C,FID2*
X21709000Y21209000D02*
G75*
G03*
X21709000Y21209000I-500000J0D01*
G01*
G04 #@! TO.C,J3*
X16383000Y18034000D02*
X16383000Y7874000D01*
X10033000Y7874000D02*
X10033000Y17034000D01*
X16383000Y7874000D02*
X10033000Y7874000D01*
X10033000Y17034000D02*
X11033000Y18034000D01*
X11033000Y18034000D02*
X16383000Y18034000D01*
G04 #@! TO.C,R10*
X19456500Y16364000D02*
X19456500Y17164000D01*
X21056500Y16364000D02*
X19456500Y16364000D01*
X19456500Y17164000D02*
X21056500Y17164000D01*
X21056500Y17164000D02*
X21056500Y16364000D01*
G04 #@! TO.C,R20*
X21056500Y14459000D02*
X19456500Y14459000D01*
X19456500Y14459000D02*
X19456500Y15259000D01*
X21056500Y15259000D02*
X21056500Y14459000D01*
X19456500Y15259000D02*
X21056500Y15259000D01*
D16*
G04 #@! TO.C,U1*
X10896600Y12103100D02*
X10896600Y10998200D01*
X14706600Y16090900D02*
X15011400Y16090900D01*
X11531600Y16090900D02*
X11836400Y16090900D01*
X11836400Y10998200D02*
X11836400Y12103100D01*
X15011400Y17195800D02*
X14706600Y17195800D01*
X14376400Y16090900D02*
X14376400Y17195800D01*
X15646400Y10998200D02*
X15646400Y12103100D01*
X12801600Y10998200D02*
X13106400Y10998200D01*
X11201400Y17195800D02*
X10896600Y17195800D01*
X14071600Y10998200D02*
X14376400Y10998200D01*
X15011400Y16090900D02*
X15011400Y17195800D01*
X15011400Y12103100D02*
X14706600Y12103100D01*
X14706600Y17195800D02*
X14706600Y16090900D01*
X11836400Y16090900D02*
X11836400Y17195800D01*
X11201400Y12103100D02*
X10896600Y12103100D01*
X12166600Y17195800D02*
X12166600Y16090900D01*
X14376400Y10998200D02*
X14376400Y12103100D01*
X15011400Y10998200D02*
X15011400Y12103100D01*
X11531600Y17195800D02*
X11531600Y16090900D01*
X15646400Y17195800D02*
X15341600Y17195800D01*
X12471400Y10998200D02*
X12471400Y12103100D01*
X13741400Y17195800D02*
X13436600Y17195800D01*
X14706600Y12103100D02*
X14706600Y10998200D01*
X13106400Y17195800D02*
X12801600Y17195800D01*
X15341600Y12103100D02*
X15341600Y10998200D01*
X12166600Y16090900D02*
X12471400Y16090900D01*
X11531600Y12103100D02*
X11531600Y10998200D01*
X12471400Y17195800D02*
X12166600Y17195800D01*
X12801600Y12103100D02*
X12801600Y10998200D01*
X13436600Y12103100D02*
X13436600Y10998200D01*
X15760700Y12103100D02*
X15760700Y16090900D01*
X11201400Y10998200D02*
X11201400Y12103100D01*
X14071600Y17195800D02*
X14071600Y16090900D01*
X15760700Y16090900D02*
X10782300Y16090900D01*
X11201400Y16090900D02*
X11201400Y17195800D01*
X11836400Y12103100D02*
X11531600Y12103100D01*
X15341600Y17195800D02*
X15341600Y16090900D01*
X13106400Y16090900D02*
X13106400Y17195800D01*
X12471400Y12103100D02*
X12166600Y12103100D01*
X10782300Y12103100D02*
X15760700Y12103100D01*
X12801600Y16090900D02*
X13106400Y16090900D01*
X15341600Y16090900D02*
X15646400Y16090900D01*
X14376400Y12103100D02*
X14071600Y12103100D01*
X14071600Y16090900D02*
X14376400Y16090900D01*
X10896600Y17195800D02*
X10896600Y16090900D01*
X11531600Y10998200D02*
X11836400Y10998200D01*
X12166600Y12103100D02*
X12166600Y10998200D01*
X13106400Y12103100D02*
X12801600Y12103100D01*
X13436600Y17195800D02*
X13436600Y16090900D01*
X15646400Y12103100D02*
X15341600Y12103100D01*
X13741400Y16090900D02*
X13741400Y17195800D01*
X10896600Y16090900D02*
X11201400Y16090900D01*
X10782300Y16090900D02*
X10782300Y12103100D01*
X10896600Y10998200D02*
X11201400Y10998200D01*
X14706600Y10998200D02*
X15011400Y10998200D01*
X13741400Y10998200D02*
X13741400Y12103100D01*
X15646400Y16090900D02*
X15646400Y17195800D01*
X12801600Y17195800D02*
X12801600Y16090900D01*
X13106400Y10998200D02*
X13106400Y12103100D01*
X12471400Y16090900D02*
X12471400Y17195800D01*
X13436600Y16090900D02*
X13741400Y16090900D01*
X15341600Y10998200D02*
X15646400Y10998200D01*
X13741400Y12103100D02*
X13436600Y12103100D01*
X13436600Y10998200D02*
X13741400Y10998200D01*
X11836400Y17195800D02*
X11531600Y17195800D01*
X14071600Y12103100D02*
X14071600Y10998200D01*
X12166600Y10998200D02*
X12471400Y10998200D01*
X14376400Y17195800D02*
X14071600Y17195800D01*
X15760700Y14401800D02*
G75*
G03*
X15760700Y13792200I0J-304800D01*
G01*
D15*
G04 #@! TO.C,R13*
X15950000Y21824000D02*
X9650000Y21824000D01*
X9650000Y19324000D02*
X15950000Y19324000D01*
X16610000Y20574000D02*
X15950000Y20574000D01*
X9650000Y21824000D02*
X9650000Y19324000D01*
X15950000Y19324000D02*
X15950000Y21824000D01*
X8990000Y20574000D02*
X9650000Y20574000D01*
G04 #@! TO.C,R23*
X19914000Y18054000D02*
X19914000Y20554000D01*
X19914000Y20554000D02*
X13614000Y20554000D01*
X13614000Y20554000D02*
X13614000Y18054000D01*
X13614000Y18054000D02*
X19914000Y18054000D01*
X12954000Y19304000D02*
X13614000Y19304000D01*
X20574000Y19304000D02*
X19914000Y19304000D01*
G04 #@! TO.C,U2*
X8716000Y8738000D02*
X18716000Y8738000D01*
X8716000Y5608000D02*
X18716000Y5608000D01*
X11866000Y10008000D02*
X11866000Y8738000D01*
X8716000Y10008000D02*
X8716000Y5608000D01*
X18716000Y10008000D02*
X8716000Y10008000D01*
X15566000Y10008000D02*
X15566000Y8738000D01*
X18716000Y5608000D02*
X18716000Y10008000D01*
G04 #@! TO.C,R12*
X7251500Y17310000D02*
X7251500Y15710000D01*
X4051500Y17310000D02*
X7251500Y17310000D01*
X4051500Y15710000D02*
X4051500Y17310000D01*
X7251500Y15710000D02*
X4051500Y15710000D01*
G04 #@! TD*
M02*
