G04 #@! TF.GenerationSoftware,KiCad,Pcbnew,(6.0.0-0)*
G04 #@! TF.CreationDate,2023-01-22T15:48:08+00:00*
G04 #@! TF.ProjectId,VR-Conditioner-MAX9926+reg,56522d43-6f6e-4646-9974-696f6e65722d,3.74*
G04 #@! TF.SameCoordinates,PX6a95280PY6f6d640*
G04 #@! TF.FileFunction,Soldermask,Top*
G04 #@! TF.FilePolarity,Negative*
%FSLAX46Y46*%
G04 Gerber Fmt 4.6, Leading zero omitted, Abs format (unit mm)*
G04 Created by KiCad (PCBNEW (6.0.0-0)) date 2023-01-22 15:48:08*
%MOMM*%
%LPD*%
G01*
G04 APERTURE LIST*
G04 Aperture macros list*
%AMRoundRect*
0 Rectangle with rounded corners*
0 $1 Rounding radius*
0 $2 $3 $4 $5 $6 $7 $8 $9 X,Y pos of 4 corners*
0 Add a 4 corners polygon primitive as box body*
4,1,4,$2,$3,$4,$5,$6,$7,$8,$9,$2,$3,0*
0 Add four circle primitives for the rounded corners*
1,1,$1+$1,$2,$3*
1,1,$1+$1,$4,$5*
1,1,$1+$1,$6,$7*
1,1,$1+$1,$8,$9*
0 Add four rect primitives between the rounded corners*
20,1,$1+$1,$2,$3,$4,$5,0*
20,1,$1+$1,$4,$5,$6,$7,0*
20,1,$1+$1,$6,$7,$8,$9,0*
20,1,$1+$1,$8,$9,$2,$3,0*%
G04 Aperture macros list end*
%ADD10RoundRect,0.269550X0.218750X0.256250X-0.218750X0.256250X-0.218750X-0.256250X0.218750X-0.256250X0*%
%ADD11RoundRect,0.294550X-0.243750X-0.456250X0.243750X-0.456250X0.243750X0.456250X-0.243750X0.456250X0*%
%ADD12RoundRect,0.300800X0.312500X0.625000X-0.312500X0.625000X-0.312500X-0.625000X0.312500X-0.625000X0*%
%ADD13C,1.000000*%
%ADD14RoundRect,0.050800X-0.800000X-0.800000X0.800000X-0.800000X0.800000X0.800000X-0.800000X0.800000X0*%
%ADD15O,1.701600X1.701600*%
%ADD16RoundRect,0.288300X0.287500X0.237500X-0.287500X0.237500X-0.287500X-0.237500X0.287500X-0.237500X0*%
%ADD17RoundRect,0.050800X-0.177400X0.727449X-0.177400X-0.727449X0.177400X-0.727449X0.177400X0.727449X0*%
%ADD18C,1.701600*%
%ADD19C,2.301600*%
%ADD20RoundRect,0.050800X-0.952500X-1.000000X0.952500X-1.000000X0.952500X1.000000X-0.952500X1.000000X0*%
%ADD21O,2.006600X2.101600*%
%ADD22RoundRect,0.050800X-0.850000X0.850000X-0.850000X-0.850000X0.850000X-0.850000X0.850000X0.850000X0*%
%ADD23O,1.801600X1.801600*%
G04 APERTURE END LIST*
D10*
G04 #@! TO.C,C1*
X21044000Y9144000D03*
X19469000Y9144000D03*
G04 #@! TD*
G04 #@! TO.C,C2*
X21044000Y11049000D03*
X19469000Y11049000D03*
G04 #@! TD*
G04 #@! TO.C,C3*
X21044000Y12954000D03*
X19469000Y12954000D03*
G04 #@! TD*
D11*
G04 #@! TO.C,C4*
X11381500Y9144000D03*
X13256500Y9144000D03*
G04 #@! TD*
D10*
G04 #@! TO.C,C10*
X6312000Y14541500D03*
X4737000Y14541500D03*
G04 #@! TD*
G04 #@! TO.C,C20*
X6312000Y8255000D03*
X4737000Y8255000D03*
G04 #@! TD*
D12*
G04 #@! TO.C,R22*
X4157500Y10200000D03*
X7082500Y10200000D03*
G04 #@! TD*
G04 #@! TO.C,R21*
X7082000Y6350000D03*
X4157000Y6350000D03*
G04 #@! TD*
G04 #@! TO.C,R11*
X7114000Y12573000D03*
X4189000Y12573000D03*
G04 #@! TD*
D13*
G04 #@! TO.C,FID1*
X4064000Y4064000D03*
G04 #@! TD*
G04 #@! TO.C,FID2*
X21209000Y21209000D03*
G04 #@! TD*
D14*
G04 #@! TO.C,J3*
X9398000Y16764000D03*
D15*
X9398000Y14224000D03*
X9398000Y11684000D03*
X9398000Y9144000D03*
X17018000Y9144000D03*
X17018000Y11684000D03*
X17018000Y14224000D03*
X17018000Y16764000D03*
G04 #@! TD*
D16*
G04 #@! TO.C,R10*
X21131500Y16764000D03*
X19381500Y16764000D03*
G04 #@! TD*
G04 #@! TO.C,R20*
X21131500Y14859000D03*
X19381500Y14859000D03*
G04 #@! TD*
D17*
G04 #@! TO.C,U1*
X15494000Y16818348D03*
X14859000Y16818348D03*
X14224000Y16818348D03*
X13589000Y16818348D03*
X12954000Y16818348D03*
X12319000Y16818348D03*
X11684000Y16818348D03*
X11049000Y16818348D03*
X11049000Y11375652D03*
X11684000Y11375652D03*
X12319000Y11375652D03*
X12954000Y11375652D03*
X13589000Y11375652D03*
X14224000Y11375652D03*
X14859000Y11375652D03*
X15494000Y11375652D03*
G04 #@! TD*
D15*
G04 #@! TO.C,R13*
X16610000Y20574000D03*
D18*
X8990000Y20574000D03*
G04 #@! TD*
G04 #@! TO.C,R23*
X12954000Y19304000D03*
D15*
X20574000Y19304000D03*
G04 #@! TD*
D19*
G04 #@! TO.C,H1*
X19939000Y5334000D03*
G04 #@! TD*
G04 #@! TO.C,H2*
X5334000Y19939000D03*
G04 #@! TD*
D20*
G04 #@! TO.C,U2*
X11176000Y6858000D03*
D21*
X13716000Y6858000D03*
X16256000Y6858000D03*
G04 #@! TD*
D12*
G04 #@! TO.C,R12*
X7114000Y16510000D03*
X4189000Y16510000D03*
G04 #@! TD*
D22*
G04 #@! TO.C,J2*
X9398000Y4572000D03*
D23*
X11938000Y4572000D03*
X14478000Y4572000D03*
X17018000Y4572000D03*
G04 #@! TD*
M02*
