M48
INCH,TZ
T1C0.0118
T2C0.0315
T3C0.0394
T4C0.0433
T5C0.0866
%
G90
G05
T1
X2100Y7000
X2135Y4485
X2150Y1600
X2200Y4000
X2850Y8350
X5600Y5050
X7850Y8350
X8350Y3100
T2
X3539Y8100
X3700Y6600
X3700Y5600
X3700Y4600
X3700Y3600
X5100Y7600
X6539Y8100
X6700Y6600
X6700Y5600
X6700Y4600
X6700Y3600
X8100Y7600
T3
X3700Y1800
X4700Y1800
X5700Y1800
X6700Y1800
T4
X4400Y2700
X5400Y2700
X6400Y2700
T5
X2100Y7850
X7850Y2100
T0
M30
