G04 #@! TF.GenerationSoftware,KiCad,Pcbnew,(5.1.9-0-10_14)*
G04 #@! TF.CreationDate,2021-04-29T15:18:39+10:00*
G04 #@! TF.ProjectId,VR-Conditioner-MAX9926+reg,56522d43-6f6e-4646-9974-696f6e65722d,3.7*
G04 #@! TF.SameCoordinates,PX68c4118PY713e7a8*
G04 #@! TF.FileFunction,Soldermask,Bot*
G04 #@! TF.FilePolarity,Negative*
%FSLAX46Y46*%
G04 Gerber Fmt 4.6, Leading zero omitted, Abs format (unit mm)*
G04 Created by KiCad (PCBNEW (5.1.9-0-10_14)) date 2021-04-29 15:18:39*
%MOMM*%
%LPD*%
G01*
G04 APERTURE LIST*
%ADD10O,1.801600X1.801600*%
%ADD11C,1.601600*%
%ADD12C,2.301600*%
%ADD13O,1.701600X1.701600*%
%ADD14C,1.701600*%
G04 APERTURE END LIST*
D10*
G04 #@! TO.C,J2*
X16510000Y4445000D03*
X13970000Y4445000D03*
X11430000Y4445000D03*
G36*
G01*
X8040000Y5345800D02*
X9740000Y5345800D01*
G75*
G02*
X9790800Y5295000I0J-50800D01*
G01*
X9790800Y3595000D01*
G75*
G02*
X9740000Y3544200I-50800J0D01*
G01*
X8040000Y3544200D01*
G75*
G02*
X7989200Y3595000I0J50800D01*
G01*
X7989200Y5295000D01*
G75*
G02*
X8040000Y5345800I50800J0D01*
G01*
G37*
G04 #@! TD*
G04 #@! TO.C,U2*
G36*
G01*
X15990000Y5849200D02*
X14490000Y5849200D01*
G75*
G02*
X14439200Y5900000I0J50800D01*
G01*
X14439200Y7400000D01*
G75*
G02*
X14490000Y7450800I50800J0D01*
G01*
X15990000Y7450800D01*
G75*
G02*
X16040800Y7400000I0J-50800D01*
G01*
X16040800Y5900000D01*
G75*
G02*
X15990000Y5849200I-50800J0D01*
G01*
G37*
D11*
X10160000Y6650000D03*
X12700000Y6650000D03*
G04 #@! TD*
D12*
G04 #@! TO.C,H2*
X5080000Y19685000D03*
G04 #@! TD*
G04 #@! TO.C,H1*
X19685000Y5080000D03*
G04 #@! TD*
D13*
G04 #@! TO.C,R23*
X20320000Y19050000D03*
D14*
X12700000Y19050000D03*
G04 #@! TD*
D13*
G04 #@! TO.C,R13*
X17145000Y20320000D03*
D14*
X9525000Y20320000D03*
G04 #@! TD*
D13*
G04 #@! TO.C,J1*
X16827500Y16510000D03*
X9207500Y8890000D03*
X16827500Y13970000D03*
X9207500Y11430000D03*
X16827500Y11430000D03*
X9207500Y13970000D03*
X16827500Y8890000D03*
G36*
G01*
X8356700Y15710000D02*
X8356700Y17310000D01*
G75*
G02*
X8407500Y17360800I50800J0D01*
G01*
X10007500Y17360800D01*
G75*
G02*
X10058300Y17310000I0J-50800D01*
G01*
X10058300Y15710000D01*
G75*
G02*
X10007500Y15659200I-50800J0D01*
G01*
X8407500Y15659200D01*
G75*
G02*
X8356700Y15710000I0J50800D01*
G01*
G37*
G04 #@! TD*
M02*
