G04 #@! TF.GenerationSoftware,KiCad,Pcbnew,(6.0.0-0)*
G04 #@! TF.CreationDate,2022-08-07T15:03:16+01:00*
G04 #@! TF.ProjectId,VR-Conditioner-MAX9926+reg,56522d43-6f6e-4646-9974-696f6e65722d,3.72*
G04 #@! TF.SameCoordinates,PX68c4118PY713e7a8*
G04 #@! TF.FileFunction,Legend,Bot*
G04 #@! TF.FilePolarity,Positive*
%FSLAX46Y46*%
G04 Gerber Fmt 4.6, Leading zero omitted, Abs format (unit mm)*
G04 Created by KiCad (PCBNEW (6.0.0-0)) date 2022-08-07 15:03:16*
%MOMM*%
%LPD*%
G01*
G04 APERTURE LIST*
%ADD10C,0.150000*%
%ADD11C,0.120000*%
G04 APERTURE END LIST*
D10*
X20801666Y16260000D02*
X20835000Y16226667D01*
X20935000Y16193334D01*
X21001666Y16193334D01*
X21101666Y16226667D01*
X21168333Y16293334D01*
X21201666Y16360000D01*
X21235000Y16493334D01*
X21235000Y16593334D01*
X21201666Y16726667D01*
X21168333Y16793334D01*
X21101666Y16860000D01*
X21001666Y16893334D01*
X20935000Y16893334D01*
X20835000Y16860000D01*
X20801666Y16826667D01*
X20368333Y16893334D02*
X20235000Y16893334D01*
X20168333Y16860000D01*
X20101666Y16793334D01*
X20068333Y16660000D01*
X20068333Y16426667D01*
X20101666Y16293334D01*
X20168333Y16226667D01*
X20235000Y16193334D01*
X20368333Y16193334D01*
X20435000Y16226667D01*
X20501666Y16293334D01*
X20535000Y16426667D01*
X20535000Y16660000D01*
X20501666Y16793334D01*
X20435000Y16860000D01*
X20368333Y16893334D01*
X19768333Y16893334D02*
X19768333Y16326667D01*
X19735000Y16260000D01*
X19701666Y16226667D01*
X19635000Y16193334D01*
X19501666Y16193334D01*
X19435000Y16226667D01*
X19401666Y16260000D01*
X19368333Y16326667D01*
X19368333Y16893334D01*
X19135000Y16893334D02*
X18735000Y16893334D01*
X18935000Y16193334D02*
X18935000Y16893334D01*
X18135000Y16193334D02*
X18535000Y16193334D01*
X18335000Y16193334D02*
X18335000Y16893334D01*
X18401666Y16793334D01*
X18468333Y16726667D01*
X18535000Y16693334D01*
X20801666Y13720000D02*
X20835000Y13686667D01*
X20935000Y13653334D01*
X21001666Y13653334D01*
X21101666Y13686667D01*
X21168333Y13753334D01*
X21201666Y13820000D01*
X21235000Y13953334D01*
X21235000Y14053334D01*
X21201666Y14186667D01*
X21168333Y14253334D01*
X21101666Y14320000D01*
X21001666Y14353334D01*
X20935000Y14353334D01*
X20835000Y14320000D01*
X20801666Y14286667D01*
X20368333Y14353334D02*
X20235000Y14353334D01*
X20168333Y14320000D01*
X20101666Y14253334D01*
X20068333Y14120000D01*
X20068333Y13886667D01*
X20101666Y13753334D01*
X20168333Y13686667D01*
X20235000Y13653334D01*
X20368333Y13653334D01*
X20435000Y13686667D01*
X20501666Y13753334D01*
X20535000Y13886667D01*
X20535000Y14120000D01*
X20501666Y14253334D01*
X20435000Y14320000D01*
X20368333Y14353334D01*
X19768333Y14353334D02*
X19768333Y13786667D01*
X19735000Y13720000D01*
X19701666Y13686667D01*
X19635000Y13653334D01*
X19501666Y13653334D01*
X19435000Y13686667D01*
X19401666Y13720000D01*
X19368333Y13786667D01*
X19368333Y14353334D01*
X19135000Y14353334D02*
X18735000Y14353334D01*
X18935000Y13653334D02*
X18935000Y14353334D01*
X18535000Y14286667D02*
X18501666Y14320000D01*
X18435000Y14353334D01*
X18268333Y14353334D01*
X18201666Y14320000D01*
X18168333Y14286667D01*
X18135000Y14220000D01*
X18135000Y14153334D01*
X18168333Y14053334D01*
X18568333Y13653334D01*
X18135000Y13653334D01*
X19583333Y11780000D02*
X19650000Y11813334D01*
X19750000Y11813334D01*
X19850000Y11780000D01*
X19916666Y11713334D01*
X19950000Y11646667D01*
X19983333Y11513334D01*
X19983333Y11413334D01*
X19950000Y11280000D01*
X19916666Y11213334D01*
X19850000Y11146667D01*
X19750000Y11113334D01*
X19683333Y11113334D01*
X19583333Y11146667D01*
X19550000Y11180000D01*
X19550000Y11413334D01*
X19683333Y11413334D01*
X19250000Y11113334D02*
X19250000Y11813334D01*
X18850000Y11113334D01*
X18850000Y11813334D01*
X18516666Y11113334D02*
X18516666Y11813334D01*
X18350000Y11813334D01*
X18250000Y11780000D01*
X18183333Y11713334D01*
X18150000Y11646667D01*
X18116666Y11513334D01*
X18116666Y11413334D01*
X18150000Y11280000D01*
X18183333Y11213334D01*
X18250000Y11146667D01*
X18350000Y11113334D01*
X18516666Y11113334D01*
X19616666Y9273334D02*
X19950000Y9273334D01*
X19983333Y8940000D01*
X19950000Y8973334D01*
X19883333Y9006667D01*
X19716666Y9006667D01*
X19650000Y8973334D01*
X19616666Y8940000D01*
X19583333Y8873334D01*
X19583333Y8706667D01*
X19616666Y8640000D01*
X19650000Y8606667D01*
X19716666Y8573334D01*
X19883333Y8573334D01*
X19950000Y8606667D01*
X19983333Y8640000D01*
X19383333Y9273334D02*
X19150000Y8573334D01*
X18916666Y9273334D01*
X18683333Y8840000D02*
X18150000Y8840000D01*
X18416666Y8573334D02*
X18416666Y9106667D01*
X5528333Y16574334D02*
X5528333Y17274334D01*
X5195000Y17041000D02*
X5195000Y16574334D01*
X5195000Y16974334D02*
X5161666Y17007667D01*
X5095000Y17041000D01*
X4995000Y17041000D01*
X4928333Y17007667D01*
X4895000Y16941000D01*
X4895000Y16574334D01*
X4195000Y16574334D02*
X4595000Y16574334D01*
X4395000Y16574334D02*
X4395000Y17274334D01*
X4461666Y17174334D01*
X4528333Y17107667D01*
X4595000Y17074334D01*
X3895000Y16841000D02*
X3361666Y16841000D01*
X3628333Y16574334D02*
X3628333Y17107667D01*
X5528333Y14034334D02*
X5528333Y14734334D01*
X5195000Y14501000D02*
X5195000Y14034334D01*
X5195000Y14434334D02*
X5161666Y14467667D01*
X5095000Y14501000D01*
X4995000Y14501000D01*
X4928333Y14467667D01*
X4895000Y14401000D01*
X4895000Y14034334D01*
X4195000Y14034334D02*
X4595000Y14034334D01*
X4395000Y14034334D02*
X4395000Y14734334D01*
X4461666Y14634334D01*
X4528333Y14567667D01*
X4595000Y14534334D01*
X3895000Y14301000D02*
X3361666Y14301000D01*
X5528333Y11494334D02*
X5528333Y12194334D01*
X5195000Y11961000D02*
X5195000Y11494334D01*
X5195000Y11894334D02*
X5161666Y11927667D01*
X5095000Y11961000D01*
X4995000Y11961000D01*
X4928333Y11927667D01*
X4895000Y11861000D01*
X4895000Y11494334D01*
X4595000Y12127667D02*
X4561666Y12161000D01*
X4495000Y12194334D01*
X4328333Y12194334D01*
X4261666Y12161000D01*
X4228333Y12127667D01*
X4195000Y12061000D01*
X4195000Y11994334D01*
X4228333Y11894334D01*
X4628333Y11494334D01*
X4195000Y11494334D01*
X3895000Y11761000D02*
X3361666Y11761000D01*
X3628333Y11494334D02*
X3628333Y12027667D01*
X5528333Y8954334D02*
X5528333Y9654334D01*
X5195000Y9421000D02*
X5195000Y8954334D01*
X5195000Y9354334D02*
X5161666Y9387667D01*
X5095000Y9421000D01*
X4995000Y9421000D01*
X4928333Y9387667D01*
X4895000Y9321000D01*
X4895000Y8954334D01*
X4595000Y9587667D02*
X4561666Y9621000D01*
X4495000Y9654334D01*
X4328333Y9654334D01*
X4261666Y9621000D01*
X4228333Y9587667D01*
X4195000Y9521000D01*
X4195000Y9454334D01*
X4228333Y9354334D01*
X4628333Y8954334D01*
X4195000Y8954334D01*
X3895000Y9221000D02*
X3361666Y9221000D01*
X8050000Y6733334D02*
X8183333Y6733334D01*
X8250000Y6700000D01*
X8283333Y6666667D01*
X8350000Y6566667D01*
X8383333Y6433334D01*
X8383333Y6166667D01*
X8350000Y6100000D01*
X8316666Y6066667D01*
X8250000Y6033334D01*
X8116666Y6033334D01*
X8050000Y6066667D01*
X8016666Y6100000D01*
X7983333Y6166667D01*
X7983333Y6333334D01*
X8016666Y6400000D01*
X8050000Y6433334D01*
X8116666Y6466667D01*
X8250000Y6466667D01*
X8316666Y6433334D01*
X8350000Y6400000D01*
X8383333Y6333334D01*
X7683333Y6300000D02*
X7150000Y6300000D01*
X6450000Y6033334D02*
X6850000Y6033334D01*
X6650000Y6033334D02*
X6650000Y6733334D01*
X6716666Y6633334D01*
X6783333Y6566667D01*
X6850000Y6533334D01*
X5816666Y6733334D02*
X6150000Y6733334D01*
X6183333Y6400000D01*
X6150000Y6433334D01*
X6083333Y6466667D01*
X5916666Y6466667D01*
X5850000Y6433334D01*
X5816666Y6400000D01*
X5783333Y6333334D01*
X5783333Y6166667D01*
X5816666Y6100000D01*
X5850000Y6066667D01*
X5916666Y6033334D01*
X6083333Y6033334D01*
X6150000Y6066667D01*
X6183333Y6100000D01*
X5583333Y6733334D02*
X5350000Y6033334D01*
X5116666Y6733334D01*
X4883333Y6300000D02*
X4350000Y6300000D01*
X4616666Y6033334D02*
X4616666Y6566667D01*
X12382772Y14906986D02*
X11682772Y14906986D01*
X11682772Y14740319D01*
X11716106Y14640319D01*
X11782772Y14573653D01*
X11849439Y14540319D01*
X11982772Y14506986D01*
X12082772Y14506986D01*
X12216106Y14540319D01*
X12282772Y14573653D01*
X12349439Y14640319D01*
X12382772Y14740319D01*
X12382772Y14906986D01*
X11916106Y13906986D02*
X12382772Y13906986D01*
X11916106Y14206986D02*
X12282772Y14206986D01*
X12349439Y14173653D01*
X12382772Y14106986D01*
X12382772Y14006986D01*
X12349439Y13940319D01*
X12316106Y13906986D01*
X12382772Y13273653D02*
X12016106Y13273653D01*
X11949439Y13306986D01*
X11916106Y13373653D01*
X11916106Y13506986D01*
X11949439Y13573653D01*
X12349439Y13273653D02*
X12382772Y13340319D01*
X12382772Y13506986D01*
X12349439Y13573653D01*
X12282772Y13606986D01*
X12216106Y13606986D01*
X12149439Y13573653D01*
X12116106Y13506986D01*
X12116106Y13340319D01*
X12082772Y13273653D01*
X12382772Y12840319D02*
X12349439Y12906986D01*
X12282772Y12940319D01*
X11682772Y12940319D01*
X11682772Y12140319D02*
X12382772Y11906986D01*
X11682772Y11673653D01*
X12382772Y11040319D02*
X12049439Y11273653D01*
X12382772Y11440319D02*
X11682772Y11440319D01*
X11682772Y11173653D01*
X11716106Y11106986D01*
X11749439Y11073653D01*
X11816106Y11040319D01*
X11916106Y11040319D01*
X11982772Y11073653D01*
X12016106Y11106986D01*
X12049439Y11173653D01*
X12049439Y11440319D01*
X13476439Y15456986D02*
X13509772Y15523653D01*
X13509772Y15656986D01*
X13476439Y15723653D01*
X13443106Y15756986D01*
X13376439Y15790319D01*
X13176439Y15790319D01*
X13109772Y15756986D01*
X13076439Y15723653D01*
X13043106Y15656986D01*
X13043106Y15523653D01*
X13076439Y15456986D01*
X13509772Y15056986D02*
X13476439Y15123653D01*
X13443106Y15156986D01*
X13376439Y15190319D01*
X13176439Y15190319D01*
X13109772Y15156986D01*
X13076439Y15123653D01*
X13043106Y15056986D01*
X13043106Y14956986D01*
X13076439Y14890319D01*
X13109772Y14856986D01*
X13176439Y14823653D01*
X13376439Y14823653D01*
X13443106Y14856986D01*
X13476439Y14890319D01*
X13509772Y14956986D01*
X13509772Y15056986D01*
X13043106Y14523653D02*
X13509772Y14523653D01*
X13109772Y14523653D02*
X13076439Y14490319D01*
X13043106Y14423653D01*
X13043106Y14323653D01*
X13076439Y14256986D01*
X13143106Y14223653D01*
X13509772Y14223653D01*
X13509772Y13590319D02*
X12809772Y13590319D01*
X13476439Y13590319D02*
X13509772Y13656986D01*
X13509772Y13790319D01*
X13476439Y13856986D01*
X13443106Y13890319D01*
X13376439Y13923653D01*
X13176439Y13923653D01*
X13109772Y13890319D01*
X13076439Y13856986D01*
X13043106Y13790319D01*
X13043106Y13656986D01*
X13076439Y13590319D01*
X13509772Y13256986D02*
X13043106Y13256986D01*
X12809772Y13256986D02*
X12843106Y13290319D01*
X12876439Y13256986D01*
X12843106Y13223653D01*
X12809772Y13256986D01*
X12876439Y13256986D01*
X13043106Y13023653D02*
X13043106Y12756986D01*
X12809772Y12923653D02*
X13409772Y12923653D01*
X13476439Y12890319D01*
X13509772Y12823653D01*
X13509772Y12756986D01*
X13509772Y12523653D02*
X13043106Y12523653D01*
X12809772Y12523653D02*
X12843106Y12556986D01*
X12876439Y12523653D01*
X12843106Y12490319D01*
X12809772Y12523653D01*
X12876439Y12523653D01*
X13509772Y12090319D02*
X13476439Y12156986D01*
X13443106Y12190319D01*
X13376439Y12223653D01*
X13176439Y12223653D01*
X13109772Y12190319D01*
X13076439Y12156986D01*
X13043106Y12090319D01*
X13043106Y11990319D01*
X13076439Y11923653D01*
X13109772Y11890319D01*
X13176439Y11856986D01*
X13376439Y11856986D01*
X13443106Y11890319D01*
X13476439Y11923653D01*
X13509772Y11990319D01*
X13509772Y12090319D01*
X13043106Y11556986D02*
X13509772Y11556986D01*
X13109772Y11556986D02*
X13076439Y11523653D01*
X13043106Y11456986D01*
X13043106Y11356986D01*
X13076439Y11290319D01*
X13143106Y11256986D01*
X13509772Y11256986D01*
X13476439Y10656986D02*
X13509772Y10723653D01*
X13509772Y10856986D01*
X13476439Y10923653D01*
X13409772Y10956986D01*
X13143106Y10956986D01*
X13076439Y10923653D01*
X13043106Y10856986D01*
X13043106Y10723653D01*
X13076439Y10656986D01*
X13143106Y10623653D01*
X13209772Y10623653D01*
X13276439Y10956986D01*
X13509772Y10323653D02*
X13043106Y10323653D01*
X13176439Y10323653D02*
X13109772Y10290319D01*
X13076439Y10256986D01*
X13043106Y10190319D01*
X13043106Y10123653D01*
X14721666Y17535000D02*
X14721666Y17201667D01*
X14921666Y17601667D02*
X14221666Y17368334D01*
X14921666Y17135000D01*
X14921666Y16901667D02*
X14221666Y16901667D01*
X14721666Y16668334D01*
X14221666Y16435000D01*
X14921666Y16435000D01*
X14888333Y16135000D02*
X14921666Y16035000D01*
X14921666Y15868334D01*
X14888333Y15801667D01*
X14855000Y15768334D01*
X14788333Y15735000D01*
X14721666Y15735000D01*
X14655000Y15768334D01*
X14621666Y15801667D01*
X14588333Y15868334D01*
X14555000Y16001667D01*
X14521666Y16068334D01*
X14488333Y16101667D01*
X14421666Y16135000D01*
X14355000Y16135000D01*
X14288333Y16101667D01*
X14255000Y16068334D01*
X14221666Y16001667D01*
X14221666Y15835000D01*
X14255000Y15735000D01*
X14921666Y15068334D02*
X14921666Y15468334D01*
X14921666Y15268334D02*
X14221666Y15268334D01*
X14321666Y15335000D01*
X14388333Y15401667D01*
X14421666Y15468334D01*
X14921666Y14401667D02*
X14921666Y14801667D01*
X14921666Y14601667D02*
X14221666Y14601667D01*
X14321666Y14668334D01*
X14388333Y14735000D01*
X14421666Y14801667D01*
X14921666Y13735000D02*
X14921666Y14135000D01*
X14921666Y13935000D02*
X14221666Y13935000D01*
X14321666Y14001667D01*
X14388333Y14068334D01*
X14421666Y14135000D01*
X14221666Y13501667D02*
X14221666Y13035000D01*
X14921666Y13335000D01*
X14855000Y12368334D02*
X14888333Y12401667D01*
X14921666Y12501667D01*
X14921666Y12568334D01*
X14888333Y12668334D01*
X14821666Y12735000D01*
X14755000Y12768334D01*
X14621666Y12801667D01*
X14521666Y12801667D01*
X14388333Y12768334D01*
X14321666Y12735000D01*
X14255000Y12668334D01*
X14221666Y12568334D01*
X14221666Y12501667D01*
X14255000Y12401667D01*
X14288333Y12368334D01*
X14921666Y12068334D02*
X14221666Y12068334D01*
X14221666Y11901667D01*
X14255000Y11801667D01*
X14321666Y11735000D01*
X14388333Y11701667D01*
X14521666Y11668334D01*
X14621666Y11668334D01*
X14755000Y11701667D01*
X14821666Y11735000D01*
X14888333Y11801667D01*
X14921666Y11901667D01*
X14921666Y12068334D01*
X14655000Y11368334D02*
X14655000Y10835000D01*
X14221666Y10168334D02*
X14221666Y10501667D01*
X14555000Y10535000D01*
X14521666Y10501667D01*
X14488333Y10435000D01*
X14488333Y10268334D01*
X14521666Y10201667D01*
X14555000Y10168334D01*
X14621666Y10135000D01*
X14788333Y10135000D01*
X14855000Y10168334D01*
X14888333Y10201667D01*
X14921666Y10268334D01*
X14921666Y10435000D01*
X14888333Y10501667D01*
X14855000Y10535000D01*
X14855000Y9835000D02*
X14888333Y9801667D01*
X14921666Y9835000D01*
X14888333Y9868334D01*
X14855000Y9835000D01*
X14921666Y9835000D01*
X14221666Y9368334D02*
X14221666Y9301667D01*
X14255000Y9235000D01*
X14288333Y9201667D01*
X14355000Y9168334D01*
X14488333Y9135000D01*
X14655000Y9135000D01*
X14788333Y9168334D01*
X14855000Y9201667D01*
X14888333Y9235000D01*
X14921666Y9301667D01*
X14921666Y9368334D01*
X14888333Y9435000D01*
X14855000Y9468334D01*
X14788333Y9501667D01*
X14655000Y9535000D01*
X14488333Y9535000D01*
X14355000Y9501667D01*
X14288333Y9468334D01*
X14255000Y9435000D01*
X14221666Y9368334D01*
X17835000Y20890000D02*
X17863571Y20918572D01*
X17920714Y21004286D01*
X17949285Y21061429D01*
X17977857Y21147143D01*
X18006428Y21290000D01*
X18006428Y21404286D01*
X17977857Y21547143D01*
X17949285Y21632858D01*
X17920714Y21690000D01*
X17863571Y21775715D01*
X17835000Y21804286D01*
X17349285Y21147143D02*
X17406428Y21118572D01*
X17520714Y21118572D01*
X17577857Y21147143D01*
X17606428Y21175715D01*
X17635000Y21232858D01*
X17635000Y21404286D01*
X17606428Y21461429D01*
X17577857Y21490000D01*
X17520714Y21518572D01*
X17406428Y21518572D01*
X17349285Y21490000D01*
X17149285Y20890000D02*
X17120714Y20918572D01*
X17063571Y21004286D01*
X17035000Y21061429D01*
X17006428Y21147143D01*
X16977857Y21290000D01*
X16977857Y21404286D01*
X17006428Y21547143D01*
X17035000Y21632858D01*
X17063571Y21690000D01*
X17120714Y21775715D01*
X17149285Y21804286D01*
X16720714Y21661429D02*
X16692142Y21690000D01*
X16635000Y21718572D01*
X16492142Y21718572D01*
X16435000Y21690000D01*
X16406428Y21661429D01*
X16377857Y21604286D01*
X16377857Y21547143D01*
X16406428Y21461429D01*
X16749285Y21118572D01*
X16377857Y21118572D01*
X16006428Y21718572D02*
X15949285Y21718572D01*
X15892142Y21690000D01*
X15863571Y21661429D01*
X15835000Y21604286D01*
X15806428Y21490000D01*
X15806428Y21347143D01*
X15835000Y21232858D01*
X15863571Y21175715D01*
X15892142Y21147143D01*
X15949285Y21118572D01*
X16006428Y21118572D01*
X16063571Y21147143D01*
X16092142Y21175715D01*
X16120714Y21232858D01*
X16149285Y21347143D01*
X16149285Y21490000D01*
X16120714Y21604286D01*
X16092142Y21661429D01*
X16063571Y21690000D01*
X16006428Y21718572D01*
X15577857Y21661429D02*
X15549285Y21690000D01*
X15492142Y21718572D01*
X15349285Y21718572D01*
X15292142Y21690000D01*
X15263571Y21661429D01*
X15235000Y21604286D01*
X15235000Y21547143D01*
X15263571Y21461429D01*
X15606428Y21118572D01*
X15235000Y21118572D01*
X14663571Y21118572D02*
X15006428Y21118572D01*
X14835000Y21118572D02*
X14835000Y21718572D01*
X14892142Y21632858D01*
X14949285Y21575715D01*
X15006428Y21547143D01*
X13949285Y21118572D02*
X13949285Y21718572D01*
X13720714Y21718572D01*
X13663571Y21690000D01*
X13635000Y21661429D01*
X13606428Y21604286D01*
X13606428Y21518572D01*
X13635000Y21461429D01*
X13663571Y21432858D01*
X13720714Y21404286D01*
X13949285Y21404286D01*
X13349285Y21118572D02*
X13349285Y21718572D01*
X13092142Y21118572D02*
X13092142Y21432858D01*
X13120714Y21490000D01*
X13177857Y21518572D01*
X13263571Y21518572D01*
X13320714Y21490000D01*
X13349285Y21461429D01*
X12806428Y21118572D02*
X12806428Y21518572D01*
X12806428Y21718572D02*
X12835000Y21690000D01*
X12806428Y21661429D01*
X12777857Y21690000D01*
X12806428Y21718572D01*
X12806428Y21661429D01*
X12435000Y21118572D02*
X12492142Y21147143D01*
X12520714Y21204286D01*
X12520714Y21718572D01*
X12120714Y21118572D02*
X12177857Y21147143D01*
X12206428Y21204286D01*
X12206428Y21718572D01*
X11092142Y21118572D02*
X11292142Y21404286D01*
X11435000Y21118572D02*
X11435000Y21718572D01*
X11206428Y21718572D01*
X11149285Y21690000D01*
X11120714Y21661429D01*
X11092142Y21604286D01*
X11092142Y21518572D01*
X11120714Y21461429D01*
X11149285Y21432858D01*
X11206428Y21404286D01*
X11435000Y21404286D01*
X10749285Y21118572D02*
X10806428Y21147143D01*
X10835000Y21175715D01*
X10863571Y21232858D01*
X10863571Y21404286D01*
X10835000Y21461429D01*
X10806428Y21490000D01*
X10749285Y21518572D01*
X10663571Y21518572D01*
X10606428Y21490000D01*
X10577857Y21461429D01*
X10549285Y21404286D01*
X10549285Y21232858D01*
X10577857Y21175715D01*
X10606428Y21147143D01*
X10663571Y21118572D01*
X10749285Y21118572D01*
X10035000Y21518572D02*
X10035000Y21032858D01*
X10063571Y20975715D01*
X10092142Y20947143D01*
X10149285Y20918572D01*
X10235000Y20918572D01*
X10292142Y20947143D01*
X10035000Y21147143D02*
X10092142Y21118572D01*
X10206428Y21118572D01*
X10263571Y21147143D01*
X10292142Y21175715D01*
X10320714Y21232858D01*
X10320714Y21404286D01*
X10292142Y21461429D01*
X10263571Y21490000D01*
X10206428Y21518572D01*
X10092142Y21518572D01*
X10035000Y21490000D01*
X9520714Y21147143D02*
X9577857Y21118572D01*
X9692142Y21118572D01*
X9749285Y21147143D01*
X9777857Y21204286D01*
X9777857Y21432858D01*
X9749285Y21490000D01*
X9692142Y21518572D01*
X9577857Y21518572D01*
X9520714Y21490000D01*
X9492142Y21432858D01*
X9492142Y21375715D01*
X9777857Y21318572D01*
X9235000Y21118572D02*
X9235000Y21518572D01*
X9235000Y21404286D02*
X9206428Y21461429D01*
X9177857Y21490000D01*
X9120714Y21518572D01*
X9063571Y21518572D01*
X8892142Y21147143D02*
X8835000Y21118572D01*
X8720714Y21118572D01*
X8663571Y21147143D01*
X8635000Y21204286D01*
X8635000Y21232858D01*
X8663571Y21290000D01*
X8720714Y21318572D01*
X8806428Y21318572D01*
X8863571Y21347143D01*
X8892142Y21404286D01*
X8892142Y21432858D01*
X8863571Y21490000D01*
X8806428Y21518572D01*
X8720714Y21518572D01*
X8663571Y21490000D01*
X21069776Y12466557D02*
X21555490Y12466557D01*
X21612633Y12437986D01*
X21641205Y12409414D01*
X21669776Y12352272D01*
X21669776Y12237986D01*
X21641205Y12180843D01*
X21612633Y12152272D01*
X21555490Y12123700D01*
X21069776Y12123700D01*
X21669776Y11837986D02*
X21069776Y11837986D01*
X21669776Y11495129D01*
X21069776Y11495129D01*
X21669776Y11209414D02*
X21069776Y11209414D01*
X21069776Y11066557D01*
X21098348Y10980843D01*
X21155490Y10923700D01*
X21212633Y10895129D01*
X21326919Y10866557D01*
X21412633Y10866557D01*
X21526919Y10895129D01*
X21584062Y10923700D01*
X21641205Y10980843D01*
X21669776Y11066557D01*
X21669776Y11209414D01*
X21355490Y10609414D02*
X21355490Y10409414D01*
X21669776Y10323700D02*
X21669776Y10609414D01*
X21069776Y10609414D01*
X21069776Y10323700D01*
X21669776Y9723700D02*
X21384062Y9923700D01*
X21669776Y10066557D02*
X21069776Y10066557D01*
X21069776Y9837986D01*
X21098348Y9780843D01*
X21126919Y9752272D01*
X21184062Y9723700D01*
X21269776Y9723700D01*
X21326919Y9752272D01*
X21355490Y9780843D01*
X21384062Y9837986D01*
X21384062Y10066557D01*
X21641205Y9495129D02*
X21669776Y9409414D01*
X21669776Y9266557D01*
X21641205Y9209414D01*
X21612633Y9180843D01*
X21555490Y9152272D01*
X21498348Y9152272D01*
X21441205Y9180843D01*
X21412633Y9209414D01*
X21384062Y9266557D01*
X21355490Y9380843D01*
X21326919Y9437986D01*
X21298348Y9466557D01*
X21241205Y9495129D01*
X21184062Y9495129D01*
X21126919Y9466557D01*
X21098348Y9437986D01*
X21069776Y9380843D01*
X21069776Y9237986D01*
X21098348Y9152272D01*
X21669776Y8895129D02*
X21069776Y8895129D01*
X21669776Y8609414D02*
X21069776Y8609414D01*
X21069776Y8466557D01*
X21098348Y8380843D01*
X21155490Y8323700D01*
X21212633Y8295129D01*
X21326919Y8266557D01*
X21412633Y8266557D01*
X21526919Y8295129D01*
X21584062Y8323700D01*
X21641205Y8380843D01*
X21669776Y8466557D01*
X21669776Y8609414D01*
X21355490Y8009414D02*
X21355490Y7809414D01*
X21669776Y7723700D02*
X21669776Y8009414D01*
X21069776Y8009414D01*
X21069776Y7723700D01*
X18926666Y18766667D02*
X18993333Y18733334D01*
X19126666Y18733334D01*
X19193333Y18766667D01*
X19226666Y18800000D01*
X19260000Y18866667D01*
X19260000Y19066667D01*
X19226666Y19133334D01*
X19193333Y19166667D01*
X19126666Y19200000D01*
X18993333Y19200000D01*
X18926666Y19166667D01*
X18526666Y18733334D02*
X18593333Y18766667D01*
X18626666Y18800000D01*
X18660000Y18866667D01*
X18660000Y19066667D01*
X18626666Y19133334D01*
X18593333Y19166667D01*
X18526666Y19200000D01*
X18426666Y19200000D01*
X18360000Y19166667D01*
X18326666Y19133334D01*
X18293333Y19066667D01*
X18293333Y18866667D01*
X18326666Y18800000D01*
X18360000Y18766667D01*
X18426666Y18733334D01*
X18526666Y18733334D01*
X17993333Y18733334D02*
X17993333Y19200000D01*
X17993333Y19133334D02*
X17960000Y19166667D01*
X17893333Y19200000D01*
X17793333Y19200000D01*
X17726666Y19166667D01*
X17693333Y19100000D01*
X17693333Y18733334D01*
X17693333Y19100000D02*
X17660000Y19166667D01*
X17593333Y19200000D01*
X17493333Y19200000D01*
X17426666Y19166667D01*
X17393333Y19100000D01*
X17393333Y18733334D01*
X17060000Y19200000D02*
X17060000Y18500000D01*
X17060000Y19166667D02*
X16993333Y19200000D01*
X16860000Y19200000D01*
X16793333Y19166667D01*
X16760000Y19133334D01*
X16726666Y19066667D01*
X16726666Y18866667D01*
X16760000Y18800000D01*
X16793333Y18766667D01*
X16860000Y18733334D01*
X16993333Y18733334D01*
X17060000Y18766667D01*
X16126666Y18733334D02*
X16126666Y19100000D01*
X16160000Y19166667D01*
X16226666Y19200000D01*
X16360000Y19200000D01*
X16426666Y19166667D01*
X16126666Y18766667D02*
X16193333Y18733334D01*
X16360000Y18733334D01*
X16426666Y18766667D01*
X16460000Y18833334D01*
X16460000Y18900000D01*
X16426666Y18966667D01*
X16360000Y19000000D01*
X16193333Y19000000D01*
X16126666Y19033334D01*
X15893333Y19200000D02*
X15626666Y19200000D01*
X15793333Y19433334D02*
X15793333Y18833334D01*
X15760000Y18766667D01*
X15693333Y18733334D01*
X15626666Y18733334D01*
X15393333Y18733334D02*
X15393333Y19200000D01*
X15393333Y19433334D02*
X15426666Y19400000D01*
X15393333Y19366667D01*
X15360000Y19400000D01*
X15393333Y19433334D01*
X15393333Y19366667D01*
X15060000Y18733334D02*
X15060000Y19433334D01*
X15060000Y19166667D02*
X14993333Y19200000D01*
X14860000Y19200000D01*
X14793333Y19166667D01*
X14760000Y19133334D01*
X14726666Y19066667D01*
X14726666Y18866667D01*
X14760000Y18800000D01*
X14793333Y18766667D01*
X14860000Y18733334D01*
X14993333Y18733334D01*
X15060000Y18766667D01*
X14326666Y18733334D02*
X14393333Y18766667D01*
X14426666Y18833334D01*
X14426666Y19433334D01*
X13793333Y18766667D02*
X13860000Y18733334D01*
X13993333Y18733334D01*
X14060000Y18766667D01*
X14093333Y18833334D01*
X14093333Y19100000D01*
X14060000Y19166667D01*
X13993333Y19200000D01*
X13860000Y19200000D01*
X13793333Y19166667D01*
X13760000Y19100000D01*
X13760000Y19033334D01*
X14093333Y18966667D01*
X11516230Y18733334D02*
X11516230Y19200000D01*
X11516230Y19133334D02*
X11482897Y19166667D01*
X11416230Y19200000D01*
X11316230Y19200000D01*
X11249563Y19166667D01*
X11216230Y19100000D01*
X11216230Y18733334D01*
X11216230Y19100000D02*
X11182897Y19166667D01*
X11116230Y19200000D01*
X11016230Y19200000D01*
X10949563Y19166667D01*
X10916230Y19100000D01*
X10916230Y18733334D01*
X10482897Y18733334D02*
X10549563Y18766667D01*
X10582897Y18800000D01*
X10616230Y18866667D01*
X10616230Y19066667D01*
X10582897Y19133334D01*
X10549563Y19166667D01*
X10482897Y19200000D01*
X10382897Y19200000D01*
X10316230Y19166667D01*
X10282897Y19133334D01*
X10249563Y19066667D01*
X10249563Y18866667D01*
X10282897Y18800000D01*
X10316230Y18766667D01*
X10382897Y18733334D01*
X10482897Y18733334D01*
X9649563Y18733334D02*
X9649563Y19433334D01*
X9649563Y18766667D02*
X9716230Y18733334D01*
X9849563Y18733334D01*
X9916230Y18766667D01*
X9949563Y18800000D01*
X9982897Y18866667D01*
X9982897Y19066667D01*
X9949563Y19133334D01*
X9916230Y19166667D01*
X9849563Y19200000D01*
X9716230Y19200000D01*
X9649563Y19166667D01*
X9049563Y18766667D02*
X9116230Y18733334D01*
X9249563Y18733334D01*
X9316230Y18766667D01*
X9349563Y18833334D01*
X9349563Y19100000D01*
X9316230Y19166667D01*
X9249563Y19200000D01*
X9116230Y19200000D01*
X9049563Y19166667D01*
X9016230Y19100000D01*
X9016230Y19033334D01*
X9349563Y18966667D01*
X8216230Y18933334D02*
X7882897Y18933334D01*
X8282897Y18733334D02*
X8049563Y19433334D01*
X7816230Y18733334D01*
X7616230Y19366667D02*
X7582897Y19400000D01*
X7516230Y19433334D01*
X7349563Y19433334D01*
X7282897Y19400000D01*
X7249563Y19366667D01*
X7216230Y19300000D01*
X7216230Y19233334D01*
X7249563Y19133334D01*
X7649563Y18733334D01*
X7216230Y18733334D01*
X15885000Y20036667D02*
X15785000Y20003334D01*
X15618333Y20003334D01*
X15551666Y20036667D01*
X15518333Y20070000D01*
X15485000Y20136667D01*
X15485000Y20203334D01*
X15518333Y20270000D01*
X15551666Y20303334D01*
X15618333Y20336667D01*
X15751666Y20370000D01*
X15818333Y20403334D01*
X15851666Y20436667D01*
X15885000Y20503334D01*
X15885000Y20570000D01*
X15851666Y20636667D01*
X15818333Y20670000D01*
X15751666Y20703334D01*
X15585000Y20703334D01*
X15485000Y20670000D01*
X15185000Y20470000D02*
X15185000Y19770000D01*
X15185000Y20436667D02*
X15118333Y20470000D01*
X14985000Y20470000D01*
X14918333Y20436667D01*
X14885000Y20403334D01*
X14851666Y20336667D01*
X14851666Y20136667D01*
X14885000Y20070000D01*
X14918333Y20036667D01*
X14985000Y20003334D01*
X15118333Y20003334D01*
X15185000Y20036667D01*
X14285000Y20036667D02*
X14351666Y20003334D01*
X14485000Y20003334D01*
X14551666Y20036667D01*
X14585000Y20103334D01*
X14585000Y20370000D01*
X14551666Y20436667D01*
X14485000Y20470000D01*
X14351666Y20470000D01*
X14285000Y20436667D01*
X14251666Y20370000D01*
X14251666Y20303334D01*
X14585000Y20236667D01*
X13685000Y20036667D02*
X13751666Y20003334D01*
X13885000Y20003334D01*
X13951666Y20036667D01*
X13985000Y20103334D01*
X13985000Y20370000D01*
X13951666Y20436667D01*
X13885000Y20470000D01*
X13751666Y20470000D01*
X13685000Y20436667D01*
X13651666Y20370000D01*
X13651666Y20303334D01*
X13985000Y20236667D01*
X13051666Y20003334D02*
X13051666Y20703334D01*
X13051666Y20036667D02*
X13118333Y20003334D01*
X13251666Y20003334D01*
X13318333Y20036667D01*
X13351666Y20070000D01*
X13385000Y20136667D01*
X13385000Y20336667D01*
X13351666Y20403334D01*
X13318333Y20436667D01*
X13251666Y20470000D01*
X13118333Y20470000D01*
X13051666Y20436667D01*
X12418333Y20470000D02*
X12418333Y20003334D01*
X12718333Y20470000D02*
X12718333Y20103334D01*
X12685000Y20036667D01*
X12618333Y20003334D01*
X12518333Y20003334D01*
X12451666Y20036667D01*
X12418333Y20070000D01*
X12085000Y20003334D02*
X12085000Y20470000D01*
X12085000Y20703334D02*
X12118333Y20670000D01*
X12085000Y20636667D01*
X12051666Y20670000D01*
X12085000Y20703334D01*
X12085000Y20636667D01*
X11751666Y20470000D02*
X11751666Y20003334D01*
X11751666Y20403334D02*
X11718333Y20436667D01*
X11651666Y20470000D01*
X11551666Y20470000D01*
X11485000Y20436667D01*
X11451666Y20370000D01*
X11451666Y20003334D01*
X11018333Y20003334D02*
X11085000Y20036667D01*
X11118333Y20070000D01*
X11151666Y20136667D01*
X11151666Y20336667D01*
X11118333Y20403334D01*
X11085000Y20436667D01*
X11018333Y20470000D01*
X10918333Y20470000D01*
X10851666Y20436667D01*
X10818333Y20403334D01*
X10785000Y20336667D01*
X10785000Y20136667D01*
X10818333Y20070000D01*
X10851666Y20036667D01*
X10918333Y20003334D01*
X11018333Y20003334D01*
X8078733Y19977934D02*
X8112066Y19977934D01*
X8178733Y20011267D01*
X8278733Y20111267D01*
X8445400Y20311267D01*
X8512066Y20411267D01*
X8545400Y20511267D01*
X8545400Y20577934D01*
X8512066Y20644600D01*
X8445400Y20677934D01*
X8412066Y20677934D01*
X8345400Y20644600D01*
X8312066Y20577934D01*
X8312066Y20544600D01*
X8345400Y20477934D01*
X8378733Y20444600D01*
X8578733Y20311267D01*
X8612066Y20277934D01*
X8645400Y20211267D01*
X8645400Y20111267D01*
X8612066Y20044600D01*
X8578733Y20011267D01*
X8512066Y19977934D01*
X8412066Y19977934D01*
X8345400Y20011267D01*
X8312066Y20044600D01*
X8212066Y20177934D01*
X8178733Y20277934D01*
X8178733Y20344600D01*
X7778733Y19977934D02*
X7778733Y20677934D01*
X7545400Y20177934D01*
X7312066Y20677934D01*
X7312066Y19977934D01*
X7012066Y20011267D02*
X6912066Y19977934D01*
X6745400Y19977934D01*
X6678733Y20011267D01*
X6645400Y20044600D01*
X6612066Y20111267D01*
X6612066Y20177934D01*
X6645400Y20244600D01*
X6678733Y20277934D01*
X6745400Y20311267D01*
X6878733Y20344600D01*
X6945400Y20377934D01*
X6978733Y20411267D01*
X7012066Y20477934D01*
X7012066Y20544600D01*
X6978733Y20611267D01*
X6945400Y20644600D01*
X6878733Y20677934D01*
X6712066Y20677934D01*
X6612066Y20644600D01*
G04 #@! TO.C,U1*
X11429166Y17268334D02*
X10729166Y17268334D01*
X11229166Y17035000D01*
X10729166Y16801667D01*
X11429166Y16801667D01*
X11229166Y16501667D02*
X11229166Y16168334D01*
X11429166Y16568334D02*
X10729166Y16335000D01*
X11429166Y16101667D01*
X10729166Y15935000D02*
X11429166Y15468334D01*
X10729166Y15468334D02*
X11429166Y15935000D01*
X11429166Y15168334D02*
X11429166Y15035000D01*
X11395833Y14968334D01*
X11362500Y14935000D01*
X11262500Y14868334D01*
X11129166Y14835000D01*
X10862500Y14835000D01*
X10795833Y14868334D01*
X10762500Y14901667D01*
X10729166Y14968334D01*
X10729166Y15101667D01*
X10762500Y15168334D01*
X10795833Y15201667D01*
X10862500Y15235000D01*
X11029166Y15235000D01*
X11095833Y15201667D01*
X11129166Y15168334D01*
X11162500Y15101667D01*
X11162500Y14968334D01*
X11129166Y14901667D01*
X11095833Y14868334D01*
X11029166Y14835000D01*
X11429166Y14501667D02*
X11429166Y14368334D01*
X11395833Y14301667D01*
X11362500Y14268334D01*
X11262500Y14201667D01*
X11129166Y14168334D01*
X10862500Y14168334D01*
X10795833Y14201667D01*
X10762500Y14235000D01*
X10729166Y14301667D01*
X10729166Y14435000D01*
X10762500Y14501667D01*
X10795833Y14535000D01*
X10862500Y14568334D01*
X11029166Y14568334D01*
X11095833Y14535000D01*
X11129166Y14501667D01*
X11162500Y14435000D01*
X11162500Y14301667D01*
X11129166Y14235000D01*
X11095833Y14201667D01*
X11029166Y14168334D01*
X10795833Y13901667D02*
X10762500Y13868334D01*
X10729166Y13801667D01*
X10729166Y13635000D01*
X10762500Y13568334D01*
X10795833Y13535000D01*
X10862500Y13501667D01*
X10929166Y13501667D01*
X11029166Y13535000D01*
X11429166Y13935000D01*
X11429166Y13501667D01*
X10729166Y12901667D02*
X10729166Y13035000D01*
X10762500Y13101667D01*
X10795833Y13135000D01*
X10895833Y13201667D01*
X11029166Y13235000D01*
X11295833Y13235000D01*
X11362500Y13201667D01*
X11395833Y13168334D01*
X11429166Y13101667D01*
X11429166Y12968334D01*
X11395833Y12901667D01*
X11362500Y12868334D01*
X11295833Y12835000D01*
X11129166Y12835000D01*
X11062500Y12868334D01*
X11029166Y12901667D01*
X10995833Y12968334D01*
X10995833Y13101667D01*
X11029166Y13168334D01*
X11062500Y13201667D01*
X11129166Y13235000D01*
X10729166Y12535000D02*
X11295833Y12535000D01*
X11362500Y12501667D01*
X11395833Y12468334D01*
X11429166Y12401667D01*
X11429166Y12268334D01*
X11395833Y12201667D01*
X11362500Y12168334D01*
X11295833Y12135000D01*
X10729166Y12135000D01*
X11229166Y11835000D02*
X11229166Y11501667D01*
X11429166Y11901667D02*
X10729166Y11668334D01*
X11429166Y11435000D01*
X11062500Y11201667D02*
X11062500Y10968334D01*
X11429166Y10868334D02*
X11429166Y11201667D01*
X10729166Y11201667D01*
X10729166Y10868334D01*
X11062500Y10568334D02*
X11062500Y10335000D01*
X11429166Y10235000D02*
X11429166Y10568334D01*
X10729166Y10568334D01*
X10729166Y10235000D01*
X11162500Y9935000D02*
X11162500Y9401667D01*
X11429166Y9668334D02*
X10895833Y9668334D01*
G04 #@! TO.C,J2*
X7218333Y4193334D02*
X7218333Y3693334D01*
X7251666Y3593334D01*
X7318333Y3526667D01*
X7418333Y3493334D01*
X7485000Y3493334D01*
X6918333Y4126667D02*
X6885000Y4160000D01*
X6818333Y4193334D01*
X6651666Y4193334D01*
X6585000Y4160000D01*
X6551666Y4126667D01*
X6518333Y4060000D01*
X6518333Y3993334D01*
X6551666Y3893334D01*
X6951666Y3493334D01*
X6518333Y3493334D01*
G04 #@! TO.C,U2*
X17660155Y6643529D02*
X17660155Y6076862D01*
X17626822Y6010195D01*
X17593488Y5976862D01*
X17526822Y5943529D01*
X17393488Y5943529D01*
X17326822Y5976862D01*
X17293488Y6010195D01*
X17260155Y6076862D01*
X17260155Y6643529D01*
X16960155Y6576862D02*
X16926822Y6610195D01*
X16860155Y6643529D01*
X16693488Y6643529D01*
X16626822Y6610195D01*
X16593488Y6576862D01*
X16560155Y6510195D01*
X16560155Y6443529D01*
X16593488Y6343529D01*
X16993488Y5943529D01*
X16560155Y5943529D01*
G04 #@! TO.C,TP4*
X1773142Y9218572D02*
X1430285Y9218572D01*
X1601714Y8618572D02*
X1601714Y9218572D01*
X1230285Y8618572D02*
X1230285Y9218572D01*
X1001714Y9218572D01*
X944571Y9190000D01*
X916000Y9161429D01*
X887428Y9104286D01*
X887428Y9018572D01*
X916000Y8961429D01*
X944571Y8932858D01*
X1001714Y8904286D01*
X1230285Y8904286D01*
X373142Y9018572D02*
X373142Y8618572D01*
X516000Y9247143D02*
X658857Y8818572D01*
X287428Y8818572D01*
G04 #@! TO.C,TP3*
X1773142Y11885572D02*
X1430285Y11885572D01*
X1601714Y11285572D02*
X1601714Y11885572D01*
X1230285Y11285572D02*
X1230285Y11885572D01*
X1001714Y11885572D01*
X944571Y11857000D01*
X916000Y11828429D01*
X887428Y11771286D01*
X887428Y11685572D01*
X916000Y11628429D01*
X944571Y11599858D01*
X1001714Y11571286D01*
X1230285Y11571286D01*
X687428Y11885572D02*
X316000Y11885572D01*
X516000Y11657000D01*
X430285Y11657000D01*
X373142Y11628429D01*
X344571Y11599858D01*
X316000Y11542715D01*
X316000Y11399858D01*
X344571Y11342715D01*
X373142Y11314143D01*
X430285Y11285572D01*
X601714Y11285572D01*
X658857Y11314143D01*
X687428Y11342715D01*
G04 #@! TO.C,TP2*
X1900142Y14425572D02*
X1557285Y14425572D01*
X1728714Y13825572D02*
X1728714Y14425572D01*
X1357285Y13825572D02*
X1357285Y14425572D01*
X1128714Y14425572D01*
X1071571Y14397000D01*
X1043000Y14368429D01*
X1014428Y14311286D01*
X1014428Y14225572D01*
X1043000Y14168429D01*
X1071571Y14139858D01*
X1128714Y14111286D01*
X1357285Y14111286D01*
X785857Y14368429D02*
X757285Y14397000D01*
X700142Y14425572D01*
X557285Y14425572D01*
X500142Y14397000D01*
X471571Y14368429D01*
X443000Y14311286D01*
X443000Y14254143D01*
X471571Y14168429D01*
X814428Y13825572D01*
X443000Y13825572D01*
G04 #@! TO.C,TP1*
X1900142Y16838572D02*
X1557285Y16838572D01*
X1728714Y16238572D02*
X1728714Y16838572D01*
X1357285Y16238572D02*
X1357285Y16838572D01*
X1128714Y16838572D01*
X1071571Y16810000D01*
X1043000Y16781429D01*
X1014428Y16724286D01*
X1014428Y16638572D01*
X1043000Y16581429D01*
X1071571Y16552858D01*
X1128714Y16524286D01*
X1357285Y16524286D01*
X443000Y16238572D02*
X785857Y16238572D01*
X614428Y16238572D02*
X614428Y16838572D01*
X671571Y16752858D01*
X728714Y16695715D01*
X785857Y16667143D01*
D11*
G04 #@! TO.C,J2*
X9270000Y3335000D02*
X9270000Y3005000D01*
X16130000Y-5655000D02*
X16890000Y-5655000D01*
X8890000Y5715000D02*
X7620000Y5715000D01*
X16130000Y3402071D02*
X16130000Y3005000D01*
X15240000Y3005000D02*
X15240000Y345000D01*
X9270000Y-5655000D02*
X9270000Y345000D01*
X13590000Y-5655000D02*
X14350000Y-5655000D01*
X11810000Y-5655000D02*
X11810000Y345000D01*
X12700000Y3005000D02*
X12700000Y345000D01*
X7620000Y5715000D02*
X7620000Y4445000D01*
X10160000Y3005000D02*
X10160000Y345000D01*
X8510000Y-5655000D02*
X9270000Y-5655000D01*
X17840000Y345000D02*
X7560000Y345000D01*
X13590000Y3402071D02*
X13590000Y3005000D01*
X8810000Y345000D02*
X8810000Y-5655000D01*
X8510000Y3335000D02*
X8510000Y3005000D01*
X9170000Y345000D02*
X9170000Y-5655000D01*
X14350000Y3402071D02*
X14350000Y3005000D01*
X11050000Y3402071D02*
X11050000Y3005000D01*
X16890000Y3402071D02*
X16890000Y3005000D01*
X8510000Y345000D02*
X8510000Y-5655000D01*
X8570000Y345000D02*
X8570000Y-5655000D01*
X11050000Y-5655000D02*
X11810000Y-5655000D01*
X7560000Y3005000D02*
X17840000Y3005000D01*
X16130000Y345000D02*
X16130000Y-5655000D01*
X16890000Y-5655000D02*
X16890000Y345000D01*
X7560000Y345000D02*
X7560000Y3005000D01*
X9050000Y345000D02*
X9050000Y-5655000D01*
X11810000Y3402071D02*
X11810000Y3005000D01*
X8930000Y345000D02*
X8930000Y-5655000D01*
X17840000Y3005000D02*
X17840000Y345000D01*
X14350000Y-5655000D02*
X14350000Y345000D01*
X13590000Y345000D02*
X13590000Y-5655000D01*
X8690000Y345000D02*
X8690000Y-5655000D01*
X11050000Y345000D02*
X11050000Y-5655000D01*
G04 #@! TO.C,U2*
X14500000Y4800000D02*
X10900000Y4800000D01*
X12700000Y9250000D02*
G75*
G03*
X10343600Y7748807I2J-2600002D01*
G01*
X10375816Y5527205D02*
G75*
G03*
X10900000Y4800000I2324175J1122789D01*
G01*
X15056400Y7748807D02*
G75*
G03*
X12700000Y9250000I-2356399J-1098804D01*
G01*
X14500000Y4800000D02*
G75*
G03*
X15024184Y5527205I-1799991J1849994D01*
G01*
G04 #@! TO.C,TP4*
X8062000Y9840000D02*
X6162000Y9840000D01*
X6162000Y7940000D02*
X8062000Y7940000D01*
X8062000Y7940000D02*
X8062000Y9840000D01*
X6162000Y9840000D02*
X6162000Y7940000D01*
G04 #@! TO.C,TP3*
X8062000Y10480000D02*
X8062000Y12380000D01*
X8062000Y12380000D02*
X6162000Y12380000D01*
X6162000Y12380000D02*
X6162000Y10480000D01*
X6162000Y10480000D02*
X8062000Y10480000D01*
G04 #@! TO.C,TP2*
X6162000Y13020000D02*
X8062000Y13020000D01*
X6162000Y14920000D02*
X6162000Y13020000D01*
X8062000Y13020000D02*
X8062000Y14920000D01*
X8062000Y14920000D02*
X6162000Y14920000D01*
G04 #@! TO.C,TP1*
X8062000Y15560000D02*
X8062000Y17460000D01*
X6162000Y15560000D02*
X8062000Y15560000D01*
X6162000Y17460000D02*
X6162000Y15560000D01*
X8062000Y17460000D02*
X6162000Y17460000D01*
G04 #@! TD*
M02*
