G04 #@! TF.GenerationSoftware,KiCad,Pcbnew,(6.0.0-0)*
G04 #@! TF.CreationDate,2022-08-07T15:03:16+01:00*
G04 #@! TF.ProjectId,VR-Conditioner-MAX9926+reg,56522d43-6f6e-4646-9974-696f6e65722d,3.72*
G04 #@! TF.SameCoordinates,PX68c4118PY713e7a8*
G04 #@! TF.FileFunction,Copper,L1,Top*
G04 #@! TF.FilePolarity,Positive*
%FSLAX46Y46*%
G04 Gerber Fmt 4.6, Leading zero omitted, Abs format (unit mm)*
G04 Created by KiCad (PCBNEW (6.0.0-0)) date 2022-08-07 15:03:16*
%MOMM*%
%LPD*%
G01*
G04 APERTURE LIST*
G04 Aperture macros list*
%AMRoundRect*
0 Rectangle with rounded corners*
0 $1 Rounding radius*
0 $2 $3 $4 $5 $6 $7 $8 $9 X,Y pos of 4 corners*
0 Add a 4 corners polygon primitive as box body*
4,1,4,$2,$3,$4,$5,$6,$7,$8,$9,$2,$3,0*
0 Add four circle primitives for the rounded corners*
1,1,$1+$1,$2,$3*
1,1,$1+$1,$4,$5*
1,1,$1+$1,$6,$7*
1,1,$1+$1,$8,$9*
0 Add four rect primitives between the rounded corners*
20,1,$1+$1,$2,$3,$4,$5,0*
20,1,$1+$1,$4,$5,$6,$7,0*
20,1,$1+$1,$6,$7,$8,$9,0*
20,1,$1+$1,$8,$9,$2,$3,0*%
G04 Aperture macros list end*
G04 #@! TA.AperFunction,SMDPad,CuDef*
%ADD10RoundRect,0.218750X0.218750X0.256250X-0.218750X0.256250X-0.218750X-0.256250X0.218750X-0.256250X0*%
G04 #@! TD*
G04 #@! TA.AperFunction,SMDPad,CuDef*
%ADD11RoundRect,0.243750X-0.243750X-0.456250X0.243750X-0.456250X0.243750X0.456250X-0.243750X0.456250X0*%
G04 #@! TD*
G04 #@! TA.AperFunction,SMDPad,CuDef*
%ADD12RoundRect,0.218750X-0.218750X-0.256250X0.218750X-0.256250X0.218750X0.256250X-0.218750X0.256250X0*%
G04 #@! TD*
G04 #@! TA.AperFunction,SMDPad,CuDef*
%ADD13RoundRect,0.250000X-0.312500X-0.625000X0.312500X-0.625000X0.312500X0.625000X-0.312500X0.625000X0*%
G04 #@! TD*
G04 #@! TA.AperFunction,SMDPad,CuDef*
%ADD14C,0.500000*%
G04 #@! TD*
G04 #@! TA.AperFunction,ComponentPad*
%ADD15R,1.600000X1.600000*%
G04 #@! TD*
G04 #@! TA.AperFunction,ComponentPad*
%ADD16O,1.600000X1.600000*%
G04 #@! TD*
G04 #@! TA.AperFunction,SMDPad,CuDef*
%ADD17RoundRect,0.237500X0.287500X0.237500X-0.287500X0.237500X-0.287500X-0.237500X0.287500X-0.237500X0*%
G04 #@! TD*
G04 #@! TA.AperFunction,SMDPad,CuDef*
%ADD18R,0.354800X1.454899*%
G04 #@! TD*
G04 #@! TA.AperFunction,ComponentPad*
%ADD19C,1.600000*%
G04 #@! TD*
G04 #@! TA.AperFunction,ComponentPad*
%ADD20R,1.700000X1.700000*%
G04 #@! TD*
G04 #@! TA.AperFunction,ComponentPad*
%ADD21O,1.700000X1.700000*%
G04 #@! TD*
G04 #@! TA.AperFunction,ComponentPad*
%ADD22R,1.500000X1.500000*%
G04 #@! TD*
G04 #@! TA.AperFunction,ComponentPad*
%ADD23C,1.500000*%
G04 #@! TD*
G04 #@! TA.AperFunction,ViaPad*
%ADD24C,0.600000*%
G04 #@! TD*
G04 #@! TA.AperFunction,Conductor*
%ADD25C,0.300000*%
G04 #@! TD*
G04 #@! TA.AperFunction,Conductor*
%ADD26C,0.400000*%
G04 #@! TD*
G04 #@! TA.AperFunction,Conductor*
%ADD27C,0.160000*%
G04 #@! TD*
G04 #@! TA.AperFunction,Conductor*
%ADD28C,0.200000*%
G04 #@! TD*
G04 #@! TA.AperFunction,Conductor*
%ADD29C,0.170000*%
G04 #@! TD*
G04 APERTURE END LIST*
D10*
G04 #@! TO.P,C1,1*
G04 #@! TO.N,VCC*
X20790000Y8890000D03*
G04 #@! TO.P,C1,2*
G04 #@! TO.N,GND*
X19215000Y8890000D03*
G04 #@! TD*
G04 #@! TO.P,C2,1*
G04 #@! TO.N,VCC*
X20790000Y10795000D03*
G04 #@! TO.P,C2,2*
G04 #@! TO.N,GND*
X19215000Y10795000D03*
G04 #@! TD*
G04 #@! TO.P,C3,1*
G04 #@! TO.N,VCC*
X20790000Y12700000D03*
G04 #@! TO.P,C3,2*
G04 #@! TO.N,GND*
X19215000Y12700000D03*
G04 #@! TD*
D11*
G04 #@! TO.P,C4,1*
G04 #@! TO.N,+12V*
X11127500Y8509000D03*
G04 #@! TO.P,C4,2*
G04 #@! TO.N,GND*
X13002500Y8509000D03*
G04 #@! TD*
D12*
G04 #@! TO.P,C10,1*
G04 #@! TO.N,Net-(C10-Pad1)*
X4483000Y14287500D03*
G04 #@! TO.P,C10,2*
G04 #@! TO.N,Net-(C10-Pad2)*
X6058000Y14287500D03*
G04 #@! TD*
D10*
G04 #@! TO.P,C20,1*
G04 #@! TO.N,Net-(C20-Pad1)*
X6058000Y8001000D03*
G04 #@! TO.P,C20,2*
G04 #@! TO.N,Net-(C20-Pad2)*
X4483000Y8001000D03*
G04 #@! TD*
D13*
G04 #@! TO.P,R22,1*
G04 #@! TO.N,Net-(C20-Pad2)*
X3935000Y9969500D03*
G04 #@! TO.P,R22,2*
G04 #@! TO.N,Net-(J3-Pad3)*
X6860000Y9969500D03*
G04 #@! TD*
G04 #@! TO.P,R21,1*
G04 #@! TO.N,Net-(C20-Pad1)*
X3935000Y6032500D03*
G04 #@! TO.P,R21,2*
G04 #@! TO.N,Net-(J3-Pad4)*
X6860000Y6032500D03*
G04 #@! TD*
G04 #@! TO.P,R11,1*
G04 #@! TO.N,Net-(C10-Pad2)*
X3935000Y12319000D03*
G04 #@! TO.P,R11,2*
G04 #@! TO.N,Net-(J3-Pad2)*
X6860000Y12319000D03*
G04 #@! TD*
D14*
G04 #@! TO.P,FID1,*
G04 #@! TO.N,*
X3810000Y3810000D03*
G04 #@! TD*
G04 #@! TO.P,FID2,*
G04 #@! TO.N,*
X20955000Y20955000D03*
G04 #@! TD*
D15*
G04 #@! TO.P,J3,1,Pin_1*
G04 #@! TO.N,Net-(J3-Pad1)*
X9207500Y16510000D03*
D16*
G04 #@! TO.P,J3,2,Pin_2*
G04 #@! TO.N,Net-(J3-Pad2)*
X9207500Y13970000D03*
G04 #@! TO.P,J3,3,Pin_3*
G04 #@! TO.N,Net-(J3-Pad3)*
X9207500Y11430000D03*
G04 #@! TO.P,J3,4,Pin_4*
G04 #@! TO.N,Net-(J3-Pad4)*
X9207500Y8890000D03*
G04 #@! TO.P,J3,5,Pin_5*
G04 #@! TO.N,VCC*
X16827500Y8890000D03*
G04 #@! TO.P,J3,6,Pin_6*
G04 #@! TO.N,GND*
X16827500Y11430000D03*
G04 #@! TO.P,J3,7,Pin_7*
G04 #@! TO.N,/COUT2*
X16827500Y13970000D03*
G04 #@! TO.P,J3,8,Pin_8*
G04 #@! TO.N,/COUT1*
X16827500Y16510000D03*
G04 #@! TD*
D17*
G04 #@! TO.P,R10,1*
G04 #@! TO.N,VCC*
X20877500Y16510000D03*
G04 #@! TO.P,R10,2*
G04 #@! TO.N,/COUT1*
X19127500Y16510000D03*
G04 #@! TD*
G04 #@! TO.P,R20,1*
G04 #@! TO.N,VCC*
X20877500Y14605000D03*
G04 #@! TO.P,R20,2*
G04 #@! TO.N,/COUT2*
X19127500Y14605000D03*
G04 #@! TD*
D18*
G04 #@! TO.P,U1,1,INT_THRS1*
G04 #@! TO.N,GND*
X15240000Y16056348D03*
G04 #@! TO.P,U1,2,EXT1*
G04 #@! TO.N,unconnected-(U1-Pad2)*
X14605000Y16056348D03*
G04 #@! TO.P,U1,3,BIAS1*
G04 #@! TO.N,GND*
X13970000Y16056348D03*
G04 #@! TO.P,U1,4,COUT1*
G04 #@! TO.N,/COUT1*
X13335000Y16056348D03*
G04 #@! TO.P,U1,5,COUT2*
G04 #@! TO.N,/COUT2*
X12700000Y16056348D03*
G04 #@! TO.P,U1,6,BIAS2*
G04 #@! TO.N,GND*
X12065000Y16056348D03*
G04 #@! TO.P,U1,7,EXT2*
G04 #@! TO.N,unconnected-(U1-Pad7)*
X11430000Y16056348D03*
G04 #@! TO.P,U1,8,INT_THRS2*
G04 #@! TO.N,GND*
X10795000Y16056348D03*
G04 #@! TO.P,U1,9,IN2+*
G04 #@! TO.N,Net-(C20-Pad2)*
X10795000Y10613652D03*
G04 #@! TO.P,U1,10,IN2-*
G04 #@! TO.N,Net-(C20-Pad1)*
X11430000Y10613652D03*
G04 #@! TO.P,U1,11,GND*
G04 #@! TO.N,GND*
X12065000Y10613652D03*
G04 #@! TO.P,U1,12,DIRN*
G04 #@! TO.N,unconnected-(U1-Pad12)*
X12700000Y10613652D03*
G04 #@! TO.P,U1,13,ZERO_EN*
G04 #@! TO.N,GND*
X13335000Y10613652D03*
G04 #@! TO.P,U1,14,VCC*
G04 #@! TO.N,VCC*
X13970000Y10613652D03*
G04 #@! TO.P,U1,15,IN1-*
G04 #@! TO.N,Net-(C10-Pad2)*
X14605000Y10613652D03*
G04 #@! TO.P,U1,16,IN1+*
G04 #@! TO.N,Net-(C10-Pad1)*
X15240000Y10613652D03*
G04 #@! TD*
D19*
G04 #@! TO.P,R13,1*
G04 #@! TO.N,Net-(J3-Pad1)*
X9525000Y20320000D03*
D16*
G04 #@! TO.P,R13,2*
G04 #@! TO.N,Net-(J3-Pad2)*
X17145000Y20320000D03*
G04 #@! TD*
D19*
G04 #@! TO.P,R23,1*
G04 #@! TO.N,Net-(J3-Pad3)*
X12700000Y19050000D03*
D16*
G04 #@! TO.P,R23,2*
G04 #@! TO.N,Net-(J3-Pad4)*
X20320000Y19050000D03*
G04 #@! TD*
D13*
G04 #@! TO.P,R12,1*
G04 #@! TO.N,Net-(C10-Pad1)*
X3935000Y16256000D03*
G04 #@! TO.P,R12,2*
G04 #@! TO.N,Net-(J3-Pad1)*
X6860000Y16256000D03*
G04 #@! TD*
D20*
G04 #@! TO.P,J2,1,Pin_1*
G04 #@! TO.N,+12V*
X8890000Y4445000D03*
D21*
G04 #@! TO.P,J2,2,Pin_2*
G04 #@! TO.N,GND*
X11430000Y4445000D03*
G04 #@! TO.P,J2,3,Pin_3*
G04 #@! TO.N,/COUT2*
X13970000Y4445000D03*
G04 #@! TO.P,J2,4,Pin_4*
G04 #@! TO.N,/COUT1*
X16510000Y4445000D03*
G04 #@! TD*
D22*
G04 #@! TO.P,U2,1,GND*
G04 #@! TO.N,GND*
X15240000Y6650000D03*
D23*
G04 #@! TO.P,U2,2,VO*
G04 #@! TO.N,VCC*
X12700000Y6650000D03*
G04 #@! TO.P,U2,3,VI*
G04 #@! TO.N,+12V*
X10160000Y6650000D03*
G04 #@! TD*
D24*
G04 #@! TO.N,GND*
X13970000Y11972990D03*
X5715000Y3810000D03*
X19050000Y20320000D03*
X19685000Y6985000D03*
X5169010Y11138010D03*
X6985000Y20955000D03*
G04 #@! TD*
D25*
G04 #@! TO.N,GND*
X12065000Y15156496D02*
X12065000Y15127489D01*
X13335000Y11641101D02*
X13335000Y10613652D01*
X17462500Y10795000D02*
X16827500Y11430000D01*
X19127500Y10795000D02*
X17462500Y10795000D01*
D26*
X19127500Y10795000D02*
X19127500Y12700000D01*
X19127500Y10795000D02*
X19127500Y8890000D01*
D25*
X12065000Y15156496D02*
X12065000Y16056348D01*
X14147599Y14978897D02*
X15062401Y14978897D01*
X15240000Y15156496D02*
X15240000Y16056348D01*
X13970000Y15156496D02*
X14147599Y14978897D01*
X13970000Y16056348D02*
X13970000Y15156496D01*
X12065000Y16956199D02*
X12242599Y17133798D01*
X13792401Y17133798D02*
X13970000Y16956199D01*
X12065000Y16056348D02*
X12065000Y16956199D01*
X13970000Y16956199D02*
X13970000Y16056348D01*
X15062401Y14978897D02*
X15240000Y15156496D01*
X12242599Y17133798D02*
X13792401Y17133798D01*
X19685000Y6985000D02*
X19685000Y6985000D01*
D27*
X5169010Y11138010D02*
X5169010Y11138010D01*
D25*
X12065000Y11641101D02*
X12396889Y11972990D01*
X14620479Y13637021D02*
X14732000Y13525500D01*
X12065000Y14605000D02*
X11346496Y14605000D01*
X13335000Y10613652D02*
X13335000Y11880980D01*
X20955000Y6985000D02*
X19685000Y6985000D01*
X3373964Y4807490D02*
X4082510Y4807490D01*
X4082510Y4807490D02*
X4730750Y4159250D01*
X3022490Y17627490D02*
X3175000Y17780000D01*
X13335000Y10613652D02*
X13335000Y8841500D01*
X12792010Y11972990D02*
X13242990Y11972990D01*
X13242990Y11972990D02*
X13970000Y11972990D01*
X13032979Y13637021D02*
X14620479Y13637021D01*
X13335000Y11880980D02*
X13242990Y11972990D01*
X13362497Y5549999D02*
X14462498Y6650000D01*
X3175000Y17780000D02*
X6350000Y17780000D01*
X21018500Y3175000D02*
X21590000Y3746500D01*
X11346496Y14605000D02*
X10795000Y15156496D01*
D27*
X4453540Y11138010D02*
X4343510Y11138010D01*
D25*
X11430000Y6936500D02*
X11430000Y4445000D01*
X13335000Y8841500D02*
X13002500Y8509000D01*
X15575000Y6985000D02*
X15240000Y6650000D01*
X21752510Y7782510D02*
X20955000Y6985000D01*
X19685000Y6985000D02*
X15575000Y6985000D01*
D27*
X4343510Y11138010D02*
X5169010Y11138010D01*
D25*
X3022490Y11138010D02*
X3022490Y5158964D01*
D27*
X4343510Y11138010D02*
X3022490Y11138010D01*
D25*
X12065000Y10613652D02*
X12065000Y11641101D01*
X12396889Y11972990D02*
X12792010Y11972990D01*
X3022490Y5158964D02*
X3373964Y4807490D01*
X13002500Y8509000D02*
X11430000Y6936500D01*
X4730750Y3333750D02*
X4889500Y3175000D01*
X21590000Y17780000D02*
X21752510Y17617490D01*
X12534999Y5549999D02*
X13362497Y5549999D01*
X10795000Y15156496D02*
X10795000Y16056348D01*
X12065000Y14605000D02*
X12065000Y14605000D01*
X15240000Y6650000D02*
X14462498Y6650000D01*
X14732000Y13525500D02*
X16827500Y11430000D01*
X3022490Y11138010D02*
X3022490Y17627490D01*
X12065000Y14605000D02*
X13032979Y13637021D01*
X6985000Y20955000D02*
X7620000Y21590000D01*
X12065000Y15156496D02*
X12065000Y14605000D01*
X6985000Y18415000D02*
X6985000Y19685000D01*
X7620000Y21590000D02*
X19050000Y21590000D01*
X11430000Y4445000D02*
X12534999Y5549999D01*
X21752510Y17617490D02*
X21752510Y7782510D01*
X6350000Y17780000D02*
X6985000Y18415000D01*
X4730750Y4159250D02*
X4730750Y3333750D01*
X12792010Y11972990D02*
X12607990Y11972990D01*
X4889500Y3175000D02*
X21018500Y3175000D01*
X6985000Y19685000D02*
X6985000Y20955000D01*
X19050000Y21590000D02*
X19685000Y20955000D01*
D26*
G04 #@! TO.N,VCC*
X20002490Y8014990D02*
X17702510Y8014990D01*
X17702510Y8014990D02*
X16827500Y8890000D01*
D25*
X15257500Y8890000D02*
X16827500Y8890000D01*
X16321498Y8890000D02*
X16827500Y8890000D01*
D26*
X20877500Y8890000D02*
X20002490Y8014990D01*
D28*
X16827500Y8890000D02*
X17227510Y8489990D01*
D26*
X20877500Y10795000D02*
X20877500Y8890000D01*
X20877500Y12700000D02*
X20877500Y10795000D01*
X20877500Y14605000D02*
X20877500Y12700000D01*
X20877500Y16510000D02*
X20877500Y14605000D01*
D28*
X20877500Y12700000D02*
X20877500Y12545000D01*
D25*
X14666203Y8890000D02*
X14940000Y8890000D01*
X13970000Y9586203D02*
X14666203Y8890000D01*
X12700000Y6650000D02*
X14940000Y8890000D01*
X14940000Y8890000D02*
X15240000Y8890000D01*
X15240000Y8890000D02*
X16827500Y8890000D01*
X13970000Y10613652D02*
X13970000Y9586203D01*
D28*
G04 #@! TO.N,Net-(C10-Pad2)*
X14605000Y10613652D02*
X14605000Y12382500D01*
X14605000Y12382500D02*
X14160500Y12827000D01*
X7722020Y11522254D02*
X7722020Y11466382D01*
X6058000Y14287500D02*
X5903500Y14287500D01*
X7400118Y11144480D02*
X6319882Y11144480D01*
X7722020Y11466382D02*
X7400118Y11144480D01*
X5903500Y14287500D02*
X3935000Y12319000D01*
X5997980Y14227480D02*
X6058000Y14287500D01*
X9026766Y12827000D02*
X10033000Y12827000D01*
X14160500Y12827000D02*
X10033000Y12827000D01*
X9026766Y12827000D02*
X7722020Y11522254D01*
X5997980Y11466382D02*
X5997980Y14227480D01*
X10033000Y12827000D02*
X9017000Y12827000D01*
X6319882Y11144480D02*
X5997980Y11466382D01*
G04 #@! TO.N,Net-(C10-Pad1)*
X4483000Y14533980D02*
X5070010Y15120990D01*
X5070010Y15120990D02*
X5109520Y15081480D01*
X10307989Y13822011D02*
X10942989Y13187011D01*
X4483000Y14287500D02*
X4483000Y14533980D01*
X10942989Y13187011D02*
X14309621Y13187011D01*
D29*
X3935000Y16256000D02*
X5070010Y15120990D01*
D28*
X9664822Y15081480D02*
X10307989Y14438313D01*
X10307989Y14438313D02*
X10307989Y13822011D01*
X15240000Y12256632D02*
X15240000Y10613652D01*
X5109520Y15081480D02*
X9664822Y15081480D01*
X14309621Y13187011D02*
X15240000Y12256632D01*
G04 #@! TO.N,Net-(C20-Pad2)*
X10795000Y10613652D02*
X10214348Y10033000D01*
X4729750Y9174750D02*
X4749730Y9174750D01*
X7345378Y8740240D02*
X5184240Y8740240D01*
X8582266Y9977128D02*
X7345378Y8740240D01*
X3935000Y9969500D02*
X4729750Y9174750D01*
X8582266Y10033000D02*
X8582266Y9977128D01*
X4292500Y9612000D02*
X3935000Y9969500D01*
X10214348Y10033000D02*
X8582266Y10033000D01*
X5184240Y8740240D02*
X4483000Y8039000D01*
X4749730Y9174750D02*
X5184240Y8740240D01*
X4483000Y8039000D02*
X4483000Y8001000D01*
G04 #@! TO.N,Net-(C20-Pad1)*
X10307011Y8402011D02*
X7740489Y5835489D01*
X11430000Y9875800D02*
X11430000Y10613652D01*
X7740489Y5198351D02*
X7400118Y4857980D01*
X5903500Y8001000D02*
X3935000Y6032500D01*
X7400118Y4857980D02*
X6318020Y4857980D01*
X11180401Y9626201D02*
X11430000Y9875800D01*
X10307011Y9157505D02*
X10775707Y9626201D01*
X10307011Y8402011D02*
X10307011Y9157505D01*
X5997980Y7940980D02*
X6058000Y8001000D01*
X6318020Y4857980D02*
X5997980Y5178020D01*
X10775707Y9626201D02*
X11180401Y9626201D01*
X6058000Y8001000D02*
X5903500Y8001000D01*
X5997980Y5178020D02*
X5997980Y7940980D01*
X7740489Y5835489D02*
X7740489Y5198351D01*
G04 #@! TO.N,Net-(J3-Pad1)*
X6860000Y16256000D02*
X8953500Y16256000D01*
X8953500Y16256000D02*
X9207500Y16510000D01*
G04 #@! TO.N,Net-(J3-Pad2)*
X6860000Y12319000D02*
X7556500Y12319000D01*
X7556500Y12319000D02*
X9207500Y13970000D01*
G04 #@! TO.N,Net-(J3-Pad3)*
X7747000Y9969500D02*
X6860000Y9969500D01*
X9207500Y11430000D02*
X7747000Y9969500D01*
G04 #@! TO.N,Net-(J3-Pad4)*
X9207500Y8380000D02*
X9207500Y8890000D01*
X6860000Y6032500D02*
X9207500Y8380000D01*
G04 #@! TO.N,/COUT1*
X19127500Y16510000D02*
X16827500Y16510000D01*
X13335000Y16056348D02*
X13335000Y15128899D01*
X16827500Y16107586D02*
X16827500Y16510000D01*
X13335000Y15128899D02*
X13935012Y14528887D01*
X15248802Y14528888D02*
X16827500Y16107586D01*
X13935012Y14528887D02*
X15248802Y14528888D01*
D27*
X16827500Y16234996D02*
X16827500Y16510000D01*
D28*
G04 #@! TO.N,/COUT2*
X13741866Y14087033D02*
X16710467Y14087033D01*
X12700000Y16056348D02*
X12700000Y15128899D01*
X16710467Y14087033D02*
X16827500Y13970000D01*
X12700000Y15128899D02*
X13741866Y14087033D01*
X19127500Y14605000D02*
X17462500Y14605000D01*
X17462500Y14605000D02*
X16827500Y13970000D01*
D25*
G04 #@! TO.N,+12V*
X10160000Y5715000D02*
X8890000Y4445000D01*
X11127500Y8509000D02*
X11127500Y7617500D01*
X10160000Y6650000D02*
X10160000Y5715000D01*
X11127500Y7617500D02*
X10160000Y6650000D01*
G04 #@! TD*
G04 #@! TA.AperFunction,Conductor*
G04 #@! TO.N,GND*
G36*
X5307512Y6440297D02*
G01*
X5364348Y6397750D01*
X5389159Y6331230D01*
X5389480Y6322241D01*
X5389480Y5226156D01*
X5388402Y5209713D01*
X5384230Y5178020D01*
X5389480Y5138140D01*
X5389480Y5138135D01*
X5402465Y5039501D01*
X5405142Y5019169D01*
X5466456Y4871144D01*
X5471483Y4864593D01*
X5471484Y4864591D01*
X5539500Y4775951D01*
X5539506Y4775945D01*
X5563993Y4744033D01*
X5586800Y4726532D01*
X5589357Y4724570D01*
X5601747Y4713704D01*
X5853701Y4461751D01*
X5864569Y4449359D01*
X5884033Y4423993D01*
X5890579Y4418970D01*
X5890582Y4418967D01*
X5915947Y4399504D01*
X5915949Y4399503D01*
X5989222Y4343278D01*
X6011144Y4326456D01*
X6018770Y4323297D01*
X6018772Y4323296D01*
X6085156Y4295799D01*
X6159169Y4265142D01*
X6167356Y4264064D01*
X6167357Y4264064D01*
X6178562Y4262589D01*
X6209758Y4258482D01*
X6278135Y4249480D01*
X6278138Y4249480D01*
X6278146Y4249479D01*
X6309831Y4245308D01*
X6318020Y4244230D01*
X6349713Y4248402D01*
X6366156Y4249480D01*
X7351982Y4249480D01*
X7368425Y4248402D01*
X7400118Y4244230D01*
X7406369Y4245053D01*
X7473621Y4225306D01*
X7520114Y4171650D01*
X7531500Y4119308D01*
X7531500Y3546866D01*
X7538255Y3484684D01*
X7589385Y3348295D01*
X7638480Y3282788D01*
X7663379Y3249565D01*
X7688227Y3183059D01*
X7673174Y3113676D01*
X7623000Y3063446D01*
X7562553Y3048000D01*
X3859328Y3048000D01*
X3839943Y3049500D01*
X3825142Y3051805D01*
X3825139Y3051805D01*
X3816270Y3053186D01*
X3805272Y3051748D01*
X3776589Y3051291D01*
X3673693Y3061425D01*
X3649469Y3066244D01*
X3530267Y3102404D01*
X3507447Y3111856D01*
X3397600Y3170570D01*
X3377062Y3184293D01*
X3280777Y3263312D01*
X3263312Y3280777D01*
X3184293Y3377062D01*
X3170570Y3397600D01*
X3111856Y3507447D01*
X3102404Y3530267D01*
X3066244Y3649469D01*
X3061425Y3673695D01*
X3055091Y3738006D01*
X3051956Y3769837D01*
X3052408Y3785876D01*
X3051695Y3785885D01*
X3051805Y3794858D01*
X3053186Y3803730D01*
X3051737Y3814816D01*
X3051559Y3816177D01*
X3304391Y3816177D01*
X3305555Y3807275D01*
X3305555Y3807272D01*
X3309568Y3776588D01*
X3322980Y3674021D01*
X3380720Y3542797D01*
X3386497Y3535924D01*
X3386498Y3535923D01*
X3467190Y3439928D01*
X3472970Y3433052D01*
X3592313Y3353610D01*
X3729157Y3310858D01*
X3738129Y3310694D01*
X3738132Y3310693D01*
X3803463Y3309496D01*
X3872499Y3308230D01*
X3881533Y3310693D01*
X4002158Y3343579D01*
X4002160Y3343580D01*
X4010817Y3345940D01*
X4132991Y3420955D01*
X4229200Y3527246D01*
X4291710Y3656267D01*
X4315496Y3797646D01*
X4315647Y3810000D01*
X4297238Y3938547D01*
X4296596Y3943032D01*
X4296595Y3943035D01*
X4295323Y3951918D01*
X4235984Y4082428D01*
X4189963Y4135838D01*
X4148260Y4184237D01*
X4148257Y4184240D01*
X4142400Y4191037D01*
X4022095Y4269015D01*
X3884739Y4310093D01*
X3875763Y4310148D01*
X3875762Y4310148D01*
X3815555Y4310516D01*
X3741376Y4310969D01*
X3603529Y4271572D01*
X3482280Y4195070D01*
X3387377Y4087612D01*
X3326447Y3957837D01*
X3324142Y3943032D01*
X3305787Y3825142D01*
X3304391Y3816177D01*
X3051559Y3816177D01*
X3049064Y3835251D01*
X3048000Y3851589D01*
X3048000Y4644891D01*
X3068002Y4713012D01*
X3121658Y4759505D01*
X3191932Y4769609D01*
X3240116Y4752151D01*
X3293532Y4719225D01*
X3299762Y4715385D01*
X3344850Y4700430D01*
X3461111Y4661868D01*
X3461113Y4661868D01*
X3467639Y4659703D01*
X3474475Y4659003D01*
X3474478Y4659002D01*
X3517531Y4654591D01*
X3572100Y4649000D01*
X4297900Y4649000D01*
X4301146Y4649337D01*
X4301150Y4649337D01*
X4396808Y4659262D01*
X4396812Y4659263D01*
X4403666Y4659974D01*
X4410202Y4662155D01*
X4410204Y4662155D01*
X4562640Y4713012D01*
X4571446Y4715950D01*
X4721848Y4809022D01*
X4846805Y4934197D01*
X4939615Y5084762D01*
X4995297Y5252639D01*
X4996318Y5262599D01*
X5003303Y5330780D01*
X5006000Y5357100D01*
X5006000Y6190761D01*
X5026002Y6258882D01*
X5042905Y6279856D01*
X5174385Y6411336D01*
X5236697Y6445362D01*
X5307512Y6440297D01*
G37*
G04 #@! TD.AperFunction*
G04 #@! TA.AperFunction,Conductor*
G36*
X15693733Y8211498D02*
G01*
X15728824Y8177772D01*
X15764134Y8127344D01*
X15778890Y8106271D01*
X15801578Y8038997D01*
X15784293Y7970136D01*
X15732523Y7921552D01*
X15675677Y7908000D01*
X15512115Y7908000D01*
X15496876Y7903525D01*
X15495671Y7902135D01*
X15494000Y7894452D01*
X15494000Y6922115D01*
X15498475Y6906876D01*
X15499865Y6905671D01*
X15507548Y6904000D01*
X16479884Y6904000D01*
X16495123Y6908475D01*
X16496328Y6909865D01*
X16497999Y6917548D01*
X16497999Y7444669D01*
X16497629Y7451490D01*
X16497319Y7454350D01*
X16509853Y7524232D01*
X16558177Y7576244D01*
X16633565Y7593469D01*
X16822025Y7576981D01*
X16827500Y7576502D01*
X17055436Y7596444D01*
X17125040Y7582455D01*
X17155512Y7560018D01*
X17181060Y7534470D01*
X17186914Y7528205D01*
X17224949Y7484605D01*
X17272067Y7451490D01*
X17277229Y7447862D01*
X17282524Y7443929D01*
X17332792Y7404514D01*
X17339708Y7401391D01*
X17341994Y7400007D01*
X17356675Y7391633D01*
X17359035Y7390368D01*
X17365249Y7386000D01*
X17372328Y7383240D01*
X17372330Y7383239D01*
X17424785Y7362788D01*
X17430854Y7360237D01*
X17489083Y7333945D01*
X17496550Y7332561D01*
X17499105Y7331760D01*
X17515358Y7327131D01*
X17517938Y7326468D01*
X17525019Y7323708D01*
X17532550Y7322717D01*
X17532552Y7322716D01*
X17562171Y7318817D01*
X17588371Y7315368D01*
X17594869Y7314338D01*
X17657696Y7302694D01*
X17665276Y7303131D01*
X17665277Y7303131D01*
X17719902Y7306281D01*
X17727156Y7306490D01*
X19973578Y7306490D01*
X19982148Y7306198D01*
X20032266Y7302781D01*
X20032270Y7302781D01*
X20039842Y7302265D01*
X20047319Y7303570D01*
X20047320Y7303570D01*
X20073798Y7308191D01*
X20102793Y7313252D01*
X20109311Y7314213D01*
X20172732Y7321888D01*
X20179833Y7324571D01*
X20182442Y7325212D01*
X20198752Y7329675D01*
X20201288Y7330440D01*
X20208774Y7331747D01*
X20267290Y7357434D01*
X20273394Y7359925D01*
X20326038Y7379817D01*
X20326039Y7379818D01*
X20333146Y7382503D01*
X20339409Y7386807D01*
X20341775Y7388044D01*
X20356587Y7396289D01*
X20358841Y7397622D01*
X20365795Y7400675D01*
X20416492Y7439577D01*
X20421822Y7443449D01*
X20468210Y7475329D01*
X20468215Y7475334D01*
X20474471Y7479633D01*
X20488915Y7495844D01*
X20515925Y7526160D01*
X20520906Y7531436D01*
X20859065Y7869595D01*
X20921377Y7903621D01*
X20948160Y7906500D01*
X21057072Y7906500D01*
X21060318Y7906837D01*
X21060322Y7906837D01*
X21094103Y7910342D01*
X21158482Y7917022D01*
X21319349Y7970692D01*
X21463555Y8059929D01*
X21501828Y8098268D01*
X21564109Y8132347D01*
X21634929Y8127344D01*
X21691802Y8084847D01*
X21716671Y8018349D01*
X21717000Y8009250D01*
X21717000Y3859328D01*
X21715500Y3839943D01*
X21714012Y3830384D01*
X21711814Y3816270D01*
X21713252Y3805272D01*
X21713709Y3776589D01*
X21709957Y3738489D01*
X21703575Y3673695D01*
X21698756Y3649469D01*
X21662596Y3530267D01*
X21653144Y3507447D01*
X21594430Y3397600D01*
X21580707Y3377062D01*
X21501688Y3280777D01*
X21484223Y3263312D01*
X21387938Y3184293D01*
X21367400Y3170570D01*
X21257553Y3111856D01*
X21234733Y3102404D01*
X21115531Y3066244D01*
X21091307Y3061425D01*
X20995163Y3051956D01*
X20979124Y3052408D01*
X20979115Y3051695D01*
X20970142Y3051805D01*
X20961270Y3053186D01*
X20952368Y3052022D01*
X20952365Y3052022D01*
X20929749Y3049064D01*
X20913411Y3048000D01*
X17284632Y3048000D01*
X17216511Y3068002D01*
X17170018Y3121658D01*
X17159914Y3191932D01*
X17189408Y3256512D01*
X17211464Y3276579D01*
X17256068Y3308395D01*
X17389860Y3403827D01*
X17426088Y3439928D01*
X17513711Y3527246D01*
X17548096Y3561511D01*
X17622546Y3665119D01*
X17675435Y3738723D01*
X17678453Y3742923D01*
X17691995Y3770322D01*
X17775136Y3938547D01*
X17775137Y3938549D01*
X17777430Y3943189D01*
X17834681Y4131624D01*
X17840865Y4151977D01*
X17840865Y4151979D01*
X17842370Y4156931D01*
X17871529Y4378410D01*
X17871611Y4381760D01*
X17873074Y4441635D01*
X17873074Y4441639D01*
X17873156Y4445000D01*
X17854852Y4667639D01*
X17800431Y4884298D01*
X17715337Y5080000D01*
X18071526Y5080000D01*
X18091391Y4827597D01*
X18092545Y4822790D01*
X18092546Y4822784D01*
X18118900Y4713012D01*
X18150495Y4581409D01*
X18152388Y4576838D01*
X18152389Y4576836D01*
X18234580Y4378410D01*
X18247384Y4347498D01*
X18379672Y4131624D01*
X18544102Y3939102D01*
X18736624Y3774672D01*
X18952498Y3642384D01*
X18957068Y3640491D01*
X18957072Y3640489D01*
X19181288Y3547616D01*
X19186409Y3545495D01*
X19226280Y3535923D01*
X19427784Y3487546D01*
X19427790Y3487545D01*
X19432597Y3486391D01*
X19532416Y3478535D01*
X19619345Y3471693D01*
X19619352Y3471693D01*
X19621801Y3471500D01*
X19748199Y3471500D01*
X19750648Y3471693D01*
X19750655Y3471693D01*
X19837584Y3478535D01*
X19937403Y3486391D01*
X19942210Y3487545D01*
X19942216Y3487546D01*
X20143720Y3535923D01*
X20183591Y3545495D01*
X20188712Y3547616D01*
X20412928Y3640489D01*
X20412932Y3640491D01*
X20417502Y3642384D01*
X20633376Y3774672D01*
X20825898Y3939102D01*
X20990328Y4131624D01*
X21122616Y4347498D01*
X21135421Y4378410D01*
X21217611Y4576836D01*
X21217612Y4576838D01*
X21219505Y4581409D01*
X21251100Y4713012D01*
X21277454Y4822784D01*
X21277455Y4822790D01*
X21278609Y4827597D01*
X21298474Y5080000D01*
X21278609Y5332403D01*
X21273822Y5352346D01*
X21220660Y5573779D01*
X21219505Y5578591D01*
X21217611Y5583164D01*
X21124511Y5807928D01*
X21124509Y5807932D01*
X21122616Y5812502D01*
X20990328Y6028376D01*
X20825898Y6220898D01*
X20633376Y6385328D01*
X20417502Y6517616D01*
X20412932Y6519509D01*
X20412928Y6519511D01*
X20188164Y6612611D01*
X20188162Y6612612D01*
X20183591Y6614505D01*
X20098968Y6634821D01*
X19942216Y6672454D01*
X19942210Y6672455D01*
X19937403Y6673609D01*
X19837584Y6681465D01*
X19750655Y6688307D01*
X19750648Y6688307D01*
X19748199Y6688500D01*
X19621801Y6688500D01*
X19619352Y6688307D01*
X19619345Y6688307D01*
X19532416Y6681465D01*
X19432597Y6673609D01*
X19427790Y6672455D01*
X19427784Y6672454D01*
X19271032Y6634821D01*
X19186409Y6614505D01*
X19181838Y6612612D01*
X19181836Y6612611D01*
X18957072Y6519511D01*
X18957068Y6519509D01*
X18952498Y6517616D01*
X18736624Y6385328D01*
X18544102Y6220898D01*
X18379672Y6028376D01*
X18247384Y5812502D01*
X18245491Y5807932D01*
X18245489Y5807928D01*
X18152389Y5583164D01*
X18150495Y5578591D01*
X18149340Y5573779D01*
X18096179Y5352346D01*
X18091391Y5332403D01*
X18071526Y5080000D01*
X17715337Y5080000D01*
X17711354Y5089160D01*
X17633367Y5209710D01*
X17592822Y5272383D01*
X17592820Y5272386D01*
X17590014Y5276723D01*
X17439670Y5441949D01*
X17435619Y5445148D01*
X17435615Y5445152D01*
X17268414Y5577200D01*
X17268410Y5577202D01*
X17264359Y5580402D01*
X17068789Y5688362D01*
X17063920Y5690086D01*
X17063916Y5690088D01*
X16863087Y5761205D01*
X16863083Y5761206D01*
X16858212Y5762931D01*
X16853119Y5763838D01*
X16853116Y5763839D01*
X16781361Y5776620D01*
X16638284Y5802106D01*
X16622462Y5802299D01*
X16554592Y5823131D01*
X16508757Y5877349D01*
X16498000Y5928290D01*
X16498000Y6377885D01*
X16493525Y6393124D01*
X16492135Y6394329D01*
X16484452Y6396000D01*
X15512115Y6396000D01*
X15496876Y6391525D01*
X15495671Y6390135D01*
X15494000Y6382452D01*
X15494000Y5398771D01*
X15473998Y5330650D01*
X15459093Y5311719D01*
X15450629Y5302862D01*
X15343201Y5145379D01*
X15288293Y5100379D01*
X15217768Y5092208D01*
X15154021Y5123462D01*
X15133324Y5147946D01*
X15052822Y5272383D01*
X15052820Y5272386D01*
X15050014Y5276723D01*
X15046538Y5280543D01*
X15046533Y5280550D01*
X15018807Y5311020D01*
X14987755Y5374866D01*
X14986000Y5395820D01*
X14986000Y7889882D01*
X14980991Y7906942D01*
X14980992Y7977939D01*
X15012793Y8031534D01*
X15175854Y8194595D01*
X15238166Y8228621D01*
X15264949Y8231500D01*
X15625612Y8231500D01*
X15693733Y8211498D01*
G37*
G04 #@! TD.AperFunction*
G04 #@! TA.AperFunction,Conductor*
G36*
X11498959Y6202973D02*
G01*
X11544195Y6150769D01*
X11603618Y6023334D01*
X11603621Y6023329D01*
X11605944Y6018347D01*
X11680190Y5912313D01*
X11702877Y5845041D01*
X11697261Y5802527D01*
X11684000Y5760011D01*
X11684000Y4317000D01*
X11663998Y4248879D01*
X11610342Y4202386D01*
X11558000Y4191000D01*
X11302000Y4191000D01*
X11233879Y4211002D01*
X11187386Y4264658D01*
X11176000Y4317000D01*
X11176000Y5761898D01*
X11163079Y5805903D01*
X11163079Y5876900D01*
X11180762Y5913671D01*
X11250896Y6013833D01*
X11250899Y6013839D01*
X11254056Y6018347D01*
X11256379Y6023329D01*
X11256382Y6023334D01*
X11315805Y6150769D01*
X11362722Y6204054D01*
X11430999Y6223515D01*
X11498959Y6202973D01*
G37*
G04 #@! TD.AperFunction*
G04 #@! TA.AperFunction,Conductor*
G36*
X18285402Y13847931D02*
G01*
X18335103Y13817396D01*
X18341567Y13810943D01*
X18374497Y13778071D01*
X18380727Y13774231D01*
X18380728Y13774230D01*
X18495976Y13703190D01*
X18543469Y13650418D01*
X18554893Y13580346D01*
X18526619Y13515222D01*
X18519033Y13506913D01*
X18427206Y13414925D01*
X18418190Y13403509D01*
X18336947Y13271709D01*
X18330803Y13258532D01*
X18281921Y13111157D01*
X18279055Y13097790D01*
X18269828Y13007730D01*
X18269500Y13001315D01*
X18269500Y12972115D01*
X18273975Y12956876D01*
X18275365Y12955671D01*
X18283048Y12954000D01*
X19343000Y12954000D01*
X19411121Y12933998D01*
X19457614Y12880342D01*
X19469000Y12828000D01*
X19469000Y8849490D01*
X19448998Y8781369D01*
X19395342Y8734876D01*
X19343000Y8723490D01*
X19087000Y8723490D01*
X19018879Y8743492D01*
X18972386Y8797148D01*
X18961000Y8849490D01*
X18961000Y10522885D01*
X18956525Y10538124D01*
X18955135Y10539329D01*
X18947452Y10541000D01*
X18287615Y10541000D01*
X18272376Y10536525D01*
X18271171Y10535135D01*
X18269500Y10527452D01*
X18269500Y10493734D01*
X18269837Y10487218D01*
X18279304Y10395979D01*
X18282197Y10382583D01*
X18331330Y10235313D01*
X18337504Y10222134D01*
X18418970Y10090486D01*
X18428006Y10079085D01*
X18537580Y9969702D01*
X18548991Y9960690D01*
X18566818Y9949701D01*
X18614310Y9896927D01*
X18625732Y9826856D01*
X18597457Y9761732D01*
X18567003Y9735297D01*
X18547980Y9723525D01*
X18536585Y9714494D01*
X18427202Y9604920D01*
X18418190Y9593509D01*
X18336947Y9461709D01*
X18330803Y9448531D01*
X18297396Y9347814D01*
X18256965Y9289454D01*
X18191401Y9262217D01*
X18121520Y9274750D01*
X18069508Y9323075D01*
X18061831Y9339265D01*
X18061784Y9339243D01*
X17967349Y9541762D01*
X17967346Y9541767D01*
X17965023Y9546749D01*
X17854241Y9704962D01*
X17836857Y9729789D01*
X17836855Y9729792D01*
X17833698Y9734300D01*
X17671800Y9896198D01*
X17667292Y9899355D01*
X17667289Y9899357D01*
X17563231Y9972219D01*
X17484249Y10027523D01*
X17479267Y10029846D01*
X17479262Y10029849D01*
X17281725Y10121961D01*
X17281724Y10121961D01*
X17276743Y10124284D01*
X17271435Y10125706D01*
X17271433Y10125707D01*
X17060902Y10182119D01*
X17060900Y10182119D01*
X17055587Y10183543D01*
X16827500Y10203498D01*
X16599413Y10183543D01*
X16594100Y10182119D01*
X16594098Y10182119D01*
X16383567Y10125707D01*
X16383565Y10125706D01*
X16378257Y10124284D01*
X16373276Y10121961D01*
X16373275Y10121961D01*
X16175738Y10029849D01*
X16175733Y10029846D01*
X16170751Y10027523D01*
X16124171Y9994907D01*
X16056897Y9972219D01*
X15988037Y9989504D01*
X15939452Y10041273D01*
X15925900Y10098120D01*
X15925900Y11067115D01*
X18269500Y11067115D01*
X18273975Y11051876D01*
X18275365Y11050671D01*
X18283048Y11049000D01*
X18942885Y11049000D01*
X18958124Y11053475D01*
X18959329Y11054865D01*
X18961000Y11062548D01*
X18961000Y12427885D01*
X18956525Y12443124D01*
X18955135Y12444329D01*
X18947452Y12446000D01*
X18287615Y12446000D01*
X18272376Y12441525D01*
X18271171Y12440135D01*
X18269500Y12432452D01*
X18269500Y12398734D01*
X18269837Y12392218D01*
X18279304Y12300979D01*
X18282197Y12287583D01*
X18331330Y12140313D01*
X18337504Y12127134D01*
X18418970Y11995486D01*
X18428006Y11984085D01*
X18537580Y11874702D01*
X18548991Y11865690D01*
X18566818Y11854701D01*
X18614310Y11801927D01*
X18625732Y11731856D01*
X18597457Y11666732D01*
X18567003Y11640297D01*
X18547980Y11628525D01*
X18536585Y11619494D01*
X18427202Y11509920D01*
X18418190Y11498509D01*
X18336947Y11366709D01*
X18330803Y11353532D01*
X18281921Y11206157D01*
X18279055Y11192790D01*
X18269828Y11102730D01*
X18269500Y11096315D01*
X18269500Y11067115D01*
X15925900Y11067115D01*
X15925900Y11389235D01*
X15919145Y11451417D01*
X15868015Y11587806D01*
X15863722Y11593535D01*
X15848500Y11653035D01*
X15848500Y12208488D01*
X15849578Y12224934D01*
X15852673Y12248444D01*
X15853751Y12256632D01*
X15832838Y12415483D01*
X15771524Y12563508D01*
X15698478Y12658703D01*
X15698474Y12658707D01*
X15698471Y12658711D01*
X15679016Y12684066D01*
X15679013Y12684069D01*
X15673987Y12690619D01*
X15664582Y12697836D01*
X15648621Y12710084D01*
X15636230Y12720951D01*
X15093743Y13263438D01*
X15059717Y13325750D01*
X15064782Y13396565D01*
X15107329Y13453401D01*
X15173849Y13478212D01*
X15182838Y13478533D01*
X15532634Y13478533D01*
X15600755Y13458531D01*
X15646828Y13405784D01*
X15689977Y13313251D01*
X15724857Y13263438D01*
X15817316Y13131393D01*
X15821302Y13125700D01*
X15983200Y12963802D01*
X15987708Y12960645D01*
X15987711Y12960643D01*
X16025764Y12933998D01*
X16170751Y12832477D01*
X16175733Y12830154D01*
X16175738Y12830151D01*
X16373275Y12738039D01*
X16378257Y12735716D01*
X16383565Y12734294D01*
X16383567Y12734293D01*
X16594098Y12677881D01*
X16594100Y12677881D01*
X16599413Y12676457D01*
X16827500Y12656502D01*
X17055587Y12676457D01*
X17060900Y12677881D01*
X17060902Y12677881D01*
X17271433Y12734293D01*
X17271435Y12734294D01*
X17276743Y12735716D01*
X17281725Y12738039D01*
X17479262Y12830151D01*
X17479267Y12830154D01*
X17484249Y12832477D01*
X17629236Y12933998D01*
X17667289Y12960643D01*
X17667292Y12960645D01*
X17671800Y12963802D01*
X17833698Y13125700D01*
X17837685Y13131393D01*
X17930143Y13263438D01*
X17965023Y13313251D01*
X17967346Y13318233D01*
X17967349Y13318238D01*
X18059461Y13515775D01*
X18059461Y13515776D01*
X18061784Y13520757D01*
X18063207Y13526067D01*
X18119620Y13736601D01*
X18119621Y13736605D01*
X18121043Y13741913D01*
X18121522Y13747391D01*
X18122000Y13750101D01*
X18153527Y13813714D01*
X18214441Y13850183D01*
X18285402Y13847931D01*
G37*
G04 #@! TD.AperFunction*
G04 #@! TA.AperFunction,Conductor*
G36*
X5307512Y12726797D02*
G01*
X5364348Y12684250D01*
X5389159Y12617730D01*
X5389480Y12608741D01*
X5389480Y11514518D01*
X5388402Y11498075D01*
X5384230Y11466382D01*
X5389480Y11426502D01*
X5389480Y11426497D01*
X5399156Y11353000D01*
X5405142Y11307531D01*
X5466456Y11159506D01*
X5471483Y11152955D01*
X5471484Y11152953D01*
X5539500Y11064313D01*
X5539506Y11064307D01*
X5563993Y11032395D01*
X5570548Y11027365D01*
X5589359Y11012930D01*
X5601750Y11002063D01*
X5762437Y10841376D01*
X5796463Y10779064D01*
X5798686Y10739439D01*
X5789000Y10644900D01*
X5789000Y9474740D01*
X5768998Y9406619D01*
X5715342Y9360126D01*
X5663000Y9348740D01*
X5488479Y9348740D01*
X5420358Y9368742D01*
X5399383Y9385645D01*
X5310289Y9474740D01*
X5214045Y9570984D01*
X5203179Y9583374D01*
X5188744Y9602186D01*
X5188743Y9602187D01*
X5183717Y9608737D01*
X5151805Y9633224D01*
X5151802Y9633227D01*
X5072478Y9694095D01*
X5060087Y9704962D01*
X5042905Y9722144D01*
X5008879Y9784456D01*
X5006000Y9811239D01*
X5006000Y10644900D01*
X4995026Y10750666D01*
X4939050Y10918446D01*
X4846057Y11068720D01*
X4846056Y11068723D01*
X4845978Y11068848D01*
X4845999Y11068861D01*
X4820525Y11131800D01*
X4833696Y11201564D01*
X4844466Y11218354D01*
X4846805Y11220697D01*
X4900331Y11307531D01*
X4935775Y11365032D01*
X4935776Y11365034D01*
X4939615Y11371262D01*
X4995297Y11539139D01*
X5006000Y11643600D01*
X5006000Y12477261D01*
X5026002Y12545382D01*
X5042905Y12566356D01*
X5174385Y12697836D01*
X5236697Y12731862D01*
X5307512Y12726797D01*
G37*
G04 #@! TD.AperFunction*
G04 #@! TA.AperFunction,Conductor*
G36*
X13924381Y12198498D02*
G01*
X13945352Y12181599D01*
X13959592Y12167360D01*
X13993620Y12105049D01*
X13996500Y12078261D01*
X13996500Y11975601D01*
X13976498Y11907480D01*
X13922842Y11860987D01*
X13870500Y11849601D01*
X13744466Y11849601D01*
X13682284Y11842846D01*
X13545895Y11791716D01*
X13429339Y11704362D01*
X13424037Y11697287D01*
X13361783Y11663293D01*
X13290968Y11668358D01*
X13245971Y11697276D01*
X13240661Y11704362D01*
X13124105Y11791716D01*
X12987716Y11842846D01*
X12925534Y11849601D01*
X12474466Y11849601D01*
X12412284Y11842846D01*
X12275895Y11791716D01*
X12159339Y11704362D01*
X12154037Y11697287D01*
X12091783Y11663293D01*
X12020968Y11668358D01*
X11975971Y11697276D01*
X11970661Y11704362D01*
X11854105Y11791716D01*
X11717716Y11842846D01*
X11655534Y11849601D01*
X11204466Y11849601D01*
X11142284Y11842846D01*
X11139176Y11841681D01*
X11085824Y11841681D01*
X11082716Y11842846D01*
X11020534Y11849601D01*
X10569466Y11849601D01*
X10566076Y11849233D01*
X10566062Y11849232D01*
X10550773Y11847571D01*
X10480891Y11860100D01*
X10428876Y11908422D01*
X10422973Y11919584D01*
X10367172Y12039250D01*
X10356511Y12109442D01*
X10385491Y12174255D01*
X10444911Y12213111D01*
X10481367Y12218500D01*
X13856260Y12218500D01*
X13924381Y12198498D01*
G37*
G04 #@! TD.AperFunction*
G04 #@! TA.AperFunction,Conductor*
G36*
X12082241Y14957214D02*
G01*
X12132471Y14907040D01*
X12138326Y14894811D01*
X12168476Y14822023D01*
X12173503Y14815472D01*
X12173504Y14815470D01*
X12241520Y14726830D01*
X12241526Y14726824D01*
X12266013Y14694912D01*
X12272568Y14689882D01*
X12291379Y14675447D01*
X12303770Y14664580D01*
X12957744Y14010606D01*
X12991770Y13948294D01*
X12986705Y13877479D01*
X12944158Y13820643D01*
X12877638Y13795832D01*
X12868649Y13795511D01*
X11247228Y13795511D01*
X11179107Y13815513D01*
X11158133Y13832416D01*
X10953394Y14037155D01*
X10919368Y14099467D01*
X10916489Y14126250D01*
X10916489Y14390177D01*
X10917567Y14406623D01*
X10920661Y14430125D01*
X10921739Y14438313D01*
X10916489Y14478191D01*
X10916489Y14478198D01*
X10900827Y14597163D01*
X10854690Y14708548D01*
X10847101Y14779136D01*
X10878880Y14842623D01*
X10939938Y14878851D01*
X11015328Y14874747D01*
X11134882Y14829928D01*
X11134888Y14829926D01*
X11142284Y14827154D01*
X11204466Y14820399D01*
X11655534Y14820399D01*
X11717716Y14827154D01*
X11854105Y14878284D01*
X11861292Y14883670D01*
X11946352Y14947419D01*
X12012859Y14972267D01*
X12082241Y14957214D01*
G37*
G04 #@! TD.AperFunction*
G04 #@! TA.AperFunction,Conductor*
G36*
X10678670Y15641595D02*
G01*
X10728788Y15591309D01*
X10744100Y15531108D01*
X10744100Y15280765D01*
X10750855Y15218583D01*
X10753627Y15211187D01*
X10753629Y15211181D01*
X10764159Y15183093D01*
X10769342Y15112286D01*
X10735421Y15049917D01*
X10673165Y15015788D01*
X10602341Y15020735D01*
X10557082Y15049769D01*
X10400605Y15206246D01*
X10366579Y15268558D01*
X10371644Y15339373D01*
X10388873Y15370906D01*
X10458115Y15463295D01*
X10473025Y15503067D01*
X10500118Y15575337D01*
X10542759Y15632102D01*
X10609321Y15656802D01*
X10678670Y15641595D01*
G37*
G04 #@! TD.AperFunction*
G04 #@! TA.AperFunction,Conductor*
G36*
X15499412Y16327172D02*
G01*
X15538607Y16264559D01*
X15593216Y16060757D01*
X15595539Y16055776D01*
X15595539Y16055775D01*
X15659891Y15917771D01*
X15670552Y15847579D01*
X15641572Y15782766D01*
X15634791Y15775426D01*
X15505995Y15646630D01*
X15443683Y15612604D01*
X15372868Y15617669D01*
X15316032Y15660216D01*
X15291221Y15726736D01*
X15290900Y15735725D01*
X15290900Y16231948D01*
X15310902Y16300069D01*
X15364558Y16346562D01*
X15434832Y16356666D01*
X15499412Y16327172D01*
G37*
G04 #@! TD.AperFunction*
G04 #@! TA.AperFunction,Conductor*
G36*
X8924473Y21696998D02*
G01*
X8970966Y21643342D01*
X8981070Y21573068D01*
X8951576Y21508488D01*
X8909601Y21476805D01*
X8873242Y21459851D01*
X8873236Y21459847D01*
X8868251Y21457523D01*
X8768874Y21387938D01*
X8685211Y21329357D01*
X8685208Y21329355D01*
X8680700Y21326198D01*
X8518802Y21164300D01*
X8515645Y21159792D01*
X8515643Y21159789D01*
X8475765Y21102837D01*
X8387477Y20976749D01*
X8385154Y20971767D01*
X8385151Y20971762D01*
X8305649Y20801267D01*
X8290716Y20769243D01*
X8289294Y20763935D01*
X8289293Y20763933D01*
X8234986Y20561259D01*
X8231457Y20548087D01*
X8211502Y20320000D01*
X8231457Y20091913D01*
X8232881Y20086600D01*
X8232881Y20086598D01*
X8284408Y19894300D01*
X8290716Y19870757D01*
X8293039Y19865776D01*
X8293039Y19865775D01*
X8385151Y19668238D01*
X8385154Y19668233D01*
X8387477Y19663251D01*
X8436016Y19593930D01*
X8498829Y19504225D01*
X8518802Y19475700D01*
X8680700Y19313802D01*
X8685208Y19310645D01*
X8685211Y19310643D01*
X8731706Y19278087D01*
X8868251Y19182477D01*
X8873233Y19180154D01*
X8873238Y19180151D01*
X9070775Y19088039D01*
X9075757Y19085716D01*
X9081065Y19084294D01*
X9081067Y19084293D01*
X9291598Y19027881D01*
X9291600Y19027881D01*
X9296913Y19026457D01*
X9525000Y19006502D01*
X9753087Y19026457D01*
X9758400Y19027881D01*
X9758402Y19027881D01*
X9840951Y19050000D01*
X11386502Y19050000D01*
X11406457Y18821913D01*
X11407881Y18816600D01*
X11407881Y18816598D01*
X11430318Y18732865D01*
X11465716Y18600757D01*
X11468039Y18595776D01*
X11468039Y18595775D01*
X11560151Y18398238D01*
X11560154Y18398233D01*
X11562477Y18393251D01*
X11693802Y18205700D01*
X11855700Y18043802D01*
X11860208Y18040645D01*
X11860211Y18040643D01*
X11938389Y17985902D01*
X12043251Y17912477D01*
X12048233Y17910154D01*
X12048238Y17910151D01*
X12245578Y17818131D01*
X12250757Y17815716D01*
X12256065Y17814294D01*
X12256067Y17814293D01*
X12466598Y17757881D01*
X12466600Y17757881D01*
X12471913Y17756457D01*
X12700000Y17736502D01*
X12928087Y17756457D01*
X12933400Y17757881D01*
X12933402Y17757881D01*
X13143933Y17814293D01*
X13143935Y17814294D01*
X13149243Y17815716D01*
X13154422Y17818131D01*
X13351762Y17910151D01*
X13351767Y17910154D01*
X13356749Y17912477D01*
X13461611Y17985902D01*
X13539789Y18040643D01*
X13539792Y18040645D01*
X13544300Y18043802D01*
X13706198Y18205700D01*
X13837523Y18393251D01*
X13839846Y18398233D01*
X13839849Y18398238D01*
X13931961Y18595775D01*
X13931961Y18595776D01*
X13934284Y18600757D01*
X13969683Y18732865D01*
X13992119Y18816598D01*
X13992119Y18816600D01*
X13993543Y18821913D01*
X14013498Y19050000D01*
X13993543Y19278087D01*
X13941637Y19471803D01*
X13935707Y19493933D01*
X13935706Y19493935D01*
X13934284Y19499243D01*
X13890131Y19593930D01*
X13839849Y19701762D01*
X13839846Y19701767D01*
X13837523Y19706749D01*
X13764098Y19811611D01*
X13709357Y19889789D01*
X13709355Y19889792D01*
X13706198Y19894300D01*
X13544300Y20056198D01*
X13539792Y20059355D01*
X13539789Y20059357D01*
X13461611Y20114098D01*
X13356749Y20187523D01*
X13351767Y20189846D01*
X13351762Y20189849D01*
X13154225Y20281961D01*
X13154224Y20281961D01*
X13149243Y20284284D01*
X13143935Y20285706D01*
X13143933Y20285707D01*
X12933402Y20342119D01*
X12933400Y20342119D01*
X12928087Y20343543D01*
X12700000Y20363498D01*
X12471913Y20343543D01*
X12466600Y20342119D01*
X12466598Y20342119D01*
X12256067Y20285707D01*
X12256065Y20285706D01*
X12250757Y20284284D01*
X12245776Y20281961D01*
X12245775Y20281961D01*
X12048238Y20189849D01*
X12048233Y20189846D01*
X12043251Y20187523D01*
X11938389Y20114098D01*
X11860211Y20059357D01*
X11860208Y20059355D01*
X11855700Y20056198D01*
X11693802Y19894300D01*
X11690645Y19889792D01*
X11690643Y19889789D01*
X11635902Y19811611D01*
X11562477Y19706749D01*
X11560154Y19701767D01*
X11560151Y19701762D01*
X11509869Y19593930D01*
X11465716Y19499243D01*
X11464294Y19493935D01*
X11464293Y19493933D01*
X11458363Y19471803D01*
X11406457Y19278087D01*
X11386502Y19050000D01*
X9840951Y19050000D01*
X9968933Y19084293D01*
X9968935Y19084294D01*
X9974243Y19085716D01*
X9979225Y19088039D01*
X10176762Y19180151D01*
X10176767Y19180154D01*
X10181749Y19182477D01*
X10318294Y19278087D01*
X10364789Y19310643D01*
X10364792Y19310645D01*
X10369300Y19313802D01*
X10531198Y19475700D01*
X10551172Y19504225D01*
X10613984Y19593930D01*
X10662523Y19663251D01*
X10664846Y19668233D01*
X10664849Y19668238D01*
X10756961Y19865775D01*
X10756961Y19865776D01*
X10759284Y19870757D01*
X10765593Y19894300D01*
X10817119Y20086598D01*
X10817119Y20086600D01*
X10818543Y20091913D01*
X10838498Y20320000D01*
X10818543Y20548087D01*
X10815014Y20561259D01*
X10760707Y20763933D01*
X10760706Y20763935D01*
X10759284Y20769243D01*
X10744351Y20801267D01*
X10664849Y20971762D01*
X10664846Y20971767D01*
X10662523Y20976749D01*
X10574235Y21102837D01*
X10534357Y21159789D01*
X10534355Y21159792D01*
X10531198Y21164300D01*
X10369300Y21326198D01*
X10364792Y21329355D01*
X10364789Y21329357D01*
X10281126Y21387938D01*
X10181749Y21457523D01*
X10176764Y21459847D01*
X10176758Y21459851D01*
X10140399Y21476805D01*
X10087113Y21523722D01*
X10067652Y21591999D01*
X10088193Y21659959D01*
X10142216Y21706025D01*
X10193648Y21717000D01*
X16476352Y21717000D01*
X16544473Y21696998D01*
X16590966Y21643342D01*
X16601070Y21573068D01*
X16571576Y21508488D01*
X16529601Y21476805D01*
X16493242Y21459851D01*
X16493236Y21459847D01*
X16488251Y21457523D01*
X16388874Y21387938D01*
X16305211Y21329357D01*
X16305208Y21329355D01*
X16300700Y21326198D01*
X16138802Y21164300D01*
X16135645Y21159792D01*
X16135643Y21159789D01*
X16095765Y21102837D01*
X16007477Y20976749D01*
X16005154Y20971767D01*
X16005151Y20971762D01*
X15925649Y20801267D01*
X15910716Y20769243D01*
X15909294Y20763935D01*
X15909293Y20763933D01*
X15854986Y20561259D01*
X15851457Y20548087D01*
X15831502Y20320000D01*
X15851457Y20091913D01*
X15852881Y20086600D01*
X15852881Y20086598D01*
X15904408Y19894300D01*
X15910716Y19870757D01*
X15913039Y19865776D01*
X15913039Y19865775D01*
X16005151Y19668238D01*
X16005154Y19668233D01*
X16007477Y19663251D01*
X16056016Y19593930D01*
X16118829Y19504225D01*
X16138802Y19475700D01*
X16300700Y19313802D01*
X16305208Y19310645D01*
X16305211Y19310643D01*
X16351706Y19278087D01*
X16488251Y19182477D01*
X16493233Y19180154D01*
X16493238Y19180151D01*
X16690775Y19088039D01*
X16695757Y19085716D01*
X16701065Y19084294D01*
X16701067Y19084293D01*
X16911598Y19027881D01*
X16911600Y19027881D01*
X16916913Y19026457D01*
X17145000Y19006502D01*
X17373087Y19026457D01*
X17378400Y19027881D01*
X17378402Y19027881D01*
X17588933Y19084293D01*
X17588935Y19084294D01*
X17594243Y19085716D01*
X17599225Y19088039D01*
X17796762Y19180151D01*
X17796767Y19180154D01*
X17801749Y19182477D01*
X17938294Y19278087D01*
X17984789Y19310643D01*
X17984792Y19310645D01*
X17989300Y19313802D01*
X18151198Y19475700D01*
X18171172Y19504225D01*
X18233984Y19593930D01*
X18282523Y19663251D01*
X18284846Y19668233D01*
X18284849Y19668238D01*
X18376961Y19865775D01*
X18376961Y19865776D01*
X18379284Y19870757D01*
X18385593Y19894300D01*
X18437119Y20086598D01*
X18437119Y20086600D01*
X18438543Y20091913D01*
X18458498Y20320000D01*
X18438543Y20548087D01*
X18435014Y20561259D01*
X18380707Y20763933D01*
X18380706Y20763935D01*
X18379284Y20769243D01*
X18364351Y20801267D01*
X18284849Y20971762D01*
X18284846Y20971767D01*
X18282523Y20976749D01*
X18194235Y21102837D01*
X18154357Y21159789D01*
X18154355Y21159792D01*
X18151198Y21164300D01*
X17989300Y21326198D01*
X17984792Y21329355D01*
X17984789Y21329357D01*
X17901126Y21387938D01*
X17801749Y21457523D01*
X17796764Y21459847D01*
X17796758Y21459851D01*
X17760399Y21476805D01*
X17707113Y21523722D01*
X17687652Y21591999D01*
X17708193Y21659959D01*
X17762216Y21706025D01*
X17813648Y21717000D01*
X20905672Y21717000D01*
X20925057Y21715500D01*
X20939858Y21713195D01*
X20939861Y21713195D01*
X20948730Y21711814D01*
X20959728Y21713252D01*
X20988411Y21713709D01*
X21091307Y21703575D01*
X21115531Y21698756D01*
X21234733Y21662596D01*
X21257553Y21653144D01*
X21367400Y21594430D01*
X21387938Y21580707D01*
X21484223Y21501688D01*
X21501688Y21484223D01*
X21580707Y21387938D01*
X21594430Y21367400D01*
X21653144Y21257553D01*
X21662596Y21234733D01*
X21698756Y21115531D01*
X21703575Y21091305D01*
X21713044Y20995166D01*
X21712592Y20979124D01*
X21713305Y20979115D01*
X21713195Y20970142D01*
X21711814Y20961270D01*
X21712978Y20952368D01*
X21712978Y20952365D01*
X21715936Y20929749D01*
X21717000Y20913411D01*
X21717000Y19718648D01*
X21696998Y19650527D01*
X21643342Y19604034D01*
X21573068Y19593930D01*
X21508488Y19623424D01*
X21476805Y19665399D01*
X21459851Y19701758D01*
X21459847Y19701764D01*
X21457523Y19706749D01*
X21384098Y19811611D01*
X21329357Y19889789D01*
X21329355Y19889792D01*
X21326198Y19894300D01*
X21164300Y20056198D01*
X21159792Y20059355D01*
X21159789Y20059357D01*
X21081611Y20114098D01*
X20976749Y20187523D01*
X20971761Y20189849D01*
X20971758Y20189851D01*
X20920359Y20213818D01*
X20867074Y20260734D01*
X20847612Y20329012D01*
X20868153Y20396972D01*
X20922176Y20443038D01*
X20975917Y20453992D01*
X20991261Y20453711D01*
X21017499Y20453230D01*
X21026163Y20455592D01*
X21147158Y20488579D01*
X21147160Y20488580D01*
X21155817Y20490940D01*
X21277991Y20565955D01*
X21374200Y20672246D01*
X21436710Y20801267D01*
X21460496Y20942646D01*
X21460647Y20955000D01*
X21440323Y21096918D01*
X21380984Y21227428D01*
X21337879Y21277454D01*
X21293260Y21329237D01*
X21293257Y21329240D01*
X21287400Y21336037D01*
X21167095Y21414015D01*
X21029739Y21455093D01*
X21020763Y21455148D01*
X21020762Y21455148D01*
X20960555Y21455516D01*
X20886376Y21455969D01*
X20748529Y21416572D01*
X20627280Y21340070D01*
X20621338Y21333342D01*
X20621337Y21333341D01*
X20617713Y21329237D01*
X20532377Y21232612D01*
X20471447Y21102837D01*
X20470066Y21093965D01*
X20451816Y20976749D01*
X20449391Y20961177D01*
X20450555Y20952275D01*
X20450555Y20952272D01*
X20455374Y20915423D01*
X20467980Y20819021D01*
X20525720Y20687797D01*
X20531497Y20680924D01*
X20531498Y20680923D01*
X20538792Y20672246D01*
X20617970Y20578052D01*
X20625447Y20573075D01*
X20632135Y20567095D01*
X20630808Y20565611D01*
X20669035Y20520030D01*
X20678004Y20449603D01*
X20647474Y20385506D01*
X20587136Y20348090D01*
X20542611Y20344022D01*
X20320000Y20363498D01*
X20091913Y20343543D01*
X20086600Y20342119D01*
X20086598Y20342119D01*
X19876067Y20285707D01*
X19876065Y20285706D01*
X19870757Y20284284D01*
X19865776Y20281961D01*
X19865775Y20281961D01*
X19668238Y20189849D01*
X19668233Y20189846D01*
X19663251Y20187523D01*
X19558389Y20114098D01*
X19480211Y20059357D01*
X19480208Y20059355D01*
X19475700Y20056198D01*
X19313802Y19894300D01*
X19310645Y19889792D01*
X19310643Y19889789D01*
X19255902Y19811611D01*
X19182477Y19706749D01*
X19180154Y19701767D01*
X19180151Y19701762D01*
X19129869Y19593930D01*
X19085716Y19499243D01*
X19084294Y19493935D01*
X19084293Y19493933D01*
X19078363Y19471803D01*
X19026457Y19278087D01*
X19006502Y19050000D01*
X19026457Y18821913D01*
X19027881Y18816600D01*
X19027881Y18816598D01*
X19050318Y18732865D01*
X19085716Y18600757D01*
X19088039Y18595776D01*
X19088039Y18595775D01*
X19180151Y18398238D01*
X19180154Y18398233D01*
X19182477Y18393251D01*
X19313802Y18205700D01*
X19475700Y18043802D01*
X19480208Y18040645D01*
X19480211Y18040643D01*
X19558389Y17985902D01*
X19663251Y17912477D01*
X19668233Y17910154D01*
X19668238Y17910151D01*
X19865578Y17818131D01*
X19870757Y17815716D01*
X19876065Y17814294D01*
X19876067Y17814293D01*
X20086598Y17757881D01*
X20086600Y17757881D01*
X20091913Y17756457D01*
X20320000Y17736502D01*
X20548087Y17756457D01*
X20553400Y17757881D01*
X20553402Y17757881D01*
X20763933Y17814293D01*
X20763935Y17814294D01*
X20769243Y17815716D01*
X20774422Y17818131D01*
X20971762Y17910151D01*
X20971767Y17910154D01*
X20976749Y17912477D01*
X21081611Y17985902D01*
X21159789Y18040643D01*
X21159792Y18040645D01*
X21164300Y18043802D01*
X21326198Y18205700D01*
X21457523Y18393251D01*
X21459847Y18398236D01*
X21459851Y18398242D01*
X21476805Y18434601D01*
X21523722Y18487887D01*
X21591999Y18507348D01*
X21659959Y18486807D01*
X21706025Y18432784D01*
X21717000Y18381352D01*
X21717000Y17509294D01*
X21696998Y17441173D01*
X21643342Y17394680D01*
X21573068Y17384576D01*
X21524884Y17402034D01*
X21488650Y17424369D01*
X21488648Y17424370D01*
X21482420Y17428209D01*
X21317309Y17482974D01*
X21310473Y17483674D01*
X21310470Y17483675D01*
X21258974Y17488951D01*
X21214572Y17493500D01*
X20540428Y17493500D01*
X20537182Y17493163D01*
X20537178Y17493163D01*
X20443265Y17483419D01*
X20443261Y17483418D01*
X20436407Y17482707D01*
X20429871Y17480526D01*
X20429869Y17480526D01*
X20311914Y17441173D01*
X20271393Y17427654D01*
X20229038Y17401444D01*
X20130990Y17340770D01*
X20123469Y17336116D01*
X20091621Y17304213D01*
X20029341Y17270134D01*
X19958521Y17275137D01*
X19913433Y17304057D01*
X19885684Y17331757D01*
X19880503Y17336929D01*
X19860726Y17349120D01*
X19738650Y17424369D01*
X19738648Y17424370D01*
X19732420Y17428209D01*
X19567309Y17482974D01*
X19560473Y17483674D01*
X19560470Y17483675D01*
X19508974Y17488951D01*
X19464572Y17493500D01*
X18790428Y17493500D01*
X18787182Y17493163D01*
X18787178Y17493163D01*
X18693265Y17483419D01*
X18693261Y17483418D01*
X18686407Y17482707D01*
X18679871Y17480526D01*
X18679869Y17480526D01*
X18561914Y17441173D01*
X18521393Y17427654D01*
X18373469Y17336116D01*
X18368296Y17330934D01*
X18255742Y17218184D01*
X18255738Y17218179D01*
X18250571Y17213003D01*
X18246729Y17206771D01*
X18246728Y17206769D01*
X18229230Y17178383D01*
X18176457Y17130890D01*
X18121971Y17118500D01*
X18064399Y17118500D01*
X17996278Y17138502D01*
X17961186Y17172229D01*
X17836857Y17349789D01*
X17836855Y17349792D01*
X17833698Y17354300D01*
X17671800Y17516198D01*
X17667292Y17519355D01*
X17667289Y17519357D01*
X17510992Y17628797D01*
X17484249Y17647523D01*
X17479267Y17649846D01*
X17479262Y17649849D01*
X17281725Y17741961D01*
X17281724Y17741961D01*
X17276743Y17744284D01*
X17271435Y17745706D01*
X17271433Y17745707D01*
X17060902Y17802119D01*
X17060900Y17802119D01*
X17055587Y17803543D01*
X16827500Y17823498D01*
X16599413Y17803543D01*
X16594100Y17802119D01*
X16594098Y17802119D01*
X16383567Y17745707D01*
X16383565Y17745706D01*
X16378257Y17744284D01*
X16373276Y17741961D01*
X16373275Y17741961D01*
X16175738Y17649849D01*
X16175733Y17649846D01*
X16170751Y17647523D01*
X16144008Y17628797D01*
X15987711Y17519357D01*
X15987708Y17519355D01*
X15983200Y17516198D01*
X15821302Y17354300D01*
X15818145Y17349792D01*
X15818143Y17349789D01*
X15773754Y17286395D01*
X15689977Y17166749D01*
X15687654Y17161767D01*
X15687651Y17161762D01*
X15622523Y17022092D01*
X15593216Y16959243D01*
X15591794Y16953935D01*
X15591793Y16953933D01*
X15538607Y16755441D01*
X15501655Y16694818D01*
X15437794Y16663797D01*
X15367300Y16672225D01*
X15312553Y16717428D01*
X15290900Y16788052D01*
X15290900Y16831931D01*
X15284145Y16894113D01*
X15233015Y17030502D01*
X15145661Y17147058D01*
X15029105Y17234412D01*
X14892716Y17285542D01*
X14830534Y17292297D01*
X14379466Y17292297D01*
X14317284Y17285542D01*
X14180895Y17234412D01*
X14064339Y17147058D01*
X14059037Y17139983D01*
X13996783Y17105989D01*
X13925968Y17111054D01*
X13880971Y17139972D01*
X13875661Y17147058D01*
X13759105Y17234412D01*
X13622716Y17285542D01*
X13560534Y17292297D01*
X13109466Y17292297D01*
X13047284Y17285542D01*
X13044176Y17284377D01*
X12990824Y17284377D01*
X12987716Y17285542D01*
X12925534Y17292297D01*
X12474466Y17292297D01*
X12412284Y17285542D01*
X12275895Y17234412D01*
X12159339Y17147058D01*
X12154037Y17139983D01*
X12091783Y17105989D01*
X12020968Y17111054D01*
X11975971Y17139972D01*
X11970661Y17147058D01*
X11854105Y17234412D01*
X11717716Y17285542D01*
X11655534Y17292297D01*
X11204466Y17292297D01*
X11142284Y17285542D01*
X11005895Y17234412D01*
X10889339Y17147058D01*
X10801985Y17030502D01*
X10798833Y17022094D01*
X10798832Y17022092D01*
X10759982Y16918460D01*
X10717341Y16861695D01*
X10650779Y16836995D01*
X10581430Y16852202D01*
X10531312Y16902488D01*
X10516000Y16962689D01*
X10516000Y17358134D01*
X10509245Y17420316D01*
X10458115Y17556705D01*
X10370761Y17673261D01*
X10254205Y17760615D01*
X10117816Y17811745D01*
X10055634Y17818500D01*
X8359366Y17818500D01*
X8297184Y17811745D01*
X8160795Y17760615D01*
X8044239Y17673261D01*
X7956885Y17556705D01*
X7953733Y17548297D01*
X7919960Y17458208D01*
X7877318Y17401444D01*
X7810757Y17376744D01*
X7741408Y17391951D01*
X7712960Y17413265D01*
X7650983Y17475134D01*
X7645803Y17480305D01*
X7624397Y17493500D01*
X7501468Y17569275D01*
X7501466Y17569276D01*
X7495238Y17573115D01*
X7334754Y17626345D01*
X7333889Y17626632D01*
X7333887Y17626632D01*
X7327361Y17628797D01*
X7320525Y17629497D01*
X7320522Y17629498D01*
X7277469Y17633909D01*
X7222900Y17639500D01*
X6497100Y17639500D01*
X6493854Y17639163D01*
X6493850Y17639163D01*
X6398192Y17629238D01*
X6398188Y17629237D01*
X6391334Y17628526D01*
X6384798Y17626345D01*
X6384796Y17626345D01*
X6285650Y17593267D01*
X6223554Y17572550D01*
X6073152Y17479478D01*
X5948195Y17354303D01*
X5944355Y17348073D01*
X5944354Y17348072D01*
X5862352Y17215040D01*
X5855385Y17203738D01*
X5799703Y17035861D01*
X5789000Y16931400D01*
X5789000Y15815980D01*
X5768998Y15747859D01*
X5715342Y15701366D01*
X5663000Y15689980D01*
X5392546Y15689980D01*
X5324425Y15709982D01*
X5303451Y15726885D01*
X5042905Y15987431D01*
X5008879Y16049743D01*
X5006000Y16076526D01*
X5006000Y16931400D01*
X4995026Y17037166D01*
X4960759Y17139878D01*
X4941368Y17197998D01*
X4939050Y17204946D01*
X4845978Y17355348D01*
X4720803Y17480305D01*
X4699397Y17493500D01*
X4576468Y17569275D01*
X4576466Y17569276D01*
X4570238Y17573115D01*
X4409754Y17626345D01*
X4408889Y17626632D01*
X4408887Y17626632D01*
X4402361Y17628797D01*
X4395525Y17629497D01*
X4395522Y17629498D01*
X4352469Y17633909D01*
X4297900Y17639500D01*
X3572100Y17639500D01*
X3568854Y17639163D01*
X3568850Y17639163D01*
X3473192Y17629238D01*
X3473188Y17629237D01*
X3466334Y17628526D01*
X3459798Y17626345D01*
X3459796Y17626345D01*
X3360650Y17593267D01*
X3298554Y17572550D01*
X3259362Y17548297D01*
X3240303Y17536503D01*
X3171851Y17517665D01*
X3104082Y17538826D01*
X3058510Y17593267D01*
X3048000Y17643647D01*
X3048000Y19685000D01*
X3466526Y19685000D01*
X3486391Y19432597D01*
X3545495Y19186409D01*
X3547388Y19181838D01*
X3547389Y19181836D01*
X3620015Y19006502D01*
X3642384Y18952498D01*
X3774672Y18736624D01*
X3939102Y18544102D01*
X4131624Y18379672D01*
X4347498Y18247384D01*
X4352068Y18245491D01*
X4352072Y18245489D01*
X4457540Y18201803D01*
X4581409Y18150495D01*
X4666032Y18130179D01*
X4822784Y18092546D01*
X4822790Y18092545D01*
X4827597Y18091391D01*
X4927416Y18083535D01*
X5014345Y18076693D01*
X5014352Y18076693D01*
X5016801Y18076500D01*
X5143199Y18076500D01*
X5145648Y18076693D01*
X5145655Y18076693D01*
X5232584Y18083535D01*
X5332403Y18091391D01*
X5337210Y18092545D01*
X5337216Y18092546D01*
X5493968Y18130179D01*
X5578591Y18150495D01*
X5702460Y18201803D01*
X5807928Y18245489D01*
X5807932Y18245491D01*
X5812502Y18247384D01*
X6028376Y18379672D01*
X6220898Y18544102D01*
X6385328Y18736624D01*
X6517616Y18952498D01*
X6539986Y19006502D01*
X6612611Y19181836D01*
X6612612Y19181838D01*
X6614505Y19186409D01*
X6673609Y19432597D01*
X6693474Y19685000D01*
X6673609Y19937403D01*
X6614505Y20183591D01*
X6601985Y20213818D01*
X6519511Y20412928D01*
X6519509Y20412932D01*
X6517616Y20417502D01*
X6385328Y20633376D01*
X6220898Y20825898D01*
X6028376Y20990328D01*
X5812502Y21122616D01*
X5807932Y21124509D01*
X5807928Y21124511D01*
X5583164Y21217611D01*
X5583162Y21217612D01*
X5578591Y21219505D01*
X5493968Y21239821D01*
X5337216Y21277454D01*
X5337210Y21277455D01*
X5332403Y21278609D01*
X5232584Y21286465D01*
X5145655Y21293307D01*
X5145648Y21293307D01*
X5143199Y21293500D01*
X5016801Y21293500D01*
X5014352Y21293307D01*
X5014345Y21293307D01*
X4927416Y21286465D01*
X4827597Y21278609D01*
X4822790Y21277455D01*
X4822784Y21277454D01*
X4666032Y21239821D01*
X4581409Y21219505D01*
X4576838Y21217612D01*
X4576836Y21217611D01*
X4352072Y21124511D01*
X4352068Y21124509D01*
X4347498Y21122616D01*
X4131624Y20990328D01*
X3939102Y20825898D01*
X3774672Y20633376D01*
X3642384Y20417502D01*
X3640491Y20412932D01*
X3640489Y20412928D01*
X3558015Y20213818D01*
X3545495Y20183591D01*
X3486391Y19937403D01*
X3466526Y19685000D01*
X3048000Y19685000D01*
X3048000Y20905672D01*
X3049500Y20925057D01*
X3051805Y20939858D01*
X3051805Y20939861D01*
X3053186Y20948730D01*
X3051748Y20959728D01*
X3051291Y20988412D01*
X3061425Y21091305D01*
X3066244Y21115531D01*
X3102404Y21234733D01*
X3111856Y21257553D01*
X3170570Y21367400D01*
X3184293Y21387938D01*
X3263312Y21484223D01*
X3280777Y21501688D01*
X3377062Y21580707D01*
X3397600Y21594430D01*
X3507447Y21653144D01*
X3530267Y21662596D01*
X3649469Y21698756D01*
X3673693Y21703575D01*
X3769837Y21713044D01*
X3785876Y21712592D01*
X3785885Y21713305D01*
X3794858Y21713195D01*
X3803730Y21711814D01*
X3812632Y21712978D01*
X3812635Y21712978D01*
X3835251Y21715936D01*
X3851589Y21717000D01*
X8856352Y21717000D01*
X8924473Y21696998D01*
G37*
G04 #@! TD.AperFunction*
G04 #@! TD*
M02*
