G04 #@! TF.GenerationSoftware,KiCad,Pcbnew,7.0.11*
G04 #@! TF.CreationDate,2025-05-05T07:07:12+10:00*
G04 #@! TF.ProjectId,MAP Card,4d415020-4361-4726-942e-6b696361645f,rev?*
G04 #@! TF.SameCoordinates,Original*
G04 #@! TF.FileFunction,Legend,Top*
G04 #@! TF.FilePolarity,Positive*
%FSLAX46Y46*%
G04 Gerber Fmt 4.6, Leading zero omitted, Abs format (unit mm)*
G04 Created by KiCad (PCBNEW 7.0.11) date 2025-05-05 07:07:12*
%MOMM*%
%LPD*%
G01*
G04 APERTURE LIST*
%ADD10C,0.150000*%
%ADD11C,0.130000*%
%ADD12C,0.120000*%
G04 APERTURE END LIST*
D10*
X153416095Y-100084819D02*
X153416095Y-100894342D01*
X153416095Y-100894342D02*
X153463714Y-100989580D01*
X153463714Y-100989580D02*
X153511333Y-101037200D01*
X153511333Y-101037200D02*
X153606571Y-101084819D01*
X153606571Y-101084819D02*
X153797047Y-101084819D01*
X153797047Y-101084819D02*
X153892285Y-101037200D01*
X153892285Y-101037200D02*
X153939904Y-100989580D01*
X153939904Y-100989580D02*
X153987523Y-100894342D01*
X153987523Y-100894342D02*
X153987523Y-100084819D01*
X154987523Y-101084819D02*
X154416095Y-101084819D01*
X154701809Y-101084819D02*
X154701809Y-100084819D01*
X154701809Y-100084819D02*
X154606571Y-100227676D01*
X154606571Y-100227676D02*
X154511333Y-100322914D01*
X154511333Y-100322914D02*
X154416095Y-100370533D01*
X153336666Y-102832819D02*
X153336666Y-103547104D01*
X153336666Y-103547104D02*
X153289047Y-103689961D01*
X153289047Y-103689961D02*
X153193809Y-103785200D01*
X153193809Y-103785200D02*
X153050952Y-103832819D01*
X153050952Y-103832819D02*
X152955714Y-103832819D01*
X154336666Y-103832819D02*
X153765238Y-103832819D01*
X154050952Y-103832819D02*
X154050952Y-102832819D01*
X154050952Y-102832819D02*
X153955714Y-102975676D01*
X153955714Y-102975676D02*
X153860476Y-103070914D01*
X153860476Y-103070914D02*
X153765238Y-103118533D01*
D11*
X163355144Y-103003332D02*
X163393240Y-103041428D01*
X163393240Y-103041428D02*
X163431335Y-103155713D01*
X163431335Y-103155713D02*
X163431335Y-103231904D01*
X163431335Y-103231904D02*
X163393240Y-103346190D01*
X163393240Y-103346190D02*
X163317049Y-103422380D01*
X163317049Y-103422380D02*
X163240859Y-103460475D01*
X163240859Y-103460475D02*
X163088478Y-103498571D01*
X163088478Y-103498571D02*
X162974192Y-103498571D01*
X162974192Y-103498571D02*
X162821811Y-103460475D01*
X162821811Y-103460475D02*
X162745620Y-103422380D01*
X162745620Y-103422380D02*
X162669430Y-103346190D01*
X162669430Y-103346190D02*
X162631335Y-103231904D01*
X162631335Y-103231904D02*
X162631335Y-103155713D01*
X162631335Y-103155713D02*
X162669430Y-103041428D01*
X162669430Y-103041428D02*
X162707525Y-103003332D01*
X162707525Y-102698571D02*
X162669430Y-102660475D01*
X162669430Y-102660475D02*
X162631335Y-102584285D01*
X162631335Y-102584285D02*
X162631335Y-102393809D01*
X162631335Y-102393809D02*
X162669430Y-102317618D01*
X162669430Y-102317618D02*
X162707525Y-102279523D01*
X162707525Y-102279523D02*
X162783716Y-102241428D01*
X162783716Y-102241428D02*
X162859906Y-102241428D01*
X162859906Y-102241428D02*
X162974192Y-102279523D01*
X162974192Y-102279523D02*
X163431335Y-102736666D01*
X163431335Y-102736666D02*
X163431335Y-102241428D01*
D10*
X145756333Y-100944580D02*
X145708714Y-100992200D01*
X145708714Y-100992200D02*
X145565857Y-101039819D01*
X145565857Y-101039819D02*
X145470619Y-101039819D01*
X145470619Y-101039819D02*
X145327762Y-100992200D01*
X145327762Y-100992200D02*
X145232524Y-100896961D01*
X145232524Y-100896961D02*
X145184905Y-100801723D01*
X145184905Y-100801723D02*
X145137286Y-100611247D01*
X145137286Y-100611247D02*
X145137286Y-100468390D01*
X145137286Y-100468390D02*
X145184905Y-100277914D01*
X145184905Y-100277914D02*
X145232524Y-100182676D01*
X145232524Y-100182676D02*
X145327762Y-100087438D01*
X145327762Y-100087438D02*
X145470619Y-100039819D01*
X145470619Y-100039819D02*
X145565857Y-100039819D01*
X145565857Y-100039819D02*
X145708714Y-100087438D01*
X145708714Y-100087438D02*
X145756333Y-100135057D01*
X146089667Y-100039819D02*
X146708714Y-100039819D01*
X146708714Y-100039819D02*
X146375381Y-100420771D01*
X146375381Y-100420771D02*
X146518238Y-100420771D01*
X146518238Y-100420771D02*
X146613476Y-100468390D01*
X146613476Y-100468390D02*
X146661095Y-100516009D01*
X146661095Y-100516009D02*
X146708714Y-100611247D01*
X146708714Y-100611247D02*
X146708714Y-100849342D01*
X146708714Y-100849342D02*
X146661095Y-100944580D01*
X146661095Y-100944580D02*
X146613476Y-100992200D01*
X146613476Y-100992200D02*
X146518238Y-101039819D01*
X146518238Y-101039819D02*
X146232524Y-101039819D01*
X146232524Y-101039819D02*
X146137286Y-100992200D01*
X146137286Y-100992200D02*
X146089667Y-100944580D01*
X145883333Y-97228819D02*
X145550000Y-96752628D01*
X145311905Y-97228819D02*
X145311905Y-96228819D01*
X145311905Y-96228819D02*
X145692857Y-96228819D01*
X145692857Y-96228819D02*
X145788095Y-96276438D01*
X145788095Y-96276438D02*
X145835714Y-96324057D01*
X145835714Y-96324057D02*
X145883333Y-96419295D01*
X145883333Y-96419295D02*
X145883333Y-96562152D01*
X145883333Y-96562152D02*
X145835714Y-96657390D01*
X145835714Y-96657390D02*
X145788095Y-96705009D01*
X145788095Y-96705009D02*
X145692857Y-96752628D01*
X145692857Y-96752628D02*
X145311905Y-96752628D01*
X146835714Y-97228819D02*
X146264286Y-97228819D01*
X146550000Y-97228819D02*
X146550000Y-96228819D01*
X146550000Y-96228819D02*
X146454762Y-96371676D01*
X146454762Y-96371676D02*
X146359524Y-96466914D01*
X146359524Y-96466914D02*
X146264286Y-96514533D01*
X161377333Y-97006580D02*
X161329714Y-97054200D01*
X161329714Y-97054200D02*
X161186857Y-97101819D01*
X161186857Y-97101819D02*
X161091619Y-97101819D01*
X161091619Y-97101819D02*
X160948762Y-97054200D01*
X160948762Y-97054200D02*
X160853524Y-96958961D01*
X160853524Y-96958961D02*
X160805905Y-96863723D01*
X160805905Y-96863723D02*
X160758286Y-96673247D01*
X160758286Y-96673247D02*
X160758286Y-96530390D01*
X160758286Y-96530390D02*
X160805905Y-96339914D01*
X160805905Y-96339914D02*
X160853524Y-96244676D01*
X160853524Y-96244676D02*
X160948762Y-96149438D01*
X160948762Y-96149438D02*
X161091619Y-96101819D01*
X161091619Y-96101819D02*
X161186857Y-96101819D01*
X161186857Y-96101819D02*
X161329714Y-96149438D01*
X161329714Y-96149438D02*
X161377333Y-96197057D01*
X162329714Y-97101819D02*
X161758286Y-97101819D01*
X162044000Y-97101819D02*
X162044000Y-96101819D01*
X162044000Y-96101819D02*
X161948762Y-96244676D01*
X161948762Y-96244676D02*
X161853524Y-96339914D01*
X161853524Y-96339914D02*
X161758286Y-96387533D01*
D12*
X154178000Y-96820000D02*
X150368000Y-96820000D01*
X154178000Y-96820000D02*
X157988000Y-96820000D01*
X154178000Y-104440000D02*
X150368000Y-104440000D01*
X154178000Y-104440000D02*
X157988000Y-104440000D01*
X160809000Y-103131252D02*
X160809000Y-102608748D01*
X162279000Y-103131252D02*
X162279000Y-102608748D01*
X145661748Y-101500000D02*
X146184252Y-101500000D01*
X145661748Y-102970000D02*
X146184252Y-102970000D01*
X146213564Y-99160000D02*
X145759436Y-99160000D01*
X146213564Y-97690000D02*
X145759436Y-97690000D01*
X162279000Y-98798748D02*
X162279000Y-99321252D01*
X160809000Y-98798748D02*
X160809000Y-99321252D01*
M02*
