G04 #@! TF.GenerationSoftware,KiCad,Pcbnew,7.0.11*
G04 #@! TF.CreationDate,2025-05-05T07:07:12+10:00*
G04 #@! TF.ProjectId,MAP Card,4d415020-4361-4726-942e-6b696361645f,rev?*
G04 #@! TF.SameCoordinates,Original*
G04 #@! TF.FileFunction,Copper,L2,Bot*
G04 #@! TF.FilePolarity,Positive*
%FSLAX46Y46*%
G04 Gerber Fmt 4.6, Leading zero omitted, Abs format (unit mm)*
G04 Created by KiCad (PCBNEW 7.0.11) date 2025-05-05 07:07:12*
%MOMM*%
%LPD*%
G01*
G04 APERTURE LIST*
G04 #@! TA.AperFunction,ConnectorPad*
%ADD10R,1.300000X6.730000*%
G04 #@! TD*
G04 #@! TA.AperFunction,ViaPad*
%ADD11C,0.800000*%
G04 #@! TD*
G04 #@! TA.AperFunction,Conductor*
%ADD12C,0.500000*%
G04 #@! TD*
G04 #@! TA.AperFunction,Conductor*
%ADD13C,0.250000*%
G04 #@! TD*
G04 APERTURE END LIST*
D10*
X148590000Y-108418000D03*
X151130000Y-108418000D03*
X153670000Y-108418000D03*
X156210000Y-108418000D03*
X158750000Y-108418000D03*
D11*
X153035000Y-97790000D03*
X156845000Y-101600000D03*
X152400000Y-102235000D03*
X156210000Y-103505000D03*
X148590000Y-103505000D03*
D12*
X151130000Y-104140000D02*
X151130000Y-108418000D01*
X152400000Y-102870000D02*
X151130000Y-104140000D01*
X152400000Y-102235000D02*
X152400000Y-102870000D01*
D13*
X156210000Y-103505000D02*
X153670000Y-106045000D01*
X153670000Y-106045000D02*
X153670000Y-108418000D01*
X148590000Y-103505000D02*
X148590000Y-108418000D01*
G04 #@! TA.AperFunction,Conductor*
G36*
X163137121Y-96794002D02*
G01*
X163183614Y-96847658D01*
X163195000Y-96900000D01*
X163195000Y-104649000D01*
X163174998Y-104717121D01*
X163121342Y-104763614D01*
X163069000Y-104775000D01*
X159890158Y-104775000D01*
X159822037Y-104754998D01*
X159789290Y-104724509D01*
X159763261Y-104689738D01*
X159646207Y-104602112D01*
X159646202Y-104602110D01*
X159509204Y-104551011D01*
X159509196Y-104551009D01*
X159448649Y-104544500D01*
X159448638Y-104544500D01*
X158051362Y-104544500D01*
X158051350Y-104544500D01*
X157990803Y-104551009D01*
X157990795Y-104551011D01*
X157853797Y-104602110D01*
X157853792Y-104602112D01*
X157736738Y-104689738D01*
X157710710Y-104724509D01*
X157653874Y-104767056D01*
X157609842Y-104775000D01*
X157350158Y-104775000D01*
X157282037Y-104754998D01*
X157249290Y-104724509D01*
X157223261Y-104689738D01*
X157106207Y-104602112D01*
X157106202Y-104602110D01*
X156969204Y-104551011D01*
X156969196Y-104551009D01*
X156908649Y-104544500D01*
X156908638Y-104544500D01*
X156701660Y-104544500D01*
X156633539Y-104524498D01*
X156587046Y-104470842D01*
X156576942Y-104400568D01*
X156606436Y-104335988D01*
X156650412Y-104303393D01*
X156666752Y-104296118D01*
X156821253Y-104183866D01*
X156949040Y-104041944D01*
X157044527Y-103876556D01*
X157103542Y-103694928D01*
X157123504Y-103505000D01*
X157103542Y-103315072D01*
X157044527Y-103133444D01*
X156949040Y-102968056D01*
X156949038Y-102968054D01*
X156949034Y-102968048D01*
X156821255Y-102826135D01*
X156666752Y-102713882D01*
X156492288Y-102636206D01*
X156305487Y-102596500D01*
X156114513Y-102596500D01*
X155927711Y-102636206D01*
X155753247Y-102713882D01*
X155598744Y-102826135D01*
X155470965Y-102968048D01*
X155470958Y-102968058D01*
X155375476Y-103133438D01*
X155375473Y-103133445D01*
X155316457Y-103315072D01*
X155299092Y-103480292D01*
X155272079Y-103545949D01*
X155262877Y-103556216D01*
X154311498Y-104507596D01*
X154249188Y-104541620D01*
X154222405Y-104544500D01*
X152971350Y-104544500D01*
X152910803Y-104551009D01*
X152910795Y-104551011D01*
X152773797Y-104602110D01*
X152773792Y-104602112D01*
X152656738Y-104689738D01*
X152630710Y-104724509D01*
X152573874Y-104767056D01*
X152529842Y-104775000D01*
X152269534Y-104775000D01*
X152201413Y-104754998D01*
X152168667Y-104724510D01*
X152142904Y-104690095D01*
X152025965Y-104602555D01*
X151889093Y-104551505D01*
X151828597Y-104545000D01*
X151384000Y-104545000D01*
X151384000Y-104775000D01*
X150876000Y-104775000D01*
X150876000Y-104545000D01*
X150431402Y-104545000D01*
X150370906Y-104551505D01*
X150234035Y-104602555D01*
X150234034Y-104602555D01*
X150117095Y-104690095D01*
X150091333Y-104724510D01*
X150034497Y-104767056D01*
X149990466Y-104775000D01*
X149730158Y-104775000D01*
X149662037Y-104754998D01*
X149629290Y-104724509D01*
X149603261Y-104689738D01*
X149486207Y-104602112D01*
X149486202Y-104602110D01*
X149349204Y-104551011D01*
X149349198Y-104551010D01*
X149336028Y-104549594D01*
X149270437Y-104522423D01*
X149229947Y-104464104D01*
X149223500Y-104424316D01*
X149223500Y-104207524D01*
X149243502Y-104139403D01*
X149255858Y-104123220D01*
X149329040Y-104041944D01*
X149424527Y-103876556D01*
X149483542Y-103694928D01*
X149503504Y-103505000D01*
X149483542Y-103315072D01*
X149424527Y-103133444D01*
X149329040Y-102968056D01*
X149329038Y-102968054D01*
X149329034Y-102968048D01*
X149201255Y-102826135D01*
X149046752Y-102713882D01*
X148872288Y-102636206D01*
X148685487Y-102596500D01*
X148494513Y-102596500D01*
X148307711Y-102636206D01*
X148133247Y-102713882D01*
X147978744Y-102826135D01*
X147850965Y-102968048D01*
X147850958Y-102968058D01*
X147755476Y-103133438D01*
X147755473Y-103133445D01*
X147696457Y-103315072D01*
X147676496Y-103505000D01*
X147696457Y-103694927D01*
X147726526Y-103787470D01*
X147755473Y-103876556D01*
X147850960Y-104041944D01*
X147924137Y-104123215D01*
X147954853Y-104187220D01*
X147956500Y-104207524D01*
X147956500Y-104424316D01*
X147936498Y-104492437D01*
X147882842Y-104538930D01*
X147843972Y-104549594D01*
X147830801Y-104551010D01*
X147830795Y-104551011D01*
X147693797Y-104602110D01*
X147693792Y-104602112D01*
X147576738Y-104689738D01*
X147550710Y-104724509D01*
X147493874Y-104767056D01*
X147449842Y-104775000D01*
X144271000Y-104775000D01*
X144202879Y-104754998D01*
X144156386Y-104701342D01*
X144145000Y-104649000D01*
X144145000Y-96900000D01*
X144165002Y-96831879D01*
X144218658Y-96785386D01*
X144271000Y-96774000D01*
X163069000Y-96774000D01*
X163137121Y-96794002D01*
G37*
G04 #@! TD.AperFunction*
M02*
