G04 #@! TF.GenerationSoftware,KiCad,Pcbnew,7.0.11*
G04 #@! TF.CreationDate,2025-05-05T07:07:12+10:00*
G04 #@! TF.ProjectId,MAP Card,4d415020-4361-4726-942e-6b696361645f,rev?*
G04 #@! TF.SameCoordinates,Original*
G04 #@! TF.FileFunction,Soldermask,Top*
G04 #@! TF.FilePolarity,Negative*
%FSLAX46Y46*%
G04 Gerber Fmt 4.6, Leading zero omitted, Abs format (unit mm)*
G04 Created by KiCad (PCBNEW 7.0.11) date 2025-05-05 07:07:12*
%MOMM*%
%LPD*%
G01*
G04 APERTURE LIST*
G04 APERTURE END LIST*
G36*
X160654056Y-105156000D02*
G01*
X160655000Y-105156000D01*
X160655000Y-105156406D01*
X160657890Y-105159742D01*
X160660000Y-105169437D01*
X160660000Y-111742026D01*
X160655000Y-111759053D01*
X160655000Y-111760000D01*
X160654593Y-111760000D01*
X160651257Y-111762890D01*
X160641562Y-111765000D01*
X146702973Y-111765000D01*
X146685946Y-111760000D01*
X146685000Y-111760000D01*
X146685000Y-111759594D01*
X146682109Y-111756257D01*
X146680000Y-111746562D01*
X146680000Y-105173973D01*
X146685000Y-105156942D01*
X146685000Y-105156000D01*
X146685405Y-105156000D01*
X146688742Y-105153109D01*
X146698438Y-105151000D01*
X160637027Y-105151000D01*
X160654056Y-105156000D01*
G37*
G36*
X162087914Y-103276995D02*
G01*
X162103726Y-103283976D01*
X162111531Y-103285213D01*
X162144039Y-103301776D01*
X162189106Y-103321676D01*
X162267324Y-103399894D01*
X162287226Y-103444967D01*
X162303786Y-103477468D01*
X162305021Y-103485270D01*
X162312005Y-103501086D01*
X162320000Y-103570000D01*
X162320000Y-104070000D01*
X162312005Y-104138914D01*
X162305021Y-104154729D01*
X162303786Y-104162531D01*
X162287229Y-104195024D01*
X162267324Y-104240106D01*
X162189106Y-104318324D01*
X162144024Y-104338229D01*
X162111531Y-104354786D01*
X162103729Y-104356021D01*
X162087914Y-104363005D01*
X162019000Y-104371000D01*
X161069000Y-104371000D01*
X161000086Y-104363005D01*
X160984270Y-104356021D01*
X160976468Y-104354786D01*
X160943967Y-104338226D01*
X160898894Y-104318324D01*
X160820676Y-104240106D01*
X160800776Y-104195039D01*
X160784213Y-104162531D01*
X160782976Y-104154726D01*
X160775995Y-104138914D01*
X160768000Y-104070000D01*
X160768000Y-103570000D01*
X160775995Y-103501086D01*
X160782976Y-103485274D01*
X160784213Y-103477468D01*
X160800780Y-103444953D01*
X160820676Y-103399894D01*
X160898894Y-103321676D01*
X160943953Y-103301780D01*
X160976468Y-103285213D01*
X160984274Y-103283976D01*
X161000086Y-103276995D01*
X161069000Y-103269000D01*
X162019000Y-103269000D01*
X162087914Y-103276995D01*
G37*
G36*
X145291914Y-101466995D02*
G01*
X145307726Y-101473976D01*
X145315531Y-101475213D01*
X145348039Y-101491776D01*
X145393106Y-101511676D01*
X145471324Y-101589894D01*
X145491226Y-101634967D01*
X145507786Y-101667468D01*
X145509021Y-101675270D01*
X145516005Y-101691086D01*
X145524000Y-101760000D01*
X145524000Y-102710000D01*
X145516005Y-102778914D01*
X145509021Y-102794729D01*
X145507786Y-102802531D01*
X145491229Y-102835024D01*
X145471324Y-102880106D01*
X145393106Y-102958324D01*
X145348024Y-102978229D01*
X145315531Y-102994786D01*
X145307729Y-102996021D01*
X145291914Y-103003005D01*
X145223000Y-103011000D01*
X144723000Y-103011000D01*
X144654086Y-103003005D01*
X144638270Y-102996021D01*
X144630468Y-102994786D01*
X144597967Y-102978226D01*
X144552894Y-102958324D01*
X144474676Y-102880106D01*
X144454776Y-102835039D01*
X144438213Y-102802531D01*
X144436976Y-102794726D01*
X144429995Y-102778914D01*
X144422000Y-102710000D01*
X144422000Y-101760000D01*
X144429995Y-101691086D01*
X144436976Y-101675274D01*
X144438213Y-101667468D01*
X144454780Y-101634953D01*
X144474676Y-101589894D01*
X144552894Y-101511676D01*
X144597953Y-101491780D01*
X144630468Y-101475213D01*
X144638274Y-101473976D01*
X144654086Y-101466995D01*
X144723000Y-101459000D01*
X145223000Y-101459000D01*
X145291914Y-101466995D01*
G37*
G36*
X147191914Y-101466995D02*
G01*
X147207726Y-101473976D01*
X147215531Y-101475213D01*
X147248039Y-101491776D01*
X147293106Y-101511676D01*
X147371324Y-101589894D01*
X147391226Y-101634967D01*
X147407786Y-101667468D01*
X147409021Y-101675270D01*
X147416005Y-101691086D01*
X147424000Y-101760000D01*
X147424000Y-102710000D01*
X147416005Y-102778914D01*
X147409021Y-102794729D01*
X147407786Y-102802531D01*
X147391229Y-102835024D01*
X147371324Y-102880106D01*
X147293106Y-102958324D01*
X147248024Y-102978229D01*
X147215531Y-102994786D01*
X147207729Y-102996021D01*
X147191914Y-103003005D01*
X147123000Y-103011000D01*
X146623000Y-103011000D01*
X146554086Y-103003005D01*
X146538270Y-102996021D01*
X146530468Y-102994786D01*
X146497967Y-102978226D01*
X146452894Y-102958324D01*
X146374676Y-102880106D01*
X146354776Y-102835039D01*
X146338213Y-102802531D01*
X146336976Y-102794726D01*
X146329995Y-102778914D01*
X146322000Y-102710000D01*
X146322000Y-101760000D01*
X146329995Y-101691086D01*
X146336976Y-101675274D01*
X146338213Y-101667468D01*
X146354780Y-101634953D01*
X146374676Y-101589894D01*
X146452894Y-101511676D01*
X146497953Y-101491780D01*
X146530468Y-101475213D01*
X146538274Y-101473976D01*
X146554086Y-101466995D01*
X146623000Y-101459000D01*
X147123000Y-101459000D01*
X147191914Y-101466995D01*
G37*
G36*
X149826540Y-102187190D02*
G01*
X149859487Y-102191528D01*
X149867774Y-102195392D01*
X149887419Y-102199300D01*
X149913438Y-102216686D01*
X149924680Y-102221928D01*
X149931519Y-102228767D01*
X149952628Y-102242872D01*
X149966732Y-102263980D01*
X149973571Y-102270819D01*
X149978812Y-102282058D01*
X149996200Y-102308081D01*
X150000107Y-102327727D01*
X150003971Y-102336012D01*
X150008306Y-102368946D01*
X150011500Y-102385000D01*
X150011500Y-102685000D01*
X150008306Y-102701054D01*
X150003971Y-102733987D01*
X150000108Y-102742270D01*
X149996200Y-102761919D01*
X149978810Y-102787943D01*
X149973571Y-102799180D01*
X149966734Y-102806016D01*
X149952628Y-102827128D01*
X149931516Y-102841234D01*
X149924680Y-102848071D01*
X149913443Y-102853310D01*
X149887419Y-102870700D01*
X149867770Y-102874608D01*
X149859487Y-102878471D01*
X149826554Y-102882806D01*
X149810500Y-102886000D01*
X148385500Y-102886000D01*
X148369446Y-102882806D01*
X148336512Y-102878471D01*
X148328227Y-102874607D01*
X148308581Y-102870700D01*
X148282558Y-102853312D01*
X148271319Y-102848071D01*
X148264480Y-102841232D01*
X148243372Y-102827128D01*
X148229267Y-102806019D01*
X148222428Y-102799180D01*
X148217186Y-102787938D01*
X148199800Y-102761919D01*
X148195892Y-102742274D01*
X148192028Y-102733987D01*
X148187690Y-102701040D01*
X148184500Y-102685000D01*
X148184500Y-102385000D01*
X148187690Y-102368961D01*
X148192028Y-102336012D01*
X148195892Y-102327723D01*
X148199800Y-102308081D01*
X148217184Y-102282063D01*
X148222428Y-102270819D01*
X148229269Y-102263977D01*
X148243372Y-102242872D01*
X148264477Y-102228769D01*
X148271319Y-102221928D01*
X148282563Y-102216684D01*
X148308581Y-102199300D01*
X148328223Y-102195392D01*
X148336512Y-102191528D01*
X148369461Y-102187190D01*
X148385500Y-102184000D01*
X149810500Y-102184000D01*
X149826540Y-102187190D01*
G37*
G36*
X159986540Y-102187190D02*
G01*
X160019487Y-102191528D01*
X160027774Y-102195392D01*
X160047419Y-102199300D01*
X160073438Y-102216686D01*
X160084680Y-102221928D01*
X160091519Y-102228767D01*
X160112628Y-102242872D01*
X160126732Y-102263980D01*
X160133571Y-102270819D01*
X160138812Y-102282058D01*
X160156200Y-102308081D01*
X160160107Y-102327727D01*
X160163971Y-102336012D01*
X160168306Y-102368946D01*
X160171500Y-102385000D01*
X160171500Y-102685000D01*
X160168306Y-102701054D01*
X160163971Y-102733987D01*
X160160108Y-102742270D01*
X160156200Y-102761919D01*
X160138810Y-102787943D01*
X160133571Y-102799180D01*
X160126734Y-102806016D01*
X160112628Y-102827128D01*
X160091516Y-102841234D01*
X160084680Y-102848071D01*
X160073443Y-102853310D01*
X160047419Y-102870700D01*
X160027770Y-102874608D01*
X160019487Y-102878471D01*
X159986554Y-102882806D01*
X159970500Y-102886000D01*
X158545500Y-102886000D01*
X158529446Y-102882806D01*
X158496512Y-102878471D01*
X158488227Y-102874607D01*
X158468581Y-102870700D01*
X158442558Y-102853312D01*
X158431319Y-102848071D01*
X158424480Y-102841232D01*
X158403372Y-102827128D01*
X158389267Y-102806019D01*
X158382428Y-102799180D01*
X158377186Y-102787938D01*
X158359800Y-102761919D01*
X158355892Y-102742274D01*
X158352028Y-102733987D01*
X158347690Y-102701040D01*
X158344500Y-102685000D01*
X158344500Y-102385000D01*
X158347690Y-102368961D01*
X158352028Y-102336012D01*
X158355892Y-102327723D01*
X158359800Y-102308081D01*
X158377184Y-102282063D01*
X158382428Y-102270819D01*
X158389269Y-102263977D01*
X158403372Y-102242872D01*
X158424477Y-102228769D01*
X158431319Y-102221928D01*
X158442563Y-102216684D01*
X158468581Y-102199300D01*
X158488223Y-102195392D01*
X158496512Y-102191528D01*
X158529461Y-102187190D01*
X158545500Y-102184000D01*
X159970500Y-102184000D01*
X159986540Y-102187190D01*
G37*
G36*
X162087914Y-101376995D02*
G01*
X162103726Y-101383976D01*
X162111531Y-101385213D01*
X162144039Y-101401776D01*
X162189106Y-101421676D01*
X162267324Y-101499894D01*
X162287226Y-101544967D01*
X162303786Y-101577468D01*
X162305021Y-101585270D01*
X162312005Y-101601086D01*
X162320000Y-101670000D01*
X162320000Y-102170000D01*
X162312005Y-102238914D01*
X162305021Y-102254729D01*
X162303786Y-102262531D01*
X162287229Y-102295024D01*
X162267324Y-102340106D01*
X162189106Y-102418324D01*
X162144024Y-102438229D01*
X162111531Y-102454786D01*
X162103729Y-102456021D01*
X162087914Y-102463005D01*
X162019000Y-102471000D01*
X161069000Y-102471000D01*
X161000086Y-102463005D01*
X160984270Y-102456021D01*
X160976468Y-102454786D01*
X160943967Y-102438226D01*
X160898894Y-102418324D01*
X160820676Y-102340106D01*
X160800776Y-102295039D01*
X160784213Y-102262531D01*
X160782976Y-102254726D01*
X160775995Y-102238914D01*
X160768000Y-102170000D01*
X160768000Y-101670000D01*
X160775995Y-101601086D01*
X160782976Y-101585274D01*
X160784213Y-101577468D01*
X160800780Y-101544953D01*
X160820676Y-101499894D01*
X160898894Y-101421676D01*
X160943953Y-101401780D01*
X160976468Y-101385213D01*
X160984274Y-101383976D01*
X161000086Y-101376995D01*
X161069000Y-101369000D01*
X162019000Y-101369000D01*
X162087914Y-101376995D01*
G37*
G36*
X149826540Y-100917190D02*
G01*
X149859487Y-100921528D01*
X149867774Y-100925392D01*
X149887419Y-100929300D01*
X149913438Y-100946686D01*
X149924680Y-100951928D01*
X149931519Y-100958767D01*
X149952628Y-100972872D01*
X149966732Y-100993980D01*
X149973571Y-101000819D01*
X149978812Y-101012058D01*
X149996200Y-101038081D01*
X150000107Y-101057727D01*
X150003971Y-101066012D01*
X150008306Y-101098946D01*
X150011500Y-101115000D01*
X150011500Y-101415000D01*
X150008306Y-101431054D01*
X150003971Y-101463987D01*
X150000108Y-101472270D01*
X149996200Y-101491919D01*
X149978810Y-101517943D01*
X149973571Y-101529180D01*
X149966734Y-101536016D01*
X149952628Y-101557128D01*
X149931516Y-101571234D01*
X149924680Y-101578071D01*
X149913443Y-101583310D01*
X149887419Y-101600700D01*
X149867770Y-101604608D01*
X149859487Y-101608471D01*
X149826554Y-101612806D01*
X149810500Y-101616000D01*
X148385500Y-101616000D01*
X148369446Y-101612806D01*
X148336512Y-101608471D01*
X148328227Y-101604607D01*
X148308581Y-101600700D01*
X148282558Y-101583312D01*
X148271319Y-101578071D01*
X148264480Y-101571232D01*
X148243372Y-101557128D01*
X148229267Y-101536019D01*
X148222428Y-101529180D01*
X148217186Y-101517938D01*
X148199800Y-101491919D01*
X148195892Y-101472274D01*
X148192028Y-101463987D01*
X148187690Y-101431040D01*
X148184500Y-101415000D01*
X148184500Y-101115000D01*
X148187690Y-101098961D01*
X148192028Y-101066012D01*
X148195892Y-101057723D01*
X148199800Y-101038081D01*
X148217184Y-101012063D01*
X148222428Y-101000819D01*
X148229269Y-100993977D01*
X148243372Y-100972872D01*
X148264477Y-100958769D01*
X148271319Y-100951928D01*
X148282563Y-100946684D01*
X148308581Y-100929300D01*
X148328223Y-100925392D01*
X148336512Y-100921528D01*
X148369461Y-100917190D01*
X148385500Y-100914000D01*
X149810500Y-100914000D01*
X149826540Y-100917190D01*
G37*
G36*
X159986540Y-100917190D02*
G01*
X160019487Y-100921528D01*
X160027774Y-100925392D01*
X160047419Y-100929300D01*
X160073438Y-100946686D01*
X160084680Y-100951928D01*
X160091519Y-100958767D01*
X160112628Y-100972872D01*
X160126732Y-100993980D01*
X160133571Y-101000819D01*
X160138812Y-101012058D01*
X160156200Y-101038081D01*
X160160107Y-101057727D01*
X160163971Y-101066012D01*
X160168306Y-101098946D01*
X160171500Y-101115000D01*
X160171500Y-101415000D01*
X160168306Y-101431054D01*
X160163971Y-101463987D01*
X160160108Y-101472270D01*
X160156200Y-101491919D01*
X160138810Y-101517943D01*
X160133571Y-101529180D01*
X160126734Y-101536016D01*
X160112628Y-101557128D01*
X160091516Y-101571234D01*
X160084680Y-101578071D01*
X160073443Y-101583310D01*
X160047419Y-101600700D01*
X160027770Y-101604608D01*
X160019487Y-101608471D01*
X159986554Y-101612806D01*
X159970500Y-101616000D01*
X158545500Y-101616000D01*
X158529446Y-101612806D01*
X158496512Y-101608471D01*
X158488227Y-101604607D01*
X158468581Y-101600700D01*
X158442558Y-101583312D01*
X158431319Y-101578071D01*
X158424480Y-101571232D01*
X158403372Y-101557128D01*
X158389267Y-101536019D01*
X158382428Y-101529180D01*
X158377186Y-101517938D01*
X158359800Y-101491919D01*
X158355892Y-101472274D01*
X158352028Y-101463987D01*
X158347690Y-101431040D01*
X158344500Y-101415000D01*
X158344500Y-101115000D01*
X158347690Y-101098961D01*
X158352028Y-101066012D01*
X158355892Y-101057723D01*
X158359800Y-101038081D01*
X158377184Y-101012063D01*
X158382428Y-101000819D01*
X158389269Y-100993977D01*
X158403372Y-100972872D01*
X158424477Y-100958769D01*
X158431319Y-100951928D01*
X158442563Y-100946684D01*
X158468581Y-100929300D01*
X158488223Y-100925392D01*
X158496512Y-100921528D01*
X158529461Y-100917190D01*
X158545500Y-100914000D01*
X159970500Y-100914000D01*
X159986540Y-100917190D01*
G37*
G36*
X162087914Y-99466995D02*
G01*
X162103726Y-99473976D01*
X162111531Y-99475213D01*
X162144039Y-99491776D01*
X162189106Y-99511676D01*
X162267324Y-99589894D01*
X162287226Y-99634967D01*
X162303786Y-99667468D01*
X162305021Y-99675270D01*
X162312005Y-99691086D01*
X162320000Y-99760000D01*
X162320000Y-100260000D01*
X162312005Y-100328914D01*
X162305021Y-100344729D01*
X162303786Y-100352531D01*
X162287229Y-100385024D01*
X162267324Y-100430106D01*
X162189106Y-100508324D01*
X162144024Y-100528229D01*
X162111531Y-100544786D01*
X162103729Y-100546021D01*
X162087914Y-100553005D01*
X162019000Y-100561000D01*
X161069000Y-100561000D01*
X161000086Y-100553005D01*
X160984270Y-100546021D01*
X160976468Y-100544786D01*
X160943967Y-100528226D01*
X160898894Y-100508324D01*
X160820676Y-100430106D01*
X160800776Y-100385039D01*
X160784213Y-100352531D01*
X160782976Y-100344726D01*
X160775995Y-100328914D01*
X160768000Y-100260000D01*
X160768000Y-99760000D01*
X160775995Y-99691086D01*
X160782976Y-99675274D01*
X160784213Y-99667468D01*
X160800780Y-99634953D01*
X160820676Y-99589894D01*
X160898894Y-99511676D01*
X160943953Y-99491780D01*
X160976468Y-99475213D01*
X160984274Y-99473976D01*
X161000086Y-99466995D01*
X161069000Y-99459000D01*
X162019000Y-99459000D01*
X162087914Y-99466995D01*
G37*
G36*
X149826540Y-99647190D02*
G01*
X149859487Y-99651528D01*
X149867774Y-99655392D01*
X149887419Y-99659300D01*
X149913438Y-99676686D01*
X149924680Y-99681928D01*
X149931519Y-99688767D01*
X149952628Y-99702872D01*
X149966732Y-99723980D01*
X149973571Y-99730819D01*
X149978812Y-99742058D01*
X149996200Y-99768081D01*
X150000107Y-99787727D01*
X150003971Y-99796012D01*
X150008306Y-99828946D01*
X150011500Y-99845000D01*
X150011500Y-100145000D01*
X150008306Y-100161054D01*
X150003971Y-100193987D01*
X150000108Y-100202270D01*
X149996200Y-100221919D01*
X149978810Y-100247943D01*
X149973571Y-100259180D01*
X149966734Y-100266016D01*
X149952628Y-100287128D01*
X149931516Y-100301234D01*
X149924680Y-100308071D01*
X149913443Y-100313310D01*
X149887419Y-100330700D01*
X149867770Y-100334608D01*
X149859487Y-100338471D01*
X149826554Y-100342806D01*
X149810500Y-100346000D01*
X148385500Y-100346000D01*
X148369446Y-100342806D01*
X148336512Y-100338471D01*
X148328227Y-100334607D01*
X148308581Y-100330700D01*
X148282558Y-100313312D01*
X148271319Y-100308071D01*
X148264480Y-100301232D01*
X148243372Y-100287128D01*
X148229267Y-100266019D01*
X148222428Y-100259180D01*
X148217186Y-100247938D01*
X148199800Y-100221919D01*
X148195892Y-100202274D01*
X148192028Y-100193987D01*
X148187690Y-100161040D01*
X148184500Y-100145000D01*
X148184500Y-99845000D01*
X148187690Y-99828961D01*
X148192028Y-99796012D01*
X148195892Y-99787723D01*
X148199800Y-99768081D01*
X148217184Y-99742063D01*
X148222428Y-99730819D01*
X148229269Y-99723977D01*
X148243372Y-99702872D01*
X148264477Y-99688769D01*
X148271319Y-99681928D01*
X148282563Y-99676684D01*
X148308581Y-99659300D01*
X148328223Y-99655392D01*
X148336512Y-99651528D01*
X148369461Y-99647190D01*
X148385500Y-99644000D01*
X149810500Y-99644000D01*
X149826540Y-99647190D01*
G37*
G36*
X159986540Y-99647190D02*
G01*
X160019487Y-99651528D01*
X160027774Y-99655392D01*
X160047419Y-99659300D01*
X160073438Y-99676686D01*
X160084680Y-99681928D01*
X160091519Y-99688767D01*
X160112628Y-99702872D01*
X160126732Y-99723980D01*
X160133571Y-99730819D01*
X160138812Y-99742058D01*
X160156200Y-99768081D01*
X160160107Y-99787727D01*
X160163971Y-99796012D01*
X160168306Y-99828946D01*
X160171500Y-99845000D01*
X160171500Y-100145000D01*
X160168306Y-100161054D01*
X160163971Y-100193987D01*
X160160108Y-100202270D01*
X160156200Y-100221919D01*
X160138810Y-100247943D01*
X160133571Y-100259180D01*
X160126734Y-100266016D01*
X160112628Y-100287128D01*
X160091516Y-100301234D01*
X160084680Y-100308071D01*
X160073443Y-100313310D01*
X160047419Y-100330700D01*
X160027770Y-100334608D01*
X160019487Y-100338471D01*
X159986554Y-100342806D01*
X159970500Y-100346000D01*
X158545500Y-100346000D01*
X158529446Y-100342806D01*
X158496512Y-100338471D01*
X158488227Y-100334607D01*
X158468581Y-100330700D01*
X158442558Y-100313312D01*
X158431319Y-100308071D01*
X158424480Y-100301232D01*
X158403372Y-100287128D01*
X158389267Y-100266019D01*
X158382428Y-100259180D01*
X158377186Y-100247938D01*
X158359800Y-100221919D01*
X158355892Y-100202274D01*
X158352028Y-100193987D01*
X158347690Y-100161040D01*
X158344500Y-100145000D01*
X158344500Y-99845000D01*
X158347690Y-99828961D01*
X158352028Y-99796012D01*
X158355892Y-99787723D01*
X158359800Y-99768081D01*
X158377184Y-99742063D01*
X158382428Y-99730819D01*
X158389269Y-99723977D01*
X158403372Y-99702872D01*
X158424477Y-99688769D01*
X158431319Y-99681928D01*
X158442563Y-99676684D01*
X158468581Y-99659300D01*
X158488223Y-99655392D01*
X158496512Y-99651528D01*
X158529461Y-99647190D01*
X158545500Y-99644000D01*
X159970500Y-99644000D01*
X159986540Y-99647190D01*
G37*
G36*
X145405414Y-97681995D02*
G01*
X145421226Y-97688976D01*
X145429031Y-97690213D01*
X145461539Y-97706776D01*
X145506606Y-97726676D01*
X145584824Y-97804894D01*
X145604726Y-97849967D01*
X145621286Y-97882468D01*
X145622521Y-97890270D01*
X145629505Y-97906086D01*
X145637500Y-97975000D01*
X145637500Y-98875000D01*
X145629505Y-98943914D01*
X145622521Y-98959729D01*
X145621286Y-98967531D01*
X145604729Y-99000024D01*
X145584824Y-99045106D01*
X145506606Y-99123324D01*
X145461524Y-99143229D01*
X145429031Y-99159786D01*
X145421229Y-99161021D01*
X145405414Y-99168005D01*
X145336500Y-99176000D01*
X144811500Y-99176000D01*
X144742586Y-99168005D01*
X144726770Y-99161021D01*
X144718968Y-99159786D01*
X144686467Y-99143226D01*
X144641394Y-99123324D01*
X144563176Y-99045106D01*
X144543276Y-99000039D01*
X144526713Y-98967531D01*
X144525476Y-98959726D01*
X144518495Y-98943914D01*
X144510500Y-98875000D01*
X144510500Y-97975000D01*
X144518495Y-97906086D01*
X144525476Y-97890274D01*
X144526713Y-97882468D01*
X144543280Y-97849953D01*
X144563176Y-97804894D01*
X144641394Y-97726676D01*
X144686453Y-97706780D01*
X144718968Y-97690213D01*
X144726774Y-97688976D01*
X144742586Y-97681995D01*
X144811500Y-97674000D01*
X145336500Y-97674000D01*
X145405414Y-97681995D01*
G37*
G36*
X147230414Y-97681995D02*
G01*
X147246226Y-97688976D01*
X147254031Y-97690213D01*
X147286539Y-97706776D01*
X147331606Y-97726676D01*
X147409824Y-97804894D01*
X147429726Y-97849967D01*
X147446286Y-97882468D01*
X147447521Y-97890270D01*
X147454505Y-97906086D01*
X147462500Y-97975000D01*
X147462500Y-98875000D01*
X147454505Y-98943914D01*
X147447521Y-98959729D01*
X147446286Y-98967531D01*
X147429729Y-99000024D01*
X147409824Y-99045106D01*
X147331606Y-99123324D01*
X147286524Y-99143229D01*
X147254031Y-99159786D01*
X147246229Y-99161021D01*
X147230414Y-99168005D01*
X147161500Y-99176000D01*
X146636500Y-99176000D01*
X146567586Y-99168005D01*
X146551770Y-99161021D01*
X146543968Y-99159786D01*
X146511467Y-99143226D01*
X146466394Y-99123324D01*
X146388176Y-99045106D01*
X146368276Y-99000039D01*
X146351713Y-98967531D01*
X146350476Y-98959726D01*
X146343495Y-98943914D01*
X146335500Y-98875000D01*
X146335500Y-97975000D01*
X146343495Y-97906086D01*
X146350476Y-97890274D01*
X146351713Y-97882468D01*
X146368280Y-97849953D01*
X146388176Y-97804894D01*
X146466394Y-97726676D01*
X146511453Y-97706780D01*
X146543968Y-97690213D01*
X146551774Y-97688976D01*
X146567586Y-97681995D01*
X146636500Y-97674000D01*
X147161500Y-97674000D01*
X147230414Y-97681995D01*
G37*
G36*
X149826540Y-98377190D02*
G01*
X149859487Y-98381528D01*
X149867774Y-98385392D01*
X149887419Y-98389300D01*
X149913438Y-98406686D01*
X149924680Y-98411928D01*
X149931519Y-98418767D01*
X149952628Y-98432872D01*
X149966732Y-98453980D01*
X149973571Y-98460819D01*
X149978812Y-98472058D01*
X149996200Y-98498081D01*
X150000107Y-98517727D01*
X150003971Y-98526012D01*
X150008306Y-98558946D01*
X150011500Y-98575000D01*
X150011500Y-98875000D01*
X150008306Y-98891054D01*
X150003971Y-98923987D01*
X150000108Y-98932270D01*
X149996200Y-98951919D01*
X149978810Y-98977943D01*
X149973571Y-98989180D01*
X149966734Y-98996016D01*
X149952628Y-99017128D01*
X149931516Y-99031234D01*
X149924680Y-99038071D01*
X149913443Y-99043310D01*
X149887419Y-99060700D01*
X149867770Y-99064608D01*
X149859487Y-99068471D01*
X149826554Y-99072806D01*
X149810500Y-99076000D01*
X148385500Y-99076000D01*
X148369446Y-99072806D01*
X148336512Y-99068471D01*
X148328227Y-99064607D01*
X148308581Y-99060700D01*
X148282558Y-99043312D01*
X148271319Y-99038071D01*
X148264480Y-99031232D01*
X148243372Y-99017128D01*
X148229267Y-98996019D01*
X148222428Y-98989180D01*
X148217186Y-98977938D01*
X148199800Y-98951919D01*
X148195892Y-98932274D01*
X148192028Y-98923987D01*
X148187690Y-98891040D01*
X148184500Y-98875000D01*
X148184500Y-98575000D01*
X148187690Y-98558961D01*
X148192028Y-98526012D01*
X148195892Y-98517723D01*
X148199800Y-98498081D01*
X148217184Y-98472063D01*
X148222428Y-98460819D01*
X148229269Y-98453977D01*
X148243372Y-98432872D01*
X148264477Y-98418769D01*
X148271319Y-98411928D01*
X148282563Y-98406684D01*
X148308581Y-98389300D01*
X148328223Y-98385392D01*
X148336512Y-98381528D01*
X148369461Y-98377190D01*
X148385500Y-98374000D01*
X149810500Y-98374000D01*
X149826540Y-98377190D01*
G37*
G36*
X160006540Y-98377190D02*
G01*
X160039487Y-98381528D01*
X160047774Y-98385392D01*
X160067419Y-98389300D01*
X160093438Y-98406686D01*
X160104680Y-98411928D01*
X160111519Y-98418767D01*
X160132628Y-98432872D01*
X160146732Y-98453980D01*
X160153571Y-98460819D01*
X160158812Y-98472058D01*
X160176200Y-98498081D01*
X160180107Y-98517727D01*
X160183971Y-98526012D01*
X160188306Y-98558946D01*
X160191500Y-98575000D01*
X160191500Y-98875000D01*
X160188306Y-98891054D01*
X160183971Y-98923987D01*
X160180108Y-98932270D01*
X160176200Y-98951919D01*
X160158810Y-98977943D01*
X160153571Y-98989180D01*
X160146734Y-98996016D01*
X160132628Y-99017128D01*
X160111516Y-99031234D01*
X160104680Y-99038071D01*
X160093443Y-99043310D01*
X160067419Y-99060700D01*
X160047770Y-99064608D01*
X160039487Y-99068471D01*
X160006554Y-99072806D01*
X159990500Y-99076000D01*
X158565500Y-99076000D01*
X158549446Y-99072806D01*
X158516512Y-99068471D01*
X158508227Y-99064607D01*
X158488581Y-99060700D01*
X158462558Y-99043312D01*
X158451319Y-99038071D01*
X158444480Y-99031232D01*
X158423372Y-99017128D01*
X158409267Y-98996019D01*
X158402428Y-98989180D01*
X158397186Y-98977938D01*
X158379800Y-98951919D01*
X158375892Y-98932274D01*
X158372028Y-98923987D01*
X158367690Y-98891040D01*
X158364500Y-98875000D01*
X158364500Y-98575000D01*
X158367690Y-98558961D01*
X158372028Y-98526012D01*
X158375892Y-98517723D01*
X158379800Y-98498081D01*
X158397184Y-98472063D01*
X158402428Y-98460819D01*
X158409269Y-98453977D01*
X158423372Y-98432872D01*
X158444477Y-98418769D01*
X158451319Y-98411928D01*
X158462563Y-98406684D01*
X158488581Y-98389300D01*
X158508223Y-98385392D01*
X158516512Y-98381528D01*
X158549461Y-98377190D01*
X158565500Y-98374000D01*
X159990500Y-98374000D01*
X160006540Y-98377190D01*
G37*
G36*
X162087914Y-97566995D02*
G01*
X162103726Y-97573976D01*
X162111531Y-97575213D01*
X162144039Y-97591776D01*
X162189106Y-97611676D01*
X162267324Y-97689894D01*
X162287226Y-97734967D01*
X162303786Y-97767468D01*
X162305021Y-97775270D01*
X162312005Y-97791086D01*
X162320000Y-97860000D01*
X162320000Y-98360000D01*
X162312005Y-98428914D01*
X162305021Y-98444729D01*
X162303786Y-98452531D01*
X162287229Y-98485024D01*
X162267324Y-98530106D01*
X162189106Y-98608324D01*
X162144024Y-98628229D01*
X162111531Y-98644786D01*
X162103729Y-98646021D01*
X162087914Y-98653005D01*
X162019000Y-98661000D01*
X161069000Y-98661000D01*
X161000086Y-98653005D01*
X160984270Y-98646021D01*
X160976468Y-98644786D01*
X160943967Y-98628226D01*
X160898894Y-98608324D01*
X160820676Y-98530106D01*
X160800776Y-98485039D01*
X160784213Y-98452531D01*
X160782976Y-98444726D01*
X160775995Y-98428914D01*
X160768000Y-98360000D01*
X160768000Y-97860000D01*
X160775995Y-97791086D01*
X160782976Y-97775274D01*
X160784213Y-97767468D01*
X160800780Y-97734953D01*
X160820676Y-97689894D01*
X160898894Y-97611676D01*
X160943953Y-97591780D01*
X160976468Y-97575213D01*
X160984274Y-97573976D01*
X161000086Y-97566995D01*
X161069000Y-97559000D01*
X162019000Y-97559000D01*
X162087914Y-97566995D01*
G37*
M02*
