G04 #@! TF.GenerationSoftware,KiCad,Pcbnew,7.0.11*
G04 #@! TF.CreationDate,2025-05-05T07:07:12+10:00*
G04 #@! TF.ProjectId,MAP Card,4d415020-4361-4726-942e-6b696361645f,rev?*
G04 #@! TF.SameCoordinates,Original*
G04 #@! TF.FileFunction,Legend,Bot*
G04 #@! TF.FilePolarity,Positive*
%FSLAX46Y46*%
G04 Gerber Fmt 4.6, Leading zero omitted, Abs format (unit mm)*
G04 Created by KiCad (PCBNEW 7.0.11) date 2025-05-05 07:07:12*
%MOMM*%
%LPD*%
G01*
G04 APERTURE LIST*
%ADD10C,0.150000*%
G04 APERTURE END LIST*
D10*
X157646143Y-98948009D02*
X157979476Y-98948009D01*
X157979476Y-99471819D02*
X157979476Y-98471819D01*
X157979476Y-98471819D02*
X157503286Y-98471819D01*
X156979476Y-99471819D02*
X157074714Y-99424200D01*
X157074714Y-99424200D02*
X157122333Y-99376580D01*
X157122333Y-99376580D02*
X157169952Y-99281342D01*
X157169952Y-99281342D02*
X157169952Y-98995628D01*
X157169952Y-98995628D02*
X157122333Y-98900390D01*
X157122333Y-98900390D02*
X157074714Y-98852771D01*
X157074714Y-98852771D02*
X156979476Y-98805152D01*
X156979476Y-98805152D02*
X156836619Y-98805152D01*
X156836619Y-98805152D02*
X156741381Y-98852771D01*
X156741381Y-98852771D02*
X156693762Y-98900390D01*
X156693762Y-98900390D02*
X156646143Y-98995628D01*
X156646143Y-98995628D02*
X156646143Y-99281342D01*
X156646143Y-99281342D02*
X156693762Y-99376580D01*
X156693762Y-99376580D02*
X156741381Y-99424200D01*
X156741381Y-99424200D02*
X156836619Y-99471819D01*
X156836619Y-99471819D02*
X156979476Y-99471819D01*
X156217571Y-99471819D02*
X156217571Y-98805152D01*
X156217571Y-98995628D02*
X156169952Y-98900390D01*
X156169952Y-98900390D02*
X156122333Y-98852771D01*
X156122333Y-98852771D02*
X156027095Y-98805152D01*
X156027095Y-98805152D02*
X155931857Y-98805152D01*
X154836618Y-99471819D02*
X154836618Y-98471819D01*
X154836618Y-98471819D02*
X154598523Y-98471819D01*
X154598523Y-98471819D02*
X154455666Y-98519438D01*
X154455666Y-98519438D02*
X154360428Y-98614676D01*
X154360428Y-98614676D02*
X154312809Y-98709914D01*
X154312809Y-98709914D02*
X154265190Y-98900390D01*
X154265190Y-98900390D02*
X154265190Y-99043247D01*
X154265190Y-99043247D02*
X154312809Y-99233723D01*
X154312809Y-99233723D02*
X154360428Y-99328961D01*
X154360428Y-99328961D02*
X154455666Y-99424200D01*
X154455666Y-99424200D02*
X154598523Y-99471819D01*
X154598523Y-99471819D02*
X154836618Y-99471819D01*
X153836618Y-99471819D02*
X153836618Y-98805152D01*
X153836618Y-98995628D02*
X153788999Y-98900390D01*
X153788999Y-98900390D02*
X153741380Y-98852771D01*
X153741380Y-98852771D02*
X153646142Y-98805152D01*
X153646142Y-98805152D02*
X153550904Y-98805152D01*
X153074713Y-99471819D02*
X153169951Y-99424200D01*
X153169951Y-99424200D02*
X153217570Y-99376580D01*
X153217570Y-99376580D02*
X153265189Y-99281342D01*
X153265189Y-99281342D02*
X153265189Y-98995628D01*
X153265189Y-98995628D02*
X153217570Y-98900390D01*
X153217570Y-98900390D02*
X153169951Y-98852771D01*
X153169951Y-98852771D02*
X153074713Y-98805152D01*
X153074713Y-98805152D02*
X152931856Y-98805152D01*
X152931856Y-98805152D02*
X152836618Y-98852771D01*
X152836618Y-98852771D02*
X152788999Y-98900390D01*
X152788999Y-98900390D02*
X152741380Y-98995628D01*
X152741380Y-98995628D02*
X152741380Y-99281342D01*
X152741380Y-99281342D02*
X152788999Y-99376580D01*
X152788999Y-99376580D02*
X152836618Y-99424200D01*
X152836618Y-99424200D02*
X152931856Y-99471819D01*
X152931856Y-99471819D02*
X153074713Y-99471819D01*
X152312808Y-98805152D02*
X152312808Y-99805152D01*
X152312808Y-98852771D02*
X152217570Y-98805152D01*
X152217570Y-98805152D02*
X152027094Y-98805152D01*
X152027094Y-98805152D02*
X151931856Y-98852771D01*
X151931856Y-98852771D02*
X151884237Y-98900390D01*
X151884237Y-98900390D02*
X151836618Y-98995628D01*
X151836618Y-98995628D02*
X151836618Y-99281342D01*
X151836618Y-99281342D02*
X151884237Y-99376580D01*
X151884237Y-99376580D02*
X151931856Y-99424200D01*
X151931856Y-99424200D02*
X152027094Y-99471819D01*
X152027094Y-99471819D02*
X152217570Y-99471819D01*
X152217570Y-99471819D02*
X152312808Y-99424200D01*
X151408046Y-99471819D02*
X151408046Y-98471819D01*
X151408046Y-98852771D02*
X151312808Y-98805152D01*
X151312808Y-98805152D02*
X151122332Y-98805152D01*
X151122332Y-98805152D02*
X151027094Y-98852771D01*
X151027094Y-98852771D02*
X150979475Y-98900390D01*
X150979475Y-98900390D02*
X150931856Y-98995628D01*
X150931856Y-98995628D02*
X150931856Y-99281342D01*
X150931856Y-99281342D02*
X150979475Y-99376580D01*
X150979475Y-99376580D02*
X151027094Y-99424200D01*
X151027094Y-99424200D02*
X151122332Y-99471819D01*
X151122332Y-99471819D02*
X151312808Y-99471819D01*
X151312808Y-99471819D02*
X151408046Y-99424200D01*
X150122332Y-99424200D02*
X150217570Y-99471819D01*
X150217570Y-99471819D02*
X150408046Y-99471819D01*
X150408046Y-99471819D02*
X150503284Y-99424200D01*
X150503284Y-99424200D02*
X150550903Y-99328961D01*
X150550903Y-99328961D02*
X150550903Y-98948009D01*
X150550903Y-98948009D02*
X150503284Y-98852771D01*
X150503284Y-98852771D02*
X150408046Y-98805152D01*
X150408046Y-98805152D02*
X150217570Y-98805152D01*
X150217570Y-98805152D02*
X150122332Y-98852771D01*
X150122332Y-98852771D02*
X150074713Y-98948009D01*
X150074713Y-98948009D02*
X150074713Y-99043247D01*
X150074713Y-99043247D02*
X150550903Y-99138485D01*
X149217570Y-99471819D02*
X149217570Y-98948009D01*
X149217570Y-98948009D02*
X149265189Y-98852771D01*
X149265189Y-98852771D02*
X149360427Y-98805152D01*
X149360427Y-98805152D02*
X149550903Y-98805152D01*
X149550903Y-98805152D02*
X149646141Y-98852771D01*
X149217570Y-99424200D02*
X149312808Y-99471819D01*
X149312808Y-99471819D02*
X149550903Y-99471819D01*
X149550903Y-99471819D02*
X149646141Y-99424200D01*
X149646141Y-99424200D02*
X149693760Y-99328961D01*
X149693760Y-99328961D02*
X149693760Y-99233723D01*
X149693760Y-99233723D02*
X149646141Y-99138485D01*
X149646141Y-99138485D02*
X149550903Y-99090866D01*
X149550903Y-99090866D02*
X149312808Y-99090866D01*
X149312808Y-99090866D02*
X149217570Y-99043247D01*
X148741379Y-99471819D02*
X148741379Y-98805152D01*
X148741379Y-98995628D02*
X148693760Y-98900390D01*
X148693760Y-98900390D02*
X148646141Y-98852771D01*
X148646141Y-98852771D02*
X148550903Y-98805152D01*
X148550903Y-98805152D02*
X148455665Y-98805152D01*
X158312810Y-100319914D02*
X158408049Y-100272295D01*
X158408049Y-100272295D02*
X158598525Y-100272295D01*
X158598525Y-100272295D02*
X158693763Y-100319914D01*
X158693763Y-100319914D02*
X158789001Y-100415152D01*
X158789001Y-100415152D02*
X158836620Y-100510390D01*
X158836620Y-100510390D02*
X158836620Y-100700866D01*
X158836620Y-100700866D02*
X158789001Y-100796104D01*
X158789001Y-100796104D02*
X158693763Y-100891342D01*
X158693763Y-100891342D02*
X158598525Y-100938961D01*
X158598525Y-100938961D02*
X158408049Y-100938961D01*
X158408049Y-100938961D02*
X158312810Y-100891342D01*
X158503287Y-99938961D02*
X158741382Y-99986580D01*
X158741382Y-99986580D02*
X158979477Y-100129438D01*
X158979477Y-100129438D02*
X159122334Y-100367533D01*
X159122334Y-100367533D02*
X159169953Y-100605628D01*
X159169953Y-100605628D02*
X159122334Y-100843723D01*
X159122334Y-100843723D02*
X158979477Y-101081819D01*
X158979477Y-101081819D02*
X158741382Y-101224676D01*
X158741382Y-101224676D02*
X158503287Y-101272295D01*
X158503287Y-101272295D02*
X158265191Y-101224676D01*
X158265191Y-101224676D02*
X158027096Y-101081819D01*
X158027096Y-101081819D02*
X157884239Y-100843723D01*
X157884239Y-100843723D02*
X157836620Y-100605628D01*
X157836620Y-100605628D02*
X157884239Y-100367533D01*
X157884239Y-100367533D02*
X158027096Y-100129438D01*
X158027096Y-100129438D02*
X158265191Y-99986580D01*
X158265191Y-99986580D02*
X158503287Y-99938961D01*
X156360429Y-100081819D02*
X156360429Y-100796104D01*
X156360429Y-100796104D02*
X156408048Y-100938961D01*
X156408048Y-100938961D02*
X156503286Y-101034200D01*
X156503286Y-101034200D02*
X156646143Y-101081819D01*
X156646143Y-101081819D02*
X156741381Y-101081819D01*
X155741381Y-101081819D02*
X155836619Y-101034200D01*
X155836619Y-101034200D02*
X155884238Y-100986580D01*
X155884238Y-100986580D02*
X155931857Y-100891342D01*
X155931857Y-100891342D02*
X155931857Y-100605628D01*
X155931857Y-100605628D02*
X155884238Y-100510390D01*
X155884238Y-100510390D02*
X155836619Y-100462771D01*
X155836619Y-100462771D02*
X155741381Y-100415152D01*
X155741381Y-100415152D02*
X155598524Y-100415152D01*
X155598524Y-100415152D02*
X155503286Y-100462771D01*
X155503286Y-100462771D02*
X155455667Y-100510390D01*
X155455667Y-100510390D02*
X155408048Y-100605628D01*
X155408048Y-100605628D02*
X155408048Y-100891342D01*
X155408048Y-100891342D02*
X155455667Y-100986580D01*
X155455667Y-100986580D02*
X155503286Y-101034200D01*
X155503286Y-101034200D02*
X155598524Y-101081819D01*
X155598524Y-101081819D02*
X155741381Y-101081819D01*
X155027095Y-101034200D02*
X154931857Y-101081819D01*
X154931857Y-101081819D02*
X154741381Y-101081819D01*
X154741381Y-101081819D02*
X154646143Y-101034200D01*
X154646143Y-101034200D02*
X154598524Y-100938961D01*
X154598524Y-100938961D02*
X154598524Y-100891342D01*
X154598524Y-100891342D02*
X154646143Y-100796104D01*
X154646143Y-100796104D02*
X154741381Y-100748485D01*
X154741381Y-100748485D02*
X154884238Y-100748485D01*
X154884238Y-100748485D02*
X154979476Y-100700866D01*
X154979476Y-100700866D02*
X155027095Y-100605628D01*
X155027095Y-100605628D02*
X155027095Y-100558009D01*
X155027095Y-100558009D02*
X154979476Y-100462771D01*
X154979476Y-100462771D02*
X154884238Y-100415152D01*
X154884238Y-100415152D02*
X154741381Y-100415152D01*
X154741381Y-100415152D02*
X154646143Y-100462771D01*
X154169952Y-101081819D02*
X154169952Y-100081819D01*
X153741381Y-101081819D02*
X153741381Y-100558009D01*
X153741381Y-100558009D02*
X153789000Y-100462771D01*
X153789000Y-100462771D02*
X153884238Y-100415152D01*
X153884238Y-100415152D02*
X154027095Y-100415152D01*
X154027095Y-100415152D02*
X154122333Y-100462771D01*
X154122333Y-100462771D02*
X154169952Y-100510390D01*
X152550904Y-101034200D02*
X152408047Y-101081819D01*
X152408047Y-101081819D02*
X152169952Y-101081819D01*
X152169952Y-101081819D02*
X152074714Y-101034200D01*
X152074714Y-101034200D02*
X152027095Y-100986580D01*
X152027095Y-100986580D02*
X151979476Y-100891342D01*
X151979476Y-100891342D02*
X151979476Y-100796104D01*
X151979476Y-100796104D02*
X152027095Y-100700866D01*
X152027095Y-100700866D02*
X152074714Y-100653247D01*
X152074714Y-100653247D02*
X152169952Y-100605628D01*
X152169952Y-100605628D02*
X152360428Y-100558009D01*
X152360428Y-100558009D02*
X152455666Y-100510390D01*
X152455666Y-100510390D02*
X152503285Y-100462771D01*
X152503285Y-100462771D02*
X152550904Y-100367533D01*
X152550904Y-100367533D02*
X152550904Y-100272295D01*
X152550904Y-100272295D02*
X152503285Y-100177057D01*
X152503285Y-100177057D02*
X152455666Y-100129438D01*
X152455666Y-100129438D02*
X152360428Y-100081819D01*
X152360428Y-100081819D02*
X152122333Y-100081819D01*
X152122333Y-100081819D02*
X151979476Y-100129438D01*
X151693761Y-100415152D02*
X151312809Y-100415152D01*
X151550904Y-100081819D02*
X151550904Y-100938961D01*
X151550904Y-100938961D02*
X151503285Y-101034200D01*
X151503285Y-101034200D02*
X151408047Y-101081819D01*
X151408047Y-101081819D02*
X151312809Y-101081819D01*
X150598523Y-101034200D02*
X150693761Y-101081819D01*
X150693761Y-101081819D02*
X150884237Y-101081819D01*
X150884237Y-101081819D02*
X150979475Y-101034200D01*
X150979475Y-101034200D02*
X151027094Y-100938961D01*
X151027094Y-100938961D02*
X151027094Y-100558009D01*
X151027094Y-100558009D02*
X150979475Y-100462771D01*
X150979475Y-100462771D02*
X150884237Y-100415152D01*
X150884237Y-100415152D02*
X150693761Y-100415152D01*
X150693761Y-100415152D02*
X150598523Y-100462771D01*
X150598523Y-100462771D02*
X150550904Y-100558009D01*
X150550904Y-100558009D02*
X150550904Y-100653247D01*
X150550904Y-100653247D02*
X151027094Y-100748485D01*
X150217570Y-100415152D02*
X150027094Y-101081819D01*
X150027094Y-101081819D02*
X149836618Y-100605628D01*
X149836618Y-100605628D02*
X149646142Y-101081819D01*
X149646142Y-101081819D02*
X149455666Y-100415152D01*
X148646142Y-101081819D02*
X148646142Y-100558009D01*
X148646142Y-100558009D02*
X148693761Y-100462771D01*
X148693761Y-100462771D02*
X148788999Y-100415152D01*
X148788999Y-100415152D02*
X148979475Y-100415152D01*
X148979475Y-100415152D02*
X149074713Y-100462771D01*
X148646142Y-101034200D02*
X148741380Y-101081819D01*
X148741380Y-101081819D02*
X148979475Y-101081819D01*
X148979475Y-101081819D02*
X149074713Y-101034200D01*
X149074713Y-101034200D02*
X149122332Y-100938961D01*
X149122332Y-100938961D02*
X149122332Y-100843723D01*
X149122332Y-100843723D02*
X149074713Y-100748485D01*
X149074713Y-100748485D02*
X148979475Y-100700866D01*
X148979475Y-100700866D02*
X148741380Y-100700866D01*
X148741380Y-100700866D02*
X148646142Y-100653247D01*
X148169951Y-101081819D02*
X148169951Y-100415152D01*
X148169951Y-100605628D02*
X148122332Y-100510390D01*
X148122332Y-100510390D02*
X148074713Y-100462771D01*
X148074713Y-100462771D02*
X147979475Y-100415152D01*
X147979475Y-100415152D02*
X147884237Y-100415152D01*
X147693760Y-100415152D02*
X147312808Y-100415152D01*
X147550903Y-100081819D02*
X147550903Y-100938961D01*
X147550903Y-100938961D02*
X147503284Y-101034200D01*
X147503284Y-101034200D02*
X147408046Y-101081819D01*
X147408046Y-101081819D02*
X147312808Y-101081819D01*
X162876333Y-96451057D02*
X162828714Y-96403438D01*
X162828714Y-96403438D02*
X162733476Y-96355819D01*
X162733476Y-96355819D02*
X162495381Y-96355819D01*
X162495381Y-96355819D02*
X162400143Y-96403438D01*
X162400143Y-96403438D02*
X162352524Y-96451057D01*
X162352524Y-96451057D02*
X162304905Y-96546295D01*
X162304905Y-96546295D02*
X162304905Y-96641533D01*
X162304905Y-96641533D02*
X162352524Y-96784390D01*
X162352524Y-96784390D02*
X162923952Y-97355819D01*
X162923952Y-97355819D02*
X162304905Y-97355819D01*
X161400143Y-96355819D02*
X161876333Y-96355819D01*
X161876333Y-96355819D02*
X161923952Y-96832009D01*
X161923952Y-96832009D02*
X161876333Y-96784390D01*
X161876333Y-96784390D02*
X161781095Y-96736771D01*
X161781095Y-96736771D02*
X161543000Y-96736771D01*
X161543000Y-96736771D02*
X161447762Y-96784390D01*
X161447762Y-96784390D02*
X161400143Y-96832009D01*
X161400143Y-96832009D02*
X161352524Y-96927247D01*
X161352524Y-96927247D02*
X161352524Y-97165342D01*
X161352524Y-97165342D02*
X161400143Y-97260580D01*
X161400143Y-97260580D02*
X161447762Y-97308200D01*
X161447762Y-97308200D02*
X161543000Y-97355819D01*
X161543000Y-97355819D02*
X161781095Y-97355819D01*
X161781095Y-97355819D02*
X161876333Y-97308200D01*
X161876333Y-97308200D02*
X161923952Y-97260580D01*
X160733476Y-96355819D02*
X160638238Y-96355819D01*
X160638238Y-96355819D02*
X160543000Y-96403438D01*
X160543000Y-96403438D02*
X160495381Y-96451057D01*
X160495381Y-96451057D02*
X160447762Y-96546295D01*
X160447762Y-96546295D02*
X160400143Y-96736771D01*
X160400143Y-96736771D02*
X160400143Y-96974866D01*
X160400143Y-96974866D02*
X160447762Y-97165342D01*
X160447762Y-97165342D02*
X160495381Y-97260580D01*
X160495381Y-97260580D02*
X160543000Y-97308200D01*
X160543000Y-97308200D02*
X160638238Y-97355819D01*
X160638238Y-97355819D02*
X160733476Y-97355819D01*
X160733476Y-97355819D02*
X160828714Y-97308200D01*
X160828714Y-97308200D02*
X160876333Y-97260580D01*
X160876333Y-97260580D02*
X160923952Y-97165342D01*
X160923952Y-97165342D02*
X160971571Y-96974866D01*
X160971571Y-96974866D02*
X160971571Y-96736771D01*
X160971571Y-96736771D02*
X160923952Y-96546295D01*
X160923952Y-96546295D02*
X160876333Y-96451057D01*
X160876333Y-96451057D02*
X160828714Y-96403438D01*
X160828714Y-96403438D02*
X160733476Y-96355819D01*
X159971571Y-97355819D02*
X159971571Y-96355819D01*
X159876333Y-96974866D02*
X159590619Y-97355819D01*
X159590619Y-96689152D02*
X159971571Y-97070104D01*
X159162047Y-97355819D02*
X159162047Y-96355819D01*
X159162047Y-96355819D02*
X158781095Y-96355819D01*
X158781095Y-96355819D02*
X158685857Y-96403438D01*
X158685857Y-96403438D02*
X158638238Y-96451057D01*
X158638238Y-96451057D02*
X158590619Y-96546295D01*
X158590619Y-96546295D02*
X158590619Y-96689152D01*
X158590619Y-96689152D02*
X158638238Y-96784390D01*
X158638238Y-96784390D02*
X158685857Y-96832009D01*
X158685857Y-96832009D02*
X158781095Y-96879628D01*
X158781095Y-96879628D02*
X159162047Y-96879628D01*
X157733476Y-97355819D02*
X157733476Y-96832009D01*
X157733476Y-96832009D02*
X157781095Y-96736771D01*
X157781095Y-96736771D02*
X157876333Y-96689152D01*
X157876333Y-96689152D02*
X158066809Y-96689152D01*
X158066809Y-96689152D02*
X158162047Y-96736771D01*
X157733476Y-97308200D02*
X157828714Y-97355819D01*
X157828714Y-97355819D02*
X158066809Y-97355819D01*
X158066809Y-97355819D02*
X158162047Y-97308200D01*
X158162047Y-97308200D02*
X158209666Y-97212961D01*
X158209666Y-97212961D02*
X158209666Y-97117723D01*
X158209666Y-97117723D02*
X158162047Y-97022485D01*
X158162047Y-97022485D02*
X158066809Y-96974866D01*
X158066809Y-96974866D02*
X157828714Y-96974866D01*
X157828714Y-96974866D02*
X157733476Y-96927247D01*
X156495380Y-97355819D02*
X156495380Y-96355819D01*
X156495380Y-96355819D02*
X156162047Y-97070104D01*
X156162047Y-97070104D02*
X155828714Y-96355819D01*
X155828714Y-96355819D02*
X155828714Y-97355819D01*
X155400142Y-97070104D02*
X154923952Y-97070104D01*
X155495380Y-97355819D02*
X155162047Y-96355819D01*
X155162047Y-96355819D02*
X154828714Y-97355819D01*
X154495380Y-97355819D02*
X154495380Y-96355819D01*
X154495380Y-96355819D02*
X154114428Y-96355819D01*
X154114428Y-96355819D02*
X154019190Y-96403438D01*
X154019190Y-96403438D02*
X153971571Y-96451057D01*
X153971571Y-96451057D02*
X153923952Y-96546295D01*
X153923952Y-96546295D02*
X153923952Y-96689152D01*
X153923952Y-96689152D02*
X153971571Y-96784390D01*
X153971571Y-96784390D02*
X154019190Y-96832009D01*
X154019190Y-96832009D02*
X154114428Y-96879628D01*
X154114428Y-96879628D02*
X154495380Y-96879628D01*
X152781094Y-97308200D02*
X152638237Y-97355819D01*
X152638237Y-97355819D02*
X152400142Y-97355819D01*
X152400142Y-97355819D02*
X152304904Y-97308200D01*
X152304904Y-97308200D02*
X152257285Y-97260580D01*
X152257285Y-97260580D02*
X152209666Y-97165342D01*
X152209666Y-97165342D02*
X152209666Y-97070104D01*
X152209666Y-97070104D02*
X152257285Y-96974866D01*
X152257285Y-96974866D02*
X152304904Y-96927247D01*
X152304904Y-96927247D02*
X152400142Y-96879628D01*
X152400142Y-96879628D02*
X152590618Y-96832009D01*
X152590618Y-96832009D02*
X152685856Y-96784390D01*
X152685856Y-96784390D02*
X152733475Y-96736771D01*
X152733475Y-96736771D02*
X152781094Y-96641533D01*
X152781094Y-96641533D02*
X152781094Y-96546295D01*
X152781094Y-96546295D02*
X152733475Y-96451057D01*
X152733475Y-96451057D02*
X152685856Y-96403438D01*
X152685856Y-96403438D02*
X152590618Y-96355819D01*
X152590618Y-96355819D02*
X152352523Y-96355819D01*
X152352523Y-96355819D02*
X152209666Y-96403438D01*
X151400142Y-97308200D02*
X151495380Y-97355819D01*
X151495380Y-97355819D02*
X151685856Y-97355819D01*
X151685856Y-97355819D02*
X151781094Y-97308200D01*
X151781094Y-97308200D02*
X151828713Y-97212961D01*
X151828713Y-97212961D02*
X151828713Y-96832009D01*
X151828713Y-96832009D02*
X151781094Y-96736771D01*
X151781094Y-96736771D02*
X151685856Y-96689152D01*
X151685856Y-96689152D02*
X151495380Y-96689152D01*
X151495380Y-96689152D02*
X151400142Y-96736771D01*
X151400142Y-96736771D02*
X151352523Y-96832009D01*
X151352523Y-96832009D02*
X151352523Y-96927247D01*
X151352523Y-96927247D02*
X151828713Y-97022485D01*
X150923951Y-96689152D02*
X150923951Y-97355819D01*
X150923951Y-96784390D02*
X150876332Y-96736771D01*
X150876332Y-96736771D02*
X150781094Y-96689152D01*
X150781094Y-96689152D02*
X150638237Y-96689152D01*
X150638237Y-96689152D02*
X150542999Y-96736771D01*
X150542999Y-96736771D02*
X150495380Y-96832009D01*
X150495380Y-96832009D02*
X150495380Y-97355819D01*
X150066808Y-97308200D02*
X149971570Y-97355819D01*
X149971570Y-97355819D02*
X149781094Y-97355819D01*
X149781094Y-97355819D02*
X149685856Y-97308200D01*
X149685856Y-97308200D02*
X149638237Y-97212961D01*
X149638237Y-97212961D02*
X149638237Y-97165342D01*
X149638237Y-97165342D02*
X149685856Y-97070104D01*
X149685856Y-97070104D02*
X149781094Y-97022485D01*
X149781094Y-97022485D02*
X149923951Y-97022485D01*
X149923951Y-97022485D02*
X150019189Y-96974866D01*
X150019189Y-96974866D02*
X150066808Y-96879628D01*
X150066808Y-96879628D02*
X150066808Y-96832009D01*
X150066808Y-96832009D02*
X150019189Y-96736771D01*
X150019189Y-96736771D02*
X149923951Y-96689152D01*
X149923951Y-96689152D02*
X149781094Y-96689152D01*
X149781094Y-96689152D02*
X149685856Y-96736771D01*
X149066808Y-97355819D02*
X149162046Y-97308200D01*
X149162046Y-97308200D02*
X149209665Y-97260580D01*
X149209665Y-97260580D02*
X149257284Y-97165342D01*
X149257284Y-97165342D02*
X149257284Y-96879628D01*
X149257284Y-96879628D02*
X149209665Y-96784390D01*
X149209665Y-96784390D02*
X149162046Y-96736771D01*
X149162046Y-96736771D02*
X149066808Y-96689152D01*
X149066808Y-96689152D02*
X148923951Y-96689152D01*
X148923951Y-96689152D02*
X148828713Y-96736771D01*
X148828713Y-96736771D02*
X148781094Y-96784390D01*
X148781094Y-96784390D02*
X148733475Y-96879628D01*
X148733475Y-96879628D02*
X148733475Y-97165342D01*
X148733475Y-97165342D02*
X148781094Y-97260580D01*
X148781094Y-97260580D02*
X148828713Y-97308200D01*
X148828713Y-97308200D02*
X148923951Y-97355819D01*
X148923951Y-97355819D02*
X149066808Y-97355819D01*
X148304903Y-97355819D02*
X148304903Y-96689152D01*
X148304903Y-96879628D02*
X148257284Y-96784390D01*
X148257284Y-96784390D02*
X148209665Y-96736771D01*
X148209665Y-96736771D02*
X148114427Y-96689152D01*
X148114427Y-96689152D02*
X148019189Y-96689152D01*
X147019188Y-96689152D02*
X146781093Y-97355819D01*
X146781093Y-97355819D02*
X146542998Y-96689152D01*
X145971569Y-96355819D02*
X145876331Y-96355819D01*
X145876331Y-96355819D02*
X145781093Y-96403438D01*
X145781093Y-96403438D02*
X145733474Y-96451057D01*
X145733474Y-96451057D02*
X145685855Y-96546295D01*
X145685855Y-96546295D02*
X145638236Y-96736771D01*
X145638236Y-96736771D02*
X145638236Y-96974866D01*
X145638236Y-96974866D02*
X145685855Y-97165342D01*
X145685855Y-97165342D02*
X145733474Y-97260580D01*
X145733474Y-97260580D02*
X145781093Y-97308200D01*
X145781093Y-97308200D02*
X145876331Y-97355819D01*
X145876331Y-97355819D02*
X145971569Y-97355819D01*
X145971569Y-97355819D02*
X146066807Y-97308200D01*
X146066807Y-97308200D02*
X146114426Y-97260580D01*
X146114426Y-97260580D02*
X146162045Y-97165342D01*
X146162045Y-97165342D02*
X146209664Y-96974866D01*
X146209664Y-96974866D02*
X146209664Y-96736771D01*
X146209664Y-96736771D02*
X146162045Y-96546295D01*
X146162045Y-96546295D02*
X146114426Y-96451057D01*
X146114426Y-96451057D02*
X146066807Y-96403438D01*
X146066807Y-96403438D02*
X145971569Y-96355819D01*
X145209664Y-97260580D02*
X145162045Y-97308200D01*
X145162045Y-97308200D02*
X145209664Y-97355819D01*
X145209664Y-97355819D02*
X145257283Y-97308200D01*
X145257283Y-97308200D02*
X145209664Y-97260580D01*
X145209664Y-97260580D02*
X145209664Y-97355819D01*
X144828712Y-96355819D02*
X144209665Y-96355819D01*
X144209665Y-96355819D02*
X144542998Y-96736771D01*
X144542998Y-96736771D02*
X144400141Y-96736771D01*
X144400141Y-96736771D02*
X144304903Y-96784390D01*
X144304903Y-96784390D02*
X144257284Y-96832009D01*
X144257284Y-96832009D02*
X144209665Y-96927247D01*
X144209665Y-96927247D02*
X144209665Y-97165342D01*
X144209665Y-97165342D02*
X144257284Y-97260580D01*
X144257284Y-97260580D02*
X144304903Y-97308200D01*
X144304903Y-97308200D02*
X144400141Y-97355819D01*
X144400141Y-97355819D02*
X144685855Y-97355819D01*
X144685855Y-97355819D02*
X144781093Y-97308200D01*
X144781093Y-97308200D02*
X144828712Y-97260580D01*
M02*
