M48
; DRILL file {KiCad (5.1.9-0-10_14)} date Thursday, May 13, 2021 at 10:30:59 PM
; FORMAT={-:-/ absolute / inch / decimal}
; #@! TF.CreationDate,2021-05-13T22:30:59+10:00
; #@! TF.GenerationSoftware,Kicad,Pcbnew,(5.1.9-0-10_14)
FMAT,2
INCH
T1C0.0157
T2C0.0276
T3C0.0315
T4C0.0331
T5C0.0354
T6C0.0394
T7C0.0398
T8C0.0400
T9C0.0433
T10C0.0472
T11C0.0512
T12C0.1614
T13C0.1378
%
G90
G05
T1
X4.43Y-4.54
X4.43Y-4.65
X4.43Y-4.82
X4.49Y-3.83
X4.53Y-3.22
X4.53Y-3.39
X4.64Y-2.48
X4.65Y-2.3
X4.8Y-4.65
X4.8Y-4.82
X4.89Y-1.8
X5.0Y-2.91
X5.0Y-2.95
X5.0Y-2.99
X5.02Y-2.3
X5.03Y-2.39
X5.04Y-2.91
X5.04Y-2.95
X5.04Y-2.99
X5.04Y-4.03
X5.08Y-2.91
X5.08Y-2.95
X5.08Y-2.99
X5.12Y-2.91
X5.12Y-2.95
X5.12Y-2.99
X5.3Y-5.22
X5.3031Y-4.8307
X5.3425Y-4.8307
X5.3661Y-4.437
X5.37Y-1.92
X5.3858Y-4.8346
X5.4094Y-4.5394
X5.42Y-1.87
X5.4213Y-4.8661
X5.49Y-5.01
X5.49Y-5.12
X5.55Y-3.6492
X5.6Y-4.44
X5.6024Y-4.8346
X5.63Y-5.12
X5.6309Y-4.74
X5.6772Y-4.7638
X5.7071Y-4.4349
X5.7081Y-4.4781
X5.8074Y-4.6357
X5.84Y-5.0085
X5.87Y-4.3
X5.88Y-4.19
X5.94Y-2.0015
X5.96Y-4.58
X5.96Y-4.64
X5.97Y-4.92
X5.98Y-2.68
X5.98Y-2.8
X5.98Y-2.97
X5.98Y-3.09
X5.98Y-3.28
X5.98Y-3.39
X6.02Y-4.32
X6.02Y-4.39
X6.02Y-4.58
X6.02Y-4.64
X6.03Y-5.06
X6.09Y-4.22
X6.12Y-2.17
X6.17Y-4.22
X6.32Y-3.78
X6.34Y-5.12
X6.41Y-2.36
X6.49Y-3.7387
X6.565Y-1.6909
X6.565Y-1.7909
X6.565Y-1.8909
X6.565Y-1.9909
X6.6Y-5.16
X6.6125Y-2.3676
X6.665Y-1.6909
X6.665Y-1.7909
X6.665Y-1.8909
X6.665Y-1.9909
X6.68Y-5.0085
X6.76Y-3.94
X6.765Y-1.6909
X6.765Y-1.7909
X6.765Y-1.8909
X6.765Y-1.9909
X6.7915Y-3.9
X6.8092Y-3.86
X6.85Y-3.11
X6.865Y-1.6909
X6.865Y-1.7909
X6.865Y-1.8909
X6.865Y-1.9909
X6.87Y-5.16
X6.91Y-2.27
X6.98Y-2.1
X6.98Y-5.1
X6.99Y-2.34
X7.03Y-2.3476
X7.07Y-2.1
X7.07Y-4.01
X7.1Y-4.16
X7.1Y-4.22
X7.1Y-4.28
X7.13Y-4.33
X7.15Y-4.57
X7.1654Y-2.1732
X7.24Y-4.57
X7.2441Y-3.7008
X7.25Y-5.1
X7.48Y-1.81
X7.53Y-4.6
X7.6378Y-4.6811
X7.75Y-5.01
X7.75Y-5.15
X7.83Y-4.73
X7.84Y-3.58
X7.85Y-2.23
X7.92Y-2.23
X8.2Y-4.96
X8.2Y-5.0
X8.25Y-1.73
X8.25Y-1.93
T2
X4.86Y-3.62
X4.86Y-3.82
X4.87Y-4.29
X4.87Y-4.49
X4.91Y-4.77
X4.91Y-4.97
X4.95Y-3.62
X4.95Y-3.82
X4.96Y-4.29
X4.96Y-4.49
X5.43Y-3.86
X5.49Y-4.25
X5.61Y-1.63
X5.61Y-1.72
X5.61Y-1.81
X5.61Y-1.9
X5.63Y-3.86
X5.69Y-4.25
X5.71Y-3.86
X5.77Y-4.25
X5.81Y-1.63
X5.81Y-1.72
X5.81Y-1.81
X5.81Y-1.9
X5.91Y-3.86
X5.92Y-2.36
X5.92Y-2.56
X5.93Y-5.16
X5.97Y-4.25
X5.99Y-3.86
X6.01Y-2.36
X6.01Y-2.56
X6.04Y-4.82
X6.04Y-4.91
X6.1Y-2.36
X6.1Y-2.56
X6.13Y-5.16
X6.19Y-2.36
X6.19Y-2.56
X6.19Y-3.86
X6.21Y-5.16
X6.24Y-4.82
X6.24Y-4.91
X6.27Y-3.86
X6.29Y-2.46
X6.29Y-2.55
X6.29Y-2.64
X6.29Y-2.73
X6.41Y-5.16
X6.47Y-3.86
X6.49Y-2.46
X6.49Y-2.55
X6.49Y-2.64
X6.49Y-2.73
X6.49Y-5.16
X6.56Y-3.79
X6.56Y-3.99
X6.65Y-3.79
X6.65Y-3.99
X6.69Y-5.16
X6.7Y-2.34
X6.7Y-2.52
X6.7Y-2.61
X6.74Y-4.54
X6.74Y-4.74
X6.77Y-5.16
X6.83Y-4.54
X6.83Y-4.74
X6.9Y-2.34
X6.9Y-2.52
X6.9Y-2.61
X6.92Y-4.54
X6.92Y-4.74
X6.97Y-5.16
X7.03Y-4.98
X7.22Y-4.38
X7.23Y-4.98
X7.29Y-3.8
X7.29Y-4.0
X7.3807Y-3.8
X7.3807Y-4.0
X7.42Y-4.38
X7.43Y-4.8861
X7.43Y-5.0861
X7.47Y-3.8
X7.47Y-4.0
X7.49Y-2.72
X7.49Y-2.81
X7.49Y-2.9
X7.49Y-2.99
X7.49Y-3.08
X7.49Y-3.17
X7.49Y-3.26
X7.49Y-3.35
X7.49Y-3.44
X7.69Y-2.72
X7.69Y-2.81
X7.69Y-2.9
X7.69Y-2.99
X7.69Y-3.08
X7.69Y-3.17
X7.69Y-3.26
X7.69Y-3.35
X7.69Y-3.44
X8.07Y-4.89
X8.07Y-5.09
T3
X4.65Y-3.14
X4.65Y-3.25
X4.65Y-3.36
X4.65Y-3.47
X4.95Y-3.14
X4.95Y-3.25
X4.95Y-3.36
X4.95Y-3.47
X5.09Y-2.67
X5.09Y-2.7684
X5.1142Y-2.0354
X5.1142Y-2.5354
X5.2142Y-2.0354
X5.2142Y-2.5354
X5.22Y-2.67
X5.22Y-2.7684
X5.3142Y-2.0354
X5.3142Y-2.5354
X5.4142Y-2.0354
X5.4142Y-2.5354
X5.5142Y-2.0354
X5.5142Y-2.5354
X5.6142Y-2.0354
X5.6142Y-2.5354
X5.7142Y-2.0354
X5.7142Y-2.5354
X5.8142Y-2.0354
X5.8142Y-2.5354
X5.8216Y-4.83
X5.92Y-4.83
X5.9316Y-1.64
X6.03Y-1.64
X6.09Y-1.79
X6.09Y-1.9869
X6.25Y-3.06
X6.25Y-3.4
X6.27Y-5.05
X6.33Y-4.56
X6.33Y-4.66
X6.33Y-4.76
X6.33Y-4.86
X6.34Y-4.26
X6.34Y-4.3584
X6.3684Y-5.05
X6.47Y-4.26
X6.47Y-4.3584
X6.55Y-3.06
X6.55Y-3.4
X6.6Y-4.26
X6.6Y-4.3584
X6.63Y-4.56
X6.63Y-4.66
X6.63Y-4.76
X6.63Y-4.86
X6.65Y-2.72
X6.65Y-2.82
X6.65Y-2.92
X6.65Y-3.02
X6.65Y-3.12
X6.65Y-3.22
X6.65Y-3.32
X6.65Y-3.42
X6.73Y-4.2616
X6.73Y-4.36
X6.8Y-4.92
X6.8Y-5.05
X6.86Y-4.26
X6.86Y-4.3584
X6.8984Y-4.92
X6.8984Y-5.05
X6.95Y-2.72
X6.95Y-2.82
X6.95Y-2.92
X6.95Y-3.02
X6.95Y-3.12
X6.95Y-3.22
X6.95Y-3.32
X6.95Y-3.42
X6.99Y-4.26
X6.99Y-4.3584
X7.03Y-4.56
X7.03Y-4.66
X7.03Y-4.76
X7.03Y-4.86
X7.0516Y-3.62
X7.0516Y-3.9
X7.07Y-2.69
X7.07Y-2.79
X7.07Y-2.89
X7.07Y-2.99
X7.07Y-3.12
X7.07Y-3.22
X7.07Y-3.32
X7.07Y-3.42
X7.08Y-5.16
X7.15Y-3.62
X7.15Y-3.9
X7.1784Y-5.16
X7.2716Y-4.27
X7.29Y-1.86
X7.29Y-1.9387
X7.33Y-4.56
X7.33Y-4.66
X7.33Y-4.76
X7.33Y-4.86
X7.3316Y-3.62
X7.37Y-2.69
X7.37Y-2.79
X7.37Y-2.89
X7.37Y-2.99
X7.37Y-3.12
X7.37Y-3.22
X7.37Y-3.32
X7.37Y-3.42
X7.37Y-4.27
X7.43Y-3.62
X7.53Y-4.27
X7.53Y-4.3684
X7.59Y-1.88
X7.59Y-1.9784
X7.5984Y-4.5622
X7.5984Y-4.8622
X7.66Y-4.27
X7.66Y-4.3684
X7.6984Y-4.5622
X7.6984Y-4.8622
X7.79Y-4.27
X7.79Y-4.3684
X7.7984Y-4.5622
X7.7984Y-4.8622
X7.82Y-4.01
X7.8984Y-4.5622
X7.8984Y-4.8622
X7.9184Y-4.01
X7.92Y-4.2716
X7.92Y-4.37
T4
X4.9535Y-2.1347
X4.9535Y-2.2347
X4.9535Y-2.3347
X4.9535Y-2.4347
X4.9535Y-2.5347
X4.9535Y-2.6347
T5
X4.81Y-1.7
X4.91Y-1.7
X5.01Y-1.7
X5.11Y-1.7
X5.21Y-1.7
X5.31Y-1.7
X5.41Y-1.7
X5.48Y-4.0
X5.51Y-1.7
X5.58Y-4.0
X5.76Y-4.0
X5.86Y-4.0
X6.04Y-4.0
X6.14Y-4.0
X6.25Y-2.84
X6.25Y-2.94
X6.25Y-3.18
X6.25Y-3.28
X6.32Y-4.0
X6.42Y-4.0
X6.55Y-2.84
X6.55Y-2.94
X6.55Y-3.18
X6.55Y-3.28
T6
X5.82Y-4.37
X5.92Y-4.37
X6.16Y-4.35
X6.16Y-4.5469
X6.8733Y-3.7125
X6.8733Y-3.8125
X6.8733Y-3.9125
X7.0053Y-2.4047
X7.07Y-2.55
X7.1053Y-2.4047
X7.17Y-2.55
X7.2053Y-2.4047
X7.27Y-2.55
X7.3053Y-2.4047
X7.37Y-2.55
X7.4053Y-2.4047
X7.4517Y-5.2
X7.47Y-2.55
X7.5053Y-2.4047
X7.5517Y-5.05
X7.5517Y-5.2
X7.57Y-2.55
X7.6053Y-2.4047
X7.6517Y-5.05
X7.6517Y-5.2
X7.7053Y-2.4047
X7.8053Y-2.4047
X7.8053Y-2.5047
X7.8053Y-2.6047
X7.8053Y-2.7047
X7.8053Y-2.8047
X7.8053Y-2.9047
X7.8053Y-3.0047
X7.8053Y-3.1047
X7.8053Y-3.2047
X7.8454Y-5.202
X7.85Y-5.0564
X7.9454Y-5.202
X7.95Y-5.0564
X8.0454Y-5.202
T7
X7.58Y-3.88
X7.6548Y-3.6792
X8.1Y-4.66
X8.1748Y-4.4592
T8
X5.0707Y-2.2441
X5.1378Y-3.1394
X5.1378Y-3.2394
X5.1378Y-3.3394
X5.1378Y-3.4394
X5.1378Y-3.5394
X5.1378Y-3.6394
X5.1378Y-3.7394
X5.1378Y-3.8394
X5.1378Y-3.9394
X5.1378Y-4.0394
X5.1378Y-4.1394
X5.1378Y-4.2394
X5.1378Y-4.3394
X5.1378Y-4.4394
X5.1378Y-4.5394
X5.1378Y-4.6394
X5.1378Y-4.7394
X5.1378Y-4.8394
X5.1378Y-4.9394
X5.1378Y-5.0394
X5.1707Y-2.2441
X5.2378Y-3.1394
X5.2378Y-3.2394
X5.2378Y-3.3394
X5.2378Y-3.4394
X5.2378Y-3.5394
X5.2378Y-3.6394
X5.2378Y-3.7394
X5.2378Y-3.8394
X5.2378Y-3.9394
X5.2378Y-4.0394
X5.2378Y-4.1394
X5.2378Y-4.2394
X5.2378Y-4.3394
X5.2378Y-4.4394
X5.2378Y-4.5394
X5.2378Y-4.6394
X5.2378Y-4.7394
X5.2378Y-4.8394
X5.2378Y-4.9394
X5.2378Y-5.0394
X5.2707Y-2.2441
X5.3707Y-2.2441
X5.4307Y-4.1441
X5.4707Y-2.2441
X5.5307Y-4.1441
X5.5707Y-2.2441
X5.6307Y-4.1441
X5.6707Y-2.2441
X5.7307Y-4.1441
X5.7707Y-2.2441
X5.8307Y-4.1441
X5.8707Y-2.2441
X5.9307Y-4.1441
X5.9707Y-2.2441
X6.0307Y-4.1441
X6.1307Y-2.2441
X6.1307Y-4.1441
X6.2307Y-2.2441
X6.3307Y-2.2441
X6.3307Y-4.1441
X6.4307Y-2.2441
X6.4307Y-4.1441
X6.5307Y-2.2441
X6.5307Y-4.1441
X6.6307Y-2.2441
X6.6307Y-4.1441
X6.7307Y-2.2441
X6.7307Y-4.1441
X6.8307Y-2.2441
X6.8307Y-4.1441
X6.9307Y-4.1441
X7.0307Y-2.2441
X7.0307Y-4.1441
X7.1307Y-2.2441
X7.2307Y-2.2441
X7.2307Y-4.1441
X7.3307Y-2.2441
X7.3307Y-4.1441
X7.4307Y-2.2441
X7.4307Y-4.1441
X7.5307Y-2.2441
X7.5307Y-4.1441
X7.6307Y-2.2441
X7.6307Y-4.1441
X7.7307Y-2.2441
X7.7307Y-4.1441
X7.8307Y-4.1441
X7.9307Y-4.1441
X8.0307Y-2.2441
X8.0307Y-2.3441
X8.0307Y-2.4441
X8.0307Y-2.5441
X8.0307Y-2.6441
X8.0307Y-2.7441
X8.0307Y-2.8441
X8.0307Y-2.9441
X8.0307Y-3.0441
X8.0307Y-3.1441
X8.0307Y-3.2441
X8.0307Y-3.3441
X8.0307Y-3.4441
X8.0307Y-3.5441
X8.0307Y-3.6441
X8.0307Y-3.7441
X8.0307Y-3.8441
X8.0307Y-3.9441
X8.1307Y-2.2441
X8.1307Y-2.3441
X8.1307Y-2.4441
X8.1307Y-2.5441
X8.1307Y-2.6441
X8.1307Y-2.7441
X8.1307Y-2.8441
X8.1307Y-2.9441
X8.1307Y-3.0441
X8.1307Y-3.1441
X8.1307Y-3.2441
X8.1307Y-3.3441
X8.1307Y-3.4441
X8.1307Y-3.5441
X8.1307Y-3.6441
X8.1307Y-3.7441
X8.1307Y-3.8441
X8.1307Y-3.9441
T9
X4.5Y-3.63
X4.5Y-4.47
X4.6Y-3.63
X4.6Y-4.47
X4.7Y-3.63
X4.7Y-4.47
X6.15Y-2.72
X6.15Y-2.82
X6.15Y-2.92
X6.15Y-3.14
X6.15Y-3.24
X6.15Y-3.34
X7.06Y-1.74
X7.06Y-1.84
X7.06Y-1.94
X7.81Y-1.7
X7.81Y-2.0
T10
X7.18Y-1.7
X7.68Y-1.7
T11
X8.0709Y-1.7323
X8.0709Y-1.9291
T12
X4.4685Y-1.93
X4.4685Y-2.8414
T13
X4.6Y-4.2859
X4.6Y-5.1259
X5.4941Y-2.82
X5.4941Y-3.24
X6.4041Y-1.84
T0
M30
