G04 #@! TF.GenerationSoftware,KiCad,Pcbnew,(5.1.9-0-10_14)*
G04 #@! TF.CreationDate,2021-10-14T15:51:02+11:00*
G04 #@! TF.ProjectId,MAP Card,4d415020-4361-4726-942e-6b696361645f,rev?*
G04 #@! TF.SameCoordinates,Original*
G04 #@! TF.FileFunction,Copper,L1,Top*
G04 #@! TF.FilePolarity,Positive*
%FSLAX46Y46*%
G04 Gerber Fmt 4.6, Leading zero omitted, Abs format (unit mm)*
G04 Created by KiCad (PCBNEW (5.1.9-0-10_14)) date 2021-10-14 15:51:02*
%MOMM*%
%LPD*%
G01*
G04 APERTURE LIST*
G04 #@! TA.AperFunction,ConnectorPad*
%ADD10R,1.300000X6.730000*%
G04 #@! TD*
G04 #@! TA.AperFunction,ViaPad*
%ADD11C,0.800000*%
G04 #@! TD*
G04 #@! TA.AperFunction,Conductor*
%ADD12C,0.500000*%
G04 #@! TD*
G04 #@! TA.AperFunction,Conductor*
%ADD13C,0.250000*%
G04 #@! TD*
G04 #@! TA.AperFunction,Conductor*
%ADD14C,0.254000*%
G04 #@! TD*
G04 #@! TA.AperFunction,Conductor*
%ADD15C,0.100000*%
G04 #@! TD*
G04 APERTURE END LIST*
D10*
X148590000Y-108418000D03*
X151130000Y-108418000D03*
X153670000Y-108418000D03*
X156210000Y-108418000D03*
X158750000Y-108418000D03*
G04 #@! TA.AperFunction,SMDPad,CuDef*
G36*
G01*
X148235500Y-98321000D02*
X148235500Y-98021000D01*
G75*
G02*
X148385500Y-97871000I150000J0D01*
G01*
X149810500Y-97871000D01*
G75*
G02*
X149960500Y-98021000I0J-150000D01*
G01*
X149960500Y-98321000D01*
G75*
G02*
X149810500Y-98471000I-150000J0D01*
G01*
X148385500Y-98471000D01*
G75*
G02*
X148235500Y-98321000I0J150000D01*
G01*
G37*
G04 #@! TD.AperFunction*
G04 #@! TA.AperFunction,SMDPad,CuDef*
G36*
G01*
X148235500Y-99591000D02*
X148235500Y-99291000D01*
G75*
G02*
X148385500Y-99141000I150000J0D01*
G01*
X149810500Y-99141000D01*
G75*
G02*
X149960500Y-99291000I0J-150000D01*
G01*
X149960500Y-99591000D01*
G75*
G02*
X149810500Y-99741000I-150000J0D01*
G01*
X148385500Y-99741000D01*
G75*
G02*
X148235500Y-99591000I0J150000D01*
G01*
G37*
G04 #@! TD.AperFunction*
G04 #@! TA.AperFunction,SMDPad,CuDef*
G36*
G01*
X148235500Y-100861000D02*
X148235500Y-100561000D01*
G75*
G02*
X148385500Y-100411000I150000J0D01*
G01*
X149810500Y-100411000D01*
G75*
G02*
X149960500Y-100561000I0J-150000D01*
G01*
X149960500Y-100861000D01*
G75*
G02*
X149810500Y-101011000I-150000J0D01*
G01*
X148385500Y-101011000D01*
G75*
G02*
X148235500Y-100861000I0J150000D01*
G01*
G37*
G04 #@! TD.AperFunction*
G04 #@! TA.AperFunction,SMDPad,CuDef*
G36*
G01*
X148235500Y-102131000D02*
X148235500Y-101831000D01*
G75*
G02*
X148385500Y-101681000I150000J0D01*
G01*
X149810500Y-101681000D01*
G75*
G02*
X149960500Y-101831000I0J-150000D01*
G01*
X149960500Y-102131000D01*
G75*
G02*
X149810500Y-102281000I-150000J0D01*
G01*
X148385500Y-102281000D01*
G75*
G02*
X148235500Y-102131000I0J150000D01*
G01*
G37*
G04 #@! TD.AperFunction*
G04 #@! TA.AperFunction,SMDPad,CuDef*
G36*
G01*
X158395500Y-102131000D02*
X158395500Y-101831000D01*
G75*
G02*
X158545500Y-101681000I150000J0D01*
G01*
X159970500Y-101681000D01*
G75*
G02*
X160120500Y-101831000I0J-150000D01*
G01*
X160120500Y-102131000D01*
G75*
G02*
X159970500Y-102281000I-150000J0D01*
G01*
X158545500Y-102281000D01*
G75*
G02*
X158395500Y-102131000I0J150000D01*
G01*
G37*
G04 #@! TD.AperFunction*
G04 #@! TA.AperFunction,SMDPad,CuDef*
G36*
G01*
X158395500Y-100861000D02*
X158395500Y-100561000D01*
G75*
G02*
X158545500Y-100411000I150000J0D01*
G01*
X159970500Y-100411000D01*
G75*
G02*
X160120500Y-100561000I0J-150000D01*
G01*
X160120500Y-100861000D01*
G75*
G02*
X159970500Y-101011000I-150000J0D01*
G01*
X158545500Y-101011000D01*
G75*
G02*
X158395500Y-100861000I0J150000D01*
G01*
G37*
G04 #@! TD.AperFunction*
G04 #@! TA.AperFunction,SMDPad,CuDef*
G36*
G01*
X158395500Y-99591000D02*
X158395500Y-99291000D01*
G75*
G02*
X158545500Y-99141000I150000J0D01*
G01*
X159970500Y-99141000D01*
G75*
G02*
X160120500Y-99291000I0J-150000D01*
G01*
X160120500Y-99591000D01*
G75*
G02*
X159970500Y-99741000I-150000J0D01*
G01*
X158545500Y-99741000D01*
G75*
G02*
X158395500Y-99591000I0J150000D01*
G01*
G37*
G04 #@! TD.AperFunction*
G04 #@! TA.AperFunction,SMDPad,CuDef*
G36*
G01*
X158415500Y-98321000D02*
X158415500Y-98021000D01*
G75*
G02*
X158565500Y-97871000I150000J0D01*
G01*
X159990500Y-97871000D01*
G75*
G02*
X160140500Y-98021000I0J-150000D01*
G01*
X160140500Y-98321000D01*
G75*
G02*
X159990500Y-98471000I-150000J0D01*
G01*
X158565500Y-98471000D01*
G75*
G02*
X158415500Y-98321000I0J150000D01*
G01*
G37*
G04 #@! TD.AperFunction*
G04 #@! TA.AperFunction,SMDPad,CuDef*
G36*
G01*
X161087750Y-98016000D02*
X162000250Y-98016000D01*
G75*
G02*
X162244000Y-98259750I0J-243750D01*
G01*
X162244000Y-98747250D01*
G75*
G02*
X162000250Y-98991000I-243750J0D01*
G01*
X161087750Y-98991000D01*
G75*
G02*
X160844000Y-98747250I0J243750D01*
G01*
X160844000Y-98259750D01*
G75*
G02*
X161087750Y-98016000I243750J0D01*
G01*
G37*
G04 #@! TD.AperFunction*
G04 #@! TA.AperFunction,SMDPad,CuDef*
G36*
G01*
X161087750Y-99891000D02*
X162000250Y-99891000D01*
G75*
G02*
X162244000Y-100134750I0J-243750D01*
G01*
X162244000Y-100622250D01*
G75*
G02*
X162000250Y-100866000I-243750J0D01*
G01*
X161087750Y-100866000D01*
G75*
G02*
X160844000Y-100622250I0J243750D01*
G01*
X160844000Y-100134750D01*
G75*
G02*
X161087750Y-99891000I243750J0D01*
G01*
G37*
G04 #@! TD.AperFunction*
G04 #@! TA.AperFunction,SMDPad,CuDef*
G36*
G01*
X160840000Y-103048750D02*
X160840000Y-103961250D01*
G75*
G02*
X160596250Y-104205000I-243750J0D01*
G01*
X160108750Y-104205000D01*
G75*
G02*
X159865000Y-103961250I0J243750D01*
G01*
X159865000Y-103048750D01*
G75*
G02*
X160108750Y-102805000I243750J0D01*
G01*
X160596250Y-102805000D01*
G75*
G02*
X160840000Y-103048750I0J-243750D01*
G01*
G37*
G04 #@! TD.AperFunction*
G04 #@! TA.AperFunction,SMDPad,CuDef*
G36*
G01*
X162715000Y-103048750D02*
X162715000Y-103961250D01*
G75*
G02*
X162471250Y-104205000I-243750J0D01*
G01*
X161983750Y-104205000D01*
G75*
G02*
X161740000Y-103961250I0J243750D01*
G01*
X161740000Y-103048750D01*
G75*
G02*
X161983750Y-102805000I243750J0D01*
G01*
X162471250Y-102805000D01*
G75*
G02*
X162715000Y-103048750I0J-243750D01*
G01*
G37*
G04 #@! TD.AperFunction*
G04 #@! TA.AperFunction,SMDPad,CuDef*
G36*
G01*
X144498000Y-102691250D02*
X144498000Y-101778750D01*
G75*
G02*
X144741750Y-101535000I243750J0D01*
G01*
X145229250Y-101535000D01*
G75*
G02*
X145473000Y-101778750I0J-243750D01*
G01*
X145473000Y-102691250D01*
G75*
G02*
X145229250Y-102935000I-243750J0D01*
G01*
X144741750Y-102935000D01*
G75*
G02*
X144498000Y-102691250I0J243750D01*
G01*
G37*
G04 #@! TD.AperFunction*
G04 #@! TA.AperFunction,SMDPad,CuDef*
G36*
G01*
X146373000Y-102691250D02*
X146373000Y-101778750D01*
G75*
G02*
X146616750Y-101535000I243750J0D01*
G01*
X147104250Y-101535000D01*
G75*
G02*
X147348000Y-101778750I0J-243750D01*
G01*
X147348000Y-102691250D01*
G75*
G02*
X147104250Y-102935000I-243750J0D01*
G01*
X146616750Y-102935000D01*
G75*
G02*
X146373000Y-102691250I0J243750D01*
G01*
G37*
G04 #@! TD.AperFunction*
G04 #@! TA.AperFunction,SMDPad,CuDef*
G36*
G01*
X147411500Y-97968750D02*
X147411500Y-98881250D01*
G75*
G02*
X147167750Y-99125000I-243750J0D01*
G01*
X146680250Y-99125000D01*
G75*
G02*
X146436500Y-98881250I0J243750D01*
G01*
X146436500Y-97968750D01*
G75*
G02*
X146680250Y-97725000I243750J0D01*
G01*
X147167750Y-97725000D01*
G75*
G02*
X147411500Y-97968750I0J-243750D01*
G01*
G37*
G04 #@! TD.AperFunction*
G04 #@! TA.AperFunction,SMDPad,CuDef*
G36*
G01*
X145536500Y-97968750D02*
X145536500Y-98881250D01*
G75*
G02*
X145292750Y-99125000I-243750J0D01*
G01*
X144805250Y-99125000D01*
G75*
G02*
X144561500Y-98881250I0J243750D01*
G01*
X144561500Y-97968750D01*
G75*
G02*
X144805250Y-97725000I243750J0D01*
G01*
X145292750Y-97725000D01*
G75*
G02*
X145536500Y-97968750I0J-243750D01*
G01*
G37*
G04 #@! TD.AperFunction*
D11*
X153035000Y-97790000D03*
X156845000Y-101600000D03*
X152400000Y-102235000D03*
X156210000Y-103505000D03*
X148590000Y-103505000D03*
D12*
X151130000Y-104803000D02*
X151130000Y-108418000D01*
X151130000Y-101600000D02*
X151130000Y-104803000D01*
X150495000Y-100965000D02*
X151130000Y-101600000D01*
X149352000Y-100965000D02*
X150495000Y-100965000D01*
X149098000Y-100711000D02*
X149352000Y-100965000D01*
D13*
X153670000Y-105653000D02*
X153670000Y-108418000D01*
X155818000Y-103505000D02*
X153670000Y-105653000D01*
X160352500Y-103505000D02*
X156210000Y-103505000D01*
X151754000Y-99441000D02*
X150060500Y-99441000D01*
X150060500Y-99441000D02*
X149098000Y-99441000D01*
X155818000Y-103505000D02*
X151754000Y-99441000D01*
X156210000Y-103505000D02*
X155818000Y-103505000D01*
X160908737Y-102948763D02*
X160352500Y-103505000D01*
X160987763Y-102869737D02*
X160908737Y-102948763D01*
X160987763Y-100934737D02*
X160987763Y-102869737D01*
X161544000Y-100378500D02*
X160987763Y-100934737D01*
X146924000Y-102171500D02*
X146860500Y-102235000D01*
X146924000Y-98425000D02*
X146924000Y-102171500D01*
X148844000Y-102235000D02*
X149098000Y-101981000D01*
X146860500Y-102235000D02*
X148844000Y-102235000D01*
X148590000Y-102489000D02*
X148590000Y-103505000D01*
X149098000Y-101981000D02*
X148590000Y-102489000D01*
X148590000Y-103505000D02*
X148590000Y-108418000D01*
D14*
X162916000Y-102202400D02*
X162839482Y-102179188D01*
X162715000Y-102166928D01*
X162513250Y-102170000D01*
X162354500Y-102328750D01*
X162354500Y-103378000D01*
X162374500Y-103378000D01*
X162374500Y-103632000D01*
X162354500Y-103632000D01*
X162354500Y-103652000D01*
X162100500Y-103652000D01*
X162100500Y-103632000D01*
X162080500Y-103632000D01*
X162080500Y-103378000D01*
X162100500Y-103378000D01*
X162100500Y-102328750D01*
X161941750Y-102170000D01*
X161747763Y-102167046D01*
X161747763Y-101504072D01*
X162000250Y-101504072D01*
X162172285Y-101487128D01*
X162337709Y-101436947D01*
X162490164Y-101355458D01*
X162623792Y-101245792D01*
X162733458Y-101112164D01*
X162814947Y-100959709D01*
X162865128Y-100794285D01*
X162882072Y-100622250D01*
X162882072Y-100134750D01*
X162865128Y-99962715D01*
X162814947Y-99797291D01*
X162733458Y-99644836D01*
X162623792Y-99511208D01*
X162617436Y-99505992D01*
X162695185Y-99442185D01*
X162774537Y-99345494D01*
X162833502Y-99235180D01*
X162869812Y-99115482D01*
X162882072Y-98991000D01*
X162879000Y-98789250D01*
X162720250Y-98630500D01*
X161671000Y-98630500D01*
X161671000Y-98650500D01*
X161417000Y-98650500D01*
X161417000Y-98630500D01*
X161397000Y-98630500D01*
X161397000Y-98376500D01*
X161417000Y-98376500D01*
X161417000Y-97539750D01*
X161671000Y-97539750D01*
X161671000Y-98376500D01*
X162720250Y-98376500D01*
X162879000Y-98217750D01*
X162882072Y-98016000D01*
X162869812Y-97891518D01*
X162833502Y-97771820D01*
X162774537Y-97661506D01*
X162695185Y-97564815D01*
X162598494Y-97485463D01*
X162488180Y-97426498D01*
X162368482Y-97390188D01*
X162244000Y-97377928D01*
X161829750Y-97381000D01*
X161671000Y-97539750D01*
X161417000Y-97539750D01*
X161258250Y-97381000D01*
X160844000Y-97377928D01*
X160719518Y-97390188D01*
X160599820Y-97426498D01*
X160540801Y-97458045D01*
X160428329Y-97365742D01*
X160292082Y-97292916D01*
X160144245Y-97248071D01*
X159990500Y-97232928D01*
X158565500Y-97232928D01*
X158411755Y-97248071D01*
X158263918Y-97292916D01*
X158127671Y-97365742D01*
X158008249Y-97463749D01*
X157910242Y-97583171D01*
X157837416Y-97719418D01*
X157792571Y-97867255D01*
X157777428Y-98021000D01*
X157777428Y-98321000D01*
X157792571Y-98474745D01*
X157837416Y-98622582D01*
X157910242Y-98758829D01*
X157938954Y-98793815D01*
X157890242Y-98853171D01*
X157817416Y-98989418D01*
X157772571Y-99137255D01*
X157757428Y-99291000D01*
X157757428Y-99591000D01*
X157772571Y-99744745D01*
X157817416Y-99892582D01*
X157890242Y-100028829D01*
X157928954Y-100076000D01*
X157890242Y-100123171D01*
X157817416Y-100259418D01*
X157772571Y-100407255D01*
X157757428Y-100561000D01*
X157757428Y-100861000D01*
X157772571Y-101014745D01*
X157817416Y-101162582D01*
X157890242Y-101298829D01*
X157928954Y-101346000D01*
X157890242Y-101393171D01*
X157817416Y-101529418D01*
X157772571Y-101677255D01*
X157757428Y-101831000D01*
X157757428Y-102131000D01*
X157772571Y-102284745D01*
X157817416Y-102432582D01*
X157890242Y-102568829D01*
X157988249Y-102688251D01*
X158057398Y-102745000D01*
X156913711Y-102745000D01*
X156869774Y-102701063D01*
X156700256Y-102587795D01*
X156511898Y-102509774D01*
X156311939Y-102470000D01*
X156108061Y-102470000D01*
X155908102Y-102509774D01*
X155900659Y-102512857D01*
X152317804Y-98930003D01*
X152294001Y-98900999D01*
X152178276Y-98806026D01*
X152046247Y-98735454D01*
X151902986Y-98691997D01*
X151791333Y-98681000D01*
X151791322Y-98681000D01*
X151754000Y-98677324D01*
X151716678Y-98681000D01*
X150507359Y-98681000D01*
X150538584Y-98622582D01*
X150583429Y-98474745D01*
X150598572Y-98321000D01*
X150598572Y-98021000D01*
X150583429Y-97867255D01*
X150538584Y-97719418D01*
X150465758Y-97583171D01*
X150367751Y-97463749D01*
X150248329Y-97365742D01*
X150112082Y-97292916D01*
X149964245Y-97248071D01*
X149810500Y-97232928D01*
X148385500Y-97232928D01*
X148231755Y-97248071D01*
X148083918Y-97292916D01*
X147947671Y-97365742D01*
X147864297Y-97434165D01*
X147791292Y-97345208D01*
X147657664Y-97235542D01*
X147505209Y-97154053D01*
X147339785Y-97103872D01*
X147167750Y-97086928D01*
X146680250Y-97086928D01*
X146508215Y-97103872D01*
X146342791Y-97154053D01*
X146190336Y-97235542D01*
X146056708Y-97345208D01*
X146051492Y-97351564D01*
X145987685Y-97273815D01*
X145890994Y-97194463D01*
X145780680Y-97135498D01*
X145660982Y-97099188D01*
X145536500Y-97086928D01*
X145334750Y-97090000D01*
X145176000Y-97248750D01*
X145176000Y-98298000D01*
X145196000Y-98298000D01*
X145196000Y-98552000D01*
X145176000Y-98552000D01*
X145176000Y-99601250D01*
X145334750Y-99760000D01*
X145536500Y-99763072D01*
X145660982Y-99750812D01*
X145780680Y-99714502D01*
X145890994Y-99655537D01*
X145987685Y-99576185D01*
X146051492Y-99498436D01*
X146056708Y-99504792D01*
X146164000Y-99592845D01*
X146164001Y-101025677D01*
X146126836Y-101045542D01*
X145993208Y-101155208D01*
X145987992Y-101161564D01*
X145924185Y-101083815D01*
X145827494Y-101004463D01*
X145717180Y-100945498D01*
X145597482Y-100909188D01*
X145473000Y-100896928D01*
X145271250Y-100900000D01*
X145112500Y-101058750D01*
X145112500Y-102108000D01*
X145132500Y-102108000D01*
X145132500Y-102362000D01*
X145112500Y-102362000D01*
X145112500Y-103411250D01*
X145271250Y-103570000D01*
X145473000Y-103573072D01*
X145597482Y-103560812D01*
X145717180Y-103524502D01*
X145827494Y-103465537D01*
X145924185Y-103386185D01*
X145987992Y-103308436D01*
X145993208Y-103314792D01*
X146126836Y-103424458D01*
X146279291Y-103505947D01*
X146444715Y-103556128D01*
X146616750Y-103573072D01*
X147104250Y-103573072D01*
X147276285Y-103556128D01*
X147441709Y-103505947D01*
X147555000Y-103445392D01*
X147555000Y-103606939D01*
X147594774Y-103806898D01*
X147672795Y-103995256D01*
X147786063Y-104164774D01*
X147830000Y-104208711D01*
X147830000Y-104425762D01*
X147815518Y-104427188D01*
X147695820Y-104463498D01*
X147585506Y-104522463D01*
X147488815Y-104601815D01*
X147450912Y-104648000D01*
X144424000Y-104648000D01*
X144424000Y-103565784D01*
X144498000Y-103573072D01*
X144699750Y-103570000D01*
X144858500Y-103411250D01*
X144858500Y-102362000D01*
X144838500Y-102362000D01*
X144838500Y-102108000D01*
X144858500Y-102108000D01*
X144858500Y-101058750D01*
X144699750Y-100900000D01*
X144498000Y-100896928D01*
X144424000Y-100904216D01*
X144424000Y-99746863D01*
X144437018Y-99750812D01*
X144561500Y-99763072D01*
X144763250Y-99760000D01*
X144922000Y-99601250D01*
X144922000Y-98552000D01*
X144902000Y-98552000D01*
X144902000Y-98298000D01*
X144922000Y-98298000D01*
X144922000Y-97248750D01*
X144763250Y-97090000D01*
X144561500Y-97086928D01*
X144437018Y-97099188D01*
X144424000Y-97103137D01*
X144424000Y-96901000D01*
X162916001Y-96901000D01*
X162916000Y-102202400D01*
G04 #@! TA.AperFunction,Conductor*
D15*
G36*
X162916000Y-102202400D02*
G01*
X162839482Y-102179188D01*
X162715000Y-102166928D01*
X162513250Y-102170000D01*
X162354500Y-102328750D01*
X162354500Y-103378000D01*
X162374500Y-103378000D01*
X162374500Y-103632000D01*
X162354500Y-103632000D01*
X162354500Y-103652000D01*
X162100500Y-103652000D01*
X162100500Y-103632000D01*
X162080500Y-103632000D01*
X162080500Y-103378000D01*
X162100500Y-103378000D01*
X162100500Y-102328750D01*
X161941750Y-102170000D01*
X161747763Y-102167046D01*
X161747763Y-101504072D01*
X162000250Y-101504072D01*
X162172285Y-101487128D01*
X162337709Y-101436947D01*
X162490164Y-101355458D01*
X162623792Y-101245792D01*
X162733458Y-101112164D01*
X162814947Y-100959709D01*
X162865128Y-100794285D01*
X162882072Y-100622250D01*
X162882072Y-100134750D01*
X162865128Y-99962715D01*
X162814947Y-99797291D01*
X162733458Y-99644836D01*
X162623792Y-99511208D01*
X162617436Y-99505992D01*
X162695185Y-99442185D01*
X162774537Y-99345494D01*
X162833502Y-99235180D01*
X162869812Y-99115482D01*
X162882072Y-98991000D01*
X162879000Y-98789250D01*
X162720250Y-98630500D01*
X161671000Y-98630500D01*
X161671000Y-98650500D01*
X161417000Y-98650500D01*
X161417000Y-98630500D01*
X161397000Y-98630500D01*
X161397000Y-98376500D01*
X161417000Y-98376500D01*
X161417000Y-97539750D01*
X161671000Y-97539750D01*
X161671000Y-98376500D01*
X162720250Y-98376500D01*
X162879000Y-98217750D01*
X162882072Y-98016000D01*
X162869812Y-97891518D01*
X162833502Y-97771820D01*
X162774537Y-97661506D01*
X162695185Y-97564815D01*
X162598494Y-97485463D01*
X162488180Y-97426498D01*
X162368482Y-97390188D01*
X162244000Y-97377928D01*
X161829750Y-97381000D01*
X161671000Y-97539750D01*
X161417000Y-97539750D01*
X161258250Y-97381000D01*
X160844000Y-97377928D01*
X160719518Y-97390188D01*
X160599820Y-97426498D01*
X160540801Y-97458045D01*
X160428329Y-97365742D01*
X160292082Y-97292916D01*
X160144245Y-97248071D01*
X159990500Y-97232928D01*
X158565500Y-97232928D01*
X158411755Y-97248071D01*
X158263918Y-97292916D01*
X158127671Y-97365742D01*
X158008249Y-97463749D01*
X157910242Y-97583171D01*
X157837416Y-97719418D01*
X157792571Y-97867255D01*
X157777428Y-98021000D01*
X157777428Y-98321000D01*
X157792571Y-98474745D01*
X157837416Y-98622582D01*
X157910242Y-98758829D01*
X157938954Y-98793815D01*
X157890242Y-98853171D01*
X157817416Y-98989418D01*
X157772571Y-99137255D01*
X157757428Y-99291000D01*
X157757428Y-99591000D01*
X157772571Y-99744745D01*
X157817416Y-99892582D01*
X157890242Y-100028829D01*
X157928954Y-100076000D01*
X157890242Y-100123171D01*
X157817416Y-100259418D01*
X157772571Y-100407255D01*
X157757428Y-100561000D01*
X157757428Y-100861000D01*
X157772571Y-101014745D01*
X157817416Y-101162582D01*
X157890242Y-101298829D01*
X157928954Y-101346000D01*
X157890242Y-101393171D01*
X157817416Y-101529418D01*
X157772571Y-101677255D01*
X157757428Y-101831000D01*
X157757428Y-102131000D01*
X157772571Y-102284745D01*
X157817416Y-102432582D01*
X157890242Y-102568829D01*
X157988249Y-102688251D01*
X158057398Y-102745000D01*
X156913711Y-102745000D01*
X156869774Y-102701063D01*
X156700256Y-102587795D01*
X156511898Y-102509774D01*
X156311939Y-102470000D01*
X156108061Y-102470000D01*
X155908102Y-102509774D01*
X155900659Y-102512857D01*
X152317804Y-98930003D01*
X152294001Y-98900999D01*
X152178276Y-98806026D01*
X152046247Y-98735454D01*
X151902986Y-98691997D01*
X151791333Y-98681000D01*
X151791322Y-98681000D01*
X151754000Y-98677324D01*
X151716678Y-98681000D01*
X150507359Y-98681000D01*
X150538584Y-98622582D01*
X150583429Y-98474745D01*
X150598572Y-98321000D01*
X150598572Y-98021000D01*
X150583429Y-97867255D01*
X150538584Y-97719418D01*
X150465758Y-97583171D01*
X150367751Y-97463749D01*
X150248329Y-97365742D01*
X150112082Y-97292916D01*
X149964245Y-97248071D01*
X149810500Y-97232928D01*
X148385500Y-97232928D01*
X148231755Y-97248071D01*
X148083918Y-97292916D01*
X147947671Y-97365742D01*
X147864297Y-97434165D01*
X147791292Y-97345208D01*
X147657664Y-97235542D01*
X147505209Y-97154053D01*
X147339785Y-97103872D01*
X147167750Y-97086928D01*
X146680250Y-97086928D01*
X146508215Y-97103872D01*
X146342791Y-97154053D01*
X146190336Y-97235542D01*
X146056708Y-97345208D01*
X146051492Y-97351564D01*
X145987685Y-97273815D01*
X145890994Y-97194463D01*
X145780680Y-97135498D01*
X145660982Y-97099188D01*
X145536500Y-97086928D01*
X145334750Y-97090000D01*
X145176000Y-97248750D01*
X145176000Y-98298000D01*
X145196000Y-98298000D01*
X145196000Y-98552000D01*
X145176000Y-98552000D01*
X145176000Y-99601250D01*
X145334750Y-99760000D01*
X145536500Y-99763072D01*
X145660982Y-99750812D01*
X145780680Y-99714502D01*
X145890994Y-99655537D01*
X145987685Y-99576185D01*
X146051492Y-99498436D01*
X146056708Y-99504792D01*
X146164000Y-99592845D01*
X146164001Y-101025677D01*
X146126836Y-101045542D01*
X145993208Y-101155208D01*
X145987992Y-101161564D01*
X145924185Y-101083815D01*
X145827494Y-101004463D01*
X145717180Y-100945498D01*
X145597482Y-100909188D01*
X145473000Y-100896928D01*
X145271250Y-100900000D01*
X145112500Y-101058750D01*
X145112500Y-102108000D01*
X145132500Y-102108000D01*
X145132500Y-102362000D01*
X145112500Y-102362000D01*
X145112500Y-103411250D01*
X145271250Y-103570000D01*
X145473000Y-103573072D01*
X145597482Y-103560812D01*
X145717180Y-103524502D01*
X145827494Y-103465537D01*
X145924185Y-103386185D01*
X145987992Y-103308436D01*
X145993208Y-103314792D01*
X146126836Y-103424458D01*
X146279291Y-103505947D01*
X146444715Y-103556128D01*
X146616750Y-103573072D01*
X147104250Y-103573072D01*
X147276285Y-103556128D01*
X147441709Y-103505947D01*
X147555000Y-103445392D01*
X147555000Y-103606939D01*
X147594774Y-103806898D01*
X147672795Y-103995256D01*
X147786063Y-104164774D01*
X147830000Y-104208711D01*
X147830000Y-104425762D01*
X147815518Y-104427188D01*
X147695820Y-104463498D01*
X147585506Y-104522463D01*
X147488815Y-104601815D01*
X147450912Y-104648000D01*
X144424000Y-104648000D01*
X144424000Y-103565784D01*
X144498000Y-103573072D01*
X144699750Y-103570000D01*
X144858500Y-103411250D01*
X144858500Y-102362000D01*
X144838500Y-102362000D01*
X144838500Y-102108000D01*
X144858500Y-102108000D01*
X144858500Y-101058750D01*
X144699750Y-100900000D01*
X144498000Y-100896928D01*
X144424000Y-100904216D01*
X144424000Y-99746863D01*
X144437018Y-99750812D01*
X144561500Y-99763072D01*
X144763250Y-99760000D01*
X144922000Y-99601250D01*
X144922000Y-98552000D01*
X144902000Y-98552000D01*
X144902000Y-98298000D01*
X144922000Y-98298000D01*
X144922000Y-97248750D01*
X144763250Y-97090000D01*
X144561500Y-97086928D01*
X144437018Y-97099188D01*
X144424000Y-97103137D01*
X144424000Y-96901000D01*
X162916001Y-96901000D01*
X162916000Y-102202400D01*
G37*
G04 #@! TD.AperFunction*
D14*
X154743198Y-103505000D02*
X153833271Y-104414928D01*
X153020000Y-104414928D01*
X152895518Y-104427188D01*
X152775820Y-104463498D01*
X152665506Y-104522463D01*
X152568815Y-104601815D01*
X152530912Y-104648000D01*
X152269088Y-104648000D01*
X152231185Y-104601815D01*
X152134494Y-104522463D01*
X152024180Y-104463498D01*
X151904482Y-104427188D01*
X151780000Y-104414928D01*
X151415750Y-104418000D01*
X151257000Y-104576750D01*
X151257000Y-104648000D01*
X151003000Y-104648000D01*
X151003000Y-104576750D01*
X150844250Y-104418000D01*
X150480000Y-104414928D01*
X150355518Y-104427188D01*
X150235820Y-104463498D01*
X150125506Y-104522463D01*
X150028815Y-104601815D01*
X149990912Y-104648000D01*
X149729088Y-104648000D01*
X149691185Y-104601815D01*
X149594494Y-104522463D01*
X149484180Y-104463498D01*
X149364482Y-104427188D01*
X149350000Y-104425762D01*
X149350000Y-104208711D01*
X149393937Y-104164774D01*
X149507205Y-103995256D01*
X149585226Y-103806898D01*
X149625000Y-103606939D01*
X149625000Y-103403061D01*
X149585226Y-103203102D01*
X149507205Y-103014744D01*
X149443279Y-102919072D01*
X149810500Y-102919072D01*
X149964245Y-102903929D01*
X150112082Y-102859084D01*
X150248329Y-102786258D01*
X150367751Y-102688251D01*
X150465758Y-102568829D01*
X150538584Y-102432582D01*
X150583429Y-102284745D01*
X150598572Y-102131000D01*
X150598572Y-101831000D01*
X150583429Y-101677255D01*
X150538584Y-101529418D01*
X150466770Y-101395064D01*
X150491037Y-101365494D01*
X150550002Y-101255180D01*
X150586312Y-101135482D01*
X150598572Y-101011000D01*
X150595500Y-100996750D01*
X150436750Y-100838000D01*
X149225000Y-100838000D01*
X149225000Y-100858000D01*
X148971000Y-100858000D01*
X148971000Y-100838000D01*
X148951000Y-100838000D01*
X148951000Y-100584000D01*
X148971000Y-100584000D01*
X148971000Y-100564000D01*
X149225000Y-100564000D01*
X149225000Y-100584000D01*
X150436750Y-100584000D01*
X150595500Y-100425250D01*
X150598572Y-100411000D01*
X150586312Y-100286518D01*
X150560370Y-100201000D01*
X151439199Y-100201000D01*
X154743198Y-103505000D01*
G04 #@! TA.AperFunction,Conductor*
D15*
G36*
X154743198Y-103505000D02*
G01*
X153833271Y-104414928D01*
X153020000Y-104414928D01*
X152895518Y-104427188D01*
X152775820Y-104463498D01*
X152665506Y-104522463D01*
X152568815Y-104601815D01*
X152530912Y-104648000D01*
X152269088Y-104648000D01*
X152231185Y-104601815D01*
X152134494Y-104522463D01*
X152024180Y-104463498D01*
X151904482Y-104427188D01*
X151780000Y-104414928D01*
X151415750Y-104418000D01*
X151257000Y-104576750D01*
X151257000Y-104648000D01*
X151003000Y-104648000D01*
X151003000Y-104576750D01*
X150844250Y-104418000D01*
X150480000Y-104414928D01*
X150355518Y-104427188D01*
X150235820Y-104463498D01*
X150125506Y-104522463D01*
X150028815Y-104601815D01*
X149990912Y-104648000D01*
X149729088Y-104648000D01*
X149691185Y-104601815D01*
X149594494Y-104522463D01*
X149484180Y-104463498D01*
X149364482Y-104427188D01*
X149350000Y-104425762D01*
X149350000Y-104208711D01*
X149393937Y-104164774D01*
X149507205Y-103995256D01*
X149585226Y-103806898D01*
X149625000Y-103606939D01*
X149625000Y-103403061D01*
X149585226Y-103203102D01*
X149507205Y-103014744D01*
X149443279Y-102919072D01*
X149810500Y-102919072D01*
X149964245Y-102903929D01*
X150112082Y-102859084D01*
X150248329Y-102786258D01*
X150367751Y-102688251D01*
X150465758Y-102568829D01*
X150538584Y-102432582D01*
X150583429Y-102284745D01*
X150598572Y-102131000D01*
X150598572Y-101831000D01*
X150583429Y-101677255D01*
X150538584Y-101529418D01*
X150466770Y-101395064D01*
X150491037Y-101365494D01*
X150550002Y-101255180D01*
X150586312Y-101135482D01*
X150598572Y-101011000D01*
X150595500Y-100996750D01*
X150436750Y-100838000D01*
X149225000Y-100838000D01*
X149225000Y-100858000D01*
X148971000Y-100858000D01*
X148971000Y-100838000D01*
X148951000Y-100838000D01*
X148951000Y-100584000D01*
X148971000Y-100584000D01*
X148971000Y-100564000D01*
X149225000Y-100564000D01*
X149225000Y-100584000D01*
X150436750Y-100584000D01*
X150595500Y-100425250D01*
X150598572Y-100411000D01*
X150586312Y-100286518D01*
X150560370Y-100201000D01*
X151439199Y-100201000D01*
X154743198Y-103505000D01*
G37*
G04 #@! TD.AperFunction*
M02*
