G04 #@! TF.GenerationSoftware,KiCad,Pcbnew,(5.1.9-0-10_14)*
G04 #@! TF.CreationDate,2021-10-14T15:51:02+11:00*
G04 #@! TF.ProjectId,MAP Card,4d415020-4361-4726-942e-6b696361645f,rev?*
G04 #@! TF.SameCoordinates,Original*
G04 #@! TF.FileFunction,Soldermask,Top*
G04 #@! TF.FilePolarity,Negative*
%FSLAX46Y46*%
G04 Gerber Fmt 4.6, Leading zero omitted, Abs format (unit mm)*
G04 Created by KiCad (PCBNEW (5.1.9-0-10_14)) date 2021-10-14 15:51:02*
%MOMM*%
%LPD*%
G01*
G04 APERTURE LIST*
%ADD10C,0.254000*%
%ADD11C,0.100000*%
G04 APERTURE END LIST*
G36*
G01*
X148184500Y-98346500D02*
X148184500Y-97995500D01*
G75*
G02*
X148360000Y-97820000I175500J0D01*
G01*
X149836000Y-97820000D01*
G75*
G02*
X150011500Y-97995500I0J-175500D01*
G01*
X150011500Y-98346500D01*
G75*
G02*
X149836000Y-98522000I-175500J0D01*
G01*
X148360000Y-98522000D01*
G75*
G02*
X148184500Y-98346500I0J175500D01*
G01*
G37*
G36*
G01*
X148184500Y-99616500D02*
X148184500Y-99265500D01*
G75*
G02*
X148360000Y-99090000I175500J0D01*
G01*
X149836000Y-99090000D01*
G75*
G02*
X150011500Y-99265500I0J-175500D01*
G01*
X150011500Y-99616500D01*
G75*
G02*
X149836000Y-99792000I-175500J0D01*
G01*
X148360000Y-99792000D01*
G75*
G02*
X148184500Y-99616500I0J175500D01*
G01*
G37*
G36*
G01*
X148184500Y-100886500D02*
X148184500Y-100535500D01*
G75*
G02*
X148360000Y-100360000I175500J0D01*
G01*
X149836000Y-100360000D01*
G75*
G02*
X150011500Y-100535500I0J-175500D01*
G01*
X150011500Y-100886500D01*
G75*
G02*
X149836000Y-101062000I-175500J0D01*
G01*
X148360000Y-101062000D01*
G75*
G02*
X148184500Y-100886500I0J175500D01*
G01*
G37*
G36*
G01*
X148184500Y-102156500D02*
X148184500Y-101805500D01*
G75*
G02*
X148360000Y-101630000I175500J0D01*
G01*
X149836000Y-101630000D01*
G75*
G02*
X150011500Y-101805500I0J-175500D01*
G01*
X150011500Y-102156500D01*
G75*
G02*
X149836000Y-102332000I-175500J0D01*
G01*
X148360000Y-102332000D01*
G75*
G02*
X148184500Y-102156500I0J175500D01*
G01*
G37*
G36*
G01*
X158344500Y-102156500D02*
X158344500Y-101805500D01*
G75*
G02*
X158520000Y-101630000I175500J0D01*
G01*
X159996000Y-101630000D01*
G75*
G02*
X160171500Y-101805500I0J-175500D01*
G01*
X160171500Y-102156500D01*
G75*
G02*
X159996000Y-102332000I-175500J0D01*
G01*
X158520000Y-102332000D01*
G75*
G02*
X158344500Y-102156500I0J175500D01*
G01*
G37*
G36*
G01*
X158344500Y-100886500D02*
X158344500Y-100535500D01*
G75*
G02*
X158520000Y-100360000I175500J0D01*
G01*
X159996000Y-100360000D01*
G75*
G02*
X160171500Y-100535500I0J-175500D01*
G01*
X160171500Y-100886500D01*
G75*
G02*
X159996000Y-101062000I-175500J0D01*
G01*
X158520000Y-101062000D01*
G75*
G02*
X158344500Y-100886500I0J175500D01*
G01*
G37*
G36*
G01*
X158344500Y-99616500D02*
X158344500Y-99265500D01*
G75*
G02*
X158520000Y-99090000I175500J0D01*
G01*
X159996000Y-99090000D01*
G75*
G02*
X160171500Y-99265500I0J-175500D01*
G01*
X160171500Y-99616500D01*
G75*
G02*
X159996000Y-99792000I-175500J0D01*
G01*
X158520000Y-99792000D01*
G75*
G02*
X158344500Y-99616500I0J175500D01*
G01*
G37*
G36*
G01*
X158364500Y-98346500D02*
X158364500Y-97995500D01*
G75*
G02*
X158540000Y-97820000I175500J0D01*
G01*
X160016000Y-97820000D01*
G75*
G02*
X160191500Y-97995500I0J-175500D01*
G01*
X160191500Y-98346500D01*
G75*
G02*
X160016000Y-98522000I-175500J0D01*
G01*
X158540000Y-98522000D01*
G75*
G02*
X158364500Y-98346500I0J175500D01*
G01*
G37*
G36*
G01*
X161062250Y-97965000D02*
X162025750Y-97965000D01*
G75*
G02*
X162295000Y-98234250I0J-269250D01*
G01*
X162295000Y-98772750D01*
G75*
G02*
X162025750Y-99042000I-269250J0D01*
G01*
X161062250Y-99042000D01*
G75*
G02*
X160793000Y-98772750I0J269250D01*
G01*
X160793000Y-98234250D01*
G75*
G02*
X161062250Y-97965000I269250J0D01*
G01*
G37*
G36*
G01*
X161062250Y-99840000D02*
X162025750Y-99840000D01*
G75*
G02*
X162295000Y-100109250I0J-269250D01*
G01*
X162295000Y-100647750D01*
G75*
G02*
X162025750Y-100917000I-269250J0D01*
G01*
X161062250Y-100917000D01*
G75*
G02*
X160793000Y-100647750I0J269250D01*
G01*
X160793000Y-100109250D01*
G75*
G02*
X161062250Y-99840000I269250J0D01*
G01*
G37*
G36*
G01*
X160891000Y-103023250D02*
X160891000Y-103986750D01*
G75*
G02*
X160621750Y-104256000I-269250J0D01*
G01*
X160083250Y-104256000D01*
G75*
G02*
X159814000Y-103986750I0J269250D01*
G01*
X159814000Y-103023250D01*
G75*
G02*
X160083250Y-102754000I269250J0D01*
G01*
X160621750Y-102754000D01*
G75*
G02*
X160891000Y-103023250I0J-269250D01*
G01*
G37*
G36*
G01*
X162766000Y-103023250D02*
X162766000Y-103986750D01*
G75*
G02*
X162496750Y-104256000I-269250J0D01*
G01*
X161958250Y-104256000D01*
G75*
G02*
X161689000Y-103986750I0J269250D01*
G01*
X161689000Y-103023250D01*
G75*
G02*
X161958250Y-102754000I269250J0D01*
G01*
X162496750Y-102754000D01*
G75*
G02*
X162766000Y-103023250I0J-269250D01*
G01*
G37*
G36*
G01*
X144447000Y-102716750D02*
X144447000Y-101753250D01*
G75*
G02*
X144716250Y-101484000I269250J0D01*
G01*
X145254750Y-101484000D01*
G75*
G02*
X145524000Y-101753250I0J-269250D01*
G01*
X145524000Y-102716750D01*
G75*
G02*
X145254750Y-102986000I-269250J0D01*
G01*
X144716250Y-102986000D01*
G75*
G02*
X144447000Y-102716750I0J269250D01*
G01*
G37*
G36*
G01*
X146322000Y-102716750D02*
X146322000Y-101753250D01*
G75*
G02*
X146591250Y-101484000I269250J0D01*
G01*
X147129750Y-101484000D01*
G75*
G02*
X147399000Y-101753250I0J-269250D01*
G01*
X147399000Y-102716750D01*
G75*
G02*
X147129750Y-102986000I-269250J0D01*
G01*
X146591250Y-102986000D01*
G75*
G02*
X146322000Y-102716750I0J269250D01*
G01*
G37*
G36*
G01*
X147462500Y-97943250D02*
X147462500Y-98906750D01*
G75*
G02*
X147193250Y-99176000I-269250J0D01*
G01*
X146654750Y-99176000D01*
G75*
G02*
X146385500Y-98906750I0J269250D01*
G01*
X146385500Y-97943250D01*
G75*
G02*
X146654750Y-97674000I269250J0D01*
G01*
X147193250Y-97674000D01*
G75*
G02*
X147462500Y-97943250I0J-269250D01*
G01*
G37*
G36*
G01*
X145587500Y-97943250D02*
X145587500Y-98906750D01*
G75*
G02*
X145318250Y-99176000I-269250J0D01*
G01*
X144779750Y-99176000D01*
G75*
G02*
X144510500Y-98906750I0J269250D01*
G01*
X144510500Y-97943250D01*
G75*
G02*
X144779750Y-97674000I269250J0D01*
G01*
X145318250Y-97674000D01*
G75*
G02*
X145587500Y-97943250I0J-269250D01*
G01*
G37*
D10*
X160528000Y-111633000D02*
X146812000Y-111633000D01*
X146812000Y-105283000D01*
X160528000Y-105283000D01*
X160528000Y-111633000D01*
D11*
G36*
X160528000Y-111633000D02*
G01*
X146812000Y-111633000D01*
X146812000Y-105283000D01*
X160528000Y-105283000D01*
X160528000Y-111633000D01*
G37*
M02*
