G04 #@! TF.GenerationSoftware,KiCad,Pcbnew,(5.1.9-0-10_14)*
G04 #@! TF.CreationDate,2021-10-14T15:51:02+11:00*
G04 #@! TF.ProjectId,MAP Card,4d415020-4361-4726-942e-6b696361645f,rev?*
G04 #@! TF.SameCoordinates,Original*
G04 #@! TF.FileFunction,Copper,L2,Bot*
G04 #@! TF.FilePolarity,Positive*
%FSLAX46Y46*%
G04 Gerber Fmt 4.6, Leading zero omitted, Abs format (unit mm)*
G04 Created by KiCad (PCBNEW (5.1.9-0-10_14)) date 2021-10-14 15:51:02*
%MOMM*%
%LPD*%
G01*
G04 APERTURE LIST*
G04 #@! TA.AperFunction,ConnectorPad*
%ADD10R,1.300000X6.730000*%
G04 #@! TD*
G04 #@! TA.AperFunction,ViaPad*
%ADD11C,0.800000*%
G04 #@! TD*
G04 #@! TA.AperFunction,Conductor*
%ADD12C,0.500000*%
G04 #@! TD*
G04 #@! TA.AperFunction,Conductor*
%ADD13C,0.250000*%
G04 #@! TD*
G04 #@! TA.AperFunction,Conductor*
%ADD14C,0.254000*%
G04 #@! TD*
G04 #@! TA.AperFunction,Conductor*
%ADD15C,0.100000*%
G04 #@! TD*
G04 APERTURE END LIST*
D10*
X158750000Y-108418000D03*
X156210000Y-108418000D03*
X153670000Y-108418000D03*
X151130000Y-108418000D03*
X148590000Y-108418000D03*
D11*
X153035000Y-97790000D03*
X156845000Y-101600000D03*
X152400000Y-102235000D03*
X156210000Y-103505000D03*
X148590000Y-103505000D03*
D12*
X152400000Y-102235000D02*
X152400000Y-102870000D01*
X151130000Y-104140000D02*
X151130000Y-108418000D01*
X152400000Y-102870000D02*
X151130000Y-104140000D01*
D13*
X153670000Y-106045000D02*
X153670000Y-108418000D01*
X156210000Y-103505000D02*
X153670000Y-106045000D01*
X148590000Y-103505000D02*
X148590000Y-108418000D01*
D14*
X162916000Y-104648000D02*
X159889088Y-104648000D01*
X159851185Y-104601815D01*
X159754494Y-104522463D01*
X159644180Y-104463498D01*
X159524482Y-104427188D01*
X159400000Y-104414928D01*
X158100000Y-104414928D01*
X157975518Y-104427188D01*
X157855820Y-104463498D01*
X157745506Y-104522463D01*
X157648815Y-104601815D01*
X157610912Y-104648000D01*
X157349088Y-104648000D01*
X157311185Y-104601815D01*
X157214494Y-104522463D01*
X157104180Y-104463498D01*
X156984482Y-104427188D01*
X156860000Y-104414928D01*
X156711147Y-104414928D01*
X156869774Y-104308937D01*
X157013937Y-104164774D01*
X157127205Y-103995256D01*
X157205226Y-103806898D01*
X157245000Y-103606939D01*
X157245000Y-103403061D01*
X157205226Y-103203102D01*
X157127205Y-103014744D01*
X157013937Y-102845226D01*
X156869774Y-102701063D01*
X156700256Y-102587795D01*
X156511898Y-102509774D01*
X156311939Y-102470000D01*
X156108061Y-102470000D01*
X155908102Y-102509774D01*
X155719744Y-102587795D01*
X155550226Y-102701063D01*
X155406063Y-102845226D01*
X155292795Y-103014744D01*
X155214774Y-103203102D01*
X155175000Y-103403061D01*
X155175000Y-103465197D01*
X154225270Y-104414928D01*
X153020000Y-104414928D01*
X152895518Y-104427188D01*
X152775820Y-104463498D01*
X152665506Y-104522463D01*
X152568815Y-104601815D01*
X152530912Y-104648000D01*
X152269088Y-104648000D01*
X152231185Y-104601815D01*
X152134494Y-104522463D01*
X152024180Y-104463498D01*
X151904482Y-104427188D01*
X151780000Y-104414928D01*
X151415750Y-104418000D01*
X151257000Y-104576750D01*
X151257000Y-104648000D01*
X151003000Y-104648000D01*
X151003000Y-104576750D01*
X150844250Y-104418000D01*
X150480000Y-104414928D01*
X150355518Y-104427188D01*
X150235820Y-104463498D01*
X150125506Y-104522463D01*
X150028815Y-104601815D01*
X149990912Y-104648000D01*
X149729088Y-104648000D01*
X149691185Y-104601815D01*
X149594494Y-104522463D01*
X149484180Y-104463498D01*
X149364482Y-104427188D01*
X149350000Y-104425762D01*
X149350000Y-104208711D01*
X149393937Y-104164774D01*
X149507205Y-103995256D01*
X149585226Y-103806898D01*
X149625000Y-103606939D01*
X149625000Y-103403061D01*
X149585226Y-103203102D01*
X149507205Y-103014744D01*
X149393937Y-102845226D01*
X149249774Y-102701063D01*
X149080256Y-102587795D01*
X148891898Y-102509774D01*
X148691939Y-102470000D01*
X148488061Y-102470000D01*
X148288102Y-102509774D01*
X148099744Y-102587795D01*
X147930226Y-102701063D01*
X147786063Y-102845226D01*
X147672795Y-103014744D01*
X147594774Y-103203102D01*
X147555000Y-103403061D01*
X147555000Y-103606939D01*
X147594774Y-103806898D01*
X147672795Y-103995256D01*
X147786063Y-104164774D01*
X147830000Y-104208711D01*
X147830000Y-104425762D01*
X147815518Y-104427188D01*
X147695820Y-104463498D01*
X147585506Y-104522463D01*
X147488815Y-104601815D01*
X147450912Y-104648000D01*
X144424000Y-104648000D01*
X144424000Y-96901000D01*
X162916001Y-96901000D01*
X162916000Y-104648000D01*
G04 #@! TA.AperFunction,Conductor*
D15*
G36*
X162916000Y-104648000D02*
G01*
X159889088Y-104648000D01*
X159851185Y-104601815D01*
X159754494Y-104522463D01*
X159644180Y-104463498D01*
X159524482Y-104427188D01*
X159400000Y-104414928D01*
X158100000Y-104414928D01*
X157975518Y-104427188D01*
X157855820Y-104463498D01*
X157745506Y-104522463D01*
X157648815Y-104601815D01*
X157610912Y-104648000D01*
X157349088Y-104648000D01*
X157311185Y-104601815D01*
X157214494Y-104522463D01*
X157104180Y-104463498D01*
X156984482Y-104427188D01*
X156860000Y-104414928D01*
X156711147Y-104414928D01*
X156869774Y-104308937D01*
X157013937Y-104164774D01*
X157127205Y-103995256D01*
X157205226Y-103806898D01*
X157245000Y-103606939D01*
X157245000Y-103403061D01*
X157205226Y-103203102D01*
X157127205Y-103014744D01*
X157013937Y-102845226D01*
X156869774Y-102701063D01*
X156700256Y-102587795D01*
X156511898Y-102509774D01*
X156311939Y-102470000D01*
X156108061Y-102470000D01*
X155908102Y-102509774D01*
X155719744Y-102587795D01*
X155550226Y-102701063D01*
X155406063Y-102845226D01*
X155292795Y-103014744D01*
X155214774Y-103203102D01*
X155175000Y-103403061D01*
X155175000Y-103465197D01*
X154225270Y-104414928D01*
X153020000Y-104414928D01*
X152895518Y-104427188D01*
X152775820Y-104463498D01*
X152665506Y-104522463D01*
X152568815Y-104601815D01*
X152530912Y-104648000D01*
X152269088Y-104648000D01*
X152231185Y-104601815D01*
X152134494Y-104522463D01*
X152024180Y-104463498D01*
X151904482Y-104427188D01*
X151780000Y-104414928D01*
X151415750Y-104418000D01*
X151257000Y-104576750D01*
X151257000Y-104648000D01*
X151003000Y-104648000D01*
X151003000Y-104576750D01*
X150844250Y-104418000D01*
X150480000Y-104414928D01*
X150355518Y-104427188D01*
X150235820Y-104463498D01*
X150125506Y-104522463D01*
X150028815Y-104601815D01*
X149990912Y-104648000D01*
X149729088Y-104648000D01*
X149691185Y-104601815D01*
X149594494Y-104522463D01*
X149484180Y-104463498D01*
X149364482Y-104427188D01*
X149350000Y-104425762D01*
X149350000Y-104208711D01*
X149393937Y-104164774D01*
X149507205Y-103995256D01*
X149585226Y-103806898D01*
X149625000Y-103606939D01*
X149625000Y-103403061D01*
X149585226Y-103203102D01*
X149507205Y-103014744D01*
X149393937Y-102845226D01*
X149249774Y-102701063D01*
X149080256Y-102587795D01*
X148891898Y-102509774D01*
X148691939Y-102470000D01*
X148488061Y-102470000D01*
X148288102Y-102509774D01*
X148099744Y-102587795D01*
X147930226Y-102701063D01*
X147786063Y-102845226D01*
X147672795Y-103014744D01*
X147594774Y-103203102D01*
X147555000Y-103403061D01*
X147555000Y-103606939D01*
X147594774Y-103806898D01*
X147672795Y-103995256D01*
X147786063Y-104164774D01*
X147830000Y-104208711D01*
X147830000Y-104425762D01*
X147815518Y-104427188D01*
X147695820Y-104463498D01*
X147585506Y-104522463D01*
X147488815Y-104601815D01*
X147450912Y-104648000D01*
X144424000Y-104648000D01*
X144424000Y-96901000D01*
X162916001Y-96901000D01*
X162916000Y-104648000D01*
G37*
G04 #@! TD.AperFunction*
M02*
