G04 #@! TF.GenerationSoftware,KiCad,Pcbnew,(5.1.9-0-10_14)*
G04 #@! TF.CreationDate,2021-10-14T15:51:02+11:00*
G04 #@! TF.ProjectId,MAP Card,4d415020-4361-4726-942e-6b696361645f,rev?*
G04 #@! TF.SameCoordinates,Original*
G04 #@! TF.FileFunction,Legend,Top*
G04 #@! TF.FilePolarity,Positive*
%FSLAX46Y46*%
G04 Gerber Fmt 4.6, Leading zero omitted, Abs format (unit mm)*
G04 Created by KiCad (PCBNEW (5.1.9-0-10_14)) date 2021-10-14 15:51:02*
%MOMM*%
%LPD*%
G01*
G04 APERTURE LIST*
%ADD10C,0.120000*%
%ADD11C,0.150000*%
G04 APERTURE END LIST*
D10*
X154178000Y-103886000D02*
X157988000Y-103886000D01*
X154178000Y-103886000D02*
X150368000Y-103886000D01*
X154178000Y-96266000D02*
X157988000Y-96266000D01*
X154178000Y-96266000D02*
X150368000Y-96266000D01*
X162254000Y-99182422D02*
X162254000Y-99699578D01*
X160834000Y-99182422D02*
X160834000Y-99699578D01*
X161548578Y-102795000D02*
X161031422Y-102795000D01*
X161548578Y-104215000D02*
X161031422Y-104215000D01*
X145664422Y-101525000D02*
X146181578Y-101525000D01*
X145664422Y-102945000D02*
X146181578Y-102945000D01*
X146245078Y-99135000D02*
X145727922Y-99135000D01*
X146245078Y-97715000D02*
X145727922Y-97715000D01*
D11*
X153336666Y-102830380D02*
X153336666Y-103544666D01*
X153289047Y-103687523D01*
X153193809Y-103782761D01*
X153050952Y-103830380D01*
X152955714Y-103830380D01*
X154336666Y-103830380D02*
X153765238Y-103830380D01*
X154050952Y-103830380D02*
X154050952Y-102830380D01*
X153955714Y-102973238D01*
X153860476Y-103068476D01*
X153765238Y-103116095D01*
X153416095Y-99528380D02*
X153416095Y-100337904D01*
X153463714Y-100433142D01*
X153511333Y-100480761D01*
X153606571Y-100528380D01*
X153797047Y-100528380D01*
X153892285Y-100480761D01*
X153939904Y-100433142D01*
X153987523Y-100337904D01*
X153987523Y-99528380D01*
X154987523Y-100528380D02*
X154416095Y-100528380D01*
X154701809Y-100528380D02*
X154701809Y-99528380D01*
X154606571Y-99671238D01*
X154511333Y-99766476D01*
X154416095Y-99814095D01*
X161377333Y-97385142D02*
X161329714Y-97432761D01*
X161186857Y-97480380D01*
X161091619Y-97480380D01*
X160948761Y-97432761D01*
X160853523Y-97337523D01*
X160805904Y-97242285D01*
X160758285Y-97051809D01*
X160758285Y-96908952D01*
X160805904Y-96718476D01*
X160853523Y-96623238D01*
X160948761Y-96528000D01*
X161091619Y-96480380D01*
X161186857Y-96480380D01*
X161329714Y-96528000D01*
X161377333Y-96575619D01*
X162329714Y-97480380D02*
X161758285Y-97480380D01*
X162044000Y-97480380D02*
X162044000Y-96480380D01*
X161948761Y-96623238D01*
X161853523Y-96718476D01*
X161758285Y-96766095D01*
X161123333Y-102211142D02*
X161075714Y-102258761D01*
X160932857Y-102306380D01*
X160837619Y-102306380D01*
X160694761Y-102258761D01*
X160599523Y-102163523D01*
X160551904Y-102068285D01*
X160504285Y-101877809D01*
X160504285Y-101734952D01*
X160551904Y-101544476D01*
X160599523Y-101449238D01*
X160694761Y-101354000D01*
X160837619Y-101306380D01*
X160932857Y-101306380D01*
X161075714Y-101354000D01*
X161123333Y-101401619D01*
X161504285Y-101401619D02*
X161551904Y-101354000D01*
X161647142Y-101306380D01*
X161885238Y-101306380D01*
X161980476Y-101354000D01*
X162028095Y-101401619D01*
X162075714Y-101496857D01*
X162075714Y-101592095D01*
X162028095Y-101734952D01*
X161456666Y-102306380D01*
X162075714Y-102306380D01*
X145756333Y-100942142D02*
X145708714Y-100989761D01*
X145565857Y-101037380D01*
X145470619Y-101037380D01*
X145327761Y-100989761D01*
X145232523Y-100894523D01*
X145184904Y-100799285D01*
X145137285Y-100608809D01*
X145137285Y-100465952D01*
X145184904Y-100275476D01*
X145232523Y-100180238D01*
X145327761Y-100085000D01*
X145470619Y-100037380D01*
X145565857Y-100037380D01*
X145708714Y-100085000D01*
X145756333Y-100132619D01*
X146089666Y-100037380D02*
X146708714Y-100037380D01*
X146375380Y-100418333D01*
X146518238Y-100418333D01*
X146613476Y-100465952D01*
X146661095Y-100513571D01*
X146708714Y-100608809D01*
X146708714Y-100846904D01*
X146661095Y-100942142D01*
X146613476Y-100989761D01*
X146518238Y-101037380D01*
X146232523Y-101037380D01*
X146137285Y-100989761D01*
X146089666Y-100942142D01*
X145883333Y-96972380D02*
X145550000Y-96496190D01*
X145311904Y-96972380D02*
X145311904Y-95972380D01*
X145692857Y-95972380D01*
X145788095Y-96020000D01*
X145835714Y-96067619D01*
X145883333Y-96162857D01*
X145883333Y-96305714D01*
X145835714Y-96400952D01*
X145788095Y-96448571D01*
X145692857Y-96496190D01*
X145311904Y-96496190D01*
X146835714Y-96972380D02*
X146264285Y-96972380D01*
X146550000Y-96972380D02*
X146550000Y-95972380D01*
X146454761Y-96115238D01*
X146359523Y-96210476D01*
X146264285Y-96258095D01*
M02*
