G04 #@! TF.GenerationSoftware,KiCad,Pcbnew,7.0.5-0*
G04 #@! TF.CreationDate,2023-07-24T16:11:42+10:00*
G04 #@! TF.ProjectId,DropBear,44726f70-4265-4617-922e-6b696361645f,rev?*
G04 #@! TF.SameCoordinates,Original*
G04 #@! TF.FileFunction,Paste,Top*
G04 #@! TF.FilePolarity,Positive*
%FSLAX46Y46*%
G04 Gerber Fmt 4.6, Leading zero omitted, Abs format (unit mm)*
G04 Created by KiCad (PCBNEW 7.0.5-0) date 2023-07-24 16:11:42*
%MOMM*%
%LPD*%
G01*
G04 APERTURE LIST*
G04 Aperture macros list*
%AMRoundRect*
0 Rectangle with rounded corners*
0 $1 Rounding radius*
0 $2 $3 $4 $5 $6 $7 $8 $9 X,Y pos of 4 corners*
0 Add a 4 corners polygon primitive as box body*
4,1,4,$2,$3,$4,$5,$6,$7,$8,$9,$2,$3,0*
0 Add four circle primitives for the rounded corners*
1,1,$1+$1,$2,$3*
1,1,$1+$1,$4,$5*
1,1,$1+$1,$6,$7*
1,1,$1+$1,$8,$9*
0 Add four rect primitives between the rounded corners*
20,1,$1+$1,$2,$3,$4,$5,0*
20,1,$1+$1,$4,$5,$6,$7,0*
20,1,$1+$1,$6,$7,$8,$9,0*
20,1,$1+$1,$8,$9,$2,$3,0*%
%AMFreePoly0*
4,1,6,0.322490,-0.194667,0.194667,-0.322490,-0.322490,-0.322490,-0.322490,0.322490,0.322490,0.322490,0.322490,-0.194667,0.322490,-0.194667,$1*%
%AMFreePoly1*
4,1,7,0.322490,0.294667,0.322490,-0.294667,0.214044,-0.403113,-0.322490,-0.403113,-0.322490,0.403113,0.214044,0.403113,0.322490,0.294667,0.322490,0.294667,$1*%
%AMFreePoly2*
4,1,6,0.322490,0.194667,0.322490,-0.322490,-0.322490,-0.322490,-0.322490,0.322490,0.194667,0.322490,0.322490,0.194667,0.322490,0.194667,$1*%
%AMFreePoly3*
4,1,7,0.403113,-0.214044,0.294667,-0.322490,-0.294667,-0.322490,-0.403113,-0.214044,-0.403113,0.322490,0.403113,0.322490,0.403113,-0.214044,0.403113,-0.214044,$1*%
%AMFreePoly4*
4,1,7,0.403113,0.214044,0.403113,-0.322490,-0.403113,-0.322490,-0.403113,0.214044,-0.294667,0.322490,0.294667,0.322490,0.403113,0.214044,0.403113,0.214044,$1*%
%AMFreePoly5*
4,1,6,0.322490,-0.322490,-0.194667,-0.322490,-0.322490,-0.194667,-0.322490,0.322490,0.322490,0.322490,0.322490,-0.322490,0.322490,-0.322490,$1*%
%AMFreePoly6*
4,1,7,0.322490,-0.403113,-0.214044,-0.403113,-0.322490,-0.294667,-0.322490,0.294667,-0.214044,0.403113,0.322490,0.403113,0.322490,-0.403113,0.322490,-0.403113,$1*%
%AMFreePoly7*
4,1,6,0.322490,-0.322490,-0.322490,-0.322490,-0.322490,0.194667,-0.194667,0.322490,0.322490,0.322490,0.322490,-0.322490,0.322490,-0.322490,$1*%
G04 Aperture macros list end*
%ADD10RoundRect,0.243750X-0.243750X-0.456250X0.243750X-0.456250X0.243750X0.456250X-0.243750X0.456250X0*%
%ADD11R,0.600000X1.550000*%
%ADD12R,1.550000X0.600000*%
%ADD13RoundRect,0.243750X-0.456250X0.243750X-0.456250X-0.243750X0.456250X-0.243750X0.456250X0.243750X0*%
%ADD14R,1.600200X0.431800*%
%ADD15R,4.953000X4.953000*%
%ADD16RoundRect,0.243750X0.456250X-0.243750X0.456250X0.243750X-0.456250X0.243750X-0.456250X-0.243750X0*%
%ADD17RoundRect,0.243750X0.243750X0.456250X-0.243750X0.456250X-0.243750X-0.456250X0.243750X-0.456250X0*%
%ADD18RoundRect,0.249999X-0.325001X-0.450001X0.325001X-0.450001X0.325001X0.450001X-0.325001X0.450001X0*%
%ADD19RoundRect,0.249999X0.325001X0.450001X-0.325001X0.450001X-0.325001X-0.450001X0.325001X-0.450001X0*%
%ADD20R,0.450000X0.600000*%
%ADD21RoundRect,0.249999X0.925001X-0.412501X0.925001X0.412501X-0.925001X0.412501X-0.925001X-0.412501X0*%
%ADD22RoundRect,0.249999X0.412501X0.925001X-0.412501X0.925001X-0.412501X-0.925001X0.412501X-0.925001X0*%
%ADD23RoundRect,0.150000X-0.825000X-0.150000X0.825000X-0.150000X0.825000X0.150000X-0.825000X0.150000X0*%
%ADD24RoundRect,0.150000X0.150000X-0.825000X0.150000X0.825000X-0.150000X0.825000X-0.150000X-0.825000X0*%
%ADD25R,1.000000X1.150000*%
%ADD26RoundRect,0.249999X1.450001X-0.312501X1.450001X0.312501X-1.450001X0.312501X-1.450001X-0.312501X0*%
%ADD27R,0.650000X0.400000*%
%ADD28RoundRect,0.250000X-0.375000X-0.625000X0.375000X-0.625000X0.375000X0.625000X-0.375000X0.625000X0*%
%ADD29RoundRect,0.237500X-0.287500X-0.237500X0.287500X-0.237500X0.287500X0.237500X-0.287500X0.237500X0*%
%ADD30R,0.600000X0.450000*%
%ADD31FreePoly0,270.000000*%
%ADD32FreePoly1,270.000000*%
%ADD33FreePoly2,270.000000*%
%ADD34FreePoly3,270.000000*%
%ADD35RoundRect,0.201556X-0.201557X0.201557X-0.201557X-0.201557X0.201557X-0.201557X0.201557X0.201557X0*%
%ADD36FreePoly4,270.000000*%
%ADD37FreePoly5,270.000000*%
%ADD38FreePoly6,270.000000*%
%ADD39FreePoly7,270.000000*%
%ADD40RoundRect,0.075000X-0.075000X0.662500X-0.075000X-0.662500X0.075000X-0.662500X0.075000X0.662500X0*%
%ADD41RoundRect,0.075000X-0.662500X0.075000X-0.662500X-0.075000X0.662500X-0.075000X0.662500X0.075000X0*%
%ADD42R,1.600000X0.410000*%
%ADD43RoundRect,0.218750X0.256250X-0.218750X0.256250X0.218750X-0.256250X0.218750X-0.256250X-0.218750X0*%
%ADD44R,2.000000X1.500000*%
%ADD45R,2.000000X3.800000*%
%ADD46RoundRect,0.250000X0.550000X-1.500000X0.550000X1.500000X-0.550000X1.500000X-0.550000X-1.500000X0*%
%ADD47R,2.400000X1.500000*%
%ADD48R,1.050000X1.500000*%
%ADD49RoundRect,0.150000X-0.325000X-0.150000X0.325000X-0.150000X0.325000X0.150000X-0.325000X0.150000X0*%
%ADD50RoundRect,0.150000X-0.150000X-0.325000X0.150000X-0.325000X0.150000X0.325000X-0.150000X0.325000X0*%
%ADD51R,0.400000X0.650000*%
%ADD52R,2.500000X2.300000*%
%ADD53R,1.200000X0.800000*%
%ADD54R,1.200000X1.200000*%
%ADD55RoundRect,0.250000X-0.550000X1.050000X-0.550000X-1.050000X0.550000X-1.050000X0.550000X1.050000X0*%
%ADD56R,3.500000X1.800000*%
%ADD57R,2.440000X1.120000*%
%ADD58RoundRect,0.150000X0.825000X0.150000X-0.825000X0.150000X-0.825000X-0.150000X0.825000X-0.150000X0*%
%ADD59RoundRect,0.150000X-0.150000X0.650000X-0.150000X-0.650000X0.150000X-0.650000X0.150000X0.650000X0*%
%ADD60R,2.360000X2.360000*%
%ADD61RoundRect,0.250000X-0.625000X0.375000X-0.625000X-0.375000X0.625000X-0.375000X0.625000X0.375000X0*%
%ADD62R,1.150000X1.000000*%
%ADD63RoundRect,0.237500X-1.162500X-0.237500X1.162500X-0.237500X1.162500X0.237500X-1.162500X0.237500X0*%
G04 APERTURE END LIST*
D10*
X187562500Y-93500000D03*
X189437500Y-93500000D03*
X187562500Y-89500000D03*
X189437500Y-89500000D03*
X187562500Y-86000000D03*
X189437500Y-86000000D03*
D11*
X198905000Y-88800000D03*
X197635000Y-88800000D03*
X196365000Y-88800000D03*
X195095000Y-88800000D03*
X195095000Y-94200000D03*
X196365000Y-94200000D03*
X197635000Y-94200000D03*
X198905000Y-94200000D03*
D12*
X215800000Y-89595000D03*
X215800000Y-90865000D03*
X215800000Y-92135000D03*
X215800000Y-93405000D03*
X221200000Y-93405000D03*
X221200000Y-92135000D03*
X221200000Y-90865000D03*
X221200000Y-89595000D03*
D10*
X191062500Y-112268000D03*
X192937500Y-112268000D03*
D13*
X201000000Y-109562500D03*
X201000000Y-111437500D03*
D10*
X187562500Y-101349000D03*
X189437500Y-101349000D03*
X187562500Y-112268000D03*
X189437500Y-112268000D03*
X187562500Y-104849000D03*
X189437500Y-104849000D03*
D11*
X198905000Y-105800000D03*
X197635000Y-105800000D03*
X196365000Y-105800000D03*
X195095000Y-105800000D03*
X195095000Y-111200000D03*
X196365000Y-111200000D03*
X197635000Y-111200000D03*
X198905000Y-111200000D03*
D12*
X215800000Y-106595000D03*
X215800000Y-107865000D03*
X215800000Y-109135000D03*
X215800000Y-110405000D03*
X221200000Y-110405000D03*
X221200000Y-109135000D03*
X221200000Y-107865000D03*
X221200000Y-106595000D03*
D14*
X203301000Y-103623200D03*
X203301000Y-104283600D03*
X203301000Y-104918600D03*
X203301000Y-105579000D03*
X203301000Y-106214000D03*
X203301000Y-106874400D03*
X203301000Y-107534800D03*
X203301000Y-108169800D03*
X203301000Y-108830200D03*
X203301000Y-109465200D03*
X203301000Y-110125600D03*
X203301000Y-110786000D03*
X203301000Y-111421000D03*
X203301000Y-112081400D03*
X203301000Y-112716400D03*
X203301000Y-113376800D03*
X212699000Y-113376800D03*
X212699000Y-112716400D03*
X212699000Y-112081400D03*
X212699000Y-111421000D03*
X212699000Y-110786000D03*
X212699000Y-110125600D03*
X212699000Y-109465200D03*
X212699000Y-108830200D03*
X212699000Y-108169800D03*
X212699000Y-107534800D03*
X212699000Y-106874400D03*
X212699000Y-106214000D03*
X212699000Y-105579000D03*
X212699000Y-104918600D03*
X212699000Y-104283600D03*
X212699000Y-103623200D03*
D15*
X208000000Y-108500000D03*
D10*
X187562500Y-108849000D03*
X189437500Y-108849000D03*
D13*
X201000000Y-92562500D03*
X201000000Y-94437500D03*
D10*
X187562500Y-97536000D03*
X189437500Y-97536000D03*
D16*
X251000000Y-49937500D03*
X251000000Y-48062500D03*
D10*
X256562500Y-56500000D03*
X258437500Y-56500000D03*
X253062500Y-47500000D03*
X254937500Y-47500000D03*
D13*
X251000000Y-35062500D03*
X251000000Y-36937500D03*
D10*
X194562500Y-33500000D03*
X196437500Y-33500000D03*
D17*
X254937500Y-37500000D03*
X253062500Y-37500000D03*
X203437500Y-29500000D03*
X201562500Y-29500000D03*
X243937500Y-47500000D03*
X242062500Y-47500000D03*
D10*
X189308500Y-29500000D03*
X191183500Y-29500000D03*
D17*
X196437500Y-31500000D03*
X194562500Y-31500000D03*
X243937500Y-41500000D03*
X242062500Y-41500000D03*
D10*
X253062500Y-43500000D03*
X254937500Y-43500000D03*
X242062500Y-43500000D03*
X243937500Y-43500000D03*
X220562500Y-58500000D03*
X222437500Y-58500000D03*
D18*
X231879000Y-110500000D03*
X233929000Y-110500000D03*
D19*
X233929000Y-104500000D03*
X231879000Y-104500000D03*
D18*
X231879000Y-94500000D03*
X233929000Y-94500000D03*
X231879000Y-88500000D03*
X233929000Y-88500000D03*
D20*
X246444000Y-94550000D03*
X246444000Y-92450000D03*
X246444000Y-104450000D03*
X246444000Y-106550000D03*
X246444000Y-102050000D03*
X246444000Y-99950000D03*
X246444000Y-96450000D03*
X246444000Y-98550000D03*
D18*
X231879000Y-102500000D03*
X233929000Y-102500000D03*
D19*
X233929000Y-96500000D03*
X231879000Y-96500000D03*
D10*
X256562500Y-58500000D03*
X258437500Y-58500000D03*
D16*
X190000000Y-65937500D03*
X190000000Y-64062500D03*
X194056000Y-55293500D03*
X194056000Y-53418500D03*
D21*
X186000000Y-66537500D03*
X186000000Y-63462500D03*
D22*
X196609500Y-63246000D03*
X193534500Y-63246000D03*
D20*
X246444000Y-110050000D03*
X246444000Y-107950000D03*
X246444000Y-88950000D03*
X246444000Y-91050000D03*
D23*
X227900001Y-57270001D03*
X227900001Y-58540001D03*
X227900001Y-59810001D03*
X227900001Y-61080001D03*
X232850001Y-61080001D03*
X232850001Y-59810001D03*
X232850001Y-58540001D03*
X232850001Y-57270001D03*
D10*
X263276500Y-59000000D03*
X265151500Y-59000000D03*
X263276500Y-61000000D03*
X265151500Y-61000000D03*
D17*
X228140500Y-51816000D03*
X226265500Y-51816000D03*
D10*
X214454500Y-61000000D03*
X216329500Y-61000000D03*
D17*
X265151500Y-55000000D03*
X263276500Y-55000000D03*
X258437500Y-54500000D03*
X256562500Y-54500000D03*
D10*
X194562500Y-29500000D03*
X196437500Y-29500000D03*
X253062500Y-39500000D03*
X254937500Y-39500000D03*
D17*
X222437500Y-61000000D03*
X220562500Y-61000000D03*
D24*
X244055000Y-60975000D03*
X245325000Y-60975000D03*
X246595000Y-60975000D03*
X247865000Y-60975000D03*
X249135000Y-60975000D03*
X250405000Y-60975000D03*
X251675000Y-60975000D03*
X252945000Y-60975000D03*
X252945000Y-56025000D03*
X251675000Y-56025000D03*
X250405000Y-56025000D03*
X249135000Y-56025000D03*
X247865000Y-56025000D03*
X246595000Y-56025000D03*
X245325000Y-56025000D03*
X244055000Y-56025000D03*
D25*
X194500000Y-41175000D03*
X197000000Y-41175000D03*
X199500000Y-41175000D03*
X194500000Y-46825000D03*
X197000000Y-46825000D03*
X199500000Y-46825000D03*
D10*
X256562500Y-60500000D03*
X258437500Y-60500000D03*
D17*
X243937500Y-49500000D03*
X242062500Y-49500000D03*
D10*
X242062500Y-35500000D03*
X243937500Y-35500000D03*
D17*
X265151500Y-57000000D03*
X263276500Y-57000000D03*
D10*
X253062500Y-49500000D03*
X254937500Y-49500000D03*
D17*
X254937500Y-35500000D03*
X253062500Y-35500000D03*
X191239500Y-33500000D03*
X189364500Y-33500000D03*
D10*
X242062500Y-39500000D03*
X243937500Y-39500000D03*
D17*
X254937500Y-45500000D03*
X253062500Y-45500000D03*
D10*
X242062500Y-37500000D03*
X243937500Y-37500000D03*
D17*
X254937500Y-41500000D03*
X253062500Y-41500000D03*
X264937500Y-40000000D03*
X263062500Y-40000000D03*
D10*
X263062500Y-42000000D03*
X264937500Y-42000000D03*
D17*
X264937500Y-44000000D03*
X263062500Y-44000000D03*
D10*
X263062500Y-46000000D03*
X264937500Y-46000000D03*
D23*
X246025000Y-38690000D03*
X246025000Y-39960000D03*
X246025000Y-41230000D03*
X246025000Y-42500000D03*
X246025000Y-43770000D03*
X246025000Y-45040000D03*
X246025000Y-46310000D03*
X250975000Y-46310000D03*
X250975000Y-45040000D03*
X250975000Y-43770000D03*
X250975000Y-42500000D03*
X250975000Y-41230000D03*
X250975000Y-39960000D03*
X250975000Y-38690000D03*
X267025000Y-38690000D03*
X267025000Y-39960000D03*
X267025000Y-41230000D03*
X267025000Y-42500000D03*
X267025000Y-43770000D03*
X267025000Y-45040000D03*
X267025000Y-46310000D03*
X271975000Y-46310000D03*
X271975000Y-45040000D03*
X271975000Y-43770000D03*
X271975000Y-42500000D03*
X271975000Y-41230000D03*
X271975000Y-39960000D03*
X271975000Y-38690000D03*
D26*
X225000000Y-93637500D03*
X225000000Y-89362500D03*
D13*
X173990000Y-72722500D03*
X173990000Y-74597500D03*
D10*
X226265500Y-53975000D03*
X228140500Y-53975000D03*
D27*
X214050000Y-57850000D03*
X214050000Y-58500000D03*
X214050000Y-59150000D03*
X215950000Y-59150000D03*
X215950000Y-58500000D03*
X215950000Y-57850000D03*
D19*
X237525000Y-57540000D03*
X235475000Y-57540000D03*
D17*
X237437500Y-61500000D03*
X235562500Y-61500000D03*
D10*
X235562500Y-59500000D03*
X237437500Y-59500000D03*
D17*
X243937500Y-45500000D03*
X242062500Y-45500000D03*
D28*
X237614000Y-51816000D03*
X240414000Y-51816000D03*
D10*
X189364500Y-31500000D03*
X191239500Y-31500000D03*
X193880500Y-77216000D03*
X195755500Y-77216000D03*
D29*
X263339000Y-53000000D03*
X265089000Y-53000000D03*
D13*
X180594000Y-78437500D03*
X180594000Y-80312500D03*
D30*
X183989000Y-108849000D03*
X186089000Y-108849000D03*
X183989000Y-93500000D03*
X186089000Y-93500000D03*
X183989000Y-104849000D03*
X186089000Y-104849000D03*
X183989000Y-89500000D03*
X186089000Y-89500000D03*
D31*
X188900000Y-71600000D03*
D32*
X188000000Y-71600000D03*
X187000000Y-71600000D03*
D33*
X186100000Y-71600000D03*
D34*
X188900000Y-72500000D03*
D35*
X188000000Y-72500000D03*
X187000000Y-72500000D03*
D36*
X186100000Y-72500000D03*
D34*
X188900000Y-73500000D03*
D35*
X188000000Y-73500000D03*
X187000000Y-73500000D03*
D36*
X186100000Y-73500000D03*
D37*
X188900000Y-74400000D03*
D38*
X188000000Y-74400000D03*
X187000000Y-74400000D03*
D39*
X186100000Y-74400000D03*
D40*
X190250000Y-68837500D03*
X189750000Y-68837500D03*
X189250000Y-68837500D03*
X188750000Y-68837500D03*
X188250000Y-68837500D03*
X187750000Y-68837500D03*
X187250000Y-68837500D03*
X186750000Y-68837500D03*
X186250000Y-68837500D03*
X185750000Y-68837500D03*
X185250000Y-68837500D03*
X184750000Y-68837500D03*
D41*
X183337500Y-70250000D03*
X183337500Y-70750000D03*
X183337500Y-71250000D03*
X183337500Y-71750000D03*
X183337500Y-72250000D03*
X183337500Y-72750000D03*
X183337500Y-73250000D03*
X183337500Y-73750000D03*
X183337500Y-74250000D03*
X183337500Y-74750000D03*
X183337500Y-75250000D03*
X183337500Y-75750000D03*
D40*
X184750000Y-77162500D03*
X185250000Y-77162500D03*
X185750000Y-77162500D03*
X186250000Y-77162500D03*
X186750000Y-77162500D03*
X187250000Y-77162500D03*
X187750000Y-77162500D03*
X188250000Y-77162500D03*
X188750000Y-77162500D03*
X189250000Y-77162500D03*
X189750000Y-77162500D03*
X190250000Y-77162500D03*
D41*
X191662500Y-75750000D03*
X191662500Y-75250000D03*
X191662500Y-74750000D03*
X191662500Y-74250000D03*
X191662500Y-73750000D03*
X191662500Y-73250000D03*
X191662500Y-72750000D03*
X191662500Y-72250000D03*
X191662500Y-71750000D03*
X191662500Y-71250000D03*
X191662500Y-70750000D03*
X191662500Y-70250000D03*
D17*
X191239500Y-35500000D03*
X189364500Y-35500000D03*
D13*
X205359000Y-49354500D03*
X205359000Y-51229500D03*
D16*
X209804000Y-51229500D03*
X209804000Y-49354500D03*
D13*
X208280000Y-61292500D03*
X208280000Y-63167500D03*
X204978000Y-61292500D03*
X204978000Y-63167500D03*
X211582000Y-61292500D03*
X211582000Y-63167500D03*
D42*
X210680300Y-59880500D03*
X210680300Y-59245500D03*
X210680300Y-58610500D03*
X210680300Y-57975500D03*
X210680300Y-57340500D03*
X210680300Y-56705500D03*
X210680300Y-56070500D03*
X210680300Y-55435500D03*
X205371700Y-55435500D03*
X205371700Y-56070500D03*
X205371700Y-56705500D03*
X205371700Y-57340500D03*
X205371700Y-57975500D03*
X205371700Y-58610500D03*
X205371700Y-59245500D03*
X205371700Y-59880500D03*
D17*
X184325500Y-44196000D03*
X182450500Y-44196000D03*
X184325500Y-41656000D03*
X182450500Y-41656000D03*
D10*
X186006500Y-44196000D03*
X187881500Y-44196000D03*
X186006500Y-41656000D03*
X187881500Y-41656000D03*
D27*
X180274000Y-44084000D03*
X180274000Y-43434000D03*
X180274000Y-42784000D03*
X178374000Y-42784000D03*
X178374000Y-43434000D03*
X178374000Y-44084000D03*
D43*
X177292000Y-56413500D03*
X177292000Y-54838500D03*
D44*
X180442000Y-68086000D03*
X180442000Y-65786000D03*
D45*
X174142000Y-65786000D03*
D44*
X180442000Y-63486000D03*
D17*
X192961500Y-108839000D03*
X191086500Y-108839000D03*
X192961500Y-93472000D03*
X191086500Y-93472000D03*
X192961500Y-104849000D03*
X191086500Y-104849000D03*
X192961500Y-89500000D03*
X191086500Y-89500000D03*
D10*
X191086500Y-97536000D03*
X192961500Y-97536000D03*
X191086500Y-101349000D03*
X192961500Y-101349000D03*
X191086500Y-86000000D03*
X192961500Y-86000000D03*
D46*
X265430000Y-111793000D03*
X265430000Y-106393000D03*
D47*
X255612000Y-119634000D03*
D48*
X253237000Y-119634000D03*
D49*
X270526000Y-48038000D03*
X270526000Y-48838000D03*
X270526000Y-49638000D03*
X270526000Y-50438000D03*
X270526000Y-51238000D03*
X270526000Y-52038000D03*
D50*
X271526000Y-52038000D03*
D49*
X272526000Y-52038000D03*
X272526000Y-51238000D03*
X272526000Y-50438000D03*
X272526000Y-49638000D03*
X272526000Y-48838000D03*
X272526000Y-48038000D03*
D50*
X271526000Y-48038000D03*
D51*
X272684000Y-55184000D03*
X272034000Y-55184000D03*
X271384000Y-55184000D03*
X271384000Y-57084000D03*
X272684000Y-57084000D03*
D52*
X188350000Y-59182000D03*
X192650000Y-59182000D03*
D53*
X249225000Y-33401000D03*
X249225000Y-32131000D03*
X249225000Y-30861000D03*
X249225000Y-29591000D03*
X241025000Y-29591000D03*
X241025000Y-30861000D03*
X241025000Y-32131000D03*
D54*
X241025000Y-33401000D03*
D55*
X177546000Y-72114000D03*
X177546000Y-75714000D03*
D19*
X269503000Y-65532000D03*
X267453000Y-65532000D03*
X269503000Y-69592001D03*
X267453000Y-69592001D03*
X269503000Y-67564000D03*
X267453000Y-67564000D03*
D10*
X263730500Y-65532000D03*
X265605500Y-65532000D03*
X263730500Y-69596000D03*
X265605500Y-69596000D03*
X263730500Y-67564000D03*
X265605500Y-67564000D03*
D46*
X189230000Y-54770000D03*
X189230000Y-49370000D03*
X181864000Y-54770000D03*
X181864000Y-49370000D03*
D56*
X183602000Y-59182000D03*
X178602000Y-59182000D03*
D19*
X233929000Y-98500000D03*
X231879000Y-98500000D03*
X233929000Y-100500000D03*
X231879000Y-100500000D03*
X233929000Y-90500000D03*
X231879000Y-90500000D03*
X233929000Y-92500000D03*
X231879000Y-92500000D03*
X233929000Y-106500000D03*
X231879000Y-106500000D03*
X233929000Y-108500000D03*
X231879000Y-108500000D03*
D14*
X203301000Y-86623200D03*
X203301000Y-87283600D03*
X203301000Y-87918600D03*
X203301000Y-88579000D03*
X203301000Y-89214000D03*
X203301000Y-89874400D03*
X203301000Y-90534800D03*
X203301000Y-91169800D03*
X203301000Y-91830200D03*
X203301000Y-92465200D03*
X203301000Y-93125600D03*
X203301000Y-93786000D03*
X203301000Y-94421000D03*
X203301000Y-95081400D03*
X203301000Y-95716400D03*
X203301000Y-96376800D03*
X212699000Y-96376800D03*
X212699000Y-95716400D03*
X212699000Y-95081400D03*
X212699000Y-94421000D03*
X212699000Y-93786000D03*
X212699000Y-93125600D03*
X212699000Y-92465200D03*
X212699000Y-91830200D03*
X212699000Y-91169800D03*
X212699000Y-90534800D03*
X212699000Y-89874400D03*
X212699000Y-89214000D03*
X212699000Y-88579000D03*
X212699000Y-87918600D03*
X212699000Y-87283600D03*
X212699000Y-86623200D03*
D15*
X208000000Y-91500000D03*
D57*
X223761000Y-53975000D03*
X223761000Y-51435000D03*
X215151000Y-51435000D03*
X215151000Y-53975000D03*
D58*
X205294000Y-75565000D03*
X205294000Y-74295000D03*
X205294000Y-73025000D03*
X205294000Y-71755000D03*
X200344000Y-71755000D03*
X200344000Y-73025000D03*
X200344000Y-74295000D03*
X200344000Y-75565000D03*
D16*
X225933000Y-110157500D03*
X225933000Y-108282500D03*
D10*
X211679501Y-98638001D03*
X213554501Y-98638001D03*
D25*
X204500000Y-41175000D03*
X207000000Y-41175000D03*
X209500000Y-41175000D03*
X204500000Y-46825000D03*
X207000000Y-46825000D03*
X209500000Y-46825000D03*
D30*
X183989000Y-86000000D03*
X186089000Y-86000000D03*
D17*
X182547500Y-86000000D03*
X180672500Y-86000000D03*
X179118500Y-85979000D03*
X177243500Y-85979000D03*
X182547500Y-112268000D03*
X180672500Y-112268000D03*
X182547500Y-108849000D03*
X180672500Y-108849000D03*
X182547500Y-97500000D03*
X180672500Y-97500000D03*
X182547500Y-93500000D03*
X180672500Y-93500000D03*
X182547500Y-104849000D03*
X180672500Y-104849000D03*
X182547500Y-101346000D03*
X180672500Y-101346000D03*
X182547500Y-89500000D03*
X180672500Y-89500000D03*
X179118500Y-112268000D03*
X177243500Y-112268000D03*
X179118500Y-108849000D03*
X177243500Y-108849000D03*
X179118500Y-93500000D03*
X177243500Y-93500000D03*
X179118500Y-104849000D03*
X177243500Y-104849000D03*
X179118500Y-101349000D03*
X177243500Y-101349000D03*
X179118500Y-89500000D03*
X177243500Y-89500000D03*
D30*
X183989000Y-97500000D03*
X186089000Y-97500000D03*
D17*
X179118500Y-97500000D03*
X177243500Y-97500000D03*
D59*
X265176000Y-72854000D03*
X263906000Y-72854000D03*
X262636000Y-72854000D03*
X261366000Y-72854000D03*
X261366000Y-80054000D03*
X262636000Y-80054000D03*
X263906000Y-80054000D03*
X265176000Y-80054000D03*
D30*
X183989000Y-112268000D03*
X186089000Y-112268000D03*
X183989000Y-101349000D03*
X186089000Y-101349000D03*
D60*
X225552000Y-72962000D03*
D47*
X208622000Y-67945000D03*
D48*
X206247000Y-67945000D03*
D16*
X211455000Y-69898500D03*
X211455000Y-68023500D03*
D61*
X203200000Y-49400000D03*
X203200000Y-52200000D03*
D28*
X200403000Y-57785000D03*
X203203000Y-57785000D03*
X200403000Y-55372000D03*
X203203000Y-55372000D03*
D61*
X207518000Y-49527000D03*
X207518000Y-52327000D03*
D19*
X239658000Y-54610000D03*
X237608000Y-54610000D03*
D25*
X214500000Y-41175000D03*
X217000000Y-41175000D03*
X219500000Y-41175000D03*
X214500000Y-46825000D03*
X217000000Y-46825000D03*
X219500000Y-46825000D03*
D62*
X216675000Y-102500000D03*
X216675000Y-100000000D03*
X216675000Y-97500000D03*
X222325000Y-102500000D03*
X222325000Y-100000000D03*
X222325000Y-97500000D03*
D63*
X236693000Y-89027000D03*
X236693000Y-90547000D03*
X236693000Y-92067000D03*
X236693000Y-93587000D03*
X243493000Y-93587000D03*
X243493000Y-92067000D03*
X243493000Y-90547000D03*
X243493000Y-89027000D03*
X236693000Y-97155000D03*
X236693000Y-98675000D03*
X236693000Y-100195000D03*
X236693000Y-101715000D03*
X243493000Y-101715000D03*
X243493000Y-100195000D03*
X243493000Y-98675000D03*
X243493000Y-97155000D03*
X236566000Y-105156000D03*
X236566000Y-106676000D03*
X236566000Y-108196000D03*
X236566000Y-109716000D03*
X243366000Y-109716000D03*
X243366000Y-108196000D03*
X243366000Y-106676000D03*
X243366000Y-105156000D03*
M02*
