M48
; DRILL file {KiCad 7.0.5-0} date 2023 July 24, Monday 16:11:46
; FORMAT={-:-/ absolute / metric / decimal}
; #@! TF.CreationDate,2023-07-24T16:11:46+10:00
; #@! TF.GenerationSoftware,Kicad,Pcbnew,7.0.5-0
; #@! TF.FileFunction,Plated,1,2,PTH
FMAT,2
METRIC
; #@! TA.AperFunction,Plated,PTH,ComponentDrill
T1C0.200
; #@! TA.AperFunction,Plated,PTH,ViaDrill
T2C0.400
; #@! TA.AperFunction,Plated,PTH,ComponentDrill
T3C0.800
; #@! TA.AperFunction,Plated,PTH,ComponentDrill
T4C0.850
; #@! TA.AperFunction,Plated,PTH,ComponentDrill
T5C1.000
; #@! TA.AperFunction,Plated,PTH,ComponentDrill
T6C1.090
; #@! TA.AperFunction,Plated,PTH,ComponentDrill
T7C1.100
; #@! TA.AperFunction,Plated,PTH,ComponentDrill
T8C1.300
; #@! TA.AperFunction,Plated,PTH,ComponentDrill
T9C1.850
; #@! TA.AperFunction,Plated,PTH,ComponentDrill
T10C3.200
%
G90
G05
T1
X186.5Y-72.0
X186.5Y-73.0
X186.5Y-74.0
X187.5Y-72.0
X187.5Y-73.0
X187.5Y-74.0
X188.5Y-72.0
X188.5Y-73.0
X188.5Y-74.0
T2
X159.893Y-109.474
X159.893Y-110.998
X159.893Y-112.522
X159.893Y-113.919
X160.782Y-72.009
X160.782Y-73.152
X160.782Y-74.295
X160.782Y-75.438
X163.225Y-34.482
X164.763Y-32.763
X165.354Y-62.23
X165.354Y-72.009
X165.354Y-73.152
X165.354Y-74.295
X165.354Y-75.438
X166.37Y-62.23
X166.37Y-72.009
X166.37Y-73.152
X166.37Y-74.295
X166.37Y-75.438
X167.386Y-29.718
X167.386Y-62.23
X167.386Y-72.009
X167.386Y-73.152
X167.386Y-74.295
X167.386Y-75.438
X168.402Y-62.23
X168.402Y-72.009
X168.402Y-73.152
X168.402Y-74.295
X168.402Y-75.438
X173.482Y-67.818
X174.0Y-76.5
X174.752Y-62.992
X174.752Y-67.818
X174.752Y-70.739
X175.0Y-81.492
X175.895Y-62.992
X175.895Y-64.262
X175.895Y-66.548
X175.895Y-67.818
X175.895Y-70.739
X176.022Y-86.487
X176.149Y-108.723
X176.149Y-90.297
X176.149Y-94.1
X176.149Y-101.727
X176.276Y-28.702
X176.438Y-104.556
X176.911Y-29.845
X177.0Y-81.492
X177.038Y-62.992
X177.038Y-64.262
X177.038Y-66.548
X177.038Y-67.818
X177.292Y-46.482
X177.546Y-51.054
X178.181Y-62.992
X178.181Y-64.262
X178.181Y-66.548
X178.181Y-67.818
X178.308Y-27.178
X179.07Y-49.53
X179.07Y-116.713
X179.197Y-30.988
X180.086Y-114.898
X180.18Y-42.127
X180.34Y-45.72
X180.5Y-76.5
X180.594Y-71.755
X181.356Y-42.926
X181.737Y-105.664
X181.864Y-89.535
X181.864Y-93.599
X181.864Y-98.044
X181.991Y-100.711
X181.991Y-111.76
X182.0Y-71.5
X182.547Y-107.998
X182.626Y-65.278
X182.88Y-69.215
X183.388Y-77.724
X183.667Y-68.548
X184.0Y-35.5
X184.658Y-62.103
X185.039Y-86.868
X185.42Y-45.72
X185.674Y-50.038
X185.674Y-53.848
X185.801Y-80.518
X185.928Y-65.278
X186.182Y-58.039
X186.182Y-114.935
X186.69Y-119.634
X187.198Y-80.264
X187.706Y-30.48
X188.468Y-119.634
X188.5Y-63.0
X189.049Y-43.107
X190.246Y-61.976
X190.754Y-53.848
X190.754Y-54.864
X191.77Y-37.338
X191.77Y-43.688
X191.77Y-54.864
X191.77Y-62.992
X192.278Y-77.47
X193.04Y-29.972
X193.04Y-33.02
X193.04Y-34.5
X193.5Y-113.859
X194.0Y-86.0
X194.0Y-88.784
X194.0Y-94.0
X194.0Y-98.0
X194.0Y-101.346
X194.0Y-104.394
X194.31Y-109.22
X195.707Y-73.152
X195.961Y-71.501
X196.0Y-90.5
X196.0Y-107.5
X196.0Y-112.5
X196.088Y-60.452
X196.088Y-69.85
X196.088Y-79.629
X196.088Y-80.645
X197.485Y-49.784
X197.612Y-50.8
X198.0Y-34.5
X198.12Y-85.471
X198.581Y-99.996
X198.628Y-95.885
X198.775Y-77.724
X198.882Y-54.737
X198.882Y-56.515
X198.882Y-78.994
X198.985Y-82.333
X199.39Y-90.932
X199.393Y-107.145
X199.439Y-108.173
X199.644Y-69.85
X200.0Y-112.5
X200.025Y-68.199
X200.152Y-89.916
X200.293Y-106.707
X200.534Y-36.949
X200.914Y-63.754
X201.0Y-31.5
X201.0Y-106.0
X201.056Y-88.962
X201.676Y-61.468
X201.803Y-95.885
X202.057Y-44.196
X202.311Y-76.962
X203.327Y-72.898
X203.581Y-76.962
X203.708Y-85.344
X204.216Y-102.362
X204.978Y-31.496
X204.978Y-97.906
X206.5Y-88.0
X206.5Y-89.412
X206.5Y-90.809
X206.5Y-92.206
X206.5Y-93.603
X206.5Y-95.0
X206.5Y-105.018
X206.5Y-106.43
X206.5Y-107.827
X206.5Y-109.224
X206.5Y-110.621
X206.5Y-112.018
X206.756Y-85.344
X207.518Y-71.882
X208.026Y-88.011
X208.026Y-89.408
X208.026Y-90.805
X208.026Y-92.202
X208.026Y-93.599
X208.026Y-94.996
X208.026Y-105.029
X208.026Y-106.426
X208.026Y-107.823
X208.026Y-109.22
X208.026Y-110.617
X208.026Y-112.014
X208.116Y-73.37
X208.519Y-59.195
X208.602Y-55.948
X209.395Y-58.053
X209.5Y-88.0
X209.5Y-89.412
X209.5Y-90.809
X209.5Y-92.206
X209.5Y-93.603
X209.5Y-95.0
X209.5Y-105.018
X209.5Y-106.43
X209.5Y-107.827
X209.5Y-109.224
X209.5Y-110.621
X209.5Y-112.018
X209.55Y-72.517
X209.574Y-73.517
X209.931Y-69.977
X210.82Y-64.262
X212.0Y-43.0
X212.09Y-34.29
X212.5Y-102.0
X213.106Y-61.468
X213.106Y-62.992
X213.36Y-77.597
X213.36Y-78.867
X214.085Y-56.642
X214.122Y-91.948
X214.122Y-107.95
X215.392Y-57.023
X215.9Y-49.53
X215.9Y-63.246
X216.0Y-114.5
X216.0Y-116.0
X216.281Y-48.387
X216.535Y-62.357
X216.789Y-70.485
X216.789Y-72.771
X218.0Y-107.0
X218.021Y-59.525
X218.059Y-62.357
X218.5Y-91.5
X218.567Y-52.832
X218.953Y-56.891
X219.075Y-70.485
X219.075Y-72.771
X219.202Y-95.504
X219.5Y-112.0
X219.837Y-62.357
X220.0Y-113.0
X220.0Y-117.0
X220.091Y-50.292
X220.091Y-56.896
X220.218Y-87.884
X221.107Y-50.292
X221.107Y-56.896
X221.234Y-33.909
X221.361Y-31.75
X221.5Y-43.5
X221.742Y-62.521
X222.12Y-50.305
X222.123Y-33.02
X222.123Y-56.896
X222.393Y-46.125
X222.5Y-104.5
X222.631Y-38.862
X223.134Y-32.253
X223.393Y-46.101
X223.647Y-38.862
X224.0Y-84.5
X224.409Y-46.125
X224.536Y-30.48
X224.647Y-38.862
X225.0Y-85.5
X225.0Y-96.0
X226.06Y-87.884
X226.785Y-63.253
X228.346Y-67.818
X229.235Y-72.644
X229.362Y-67.818
X229.498Y-82.47
X229.616Y-55.499
X229.87Y-52.832
X230.124Y-95.504
X230.251Y-72.644
X230.251Y-103.378
X230.251Y-105.537
X230.378Y-67.818
X230.5Y-61.0
X230.632Y-31.496
X230.632Y-36.576
X230.886Y-116.713
X231.267Y-72.644
X231.648Y-49.53
X232.029Y-116.713
X232.151Y-76.703
X233.045Y-62.103
X233.172Y-116.713
X233.426Y-52.07
X233.435Y-74.935
X233.934Y-86.725
X234.061Y-56.134
X234.315Y-116.713
X234.521Y-77.021
X234.95Y-71.247
X235.458Y-76.2
X235.458Y-116.713
X235.597Y-68.237
X235.839Y-111.379
X235.966Y-95.25
X235.966Y-103.378
X236.22Y-87.63
X236.474Y-74.549
X236.601Y-116.713
X236.728Y-112.776
X237.363Y-103.378
X237.49Y-67.818
X237.49Y-95.25
X237.617Y-39.243
X237.744Y-49.53
X237.744Y-111.379
X237.744Y-116.713
X237.998Y-29.718
X238.0Y-78.5
X238.633Y-87.63
X238.76Y-56.134
X238.76Y-103.378
X238.887Y-95.25
X239.522Y-76.454
X240.284Y-38.354
X240.284Y-104.267
X240.538Y-88.646
X240.538Y-89.916
X240.538Y-92.71
X240.538Y-93.98
X240.538Y-97.028
X240.538Y-98.298
X240.538Y-100.838
X240.538Y-101.981
X240.538Y-106.553
X240.665Y-108.204
X240.665Y-109.474
X240.665Y-110.744
X240.792Y-42.418
X240.792Y-48.514
X241.046Y-77.47
X241.3Y-104.267
X241.3Y-105.664
X241.427Y-88.011
X241.427Y-90.551
X241.427Y-92.202
X241.427Y-94.742
X241.427Y-96.393
X241.427Y-98.679
X241.554Y-70.231
X241.554Y-73.025
X241.554Y-100.838
X241.554Y-101.981
X241.808Y-51.308
X242.062Y-53.086
X242.57Y-110.744
X243.0Y-56.0
X243.84Y-51.054
X244.944Y-95.5
X244.944Y-103.5
X244.944Y-111.0
X244.983Y-87.503
X245.11Y-48.514
X246.0Y-113.0
X246.761Y-77.888
X247.015Y-48.514
X247.325Y-42.5
X247.65Y-84.582
X248.412Y-87.884
X248.5Y-35.5
X248.793Y-70.774
X249.428Y-45.72
X249.5Y-42.5
X249.682Y-108.712
X250.0Y-51.5
X250.698Y-67.945
X251.079Y-114.173
X251.206Y-119.888
X254.5Y-34.0
X255.0Y-61.0
X256.5Y-40.5
X259.334Y-36.957
X259.334Y-38.481
X259.334Y-42.672
X259.334Y-44.958
X259.5Y-47.0
X259.5Y-53.0
X259.842Y-74.168
X260.0Y-26.5
X260.0Y-55.5
X260.096Y-64.262
X261.493Y-104.775
X262.0Y-38.5
X262.001Y-51.181
X262.636Y-74.803
X262.636Y-77.126
X263.144Y-49.784
X263.144Y-99.187
X263.525Y-63.246
X264.922Y-76.962
X265.557Y-109.093
X266.7Y-59.944
X267.462Y-63.246
X267.462Y-71.628
X267.462Y-72.898
X267.825Y-42.5
X268.097Y-107.442
X268.224Y-109.728
X268.351Y-112.141
X269.24Y-50.546
X269.748Y-55.118
X269.748Y-61.468
X270.129Y-74.803
X271.309Y-53.594
X272.034Y-58.166
X272.542Y-70.993
X272.737Y-60.266
X272.796Y-53.848
X273.0Y-27.0
X273.0Y-33.0
X273.812Y-70.104
T3
X259.334Y-102.362
X259.334Y-104.902
X259.334Y-107.442
X259.334Y-109.982
X259.334Y-112.522
X259.334Y-115.062
X259.334Y-117.602
X259.334Y-120.142
X272.034Y-102.362
X272.034Y-104.902
X272.034Y-107.442
X272.034Y-109.982
X272.034Y-112.522
X272.034Y-115.062
X272.034Y-117.602
X272.034Y-120.142
T4
X195.5Y-44.0
X198.5Y-44.0
X205.5Y-44.0
X208.5Y-44.0
X215.5Y-44.0
X218.5Y-44.0
X219.5Y-98.5
X219.5Y-101.5
T5
X209.677Y-31.115
X212.217Y-31.115
X214.757Y-31.115
X217.297Y-31.115
T6
X228.092Y-34.036
X228.092Y-36.576
X228.092Y-39.116
X228.092Y-41.656
X228.092Y-44.196
X233.172Y-34.036
X233.172Y-36.576
X233.172Y-39.116
X233.172Y-41.656
X233.172Y-44.196
T7
X199.29Y-65.38
X199.29Y-80.62
X201.83Y-65.38
X201.83Y-80.62
X204.37Y-65.38
X204.37Y-80.62
X206.91Y-65.38
X206.91Y-80.62
X209.45Y-65.38
X209.45Y-80.62
X211.99Y-65.38
X211.99Y-80.62
X214.53Y-65.38
X214.53Y-80.62
X217.07Y-65.38
X217.07Y-80.62
X219.61Y-65.38
X219.61Y-80.62
X222.15Y-65.38
X222.15Y-80.62
X224.69Y-65.38
X224.69Y-80.62
X227.23Y-65.38
X227.23Y-80.62
X229.77Y-65.38
X229.77Y-80.62
X232.31Y-65.38
X232.31Y-80.62
X234.85Y-65.38
X234.85Y-80.62
X237.39Y-65.38
X237.39Y-80.62
X239.93Y-65.38
X239.93Y-80.62
X242.47Y-65.38
X242.47Y-80.62
X245.01Y-65.38
X245.01Y-67.92
X245.01Y-70.46
X245.01Y-73.0
X245.01Y-75.54
X245.01Y-78.08
X245.01Y-80.62
X247.55Y-65.38
X247.55Y-80.62
X250.09Y-65.38
X250.09Y-80.62
X252.63Y-65.38
X252.63Y-80.62
X255.17Y-65.38
X255.17Y-80.62
X257.71Y-65.38
X257.71Y-80.62
T8
X165.996Y-34.515
X165.996Y-38.665
X165.996Y-41.995
X165.996Y-45.325
X165.996Y-48.655
X165.996Y-51.985
X165.996Y-55.315
X165.996Y-59.465
X165.996Y-87.855
X165.996Y-92.005
X165.996Y-95.335
X165.996Y-98.665
X165.996Y-101.995
X165.996Y-105.325
X165.996Y-108.655
X165.996Y-112.805
X170.196Y-34.515
X170.196Y-38.665
X170.196Y-41.995
X170.196Y-45.325
X170.196Y-48.655
X170.196Y-51.985
X170.196Y-55.315
X170.196Y-59.465
X170.196Y-87.855
X170.196Y-92.005
X170.196Y-95.335
X170.196Y-98.665
X170.196Y-101.995
X170.196Y-105.325
X170.196Y-108.655
X170.196Y-112.805
X174.396Y-34.515
X174.396Y-38.665
X174.396Y-41.995
X174.396Y-45.325
X174.396Y-48.655
X174.396Y-51.985
X174.396Y-55.315
X174.396Y-59.465
X174.396Y-87.855
X174.396Y-92.005
X174.396Y-95.335
X174.396Y-98.665
X174.396Y-101.995
X174.396Y-105.325
X174.396Y-108.655
X174.396Y-112.805
T9
X225.552Y-68.962
X225.552Y-76.962
T10
X183.102Y-30.48
X183.102Y-117.5
X266.16Y-30.5
X266.16Y-117.5
T0
M30
