M48
; DRILL file {KiCad 7.0.1-0} date 2023 May 22, Monday 10:16:31
; FORMAT={-:-/ absolute / metric / decimal}
; #@! TF.CreationDate,2023-05-22T10:16:31+10:00
; #@! TF.GenerationSoftware,Kicad,Pcbnew,7.0.1-0
; #@! TF.FileFunction,Plated,1,2,PTH
FMAT,2
METRIC
; #@! TA.AperFunction,Plated,PTH,ComponentDrill
T1C0.200
; #@! TA.AperFunction,Plated,PTH,ViaDrill
T2C0.400
; #@! TA.AperFunction,Plated,PTH,ComponentDrill
T3C0.800
; #@! TA.AperFunction,Plated,PTH,ComponentDrill
T4C0.840
; #@! TA.AperFunction,Plated,PTH,ComponentDrill
T5C0.850
; #@! TA.AperFunction,Plated,PTH,ComponentDrill
T6C1.000
; #@! TA.AperFunction,Plated,PTH,ComponentDrill
T7C1.016
; #@! TA.AperFunction,Plated,PTH,ComponentDrill
T8C1.100
; #@! TA.AperFunction,Plated,PTH,ComponentDrill
T9C3.500
; #@! TA.AperFunction,Plated,PTH,ComponentDrill
T10C4.100
%
G90
G05
T1
X188.5Y-115.214
X188.5Y-116.214
X188.5Y-117.214
X189.5Y-115.214
X189.5Y-116.214
X189.5Y-117.214
X190.5Y-115.214
X190.5Y-116.214
X190.5Y-117.214
T2
X111.125Y-101.6
X112.014Y-65.024
X117.856Y-109.474
X119.888Y-130.302
X123.698Y-43.18
X126.238Y-42.164
X128.27Y-93.726
X129.0Y-48.214
X129.286Y-104.14
X129.286Y-115.57
X129.298Y-122.44
X129.336Y-126.492
X129.54Y-85.09
X130.048Y-41.148
X130.5Y-90.714
X130.531Y-53.619
X130.709Y-42.571
X130.81Y-44.45
X131.064Y-46.482
X131.318Y-52.07
X131.572Y-49.784
X132.08Y-101.092
X132.08Y-107.188
X133.096Y-87.376
X133.5Y-95.714
X134.5Y-104.714
X135.128Y-71.882
X135.128Y-114.808
X135.636Y-68.58
X136.398Y-69.85
X136.5Y-90.714
X136.525Y-87.376
X136.602Y-116.332
X136.602Y-119.888
X136.652Y-63.754
X137.414Y-73.152
X137.668Y-81.026
X138.43Y-119.888
X139.192Y-68.072
X139.954Y-114.808
X140.0Y-95.714
X140.462Y-75.438
X141.986Y-87.376
X142.0Y-90.714
X142.24Y-81.026
X143.51Y-39.989
X144.272Y-46.736
X145.288Y-42.672
X145.796Y-64.77
X145.796Y-71.882
X146.5Y-95.714
X146.558Y-50.8
X147.828Y-108.712
X149.098Y-124.968
X150.368Y-58.166
X151.765Y-119.38
X151.887Y-110.495
X151.892Y-68.072
X151.892Y-70.612
X151.892Y-73.406
X152.4Y-62.23
X152.908Y-112.776
X152.908Y-113.792
X152.908Y-116.332
X153.0Y-95.714
X153.162Y-124.968
X153.67Y-66.561
X154.686Y-107.709
X156.21Y-63.5
X157.48Y-101.092
X157.5Y-92.714
X157.734Y-104.902
X157.988Y-53.086
X158.115Y-123.634
X159.512Y-40.64
X159.512Y-58.166
X159.512Y-65.532
X159.512Y-105.664
X159.512Y-108.712
X159.766Y-100.838
X161.036Y-43.942
X161.036Y-51.816
X168.91Y-69.088
X168.91Y-71.12
X169.164Y-94.996
X169.164Y-99.568
X170.942Y-69.088
X171.45Y-127.635
X174.244Y-69.088
X177.8Y-94.234
X178.308Y-65.786
X179.6Y-106.159
X179.832Y-71.12
X180.34Y-67.564
X181.356Y-107.714
X181.864Y-67.31
X182.372Y-112.522
X183.388Y-84.582
X183.642Y-75.692
X184.404Y-66.765
X185.42Y-58.42
X185.928Y-108.712
X186.69Y-65.024
X186.69Y-66.802
X187.198Y-123.444
X187.198Y-127.0
X187.96Y-86.36
X187.96Y-91.44
X187.96Y-108.712
X190.754Y-75.692
X190.754Y-122.936
X190.754Y-127.762
X192.278Y-65.024
X192.278Y-67.31
X192.278Y-70.358
X192.532Y-125.476
X193.04Y-86.36
X193.04Y-91.44
X193.275Y-120.732
X194.0Y-119.714
X194.818Y-63.5
X195.072Y-61.468
X195.641Y-118.126
X196.342Y-76.962
X196.85Y-82.55
X197.104Y-59.182
X198.628Y-54.356
X199.0Y-118.214
X200.152Y-56.642
X200.66Y-63.5
T3
X165.0Y-119.214
X167.0Y-111.714
T4
X175.5Y-82.714
X175.5Y-85.254
X175.5Y-87.794
X175.5Y-90.334
X175.5Y-92.874
X175.5Y-95.414
T5
X152.0Y-88.714
X155.0Y-88.714
T6
X130.302Y-65.024
X131.318Y-130.302
X132.842Y-65.024
X133.858Y-130.302
X168.402Y-39.116
X168.402Y-41.656
X168.402Y-44.196
X168.402Y-46.736
X168.402Y-49.276
X168.402Y-51.816
X172.212Y-39.116
X172.212Y-41.656
X172.212Y-44.196
X172.212Y-46.736
X172.212Y-49.276
X172.212Y-51.816
X175.768Y-76.2
X175.768Y-78.74
X176.022Y-37.465
X176.022Y-39.624
X176.022Y-41.783
X176.022Y-43.942
X176.022Y-46.101
X176.022Y-48.26
X176.022Y-50.419
X176.022Y-52.578
X178.181Y-37.465
X178.181Y-39.624
X178.181Y-41.783
X178.181Y-43.942
X178.181Y-46.101
X178.181Y-48.26
X178.181Y-50.419
X178.181Y-52.578
X178.308Y-110.744
X178.308Y-113.284
X180.34Y-37.465
X180.34Y-39.624
X180.34Y-41.783
X180.34Y-43.942
X180.34Y-46.101
X180.34Y-48.26
X180.34Y-50.419
X180.34Y-52.578
X182.499Y-37.465
X182.499Y-39.624
X182.499Y-41.783
X182.499Y-43.942
X182.499Y-46.101
X182.499Y-48.26
X182.499Y-50.419
X182.499Y-52.578
X184.658Y-37.465
X184.658Y-39.624
X184.658Y-41.783
X184.658Y-43.942
X184.658Y-46.101
X184.658Y-48.26
X184.658Y-50.419
X184.658Y-52.578
X186.817Y-37.465
X186.817Y-39.624
X186.817Y-41.783
X186.817Y-43.942
X186.817Y-46.101
X186.817Y-48.26
X186.817Y-50.419
X186.817Y-52.578
X188.976Y-37.465
X188.976Y-39.624
X188.976Y-41.783
X188.976Y-43.942
X188.976Y-46.101
X188.976Y-48.26
X188.976Y-50.419
X188.976Y-52.578
X191.135Y-37.465
X191.135Y-39.624
X191.135Y-41.783
X191.135Y-43.942
X191.135Y-46.101
X191.135Y-48.26
X191.135Y-50.419
X191.135Y-52.578
X193.294Y-37.465
X193.294Y-39.624
X193.294Y-41.783
X193.294Y-43.942
X193.294Y-46.101
X193.294Y-48.26
X193.294Y-50.419
X193.294Y-52.578
X194.056Y-109.22
X195.453Y-37.465
X195.453Y-39.624
X195.453Y-41.783
X195.453Y-43.942
X195.453Y-46.101
X195.453Y-48.26
X195.453Y-50.419
X195.453Y-52.578
X198.882Y-39.116
X198.882Y-41.656
X198.882Y-44.196
X198.882Y-46.736
X198.882Y-49.276
X198.882Y-51.816
X206.5Y-39.014
X206.5Y-41.554
X206.5Y-44.094
X206.5Y-46.634
X206.5Y-49.174
X206.5Y-51.714
T7
X128.796Y-56.414
X131.336Y-56.414
X133.876Y-56.414
X136.416Y-56.414
X137.94Y-104.674
X138.956Y-56.414
X140.48Y-104.674
X141.496Y-56.414
X143.02Y-104.674
X144.036Y-56.414
X145.56Y-104.674
X146.576Y-56.414
X148.1Y-104.674
X149.116Y-56.414
X150.64Y-104.674
X151.656Y-56.414
X153.18Y-104.674
X155.72Y-56.414
X155.72Y-104.674
X158.26Y-56.414
X160.8Y-56.414
X160.8Y-104.674
X163.34Y-56.414
X163.34Y-104.674
X165.88Y-56.414
X165.88Y-104.674
X168.42Y-56.414
X168.42Y-104.674
X170.96Y-56.414
X170.96Y-104.674
X173.5Y-56.414
X173.5Y-104.674
X176.04Y-104.674
X178.58Y-56.414
X178.58Y-104.674
X181.12Y-56.414
X183.66Y-56.414
X183.66Y-104.674
X186.2Y-56.414
X186.2Y-104.674
X188.74Y-56.414
X188.74Y-104.674
X191.28Y-56.414
X191.28Y-104.674
X193.82Y-56.414
X193.82Y-104.674
X196.36Y-56.414
X196.36Y-104.674
X198.9Y-104.674
X201.44Y-104.674
X203.98Y-56.414
X203.98Y-58.954
X203.98Y-61.494
X203.98Y-64.034
X203.98Y-66.574
X203.98Y-69.114
X203.98Y-71.654
X203.98Y-74.194
X203.98Y-76.734
X203.98Y-79.274
X203.98Y-81.814
X203.98Y-84.354
X203.98Y-86.894
X203.98Y-89.434
X203.98Y-91.974
X203.98Y-94.514
X203.98Y-97.054
X203.98Y-99.594
X206.52Y-56.414
X206.52Y-58.954
X206.52Y-61.494
X206.52Y-64.034
X206.52Y-66.574
X206.52Y-69.114
X206.52Y-71.654
X206.52Y-74.194
X206.52Y-76.734
X206.52Y-79.274
X206.52Y-81.814
X206.52Y-84.354
X206.52Y-86.894
X206.52Y-89.434
X206.52Y-91.974
X206.52Y-94.514
X206.52Y-97.054
X206.52Y-99.594
T8
X121.0Y-47.4
X121.0Y-50.9
X121.0Y-54.4
X121.0Y-57.5
X121.0Y-60.5
X121.0Y-63.5
X121.0Y-66.5
X121.0Y-69.5
X121.0Y-72.5
X121.0Y-75.5
X121.0Y-78.5
X121.0Y-81.6
X121.0Y-85.1
X121.0Y-91.3
X121.0Y-94.4
X121.0Y-97.4
X121.0Y-100.4
X121.0Y-103.4
X121.0Y-106.4
X121.0Y-109.4
X121.0Y-112.4
X121.0Y-115.4
X121.0Y-118.5
X121.0Y-122.0
X125.5Y-47.4
X125.5Y-50.9
X125.5Y-54.4
X125.5Y-57.5
X125.5Y-60.5
X125.5Y-63.5
X125.5Y-66.5
X125.5Y-69.5
X125.5Y-72.5
X125.5Y-75.5
X125.5Y-78.5
X125.5Y-81.6
X125.5Y-85.1
X125.5Y-91.3
X125.5Y-94.4
X125.5Y-97.4
X125.5Y-100.4
X125.5Y-103.4
X125.5Y-106.4
X125.5Y-109.4
X125.5Y-112.4
X125.5Y-115.4
X125.5Y-118.5
X125.5Y-122.0
X170.38Y-120.214
X178.0Y-120.214
X205.0Y-106.714
X205.0Y-114.334
X205.0Y-117.214
X205.0Y-124.834
T9
X115.3Y-42.35
X115.3Y-88.2
X115.3Y-127.05
T10
X187.82Y-77.464
X187.82Y-100.614
T0
M30
