%TF.GenerationSoftware,KiCad,Pcbnew,7.0.1-0*%
%TF.CreationDate,2023-05-22T10:15:59+10:00*%
%TF.ProjectId,NA6 v1.3,4e413620-7631-42e3-932e-6b696361645f,rev?*%
%TF.SameCoordinates,Original*%
%TF.FileFunction,Soldermask,Bot*%
%TF.FilePolarity,Negative*%
%FSLAX46Y46*%
G04 Gerber Fmt 4.6, Leading zero omitted, Abs format (unit mm)*
G04 Created by KiCad (PCBNEW 7.0.1-0) date 2023-05-22 10:15:59*
%MOMM*%
%LPD*%
G01*
G04 APERTURE LIST*
G04 Aperture macros list*
%AMRoundRect*
0 Rectangle with rounded corners*
0 $1 Rounding radius*
0 $2 $3 $4 $5 $6 $7 $8 $9 X,Y pos of 4 corners*
0 Add a 4 corners polygon primitive as box body*
4,1,4,$2,$3,$4,$5,$6,$7,$8,$9,$2,$3,0*
0 Add four circle primitives for the rounded corners*
1,1,$1+$1,$2,$3*
1,1,$1+$1,$4,$5*
1,1,$1+$1,$6,$7*
1,1,$1+$1,$8,$9*
0 Add four rect primitives between the rounded corners*
20,1,$1+$1,$2,$3,$4,$5,0*
20,1,$1+$1,$4,$5,$6,$7,0*
20,1,$1+$1,$6,$7,$8,$9,0*
20,1,$1+$1,$8,$9,$2,$3,0*%
G04 Aperture macros list end*
%ADD10O,1.802000X1.802000*%
%ADD11C,1.802000*%
%ADD12C,5.352000*%
%ADD13C,1.752000*%
%ADD14C,1.483000*%
%ADD15RoundRect,0.051000X0.850000X0.850000X-0.850000X0.850000X-0.850000X-0.850000X0.850000X-0.850000X0*%
%ADD16RoundRect,0.051000X-0.850000X-0.850000X0.850000X-0.850000X0.850000X0.850000X-0.850000X0.850000X0*%
%ADD17C,1.602000*%
%ADD18C,4.202000*%
%ADD19C,1.902000*%
%ADD20O,2.302000X2.302000*%
%ADD21RoundRect,0.051000X1.100000X1.100000X-1.100000X1.100000X-1.100000X-1.100000X1.100000X-1.100000X0*%
%ADD22RoundRect,0.051000X-1.100000X1.100000X-1.100000X-1.100000X1.100000X-1.100000X1.100000X1.100000X0*%
%ADD23O,1.829200X1.829200*%
%ADD24RoundRect,0.051000X-0.850000X0.850000X-0.850000X-0.850000X0.850000X-0.850000X0.850000X0.850000X0*%
%ADD25RoundRect,0.051000X0.850000X-0.850000X0.850000X0.850000X-0.850000X0.850000X-0.850000X-0.850000X0*%
G04 APERTURE END LIST*
D10*
X184658000Y-37465000D03*
X193294000Y-37465000D03*
D11*
X176022000Y-37465000D03*
D10*
X186817000Y-37465000D03*
X180340000Y-37465000D03*
X191135000Y-37465000D03*
D11*
X195453000Y-37465000D03*
X182499000Y-37465000D03*
D10*
X178181000Y-37465000D03*
D11*
X188976000Y-37465000D03*
D10*
X184658000Y-39624000D03*
X193294000Y-39624000D03*
D11*
X176022000Y-39624000D03*
D10*
X186817000Y-39624000D03*
X180340000Y-39624000D03*
X191135000Y-39624000D03*
X195453000Y-39624000D03*
D11*
X182499000Y-39624000D03*
D10*
X178181000Y-39624000D03*
D11*
X188976000Y-39624000D03*
D10*
X184658000Y-41783000D03*
X193294000Y-41783000D03*
D11*
X176022000Y-41783000D03*
D10*
X191135000Y-41783000D03*
X195453000Y-41783000D03*
D11*
X182499000Y-41783000D03*
D10*
X178181000Y-41783000D03*
X186817000Y-41783000D03*
X180340000Y-41783000D03*
D11*
X188976000Y-41783000D03*
D10*
X195453000Y-43942000D03*
X180340000Y-43942000D03*
X186817000Y-43942000D03*
X184658000Y-43942000D03*
X191135000Y-43942000D03*
D11*
X188976000Y-43942000D03*
D10*
X193294000Y-43942000D03*
D11*
X176022000Y-43942000D03*
D10*
X178181000Y-43942000D03*
D11*
X182499000Y-43942000D03*
D10*
X186817000Y-46101000D03*
X184658000Y-46101000D03*
D11*
X182499000Y-46101000D03*
D10*
X178181000Y-46101000D03*
D11*
X176022000Y-46101000D03*
D10*
X180340000Y-46101000D03*
X195453000Y-46101000D03*
D11*
X188976000Y-46101000D03*
D10*
X193294000Y-46101000D03*
X191135000Y-46101000D03*
X180340000Y-48260000D03*
X178181000Y-48260000D03*
D11*
X176022000Y-48260000D03*
D10*
X186817000Y-48260000D03*
X184658000Y-48260000D03*
D11*
X182499000Y-48260000D03*
D10*
X195453000Y-48260000D03*
X193294000Y-48260000D03*
X191135000Y-48260000D03*
D11*
X188976000Y-48260000D03*
D10*
X195453000Y-50419000D03*
X193294000Y-50419000D03*
X191135000Y-50419000D03*
D11*
X188976000Y-50419000D03*
D10*
X180340000Y-50419000D03*
X178181000Y-50419000D03*
D11*
X176022000Y-50419000D03*
D10*
X186817000Y-50419000D03*
X184658000Y-50419000D03*
D11*
X182499000Y-50419000D03*
D10*
X195453000Y-52578000D03*
X193294000Y-52578000D03*
X191135000Y-52578000D03*
D11*
X188976000Y-52578000D03*
D10*
X186817000Y-52578000D03*
X184658000Y-52578000D03*
D11*
X182499000Y-52578000D03*
D10*
X180340000Y-52578000D03*
X178181000Y-52578000D03*
D11*
X176022000Y-52578000D03*
D12*
X115300000Y-127050000D03*
X115300000Y-88200000D03*
X115300000Y-42350000D03*
D13*
X121000000Y-47400000D03*
X121000000Y-50900000D03*
X121000000Y-54400000D03*
X121000000Y-57500000D03*
X121000000Y-60500000D03*
X121000000Y-63500000D03*
X121000000Y-66500000D03*
X121000000Y-69500000D03*
X121000000Y-72500000D03*
X121000000Y-75500000D03*
X121000000Y-78500000D03*
X121000000Y-81600000D03*
X121000000Y-85100000D03*
X121000000Y-91300000D03*
X121000000Y-94400000D03*
X121000000Y-97400000D03*
X121000000Y-100400000D03*
X121000000Y-103400000D03*
X121000000Y-106400000D03*
X121000000Y-109400000D03*
X121000000Y-112400000D03*
X121000000Y-115400000D03*
X121000000Y-118500000D03*
X121000000Y-122000000D03*
X125500000Y-47400000D03*
X125500000Y-50900000D03*
X125500000Y-54400000D03*
X125500000Y-57500000D03*
X125500000Y-60500000D03*
X125500000Y-63500000D03*
X125500000Y-66500000D03*
X125500000Y-69500000D03*
X125500000Y-72500000D03*
X125500000Y-75500000D03*
X125500000Y-78500000D03*
X125500000Y-81600000D03*
X125500000Y-85100000D03*
X125500000Y-91300000D03*
X125500000Y-94400000D03*
X125500000Y-97400000D03*
X125500000Y-100400000D03*
X125500000Y-103400000D03*
X125500000Y-106400000D03*
X125500000Y-109400000D03*
X125500000Y-112400000D03*
X125500000Y-115400000D03*
X125500000Y-118500000D03*
X125500000Y-122000000D03*
D14*
X155000000Y-88714000D03*
X152000000Y-88714000D03*
D10*
X206500000Y-39014000D03*
X206500000Y-41554000D03*
X206500000Y-44094000D03*
X206500000Y-46634000D03*
X206500000Y-49174000D03*
D15*
X206500000Y-51714000D03*
X198882000Y-51816000D03*
D10*
X198882000Y-49276000D03*
X198882000Y-46736000D03*
X198882000Y-44196000D03*
X198882000Y-41656000D03*
X198882000Y-39116000D03*
D16*
X172212000Y-39116000D03*
D10*
X172212000Y-41656000D03*
X172212000Y-44196000D03*
X172212000Y-46736000D03*
X172212000Y-49276000D03*
X172212000Y-51816000D03*
D17*
X175500000Y-82714000D03*
X175500000Y-85254000D03*
X175500000Y-87794000D03*
X175500000Y-90334000D03*
X175500000Y-92874000D03*
X175500000Y-95414000D03*
D18*
X187820000Y-100614000D03*
X187820000Y-77464000D03*
D19*
X167000000Y-111714000D03*
X165000000Y-119214000D03*
D20*
X170380000Y-120214000D03*
D21*
X178000000Y-120214000D03*
D22*
X205000000Y-117214000D03*
D20*
X205000000Y-124834000D03*
D22*
X205000000Y-106714000D03*
D20*
X205000000Y-114334000D03*
D23*
X160800000Y-104674000D03*
X155720000Y-104674000D03*
X153180000Y-104674000D03*
X150640000Y-104674000D03*
X148100000Y-104674000D03*
X145560000Y-104674000D03*
X143020000Y-104674000D03*
X140480000Y-104674000D03*
X196360000Y-56414000D03*
X193820000Y-56414000D03*
X191280000Y-56414000D03*
X188740000Y-56414000D03*
X186200000Y-56414000D03*
X183660000Y-56414000D03*
X181120000Y-56414000D03*
X178580000Y-56414000D03*
X173500000Y-56414000D03*
X170960000Y-56414000D03*
X168420000Y-56414000D03*
X165880000Y-56414000D03*
X163340000Y-56414000D03*
X160800000Y-56414000D03*
X158260000Y-56414000D03*
X155720000Y-56414000D03*
X136416000Y-56414000D03*
X151656000Y-56414000D03*
X149116000Y-56414000D03*
X146576000Y-56414000D03*
X128796000Y-56414000D03*
X131336000Y-56414000D03*
X133876000Y-56414000D03*
X138956000Y-56414000D03*
X141496000Y-56414000D03*
X144036000Y-56414000D03*
X137940000Y-104674000D03*
X163340000Y-104674000D03*
X165880000Y-104674000D03*
X168420000Y-104674000D03*
X170960000Y-104674000D03*
X173500000Y-104674000D03*
X176040000Y-104674000D03*
X178580000Y-104674000D03*
X183660000Y-104674000D03*
X186200000Y-104674000D03*
X188740000Y-104674000D03*
X191280000Y-104674000D03*
X193820000Y-104674000D03*
X196360000Y-104674000D03*
X198900000Y-104674000D03*
X201440000Y-104674000D03*
X203980000Y-56414000D03*
X206520000Y-56414000D03*
X203980000Y-58954000D03*
X206520000Y-58954000D03*
X203980000Y-61494000D03*
X206520000Y-61494000D03*
X203980000Y-64034000D03*
X206520000Y-64034000D03*
X203980000Y-66574000D03*
X206520000Y-66574000D03*
X203980000Y-69114000D03*
X206520000Y-69114000D03*
X203980000Y-71654000D03*
X206520000Y-71654000D03*
X203980000Y-74194000D03*
X206520000Y-74194000D03*
X203980000Y-76734000D03*
X206520000Y-76734000D03*
X203980000Y-79274000D03*
X206520000Y-79274000D03*
X203980000Y-81814000D03*
X206520000Y-81814000D03*
X203980000Y-84354000D03*
X206520000Y-84354000D03*
X203980000Y-86894000D03*
X206520000Y-86894000D03*
X203980000Y-89434000D03*
X206520000Y-89434000D03*
X203980000Y-91974000D03*
X206520000Y-91974000D03*
X203980000Y-94514000D03*
X206520000Y-94514000D03*
X203980000Y-97054000D03*
X206520000Y-97054000D03*
X203980000Y-99594000D03*
X206520000Y-99594000D03*
D24*
X132842000Y-65024000D03*
D10*
X130302000Y-65024000D03*
D16*
X168402000Y-39116000D03*
D10*
X168402000Y-41656000D03*
X168402000Y-44196000D03*
X168402000Y-46736000D03*
X168402000Y-49276000D03*
X168402000Y-51816000D03*
D25*
X131318000Y-130302000D03*
D10*
X133858000Y-130302000D03*
D15*
X175768000Y-78740000D03*
D10*
X175768000Y-76200000D03*
D15*
X178308000Y-113284000D03*
D10*
X178308000Y-110744000D03*
D16*
X194056000Y-109220000D03*
M02*
