%TF.GenerationSoftware,KiCad,Pcbnew,7.0.1-0*%
%TF.CreationDate,2023-05-22T10:15:59+10:00*%
%TF.ProjectId,NA6 v1.3,4e413620-7631-42e3-932e-6b696361645f,rev?*%
%TF.SameCoordinates,Original*%
%TF.FileFunction,Paste,Top*%
%TF.FilePolarity,Positive*%
%FSLAX46Y46*%
G04 Gerber Fmt 4.6, Leading zero omitted, Abs format (unit mm)*
G04 Created by KiCad (PCBNEW 7.0.1-0) date 2023-05-22 10:15:59*
%MOMM*%
%LPD*%
G01*
G04 APERTURE LIST*
G04 Aperture macros list*
%AMRoundRect*
0 Rectangle with rounded corners*
0 $1 Rounding radius*
0 $2 $3 $4 $5 $6 $7 $8 $9 X,Y pos of 4 corners*
0 Add a 4 corners polygon primitive as box body*
4,1,4,$2,$3,$4,$5,$6,$7,$8,$9,$2,$3,0*
0 Add four circle primitives for the rounded corners*
1,1,$1+$1,$2,$3*
1,1,$1+$1,$4,$5*
1,1,$1+$1,$6,$7*
1,1,$1+$1,$8,$9*
0 Add four rect primitives between the rounded corners*
20,1,$1+$1,$2,$3,$4,$5,0*
20,1,$1+$1,$4,$5,$6,$7,0*
20,1,$1+$1,$6,$7,$8,$9,0*
20,1,$1+$1,$8,$9,$2,$3,0*%
%AMFreePoly0*
4,1,7,0.322490,0.294667,0.322490,-0.294667,0.214044,-0.403113,-0.322490,-0.403113,-0.322490,0.403113,0.214044,0.403113,0.322490,0.294667,0.322490,0.294667,$1*%
%AMFreePoly1*
4,1,7,0.322490,-0.403113,-0.214044,-0.403113,-0.322490,-0.294667,-0.322490,0.294667,-0.214044,0.403113,0.322490,0.403113,0.322490,-0.403113,0.322490,-0.403113,$1*%
%AMFreePoly2*
4,1,7,0.403113,-0.214044,0.294667,-0.322490,-0.294667,-0.322490,-0.403113,-0.214044,-0.403113,0.322490,0.403113,0.322490,0.403113,-0.214044,0.403113,-0.214044,$1*%
%AMFreePoly3*
4,1,7,0.403113,0.214044,0.403113,-0.322490,-0.403113,-0.322490,-0.403113,0.214044,-0.294667,0.322490,0.294667,0.322490,0.403113,0.214044,0.403113,0.214044,$1*%
%AMFreePoly4*
4,1,6,0.322490,-0.194667,0.194667,-0.322490,-0.322490,-0.322490,-0.322490,0.322490,0.322490,0.322490,0.322490,-0.194667,0.322490,-0.194667,$1*%
%AMFreePoly5*
4,1,6,0.322490,0.194667,0.322490,-0.322490,-0.322490,-0.322490,-0.322490,0.322490,0.194667,0.322490,0.322490,0.194667,0.322490,0.194667,$1*%
%AMFreePoly6*
4,1,6,0.322490,-0.322490,-0.194667,-0.322490,-0.322490,-0.194667,-0.322490,0.322490,0.322490,0.322490,0.322490,-0.322490,0.322490,-0.322490,$1*%
%AMFreePoly7*
4,1,6,0.322490,-0.322490,-0.322490,-0.322490,-0.322490,0.194667,-0.194667,0.322490,0.322490,0.322490,0.322490,-0.322490,0.322490,-0.322490,$1*%
G04 Aperture macros list end*
%ADD10R,1.200000X1.200000*%
%ADD11R,1.200000X0.800000*%
%ADD12R,1.000000X1.150000*%
%ADD13RoundRect,0.243750X0.243750X0.456250X-0.243750X0.456250X-0.243750X-0.456250X0.243750X-0.456250X0*%
%ADD14RoundRect,0.243750X0.456250X-0.243750X0.456250X0.243750X-0.456250X0.243750X-0.456250X-0.243750X0*%
%ADD15RoundRect,0.243750X-0.243750X-0.456250X0.243750X-0.456250X0.243750X0.456250X-0.243750X0.456250X0*%
%ADD16RoundRect,0.250000X-0.375000X-0.625000X0.375000X-0.625000X0.375000X0.625000X-0.375000X0.625000X0*%
%ADD17RoundRect,0.250000X-0.325000X-0.450000X0.325000X-0.450000X0.325000X0.450000X-0.325000X0.450000X0*%
%ADD18RoundRect,0.250000X0.325000X0.450000X-0.325000X0.450000X-0.325000X-0.450000X0.325000X-0.450000X0*%
%ADD19RoundRect,0.201557X0.201556X-0.201556X0.201556X0.201556X-0.201556X0.201556X-0.201556X-0.201556X0*%
%ADD20FreePoly0,90.000000*%
%ADD21FreePoly1,90.000000*%
%ADD22FreePoly2,90.000000*%
%ADD23FreePoly3,90.000000*%
%ADD24FreePoly4,90.000000*%
%ADD25FreePoly5,90.000000*%
%ADD26FreePoly6,90.000000*%
%ADD27FreePoly7,90.000000*%
%ADD28RoundRect,0.075000X0.075000X-0.662500X0.075000X0.662500X-0.075000X0.662500X-0.075000X-0.662500X0*%
%ADD29RoundRect,0.075000X0.662500X-0.075000X0.662500X0.075000X-0.662500X0.075000X-0.662500X-0.075000X0*%
%ADD30RoundRect,0.150000X0.725000X0.150000X-0.725000X0.150000X-0.725000X-0.150000X0.725000X-0.150000X0*%
%ADD31R,1.550000X0.600000*%
%ADD32R,0.600000X1.500000*%
%ADD33R,0.600000X0.450000*%
%ADD34RoundRect,0.250000X1.050000X0.550000X-1.050000X0.550000X-1.050000X-0.550000X1.050000X-0.550000X0*%
%ADD35RoundRect,0.250000X0.787500X1.025000X-0.787500X1.025000X-0.787500X-1.025000X0.787500X-1.025000X0*%
%ADD36RoundRect,0.250000X-0.625000X0.375000X-0.625000X-0.375000X0.625000X-0.375000X0.625000X0.375000X0*%
%ADD37RoundRect,0.250000X-0.925000X0.412500X-0.925000X-0.412500X0.925000X-0.412500X0.925000X0.412500X0*%
%ADD38RoundRect,0.150000X0.825000X0.150000X-0.825000X0.150000X-0.825000X-0.150000X0.825000X-0.150000X0*%
%ADD39RoundRect,0.218750X-0.218750X-0.256250X0.218750X-0.256250X0.218750X0.256250X-0.218750X0.256250X0*%
%ADD40R,2.000000X3.800000*%
%ADD41R,2.000000X1.500000*%
%ADD42R,2.500000X2.300000*%
G04 APERTURE END LIST*
D10*
X193019000Y-78105000D03*
D11*
X193019000Y-76835000D03*
X193019000Y-75565000D03*
X193019000Y-74295000D03*
X201219000Y-74295000D03*
X201219000Y-75565000D03*
X201219000Y-76835000D03*
X201219000Y-78105000D03*
D12*
X156000000Y-91539000D03*
X153500000Y-91539000D03*
X151000000Y-91539000D03*
X156000000Y-85889000D03*
X153500000Y-85889000D03*
X151000000Y-85889000D03*
D13*
X175937500Y-97714000D03*
X174062500Y-97714000D03*
D14*
X172000000Y-99276500D03*
X172000000Y-101151500D03*
D15*
X151437500Y-98714000D03*
X149562500Y-98714000D03*
X170062500Y-112214000D03*
X171937500Y-112214000D03*
X171274500Y-60706000D03*
X173149500Y-60706000D03*
D13*
X151437500Y-94714000D03*
X149562500Y-94714000D03*
X171937500Y-108214000D03*
X170062500Y-108214000D03*
X174062500Y-99714000D03*
X175937500Y-99714000D03*
D15*
X144937500Y-98714000D03*
X143062500Y-98714000D03*
X131937500Y-98714000D03*
X130062500Y-98714000D03*
X138437500Y-98714000D03*
X136562500Y-98714000D03*
D13*
X144937500Y-94714000D03*
X143062500Y-94714000D03*
X131937500Y-92714000D03*
X130062500Y-92714000D03*
X138437500Y-92714000D03*
X136562500Y-92714000D03*
D15*
X131239500Y-70866000D03*
X129364500Y-70866000D03*
D16*
X177162000Y-127000000D03*
X179962000Y-127000000D03*
D13*
X156288500Y-110490000D03*
X158163500Y-110490000D03*
X158163500Y-112776000D03*
X156288500Y-112776000D03*
D15*
X154437500Y-51714000D03*
X152562500Y-51714000D03*
X152562500Y-48214000D03*
X154437500Y-48214000D03*
X154437500Y-44214000D03*
X152562500Y-44214000D03*
X152562500Y-40714000D03*
X154437500Y-40714000D03*
X156062500Y-51714000D03*
X157937500Y-51714000D03*
X157937500Y-48214000D03*
X156062500Y-48214000D03*
D13*
X131062500Y-114428000D03*
X132937500Y-114428000D03*
X133000000Y-108428000D03*
X131125000Y-108428000D03*
D15*
X156062500Y-44214000D03*
X157937500Y-44214000D03*
X157937500Y-40714000D03*
X156062500Y-40714000D03*
X170062500Y-114214000D03*
X171937500Y-114214000D03*
D13*
X151437500Y-96714000D03*
X149562500Y-96714000D03*
X171937500Y-110214000D03*
X170062500Y-110214000D03*
X173149500Y-58674000D03*
X171274500Y-58674000D03*
D15*
X174062500Y-101714000D03*
X175937500Y-101714000D03*
X131937500Y-96714000D03*
X130062500Y-96714000D03*
X138437500Y-96714000D03*
X136562500Y-96714000D03*
D13*
X143062500Y-96714000D03*
X144937500Y-96714000D03*
X131937500Y-94714000D03*
X130062500Y-94714000D03*
X138437500Y-94714000D03*
X136562500Y-94714000D03*
D15*
X156062500Y-96714000D03*
X157937500Y-96714000D03*
D17*
X201667000Y-52578000D03*
X203717000Y-52578000D03*
X203717000Y-50546000D03*
X201667000Y-50546000D03*
X144281000Y-118364000D03*
X142231000Y-118364000D03*
X142231000Y-120396000D03*
X144281000Y-120396000D03*
X162017000Y-71118000D03*
X164067000Y-71118000D03*
X164067000Y-69118000D03*
X162017000Y-69118000D03*
X164067000Y-73118000D03*
X162017000Y-73118000D03*
D18*
X164067000Y-67118000D03*
X162017000Y-67118000D03*
X129277000Y-68580000D03*
X131327000Y-68580000D03*
D15*
X196674500Y-60452000D03*
X198549500Y-60452000D03*
D19*
X189000000Y-116714000D03*
X190000000Y-116714000D03*
X189000000Y-115714000D03*
X190000000Y-115714000D03*
D20*
X189000000Y-117614000D03*
X190000000Y-117614000D03*
D21*
X189000000Y-114814000D03*
X190000000Y-114814000D03*
D22*
X188100000Y-116714000D03*
X188100000Y-115714000D03*
D23*
X190900000Y-116714000D03*
X190900000Y-115714000D03*
D24*
X188100000Y-117614000D03*
D25*
X190900000Y-117614000D03*
D26*
X188100000Y-114814000D03*
D27*
X190900000Y-114814000D03*
D28*
X186750000Y-120376500D03*
X187250000Y-120376500D03*
X187750000Y-120376500D03*
X188250000Y-120376500D03*
X188750000Y-120376500D03*
X189250000Y-120376500D03*
X189750000Y-120376500D03*
X190250000Y-120376500D03*
X190750000Y-120376500D03*
X191250000Y-120376500D03*
X191750000Y-120376500D03*
X192250000Y-120376500D03*
D29*
X193662500Y-118964000D03*
X193662500Y-118464000D03*
X193662500Y-117964000D03*
X193662500Y-117464000D03*
X193662500Y-116964000D03*
X193662500Y-116464000D03*
X193662500Y-115964000D03*
X193662500Y-115464000D03*
X193662500Y-114964000D03*
X193662500Y-114464000D03*
X193662500Y-113964000D03*
X193662500Y-113464000D03*
D28*
X192250000Y-112051500D03*
X191750000Y-112051500D03*
X191250000Y-112051500D03*
X190750000Y-112051500D03*
X190250000Y-112051500D03*
X189750000Y-112051500D03*
X189250000Y-112051500D03*
X188750000Y-112051500D03*
X188250000Y-112051500D03*
X187750000Y-112051500D03*
X187250000Y-112051500D03*
X186750000Y-112051500D03*
D29*
X185337500Y-113464000D03*
X185337500Y-113964000D03*
X185337500Y-114464000D03*
X185337500Y-114964000D03*
X185337500Y-115464000D03*
X185337500Y-115964000D03*
X185337500Y-116464000D03*
X185337500Y-116964000D03*
X185337500Y-117464000D03*
X185337500Y-117964000D03*
X185337500Y-118464000D03*
X185337500Y-118964000D03*
D30*
X134075000Y-53619000D03*
X134075000Y-52349000D03*
X134075000Y-51079000D03*
X134075000Y-49809000D03*
X128925000Y-49809000D03*
X128925000Y-51079000D03*
X128925000Y-52349000D03*
X128925000Y-53619000D03*
D31*
X140200000Y-113333000D03*
X140200000Y-112063000D03*
X140200000Y-110793000D03*
X140200000Y-109523000D03*
X134800000Y-109523000D03*
X134800000Y-110793000D03*
X134800000Y-112063000D03*
X134800000Y-113333000D03*
D30*
X128925000Y-46619000D03*
X128925000Y-45349000D03*
X128925000Y-44079000D03*
X128925000Y-42809000D03*
X134075000Y-42809000D03*
X134075000Y-44079000D03*
X134075000Y-45349000D03*
X134075000Y-46619000D03*
D32*
X161555000Y-92414000D03*
X162825000Y-92414000D03*
X164095000Y-92414000D03*
X165365000Y-92414000D03*
X166635000Y-92414000D03*
X167905000Y-92414000D03*
X169175000Y-92414000D03*
X170445000Y-92414000D03*
X170445000Y-87014000D03*
X169175000Y-87014000D03*
X167905000Y-87014000D03*
X166635000Y-87014000D03*
X165365000Y-87014000D03*
X164095000Y-87014000D03*
X162825000Y-87014000D03*
X161555000Y-87014000D03*
D30*
X134839000Y-120015000D03*
X134839000Y-118745000D03*
X134839000Y-117475000D03*
X134839000Y-116205000D03*
X139989000Y-116205000D03*
X139989000Y-117475000D03*
X139989000Y-118745000D03*
X139989000Y-120015000D03*
X159617000Y-72023000D03*
X159617000Y-70753000D03*
X159617000Y-69483000D03*
X159617000Y-68213000D03*
X154467000Y-68213000D03*
X154467000Y-69483000D03*
X154467000Y-70753000D03*
X154467000Y-72023000D03*
D33*
X148950000Y-51714000D03*
X151050000Y-51714000D03*
X151050000Y-48214000D03*
X148950000Y-48214000D03*
X151050000Y-44214000D03*
X148950000Y-44214000D03*
X148950000Y-40714000D03*
X151050000Y-40714000D03*
D13*
X196674500Y-66548000D03*
X198549500Y-66548000D03*
X196674500Y-64516000D03*
X198549500Y-64516000D03*
D15*
X131239500Y-82804000D03*
X129364500Y-82804000D03*
D34*
X186204000Y-125222000D03*
X182604000Y-125222000D03*
D13*
X179499500Y-123190000D03*
X177624500Y-123190000D03*
D35*
X174562500Y-126238000D03*
X168337500Y-126238000D03*
D17*
X155975000Y-94714000D03*
X158025000Y-94714000D03*
D36*
X202000000Y-119814000D03*
X202000000Y-122614000D03*
X202000000Y-112114000D03*
X202000000Y-109314000D03*
D37*
X199000000Y-119676500D03*
X199000000Y-122751500D03*
X199000000Y-112251500D03*
X199000000Y-109176500D03*
D13*
X198549500Y-62484000D03*
X196674500Y-62484000D03*
D17*
X140229000Y-53214000D03*
X142279000Y-53214000D03*
D18*
X140229000Y-51214000D03*
X142279000Y-51214000D03*
X142231000Y-114300000D03*
X144281000Y-114300000D03*
D17*
X142231000Y-110236000D03*
X144281000Y-110236000D03*
X136229000Y-53214000D03*
X138279000Y-53214000D03*
X138279000Y-51214000D03*
X136229000Y-51214000D03*
X144281000Y-112268000D03*
X142231000Y-112268000D03*
X142231000Y-108204000D03*
X144281000Y-108204000D03*
X140229000Y-46214000D03*
X142279000Y-46214000D03*
D18*
X140229000Y-44214000D03*
X142279000Y-44214000D03*
D17*
X136229000Y-46214000D03*
X138279000Y-46214000D03*
X138279000Y-44214000D03*
X136229000Y-44214000D03*
D18*
X172025000Y-116214000D03*
X169975000Y-116214000D03*
D17*
X131581000Y-59436000D03*
X129531000Y-59436000D03*
X129277000Y-78232000D03*
X131327000Y-78232000D03*
X131327000Y-75438000D03*
X129277000Y-75438000D03*
X164093000Y-62992000D03*
X162043000Y-62992000D03*
X162043000Y-58928000D03*
X164093000Y-58928000D03*
X162043000Y-65024000D03*
X164093000Y-65024000D03*
D18*
X162043000Y-60960000D03*
X164093000Y-60960000D03*
D30*
X159547000Y-63881000D03*
X159547000Y-62611000D03*
X159547000Y-61341000D03*
X159547000Y-60071000D03*
X154397000Y-60071000D03*
X154397000Y-61341000D03*
X154397000Y-62611000D03*
X154397000Y-63881000D03*
D15*
X156062500Y-98714000D03*
X157937500Y-98714000D03*
D18*
X131327000Y-80518000D03*
X129277000Y-80518000D03*
X129277000Y-73152000D03*
X131327000Y-73152000D03*
D13*
X158163500Y-119634000D03*
X156288500Y-119634000D03*
X156288500Y-115062000D03*
X158163500Y-115062000D03*
X158163500Y-117348000D03*
X156288500Y-117348000D03*
D18*
X142231000Y-128524000D03*
X144281000Y-128524000D03*
D17*
X142231000Y-124460000D03*
X144281000Y-124460000D03*
X142231000Y-126492000D03*
X144281000Y-126492000D03*
X144281000Y-122428000D03*
X142231000Y-122428000D03*
D13*
X132763500Y-127508000D03*
X130888500Y-127508000D03*
X132763500Y-123444000D03*
X130888500Y-123444000D03*
D38*
X139889000Y-126619000D03*
X139889000Y-125349000D03*
X139889000Y-124079000D03*
X139889000Y-122809000D03*
X134939000Y-122809000D03*
X134939000Y-124079000D03*
X134939000Y-125349000D03*
X134939000Y-126619000D03*
D13*
X191183500Y-63246000D03*
X189308500Y-63246000D03*
D33*
X189196000Y-59182000D03*
X191296000Y-59182000D03*
D13*
X189405500Y-69342000D03*
X187530500Y-69342000D03*
X187530500Y-71628000D03*
X189405500Y-71628000D03*
X156288500Y-121856500D03*
X158163500Y-121856500D03*
D17*
X188967000Y-61214000D03*
X191017000Y-61214000D03*
D13*
X185849500Y-69342000D03*
X183974500Y-69342000D03*
X185849500Y-71628000D03*
X183974500Y-71628000D03*
D39*
X199364500Y-115824000D03*
X200939500Y-115824000D03*
D40*
X189128000Y-125222000D03*
D41*
X195428000Y-125222000D03*
X195428000Y-122922000D03*
X195428000Y-127522000D03*
D42*
X164773500Y-126238000D03*
X160473500Y-126238000D03*
D13*
X200835500Y-69342000D03*
X198960500Y-69342000D03*
X198960500Y-71374000D03*
X200835500Y-71374000D03*
X200835500Y-82804000D03*
X198960500Y-82804000D03*
D15*
X198960500Y-86360000D03*
X200835500Y-86360000D03*
D13*
X140383500Y-107696000D03*
X138508500Y-107696000D03*
D17*
X142231000Y-130556000D03*
X144281000Y-130556000D03*
X142231000Y-116332000D03*
X144281000Y-116332000D03*
D42*
X143646000Y-60187001D03*
X147946000Y-60187001D03*
X143646000Y-64770000D03*
X147946000Y-64770000D03*
X147946000Y-72136000D03*
X143646000Y-72136000D03*
M02*
