M48
; DRILL file {KiCad (5.1.9-0-10_14)} date Thursday, May 13, 2021 at 10:37:13 PM
; FORMAT={-:-/ absolute / inch / decimal}
; #@! TF.CreationDate,2021-05-13T22:37:13+10:00
; #@! TF.GenerationSoftware,Kicad,Pcbnew,(5.1.9-0-10_14)
FMAT,2
INCH
T1C0.0079
T2C0.0157
T3C0.0315
T4C0.0331
T5C0.0335
T6C0.0394
T7C0.0400
T8C0.0433
T9C0.1378
T10C0.1614
%
G90
G05
T1
X7.4213Y-4.536
X7.4213Y-4.5754
X7.4213Y-4.6147
X7.4606Y-4.536
X7.4606Y-4.5754
X7.4606Y-4.6147
X7.5Y-4.536
X7.5Y-4.5754
X7.5Y-4.6147
T2
X4.41Y-2.56
X4.64Y-4.31
X4.87Y-1.7
X4.97Y-1.66
X5.05Y-3.69
X5.0787Y-1.8982
X5.09Y-4.1
X5.09Y-4.55
X5.0905Y-4.8205
X5.092Y-4.98
X5.1Y-3.35
X5.12Y-1.62
X5.1378Y-3.5714
X5.139Y-2.111
X5.146Y-1.676
X5.15Y-1.75
X5.16Y-1.83
X5.17Y-2.05
X5.18Y-1.96
X5.2Y-3.98
X5.2Y-4.22
X5.24Y-3.44
X5.2559Y-3.7683
X5.2953Y-4.1226
X5.32Y-2.83
X5.32Y-4.52
X5.34Y-2.7
X5.37Y-2.75
X5.374Y-3.5714
X5.378Y-4.58
X5.378Y-4.72
X5.38Y-2.51
X5.41Y-2.88
X5.42Y-3.19
X5.45Y-4.72
X5.48Y-2.68
X5.51Y-4.52
X5.5118Y-3.7683
X5.53Y-2.97
X5.5906Y-3.5714
X5.6Y-3.19
X5.65Y-1.5744
X5.68Y-1.84
X5.73Y-2.68
X5.7677Y-3.7683
X5.77Y-2.0
X5.82Y-4.28
X5.87Y-4.92
X5.92Y-2.31
X5.9798Y-4.3502
X5.98Y-2.68
X5.98Y-2.78
X5.98Y-2.89
X6.02Y-4.44
X6.02Y-4.48
X6.02Y-4.58
X6.0236Y-3.7683
X6.03Y-4.92
X6.05Y-2.6205
X6.09Y-4.2405
X6.18Y-4.92
X6.2Y-3.98
X6.2008Y-3.6502
X6.21Y-4.13
X6.22Y-2.09
X6.28Y-1.6
X6.28Y-4.16
X6.28Y-4.28
X6.28Y-4.88
X6.29Y-3.97
X6.65Y-2.72
X6.65Y-2.8
X6.66Y-3.74
X6.66Y-3.92
X6.7Y-4.84
X6.73Y-2.72
X6.86Y-2.72
X7.0Y-3.71
X7.02Y-2.59
X7.0709Y-4.1795
X7.08Y-2.8
X7.1Y-2.66
X7.14Y-4.2407
X7.16Y-2.65
X7.18Y-4.43
X7.26Y-2.6285
X7.3Y-2.3
X7.32Y-4.28
X7.35Y-2.56
X7.35Y-2.63
X7.37Y-4.86
X7.37Y-5.0
X7.4Y-4.28
X7.51Y-4.84
X7.51Y-5.03
X7.57Y-2.65
X7.58Y-4.94
X7.6093Y-4.7532
X7.6378Y-4.7131
X7.67Y-2.5
X7.68Y-2.42
X7.7024Y-4.6506
X7.76Y-2.33
X7.82Y-2.14
X7.8346Y-4.6541
X7.88Y-2.23
X7.9Y-2.5
T3
X6.4961Y-4.6935
X6.5748Y-4.3982
T4
X6.9094Y-3.2565
X6.9094Y-3.3565
X6.9094Y-3.4565
X6.9094Y-3.5565
X6.9094Y-3.6565
X6.9094Y-3.7565
T5
X5.9843Y-3.4927
X6.1024Y-3.4927
T6
X5.13Y-2.56
X5.17Y-5.13
X5.23Y-2.56
X5.27Y-5.13
X6.63Y-1.54
X6.63Y-1.64
X6.63Y-1.74
X6.63Y-1.84
X6.63Y-1.94
X6.63Y-2.04
X6.78Y-1.54
X6.78Y-1.64
X6.78Y-1.74
X6.78Y-1.84
X6.78Y-1.94
X6.78Y-2.04
X6.9Y-1.52
X6.9Y-1.61
X6.9Y-1.7
X6.9Y-1.79
X6.9Y-1.88
X6.9Y-1.97
X6.9Y-2.06
X6.92Y-3.0
X6.92Y-3.1
X6.99Y-1.52
X6.99Y-1.61
X6.99Y-1.7
X6.99Y-1.79
X6.99Y-1.88
X6.99Y-1.97
X6.99Y-2.06
X7.02Y-4.36
X7.02Y-4.46
X7.08Y-1.52
X7.08Y-1.61
X7.08Y-1.7
X7.08Y-1.79
X7.08Y-1.88
X7.08Y-1.97
X7.08Y-2.06
X7.17Y-1.52
X7.17Y-1.61
X7.17Y-1.7
X7.17Y-1.79
X7.17Y-1.88
X7.17Y-1.97
X7.17Y-2.06
X7.26Y-1.52
X7.26Y-1.61
X7.26Y-1.7
X7.26Y-1.79
X7.26Y-1.88
X7.26Y-1.97
X7.26Y-2.06
X7.35Y-1.52
X7.35Y-1.61
X7.35Y-1.7
X7.35Y-1.79
X7.35Y-1.88
X7.35Y-1.97
X7.35Y-2.06
X7.44Y-1.52
X7.44Y-1.61
X7.44Y-1.7
X7.44Y-1.79
X7.44Y-1.88
X7.44Y-1.97
X7.44Y-2.06
X7.53Y-1.52
X7.53Y-1.61
X7.53Y-1.7
X7.53Y-1.79
X7.53Y-1.88
X7.53Y-1.97
X7.53Y-2.06
X7.62Y-1.52
X7.62Y-1.61
X7.62Y-1.7
X7.62Y-1.79
X7.62Y-1.88
X7.62Y-1.97
X7.62Y-2.06
X7.64Y-4.3
X7.71Y-1.52
X7.71Y-1.61
X7.71Y-1.7
X7.71Y-1.79
X7.71Y-1.88
X7.71Y-1.97
X7.71Y-2.06
X7.83Y-1.54
X7.83Y-1.64
X7.83Y-1.74
X7.83Y-1.84
X7.83Y-1.94
X7.83Y-2.04
X8.1299Y-1.536
X8.1299Y-1.636
X8.1299Y-1.736
X8.1299Y-1.836
X8.1299Y-1.936
X8.1299Y-2.036
T7
X5.0707Y-2.221
X5.1707Y-2.221
X5.2707Y-2.221
X5.3707Y-2.221
X5.4307Y-4.121
X5.4707Y-2.221
X5.5307Y-4.121
X5.5707Y-2.221
X5.6307Y-4.121
X5.6707Y-2.221
X5.7307Y-4.121
X5.7707Y-2.221
X5.8307Y-4.121
X5.8707Y-2.221
X5.9307Y-4.121
X5.9707Y-2.221
X6.0307Y-4.121
X6.1307Y-2.221
X6.1307Y-4.121
X6.2307Y-2.221
X6.3307Y-2.221
X6.3307Y-4.121
X6.4307Y-2.221
X6.4307Y-4.121
X6.5307Y-2.221
X6.5307Y-4.121
X6.6307Y-2.221
X6.6307Y-4.121
X6.7307Y-2.221
X6.7307Y-4.121
X6.8307Y-2.221
X6.8307Y-4.121
X6.9307Y-4.121
X7.0307Y-2.221
X7.0307Y-4.121
X7.1307Y-2.221
X7.2307Y-2.221
X7.2307Y-4.121
X7.3307Y-2.221
X7.3307Y-4.121
X7.4307Y-2.221
X7.4307Y-4.121
X7.5307Y-2.221
X7.5307Y-4.121
X7.6307Y-2.221
X7.6307Y-4.121
X7.7307Y-2.221
X7.7307Y-4.121
X7.8307Y-4.121
X7.9307Y-4.121
X8.0307Y-2.221
X8.0307Y-2.321
X8.0307Y-2.421
X8.0307Y-2.521
X8.0307Y-2.621
X8.0307Y-2.721
X8.0307Y-2.821
X8.0307Y-2.921
X8.0307Y-3.021
X8.0307Y-3.121
X8.0307Y-3.221
X8.0307Y-3.321
X8.0307Y-3.421
X8.0307Y-3.521
X8.0307Y-3.621
X8.0307Y-3.721
X8.0307Y-3.821
X8.0307Y-3.921
X8.1307Y-2.221
X8.1307Y-2.321
X8.1307Y-2.421
X8.1307Y-2.521
X8.1307Y-2.621
X8.1307Y-2.721
X8.1307Y-2.821
X8.1307Y-2.921
X8.1307Y-3.021
X8.1307Y-3.121
X8.1307Y-3.221
X8.1307Y-3.321
X8.1307Y-3.421
X8.1307Y-3.521
X8.1307Y-3.621
X8.1307Y-3.721
X8.1307Y-3.821
X8.1307Y-3.921
T8
X4.7638Y-1.8661
X4.7638Y-2.0039
X4.7638Y-2.1417
X4.7638Y-2.2638
X4.7638Y-2.3819
X4.7638Y-2.5
X4.7638Y-2.6181
X4.7638Y-2.7362
X4.7638Y-2.8543
X4.7638Y-2.9724
X4.7638Y-3.0906
X4.7638Y-3.2126
X4.7638Y-3.3504
X4.7638Y-3.5945
X4.7638Y-3.7165
X4.7638Y-3.8346
X4.7638Y-3.9528
X4.7638Y-4.0709
X4.7638Y-4.189
X4.7638Y-4.3071
X4.7638Y-4.4252
X4.7638Y-4.5433
X4.7638Y-4.6654
X4.7638Y-4.8031
X4.9409Y-1.8661
X4.9409Y-2.0039
X4.9409Y-2.1417
X4.9409Y-2.2638
X4.9409Y-2.3819
X4.9409Y-2.5
X4.9409Y-2.6181
X4.9409Y-2.7362
X4.9409Y-2.8543
X4.9409Y-2.9724
X4.9409Y-3.0906
X4.9409Y-3.2126
X4.9409Y-3.3504
X4.9409Y-3.5945
X4.9409Y-3.7165
X4.9409Y-3.8346
X4.9409Y-3.9528
X4.9409Y-4.0709
X4.9409Y-4.189
X4.9409Y-4.3071
X4.9409Y-4.4252
X4.9409Y-4.5433
X4.9409Y-4.6654
X4.9409Y-4.8031
X6.7079Y-4.7328
X7.0079Y-4.7328
X8.0709Y-4.2013
X8.0709Y-4.5013
X8.0709Y-4.6147
X8.0709Y-4.9147
T9
X4.5394Y-1.6673
X4.5394Y-3.4724
X4.5394Y-5.002
T10
X7.3945Y-3.0498
X7.3945Y-3.9612
T0
M30
