G04 #@! TF.GenerationSoftware,KiCad,Pcbnew,(5.1.9-0-10_14)*
G04 #@! TF.CreationDate,2021-06-23T14:37:37+10:00*
G04 #@! TF.ProjectId,v0.4.4c,76302e34-2e34-4632-9e6b-696361645f70,4c*
G04 #@! TF.SameCoordinates,Original*
G04 #@! TF.FileFunction,Soldermask,Top*
G04 #@! TF.FilePolarity,Negative*
%FSLAX46Y46*%
G04 Gerber Fmt 4.6, Leading zero omitted, Abs format (unit mm)*
G04 Created by KiCad (PCBNEW (5.1.9-0-10_14)) date 2021-06-23 14:37:37*
%MOMM*%
%LPD*%
G01*
G04 APERTURE LIST*
%ADD10C,2.102000*%
%ADD11O,1.802000X1.802000*%
%ADD12C,1.602000*%
%ADD13C,4.202000*%
%ADD14C,1.902000*%
%ADD15O,1.829200X1.829200*%
%ADD16C,1.483000*%
%ADD17O,1.702000X1.702000*%
%ADD18C,2.702000*%
%ADD19C,0.100000*%
G04 APERTURE END LIST*
D10*
X195715000Y-86480000D03*
X193175000Y-86480000D03*
X190635000Y-86480000D03*
X188095000Y-86480000D03*
X185555000Y-86480000D03*
X183015000Y-86480000D03*
X180475000Y-86480000D03*
X177935000Y-86480000D03*
X175395000Y-86480000D03*
X172855000Y-86480000D03*
X170315000Y-86480000D03*
X167775000Y-86480000D03*
X165235000Y-86480000D03*
X162695000Y-86480000D03*
X160155000Y-86480000D03*
X195715000Y-83940000D03*
X193175000Y-83940000D03*
X190635000Y-83940000D03*
X188095000Y-83940000D03*
X185555000Y-83940000D03*
X183015000Y-83940000D03*
X180475000Y-83940000D03*
X177935000Y-83940000D03*
X175395000Y-83940000D03*
X172855000Y-83940000D03*
X170315000Y-83940000D03*
X167775000Y-83940000D03*
X165235000Y-83940000D03*
X162695000Y-83940000D03*
X160155000Y-83940000D03*
X195715000Y-81400000D03*
X193175000Y-81400000D03*
X190635000Y-81400000D03*
X188095000Y-81400000D03*
X185555000Y-81400000D03*
X183015000Y-81400000D03*
X180475000Y-81400000D03*
X177935000Y-81400000D03*
X175395000Y-81400000D03*
X172855000Y-81400000D03*
X170315000Y-81400000D03*
X167775000Y-81400000D03*
X165235000Y-81400000D03*
X162695000Y-81400000D03*
X160155000Y-81400000D03*
X195715000Y-78860000D03*
X193175000Y-78860000D03*
X190635000Y-78860000D03*
X188095000Y-78860000D03*
X185555000Y-78860000D03*
X183015000Y-78860000D03*
X180475000Y-78860000D03*
X177935000Y-78860000D03*
X175395000Y-78860000D03*
X172855000Y-78860000D03*
X170315000Y-78860000D03*
X167775000Y-78860000D03*
X165235000Y-78860000D03*
X162695000Y-78860000D03*
X160155000Y-78860000D03*
X195715000Y-76320000D03*
X193175000Y-76320000D03*
X190635000Y-76320000D03*
X188095000Y-76320000D03*
X185555000Y-76320000D03*
X183015000Y-76320000D03*
X180475000Y-76320000D03*
X177935000Y-76320000D03*
X175395000Y-76320000D03*
X172855000Y-76320000D03*
X170315000Y-76320000D03*
X167775000Y-76320000D03*
X165235000Y-76320000D03*
X162695000Y-76320000D03*
X160155000Y-76320000D03*
X195715000Y-73780000D03*
X193175000Y-73780000D03*
X190635000Y-73780000D03*
X188095000Y-73780000D03*
X185555000Y-73780000D03*
X183015000Y-73780000D03*
X180475000Y-73780000D03*
X177935000Y-73780000D03*
X175395000Y-73780000D03*
X172855000Y-73780000D03*
X170315000Y-73780000D03*
X167775000Y-73780000D03*
X165235000Y-73780000D03*
X162695000Y-73780000D03*
X160155000Y-73780000D03*
X195715000Y-71240000D03*
X193175000Y-71240000D03*
X190635000Y-71240000D03*
X188095000Y-71240000D03*
X185555000Y-71240000D03*
X183015000Y-71240000D03*
X180475000Y-71240000D03*
X177935000Y-71240000D03*
X175395000Y-71240000D03*
X172855000Y-71240000D03*
X170315000Y-71240000D03*
X167775000Y-71240000D03*
X165235000Y-71240000D03*
X162695000Y-71240000D03*
X160155000Y-71240000D03*
X195715000Y-68700000D03*
X193175000Y-68700000D03*
X190635000Y-68700000D03*
X188095000Y-68700000D03*
X185555000Y-68700000D03*
X183015000Y-68700000D03*
X180475000Y-68700000D03*
X177935000Y-68700000D03*
X175395000Y-68700000D03*
X172855000Y-68700000D03*
X170315000Y-68700000D03*
X167775000Y-68700000D03*
X165235000Y-68700000D03*
X162695000Y-68700000D03*
X160155000Y-68700000D03*
X195715000Y-66160000D03*
X193175000Y-66160000D03*
X190635000Y-66160000D03*
X188095000Y-66160000D03*
X185555000Y-66160000D03*
X183015000Y-66160000D03*
X180475000Y-66160000D03*
X177935000Y-66160000D03*
X175395000Y-66160000D03*
X172855000Y-66160000D03*
X170315000Y-66160000D03*
X167775000Y-66160000D03*
X165235000Y-66160000D03*
X162695000Y-66160000D03*
X160155000Y-66160000D03*
X195715000Y-63620000D03*
X193175000Y-63620000D03*
X190635000Y-63620000D03*
X188095000Y-63620000D03*
X185555000Y-63620000D03*
X183015000Y-63620000D03*
X180475000Y-63620000D03*
X177935000Y-63620000D03*
X175395000Y-63620000D03*
X172855000Y-63620000D03*
X170315000Y-63620000D03*
X167775000Y-63620000D03*
X165235000Y-63620000D03*
X162695000Y-63620000D03*
X160155000Y-63620000D03*
D11*
X183015000Y-61080000D03*
X180475000Y-61080000D03*
G36*
G01*
X178785000Y-61981000D02*
X177085000Y-61981000D01*
G75*
G02*
X177034000Y-61930000I0J51000D01*
G01*
X177034000Y-60230000D01*
G75*
G02*
X177085000Y-60179000I51000J0D01*
G01*
X178785000Y-60179000D01*
G75*
G02*
X178836000Y-60230000I0J-51000D01*
G01*
X178836000Y-61930000D01*
G75*
G02*
X178785000Y-61981000I-51000J0D01*
G01*
G37*
X121412000Y-122936000D03*
X121412000Y-120396000D03*
X121412000Y-117856000D03*
X121412000Y-115316000D03*
G36*
G01*
X120511000Y-113626000D02*
X120511000Y-111926000D01*
G75*
G02*
X120562000Y-111875000I51000J0D01*
G01*
X122262000Y-111875000D01*
G75*
G02*
X122313000Y-111926000I0J-51000D01*
G01*
X122313000Y-113626000D01*
G75*
G02*
X122262000Y-113677000I-51000J0D01*
G01*
X120562000Y-113677000D01*
G75*
G02*
X120511000Y-113626000I0J51000D01*
G01*
G37*
X161180000Y-45900000D03*
X158640000Y-45900000D03*
X156100000Y-45900000D03*
X153560000Y-45900000D03*
X151020000Y-45900000D03*
G36*
G01*
X149330000Y-46801000D02*
X147630000Y-46801000D01*
G75*
G02*
X147579000Y-46750000I0J51000D01*
G01*
X147579000Y-45050000D01*
G75*
G02*
X147630000Y-44999000I51000J0D01*
G01*
X149330000Y-44999000D01*
G75*
G02*
X149381000Y-45050000I0J-51000D01*
G01*
X149381000Y-46750000D01*
G75*
G02*
X149330000Y-46801000I-51000J0D01*
G01*
G37*
G36*
G01*
X179401000Y-96218250D02*
X179401000Y-97181750D01*
G75*
G02*
X179131750Y-97451000I-269250J0D01*
G01*
X178593250Y-97451000D01*
G75*
G02*
X178324000Y-97181750I0J269250D01*
G01*
X178324000Y-96218250D01*
G75*
G02*
X178593250Y-95949000I269250J0D01*
G01*
X179131750Y-95949000D01*
G75*
G02*
X179401000Y-96218250I0J-269250D01*
G01*
G37*
G36*
G01*
X181276000Y-96218250D02*
X181276000Y-97181750D01*
G75*
G02*
X181006750Y-97451000I-269250J0D01*
G01*
X180468250Y-97451000D01*
G75*
G02*
X180199000Y-97181750I0J269250D01*
G01*
X180199000Y-96218250D01*
G75*
G02*
X180468250Y-95949000I269250J0D01*
G01*
X181006750Y-95949000D01*
G75*
G02*
X181276000Y-96218250I0J-269250D01*
G01*
G37*
G36*
G01*
X178324000Y-91681750D02*
X178324000Y-90718250D01*
G75*
G02*
X178593250Y-90449000I269250J0D01*
G01*
X179131750Y-90449000D01*
G75*
G02*
X179401000Y-90718250I0J-269250D01*
G01*
X179401000Y-91681750D01*
G75*
G02*
X179131750Y-91951000I-269250J0D01*
G01*
X178593250Y-91951000D01*
G75*
G02*
X178324000Y-91681750I0J269250D01*
G01*
G37*
G36*
G01*
X180199000Y-91681750D02*
X180199000Y-90718250D01*
G75*
G02*
X180468250Y-90449000I269250J0D01*
G01*
X181006750Y-90449000D01*
G75*
G02*
X181276000Y-90718250I0J-269250D01*
G01*
X181276000Y-91681750D01*
G75*
G02*
X181006750Y-91951000I-269250J0D01*
G01*
X180468250Y-91951000D01*
G75*
G02*
X180199000Y-91681750I0J269250D01*
G01*
G37*
G36*
G01*
X140051000Y-79129500D02*
X140051000Y-79480500D01*
G75*
G02*
X139875500Y-79656000I-175500J0D01*
G01*
X138174500Y-79656000D01*
G75*
G02*
X137999000Y-79480500I0J175500D01*
G01*
X137999000Y-79129500D01*
G75*
G02*
X138174500Y-78954000I175500J0D01*
G01*
X139875500Y-78954000D01*
G75*
G02*
X140051000Y-79129500I0J-175500D01*
G01*
G37*
G36*
G01*
X140051000Y-77859500D02*
X140051000Y-78210500D01*
G75*
G02*
X139875500Y-78386000I-175500J0D01*
G01*
X138174500Y-78386000D01*
G75*
G02*
X137999000Y-78210500I0J175500D01*
G01*
X137999000Y-77859500D01*
G75*
G02*
X138174500Y-77684000I175500J0D01*
G01*
X139875500Y-77684000D01*
G75*
G02*
X140051000Y-77859500I0J-175500D01*
G01*
G37*
G36*
G01*
X140051000Y-76589500D02*
X140051000Y-76940500D01*
G75*
G02*
X139875500Y-77116000I-175500J0D01*
G01*
X138174500Y-77116000D01*
G75*
G02*
X137999000Y-76940500I0J175500D01*
G01*
X137999000Y-76589500D01*
G75*
G02*
X138174500Y-76414000I175500J0D01*
G01*
X139875500Y-76414000D01*
G75*
G02*
X140051000Y-76589500I0J-175500D01*
G01*
G37*
G36*
G01*
X140051000Y-75319500D02*
X140051000Y-75670500D01*
G75*
G02*
X139875500Y-75846000I-175500J0D01*
G01*
X138174500Y-75846000D01*
G75*
G02*
X137999000Y-75670500I0J175500D01*
G01*
X137999000Y-75319500D01*
G75*
G02*
X138174500Y-75144000I175500J0D01*
G01*
X139875500Y-75144000D01*
G75*
G02*
X140051000Y-75319500I0J-175500D01*
G01*
G37*
G36*
G01*
X145001000Y-75319500D02*
X145001000Y-75670500D01*
G75*
G02*
X144825500Y-75846000I-175500J0D01*
G01*
X143124500Y-75846000D01*
G75*
G02*
X142949000Y-75670500I0J175500D01*
G01*
X142949000Y-75319500D01*
G75*
G02*
X143124500Y-75144000I175500J0D01*
G01*
X144825500Y-75144000D01*
G75*
G02*
X145001000Y-75319500I0J-175500D01*
G01*
G37*
G36*
G01*
X145001000Y-76589500D02*
X145001000Y-76940500D01*
G75*
G02*
X144825500Y-77116000I-175500J0D01*
G01*
X143124500Y-77116000D01*
G75*
G02*
X142949000Y-76940500I0J175500D01*
G01*
X142949000Y-76589500D01*
G75*
G02*
X143124500Y-76414000I175500J0D01*
G01*
X144825500Y-76414000D01*
G75*
G02*
X145001000Y-76589500I0J-175500D01*
G01*
G37*
G36*
G01*
X145001000Y-77859500D02*
X145001000Y-78210500D01*
G75*
G02*
X144825500Y-78386000I-175500J0D01*
G01*
X143124500Y-78386000D01*
G75*
G02*
X142949000Y-78210500I0J175500D01*
G01*
X142949000Y-77859500D01*
G75*
G02*
X143124500Y-77684000I175500J0D01*
G01*
X144825500Y-77684000D01*
G75*
G02*
X145001000Y-77859500I0J-175500D01*
G01*
G37*
G36*
G01*
X145001000Y-79129500D02*
X145001000Y-79480500D01*
G75*
G02*
X144825500Y-79656000I-175500J0D01*
G01*
X143124500Y-79656000D01*
G75*
G02*
X142949000Y-79480500I0J175500D01*
G01*
X142949000Y-79129500D01*
G75*
G02*
X143124500Y-78954000I175500J0D01*
G01*
X144825500Y-78954000D01*
G75*
G02*
X145001000Y-79129500I0J-175500D01*
G01*
G37*
G36*
G01*
X140051000Y-88729500D02*
X140051000Y-89080500D01*
G75*
G02*
X139875500Y-89256000I-175500J0D01*
G01*
X138174500Y-89256000D01*
G75*
G02*
X137999000Y-89080500I0J175500D01*
G01*
X137999000Y-88729500D01*
G75*
G02*
X138174500Y-88554000I175500J0D01*
G01*
X139875500Y-88554000D01*
G75*
G02*
X140051000Y-88729500I0J-175500D01*
G01*
G37*
G36*
G01*
X140051000Y-87459500D02*
X140051000Y-87810500D01*
G75*
G02*
X139875500Y-87986000I-175500J0D01*
G01*
X138174500Y-87986000D01*
G75*
G02*
X137999000Y-87810500I0J175500D01*
G01*
X137999000Y-87459500D01*
G75*
G02*
X138174500Y-87284000I175500J0D01*
G01*
X139875500Y-87284000D01*
G75*
G02*
X140051000Y-87459500I0J-175500D01*
G01*
G37*
G36*
G01*
X140051000Y-86189500D02*
X140051000Y-86540500D01*
G75*
G02*
X139875500Y-86716000I-175500J0D01*
G01*
X138174500Y-86716000D01*
G75*
G02*
X137999000Y-86540500I0J175500D01*
G01*
X137999000Y-86189500D01*
G75*
G02*
X138174500Y-86014000I175500J0D01*
G01*
X139875500Y-86014000D01*
G75*
G02*
X140051000Y-86189500I0J-175500D01*
G01*
G37*
G36*
G01*
X140051000Y-84919500D02*
X140051000Y-85270500D01*
G75*
G02*
X139875500Y-85446000I-175500J0D01*
G01*
X138174500Y-85446000D01*
G75*
G02*
X137999000Y-85270500I0J175500D01*
G01*
X137999000Y-84919500D01*
G75*
G02*
X138174500Y-84744000I175500J0D01*
G01*
X139875500Y-84744000D01*
G75*
G02*
X140051000Y-84919500I0J-175500D01*
G01*
G37*
G36*
G01*
X145001000Y-84919500D02*
X145001000Y-85270500D01*
G75*
G02*
X144825500Y-85446000I-175500J0D01*
G01*
X143124500Y-85446000D01*
G75*
G02*
X142949000Y-85270500I0J175500D01*
G01*
X142949000Y-84919500D01*
G75*
G02*
X143124500Y-84744000I175500J0D01*
G01*
X144825500Y-84744000D01*
G75*
G02*
X145001000Y-84919500I0J-175500D01*
G01*
G37*
G36*
G01*
X145001000Y-86189500D02*
X145001000Y-86540500D01*
G75*
G02*
X144825500Y-86716000I-175500J0D01*
G01*
X143124500Y-86716000D01*
G75*
G02*
X142949000Y-86540500I0J175500D01*
G01*
X142949000Y-86189500D01*
G75*
G02*
X143124500Y-86014000I175500J0D01*
G01*
X144825500Y-86014000D01*
G75*
G02*
X145001000Y-86189500I0J-175500D01*
G01*
G37*
G36*
G01*
X145001000Y-87459500D02*
X145001000Y-87810500D01*
G75*
G02*
X144825500Y-87986000I-175500J0D01*
G01*
X143124500Y-87986000D01*
G75*
G02*
X142949000Y-87810500I0J175500D01*
G01*
X142949000Y-87459500D01*
G75*
G02*
X143124500Y-87284000I175500J0D01*
G01*
X144825500Y-87284000D01*
G75*
G02*
X145001000Y-87459500I0J-175500D01*
G01*
G37*
G36*
G01*
X145001000Y-88729500D02*
X145001000Y-89080500D01*
G75*
G02*
X144825500Y-89256000I-175500J0D01*
G01*
X143124500Y-89256000D01*
G75*
G02*
X142949000Y-89080500I0J175500D01*
G01*
X142949000Y-88729500D01*
G75*
G02*
X143124500Y-88554000I175500J0D01*
G01*
X144825500Y-88554000D01*
G75*
G02*
X145001000Y-88729500I0J-175500D01*
G01*
G37*
G36*
G01*
X123649000Y-85870500D02*
X123649000Y-85519500D01*
G75*
G02*
X123824500Y-85344000I175500J0D01*
G01*
X125525500Y-85344000D01*
G75*
G02*
X125701000Y-85519500I0J-175500D01*
G01*
X125701000Y-85870500D01*
G75*
G02*
X125525500Y-86046000I-175500J0D01*
G01*
X123824500Y-86046000D01*
G75*
G02*
X123649000Y-85870500I0J175500D01*
G01*
G37*
G36*
G01*
X123649000Y-87140500D02*
X123649000Y-86789500D01*
G75*
G02*
X123824500Y-86614000I175500J0D01*
G01*
X125525500Y-86614000D01*
G75*
G02*
X125701000Y-86789500I0J-175500D01*
G01*
X125701000Y-87140500D01*
G75*
G02*
X125525500Y-87316000I-175500J0D01*
G01*
X123824500Y-87316000D01*
G75*
G02*
X123649000Y-87140500I0J175500D01*
G01*
G37*
G36*
G01*
X123649000Y-88410500D02*
X123649000Y-88059500D01*
G75*
G02*
X123824500Y-87884000I175500J0D01*
G01*
X125525500Y-87884000D01*
G75*
G02*
X125701000Y-88059500I0J-175500D01*
G01*
X125701000Y-88410500D01*
G75*
G02*
X125525500Y-88586000I-175500J0D01*
G01*
X123824500Y-88586000D01*
G75*
G02*
X123649000Y-88410500I0J175500D01*
G01*
G37*
G36*
G01*
X123649000Y-89680500D02*
X123649000Y-89329500D01*
G75*
G02*
X123824500Y-89154000I175500J0D01*
G01*
X125525500Y-89154000D01*
G75*
G02*
X125701000Y-89329500I0J-175500D01*
G01*
X125701000Y-89680500D01*
G75*
G02*
X125525500Y-89856000I-175500J0D01*
G01*
X123824500Y-89856000D01*
G75*
G02*
X123649000Y-89680500I0J175500D01*
G01*
G37*
G36*
G01*
X118699000Y-89680500D02*
X118699000Y-89329500D01*
G75*
G02*
X118874500Y-89154000I175500J0D01*
G01*
X120575500Y-89154000D01*
G75*
G02*
X120751000Y-89329500I0J-175500D01*
G01*
X120751000Y-89680500D01*
G75*
G02*
X120575500Y-89856000I-175500J0D01*
G01*
X118874500Y-89856000D01*
G75*
G02*
X118699000Y-89680500I0J175500D01*
G01*
G37*
G36*
G01*
X118699000Y-88410500D02*
X118699000Y-88059500D01*
G75*
G02*
X118874500Y-87884000I175500J0D01*
G01*
X120575500Y-87884000D01*
G75*
G02*
X120751000Y-88059500I0J-175500D01*
G01*
X120751000Y-88410500D01*
G75*
G02*
X120575500Y-88586000I-175500J0D01*
G01*
X118874500Y-88586000D01*
G75*
G02*
X118699000Y-88410500I0J175500D01*
G01*
G37*
G36*
G01*
X118699000Y-87140500D02*
X118699000Y-86789500D01*
G75*
G02*
X118874500Y-86614000I175500J0D01*
G01*
X120575500Y-86614000D01*
G75*
G02*
X120751000Y-86789500I0J-175500D01*
G01*
X120751000Y-87140500D01*
G75*
G02*
X120575500Y-87316000I-175500J0D01*
G01*
X118874500Y-87316000D01*
G75*
G02*
X118699000Y-87140500I0J175500D01*
G01*
G37*
G36*
G01*
X118699000Y-85870500D02*
X118699000Y-85519500D01*
G75*
G02*
X118874500Y-85344000I175500J0D01*
G01*
X120575500Y-85344000D01*
G75*
G02*
X120751000Y-85519500I0J-175500D01*
G01*
X120751000Y-85870500D01*
G75*
G02*
X120575500Y-86046000I-175500J0D01*
G01*
X118874500Y-86046000D01*
G75*
G02*
X118699000Y-85870500I0J175500D01*
G01*
G37*
G36*
G01*
X123649000Y-95870500D02*
X123649000Y-95519500D01*
G75*
G02*
X123824500Y-95344000I175500J0D01*
G01*
X125525500Y-95344000D01*
G75*
G02*
X125701000Y-95519500I0J-175500D01*
G01*
X125701000Y-95870500D01*
G75*
G02*
X125525500Y-96046000I-175500J0D01*
G01*
X123824500Y-96046000D01*
G75*
G02*
X123649000Y-95870500I0J175500D01*
G01*
G37*
G36*
G01*
X123649000Y-97140500D02*
X123649000Y-96789500D01*
G75*
G02*
X123824500Y-96614000I175500J0D01*
G01*
X125525500Y-96614000D01*
G75*
G02*
X125701000Y-96789500I0J-175500D01*
G01*
X125701000Y-97140500D01*
G75*
G02*
X125525500Y-97316000I-175500J0D01*
G01*
X123824500Y-97316000D01*
G75*
G02*
X123649000Y-97140500I0J175500D01*
G01*
G37*
G36*
G01*
X123649000Y-98410500D02*
X123649000Y-98059500D01*
G75*
G02*
X123824500Y-97884000I175500J0D01*
G01*
X125525500Y-97884000D01*
G75*
G02*
X125701000Y-98059500I0J-175500D01*
G01*
X125701000Y-98410500D01*
G75*
G02*
X125525500Y-98586000I-175500J0D01*
G01*
X123824500Y-98586000D01*
G75*
G02*
X123649000Y-98410500I0J175500D01*
G01*
G37*
G36*
G01*
X123649000Y-99680500D02*
X123649000Y-99329500D01*
G75*
G02*
X123824500Y-99154000I175500J0D01*
G01*
X125525500Y-99154000D01*
G75*
G02*
X125701000Y-99329500I0J-175500D01*
G01*
X125701000Y-99680500D01*
G75*
G02*
X125525500Y-99856000I-175500J0D01*
G01*
X123824500Y-99856000D01*
G75*
G02*
X123649000Y-99680500I0J175500D01*
G01*
G37*
G36*
G01*
X118699000Y-99680500D02*
X118699000Y-99329500D01*
G75*
G02*
X118874500Y-99154000I175500J0D01*
G01*
X120575500Y-99154000D01*
G75*
G02*
X120751000Y-99329500I0J-175500D01*
G01*
X120751000Y-99680500D01*
G75*
G02*
X120575500Y-99856000I-175500J0D01*
G01*
X118874500Y-99856000D01*
G75*
G02*
X118699000Y-99680500I0J175500D01*
G01*
G37*
G36*
G01*
X118699000Y-98410500D02*
X118699000Y-98059500D01*
G75*
G02*
X118874500Y-97884000I175500J0D01*
G01*
X120575500Y-97884000D01*
G75*
G02*
X120751000Y-98059500I0J-175500D01*
G01*
X120751000Y-98410500D01*
G75*
G02*
X120575500Y-98586000I-175500J0D01*
G01*
X118874500Y-98586000D01*
G75*
G02*
X118699000Y-98410500I0J175500D01*
G01*
G37*
G36*
G01*
X118699000Y-97140500D02*
X118699000Y-96789500D01*
G75*
G02*
X118874500Y-96614000I175500J0D01*
G01*
X120575500Y-96614000D01*
G75*
G02*
X120751000Y-96789500I0J-175500D01*
G01*
X120751000Y-97140500D01*
G75*
G02*
X120575500Y-97316000I-175500J0D01*
G01*
X118874500Y-97316000D01*
G75*
G02*
X118699000Y-97140500I0J175500D01*
G01*
G37*
G36*
G01*
X118699000Y-95870500D02*
X118699000Y-95519500D01*
G75*
G02*
X118874500Y-95344000I175500J0D01*
G01*
X120575500Y-95344000D01*
G75*
G02*
X120751000Y-95519500I0J-175500D01*
G01*
X120751000Y-95870500D01*
G75*
G02*
X120575500Y-96046000I-175500J0D01*
G01*
X118874500Y-96046000D01*
G75*
G02*
X118699000Y-95870500I0J175500D01*
G01*
G37*
G36*
G01*
X185649000Y-46081750D02*
X185649000Y-45118250D01*
G75*
G02*
X185918250Y-44849000I269250J0D01*
G01*
X186456750Y-44849000D01*
G75*
G02*
X186726000Y-45118250I0J-269250D01*
G01*
X186726000Y-46081750D01*
G75*
G02*
X186456750Y-46351000I-269250J0D01*
G01*
X185918250Y-46351000D01*
G75*
G02*
X185649000Y-46081750I0J269250D01*
G01*
G37*
G36*
G01*
X183774000Y-46081750D02*
X183774000Y-45118250D01*
G75*
G02*
X184043250Y-44849000I269250J0D01*
G01*
X184581750Y-44849000D01*
G75*
G02*
X184851000Y-45118250I0J-269250D01*
G01*
X184851000Y-46081750D01*
G75*
G02*
X184581750Y-46351000I-269250J0D01*
G01*
X184043250Y-46351000D01*
G75*
G02*
X183774000Y-46081750I0J269250D01*
G01*
G37*
G36*
G01*
X192699000Y-51981750D02*
X192699000Y-51018250D01*
G75*
G02*
X192968250Y-50749000I269250J0D01*
G01*
X193506750Y-50749000D01*
G75*
G02*
X193776000Y-51018250I0J-269250D01*
G01*
X193776000Y-51981750D01*
G75*
G02*
X193506750Y-52251000I-269250J0D01*
G01*
X192968250Y-52251000D01*
G75*
G02*
X192699000Y-51981750I0J269250D01*
G01*
G37*
G36*
G01*
X190824000Y-51981750D02*
X190824000Y-51018250D01*
G75*
G02*
X191093250Y-50749000I269250J0D01*
G01*
X191631750Y-50749000D01*
G75*
G02*
X191901000Y-51018250I0J-269250D01*
G01*
X191901000Y-51981750D01*
G75*
G02*
X191631750Y-52251000I-269250J0D01*
G01*
X191093250Y-52251000D01*
G75*
G02*
X190824000Y-51981750I0J269250D01*
G01*
G37*
G36*
G01*
X137024000Y-94681750D02*
X137024000Y-93718250D01*
G75*
G02*
X137293250Y-93449000I269250J0D01*
G01*
X137831750Y-93449000D01*
G75*
G02*
X138101000Y-93718250I0J-269250D01*
G01*
X138101000Y-94681750D01*
G75*
G02*
X137831750Y-94951000I-269250J0D01*
G01*
X137293250Y-94951000D01*
G75*
G02*
X137024000Y-94681750I0J269250D01*
G01*
G37*
G36*
G01*
X138899000Y-94681750D02*
X138899000Y-93718250D01*
G75*
G02*
X139168250Y-93449000I269250J0D01*
G01*
X139706750Y-93449000D01*
G75*
G02*
X139976000Y-93718250I0J-269250D01*
G01*
X139976000Y-94681750D01*
G75*
G02*
X139706750Y-94951000I-269250J0D01*
G01*
X139168250Y-94951000D01*
G75*
G02*
X138899000Y-94681750I0J269250D01*
G01*
G37*
G36*
G01*
X149676000Y-126418250D02*
X149676000Y-127381750D01*
G75*
G02*
X149406750Y-127651000I-269250J0D01*
G01*
X148868250Y-127651000D01*
G75*
G02*
X148599000Y-127381750I0J269250D01*
G01*
X148599000Y-126418250D01*
G75*
G02*
X148868250Y-126149000I269250J0D01*
G01*
X149406750Y-126149000D01*
G75*
G02*
X149676000Y-126418250I0J-269250D01*
G01*
G37*
G36*
G01*
X147801000Y-126418250D02*
X147801000Y-127381750D01*
G75*
G02*
X147531750Y-127651000I-269250J0D01*
G01*
X146993250Y-127651000D01*
G75*
G02*
X146724000Y-127381750I0J269250D01*
G01*
X146724000Y-126418250D01*
G75*
G02*
X146993250Y-126149000I269250J0D01*
G01*
X147531750Y-126149000D01*
G75*
G02*
X147801000Y-126418250I0J-269250D01*
G01*
G37*
G36*
G01*
X161518250Y-52999000D02*
X162481750Y-52999000D01*
G75*
G02*
X162751000Y-53268250I0J-269250D01*
G01*
X162751000Y-53806750D01*
G75*
G02*
X162481750Y-54076000I-269250J0D01*
G01*
X161518250Y-54076000D01*
G75*
G02*
X161249000Y-53806750I0J269250D01*
G01*
X161249000Y-53268250D01*
G75*
G02*
X161518250Y-52999000I269250J0D01*
G01*
G37*
G36*
G01*
X161518250Y-51124000D02*
X162481750Y-51124000D01*
G75*
G02*
X162751000Y-51393250I0J-269250D01*
G01*
X162751000Y-51931750D01*
G75*
G02*
X162481750Y-52201000I-269250J0D01*
G01*
X161518250Y-52201000D01*
G75*
G02*
X161249000Y-51931750I0J269250D01*
G01*
X161249000Y-51393250D01*
G75*
G02*
X161518250Y-51124000I269250J0D01*
G01*
G37*
G36*
G01*
X160381750Y-52201000D02*
X159418250Y-52201000D01*
G75*
G02*
X159149000Y-51931750I0J269250D01*
G01*
X159149000Y-51393250D01*
G75*
G02*
X159418250Y-51124000I269250J0D01*
G01*
X160381750Y-51124000D01*
G75*
G02*
X160651000Y-51393250I0J-269250D01*
G01*
X160651000Y-51931750D01*
G75*
G02*
X160381750Y-52201000I-269250J0D01*
G01*
G37*
G36*
G01*
X160381750Y-54076000D02*
X159418250Y-54076000D01*
G75*
G02*
X159149000Y-53806750I0J269250D01*
G01*
X159149000Y-53268250D01*
G75*
G02*
X159418250Y-52999000I269250J0D01*
G01*
X160381750Y-52999000D01*
G75*
G02*
X160651000Y-53268250I0J-269250D01*
G01*
X160651000Y-53806750D01*
G75*
G02*
X160381750Y-54076000I-269250J0D01*
G01*
G37*
G36*
G01*
X147281750Y-69601000D02*
X146318250Y-69601000D01*
G75*
G02*
X146049000Y-69331750I0J269250D01*
G01*
X146049000Y-68793250D01*
G75*
G02*
X146318250Y-68524000I269250J0D01*
G01*
X147281750Y-68524000D01*
G75*
G02*
X147551000Y-68793250I0J-269250D01*
G01*
X147551000Y-69331750D01*
G75*
G02*
X147281750Y-69601000I-269250J0D01*
G01*
G37*
G36*
G01*
X147281750Y-71476000D02*
X146318250Y-71476000D01*
G75*
G02*
X146049000Y-71206750I0J269250D01*
G01*
X146049000Y-70668250D01*
G75*
G02*
X146318250Y-70399000I269250J0D01*
G01*
X147281750Y-70399000D01*
G75*
G02*
X147551000Y-70668250I0J-269250D01*
G01*
X147551000Y-71206750D01*
G75*
G02*
X147281750Y-71476000I-269250J0D01*
G01*
G37*
G36*
G01*
X149381750Y-69601000D02*
X148418250Y-69601000D01*
G75*
G02*
X148149000Y-69331750I0J269250D01*
G01*
X148149000Y-68793250D01*
G75*
G02*
X148418250Y-68524000I269250J0D01*
G01*
X149381750Y-68524000D01*
G75*
G02*
X149651000Y-68793250I0J-269250D01*
G01*
X149651000Y-69331750D01*
G75*
G02*
X149381750Y-69601000I-269250J0D01*
G01*
G37*
G36*
G01*
X149381750Y-71476000D02*
X148418250Y-71476000D01*
G75*
G02*
X148149000Y-71206750I0J269250D01*
G01*
X148149000Y-70668250D01*
G75*
G02*
X148418250Y-70399000I269250J0D01*
G01*
X149381750Y-70399000D01*
G75*
G02*
X149651000Y-70668250I0J-269250D01*
G01*
X149651000Y-71206750D01*
G75*
G02*
X149381750Y-71476000I-269250J0D01*
G01*
G37*
G36*
G01*
X154601000Y-48318250D02*
X154601000Y-49281750D01*
G75*
G02*
X154331750Y-49551000I-269250J0D01*
G01*
X153793250Y-49551000D01*
G75*
G02*
X153524000Y-49281750I0J269250D01*
G01*
X153524000Y-48318250D01*
G75*
G02*
X153793250Y-48049000I269250J0D01*
G01*
X154331750Y-48049000D01*
G75*
G02*
X154601000Y-48318250I0J-269250D01*
G01*
G37*
G36*
G01*
X156476000Y-48318250D02*
X156476000Y-49281750D01*
G75*
G02*
X156206750Y-49551000I-269250J0D01*
G01*
X155668250Y-49551000D01*
G75*
G02*
X155399000Y-49281750I0J269250D01*
G01*
X155399000Y-48318250D01*
G75*
G02*
X155668250Y-48049000I269250J0D01*
G01*
X156206750Y-48049000D01*
G75*
G02*
X156476000Y-48318250I0J-269250D01*
G01*
G37*
G36*
G01*
X151001000Y-48318250D02*
X151001000Y-49281750D01*
G75*
G02*
X150731750Y-49551000I-269250J0D01*
G01*
X150193250Y-49551000D01*
G75*
G02*
X149924000Y-49281750I0J269250D01*
G01*
X149924000Y-48318250D01*
G75*
G02*
X150193250Y-48049000I269250J0D01*
G01*
X150731750Y-48049000D01*
G75*
G02*
X151001000Y-48318250I0J-269250D01*
G01*
G37*
G36*
G01*
X152876000Y-48318250D02*
X152876000Y-49281750D01*
G75*
G02*
X152606750Y-49551000I-269250J0D01*
G01*
X152068250Y-49551000D01*
G75*
G02*
X151799000Y-49281750I0J269250D01*
G01*
X151799000Y-48318250D01*
G75*
G02*
X152068250Y-48049000I269250J0D01*
G01*
X152606750Y-48049000D01*
G75*
G02*
X152876000Y-48318250I0J-269250D01*
G01*
G37*
G36*
G01*
X156381750Y-109901000D02*
X155418250Y-109901000D01*
G75*
G02*
X155149000Y-109631750I0J269250D01*
G01*
X155149000Y-109093250D01*
G75*
G02*
X155418250Y-108824000I269250J0D01*
G01*
X156381750Y-108824000D01*
G75*
G02*
X156651000Y-109093250I0J-269250D01*
G01*
X156651000Y-109631750D01*
G75*
G02*
X156381750Y-109901000I-269250J0D01*
G01*
G37*
G36*
G01*
X156381750Y-111776000D02*
X155418250Y-111776000D01*
G75*
G02*
X155149000Y-111506750I0J269250D01*
G01*
X155149000Y-110968250D01*
G75*
G02*
X155418250Y-110699000I269250J0D01*
G01*
X156381750Y-110699000D01*
G75*
G02*
X156651000Y-110968250I0J-269250D01*
G01*
X156651000Y-111506750D01*
G75*
G02*
X156381750Y-111776000I-269250J0D01*
G01*
G37*
G36*
G01*
X157318250Y-52999000D02*
X158281750Y-52999000D01*
G75*
G02*
X158551000Y-53268250I0J-269250D01*
G01*
X158551000Y-53806750D01*
G75*
G02*
X158281750Y-54076000I-269250J0D01*
G01*
X157318250Y-54076000D01*
G75*
G02*
X157049000Y-53806750I0J269250D01*
G01*
X157049000Y-53268250D01*
G75*
G02*
X157318250Y-52999000I269250J0D01*
G01*
G37*
G36*
G01*
X157318250Y-51124000D02*
X158281750Y-51124000D01*
G75*
G02*
X158551000Y-51393250I0J-269250D01*
G01*
X158551000Y-51931750D01*
G75*
G02*
X158281750Y-52201000I-269250J0D01*
G01*
X157318250Y-52201000D01*
G75*
G02*
X157049000Y-51931750I0J269250D01*
G01*
X157049000Y-51393250D01*
G75*
G02*
X157318250Y-51124000I269250J0D01*
G01*
G37*
G36*
G01*
X156181750Y-52201000D02*
X155218250Y-52201000D01*
G75*
G02*
X154949000Y-51931750I0J269250D01*
G01*
X154949000Y-51393250D01*
G75*
G02*
X155218250Y-51124000I269250J0D01*
G01*
X156181750Y-51124000D01*
G75*
G02*
X156451000Y-51393250I0J-269250D01*
G01*
X156451000Y-51931750D01*
G75*
G02*
X156181750Y-52201000I-269250J0D01*
G01*
G37*
G36*
G01*
X156181750Y-54076000D02*
X155218250Y-54076000D01*
G75*
G02*
X154949000Y-53806750I0J269250D01*
G01*
X154949000Y-53268250D01*
G75*
G02*
X155218250Y-52999000I269250J0D01*
G01*
X156181750Y-52999000D01*
G75*
G02*
X156451000Y-53268250I0J-269250D01*
G01*
X156451000Y-53806750D01*
G75*
G02*
X156181750Y-54076000I-269250J0D01*
G01*
G37*
G36*
G01*
X153581750Y-69601000D02*
X152618250Y-69601000D01*
G75*
G02*
X152349000Y-69331750I0J269250D01*
G01*
X152349000Y-68793250D01*
G75*
G02*
X152618250Y-68524000I269250J0D01*
G01*
X153581750Y-68524000D01*
G75*
G02*
X153851000Y-68793250I0J-269250D01*
G01*
X153851000Y-69331750D01*
G75*
G02*
X153581750Y-69601000I-269250J0D01*
G01*
G37*
G36*
G01*
X153581750Y-71476000D02*
X152618250Y-71476000D01*
G75*
G02*
X152349000Y-71206750I0J269250D01*
G01*
X152349000Y-70668250D01*
G75*
G02*
X152618250Y-70399000I269250J0D01*
G01*
X153581750Y-70399000D01*
G75*
G02*
X153851000Y-70668250I0J-269250D01*
G01*
X153851000Y-71206750D01*
G75*
G02*
X153581750Y-71476000I-269250J0D01*
G01*
G37*
G36*
G01*
X151481750Y-69601000D02*
X150518250Y-69601000D01*
G75*
G02*
X150249000Y-69331750I0J269250D01*
G01*
X150249000Y-68793250D01*
G75*
G02*
X150518250Y-68524000I269250J0D01*
G01*
X151481750Y-68524000D01*
G75*
G02*
X151751000Y-68793250I0J-269250D01*
G01*
X151751000Y-69331750D01*
G75*
G02*
X151481750Y-69601000I-269250J0D01*
G01*
G37*
G36*
G01*
X151481750Y-71476000D02*
X150518250Y-71476000D01*
G75*
G02*
X150249000Y-71206750I0J269250D01*
G01*
X150249000Y-70668250D01*
G75*
G02*
X150518250Y-70399000I269250J0D01*
G01*
X151481750Y-70399000D01*
G75*
G02*
X151751000Y-70668250I0J-269250D01*
G01*
X151751000Y-71206750D01*
G75*
G02*
X151481750Y-71476000I-269250J0D01*
G01*
G37*
X177200000Y-125940000D03*
G36*
G01*
X176299000Y-124250000D02*
X176299000Y-122550000D01*
G75*
G02*
X176350000Y-122499000I51000J0D01*
G01*
X178050000Y-122499000D01*
G75*
G02*
X178101000Y-122550000I0J-51000D01*
G01*
X178101000Y-124250000D01*
G75*
G02*
X178050000Y-124301000I-51000J0D01*
G01*
X176350000Y-124301000D01*
G75*
G02*
X176299000Y-124250000I0J51000D01*
G01*
G37*
X177200000Y-115940000D03*
G36*
G01*
X176299000Y-114250000D02*
X176299000Y-112550000D01*
G75*
G02*
X176350000Y-112499000I51000J0D01*
G01*
X178050000Y-112499000D01*
G75*
G02*
X178101000Y-112550000I0J-51000D01*
G01*
X178101000Y-114250000D01*
G75*
G02*
X178050000Y-114301000I-51000J0D01*
G01*
X176350000Y-114301000D01*
G75*
G02*
X176299000Y-114250000I0J51000D01*
G01*
G37*
X180900000Y-128480000D03*
X180900000Y-125940000D03*
G36*
G01*
X179999000Y-124250000D02*
X179999000Y-122550000D01*
G75*
G02*
X180050000Y-122499000I51000J0D01*
G01*
X181750000Y-122499000D01*
G75*
G02*
X181801000Y-122550000I0J-51000D01*
G01*
X181801000Y-124250000D01*
G75*
G02*
X181750000Y-124301000I-51000J0D01*
G01*
X180050000Y-124301000D01*
G75*
G02*
X179999000Y-124250000I0J51000D01*
G01*
G37*
X180900000Y-118480000D03*
X180900000Y-115940000D03*
G36*
G01*
X179999000Y-114250000D02*
X179999000Y-112550000D01*
G75*
G02*
X180050000Y-112499000I51000J0D01*
G01*
X181750000Y-112499000D01*
G75*
G02*
X181801000Y-112550000I0J-51000D01*
G01*
X181801000Y-114250000D01*
G75*
G02*
X181750000Y-114301000I-51000J0D01*
G01*
X180050000Y-114301000D01*
G75*
G02*
X179999000Y-114250000I0J51000D01*
G01*
G37*
X158100000Y-92520000D03*
X158100000Y-95060000D03*
G36*
G01*
X159001000Y-96750000D02*
X159001000Y-98450000D01*
G75*
G02*
X158950000Y-98501000I-51000J0D01*
G01*
X157250000Y-98501000D01*
G75*
G02*
X157199000Y-98450000I0J51000D01*
G01*
X157199000Y-96750000D01*
G75*
G02*
X157250000Y-96699000I51000J0D01*
G01*
X158950000Y-96699000D01*
G75*
G02*
X159001000Y-96750000I0J-51000D01*
G01*
G37*
G36*
G01*
X183049000Y-54150000D02*
X183049000Y-51850000D01*
G75*
G02*
X183100000Y-51799000I51000J0D01*
G01*
X185600000Y-51799000D01*
G75*
G02*
X185651000Y-51850000I0J-51000D01*
G01*
X185651000Y-54150000D01*
G75*
G02*
X185600000Y-54201000I-51000J0D01*
G01*
X183100000Y-54201000D01*
G75*
G02*
X183049000Y-54150000I0J51000D01*
G01*
G37*
G36*
G01*
X187349000Y-54150000D02*
X187349000Y-51850000D01*
G75*
G02*
X187400000Y-51799000I51000J0D01*
G01*
X189900000Y-51799000D01*
G75*
G02*
X189951000Y-51850000I0J-51000D01*
G01*
X189951000Y-54150000D01*
G75*
G02*
X189900000Y-54201000I-51000J0D01*
G01*
X187400000Y-54201000D01*
G75*
G02*
X187349000Y-54150000I0J51000D01*
G01*
G37*
D12*
X125820000Y-76700000D03*
X125820000Y-74160000D03*
X125820000Y-71620000D03*
X125820000Y-69080000D03*
X125820000Y-66540000D03*
X125820000Y-64000000D03*
D13*
X113500000Y-58800000D03*
X113500000Y-81950000D03*
D14*
X198850000Y-43900000D03*
X196850000Y-51400000D03*
G36*
G01*
X128418250Y-69224000D02*
X129381750Y-69224000D01*
G75*
G02*
X129651000Y-69493250I0J-269250D01*
G01*
X129651000Y-70031750D01*
G75*
G02*
X129381750Y-70301000I-269250J0D01*
G01*
X128418250Y-70301000D01*
G75*
G02*
X128149000Y-70031750I0J269250D01*
G01*
X128149000Y-69493250D01*
G75*
G02*
X128418250Y-69224000I269250J0D01*
G01*
G37*
G36*
G01*
X128418250Y-71099000D02*
X129381750Y-71099000D01*
G75*
G02*
X129651000Y-71368250I0J-269250D01*
G01*
X129651000Y-71906750D01*
G75*
G02*
X129381750Y-72176000I-269250J0D01*
G01*
X128418250Y-72176000D01*
G75*
G02*
X128149000Y-71906750I0J269250D01*
G01*
X128149000Y-71368250D01*
G75*
G02*
X128418250Y-71099000I269250J0D01*
G01*
G37*
G36*
G01*
X130418250Y-71099000D02*
X131381750Y-71099000D01*
G75*
G02*
X131651000Y-71368250I0J-269250D01*
G01*
X131651000Y-71906750D01*
G75*
G02*
X131381750Y-72176000I-269250J0D01*
G01*
X130418250Y-72176000D01*
G75*
G02*
X130149000Y-71906750I0J269250D01*
G01*
X130149000Y-71368250D01*
G75*
G02*
X130418250Y-71099000I269250J0D01*
G01*
G37*
G36*
G01*
X130418250Y-69224000D02*
X131381750Y-69224000D01*
G75*
G02*
X131651000Y-69493250I0J-269250D01*
G01*
X131651000Y-70031750D01*
G75*
G02*
X131381750Y-70301000I-269250J0D01*
G01*
X130418250Y-70301000D01*
G75*
G02*
X130149000Y-70031750I0J269250D01*
G01*
X130149000Y-69493250D01*
G75*
G02*
X130418250Y-69224000I269250J0D01*
G01*
G37*
G36*
G01*
X141599000Y-131881750D02*
X141599000Y-130918250D01*
G75*
G02*
X141868250Y-130649000I269250J0D01*
G01*
X142406750Y-130649000D01*
G75*
G02*
X142676000Y-130918250I0J-269250D01*
G01*
X142676000Y-131881750D01*
G75*
G02*
X142406750Y-132151000I-269250J0D01*
G01*
X141868250Y-132151000D01*
G75*
G02*
X141599000Y-131881750I0J269250D01*
G01*
G37*
G36*
G01*
X139724000Y-131881750D02*
X139724000Y-130918250D01*
G75*
G02*
X139993250Y-130649000I269250J0D01*
G01*
X140531750Y-130649000D01*
G75*
G02*
X140801000Y-130918250I0J-269250D01*
G01*
X140801000Y-131881750D01*
G75*
G02*
X140531750Y-132151000I-269250J0D01*
G01*
X139993250Y-132151000D01*
G75*
G02*
X139724000Y-131881750I0J269250D01*
G01*
G37*
G36*
G01*
X166376000Y-108418250D02*
X166376000Y-109381750D01*
G75*
G02*
X166106750Y-109651000I-269250J0D01*
G01*
X165568250Y-109651000D01*
G75*
G02*
X165299000Y-109381750I0J269250D01*
G01*
X165299000Y-108418250D01*
G75*
G02*
X165568250Y-108149000I269250J0D01*
G01*
X166106750Y-108149000D01*
G75*
G02*
X166376000Y-108418250I0J-269250D01*
G01*
G37*
G36*
G01*
X164501000Y-108418250D02*
X164501000Y-109381750D01*
G75*
G02*
X164231750Y-109651000I-269250J0D01*
G01*
X163693250Y-109651000D01*
G75*
G02*
X163424000Y-109381750I0J269250D01*
G01*
X163424000Y-108418250D01*
G75*
G02*
X163693250Y-108149000I269250J0D01*
G01*
X164231750Y-108149000D01*
G75*
G02*
X164501000Y-108418250I0J-269250D01*
G01*
G37*
G36*
G01*
X144124000Y-117081750D02*
X144124000Y-116118250D01*
G75*
G02*
X144393250Y-115849000I269250J0D01*
G01*
X144931750Y-115849000D01*
G75*
G02*
X145201000Y-116118250I0J-269250D01*
G01*
X145201000Y-117081750D01*
G75*
G02*
X144931750Y-117351000I-269250J0D01*
G01*
X144393250Y-117351000D01*
G75*
G02*
X144124000Y-117081750I0J269250D01*
G01*
G37*
G36*
G01*
X145999000Y-117081750D02*
X145999000Y-116118250D01*
G75*
G02*
X146268250Y-115849000I269250J0D01*
G01*
X146806750Y-115849000D01*
G75*
G02*
X147076000Y-116118250I0J-269250D01*
G01*
X147076000Y-117081750D01*
G75*
G02*
X146806750Y-117351000I-269250J0D01*
G01*
X146268250Y-117351000D01*
G75*
G02*
X145999000Y-117081750I0J269250D01*
G01*
G37*
G36*
G01*
X152824000Y-131881750D02*
X152824000Y-130918250D01*
G75*
G02*
X153093250Y-130649000I269250J0D01*
G01*
X153631750Y-130649000D01*
G75*
G02*
X153901000Y-130918250I0J-269250D01*
G01*
X153901000Y-131881750D01*
G75*
G02*
X153631750Y-132151000I-269250J0D01*
G01*
X153093250Y-132151000D01*
G75*
G02*
X152824000Y-131881750I0J269250D01*
G01*
G37*
G36*
G01*
X154699000Y-131881750D02*
X154699000Y-130918250D01*
G75*
G02*
X154968250Y-130649000I269250J0D01*
G01*
X155506750Y-130649000D01*
G75*
G02*
X155776000Y-130918250I0J-269250D01*
G01*
X155776000Y-131881750D01*
G75*
G02*
X155506750Y-132151000I-269250J0D01*
G01*
X154968250Y-132151000D01*
G75*
G02*
X154699000Y-131881750I0J269250D01*
G01*
G37*
G36*
G01*
X171661500Y-109381750D02*
X171661500Y-108418250D01*
G75*
G02*
X171930750Y-108149000I269250J0D01*
G01*
X172469250Y-108149000D01*
G75*
G02*
X172738500Y-108418250I0J-269250D01*
G01*
X172738500Y-109381750D01*
G75*
G02*
X172469250Y-109651000I-269250J0D01*
G01*
X171930750Y-109651000D01*
G75*
G02*
X171661500Y-109381750I0J269250D01*
G01*
G37*
G36*
G01*
X173536500Y-109381750D02*
X173536500Y-108418250D01*
G75*
G02*
X173805750Y-108149000I269250J0D01*
G01*
X174344250Y-108149000D01*
G75*
G02*
X174613500Y-108418250I0J-269250D01*
G01*
X174613500Y-109381750D01*
G75*
G02*
X174344250Y-109651000I-269250J0D01*
G01*
X173805750Y-109651000D01*
G75*
G02*
X173536500Y-109381750I0J269250D01*
G01*
G37*
G36*
G01*
X153901000Y-121918250D02*
X153901000Y-122881750D01*
G75*
G02*
X153631750Y-123151000I-269250J0D01*
G01*
X153093250Y-123151000D01*
G75*
G02*
X152824000Y-122881750I0J269250D01*
G01*
X152824000Y-121918250D01*
G75*
G02*
X153093250Y-121649000I269250J0D01*
G01*
X153631750Y-121649000D01*
G75*
G02*
X153901000Y-121918250I0J-269250D01*
G01*
G37*
G36*
G01*
X155776000Y-121918250D02*
X155776000Y-122881750D01*
G75*
G02*
X155506750Y-123151000I-269250J0D01*
G01*
X154968250Y-123151000D01*
G75*
G02*
X154699000Y-122881750I0J269250D01*
G01*
X154699000Y-121918250D01*
G75*
G02*
X154968250Y-121649000I269250J0D01*
G01*
X155506750Y-121649000D01*
G75*
G02*
X155776000Y-121918250I0J-269250D01*
G01*
G37*
G36*
G01*
X141599000Y-127381750D02*
X141599000Y-126418250D01*
G75*
G02*
X141868250Y-126149000I269250J0D01*
G01*
X142406750Y-126149000D01*
G75*
G02*
X142676000Y-126418250I0J-269250D01*
G01*
X142676000Y-127381750D01*
G75*
G02*
X142406750Y-127651000I-269250J0D01*
G01*
X141868250Y-127651000D01*
G75*
G02*
X141599000Y-127381750I0J269250D01*
G01*
G37*
G36*
G01*
X139724000Y-127381750D02*
X139724000Y-126418250D01*
G75*
G02*
X139993250Y-126149000I269250J0D01*
G01*
X140531750Y-126149000D01*
G75*
G02*
X140801000Y-126418250I0J-269250D01*
G01*
X140801000Y-127381750D01*
G75*
G02*
X140531750Y-127651000I-269250J0D01*
G01*
X139993250Y-127651000D01*
G75*
G02*
X139724000Y-127381750I0J269250D01*
G01*
G37*
G36*
G01*
X141599000Y-129631750D02*
X141599000Y-128668250D01*
G75*
G02*
X141868250Y-128399000I269250J0D01*
G01*
X142406750Y-128399000D01*
G75*
G02*
X142676000Y-128668250I0J-269250D01*
G01*
X142676000Y-129631750D01*
G75*
G02*
X142406750Y-129901000I-269250J0D01*
G01*
X141868250Y-129901000D01*
G75*
G02*
X141599000Y-129631750I0J269250D01*
G01*
G37*
G36*
G01*
X139724000Y-129631750D02*
X139724000Y-128668250D01*
G75*
G02*
X139993250Y-128399000I269250J0D01*
G01*
X140531750Y-128399000D01*
G75*
G02*
X140801000Y-128668250I0J-269250D01*
G01*
X140801000Y-129631750D01*
G75*
G02*
X140531750Y-129901000I-269250J0D01*
G01*
X139993250Y-129901000D01*
G75*
G02*
X139724000Y-129631750I0J269250D01*
G01*
G37*
G36*
G01*
X141599000Y-125131750D02*
X141599000Y-124168250D01*
G75*
G02*
X141868250Y-123899000I269250J0D01*
G01*
X142406750Y-123899000D01*
G75*
G02*
X142676000Y-124168250I0J-269250D01*
G01*
X142676000Y-125131750D01*
G75*
G02*
X142406750Y-125401000I-269250J0D01*
G01*
X141868250Y-125401000D01*
G75*
G02*
X141599000Y-125131750I0J269250D01*
G01*
G37*
G36*
G01*
X139724000Y-125131750D02*
X139724000Y-124168250D01*
G75*
G02*
X139993250Y-123899000I269250J0D01*
G01*
X140531750Y-123899000D01*
G75*
G02*
X140801000Y-124168250I0J-269250D01*
G01*
X140801000Y-125131750D01*
G75*
G02*
X140531750Y-125401000I-269250J0D01*
G01*
X139993250Y-125401000D01*
G75*
G02*
X139724000Y-125131750I0J269250D01*
G01*
G37*
G36*
G01*
X152824000Y-127381750D02*
X152824000Y-126418250D01*
G75*
G02*
X153093250Y-126149000I269250J0D01*
G01*
X153631750Y-126149000D01*
G75*
G02*
X153901000Y-126418250I0J-269250D01*
G01*
X153901000Y-127381750D01*
G75*
G02*
X153631750Y-127651000I-269250J0D01*
G01*
X153093250Y-127651000D01*
G75*
G02*
X152824000Y-127381750I0J269250D01*
G01*
G37*
G36*
G01*
X154699000Y-127381750D02*
X154699000Y-126418250D01*
G75*
G02*
X154968250Y-126149000I269250J0D01*
G01*
X155506750Y-126149000D01*
G75*
G02*
X155776000Y-126418250I0J-269250D01*
G01*
X155776000Y-127381750D01*
G75*
G02*
X155506750Y-127651000I-269250J0D01*
G01*
X154968250Y-127651000D01*
G75*
G02*
X154699000Y-127381750I0J269250D01*
G01*
G37*
G36*
G01*
X152824000Y-129631750D02*
X152824000Y-128668250D01*
G75*
G02*
X153093250Y-128399000I269250J0D01*
G01*
X153631750Y-128399000D01*
G75*
G02*
X153901000Y-128668250I0J-269250D01*
G01*
X153901000Y-129631750D01*
G75*
G02*
X153631750Y-129901000I-269250J0D01*
G01*
X153093250Y-129901000D01*
G75*
G02*
X152824000Y-129631750I0J269250D01*
G01*
G37*
G36*
G01*
X154699000Y-129631750D02*
X154699000Y-128668250D01*
G75*
G02*
X154968250Y-128399000I269250J0D01*
G01*
X155506750Y-128399000D01*
G75*
G02*
X155776000Y-128668250I0J-269250D01*
G01*
X155776000Y-129631750D01*
G75*
G02*
X155506750Y-129901000I-269250J0D01*
G01*
X154968250Y-129901000D01*
G75*
G02*
X154699000Y-129631750I0J269250D01*
G01*
G37*
G36*
G01*
X152824000Y-125131750D02*
X152824000Y-124168250D01*
G75*
G02*
X153093250Y-123899000I269250J0D01*
G01*
X153631750Y-123899000D01*
G75*
G02*
X153901000Y-124168250I0J-269250D01*
G01*
X153901000Y-125131750D01*
G75*
G02*
X153631750Y-125401000I-269250J0D01*
G01*
X153093250Y-125401000D01*
G75*
G02*
X152824000Y-125131750I0J269250D01*
G01*
G37*
G36*
G01*
X154699000Y-125131750D02*
X154699000Y-124168250D01*
G75*
G02*
X154968250Y-123899000I269250J0D01*
G01*
X155506750Y-123899000D01*
G75*
G02*
X155776000Y-124168250I0J-269250D01*
G01*
X155776000Y-125131750D01*
G75*
G02*
X155506750Y-125401000I-269250J0D01*
G01*
X154968250Y-125401000D01*
G75*
G02*
X154699000Y-125131750I0J269250D01*
G01*
G37*
G36*
G01*
X196501000Y-112418250D02*
X196501000Y-113381750D01*
G75*
G02*
X196231750Y-113651000I-269250J0D01*
G01*
X195693250Y-113651000D01*
G75*
G02*
X195424000Y-113381750I0J269250D01*
G01*
X195424000Y-112418250D01*
G75*
G02*
X195693250Y-112149000I269250J0D01*
G01*
X196231750Y-112149000D01*
G75*
G02*
X196501000Y-112418250I0J-269250D01*
G01*
G37*
G36*
G01*
X198376000Y-112418250D02*
X198376000Y-113381750D01*
G75*
G02*
X198106750Y-113651000I-269250J0D01*
G01*
X197568250Y-113651000D01*
G75*
G02*
X197299000Y-113381750I0J269250D01*
G01*
X197299000Y-112418250D01*
G75*
G02*
X197568250Y-112149000I269250J0D01*
G01*
X198106750Y-112149000D01*
G75*
G02*
X198376000Y-112418250I0J-269250D01*
G01*
G37*
G36*
G01*
X193813711Y-49701000D02*
X191686289Y-49701000D01*
G75*
G02*
X191424000Y-49438711I0J262289D01*
G01*
X191424000Y-47786289D01*
G75*
G02*
X191686289Y-47524000I262289J0D01*
G01*
X193813711Y-47524000D01*
G75*
G02*
X194076000Y-47786289I0J-262289D01*
G01*
X194076000Y-49438711D01*
G75*
G02*
X193813711Y-49701000I-262289J0D01*
G01*
G37*
G36*
G01*
X193813711Y-43476000D02*
X191686289Y-43476000D01*
G75*
G02*
X191424000Y-43213711I0J262289D01*
G01*
X191424000Y-41561289D01*
G75*
G02*
X191686289Y-41299000I262289J0D01*
G01*
X193813711Y-41299000D01*
G75*
G02*
X194076000Y-41561289I0J-262289D01*
G01*
X194076000Y-43213711D01*
G75*
G02*
X193813711Y-43476000I-262289J0D01*
G01*
G37*
G36*
G01*
X183249000Y-43706756D02*
X183249000Y-41793244D01*
G75*
G02*
X183518244Y-41524000I269244J0D01*
G01*
X184406756Y-41524000D01*
G75*
G02*
X184676000Y-41793244I0J-269244D01*
G01*
X184676000Y-43706756D01*
G75*
G02*
X184406756Y-43976000I-269244J0D01*
G01*
X183518244Y-43976000D01*
G75*
G02*
X183249000Y-43706756I0J269244D01*
G01*
G37*
G36*
G01*
X186324000Y-43706756D02*
X186324000Y-41793244D01*
G75*
G02*
X186593244Y-41524000I269244J0D01*
G01*
X187481756Y-41524000D01*
G75*
G02*
X187751000Y-41793244I0J-269244D01*
G01*
X187751000Y-43706756D01*
G75*
G02*
X187481756Y-43976000I-269244J0D01*
G01*
X186593244Y-43976000D01*
G75*
G02*
X186324000Y-43706756I0J269244D01*
G01*
G37*
G36*
G01*
X145101000Y-93718250D02*
X145101000Y-94681750D01*
G75*
G02*
X144831750Y-94951000I-269250J0D01*
G01*
X144293250Y-94951000D01*
G75*
G02*
X144024000Y-94681750I0J269250D01*
G01*
X144024000Y-93718250D01*
G75*
G02*
X144293250Y-93449000I269250J0D01*
G01*
X144831750Y-93449000D01*
G75*
G02*
X145101000Y-93718250I0J-269250D01*
G01*
G37*
G36*
G01*
X146976000Y-93718250D02*
X146976000Y-94681750D01*
G75*
G02*
X146706750Y-94951000I-269250J0D01*
G01*
X146168250Y-94951000D01*
G75*
G02*
X145899000Y-94681750I0J269250D01*
G01*
X145899000Y-93718250D01*
G75*
G02*
X146168250Y-93449000I269250J0D01*
G01*
X146706750Y-93449000D01*
G75*
G02*
X146976000Y-93718250I0J-269250D01*
G01*
G37*
G36*
G01*
X146976000Y-91218250D02*
X146976000Y-92181750D01*
G75*
G02*
X146706750Y-92451000I-269250J0D01*
G01*
X146168250Y-92451000D01*
G75*
G02*
X145899000Y-92181750I0J269250D01*
G01*
X145899000Y-91218250D01*
G75*
G02*
X146168250Y-90949000I269250J0D01*
G01*
X146706750Y-90949000D01*
G75*
G02*
X146976000Y-91218250I0J-269250D01*
G01*
G37*
G36*
G01*
X145101000Y-91218250D02*
X145101000Y-92181750D01*
G75*
G02*
X144831750Y-92451000I-269250J0D01*
G01*
X144293250Y-92451000D01*
G75*
G02*
X144024000Y-92181750I0J269250D01*
G01*
X144024000Y-91218250D01*
G75*
G02*
X144293250Y-90949000I269250J0D01*
G01*
X144831750Y-90949000D01*
G75*
G02*
X145101000Y-91218250I0J-269250D01*
G01*
G37*
G36*
G01*
X120301000Y-93218250D02*
X120301000Y-94181750D01*
G75*
G02*
X120031750Y-94451000I-269250J0D01*
G01*
X119493250Y-94451000D01*
G75*
G02*
X119224000Y-94181750I0J269250D01*
G01*
X119224000Y-93218250D01*
G75*
G02*
X119493250Y-92949000I269250J0D01*
G01*
X120031750Y-92949000D01*
G75*
G02*
X120301000Y-93218250I0J-269250D01*
G01*
G37*
G36*
G01*
X122176000Y-93218250D02*
X122176000Y-94181750D01*
G75*
G02*
X121906750Y-94451000I-269250J0D01*
G01*
X121368250Y-94451000D01*
G75*
G02*
X121099000Y-94181750I0J269250D01*
G01*
X121099000Y-93218250D01*
G75*
G02*
X121368250Y-92949000I269250J0D01*
G01*
X121906750Y-92949000D01*
G75*
G02*
X122176000Y-93218250I0J-269250D01*
G01*
G37*
G36*
G01*
X122176000Y-101018250D02*
X122176000Y-101981750D01*
G75*
G02*
X121906750Y-102251000I-269250J0D01*
G01*
X121368250Y-102251000D01*
G75*
G02*
X121099000Y-101981750I0J269250D01*
G01*
X121099000Y-101018250D01*
G75*
G02*
X121368250Y-100749000I269250J0D01*
G01*
X121906750Y-100749000D01*
G75*
G02*
X122176000Y-101018250I0J-269250D01*
G01*
G37*
G36*
G01*
X120301000Y-101018250D02*
X120301000Y-101981750D01*
G75*
G02*
X120031750Y-102251000I-269250J0D01*
G01*
X119493250Y-102251000D01*
G75*
G02*
X119224000Y-101981750I0J269250D01*
G01*
X119224000Y-101018250D01*
G75*
G02*
X119493250Y-100749000I269250J0D01*
G01*
X120031750Y-100749000D01*
G75*
G02*
X120301000Y-101018250I0J-269250D01*
G01*
G37*
G36*
G01*
X120301000Y-83218250D02*
X120301000Y-84181750D01*
G75*
G02*
X120031750Y-84451000I-269250J0D01*
G01*
X119493250Y-84451000D01*
G75*
G02*
X119224000Y-84181750I0J269250D01*
G01*
X119224000Y-83218250D01*
G75*
G02*
X119493250Y-82949000I269250J0D01*
G01*
X120031750Y-82949000D01*
G75*
G02*
X120301000Y-83218250I0J-269250D01*
G01*
G37*
G36*
G01*
X122176000Y-83218250D02*
X122176000Y-84181750D01*
G75*
G02*
X121906750Y-84451000I-269250J0D01*
G01*
X121368250Y-84451000D01*
G75*
G02*
X121099000Y-84181750I0J269250D01*
G01*
X121099000Y-83218250D01*
G75*
G02*
X121368250Y-82949000I269250J0D01*
G01*
X121906750Y-82949000D01*
G75*
G02*
X122176000Y-83218250I0J-269250D01*
G01*
G37*
G36*
G01*
X122176000Y-91018250D02*
X122176000Y-91981750D01*
G75*
G02*
X121906750Y-92251000I-269250J0D01*
G01*
X121368250Y-92251000D01*
G75*
G02*
X121099000Y-91981750I0J269250D01*
G01*
X121099000Y-91018250D01*
G75*
G02*
X121368250Y-90749000I269250J0D01*
G01*
X121906750Y-90749000D01*
G75*
G02*
X122176000Y-91018250I0J-269250D01*
G01*
G37*
G36*
G01*
X120301000Y-91018250D02*
X120301000Y-91981750D01*
G75*
G02*
X120031750Y-92251000I-269250J0D01*
G01*
X119493250Y-92251000D01*
G75*
G02*
X119224000Y-91981750I0J269250D01*
G01*
X119224000Y-91018250D01*
G75*
G02*
X119493250Y-90749000I269250J0D01*
G01*
X120031750Y-90749000D01*
G75*
G02*
X120301000Y-91018250I0J-269250D01*
G01*
G37*
G36*
G01*
X123501000Y-83475000D02*
X123501000Y-83925000D01*
G75*
G02*
X123450000Y-83976000I-51000J0D01*
G01*
X122850000Y-83976000D01*
G75*
G02*
X122799000Y-83925000I0J51000D01*
G01*
X122799000Y-83475000D01*
G75*
G02*
X122850000Y-83424000I51000J0D01*
G01*
X123450000Y-83424000D01*
G75*
G02*
X123501000Y-83475000I0J-51000D01*
G01*
G37*
G36*
G01*
X125601000Y-83475000D02*
X125601000Y-83925000D01*
G75*
G02*
X125550000Y-83976000I-51000J0D01*
G01*
X124950000Y-83976000D01*
G75*
G02*
X124899000Y-83925000I0J51000D01*
G01*
X124899000Y-83475000D01*
G75*
G02*
X124950000Y-83424000I51000J0D01*
G01*
X125550000Y-83424000D01*
G75*
G02*
X125601000Y-83475000I0J-51000D01*
G01*
G37*
G36*
G01*
X129986500Y-44081750D02*
X129986500Y-43118250D01*
G75*
G02*
X130255750Y-42849000I269250J0D01*
G01*
X130794250Y-42849000D01*
G75*
G02*
X131063500Y-43118250I0J-269250D01*
G01*
X131063500Y-44081750D01*
G75*
G02*
X130794250Y-44351000I-269250J0D01*
G01*
X130255750Y-44351000D01*
G75*
G02*
X129986500Y-44081750I0J269250D01*
G01*
G37*
G36*
G01*
X131861500Y-44081750D02*
X131861500Y-43118250D01*
G75*
G02*
X132130750Y-42849000I269250J0D01*
G01*
X132669250Y-42849000D01*
G75*
G02*
X132938500Y-43118250I0J-269250D01*
G01*
X132938500Y-44081750D01*
G75*
G02*
X132669250Y-44351000I-269250J0D01*
G01*
X132130750Y-44351000D01*
G75*
G02*
X131861500Y-44081750I0J269250D01*
G01*
G37*
G36*
G01*
X131101000Y-41018250D02*
X131101000Y-41981750D01*
G75*
G02*
X130831750Y-42251000I-269250J0D01*
G01*
X130293250Y-42251000D01*
G75*
G02*
X130024000Y-41981750I0J269250D01*
G01*
X130024000Y-41018250D01*
G75*
G02*
X130293250Y-40749000I269250J0D01*
G01*
X130831750Y-40749000D01*
G75*
G02*
X131101000Y-41018250I0J-269250D01*
G01*
G37*
G36*
G01*
X132976000Y-41018250D02*
X132976000Y-41981750D01*
G75*
G02*
X132706750Y-42251000I-269250J0D01*
G01*
X132168250Y-42251000D01*
G75*
G02*
X131899000Y-41981750I0J269250D01*
G01*
X131899000Y-41018250D01*
G75*
G02*
X132168250Y-40749000I269250J0D01*
G01*
X132706750Y-40749000D01*
G75*
G02*
X132976000Y-41018250I0J-269250D01*
G01*
G37*
G36*
G01*
X179401000Y-93518250D02*
X179401000Y-94481750D01*
G75*
G02*
X179131750Y-94751000I-269250J0D01*
G01*
X178593250Y-94751000D01*
G75*
G02*
X178324000Y-94481750I0J269250D01*
G01*
X178324000Y-93518250D01*
G75*
G02*
X178593250Y-93249000I269250J0D01*
G01*
X179131750Y-93249000D01*
G75*
G02*
X179401000Y-93518250I0J-269250D01*
G01*
G37*
G36*
G01*
X181276000Y-93518250D02*
X181276000Y-94481750D01*
G75*
G02*
X181006750Y-94751000I-269250J0D01*
G01*
X180468250Y-94751000D01*
G75*
G02*
X180199000Y-94481750I0J269250D01*
G01*
X180199000Y-93518250D01*
G75*
G02*
X180468250Y-93249000I269250J0D01*
G01*
X181006750Y-93249000D01*
G75*
G02*
X181276000Y-93518250I0J-269250D01*
G01*
G37*
G36*
G01*
X128199000Y-44081750D02*
X128199000Y-43118250D01*
G75*
G02*
X128468250Y-42849000I269250J0D01*
G01*
X129006750Y-42849000D01*
G75*
G02*
X129276000Y-43118250I0J-269250D01*
G01*
X129276000Y-44081750D01*
G75*
G02*
X129006750Y-44351000I-269250J0D01*
G01*
X128468250Y-44351000D01*
G75*
G02*
X128199000Y-44081750I0J269250D01*
G01*
G37*
G36*
G01*
X126324000Y-44081750D02*
X126324000Y-43118250D01*
G75*
G02*
X126593250Y-42849000I269250J0D01*
G01*
X127131750Y-42849000D01*
G75*
G02*
X127401000Y-43118250I0J-269250D01*
G01*
X127401000Y-44081750D01*
G75*
G02*
X127131750Y-44351000I-269250J0D01*
G01*
X126593250Y-44351000D01*
G75*
G02*
X126324000Y-44081750I0J269250D01*
G01*
G37*
G36*
G01*
X126324000Y-41981750D02*
X126324000Y-41018250D01*
G75*
G02*
X126593250Y-40749000I269250J0D01*
G01*
X127131750Y-40749000D01*
G75*
G02*
X127401000Y-41018250I0J-269250D01*
G01*
X127401000Y-41981750D01*
G75*
G02*
X127131750Y-42251000I-269250J0D01*
G01*
X126593250Y-42251000D01*
G75*
G02*
X126324000Y-41981750I0J269250D01*
G01*
G37*
G36*
G01*
X128199000Y-41981750D02*
X128199000Y-41018250D01*
G75*
G02*
X128468250Y-40749000I269250J0D01*
G01*
X129006750Y-40749000D01*
G75*
G02*
X129276000Y-41018250I0J-269250D01*
G01*
X129276000Y-41981750D01*
G75*
G02*
X129006750Y-42251000I-269250J0D01*
G01*
X128468250Y-42251000D01*
G75*
G02*
X128199000Y-41981750I0J269250D01*
G01*
G37*
G36*
G01*
X160424000Y-92981750D02*
X160424000Y-92018250D01*
G75*
G02*
X160693250Y-91749000I269250J0D01*
G01*
X161231750Y-91749000D01*
G75*
G02*
X161501000Y-92018250I0J-269250D01*
G01*
X161501000Y-92981750D01*
G75*
G02*
X161231750Y-93251000I-269250J0D01*
G01*
X160693250Y-93251000D01*
G75*
G02*
X160424000Y-92981750I0J269250D01*
G01*
G37*
G36*
G01*
X162299000Y-92981750D02*
X162299000Y-92018250D01*
G75*
G02*
X162568250Y-91749000I269250J0D01*
G01*
X163106750Y-91749000D01*
G75*
G02*
X163376000Y-92018250I0J-269250D01*
G01*
X163376000Y-92981750D01*
G75*
G02*
X163106750Y-93251000I-269250J0D01*
G01*
X162568250Y-93251000D01*
G75*
G02*
X162299000Y-92981750I0J269250D01*
G01*
G37*
G36*
G01*
X162299000Y-90981750D02*
X162299000Y-90018250D01*
G75*
G02*
X162568250Y-89749000I269250J0D01*
G01*
X163106750Y-89749000D01*
G75*
G02*
X163376000Y-90018250I0J-269250D01*
G01*
X163376000Y-90981750D01*
G75*
G02*
X163106750Y-91251000I-269250J0D01*
G01*
X162568250Y-91251000D01*
G75*
G02*
X162299000Y-90981750I0J269250D01*
G01*
G37*
G36*
G01*
X160424000Y-90981750D02*
X160424000Y-90018250D01*
G75*
G02*
X160693250Y-89749000I269250J0D01*
G01*
X161231750Y-89749000D01*
G75*
G02*
X161501000Y-90018250I0J-269250D01*
G01*
X161501000Y-90981750D01*
G75*
G02*
X161231750Y-91251000I-269250J0D01*
G01*
X160693250Y-91251000D01*
G75*
G02*
X160424000Y-90981750I0J269250D01*
G01*
G37*
G36*
G01*
X118676000Y-93218250D02*
X118676000Y-94181750D01*
G75*
G02*
X118406750Y-94451000I-269250J0D01*
G01*
X117868250Y-94451000D01*
G75*
G02*
X117599000Y-94181750I0J269250D01*
G01*
X117599000Y-93218250D01*
G75*
G02*
X117868250Y-92949000I269250J0D01*
G01*
X118406750Y-92949000D01*
G75*
G02*
X118676000Y-93218250I0J-269250D01*
G01*
G37*
G36*
G01*
X116801000Y-93218250D02*
X116801000Y-94181750D01*
G75*
G02*
X116531750Y-94451000I-269250J0D01*
G01*
X115993250Y-94451000D01*
G75*
G02*
X115724000Y-94181750I0J269250D01*
G01*
X115724000Y-93218250D01*
G75*
G02*
X115993250Y-92949000I269250J0D01*
G01*
X116531750Y-92949000D01*
G75*
G02*
X116801000Y-93218250I0J-269250D01*
G01*
G37*
G36*
G01*
X116801000Y-101018250D02*
X116801000Y-101981750D01*
G75*
G02*
X116531750Y-102251000I-269250J0D01*
G01*
X115993250Y-102251000D01*
G75*
G02*
X115724000Y-101981750I0J269250D01*
G01*
X115724000Y-101018250D01*
G75*
G02*
X115993250Y-100749000I269250J0D01*
G01*
X116531750Y-100749000D01*
G75*
G02*
X116801000Y-101018250I0J-269250D01*
G01*
G37*
G36*
G01*
X118676000Y-101018250D02*
X118676000Y-101981750D01*
G75*
G02*
X118406750Y-102251000I-269250J0D01*
G01*
X117868250Y-102251000D01*
G75*
G02*
X117599000Y-101981750I0J269250D01*
G01*
X117599000Y-101018250D01*
G75*
G02*
X117868250Y-100749000I269250J0D01*
G01*
X118406750Y-100749000D01*
G75*
G02*
X118676000Y-101018250I0J-269250D01*
G01*
G37*
G36*
G01*
X142399000Y-94681750D02*
X142399000Y-93718250D01*
G75*
G02*
X142668250Y-93449000I269250J0D01*
G01*
X143206750Y-93449000D01*
G75*
G02*
X143476000Y-93718250I0J-269250D01*
G01*
X143476000Y-94681750D01*
G75*
G02*
X143206750Y-94951000I-269250J0D01*
G01*
X142668250Y-94951000D01*
G75*
G02*
X142399000Y-94681750I0J269250D01*
G01*
G37*
G36*
G01*
X140524000Y-94681750D02*
X140524000Y-93718250D01*
G75*
G02*
X140793250Y-93449000I269250J0D01*
G01*
X141331750Y-93449000D01*
G75*
G02*
X141601000Y-93718250I0J-269250D01*
G01*
X141601000Y-94681750D01*
G75*
G02*
X141331750Y-94951000I-269250J0D01*
G01*
X140793250Y-94951000D01*
G75*
G02*
X140524000Y-94681750I0J269250D01*
G01*
G37*
G36*
G01*
X140524000Y-92181750D02*
X140524000Y-91218250D01*
G75*
G02*
X140793250Y-90949000I269250J0D01*
G01*
X141331750Y-90949000D01*
G75*
G02*
X141601000Y-91218250I0J-269250D01*
G01*
X141601000Y-92181750D01*
G75*
G02*
X141331750Y-92451000I-269250J0D01*
G01*
X140793250Y-92451000D01*
G75*
G02*
X140524000Y-92181750I0J269250D01*
G01*
G37*
G36*
G01*
X142399000Y-92181750D02*
X142399000Y-91218250D01*
G75*
G02*
X142668250Y-90949000I269250J0D01*
G01*
X143206750Y-90949000D01*
G75*
G02*
X143476000Y-91218250I0J-269250D01*
G01*
X143476000Y-92181750D01*
G75*
G02*
X143206750Y-92451000I-269250J0D01*
G01*
X142668250Y-92451000D01*
G75*
G02*
X142399000Y-92181750I0J269250D01*
G01*
G37*
G36*
G01*
X138899000Y-92181750D02*
X138899000Y-91218250D01*
G75*
G02*
X139168250Y-90949000I269250J0D01*
G01*
X139706750Y-90949000D01*
G75*
G02*
X139976000Y-91218250I0J-269250D01*
G01*
X139976000Y-92181750D01*
G75*
G02*
X139706750Y-92451000I-269250J0D01*
G01*
X139168250Y-92451000D01*
G75*
G02*
X138899000Y-92181750I0J269250D01*
G01*
G37*
G36*
G01*
X137024000Y-92181750D02*
X137024000Y-91218250D01*
G75*
G02*
X137293250Y-90949000I269250J0D01*
G01*
X137831750Y-90949000D01*
G75*
G02*
X138101000Y-91218250I0J-269250D01*
G01*
X138101000Y-92181750D01*
G75*
G02*
X137831750Y-92451000I-269250J0D01*
G01*
X137293250Y-92451000D01*
G75*
G02*
X137024000Y-92181750I0J269250D01*
G01*
G37*
G36*
G01*
X131899000Y-48281750D02*
X131899000Y-47318250D01*
G75*
G02*
X132168250Y-47049000I269250J0D01*
G01*
X132706750Y-47049000D01*
G75*
G02*
X132976000Y-47318250I0J-269250D01*
G01*
X132976000Y-48281750D01*
G75*
G02*
X132706750Y-48551000I-269250J0D01*
G01*
X132168250Y-48551000D01*
G75*
G02*
X131899000Y-48281750I0J269250D01*
G01*
G37*
G36*
G01*
X130024000Y-48281750D02*
X130024000Y-47318250D01*
G75*
G02*
X130293250Y-47049000I269250J0D01*
G01*
X130831750Y-47049000D01*
G75*
G02*
X131101000Y-47318250I0J-269250D01*
G01*
X131101000Y-48281750D01*
G75*
G02*
X130831750Y-48551000I-269250J0D01*
G01*
X130293250Y-48551000D01*
G75*
G02*
X130024000Y-48281750I0J269250D01*
G01*
G37*
G36*
G01*
X132976000Y-45218250D02*
X132976000Y-46181750D01*
G75*
G02*
X132706750Y-46451000I-269250J0D01*
G01*
X132168250Y-46451000D01*
G75*
G02*
X131899000Y-46181750I0J269250D01*
G01*
X131899000Y-45218250D01*
G75*
G02*
X132168250Y-44949000I269250J0D01*
G01*
X132706750Y-44949000D01*
G75*
G02*
X132976000Y-45218250I0J-269250D01*
G01*
G37*
G36*
G01*
X131101000Y-45218250D02*
X131101000Y-46181750D01*
G75*
G02*
X130831750Y-46451000I-269250J0D01*
G01*
X130293250Y-46451000D01*
G75*
G02*
X130024000Y-46181750I0J269250D01*
G01*
X130024000Y-45218250D01*
G75*
G02*
X130293250Y-44949000I269250J0D01*
G01*
X130831750Y-44949000D01*
G75*
G02*
X131101000Y-45218250I0J-269250D01*
G01*
G37*
G36*
G01*
X128199000Y-48281750D02*
X128199000Y-47318250D01*
G75*
G02*
X128468250Y-47049000I269250J0D01*
G01*
X129006750Y-47049000D01*
G75*
G02*
X129276000Y-47318250I0J-269250D01*
G01*
X129276000Y-48281750D01*
G75*
G02*
X129006750Y-48551000I-269250J0D01*
G01*
X128468250Y-48551000D01*
G75*
G02*
X128199000Y-48281750I0J269250D01*
G01*
G37*
G36*
G01*
X126324000Y-48281750D02*
X126324000Y-47318250D01*
G75*
G02*
X126593250Y-47049000I269250J0D01*
G01*
X127131750Y-47049000D01*
G75*
G02*
X127401000Y-47318250I0J-269250D01*
G01*
X127401000Y-48281750D01*
G75*
G02*
X127131750Y-48551000I-269250J0D01*
G01*
X126593250Y-48551000D01*
G75*
G02*
X126324000Y-48281750I0J269250D01*
G01*
G37*
G36*
G01*
X126324000Y-46181750D02*
X126324000Y-45218250D01*
G75*
G02*
X126593250Y-44949000I269250J0D01*
G01*
X127131750Y-44949000D01*
G75*
G02*
X127401000Y-45218250I0J-269250D01*
G01*
X127401000Y-46181750D01*
G75*
G02*
X127131750Y-46451000I-269250J0D01*
G01*
X126593250Y-46451000D01*
G75*
G02*
X126324000Y-46181750I0J269250D01*
G01*
G37*
G36*
G01*
X128199000Y-46181750D02*
X128199000Y-45218250D01*
G75*
G02*
X128468250Y-44949000I269250J0D01*
G01*
X129006750Y-44949000D01*
G75*
G02*
X129276000Y-45218250I0J-269250D01*
G01*
X129276000Y-46181750D01*
G75*
G02*
X129006750Y-46451000I-269250J0D01*
G01*
X128468250Y-46451000D01*
G75*
G02*
X128199000Y-46181750I0J269250D01*
G01*
G37*
G36*
G01*
X186186500Y-94481750D02*
X186186500Y-93518250D01*
G75*
G02*
X186455750Y-93249000I269250J0D01*
G01*
X186994250Y-93249000D01*
G75*
G02*
X187263500Y-93518250I0J-269250D01*
G01*
X187263500Y-94481750D01*
G75*
G02*
X186994250Y-94751000I-269250J0D01*
G01*
X186455750Y-94751000D01*
G75*
G02*
X186186500Y-94481750I0J269250D01*
G01*
G37*
G36*
G01*
X188061500Y-94481750D02*
X188061500Y-93518250D01*
G75*
G02*
X188330750Y-93249000I269250J0D01*
G01*
X188869250Y-93249000D01*
G75*
G02*
X189138500Y-93518250I0J-269250D01*
G01*
X189138500Y-94481750D01*
G75*
G02*
X188869250Y-94751000I-269250J0D01*
G01*
X188330750Y-94751000D01*
G75*
G02*
X188061500Y-94481750I0J269250D01*
G01*
G37*
G36*
G01*
X162299000Y-101481750D02*
X162299000Y-100518250D01*
G75*
G02*
X162568250Y-100249000I269250J0D01*
G01*
X163106750Y-100249000D01*
G75*
G02*
X163376000Y-100518250I0J-269250D01*
G01*
X163376000Y-101481750D01*
G75*
G02*
X163106750Y-101751000I-269250J0D01*
G01*
X162568250Y-101751000D01*
G75*
G02*
X162299000Y-101481750I0J269250D01*
G01*
G37*
G36*
G01*
X160424000Y-101481750D02*
X160424000Y-100518250D01*
G75*
G02*
X160693250Y-100249000I269250J0D01*
G01*
X161231750Y-100249000D01*
G75*
G02*
X161501000Y-100518250I0J-269250D01*
G01*
X161501000Y-101481750D01*
G75*
G02*
X161231750Y-101751000I-269250J0D01*
G01*
X160693250Y-101751000D01*
G75*
G02*
X160424000Y-101481750I0J269250D01*
G01*
G37*
G36*
G01*
X160424000Y-99481750D02*
X160424000Y-98518250D01*
G75*
G02*
X160693250Y-98249000I269250J0D01*
G01*
X161231750Y-98249000D01*
G75*
G02*
X161501000Y-98518250I0J-269250D01*
G01*
X161501000Y-99481750D01*
G75*
G02*
X161231750Y-99751000I-269250J0D01*
G01*
X160693250Y-99751000D01*
G75*
G02*
X160424000Y-99481750I0J269250D01*
G01*
G37*
G36*
G01*
X162299000Y-99481750D02*
X162299000Y-98518250D01*
G75*
G02*
X162568250Y-98249000I269250J0D01*
G01*
X163106750Y-98249000D01*
G75*
G02*
X163376000Y-98518250I0J-269250D01*
G01*
X163376000Y-99481750D01*
G75*
G02*
X163106750Y-99751000I-269250J0D01*
G01*
X162568250Y-99751000D01*
G75*
G02*
X162299000Y-99481750I0J269250D01*
G01*
G37*
G36*
G01*
X122176000Y-81018250D02*
X122176000Y-81981750D01*
G75*
G02*
X121906750Y-82251000I-269250J0D01*
G01*
X121368250Y-82251000D01*
G75*
G02*
X121099000Y-81981750I0J269250D01*
G01*
X121099000Y-81018250D01*
G75*
G02*
X121368250Y-80749000I269250J0D01*
G01*
X121906750Y-80749000D01*
G75*
G02*
X122176000Y-81018250I0J-269250D01*
G01*
G37*
G36*
G01*
X120301000Y-81018250D02*
X120301000Y-81981750D01*
G75*
G02*
X120031750Y-82251000I-269250J0D01*
G01*
X119493250Y-82251000D01*
G75*
G02*
X119224000Y-81981750I0J269250D01*
G01*
X119224000Y-81018250D01*
G75*
G02*
X119493250Y-80749000I269250J0D01*
G01*
X120031750Y-80749000D01*
G75*
G02*
X120301000Y-81018250I0J-269250D01*
G01*
G37*
G36*
G01*
X118676000Y-91018250D02*
X118676000Y-91981750D01*
G75*
G02*
X118406750Y-92251000I-269250J0D01*
G01*
X117868250Y-92251000D01*
G75*
G02*
X117599000Y-91981750I0J269250D01*
G01*
X117599000Y-91018250D01*
G75*
G02*
X117868250Y-90749000I269250J0D01*
G01*
X118406750Y-90749000D01*
G75*
G02*
X118676000Y-91018250I0J-269250D01*
G01*
G37*
G36*
G01*
X116801000Y-91018250D02*
X116801000Y-91981750D01*
G75*
G02*
X116531750Y-92251000I-269250J0D01*
G01*
X115993250Y-92251000D01*
G75*
G02*
X115724000Y-91981750I0J269250D01*
G01*
X115724000Y-91018250D01*
G75*
G02*
X115993250Y-90749000I269250J0D01*
G01*
X116531750Y-90749000D01*
G75*
G02*
X116801000Y-91018250I0J-269250D01*
G01*
G37*
G36*
G01*
X140524000Y-99681750D02*
X140524000Y-98718250D01*
G75*
G02*
X140793250Y-98449000I269250J0D01*
G01*
X141331750Y-98449000D01*
G75*
G02*
X141601000Y-98718250I0J-269250D01*
G01*
X141601000Y-99681750D01*
G75*
G02*
X141331750Y-99951000I-269250J0D01*
G01*
X140793250Y-99951000D01*
G75*
G02*
X140524000Y-99681750I0J269250D01*
G01*
G37*
G36*
G01*
X142399000Y-99681750D02*
X142399000Y-98718250D01*
G75*
G02*
X142668250Y-98449000I269250J0D01*
G01*
X143206750Y-98449000D01*
G75*
G02*
X143476000Y-98718250I0J-269250D01*
G01*
X143476000Y-99681750D01*
G75*
G02*
X143206750Y-99951000I-269250J0D01*
G01*
X142668250Y-99951000D01*
G75*
G02*
X142399000Y-99681750I0J269250D01*
G01*
G37*
G36*
G01*
X140524000Y-97181750D02*
X140524000Y-96218250D01*
G75*
G02*
X140793250Y-95949000I269250J0D01*
G01*
X141331750Y-95949000D01*
G75*
G02*
X141601000Y-96218250I0J-269250D01*
G01*
X141601000Y-97181750D01*
G75*
G02*
X141331750Y-97451000I-269250J0D01*
G01*
X140793250Y-97451000D01*
G75*
G02*
X140524000Y-97181750I0J269250D01*
G01*
G37*
G36*
G01*
X142399000Y-97181750D02*
X142399000Y-96218250D01*
G75*
G02*
X142668250Y-95949000I269250J0D01*
G01*
X143206750Y-95949000D01*
G75*
G02*
X143476000Y-96218250I0J-269250D01*
G01*
X143476000Y-97181750D01*
G75*
G02*
X143206750Y-97451000I-269250J0D01*
G01*
X142668250Y-97451000D01*
G75*
G02*
X142399000Y-97181750I0J269250D01*
G01*
G37*
G36*
G01*
X138899000Y-99681750D02*
X138899000Y-98718250D01*
G75*
G02*
X139168250Y-98449000I269250J0D01*
G01*
X139706750Y-98449000D01*
G75*
G02*
X139976000Y-98718250I0J-269250D01*
G01*
X139976000Y-99681750D01*
G75*
G02*
X139706750Y-99951000I-269250J0D01*
G01*
X139168250Y-99951000D01*
G75*
G02*
X138899000Y-99681750I0J269250D01*
G01*
G37*
G36*
G01*
X137024000Y-99681750D02*
X137024000Y-98718250D01*
G75*
G02*
X137293250Y-98449000I269250J0D01*
G01*
X137831750Y-98449000D01*
G75*
G02*
X138101000Y-98718250I0J-269250D01*
G01*
X138101000Y-99681750D01*
G75*
G02*
X137831750Y-99951000I-269250J0D01*
G01*
X137293250Y-99951000D01*
G75*
G02*
X137024000Y-99681750I0J269250D01*
G01*
G37*
G36*
G01*
X138899000Y-97181750D02*
X138899000Y-96218250D01*
G75*
G02*
X139168250Y-95949000I269250J0D01*
G01*
X139706750Y-95949000D01*
G75*
G02*
X139976000Y-96218250I0J-269250D01*
G01*
X139976000Y-97181750D01*
G75*
G02*
X139706750Y-97451000I-269250J0D01*
G01*
X139168250Y-97451000D01*
G75*
G02*
X138899000Y-97181750I0J269250D01*
G01*
G37*
G36*
G01*
X137024000Y-97181750D02*
X137024000Y-96218250D01*
G75*
G02*
X137293250Y-95949000I269250J0D01*
G01*
X137831750Y-95949000D01*
G75*
G02*
X138101000Y-96218250I0J-269250D01*
G01*
X138101000Y-97181750D01*
G75*
G02*
X137831750Y-97451000I-269250J0D01*
G01*
X137293250Y-97451000D01*
G75*
G02*
X137024000Y-97181750I0J269250D01*
G01*
G37*
G36*
G01*
X163424000Y-111381750D02*
X163424000Y-110418250D01*
G75*
G02*
X163693250Y-110149000I269250J0D01*
G01*
X164231750Y-110149000D01*
G75*
G02*
X164501000Y-110418250I0J-269250D01*
G01*
X164501000Y-111381750D01*
G75*
G02*
X164231750Y-111651000I-269250J0D01*
G01*
X163693250Y-111651000D01*
G75*
G02*
X163424000Y-111381750I0J269250D01*
G01*
G37*
G36*
G01*
X165299000Y-111381750D02*
X165299000Y-110418250D01*
G75*
G02*
X165568250Y-110149000I269250J0D01*
G01*
X166106750Y-110149000D01*
G75*
G02*
X166376000Y-110418250I0J-269250D01*
G01*
X166376000Y-111381750D01*
G75*
G02*
X166106750Y-111651000I-269250J0D01*
G01*
X165568250Y-111651000D01*
G75*
G02*
X165299000Y-111381750I0J269250D01*
G01*
G37*
G36*
G01*
X158381750Y-109901000D02*
X157418250Y-109901000D01*
G75*
G02*
X157149000Y-109631750I0J269250D01*
G01*
X157149000Y-109093250D01*
G75*
G02*
X157418250Y-108824000I269250J0D01*
G01*
X158381750Y-108824000D01*
G75*
G02*
X158651000Y-109093250I0J-269250D01*
G01*
X158651000Y-109631750D01*
G75*
G02*
X158381750Y-109901000I-269250J0D01*
G01*
G37*
G36*
G01*
X158381750Y-111776000D02*
X157418250Y-111776000D01*
G75*
G02*
X157149000Y-111506750I0J269250D01*
G01*
X157149000Y-110968250D01*
G75*
G02*
X157418250Y-110699000I269250J0D01*
G01*
X158381750Y-110699000D01*
G75*
G02*
X158651000Y-110968250I0J-269250D01*
G01*
X158651000Y-111506750D01*
G75*
G02*
X158381750Y-111776000I-269250J0D01*
G01*
G37*
G36*
G01*
X149676000Y-130918250D02*
X149676000Y-131881750D01*
G75*
G02*
X149406750Y-132151000I-269250J0D01*
G01*
X148868250Y-132151000D01*
G75*
G02*
X148599000Y-131881750I0J269250D01*
G01*
X148599000Y-130918250D01*
G75*
G02*
X148868250Y-130649000I269250J0D01*
G01*
X149406750Y-130649000D01*
G75*
G02*
X149676000Y-130918250I0J-269250D01*
G01*
G37*
G36*
G01*
X147801000Y-130918250D02*
X147801000Y-131881750D01*
G75*
G02*
X147531750Y-132151000I-269250J0D01*
G01*
X146993250Y-132151000D01*
G75*
G02*
X146724000Y-131881750I0J269250D01*
G01*
X146724000Y-130918250D01*
G75*
G02*
X146993250Y-130649000I269250J0D01*
G01*
X147531750Y-130649000D01*
G75*
G02*
X147801000Y-130918250I0J-269250D01*
G01*
G37*
G36*
G01*
X169876000Y-108418250D02*
X169876000Y-109381750D01*
G75*
G02*
X169606750Y-109651000I-269250J0D01*
G01*
X169068250Y-109651000D01*
G75*
G02*
X168799000Y-109381750I0J269250D01*
G01*
X168799000Y-108418250D01*
G75*
G02*
X169068250Y-108149000I269250J0D01*
G01*
X169606750Y-108149000D01*
G75*
G02*
X169876000Y-108418250I0J-269250D01*
G01*
G37*
G36*
G01*
X168001000Y-108418250D02*
X168001000Y-109381750D01*
G75*
G02*
X167731750Y-109651000I-269250J0D01*
G01*
X167193250Y-109651000D01*
G75*
G02*
X166924000Y-109381750I0J269250D01*
G01*
X166924000Y-108418250D01*
G75*
G02*
X167193250Y-108149000I269250J0D01*
G01*
X167731750Y-108149000D01*
G75*
G02*
X168001000Y-108418250I0J-269250D01*
G01*
G37*
G36*
G01*
X145201000Y-118218250D02*
X145201000Y-119181750D01*
G75*
G02*
X144931750Y-119451000I-269250J0D01*
G01*
X144393250Y-119451000D01*
G75*
G02*
X144124000Y-119181750I0J269250D01*
G01*
X144124000Y-118218250D01*
G75*
G02*
X144393250Y-117949000I269250J0D01*
G01*
X144931750Y-117949000D01*
G75*
G02*
X145201000Y-118218250I0J-269250D01*
G01*
G37*
G36*
G01*
X147076000Y-118218250D02*
X147076000Y-119181750D01*
G75*
G02*
X146806750Y-119451000I-269250J0D01*
G01*
X146268250Y-119451000D01*
G75*
G02*
X145999000Y-119181750I0J269250D01*
G01*
X145999000Y-118218250D01*
G75*
G02*
X146268250Y-117949000I269250J0D01*
G01*
X146806750Y-117949000D01*
G75*
G02*
X147076000Y-118218250I0J-269250D01*
G01*
G37*
G36*
G01*
X149676000Y-121918250D02*
X149676000Y-122881750D01*
G75*
G02*
X149406750Y-123151000I-269250J0D01*
G01*
X148868250Y-123151000D01*
G75*
G02*
X148599000Y-122881750I0J269250D01*
G01*
X148599000Y-121918250D01*
G75*
G02*
X148868250Y-121649000I269250J0D01*
G01*
X149406750Y-121649000D01*
G75*
G02*
X149676000Y-121918250I0J-269250D01*
G01*
G37*
G36*
G01*
X147801000Y-121918250D02*
X147801000Y-122881750D01*
G75*
G02*
X147531750Y-123151000I-269250J0D01*
G01*
X146993250Y-123151000D01*
G75*
G02*
X146724000Y-122881750I0J269250D01*
G01*
X146724000Y-121918250D01*
G75*
G02*
X146993250Y-121649000I269250J0D01*
G01*
X147531750Y-121649000D01*
G75*
G02*
X147801000Y-121918250I0J-269250D01*
G01*
G37*
G36*
G01*
X145099000Y-129631750D02*
X145099000Y-128668250D01*
G75*
G02*
X145368250Y-128399000I269250J0D01*
G01*
X145906750Y-128399000D01*
G75*
G02*
X146176000Y-128668250I0J-269250D01*
G01*
X146176000Y-129631750D01*
G75*
G02*
X145906750Y-129901000I-269250J0D01*
G01*
X145368250Y-129901000D01*
G75*
G02*
X145099000Y-129631750I0J269250D01*
G01*
G37*
G36*
G01*
X143224000Y-129631750D02*
X143224000Y-128668250D01*
G75*
G02*
X143493250Y-128399000I269250J0D01*
G01*
X144031750Y-128399000D01*
G75*
G02*
X144301000Y-128668250I0J-269250D01*
G01*
X144301000Y-129631750D01*
G75*
G02*
X144031750Y-129901000I-269250J0D01*
G01*
X143493250Y-129901000D01*
G75*
G02*
X143224000Y-129631750I0J269250D01*
G01*
G37*
G36*
G01*
X143224000Y-125131750D02*
X143224000Y-124168250D01*
G75*
G02*
X143493250Y-123899000I269250J0D01*
G01*
X144031750Y-123899000D01*
G75*
G02*
X144301000Y-124168250I0J-269250D01*
G01*
X144301000Y-125131750D01*
G75*
G02*
X144031750Y-125401000I-269250J0D01*
G01*
X143493250Y-125401000D01*
G75*
G02*
X143224000Y-125131750I0J269250D01*
G01*
G37*
G36*
G01*
X145099000Y-125131750D02*
X145099000Y-124168250D01*
G75*
G02*
X145368250Y-123899000I269250J0D01*
G01*
X145906750Y-123899000D01*
G75*
G02*
X146176000Y-124168250I0J-269250D01*
G01*
X146176000Y-125131750D01*
G75*
G02*
X145906750Y-125401000I-269250J0D01*
G01*
X145368250Y-125401000D01*
G75*
G02*
X145099000Y-125131750I0J269250D01*
G01*
G37*
G36*
G01*
X171618250Y-115399000D02*
X172581750Y-115399000D01*
G75*
G02*
X172851000Y-115668250I0J-269250D01*
G01*
X172851000Y-116206750D01*
G75*
G02*
X172581750Y-116476000I-269250J0D01*
G01*
X171618250Y-116476000D01*
G75*
G02*
X171349000Y-116206750I0J269250D01*
G01*
X171349000Y-115668250D01*
G75*
G02*
X171618250Y-115399000I269250J0D01*
G01*
G37*
G36*
G01*
X171618250Y-113524000D02*
X172581750Y-113524000D01*
G75*
G02*
X172851000Y-113793250I0J-269250D01*
G01*
X172851000Y-114331750D01*
G75*
G02*
X172581750Y-114601000I-269250J0D01*
G01*
X171618250Y-114601000D01*
G75*
G02*
X171349000Y-114331750I0J269250D01*
G01*
X171349000Y-113793250D01*
G75*
G02*
X171618250Y-113524000I269250J0D01*
G01*
G37*
G36*
G01*
X147801000Y-128668250D02*
X147801000Y-129631750D01*
G75*
G02*
X147531750Y-129901000I-269250J0D01*
G01*
X146993250Y-129901000D01*
G75*
G02*
X146724000Y-129631750I0J269250D01*
G01*
X146724000Y-128668250D01*
G75*
G02*
X146993250Y-128399000I269250J0D01*
G01*
X147531750Y-128399000D01*
G75*
G02*
X147801000Y-128668250I0J-269250D01*
G01*
G37*
G36*
G01*
X149676000Y-128668250D02*
X149676000Y-129631750D01*
G75*
G02*
X149406750Y-129901000I-269250J0D01*
G01*
X148868250Y-129901000D01*
G75*
G02*
X148599000Y-129631750I0J269250D01*
G01*
X148599000Y-128668250D01*
G75*
G02*
X148868250Y-128399000I269250J0D01*
G01*
X149406750Y-128399000D01*
G75*
G02*
X149676000Y-128668250I0J-269250D01*
G01*
G37*
G36*
G01*
X147801000Y-124168250D02*
X147801000Y-125131750D01*
G75*
G02*
X147531750Y-125401000I-269250J0D01*
G01*
X146993250Y-125401000D01*
G75*
G02*
X146724000Y-125131750I0J269250D01*
G01*
X146724000Y-124168250D01*
G75*
G02*
X146993250Y-123899000I269250J0D01*
G01*
X147531750Y-123899000D01*
G75*
G02*
X147801000Y-124168250I0J-269250D01*
G01*
G37*
G36*
G01*
X149676000Y-124168250D02*
X149676000Y-125131750D01*
G75*
G02*
X149406750Y-125401000I-269250J0D01*
G01*
X148868250Y-125401000D01*
G75*
G02*
X148599000Y-125131750I0J269250D01*
G01*
X148599000Y-124168250D01*
G75*
G02*
X148868250Y-123899000I269250J0D01*
G01*
X149406750Y-123899000D01*
G75*
G02*
X149676000Y-124168250I0J-269250D01*
G01*
G37*
G36*
G01*
X174681750Y-114601000D02*
X173718250Y-114601000D01*
G75*
G02*
X173449000Y-114331750I0J269250D01*
G01*
X173449000Y-113793250D01*
G75*
G02*
X173718250Y-113524000I269250J0D01*
G01*
X174681750Y-113524000D01*
G75*
G02*
X174951000Y-113793250I0J-269250D01*
G01*
X174951000Y-114331750D01*
G75*
G02*
X174681750Y-114601000I-269250J0D01*
G01*
G37*
G36*
G01*
X174681750Y-116476000D02*
X173718250Y-116476000D01*
G75*
G02*
X173449000Y-116206750I0J269250D01*
G01*
X173449000Y-115668250D01*
G75*
G02*
X173718250Y-115399000I269250J0D01*
G01*
X174681750Y-115399000D01*
G75*
G02*
X174951000Y-115668250I0J-269250D01*
G01*
X174951000Y-116206750D01*
G75*
G02*
X174681750Y-116476000I-269250J0D01*
G01*
G37*
G36*
G01*
X174681750Y-124601000D02*
X173718250Y-124601000D01*
G75*
G02*
X173449000Y-124331750I0J269250D01*
G01*
X173449000Y-123793250D01*
G75*
G02*
X173718250Y-123524000I269250J0D01*
G01*
X174681750Y-123524000D01*
G75*
G02*
X174951000Y-123793250I0J-269250D01*
G01*
X174951000Y-124331750D01*
G75*
G02*
X174681750Y-124601000I-269250J0D01*
G01*
G37*
G36*
G01*
X174681750Y-126476000D02*
X173718250Y-126476000D01*
G75*
G02*
X173449000Y-126206750I0J269250D01*
G01*
X173449000Y-125668250D01*
G75*
G02*
X173718250Y-125399000I269250J0D01*
G01*
X174681750Y-125399000D01*
G75*
G02*
X174951000Y-125668250I0J-269250D01*
G01*
X174951000Y-126206750D01*
G75*
G02*
X174681750Y-126476000I-269250J0D01*
G01*
G37*
G36*
G01*
X162499000Y-119955000D02*
X162499000Y-119355000D01*
G75*
G02*
X162550000Y-119304000I51000J0D01*
G01*
X164050000Y-119304000D01*
G75*
G02*
X164101000Y-119355000I0J-51000D01*
G01*
X164101000Y-119955000D01*
G75*
G02*
X164050000Y-120006000I-51000J0D01*
G01*
X162550000Y-120006000D01*
G75*
G02*
X162499000Y-119955000I0J51000D01*
G01*
G37*
G36*
G01*
X162499000Y-121225000D02*
X162499000Y-120625000D01*
G75*
G02*
X162550000Y-120574000I51000J0D01*
G01*
X164050000Y-120574000D01*
G75*
G02*
X164101000Y-120625000I0J-51000D01*
G01*
X164101000Y-121225000D01*
G75*
G02*
X164050000Y-121276000I-51000J0D01*
G01*
X162550000Y-121276000D01*
G75*
G02*
X162499000Y-121225000I0J51000D01*
G01*
G37*
G36*
G01*
X162499000Y-122495000D02*
X162499000Y-121895000D01*
G75*
G02*
X162550000Y-121844000I51000J0D01*
G01*
X164050000Y-121844000D01*
G75*
G02*
X164101000Y-121895000I0J-51000D01*
G01*
X164101000Y-122495000D01*
G75*
G02*
X164050000Y-122546000I-51000J0D01*
G01*
X162550000Y-122546000D01*
G75*
G02*
X162499000Y-122495000I0J51000D01*
G01*
G37*
G36*
G01*
X162499000Y-123765000D02*
X162499000Y-123165000D01*
G75*
G02*
X162550000Y-123114000I51000J0D01*
G01*
X164050000Y-123114000D01*
G75*
G02*
X164101000Y-123165000I0J-51000D01*
G01*
X164101000Y-123765000D01*
G75*
G02*
X164050000Y-123816000I-51000J0D01*
G01*
X162550000Y-123816000D01*
G75*
G02*
X162499000Y-123765000I0J51000D01*
G01*
G37*
G36*
G01*
X162499000Y-125035000D02*
X162499000Y-124435000D01*
G75*
G02*
X162550000Y-124384000I51000J0D01*
G01*
X164050000Y-124384000D01*
G75*
G02*
X164101000Y-124435000I0J-51000D01*
G01*
X164101000Y-125035000D01*
G75*
G02*
X164050000Y-125086000I-51000J0D01*
G01*
X162550000Y-125086000D01*
G75*
G02*
X162499000Y-125035000I0J51000D01*
G01*
G37*
G36*
G01*
X162499000Y-126305000D02*
X162499000Y-125705000D01*
G75*
G02*
X162550000Y-125654000I51000J0D01*
G01*
X164050000Y-125654000D01*
G75*
G02*
X164101000Y-125705000I0J-51000D01*
G01*
X164101000Y-126305000D01*
G75*
G02*
X164050000Y-126356000I-51000J0D01*
G01*
X162550000Y-126356000D01*
G75*
G02*
X162499000Y-126305000I0J51000D01*
G01*
G37*
G36*
G01*
X162499000Y-127575000D02*
X162499000Y-126975000D01*
G75*
G02*
X162550000Y-126924000I51000J0D01*
G01*
X164050000Y-126924000D01*
G75*
G02*
X164101000Y-126975000I0J-51000D01*
G01*
X164101000Y-127575000D01*
G75*
G02*
X164050000Y-127626000I-51000J0D01*
G01*
X162550000Y-127626000D01*
G75*
G02*
X162499000Y-127575000I0J51000D01*
G01*
G37*
G36*
G01*
X162499000Y-128845000D02*
X162499000Y-128245000D01*
G75*
G02*
X162550000Y-128194000I51000J0D01*
G01*
X164050000Y-128194000D01*
G75*
G02*
X164101000Y-128245000I0J-51000D01*
G01*
X164101000Y-128845000D01*
G75*
G02*
X164050000Y-128896000I-51000J0D01*
G01*
X162550000Y-128896000D01*
G75*
G02*
X162499000Y-128845000I0J51000D01*
G01*
G37*
G36*
G01*
X167899000Y-128845000D02*
X167899000Y-128245000D01*
G75*
G02*
X167950000Y-128194000I51000J0D01*
G01*
X169450000Y-128194000D01*
G75*
G02*
X169501000Y-128245000I0J-51000D01*
G01*
X169501000Y-128845000D01*
G75*
G02*
X169450000Y-128896000I-51000J0D01*
G01*
X167950000Y-128896000D01*
G75*
G02*
X167899000Y-128845000I0J51000D01*
G01*
G37*
G36*
G01*
X167899000Y-127575000D02*
X167899000Y-126975000D01*
G75*
G02*
X167950000Y-126924000I51000J0D01*
G01*
X169450000Y-126924000D01*
G75*
G02*
X169501000Y-126975000I0J-51000D01*
G01*
X169501000Y-127575000D01*
G75*
G02*
X169450000Y-127626000I-51000J0D01*
G01*
X167950000Y-127626000D01*
G75*
G02*
X167899000Y-127575000I0J51000D01*
G01*
G37*
G36*
G01*
X167899000Y-126305000D02*
X167899000Y-125705000D01*
G75*
G02*
X167950000Y-125654000I51000J0D01*
G01*
X169450000Y-125654000D01*
G75*
G02*
X169501000Y-125705000I0J-51000D01*
G01*
X169501000Y-126305000D01*
G75*
G02*
X169450000Y-126356000I-51000J0D01*
G01*
X167950000Y-126356000D01*
G75*
G02*
X167899000Y-126305000I0J51000D01*
G01*
G37*
G36*
G01*
X167899000Y-125035000D02*
X167899000Y-124435000D01*
G75*
G02*
X167950000Y-124384000I51000J0D01*
G01*
X169450000Y-124384000D01*
G75*
G02*
X169501000Y-124435000I0J-51000D01*
G01*
X169501000Y-125035000D01*
G75*
G02*
X169450000Y-125086000I-51000J0D01*
G01*
X167950000Y-125086000D01*
G75*
G02*
X167899000Y-125035000I0J51000D01*
G01*
G37*
G36*
G01*
X167899000Y-123765000D02*
X167899000Y-123165000D01*
G75*
G02*
X167950000Y-123114000I51000J0D01*
G01*
X169450000Y-123114000D01*
G75*
G02*
X169501000Y-123165000I0J-51000D01*
G01*
X169501000Y-123765000D01*
G75*
G02*
X169450000Y-123816000I-51000J0D01*
G01*
X167950000Y-123816000D01*
G75*
G02*
X167899000Y-123765000I0J51000D01*
G01*
G37*
G36*
G01*
X167899000Y-122495000D02*
X167899000Y-121895000D01*
G75*
G02*
X167950000Y-121844000I51000J0D01*
G01*
X169450000Y-121844000D01*
G75*
G02*
X169501000Y-121895000I0J-51000D01*
G01*
X169501000Y-122495000D01*
G75*
G02*
X169450000Y-122546000I-51000J0D01*
G01*
X167950000Y-122546000D01*
G75*
G02*
X167899000Y-122495000I0J51000D01*
G01*
G37*
G36*
G01*
X167899000Y-121225000D02*
X167899000Y-120625000D01*
G75*
G02*
X167950000Y-120574000I51000J0D01*
G01*
X169450000Y-120574000D01*
G75*
G02*
X169501000Y-120625000I0J-51000D01*
G01*
X169501000Y-121225000D01*
G75*
G02*
X169450000Y-121276000I-51000J0D01*
G01*
X167950000Y-121276000D01*
G75*
G02*
X167899000Y-121225000I0J51000D01*
G01*
G37*
G36*
G01*
X167899000Y-119955000D02*
X167899000Y-119355000D01*
G75*
G02*
X167950000Y-119304000I51000J0D01*
G01*
X169450000Y-119304000D01*
G75*
G02*
X169501000Y-119355000I0J-51000D01*
G01*
X169501000Y-119955000D01*
G75*
G02*
X169450000Y-120006000I-51000J0D01*
G01*
X167950000Y-120006000D01*
G75*
G02*
X167899000Y-119955000I0J51000D01*
G01*
G37*
D15*
X160800000Y-105260000D03*
X155720000Y-105260000D03*
X153180000Y-105260000D03*
X150640000Y-105260000D03*
X148100000Y-105260000D03*
X145560000Y-105260000D03*
X143020000Y-105260000D03*
X140480000Y-105260000D03*
X196360000Y-57000000D03*
X193820000Y-57000000D03*
X191280000Y-57000000D03*
X188740000Y-57000000D03*
X186200000Y-57000000D03*
X183660000Y-57000000D03*
X181120000Y-57000000D03*
X178580000Y-57000000D03*
X173500000Y-57000000D03*
X170960000Y-57000000D03*
X168420000Y-57000000D03*
X165880000Y-57000000D03*
X163340000Y-57000000D03*
X160800000Y-57000000D03*
X158260000Y-57000000D03*
X155720000Y-57000000D03*
X136416000Y-57000000D03*
X151656000Y-57000000D03*
X149116000Y-57000000D03*
X146576000Y-57000000D03*
X128796000Y-57000000D03*
X131336000Y-57000000D03*
X133876000Y-57000000D03*
X138956000Y-57000000D03*
X141496000Y-57000000D03*
X144036000Y-57000000D03*
X137940000Y-105260000D03*
X163340000Y-105260000D03*
X165880000Y-105260000D03*
X168420000Y-105260000D03*
X170960000Y-105260000D03*
X173500000Y-105260000D03*
X176040000Y-105260000D03*
X178580000Y-105260000D03*
X183660000Y-105260000D03*
X186200000Y-105260000D03*
X188740000Y-105260000D03*
X191280000Y-105260000D03*
X193820000Y-105260000D03*
X196360000Y-105260000D03*
X198900000Y-105260000D03*
X201440000Y-105260000D03*
X203980000Y-57000000D03*
X206520000Y-57000000D03*
X203980000Y-59540000D03*
X206520000Y-59540000D03*
X203980000Y-62080000D03*
X206520000Y-62080000D03*
X203980000Y-64620000D03*
X206520000Y-64620000D03*
X203980000Y-67160000D03*
X206520000Y-67160000D03*
X203980000Y-69700000D03*
X206520000Y-69700000D03*
X203980000Y-72240000D03*
X206520000Y-72240000D03*
X203980000Y-74780000D03*
X206520000Y-74780000D03*
X203980000Y-77320000D03*
X206520000Y-77320000D03*
X203980000Y-79860000D03*
X206520000Y-79860000D03*
X203980000Y-82400000D03*
X206520000Y-82400000D03*
X203980000Y-84940000D03*
X206520000Y-84940000D03*
X203980000Y-87480000D03*
X206520000Y-87480000D03*
X203980000Y-90020000D03*
X206520000Y-90020000D03*
X203980000Y-92560000D03*
X206520000Y-92560000D03*
X203980000Y-95100000D03*
X206520000Y-95100000D03*
X203980000Y-97640000D03*
X206520000Y-97640000D03*
X203980000Y-100180000D03*
X206520000Y-100180000D03*
G36*
G01*
X125601000Y-93475000D02*
X125601000Y-93925000D01*
G75*
G02*
X125550000Y-93976000I-51000J0D01*
G01*
X124950000Y-93976000D01*
G75*
G02*
X124899000Y-93925000I0J51000D01*
G01*
X124899000Y-93475000D01*
G75*
G02*
X124950000Y-93424000I51000J0D01*
G01*
X125550000Y-93424000D01*
G75*
G02*
X125601000Y-93475000I0J-51000D01*
G01*
G37*
G36*
G01*
X123501000Y-93475000D02*
X123501000Y-93925000D01*
G75*
G02*
X123450000Y-93976000I-51000J0D01*
G01*
X122850000Y-93976000D01*
G75*
G02*
X122799000Y-93925000I0J51000D01*
G01*
X122799000Y-93475000D01*
G75*
G02*
X122850000Y-93424000I51000J0D01*
G01*
X123450000Y-93424000D01*
G75*
G02*
X123501000Y-93475000I0J-51000D01*
G01*
G37*
G36*
G01*
X123501000Y-101275000D02*
X123501000Y-101725000D01*
G75*
G02*
X123450000Y-101776000I-51000J0D01*
G01*
X122850000Y-101776000D01*
G75*
G02*
X122799000Y-101725000I0J51000D01*
G01*
X122799000Y-101275000D01*
G75*
G02*
X122850000Y-101224000I51000J0D01*
G01*
X123450000Y-101224000D01*
G75*
G02*
X123501000Y-101275000I0J-51000D01*
G01*
G37*
G36*
G01*
X125601000Y-101275000D02*
X125601000Y-101725000D01*
G75*
G02*
X125550000Y-101776000I-51000J0D01*
G01*
X124950000Y-101776000D01*
G75*
G02*
X124899000Y-101725000I0J51000D01*
G01*
X124899000Y-101275000D01*
G75*
G02*
X124950000Y-101224000I51000J0D01*
G01*
X125550000Y-101224000D01*
G75*
G02*
X125601000Y-101275000I0J-51000D01*
G01*
G37*
G36*
G01*
X140801000Y-82975000D02*
X140801000Y-83425000D01*
G75*
G02*
X140750000Y-83476000I-51000J0D01*
G01*
X140150000Y-83476000D01*
G75*
G02*
X140099000Y-83425000I0J51000D01*
G01*
X140099000Y-82975000D01*
G75*
G02*
X140150000Y-82924000I51000J0D01*
G01*
X140750000Y-82924000D01*
G75*
G02*
X140801000Y-82975000I0J-51000D01*
G01*
G37*
G36*
G01*
X138701000Y-82975000D02*
X138701000Y-83425000D01*
G75*
G02*
X138650000Y-83476000I-51000J0D01*
G01*
X138050000Y-83476000D01*
G75*
G02*
X137999000Y-83425000I0J51000D01*
G01*
X137999000Y-82975000D01*
G75*
G02*
X138050000Y-82924000I51000J0D01*
G01*
X138650000Y-82924000D01*
G75*
G02*
X138701000Y-82975000I0J-51000D01*
G01*
G37*
G36*
G01*
X145001000Y-82975000D02*
X145001000Y-83425000D01*
G75*
G02*
X144950000Y-83476000I-51000J0D01*
G01*
X144350000Y-83476000D01*
G75*
G02*
X144299000Y-83425000I0J51000D01*
G01*
X144299000Y-82975000D01*
G75*
G02*
X144350000Y-82924000I51000J0D01*
G01*
X144950000Y-82924000D01*
G75*
G02*
X145001000Y-82975000I0J-51000D01*
G01*
G37*
G36*
G01*
X142901000Y-82975000D02*
X142901000Y-83425000D01*
G75*
G02*
X142850000Y-83476000I-51000J0D01*
G01*
X142250000Y-83476000D01*
G75*
G02*
X142199000Y-83425000I0J51000D01*
G01*
X142199000Y-82975000D01*
G75*
G02*
X142250000Y-82924000I51000J0D01*
G01*
X142850000Y-82924000D01*
G75*
G02*
X142901000Y-82975000I0J-51000D01*
G01*
G37*
G36*
G01*
X187818250Y-101899000D02*
X188781750Y-101899000D01*
G75*
G02*
X189051000Y-102168250I0J-269250D01*
G01*
X189051000Y-102706750D01*
G75*
G02*
X188781750Y-102976000I-269250J0D01*
G01*
X187818250Y-102976000D01*
G75*
G02*
X187549000Y-102706750I0J269250D01*
G01*
X187549000Y-102168250D01*
G75*
G02*
X187818250Y-101899000I269250J0D01*
G01*
G37*
G36*
G01*
X187818250Y-100024000D02*
X188781750Y-100024000D01*
G75*
G02*
X189051000Y-100293250I0J-269250D01*
G01*
X189051000Y-100831750D01*
G75*
G02*
X188781750Y-101101000I-269250J0D01*
G01*
X187818250Y-101101000D01*
G75*
G02*
X187549000Y-100831750I0J269250D01*
G01*
X187549000Y-100293250D01*
G75*
G02*
X187818250Y-100024000I269250J0D01*
G01*
G37*
G36*
G01*
X140801000Y-80975000D02*
X140801000Y-81425000D01*
G75*
G02*
X140750000Y-81476000I-51000J0D01*
G01*
X140150000Y-81476000D01*
G75*
G02*
X140099000Y-81425000I0J51000D01*
G01*
X140099000Y-80975000D01*
G75*
G02*
X140150000Y-80924000I51000J0D01*
G01*
X140750000Y-80924000D01*
G75*
G02*
X140801000Y-80975000I0J-51000D01*
G01*
G37*
G36*
G01*
X138701000Y-80975000D02*
X138701000Y-81425000D01*
G75*
G02*
X138650000Y-81476000I-51000J0D01*
G01*
X138050000Y-81476000D01*
G75*
G02*
X137999000Y-81425000I0J51000D01*
G01*
X137999000Y-80975000D01*
G75*
G02*
X138050000Y-80924000I51000J0D01*
G01*
X138650000Y-80924000D01*
G75*
G02*
X138701000Y-80975000I0J-51000D01*
G01*
G37*
G36*
G01*
X193699000Y-113381750D02*
X193699000Y-112418250D01*
G75*
G02*
X193968250Y-112149000I269250J0D01*
G01*
X194506750Y-112149000D01*
G75*
G02*
X194776000Y-112418250I0J-269250D01*
G01*
X194776000Y-113381750D01*
G75*
G02*
X194506750Y-113651000I-269250J0D01*
G01*
X193968250Y-113651000D01*
G75*
G02*
X193699000Y-113381750I0J269250D01*
G01*
G37*
G36*
G01*
X191824000Y-113381750D02*
X191824000Y-112418250D01*
G75*
G02*
X192093250Y-112149000I269250J0D01*
G01*
X192631750Y-112149000D01*
G75*
G02*
X192901000Y-112418250I0J-269250D01*
G01*
X192901000Y-113381750D01*
G75*
G02*
X192631750Y-113651000I-269250J0D01*
G01*
X192093250Y-113651000D01*
G75*
G02*
X191824000Y-113381750I0J269250D01*
G01*
G37*
G36*
G01*
X174274000Y-100578828D02*
X174274000Y-99621172D01*
G75*
G02*
X174546172Y-99349000I272172J0D01*
G01*
X175253828Y-99349000D01*
G75*
G02*
X175526000Y-99621172I0J-272172D01*
G01*
X175526000Y-100578828D01*
G75*
G02*
X175253828Y-100851000I-272172J0D01*
G01*
X174546172Y-100851000D01*
G75*
G02*
X174274000Y-100578828I0J272172D01*
G01*
G37*
G36*
G01*
X176324000Y-100578828D02*
X176324000Y-99621172D01*
G75*
G02*
X176596172Y-99349000I272172J0D01*
G01*
X177303828Y-99349000D01*
G75*
G02*
X177576000Y-99621172I0J-272172D01*
G01*
X177576000Y-100578828D01*
G75*
G02*
X177303828Y-100851000I-272172J0D01*
G01*
X176596172Y-100851000D01*
G75*
G02*
X176324000Y-100578828I0J272172D01*
G01*
G37*
G36*
G01*
X187818250Y-108424000D02*
X188781750Y-108424000D01*
G75*
G02*
X189051000Y-108693250I0J-269250D01*
G01*
X189051000Y-109231750D01*
G75*
G02*
X188781750Y-109501000I-269250J0D01*
G01*
X187818250Y-109501000D01*
G75*
G02*
X187549000Y-109231750I0J269250D01*
G01*
X187549000Y-108693250D01*
G75*
G02*
X187818250Y-108424000I269250J0D01*
G01*
G37*
G36*
G01*
X187818250Y-110299000D02*
X188781750Y-110299000D01*
G75*
G02*
X189051000Y-110568250I0J-269250D01*
G01*
X189051000Y-111106750D01*
G75*
G02*
X188781750Y-111376000I-269250J0D01*
G01*
X187818250Y-111376000D01*
G75*
G02*
X187549000Y-111106750I0J269250D01*
G01*
X187549000Y-110568250D01*
G75*
G02*
X187818250Y-110299000I269250J0D01*
G01*
G37*
G36*
G01*
X185718250Y-108424000D02*
X186681750Y-108424000D01*
G75*
G02*
X186951000Y-108693250I0J-269250D01*
G01*
X186951000Y-109231750D01*
G75*
G02*
X186681750Y-109501000I-269250J0D01*
G01*
X185718250Y-109501000D01*
G75*
G02*
X185449000Y-109231750I0J269250D01*
G01*
X185449000Y-108693250D01*
G75*
G02*
X185718250Y-108424000I269250J0D01*
G01*
G37*
G36*
G01*
X185718250Y-110299000D02*
X186681750Y-110299000D01*
G75*
G02*
X186951000Y-110568250I0J-269250D01*
G01*
X186951000Y-111106750D01*
G75*
G02*
X186681750Y-111376000I-269250J0D01*
G01*
X185718250Y-111376000D01*
G75*
G02*
X185449000Y-111106750I0J269250D01*
G01*
X185449000Y-110568250D01*
G75*
G02*
X185718250Y-110299000I269250J0D01*
G01*
G37*
G36*
G01*
X146976000Y-98718250D02*
X146976000Y-99681750D01*
G75*
G02*
X146706750Y-99951000I-269250J0D01*
G01*
X146168250Y-99951000D01*
G75*
G02*
X145899000Y-99681750I0J269250D01*
G01*
X145899000Y-98718250D01*
G75*
G02*
X146168250Y-98449000I269250J0D01*
G01*
X146706750Y-98449000D01*
G75*
G02*
X146976000Y-98718250I0J-269250D01*
G01*
G37*
G36*
G01*
X145101000Y-98718250D02*
X145101000Y-99681750D01*
G75*
G02*
X144831750Y-99951000I-269250J0D01*
G01*
X144293250Y-99951000D01*
G75*
G02*
X144024000Y-99681750I0J269250D01*
G01*
X144024000Y-98718250D01*
G75*
G02*
X144293250Y-98449000I269250J0D01*
G01*
X144831750Y-98449000D01*
G75*
G02*
X145101000Y-98718250I0J-269250D01*
G01*
G37*
G36*
G01*
X145101000Y-96218250D02*
X145101000Y-97181750D01*
G75*
G02*
X144831750Y-97451000I-269250J0D01*
G01*
X144293250Y-97451000D01*
G75*
G02*
X144024000Y-97181750I0J269250D01*
G01*
X144024000Y-96218250D01*
G75*
G02*
X144293250Y-95949000I269250J0D01*
G01*
X144831750Y-95949000D01*
G75*
G02*
X145101000Y-96218250I0J-269250D01*
G01*
G37*
G36*
G01*
X146976000Y-96218250D02*
X146976000Y-97181750D01*
G75*
G02*
X146706750Y-97451000I-269250J0D01*
G01*
X146168250Y-97451000D01*
G75*
G02*
X145899000Y-97181750I0J269250D01*
G01*
X145899000Y-96218250D01*
G75*
G02*
X146168250Y-95949000I269250J0D01*
G01*
X146706750Y-95949000D01*
G75*
G02*
X146976000Y-96218250I0J-269250D01*
G01*
G37*
G36*
G01*
X125601000Y-91275000D02*
X125601000Y-91725000D01*
G75*
G02*
X125550000Y-91776000I-51000J0D01*
G01*
X124950000Y-91776000D01*
G75*
G02*
X124899000Y-91725000I0J51000D01*
G01*
X124899000Y-91275000D01*
G75*
G02*
X124950000Y-91224000I51000J0D01*
G01*
X125550000Y-91224000D01*
G75*
G02*
X125601000Y-91275000I0J-51000D01*
G01*
G37*
G36*
G01*
X123501000Y-91275000D02*
X123501000Y-91725000D01*
G75*
G02*
X123450000Y-91776000I-51000J0D01*
G01*
X122850000Y-91776000D01*
G75*
G02*
X122799000Y-91725000I0J51000D01*
G01*
X122799000Y-91275000D01*
G75*
G02*
X122850000Y-91224000I51000J0D01*
G01*
X123450000Y-91224000D01*
G75*
G02*
X123501000Y-91275000I0J-51000D01*
G01*
G37*
G36*
G01*
X193301000Y-108775000D02*
X193301000Y-109225000D01*
G75*
G02*
X193250000Y-109276000I-51000J0D01*
G01*
X192650000Y-109276000D01*
G75*
G02*
X192599000Y-109225000I0J51000D01*
G01*
X192599000Y-108775000D01*
G75*
G02*
X192650000Y-108724000I51000J0D01*
G01*
X193250000Y-108724000D01*
G75*
G02*
X193301000Y-108775000I0J-51000D01*
G01*
G37*
G36*
G01*
X191201000Y-108775000D02*
X191201000Y-109225000D01*
G75*
G02*
X191150000Y-109276000I-51000J0D01*
G01*
X190550000Y-109276000D01*
G75*
G02*
X190499000Y-109225000I0J51000D01*
G01*
X190499000Y-108775000D01*
G75*
G02*
X190550000Y-108724000I51000J0D01*
G01*
X191150000Y-108724000D01*
G75*
G02*
X191201000Y-108775000I0J-51000D01*
G01*
G37*
G36*
G01*
X187276000Y-116318250D02*
X187276000Y-117281750D01*
G75*
G02*
X187006750Y-117551000I-269250J0D01*
G01*
X186468250Y-117551000D01*
G75*
G02*
X186199000Y-117281750I0J269250D01*
G01*
X186199000Y-116318250D01*
G75*
G02*
X186468250Y-116049000I269250J0D01*
G01*
X187006750Y-116049000D01*
G75*
G02*
X187276000Y-116318250I0J-269250D01*
G01*
G37*
G36*
G01*
X185401000Y-116318250D02*
X185401000Y-117281750D01*
G75*
G02*
X185131750Y-117551000I-269250J0D01*
G01*
X184593250Y-117551000D01*
G75*
G02*
X184324000Y-117281750I0J269250D01*
G01*
X184324000Y-116318250D01*
G75*
G02*
X184593250Y-116049000I269250J0D01*
G01*
X185131750Y-116049000D01*
G75*
G02*
X185401000Y-116318250I0J-269250D01*
G01*
G37*
G36*
G01*
X187276000Y-124618250D02*
X187276000Y-125581750D01*
G75*
G02*
X187006750Y-125851000I-269250J0D01*
G01*
X186468250Y-125851000D01*
G75*
G02*
X186199000Y-125581750I0J269250D01*
G01*
X186199000Y-124618250D01*
G75*
G02*
X186468250Y-124349000I269250J0D01*
G01*
X187006750Y-124349000D01*
G75*
G02*
X187276000Y-124618250I0J-269250D01*
G01*
G37*
G36*
G01*
X185401000Y-124618250D02*
X185401000Y-125581750D01*
G75*
G02*
X185131750Y-125851000I-269250J0D01*
G01*
X184593250Y-125851000D01*
G75*
G02*
X184324000Y-125581750I0J269250D01*
G01*
X184324000Y-124618250D01*
G75*
G02*
X184593250Y-124349000I269250J0D01*
G01*
X185131750Y-124349000D01*
G75*
G02*
X185401000Y-124618250I0J-269250D01*
G01*
G37*
G36*
G01*
X167424000Y-100581750D02*
X167424000Y-99618250D01*
G75*
G02*
X167693250Y-99349000I269250J0D01*
G01*
X168231750Y-99349000D01*
G75*
G02*
X168501000Y-99618250I0J-269250D01*
G01*
X168501000Y-100581750D01*
G75*
G02*
X168231750Y-100851000I-269250J0D01*
G01*
X167693250Y-100851000D01*
G75*
G02*
X167424000Y-100581750I0J269250D01*
G01*
G37*
G36*
G01*
X169299000Y-100581750D02*
X169299000Y-99618250D01*
G75*
G02*
X169568250Y-99349000I269250J0D01*
G01*
X170106750Y-99349000D01*
G75*
G02*
X170376000Y-99618250I0J-269250D01*
G01*
X170376000Y-100581750D01*
G75*
G02*
X170106750Y-100851000I-269250J0D01*
G01*
X169568250Y-100851000D01*
G75*
G02*
X169299000Y-100581750I0J269250D01*
G01*
G37*
G36*
G01*
X171938500Y-99618250D02*
X171938500Y-100581750D01*
G75*
G02*
X171669250Y-100851000I-269250J0D01*
G01*
X171130750Y-100851000D01*
G75*
G02*
X170861500Y-100581750I0J269250D01*
G01*
X170861500Y-99618250D01*
G75*
G02*
X171130750Y-99349000I269250J0D01*
G01*
X171669250Y-99349000D01*
G75*
G02*
X171938500Y-99618250I0J-269250D01*
G01*
G37*
G36*
G01*
X173813500Y-99618250D02*
X173813500Y-100581750D01*
G75*
G02*
X173544250Y-100851000I-269250J0D01*
G01*
X173005750Y-100851000D01*
G75*
G02*
X172736500Y-100581750I0J269250D01*
G01*
X172736500Y-99618250D01*
G75*
G02*
X173005750Y-99349000I269250J0D01*
G01*
X173544250Y-99349000D01*
G75*
G02*
X173813500Y-99618250I0J-269250D01*
G01*
G37*
G36*
G01*
X186681750Y-101101000D02*
X185718250Y-101101000D01*
G75*
G02*
X185449000Y-100831750I0J269250D01*
G01*
X185449000Y-100293250D01*
G75*
G02*
X185718250Y-100024000I269250J0D01*
G01*
X186681750Y-100024000D01*
G75*
G02*
X186951000Y-100293250I0J-269250D01*
G01*
X186951000Y-100831750D01*
G75*
G02*
X186681750Y-101101000I-269250J0D01*
G01*
G37*
G36*
G01*
X186681750Y-102976000D02*
X185718250Y-102976000D01*
G75*
G02*
X185449000Y-102706750I0J269250D01*
G01*
X185449000Y-102168250D01*
G75*
G02*
X185718250Y-101899000I269250J0D01*
G01*
X186681750Y-101899000D01*
G75*
G02*
X186951000Y-102168250I0J-269250D01*
G01*
X186951000Y-102706750D01*
G75*
G02*
X186681750Y-102976000I-269250J0D01*
G01*
G37*
G36*
G01*
X150426000Y-92405000D02*
X150426000Y-93005000D01*
G75*
G02*
X150375000Y-93056000I-51000J0D01*
G01*
X148825000Y-93056000D01*
G75*
G02*
X148774000Y-93005000I0J51000D01*
G01*
X148774000Y-92405000D01*
G75*
G02*
X148825000Y-92354000I51000J0D01*
G01*
X150375000Y-92354000D01*
G75*
G02*
X150426000Y-92405000I0J-51000D01*
G01*
G37*
G36*
G01*
X150426000Y-91135000D02*
X150426000Y-91735000D01*
G75*
G02*
X150375000Y-91786000I-51000J0D01*
G01*
X148825000Y-91786000D01*
G75*
G02*
X148774000Y-91735000I0J51000D01*
G01*
X148774000Y-91135000D01*
G75*
G02*
X148825000Y-91084000I51000J0D01*
G01*
X150375000Y-91084000D01*
G75*
G02*
X150426000Y-91135000I0J-51000D01*
G01*
G37*
G36*
G01*
X150426000Y-89865000D02*
X150426000Y-90465000D01*
G75*
G02*
X150375000Y-90516000I-51000J0D01*
G01*
X148825000Y-90516000D01*
G75*
G02*
X148774000Y-90465000I0J51000D01*
G01*
X148774000Y-89865000D01*
G75*
G02*
X148825000Y-89814000I51000J0D01*
G01*
X150375000Y-89814000D01*
G75*
G02*
X150426000Y-89865000I0J-51000D01*
G01*
G37*
G36*
G01*
X150426000Y-88595000D02*
X150426000Y-89195000D01*
G75*
G02*
X150375000Y-89246000I-51000J0D01*
G01*
X148825000Y-89246000D01*
G75*
G02*
X148774000Y-89195000I0J51000D01*
G01*
X148774000Y-88595000D01*
G75*
G02*
X148825000Y-88544000I51000J0D01*
G01*
X150375000Y-88544000D01*
G75*
G02*
X150426000Y-88595000I0J-51000D01*
G01*
G37*
G36*
G01*
X155826000Y-88595000D02*
X155826000Y-89195000D01*
G75*
G02*
X155775000Y-89246000I-51000J0D01*
G01*
X154225000Y-89246000D01*
G75*
G02*
X154174000Y-89195000I0J51000D01*
G01*
X154174000Y-88595000D01*
G75*
G02*
X154225000Y-88544000I51000J0D01*
G01*
X155775000Y-88544000D01*
G75*
G02*
X155826000Y-88595000I0J-51000D01*
G01*
G37*
G36*
G01*
X155826000Y-89865000D02*
X155826000Y-90465000D01*
G75*
G02*
X155775000Y-90516000I-51000J0D01*
G01*
X154225000Y-90516000D01*
G75*
G02*
X154174000Y-90465000I0J51000D01*
G01*
X154174000Y-89865000D01*
G75*
G02*
X154225000Y-89814000I51000J0D01*
G01*
X155775000Y-89814000D01*
G75*
G02*
X155826000Y-89865000I0J-51000D01*
G01*
G37*
G36*
G01*
X155826000Y-91135000D02*
X155826000Y-91735000D01*
G75*
G02*
X155775000Y-91786000I-51000J0D01*
G01*
X154225000Y-91786000D01*
G75*
G02*
X154174000Y-91735000I0J51000D01*
G01*
X154174000Y-91135000D01*
G75*
G02*
X154225000Y-91084000I51000J0D01*
G01*
X155775000Y-91084000D01*
G75*
G02*
X155826000Y-91135000I0J-51000D01*
G01*
G37*
G36*
G01*
X155826000Y-92405000D02*
X155826000Y-93005000D01*
G75*
G02*
X155775000Y-93056000I-51000J0D01*
G01*
X154225000Y-93056000D01*
G75*
G02*
X154174000Y-93005000I0J51000D01*
G01*
X154174000Y-92405000D01*
G75*
G02*
X154225000Y-92354000I51000J0D01*
G01*
X155775000Y-92354000D01*
G75*
G02*
X155826000Y-92405000I0J-51000D01*
G01*
G37*
G36*
G01*
X155826000Y-100905000D02*
X155826000Y-101505000D01*
G75*
G02*
X155775000Y-101556000I-51000J0D01*
G01*
X154225000Y-101556000D01*
G75*
G02*
X154174000Y-101505000I0J51000D01*
G01*
X154174000Y-100905000D01*
G75*
G02*
X154225000Y-100854000I51000J0D01*
G01*
X155775000Y-100854000D01*
G75*
G02*
X155826000Y-100905000I0J-51000D01*
G01*
G37*
G36*
G01*
X155826000Y-99635000D02*
X155826000Y-100235000D01*
G75*
G02*
X155775000Y-100286000I-51000J0D01*
G01*
X154225000Y-100286000D01*
G75*
G02*
X154174000Y-100235000I0J51000D01*
G01*
X154174000Y-99635000D01*
G75*
G02*
X154225000Y-99584000I51000J0D01*
G01*
X155775000Y-99584000D01*
G75*
G02*
X155826000Y-99635000I0J-51000D01*
G01*
G37*
G36*
G01*
X155826000Y-98365000D02*
X155826000Y-98965000D01*
G75*
G02*
X155775000Y-99016000I-51000J0D01*
G01*
X154225000Y-99016000D01*
G75*
G02*
X154174000Y-98965000I0J51000D01*
G01*
X154174000Y-98365000D01*
G75*
G02*
X154225000Y-98314000I51000J0D01*
G01*
X155775000Y-98314000D01*
G75*
G02*
X155826000Y-98365000I0J-51000D01*
G01*
G37*
G36*
G01*
X155826000Y-97095000D02*
X155826000Y-97695000D01*
G75*
G02*
X155775000Y-97746000I-51000J0D01*
G01*
X154225000Y-97746000D01*
G75*
G02*
X154174000Y-97695000I0J51000D01*
G01*
X154174000Y-97095000D01*
G75*
G02*
X154225000Y-97044000I51000J0D01*
G01*
X155775000Y-97044000D01*
G75*
G02*
X155826000Y-97095000I0J-51000D01*
G01*
G37*
G36*
G01*
X150426000Y-97095000D02*
X150426000Y-97695000D01*
G75*
G02*
X150375000Y-97746000I-51000J0D01*
G01*
X148825000Y-97746000D01*
G75*
G02*
X148774000Y-97695000I0J51000D01*
G01*
X148774000Y-97095000D01*
G75*
G02*
X148825000Y-97044000I51000J0D01*
G01*
X150375000Y-97044000D01*
G75*
G02*
X150426000Y-97095000I0J-51000D01*
G01*
G37*
G36*
G01*
X150426000Y-98365000D02*
X150426000Y-98965000D01*
G75*
G02*
X150375000Y-99016000I-51000J0D01*
G01*
X148825000Y-99016000D01*
G75*
G02*
X148774000Y-98965000I0J51000D01*
G01*
X148774000Y-98365000D01*
G75*
G02*
X148825000Y-98314000I51000J0D01*
G01*
X150375000Y-98314000D01*
G75*
G02*
X150426000Y-98365000I0J-51000D01*
G01*
G37*
G36*
G01*
X150426000Y-99635000D02*
X150426000Y-100235000D01*
G75*
G02*
X150375000Y-100286000I-51000J0D01*
G01*
X148825000Y-100286000D01*
G75*
G02*
X148774000Y-100235000I0J51000D01*
G01*
X148774000Y-99635000D01*
G75*
G02*
X148825000Y-99584000I51000J0D01*
G01*
X150375000Y-99584000D01*
G75*
G02*
X150426000Y-99635000I0J-51000D01*
G01*
G37*
G36*
G01*
X150426000Y-100905000D02*
X150426000Y-101505000D01*
G75*
G02*
X150375000Y-101556000I-51000J0D01*
G01*
X148825000Y-101556000D01*
G75*
G02*
X148774000Y-101505000I0J51000D01*
G01*
X148774000Y-100905000D01*
G75*
G02*
X148825000Y-100854000I51000J0D01*
G01*
X150375000Y-100854000D01*
G75*
G02*
X150426000Y-100905000I0J-51000D01*
G01*
G37*
G36*
G01*
X129585400Y-80603600D02*
X129585400Y-78876400D01*
G75*
G02*
X129636400Y-78825400I51000J0D01*
G01*
X131363600Y-78825400D01*
G75*
G02*
X131414600Y-78876400I0J-51000D01*
G01*
X131414600Y-80603600D01*
G75*
G02*
X131363600Y-80654600I-51000J0D01*
G01*
X129636400Y-80654600D01*
G75*
G02*
X129585400Y-80603600I0J51000D01*
G01*
G37*
X133040000Y-79740000D03*
X130500000Y-82280000D03*
X133040000Y-82280000D03*
X130500000Y-84820000D03*
X133040000Y-84820000D03*
X130500000Y-87360000D03*
X133040000Y-87360000D03*
X130500000Y-89900000D03*
X133040000Y-89900000D03*
X130500000Y-92440000D03*
X133040000Y-92440000D03*
X130500000Y-94980000D03*
X133040000Y-94980000D03*
X130500000Y-97520000D03*
X133040000Y-97520000D03*
X130500000Y-100060000D03*
X133040000Y-100060000D03*
X130500000Y-102600000D03*
X133040000Y-102600000D03*
X130500000Y-105140000D03*
X133040000Y-105140000D03*
X130500000Y-107680000D03*
X133040000Y-107680000D03*
X130500000Y-110220000D03*
X133040000Y-110220000D03*
X130500000Y-112760000D03*
X133040000Y-112760000D03*
X130500000Y-115300000D03*
X133040000Y-115300000D03*
X130500000Y-117840000D03*
X133040000Y-117840000D03*
X130500000Y-120380000D03*
X133040000Y-120380000D03*
X130500000Y-122920000D03*
X133040000Y-122920000D03*
X130500000Y-125460000D03*
X133040000Y-125460000D03*
X130500000Y-128000000D03*
X133040000Y-128000000D03*
G36*
G01*
X183199000Y-49650000D02*
X183199000Y-47850000D01*
G75*
G02*
X183250000Y-47799000I51000J0D01*
G01*
X185750000Y-47799000D01*
G75*
G02*
X185801000Y-47850000I0J-51000D01*
G01*
X185801000Y-49650000D01*
G75*
G02*
X185750000Y-49701000I-51000J0D01*
G01*
X183250000Y-49701000D01*
G75*
G02*
X183199000Y-49650000I0J51000D01*
G01*
G37*
G36*
G01*
X187199000Y-49650000D02*
X187199000Y-47850000D01*
G75*
G02*
X187250000Y-47799000I51000J0D01*
G01*
X189750000Y-47799000D01*
G75*
G02*
X189801000Y-47850000I0J-51000D01*
G01*
X189801000Y-49650000D01*
G75*
G02*
X189750000Y-49701000I-51000J0D01*
G01*
X187250000Y-49701000D01*
G75*
G02*
X187199000Y-49650000I0J51000D01*
G01*
G37*
G36*
G01*
X174851000Y-96250000D02*
X174851000Y-97400000D01*
G75*
G02*
X174800000Y-97451000I-51000J0D01*
G01*
X173800000Y-97451000D01*
G75*
G02*
X173749000Y-97400000I0J51000D01*
G01*
X173749000Y-96250000D01*
G75*
G02*
X173800000Y-96199000I51000J0D01*
G01*
X174800000Y-96199000D01*
G75*
G02*
X174851000Y-96250000I0J-51000D01*
G01*
G37*
G36*
G01*
X172351000Y-96250000D02*
X172351000Y-97400000D01*
G75*
G02*
X172300000Y-97451000I-51000J0D01*
G01*
X171300000Y-97451000D01*
G75*
G02*
X171249000Y-97400000I0J51000D01*
G01*
X171249000Y-96250000D01*
G75*
G02*
X171300000Y-96199000I51000J0D01*
G01*
X172300000Y-96199000D01*
G75*
G02*
X172351000Y-96250000I0J-51000D01*
G01*
G37*
G36*
G01*
X169851000Y-96250000D02*
X169851000Y-97400000D01*
G75*
G02*
X169800000Y-97451000I-51000J0D01*
G01*
X168800000Y-97451000D01*
G75*
G02*
X168749000Y-97400000I0J51000D01*
G01*
X168749000Y-96250000D01*
G75*
G02*
X168800000Y-96199000I51000J0D01*
G01*
X169800000Y-96199000D01*
G75*
G02*
X169851000Y-96250000I0J-51000D01*
G01*
G37*
G36*
G01*
X174851000Y-90600000D02*
X174851000Y-91750000D01*
G75*
G02*
X174800000Y-91801000I-51000J0D01*
G01*
X173800000Y-91801000D01*
G75*
G02*
X173749000Y-91750000I0J51000D01*
G01*
X173749000Y-90600000D01*
G75*
G02*
X173800000Y-90549000I51000J0D01*
G01*
X174800000Y-90549000D01*
G75*
G02*
X174851000Y-90600000I0J-51000D01*
G01*
G37*
G36*
G01*
X172351000Y-90600000D02*
X172351000Y-91750000D01*
G75*
G02*
X172300000Y-91801000I-51000J0D01*
G01*
X171300000Y-91801000D01*
G75*
G02*
X171249000Y-91750000I0J51000D01*
G01*
X171249000Y-90600000D01*
G75*
G02*
X171300000Y-90549000I51000J0D01*
G01*
X172300000Y-90549000D01*
G75*
G02*
X172351000Y-90600000I0J-51000D01*
G01*
G37*
G36*
G01*
X169851000Y-90600000D02*
X169851000Y-91750000D01*
G75*
G02*
X169800000Y-91801000I-51000J0D01*
G01*
X168800000Y-91801000D01*
G75*
G02*
X168749000Y-91750000I0J51000D01*
G01*
X168749000Y-90600000D01*
G75*
G02*
X168800000Y-90549000I51000J0D01*
G01*
X169800000Y-90549000D01*
G75*
G02*
X169851000Y-90600000I0J-51000D01*
G01*
G37*
D16*
X173300000Y-94000000D03*
X170300000Y-94000000D03*
G36*
G01*
X182126000Y-48740000D02*
X182126000Y-49840000D01*
G75*
G02*
X182075000Y-49891000I-51000J0D01*
G01*
X177475000Y-49891000D01*
G75*
G02*
X177424000Y-49840000I0J51000D01*
G01*
X177424000Y-48740000D01*
G75*
G02*
X177475000Y-48689000I51000J0D01*
G01*
X182075000Y-48689000D01*
G75*
G02*
X182126000Y-48740000I0J-51000D01*
G01*
G37*
G36*
G01*
X182126000Y-46200000D02*
X182126000Y-47300000D01*
G75*
G02*
X182075000Y-47351000I-51000J0D01*
G01*
X177475000Y-47351000D01*
G75*
G02*
X177424000Y-47300000I0J51000D01*
G01*
X177424000Y-46200000D01*
G75*
G02*
X177475000Y-46149000I51000J0D01*
G01*
X182075000Y-46149000D01*
G75*
G02*
X182126000Y-46200000I0J-51000D01*
G01*
G37*
G36*
G01*
X182126000Y-43660000D02*
X182126000Y-44760000D01*
G75*
G02*
X182075000Y-44811000I-51000J0D01*
G01*
X177475000Y-44811000D01*
G75*
G02*
X177424000Y-44760000I0J51000D01*
G01*
X177424000Y-43660000D01*
G75*
G02*
X177475000Y-43609000I51000J0D01*
G01*
X182075000Y-43609000D01*
G75*
G02*
X182126000Y-43660000I0J-51000D01*
G01*
G37*
G36*
G01*
X175376000Y-41350000D02*
X175376000Y-52150000D01*
G75*
G02*
X175325000Y-52201000I-51000J0D01*
G01*
X165925000Y-52201000D01*
G75*
G02*
X165874000Y-52150000I0J51000D01*
G01*
X165874000Y-41350000D01*
G75*
G02*
X165925000Y-41299000I51000J0D01*
G01*
X175325000Y-41299000D01*
G75*
G02*
X175376000Y-41350000I0J-51000D01*
G01*
G37*
G36*
G01*
X130700000Y-65251000D02*
X129100000Y-65251000D01*
G75*
G02*
X129049000Y-65200000I0J51000D01*
G01*
X129049000Y-63600000D01*
G75*
G02*
X129100000Y-63549000I51000J0D01*
G01*
X130700000Y-63549000D01*
G75*
G02*
X130751000Y-63600000I0J-51000D01*
G01*
X130751000Y-65200000D01*
G75*
G02*
X130700000Y-65251000I-51000J0D01*
G01*
G37*
D17*
X147680000Y-51700000D03*
X132440000Y-64400000D03*
X145140000Y-51700000D03*
X134980000Y-64400000D03*
X142600000Y-51700000D03*
X137520000Y-64400000D03*
X140060000Y-51700000D03*
X140060000Y-64400000D03*
X137520000Y-51700000D03*
X142600000Y-64400000D03*
X134980000Y-51700000D03*
G36*
G01*
X145940000Y-65251000D02*
X144340000Y-65251000D01*
G75*
G02*
X144289000Y-65200000I0J51000D01*
G01*
X144289000Y-63600000D01*
G75*
G02*
X144340000Y-63549000I51000J0D01*
G01*
X145940000Y-63549000D01*
G75*
G02*
X145991000Y-63600000I0J-51000D01*
G01*
X145991000Y-65200000D01*
G75*
G02*
X145940000Y-65251000I-51000J0D01*
G01*
G37*
X132440000Y-51700000D03*
X147680000Y-64400000D03*
X129900000Y-51700000D03*
G36*
G01*
X150699000Y-95981750D02*
X150699000Y-95018250D01*
G75*
G02*
X150968250Y-94749000I269250J0D01*
G01*
X151506750Y-94749000D01*
G75*
G02*
X151776000Y-95018250I0J-269250D01*
G01*
X151776000Y-95981750D01*
G75*
G02*
X151506750Y-96251000I-269250J0D01*
G01*
X150968250Y-96251000D01*
G75*
G02*
X150699000Y-95981750I0J269250D01*
G01*
G37*
G36*
G01*
X148824000Y-95981750D02*
X148824000Y-95018250D01*
G75*
G02*
X149093250Y-94749000I269250J0D01*
G01*
X149631750Y-94749000D01*
G75*
G02*
X149901000Y-95018250I0J-269250D01*
G01*
X149901000Y-95981750D01*
G75*
G02*
X149631750Y-96251000I-269250J0D01*
G01*
X149093250Y-96251000D01*
G75*
G02*
X148824000Y-95981750I0J269250D01*
G01*
G37*
G36*
G01*
X155276000Y-95018250D02*
X155276000Y-95981750D01*
G75*
G02*
X155006750Y-96251000I-269250J0D01*
G01*
X154468250Y-96251000D01*
G75*
G02*
X154199000Y-95981750I0J269250D01*
G01*
X154199000Y-95018250D01*
G75*
G02*
X154468250Y-94749000I269250J0D01*
G01*
X155006750Y-94749000D01*
G75*
G02*
X155276000Y-95018250I0J-269250D01*
G01*
G37*
G36*
G01*
X153401000Y-95018250D02*
X153401000Y-95981750D01*
G75*
G02*
X153131750Y-96251000I-269250J0D01*
G01*
X152593250Y-96251000D01*
G75*
G02*
X152324000Y-95981750I0J269250D01*
G01*
X152324000Y-95018250D01*
G75*
G02*
X152593250Y-94749000I269250J0D01*
G01*
X153131750Y-94749000D01*
G75*
G02*
X153401000Y-95018250I0J-269250D01*
G01*
G37*
G36*
G01*
X150699000Y-87481750D02*
X150699000Y-86518250D01*
G75*
G02*
X150968250Y-86249000I269250J0D01*
G01*
X151506750Y-86249000D01*
G75*
G02*
X151776000Y-86518250I0J-269250D01*
G01*
X151776000Y-87481750D01*
G75*
G02*
X151506750Y-87751000I-269250J0D01*
G01*
X150968250Y-87751000D01*
G75*
G02*
X150699000Y-87481750I0J269250D01*
G01*
G37*
G36*
G01*
X148824000Y-87481750D02*
X148824000Y-86518250D01*
G75*
G02*
X149093250Y-86249000I269250J0D01*
G01*
X149631750Y-86249000D01*
G75*
G02*
X149901000Y-86518250I0J-269250D01*
G01*
X149901000Y-87481750D01*
G75*
G02*
X149631750Y-87751000I-269250J0D01*
G01*
X149093250Y-87751000D01*
G75*
G02*
X148824000Y-87481750I0J269250D01*
G01*
G37*
G36*
G01*
X155276000Y-86518250D02*
X155276000Y-87481750D01*
G75*
G02*
X155006750Y-87751000I-269250J0D01*
G01*
X154468250Y-87751000D01*
G75*
G02*
X154199000Y-87481750I0J269250D01*
G01*
X154199000Y-86518250D01*
G75*
G02*
X154468250Y-86249000I269250J0D01*
G01*
X155006750Y-86249000D01*
G75*
G02*
X155276000Y-86518250I0J-269250D01*
G01*
G37*
G36*
G01*
X153401000Y-86518250D02*
X153401000Y-87481750D01*
G75*
G02*
X153131750Y-87751000I-269250J0D01*
G01*
X152593250Y-87751000D01*
G75*
G02*
X152324000Y-87481750I0J269250D01*
G01*
X152324000Y-86518250D01*
G75*
G02*
X152593250Y-86249000I269250J0D01*
G01*
X153131750Y-86249000D01*
G75*
G02*
X153401000Y-86518250I0J-269250D01*
G01*
G37*
G36*
G01*
X145001000Y-80975000D02*
X145001000Y-81425000D01*
G75*
G02*
X144950000Y-81476000I-51000J0D01*
G01*
X144350000Y-81476000D01*
G75*
G02*
X144299000Y-81425000I0J51000D01*
G01*
X144299000Y-80975000D01*
G75*
G02*
X144350000Y-80924000I51000J0D01*
G01*
X144950000Y-80924000D01*
G75*
G02*
X145001000Y-80975000I0J-51000D01*
G01*
G37*
G36*
G01*
X142901000Y-80975000D02*
X142901000Y-81425000D01*
G75*
G02*
X142850000Y-81476000I-51000J0D01*
G01*
X142250000Y-81476000D01*
G75*
G02*
X142199000Y-81425000I0J51000D01*
G01*
X142199000Y-80975000D01*
G75*
G02*
X142250000Y-80924000I51000J0D01*
G01*
X142850000Y-80924000D01*
G75*
G02*
X142901000Y-80975000I0J-51000D01*
G01*
G37*
G36*
G01*
X193800000Y-124351000D02*
X192200000Y-124351000D01*
G75*
G02*
X192149000Y-124300000I0J51000D01*
G01*
X192149000Y-122700000D01*
G75*
G02*
X192200000Y-122649000I51000J0D01*
G01*
X193800000Y-122649000D01*
G75*
G02*
X193851000Y-122700000I0J-51000D01*
G01*
X193851000Y-124300000D01*
G75*
G02*
X193800000Y-124351000I-51000J0D01*
G01*
G37*
X200620000Y-115880000D03*
X195540000Y-123500000D03*
X198080000Y-115880000D03*
X198080000Y-123500000D03*
X195540000Y-115880000D03*
X200620000Y-123500000D03*
X193000000Y-115880000D03*
D18*
X205000000Y-49000000D03*
G36*
G01*
X206300000Y-45351000D02*
X203700000Y-45351000D01*
G75*
G02*
X203649000Y-45300000I0J51000D01*
G01*
X203649000Y-42700000D01*
G75*
G02*
X203700000Y-42649000I51000J0D01*
G01*
X206300000Y-42649000D01*
G75*
G02*
X206351000Y-42700000I0J-51000D01*
G01*
X206351000Y-45300000D01*
G75*
G02*
X206300000Y-45351000I-51000J0D01*
G01*
G37*
G36*
G01*
X199156000Y-67850000D02*
X199156000Y-69550000D01*
G75*
G02*
X199105000Y-69601000I-51000J0D01*
G01*
X197405000Y-69601000D01*
G75*
G02*
X197354000Y-69550000I0J51000D01*
G01*
X197354000Y-67850000D01*
G75*
G02*
X197405000Y-67799000I51000J0D01*
G01*
X199105000Y-67799000D01*
G75*
G02*
X199156000Y-67850000I0J-51000D01*
G01*
G37*
D11*
X198255000Y-66160000D03*
X198255000Y-63620000D03*
X198255000Y-61080000D03*
G36*
G01*
X153650000Y-108799000D02*
X154450000Y-108799000D01*
G75*
G02*
X154501000Y-108850000I0J-51000D01*
G01*
X154501000Y-109750000D01*
G75*
G02*
X154450000Y-109801000I-51000J0D01*
G01*
X153650000Y-109801000D01*
G75*
G02*
X153599000Y-109750000I0J51000D01*
G01*
X153599000Y-108850000D01*
G75*
G02*
X153650000Y-108799000I51000J0D01*
G01*
G37*
G36*
G01*
X151750000Y-108799000D02*
X152550000Y-108799000D01*
G75*
G02*
X152601000Y-108850000I0J-51000D01*
G01*
X152601000Y-109750000D01*
G75*
G02*
X152550000Y-109801000I-51000J0D01*
G01*
X151750000Y-109801000D01*
G75*
G02*
X151699000Y-109750000I0J51000D01*
G01*
X151699000Y-108850000D01*
G75*
G02*
X151750000Y-108799000I51000J0D01*
G01*
G37*
G36*
G01*
X152700000Y-110799000D02*
X153500000Y-110799000D01*
G75*
G02*
X153551000Y-110850000I0J-51000D01*
G01*
X153551000Y-111750000D01*
G75*
G02*
X153500000Y-111801000I-51000J0D01*
G01*
X152700000Y-111801000D01*
G75*
G02*
X152649000Y-111750000I0J51000D01*
G01*
X152649000Y-110850000D01*
G75*
G02*
X152700000Y-110799000I51000J0D01*
G01*
G37*
G36*
G01*
X145500000Y-110799000D02*
X146300000Y-110799000D01*
G75*
G02*
X146351000Y-110850000I0J-51000D01*
G01*
X146351000Y-111750000D01*
G75*
G02*
X146300000Y-111801000I-51000J0D01*
G01*
X145500000Y-111801000D01*
G75*
G02*
X145449000Y-111750000I0J51000D01*
G01*
X145449000Y-110850000D01*
G75*
G02*
X145500000Y-110799000I51000J0D01*
G01*
G37*
G36*
G01*
X144550000Y-108799000D02*
X145350000Y-108799000D01*
G75*
G02*
X145401000Y-108850000I0J-51000D01*
G01*
X145401000Y-109750000D01*
G75*
G02*
X145350000Y-109801000I-51000J0D01*
G01*
X144550000Y-109801000D01*
G75*
G02*
X144499000Y-109750000I0J51000D01*
G01*
X144499000Y-108850000D01*
G75*
G02*
X144550000Y-108799000I51000J0D01*
G01*
G37*
G36*
G01*
X146450000Y-108799000D02*
X147250000Y-108799000D01*
G75*
G02*
X147301000Y-108850000I0J-51000D01*
G01*
X147301000Y-109750000D01*
G75*
G02*
X147250000Y-109801000I-51000J0D01*
G01*
X146450000Y-109801000D01*
G75*
G02*
X146399000Y-109750000I0J51000D01*
G01*
X146399000Y-108850000D01*
G75*
G02*
X146450000Y-108799000I51000J0D01*
G01*
G37*
G36*
G01*
X150050000Y-108799000D02*
X150850000Y-108799000D01*
G75*
G02*
X150901000Y-108850000I0J-51000D01*
G01*
X150901000Y-109750000D01*
G75*
G02*
X150850000Y-109801000I-51000J0D01*
G01*
X150050000Y-109801000D01*
G75*
G02*
X149999000Y-109750000I0J51000D01*
G01*
X149999000Y-108850000D01*
G75*
G02*
X150050000Y-108799000I51000J0D01*
G01*
G37*
G36*
G01*
X148150000Y-108799000D02*
X148950000Y-108799000D01*
G75*
G02*
X149001000Y-108850000I0J-51000D01*
G01*
X149001000Y-109750000D01*
G75*
G02*
X148950000Y-109801000I-51000J0D01*
G01*
X148150000Y-109801000D01*
G75*
G02*
X148099000Y-109750000I0J51000D01*
G01*
X148099000Y-108850000D01*
G75*
G02*
X148150000Y-108799000I51000J0D01*
G01*
G37*
G36*
G01*
X149100000Y-110799000D02*
X149900000Y-110799000D01*
G75*
G02*
X149951000Y-110850000I0J-51000D01*
G01*
X149951000Y-111750000D01*
G75*
G02*
X149900000Y-111801000I-51000J0D01*
G01*
X149100000Y-111801000D01*
G75*
G02*
X149049000Y-111750000I0J51000D01*
G01*
X149049000Y-110850000D01*
G75*
G02*
X149100000Y-110799000I51000J0D01*
G01*
G37*
G36*
G01*
X199156000Y-80550000D02*
X199156000Y-82250000D01*
G75*
G02*
X199105000Y-82301000I-51000J0D01*
G01*
X197405000Y-82301000D01*
G75*
G02*
X197354000Y-82250000I0J51000D01*
G01*
X197354000Y-80550000D01*
G75*
G02*
X197405000Y-80499000I51000J0D01*
G01*
X199105000Y-80499000D01*
G75*
G02*
X199156000Y-80550000I0J-51000D01*
G01*
G37*
X198255000Y-78860000D03*
X198255000Y-76320000D03*
X198255000Y-73780000D03*
X198255000Y-71240000D03*
X195715000Y-61080000D03*
X193175000Y-61080000D03*
X190635000Y-61080000D03*
X188095000Y-61080000D03*
G36*
G01*
X186405000Y-61981000D02*
X184705000Y-61981000D01*
G75*
G02*
X184654000Y-61930000I0J51000D01*
G01*
X184654000Y-60230000D01*
G75*
G02*
X184705000Y-60179000I51000J0D01*
G01*
X186405000Y-60179000D01*
G75*
G02*
X186456000Y-60230000I0J-51000D01*
G01*
X186456000Y-61930000D01*
G75*
G02*
X186405000Y-61981000I-51000J0D01*
G01*
G37*
G36*
G01*
X154643000Y-114091665D02*
X154643000Y-117048335D01*
G75*
G02*
X154370335Y-117321000I-272665J0D01*
G01*
X153688665Y-117321000D01*
G75*
G02*
X153416000Y-117048335I0J272665D01*
G01*
X153416000Y-114091665D01*
G75*
G02*
X153688665Y-113819000I272665J0D01*
G01*
X154370335Y-113819000D01*
G75*
G02*
X154643000Y-114091665I0J-272665D01*
G01*
G37*
G36*
G01*
X150368000Y-114091665D02*
X150368000Y-117048335D01*
G75*
G02*
X150095335Y-117321000I-272665J0D01*
G01*
X149413665Y-117321000D01*
G75*
G02*
X149141000Y-117048335I0J272665D01*
G01*
X149141000Y-114091665D01*
G75*
G02*
X149413665Y-113819000I272665J0D01*
G01*
X150095335Y-113819000D01*
G75*
G02*
X150368000Y-114091665I0J-272665D01*
G01*
G37*
G36*
G01*
X184955000Y-91648335D02*
X184955000Y-88691665D01*
G75*
G02*
X185227665Y-88419000I272665J0D01*
G01*
X185909335Y-88419000D01*
G75*
G02*
X186182000Y-88691665I0J-272665D01*
G01*
X186182000Y-91648335D01*
G75*
G02*
X185909335Y-91921000I-272665J0D01*
G01*
X185227665Y-91921000D01*
G75*
G02*
X184955000Y-91648335I0J272665D01*
G01*
G37*
G36*
G01*
X189230000Y-91648335D02*
X189230000Y-88691665D01*
G75*
G02*
X189502665Y-88419000I272665J0D01*
G01*
X190184335Y-88419000D01*
G75*
G02*
X190457000Y-88691665I0J-272665D01*
G01*
X190457000Y-91648335D01*
G75*
G02*
X190184335Y-91921000I-272665J0D01*
G01*
X189502665Y-91921000D01*
G75*
G02*
X189230000Y-91648335I0J272665D01*
G01*
G37*
G36*
G01*
X166599000Y-117725000D02*
X166599000Y-117275000D01*
G75*
G02*
X166650000Y-117224000I51000J0D01*
G01*
X167250000Y-117224000D01*
G75*
G02*
X167301000Y-117275000I0J-51000D01*
G01*
X167301000Y-117725000D01*
G75*
G02*
X167250000Y-117776000I-51000J0D01*
G01*
X166650000Y-117776000D01*
G75*
G02*
X166599000Y-117725000I0J51000D01*
G01*
G37*
G36*
G01*
X168699000Y-117725000D02*
X168699000Y-117275000D01*
G75*
G02*
X168750000Y-117224000I51000J0D01*
G01*
X169350000Y-117224000D01*
G75*
G02*
X169401000Y-117275000I0J-51000D01*
G01*
X169401000Y-117725000D01*
G75*
G02*
X169350000Y-117776000I-51000J0D01*
G01*
X168750000Y-117776000D01*
G75*
G02*
X168699000Y-117725000I0J51000D01*
G01*
G37*
G36*
G01*
X200379750Y-91392000D02*
X199416250Y-91392000D01*
G75*
G02*
X199147000Y-91122750I0J269250D01*
G01*
X199147000Y-90584250D01*
G75*
G02*
X199416250Y-90315000I269250J0D01*
G01*
X200379750Y-90315000D01*
G75*
G02*
X200649000Y-90584250I0J-269250D01*
G01*
X200649000Y-91122750D01*
G75*
G02*
X200379750Y-91392000I-269250J0D01*
G01*
G37*
G36*
G01*
X200379750Y-89517000D02*
X199416250Y-89517000D01*
G75*
G02*
X199147000Y-89247750I0J269250D01*
G01*
X199147000Y-88709250D01*
G75*
G02*
X199416250Y-88440000I269250J0D01*
G01*
X200379750Y-88440000D01*
G75*
G02*
X200649000Y-88709250I0J-269250D01*
G01*
X200649000Y-89247750D01*
G75*
G02*
X200379750Y-89517000I-269250J0D01*
G01*
G37*
G36*
G01*
X197310000Y-90196250D02*
X197310000Y-91159750D01*
G75*
G02*
X197040750Y-91429000I-269250J0D01*
G01*
X196502250Y-91429000D01*
G75*
G02*
X196233000Y-91159750I0J269250D01*
G01*
X196233000Y-90196250D01*
G75*
G02*
X196502250Y-89927000I269250J0D01*
G01*
X197040750Y-89927000D01*
G75*
G02*
X197310000Y-90196250I0J-269250D01*
G01*
G37*
G36*
G01*
X195435000Y-90196250D02*
X195435000Y-91159750D01*
G75*
G02*
X195165750Y-91429000I-269250J0D01*
G01*
X194627250Y-91429000D01*
G75*
G02*
X194358000Y-91159750I0J269250D01*
G01*
X194358000Y-90196250D01*
G75*
G02*
X194627250Y-89927000I269250J0D01*
G01*
X195165750Y-89927000D01*
G75*
G02*
X195435000Y-90196250I0J-269250D01*
G01*
G37*
G36*
G01*
X152824000Y-120623750D02*
X152824000Y-119660250D01*
G75*
G02*
X153093250Y-119391000I269250J0D01*
G01*
X153631750Y-119391000D01*
G75*
G02*
X153901000Y-119660250I0J-269250D01*
G01*
X153901000Y-120623750D01*
G75*
G02*
X153631750Y-120893000I-269250J0D01*
G01*
X153093250Y-120893000D01*
G75*
G02*
X152824000Y-120623750I0J269250D01*
G01*
G37*
G36*
G01*
X154699000Y-120623750D02*
X154699000Y-119660250D01*
G75*
G02*
X154968250Y-119391000I269250J0D01*
G01*
X155506750Y-119391000D01*
G75*
G02*
X155776000Y-119660250I0J-269250D01*
G01*
X155776000Y-120623750D01*
G75*
G02*
X155506750Y-120893000I-269250J0D01*
G01*
X154968250Y-120893000D01*
G75*
G02*
X154699000Y-120623750I0J269250D01*
G01*
G37*
D19*
G36*
X159294112Y-115531602D02*
G01*
X159312534Y-115531602D01*
X159317533Y-115531848D01*
X159366364Y-115536658D01*
X159371314Y-115537392D01*
X159419439Y-115546964D01*
X159424295Y-115548180D01*
X159471250Y-115562424D01*
X159475961Y-115564110D01*
X159521294Y-115582887D01*
X159525820Y-115585027D01*
X159569093Y-115608158D01*
X159573384Y-115610731D01*
X159614183Y-115637991D01*
X159618204Y-115640973D01*
X159656133Y-115672101D01*
X159659841Y-115675462D01*
X159694538Y-115710159D01*
X159697899Y-115713867D01*
X159729027Y-115751796D01*
X159732009Y-115755817D01*
X159759269Y-115796616D01*
X159761842Y-115800907D01*
X159784973Y-115844180D01*
X159787113Y-115848706D01*
X159805890Y-115894039D01*
X159807576Y-115898750D01*
X159821820Y-115945705D01*
X159823036Y-115950561D01*
X159832608Y-115998686D01*
X159833342Y-116003636D01*
X159838152Y-116052467D01*
X159838398Y-116057466D01*
X159838398Y-116075888D01*
X159839000Y-116082000D01*
X159839000Y-116582000D01*
X159838398Y-116588112D01*
X159838398Y-116606534D01*
X159838152Y-116611533D01*
X159833342Y-116660364D01*
X159832608Y-116665314D01*
X159823036Y-116713439D01*
X159821820Y-116718295D01*
X159807576Y-116765250D01*
X159805890Y-116769961D01*
X159787113Y-116815294D01*
X159784973Y-116819820D01*
X159761842Y-116863093D01*
X159759269Y-116867384D01*
X159732009Y-116908183D01*
X159729027Y-116912204D01*
X159697899Y-116950133D01*
X159694538Y-116953841D01*
X159659841Y-116988538D01*
X159656133Y-116991899D01*
X159618204Y-117023027D01*
X159614183Y-117026009D01*
X159573384Y-117053269D01*
X159569093Y-117055842D01*
X159525820Y-117078973D01*
X159521294Y-117081113D01*
X159475961Y-117099890D01*
X159471250Y-117101576D01*
X159424295Y-117115820D01*
X159419439Y-117117036D01*
X159371314Y-117126608D01*
X159366364Y-117127342D01*
X159317533Y-117132152D01*
X159312534Y-117132398D01*
X159294112Y-117132398D01*
X159288000Y-117133000D01*
X158738000Y-117133000D01*
X158728050Y-117132020D01*
X158718483Y-117129118D01*
X158709666Y-117124405D01*
X158701938Y-117118062D01*
X158695595Y-117110334D01*
X158690882Y-117101517D01*
X158687980Y-117091950D01*
X158687000Y-117082000D01*
X158687000Y-115582000D01*
X158687980Y-115572050D01*
X158690882Y-115562483D01*
X158695595Y-115553666D01*
X158701938Y-115545938D01*
X158709666Y-115539595D01*
X158718483Y-115534882D01*
X158728050Y-115531980D01*
X158738000Y-115531000D01*
X159288000Y-115531000D01*
X159294112Y-115531602D01*
G37*
G36*
G01*
X157437000Y-117082000D02*
X157437000Y-115582000D01*
G75*
G02*
X157488000Y-115531000I51000J0D01*
G01*
X158488000Y-115531000D01*
G75*
G02*
X158539000Y-115582000I0J-51000D01*
G01*
X158539000Y-117082000D01*
G75*
G02*
X158488000Y-117133000I-51000J0D01*
G01*
X157488000Y-117133000D01*
G75*
G02*
X157437000Y-117082000I0J51000D01*
G01*
G37*
G36*
X157247950Y-115531980D02*
G01*
X157257517Y-115534882D01*
X157266334Y-115539595D01*
X157274062Y-115545938D01*
X157280405Y-115553666D01*
X157285118Y-115562483D01*
X157288020Y-115572050D01*
X157289000Y-115582000D01*
X157289000Y-117082000D01*
X157288020Y-117091950D01*
X157285118Y-117101517D01*
X157280405Y-117110334D01*
X157274062Y-117118062D01*
X157266334Y-117124405D01*
X157257517Y-117129118D01*
X157247950Y-117132020D01*
X157238000Y-117133000D01*
X156688000Y-117133000D01*
X156681888Y-117132398D01*
X156663466Y-117132398D01*
X156658467Y-117132152D01*
X156609636Y-117127342D01*
X156604686Y-117126608D01*
X156556561Y-117117036D01*
X156551705Y-117115820D01*
X156504750Y-117101576D01*
X156500039Y-117099890D01*
X156454706Y-117081113D01*
X156450180Y-117078973D01*
X156406907Y-117055842D01*
X156402616Y-117053269D01*
X156361817Y-117026009D01*
X156357796Y-117023027D01*
X156319867Y-116991899D01*
X156316159Y-116988538D01*
X156281462Y-116953841D01*
X156278101Y-116950133D01*
X156246973Y-116912204D01*
X156243991Y-116908183D01*
X156216731Y-116867384D01*
X156214158Y-116863093D01*
X156191027Y-116819820D01*
X156188887Y-116815294D01*
X156170110Y-116769961D01*
X156168424Y-116765250D01*
X156154180Y-116718295D01*
X156152964Y-116713439D01*
X156143392Y-116665314D01*
X156142658Y-116660364D01*
X156137848Y-116611533D01*
X156137602Y-116606534D01*
X156137602Y-116588112D01*
X156137000Y-116582000D01*
X156137000Y-116082000D01*
X156137602Y-116075888D01*
X156137602Y-116057466D01*
X156137848Y-116052467D01*
X156142658Y-116003636D01*
X156143392Y-115998686D01*
X156152964Y-115950561D01*
X156154180Y-115945705D01*
X156168424Y-115898750D01*
X156170110Y-115894039D01*
X156188887Y-115848706D01*
X156191027Y-115844180D01*
X156214158Y-115800907D01*
X156216731Y-115796616D01*
X156243991Y-115755817D01*
X156246973Y-115751796D01*
X156278101Y-115713867D01*
X156281462Y-115710159D01*
X156316159Y-115675462D01*
X156319867Y-115672101D01*
X156357796Y-115640973D01*
X156361817Y-115637991D01*
X156402616Y-115610731D01*
X156406907Y-115608158D01*
X156450180Y-115585027D01*
X156454706Y-115582887D01*
X156500039Y-115564110D01*
X156504750Y-115562424D01*
X156551705Y-115548180D01*
X156556561Y-115546964D01*
X156604686Y-115537392D01*
X156609636Y-115536658D01*
X156658467Y-115531848D01*
X156663466Y-115531602D01*
X156681888Y-115531602D01*
X156688000Y-115531000D01*
X157238000Y-115531000D01*
X157247950Y-115531980D01*
G37*
G36*
G01*
X159718000Y-119660250D02*
X159718000Y-120623750D01*
G75*
G02*
X159448750Y-120893000I-269250J0D01*
G01*
X158910250Y-120893000D01*
G75*
G02*
X158641000Y-120623750I0J269250D01*
G01*
X158641000Y-119660250D01*
G75*
G02*
X158910250Y-119391000I269250J0D01*
G01*
X159448750Y-119391000D01*
G75*
G02*
X159718000Y-119660250I0J-269250D01*
G01*
G37*
G36*
G01*
X157843000Y-119660250D02*
X157843000Y-120623750D01*
G75*
G02*
X157573750Y-120893000I-269250J0D01*
G01*
X157035250Y-120893000D01*
G75*
G02*
X156766000Y-120623750I0J269250D01*
G01*
X156766000Y-119660250D01*
G75*
G02*
X157035250Y-119391000I269250J0D01*
G01*
X157573750Y-119391000D01*
G75*
G02*
X157843000Y-119660250I0J-269250D01*
G01*
G37*
G36*
X157438732Y-115530000D02*
G01*
X157439000Y-115531000D01*
X157439000Y-117133000D01*
X157438000Y-117134732D01*
X157437000Y-117135000D01*
X157373748Y-117135000D01*
X157372805Y-117134764D01*
X157359067Y-117127421D01*
X157335992Y-117120421D01*
X157312001Y-117118058D01*
X157288010Y-117120421D01*
X157264746Y-117127478D01*
X157262798Y-117127024D01*
X157262217Y-117125110D01*
X157263222Y-117123800D01*
X157265218Y-117122733D01*
X157272641Y-117116641D01*
X157278734Y-117109218D01*
X157283261Y-117100748D01*
X157286050Y-117091555D01*
X157287000Y-117081906D01*
X157287000Y-115582094D01*
X157286050Y-115572445D01*
X157283261Y-115563252D01*
X157278734Y-115554782D01*
X157272641Y-115547359D01*
X157265218Y-115541266D01*
X157259293Y-115538100D01*
X157258237Y-115536402D01*
X157259180Y-115534638D01*
X157260816Y-115534422D01*
X157262433Y-115534912D01*
X157262618Y-115534978D01*
X157276297Y-115540644D01*
X157299947Y-115545349D01*
X157324054Y-115545349D01*
X157347704Y-115540645D01*
X157369978Y-115531419D01*
X157373094Y-115529337D01*
X157374205Y-115529000D01*
X157437000Y-115529000D01*
X157438732Y-115530000D01*
G37*
G36*
X158603195Y-115529236D02*
G01*
X158616933Y-115536579D01*
X158640008Y-115543579D01*
X158663999Y-115545942D01*
X158687990Y-115543579D01*
X158711253Y-115536522D01*
X158713201Y-115536976D01*
X158713782Y-115538890D01*
X158712777Y-115540200D01*
X158710782Y-115541266D01*
X158703359Y-115547359D01*
X158697266Y-115554782D01*
X158692739Y-115563252D01*
X158689950Y-115572445D01*
X158689000Y-115582094D01*
X158689000Y-117081906D01*
X158689950Y-117091555D01*
X158692739Y-117100748D01*
X158697266Y-117109218D01*
X158703359Y-117116641D01*
X158710782Y-117122734D01*
X158716707Y-117125900D01*
X158717763Y-117127598D01*
X158716820Y-117129362D01*
X158715184Y-117129578D01*
X158713567Y-117129088D01*
X158713382Y-117129022D01*
X158699703Y-117123356D01*
X158676053Y-117118651D01*
X158651946Y-117118651D01*
X158628296Y-117123355D01*
X158606022Y-117132581D01*
X158602906Y-117134663D01*
X158601795Y-117135000D01*
X158539000Y-117135000D01*
X158537268Y-117134000D01*
X158537000Y-117133000D01*
X158537000Y-115531000D01*
X158538000Y-115529268D01*
X158539000Y-115529000D01*
X158602252Y-115529000D01*
X158603195Y-115529236D01*
G37*
G36*
X194077165Y-49437085D02*
G01*
X194078000Y-49438711D01*
X194078000Y-49527449D01*
X194077990Y-49527645D01*
X194074180Y-49566328D01*
X194074104Y-49566713D01*
X194064612Y-49598004D01*
X194064462Y-49598366D01*
X194049047Y-49627206D01*
X194048829Y-49627532D01*
X194028085Y-49652808D01*
X194027808Y-49653085D01*
X194002532Y-49673829D01*
X194002206Y-49674047D01*
X193973366Y-49689462D01*
X193973004Y-49689612D01*
X193941713Y-49699104D01*
X193941328Y-49699180D01*
X193902645Y-49702990D01*
X193902449Y-49703000D01*
X193813711Y-49703000D01*
X193811979Y-49702000D01*
X193811979Y-49700000D01*
X193813515Y-49699010D01*
X193864486Y-49693990D01*
X193913316Y-49679177D01*
X193958315Y-49655125D01*
X193997756Y-49622756D01*
X194030125Y-49583315D01*
X194054177Y-49538316D01*
X194068990Y-49489486D01*
X194074010Y-49438515D01*
X194075175Y-49436889D01*
X194077165Y-49437085D01*
G37*
G36*
X191425990Y-49438515D02*
G01*
X191431010Y-49489486D01*
X191445823Y-49538316D01*
X191469875Y-49583315D01*
X191502244Y-49622756D01*
X191541685Y-49655125D01*
X191586684Y-49679177D01*
X191635514Y-49693990D01*
X191686485Y-49699010D01*
X191688111Y-49700175D01*
X191687915Y-49702165D01*
X191686289Y-49703000D01*
X191597551Y-49703000D01*
X191597355Y-49702990D01*
X191558672Y-49699180D01*
X191558287Y-49699104D01*
X191526996Y-49689612D01*
X191526634Y-49689462D01*
X191497794Y-49674047D01*
X191497468Y-49673829D01*
X191472192Y-49653085D01*
X191471915Y-49652808D01*
X191451171Y-49627532D01*
X191450953Y-49627206D01*
X191435538Y-49598366D01*
X191435388Y-49598004D01*
X191425896Y-49566713D01*
X191425820Y-49566328D01*
X191422010Y-49527645D01*
X191422000Y-49527449D01*
X191422000Y-49438711D01*
X191423000Y-49436979D01*
X191425000Y-49436979D01*
X191425990Y-49438515D01*
G37*
G36*
X191688021Y-47523000D02*
G01*
X191688021Y-47525000D01*
X191686485Y-47525990D01*
X191635514Y-47531010D01*
X191586684Y-47545823D01*
X191541685Y-47569875D01*
X191502244Y-47602244D01*
X191469875Y-47641685D01*
X191445823Y-47686684D01*
X191431010Y-47735514D01*
X191425990Y-47786485D01*
X191424825Y-47788111D01*
X191422835Y-47787915D01*
X191422000Y-47786289D01*
X191422000Y-47697551D01*
X191422010Y-47697355D01*
X191425820Y-47658672D01*
X191425896Y-47658287D01*
X191435388Y-47626996D01*
X191435538Y-47626634D01*
X191450953Y-47597794D01*
X191451171Y-47597468D01*
X191471915Y-47572192D01*
X191472192Y-47571915D01*
X191497468Y-47551171D01*
X191497794Y-47550953D01*
X191526634Y-47535538D01*
X191526996Y-47535388D01*
X191558287Y-47525896D01*
X191558672Y-47525820D01*
X191597355Y-47522010D01*
X191597551Y-47522000D01*
X191686289Y-47522000D01*
X191688021Y-47523000D01*
G37*
G36*
X193902645Y-47522010D02*
G01*
X193941328Y-47525820D01*
X193941713Y-47525896D01*
X193973004Y-47535388D01*
X193973366Y-47535538D01*
X194002206Y-47550953D01*
X194002532Y-47551171D01*
X194027808Y-47571915D01*
X194028085Y-47572192D01*
X194048829Y-47597468D01*
X194049047Y-47597794D01*
X194064462Y-47626634D01*
X194064612Y-47626996D01*
X194074104Y-47658287D01*
X194074180Y-47658672D01*
X194077990Y-47697355D01*
X194078000Y-47697551D01*
X194078000Y-47786289D01*
X194077000Y-47788021D01*
X194075000Y-47788021D01*
X194074010Y-47786485D01*
X194068990Y-47735514D01*
X194054177Y-47686684D01*
X194030125Y-47641685D01*
X193997756Y-47602244D01*
X193958315Y-47569875D01*
X193913316Y-47545823D01*
X193864486Y-47531010D01*
X193813515Y-47525990D01*
X193811889Y-47524825D01*
X193812085Y-47522835D01*
X193813711Y-47522000D01*
X193902449Y-47522000D01*
X193902645Y-47522010D01*
G37*
G36*
X194077165Y-43212085D02*
G01*
X194078000Y-43213711D01*
X194078000Y-43302449D01*
X194077990Y-43302645D01*
X194074180Y-43341328D01*
X194074104Y-43341713D01*
X194064612Y-43373004D01*
X194064462Y-43373366D01*
X194049047Y-43402206D01*
X194048829Y-43402532D01*
X194028085Y-43427808D01*
X194027808Y-43428085D01*
X194002532Y-43448829D01*
X194002206Y-43449047D01*
X193973366Y-43464462D01*
X193973004Y-43464612D01*
X193941713Y-43474104D01*
X193941328Y-43474180D01*
X193902645Y-43477990D01*
X193902449Y-43478000D01*
X193813711Y-43478000D01*
X193811979Y-43477000D01*
X193811979Y-43475000D01*
X193813515Y-43474010D01*
X193864486Y-43468990D01*
X193913316Y-43454177D01*
X193958315Y-43430125D01*
X193997756Y-43397756D01*
X194030125Y-43358315D01*
X194054177Y-43313316D01*
X194068990Y-43264486D01*
X194074010Y-43213515D01*
X194075175Y-43211889D01*
X194077165Y-43212085D01*
G37*
G36*
X191425990Y-43213515D02*
G01*
X191431010Y-43264486D01*
X191445823Y-43313316D01*
X191469875Y-43358315D01*
X191502244Y-43397756D01*
X191541685Y-43430125D01*
X191586684Y-43454177D01*
X191635514Y-43468990D01*
X191686485Y-43474010D01*
X191688111Y-43475175D01*
X191687915Y-43477165D01*
X191686289Y-43478000D01*
X191597551Y-43478000D01*
X191597355Y-43477990D01*
X191558672Y-43474180D01*
X191558287Y-43474104D01*
X191526996Y-43464612D01*
X191526634Y-43464462D01*
X191497794Y-43449047D01*
X191497468Y-43448829D01*
X191472192Y-43428085D01*
X191471915Y-43427808D01*
X191451171Y-43402532D01*
X191450953Y-43402206D01*
X191435538Y-43373366D01*
X191435388Y-43373004D01*
X191425896Y-43341713D01*
X191425820Y-43341328D01*
X191422010Y-43302645D01*
X191422000Y-43302449D01*
X191422000Y-43213711D01*
X191423000Y-43211979D01*
X191425000Y-43211979D01*
X191425990Y-43213515D01*
G37*
G36*
X191688021Y-41298000D02*
G01*
X191688021Y-41300000D01*
X191686485Y-41300990D01*
X191635514Y-41306010D01*
X191586684Y-41320823D01*
X191541685Y-41344875D01*
X191502244Y-41377244D01*
X191469875Y-41416685D01*
X191445823Y-41461684D01*
X191431010Y-41510514D01*
X191425990Y-41561485D01*
X191424825Y-41563111D01*
X191422835Y-41562915D01*
X191422000Y-41561289D01*
X191422000Y-41472551D01*
X191422010Y-41472355D01*
X191425820Y-41433672D01*
X191425896Y-41433287D01*
X191435388Y-41401996D01*
X191435538Y-41401634D01*
X191450953Y-41372794D01*
X191451171Y-41372468D01*
X191471915Y-41347192D01*
X191472192Y-41346915D01*
X191497468Y-41326171D01*
X191497794Y-41325953D01*
X191526634Y-41310538D01*
X191526996Y-41310388D01*
X191558287Y-41300896D01*
X191558672Y-41300820D01*
X191597355Y-41297010D01*
X191597551Y-41297000D01*
X191686289Y-41297000D01*
X191688021Y-41298000D01*
G37*
G36*
X193902645Y-41297010D02*
G01*
X193941328Y-41300820D01*
X193941713Y-41300896D01*
X193973004Y-41310388D01*
X193973366Y-41310538D01*
X194002206Y-41325953D01*
X194002532Y-41326171D01*
X194027808Y-41346915D01*
X194028085Y-41347192D01*
X194048829Y-41372468D01*
X194049047Y-41372794D01*
X194064462Y-41401634D01*
X194064612Y-41401996D01*
X194074104Y-41433287D01*
X194074180Y-41433672D01*
X194077990Y-41472355D01*
X194078000Y-41472551D01*
X194078000Y-41561289D01*
X194077000Y-41563021D01*
X194075000Y-41563021D01*
X194074010Y-41561485D01*
X194068990Y-41510514D01*
X194054177Y-41461684D01*
X194030125Y-41416685D01*
X193997756Y-41377244D01*
X193958315Y-41344875D01*
X193913316Y-41320823D01*
X193864486Y-41306010D01*
X193813515Y-41300990D01*
X193811889Y-41299825D01*
X193812085Y-41297835D01*
X193813711Y-41297000D01*
X193902449Y-41297000D01*
X193902645Y-41297010D01*
G37*
M02*
