M48
; DRILL file {KiCad (5.1.9-0-10_14)} date Wednesday, June 23, 2021 at 02:37:40 PM
; FORMAT={-:-/ absolute / inch / decimal}
; #@! TF.CreationDate,2021-06-23T14:37:40+10:00
; #@! TF.GenerationSoftware,Kicad,Pcbnew,(5.1.9-0-10_14)
FMAT,2
INCH
T1C0.0157
T2C0.0197
T3C0.0315
T4C0.0331
T5C0.0335
T6C0.0394
T7C0.0400
T8C0.0512
T9C0.1614
%
G90
G05
T1
X4.5118Y-3.9537
X4.5728Y-3.502
X4.7165Y-3.0984
X4.9803Y-3.5591
X5.0197Y-3.5236
X5.0236Y-3.6575
X5.0236Y-3.7165
X5.0709Y-3.374
X5.0709Y-3.4252
X5.3031Y-4.8307
X5.3425Y-4.8307
X5.3661Y-4.437
X5.374Y-1.7205
X5.374Y-1.9291
X5.3858Y-4.3012
X5.3858Y-4.8346
X5.3937Y-1.8307
X5.4094Y-4.5394
X5.4213Y-3.3071
X5.4213Y-4.8661
X5.4567Y-5.0433
X5.46Y-3.31
X5.4606Y-4.9528
X5.4764Y-4.8543
X5.4764Y-5.1142
X5.545Y-3.425
X5.5472Y-3.0945
X5.5591Y-3.3071
X5.5669Y-3.1299
X5.5866Y-4.4321
X5.6024Y-4.8346
X5.6772Y-4.7638
X5.6892Y-4.378
X5.7066Y-4.3426
X5.7205Y-5.0118
X5.79Y-4.76
X5.8074Y-4.6357
X5.815Y-3.605
X5.8189Y-3.8937
X5.824Y-4.3815
X5.88Y-4.76
X5.935Y-4.23
X5.9729Y-4.3937
X5.99Y-4.73
X6.0315Y-4.2598
X6.075Y-4.225
X6.15Y-4.67
X6.2268Y-4.1739
X6.2392Y-4.2112
X6.2441Y-5.0787
X6.252Y-4.8189
X6.2795Y-4.9055
X6.2795Y-4.9882
X6.28Y-4.48
X6.3022Y-4.73
X6.3622Y-4.815
X6.3698Y-4.9525
X6.3819Y-2.3386
X6.3858Y-4.4685
X6.3898Y-4.3228
X6.4646Y-4.6181
X6.4677Y-2.3514
X6.4961Y-4.7244
X6.5Y-5.0315
X6.5276Y-4.7953
X6.5364Y-2.3617
X6.5398Y-4.4398
X6.565Y-1.6909
X6.565Y-1.7909
X6.565Y-1.8909
X6.565Y-1.9909
X6.57Y-4.21
X6.5787Y-5.1181
X6.6614Y-4.5
X6.6614Y-5.2283
X6.665Y-1.6909
X6.665Y-1.7909
X6.665Y-1.8909
X6.665Y-1.9909
X6.7283Y-5.0669
X6.7283Y-5.2441
X6.7323Y-4.7047
X6.765Y-1.6909
X6.765Y-1.7909
X6.765Y-1.8909
X6.765Y-1.9909
X6.7934Y-4.752
X6.7953Y-4.7913
X6.8228Y-3.8858
X6.865Y-1.6909
X6.865Y-1.7909
X6.865Y-1.8909
X6.865Y-1.9909
X6.8898Y-4.626
X6.9016Y-5.0591
X6.9291Y-5.2362
X7.0965Y-3.8858
X7.1654Y-2.1732
X7.2441Y-3.7008
X7.2638Y-4.6929
X7.38Y-3.56
X7.4843Y-3.9094
X7.5394Y-5.0591
X7.5984Y-3.7008
X7.6Y-3.57
X7.6102Y-3.7992
X7.6378Y-4.6811
X7.6693Y-3.7992
X7.7953Y-5.0433
X7.9803Y-4.2638
T2
X5.6596Y-4.2467
X5.7953Y-2.8976
X5.8661Y-3.0709
T3
X5.1142Y-2.0354
X5.1142Y-2.5354
X5.2142Y-2.0354
X5.2142Y-2.5354
X5.3142Y-2.0354
X5.3142Y-2.5354
X5.4142Y-2.0354
X5.4142Y-2.5354
X5.5142Y-2.0354
X5.5142Y-2.5354
X5.6142Y-2.0354
X5.6142Y-2.5354
X5.7142Y-2.0354
X5.7142Y-2.5354
X5.8142Y-2.0354
X5.8142Y-2.5354
X7.5984Y-4.5622
X7.5984Y-4.8622
X7.6984Y-4.5622
X7.6984Y-4.8622
X7.75Y-2.0236
X7.7984Y-4.5622
X7.7984Y-4.8622
X7.8287Y-1.7283
X7.8984Y-4.5622
X7.8984Y-4.8622
T4
X4.9535Y-2.5197
X4.9535Y-2.6197
X4.9535Y-2.7197
X4.9535Y-2.8197
X4.9535Y-2.9197
X4.9535Y-3.0197
T5
X6.7047Y-3.7008
X6.8228Y-3.7008
T6
X4.78Y-4.44
X4.78Y-4.54
X4.78Y-4.64
X4.78Y-4.74
X4.78Y-4.84
X5.8457Y-1.8071
X5.9457Y-1.8071
X6.0457Y-1.8071
X6.1457Y-1.8071
X6.2244Y-3.6425
X6.2244Y-3.7425
X6.2244Y-3.8425
X6.2457Y-1.8071
X6.3053Y-2.5047
X6.3053Y-2.6047
X6.3053Y-2.7047
X6.3053Y-2.8047
X6.3053Y-2.9047
X6.3053Y-3.0047
X6.3053Y-3.1047
X6.3053Y-3.2047
X6.3053Y-3.3047
X6.3053Y-3.4047
X6.3457Y-1.8071
X6.4053Y-2.5047
X6.4053Y-2.6047
X6.4053Y-2.7047
X6.4053Y-2.8047
X6.4053Y-2.9047
X6.4053Y-3.0047
X6.4053Y-3.1047
X6.4053Y-3.2047
X6.4053Y-3.3047
X6.4053Y-3.4047
X6.5053Y-2.5047
X6.5053Y-2.6047
X6.5053Y-2.7047
X6.5053Y-2.8047
X6.5053Y-2.9047
X6.5053Y-3.0047
X6.5053Y-3.1047
X6.5053Y-3.2047
X6.5053Y-3.3047
X6.5053Y-3.4047
X6.6053Y-2.5047
X6.6053Y-2.6047
X6.6053Y-2.7047
X6.6053Y-2.8047
X6.6053Y-2.9047
X6.6053Y-3.0047
X6.6053Y-3.1047
X6.6053Y-3.2047
X6.6053Y-3.3047
X6.6053Y-3.4047
X6.7053Y-2.5047
X6.7053Y-2.6047
X6.7053Y-2.7047
X6.7053Y-2.8047
X6.7053Y-2.9047
X6.7053Y-3.0047
X6.7053Y-3.1047
X6.7053Y-3.2047
X6.7053Y-3.3047
X6.7053Y-3.4047
X6.8053Y-2.5047
X6.8053Y-2.6047
X6.8053Y-2.7047
X6.8053Y-2.8047
X6.8053Y-2.9047
X6.8053Y-3.0047
X6.8053Y-3.1047
X6.8053Y-3.2047
X6.8053Y-3.3047
X6.8053Y-3.4047
X6.9053Y-2.5047
X6.9053Y-2.6047
X6.9053Y-2.7047
X6.9053Y-2.8047
X6.9053Y-2.9047
X6.9053Y-3.0047
X6.9053Y-3.1047
X6.9053Y-3.2047
X6.9053Y-3.3047
X6.9053Y-3.4047
X6.9764Y-4.4646
X6.9764Y-4.5646
X6.9764Y-4.8583
X6.9764Y-4.9583
X7.0053Y-2.4047
X7.0053Y-2.5047
X7.0053Y-2.6047
X7.0053Y-2.7047
X7.0053Y-2.8047
X7.0053Y-2.9047
X7.0053Y-3.0047
X7.0053Y-3.1047
X7.0053Y-3.2047
X7.0053Y-3.3047
X7.0053Y-3.4047
X7.1053Y-2.4047
X7.1053Y-2.5047
X7.1053Y-2.6047
X7.1053Y-2.7047
X7.1053Y-2.8047
X7.1053Y-2.9047
X7.1053Y-3.0047
X7.1053Y-3.1047
X7.1053Y-3.2047
X7.1053Y-3.3047
X7.1053Y-3.4047
X7.122Y-4.4646
X7.122Y-4.5646
X7.122Y-4.6646
X7.122Y-4.8583
X7.122Y-4.9583
X7.122Y-5.0583
X7.2053Y-2.4047
X7.2053Y-2.5047
X7.2053Y-2.6047
X7.2053Y-2.7047
X7.2053Y-2.8047
X7.2053Y-2.9047
X7.2053Y-3.0047
X7.2053Y-3.1047
X7.2053Y-3.2047
X7.2053Y-3.3047
X7.2053Y-3.4047
X7.3053Y-2.4047
X7.3053Y-2.5047
X7.3053Y-2.6047
X7.3053Y-2.7047
X7.3053Y-2.8047
X7.3053Y-2.9047
X7.3053Y-3.0047
X7.3053Y-3.1047
X7.3053Y-3.2047
X7.3053Y-3.3047
X7.3053Y-3.4047
X7.4053Y-2.4047
X7.4053Y-2.5047
X7.4053Y-2.6047
X7.4053Y-2.7047
X7.4053Y-2.8047
X7.4053Y-2.9047
X7.4053Y-3.0047
X7.4053Y-3.1047
X7.4053Y-3.2047
X7.4053Y-3.3047
X7.4053Y-3.4047
X7.5053Y-2.4047
X7.5053Y-2.5047
X7.5053Y-2.6047
X7.5053Y-2.7047
X7.5053Y-2.8047
X7.5053Y-2.9047
X7.5053Y-3.0047
X7.5053Y-3.1047
X7.5053Y-3.2047
X7.5053Y-3.3047
X7.5053Y-3.4047
X7.6053Y-2.4047
X7.6053Y-2.5047
X7.6053Y-2.6047
X7.6053Y-2.7047
X7.6053Y-2.8047
X7.6053Y-2.9047
X7.6053Y-3.0047
X7.6053Y-3.1047
X7.6053Y-3.2047
X7.6053Y-3.3047
X7.6053Y-3.4047
X7.7053Y-2.4047
X7.7053Y-2.5047
X7.7053Y-2.6047
X7.7053Y-2.7047
X7.7053Y-2.8047
X7.7053Y-2.9047
X7.7053Y-3.0047
X7.7053Y-3.1047
X7.7053Y-3.2047
X7.7053Y-3.3047
X7.7053Y-3.4047
X7.8053Y-2.4047
X7.8053Y-2.5047
X7.8053Y-2.6047
X7.8053Y-2.7047
X7.8053Y-2.8047
X7.8053Y-2.9047
X7.8053Y-3.0047
X7.8053Y-3.1047
X7.8053Y-3.2047
T7
X5.0707Y-2.2441
X5.1378Y-3.1394
X5.1378Y-3.2394
X5.1378Y-3.3394
X5.1378Y-3.4394
X5.1378Y-3.5394
X5.1378Y-3.6394
X5.1378Y-3.7394
X5.1378Y-3.8394
X5.1378Y-3.9394
X5.1378Y-4.0394
X5.1378Y-4.1394
X5.1378Y-4.2394
X5.1378Y-4.3394
X5.1378Y-4.4394
X5.1378Y-4.5394
X5.1378Y-4.6394
X5.1378Y-4.7394
X5.1378Y-4.8394
X5.1378Y-4.9394
X5.1378Y-5.0394
X5.1707Y-2.2441
X5.2378Y-3.1394
X5.2378Y-3.2394
X5.2378Y-3.3394
X5.2378Y-3.4394
X5.2378Y-3.5394
X5.2378Y-3.6394
X5.2378Y-3.7394
X5.2378Y-3.8394
X5.2378Y-3.9394
X5.2378Y-4.0394
X5.2378Y-4.1394
X5.2378Y-4.2394
X5.2378Y-4.3394
X5.2378Y-4.4394
X5.2378Y-4.5394
X5.2378Y-4.6394
X5.2378Y-4.7394
X5.2378Y-4.8394
X5.2378Y-4.9394
X5.2378Y-5.0394
X5.2707Y-2.2441
X5.3707Y-2.2441
X5.4307Y-4.1441
X5.4707Y-2.2441
X5.5307Y-4.1441
X5.5707Y-2.2441
X5.6307Y-4.1441
X5.6707Y-2.2441
X5.7307Y-4.1441
X5.7707Y-2.2441
X5.8307Y-4.1441
X5.8707Y-2.2441
X5.9307Y-4.1441
X5.9707Y-2.2441
X6.0307Y-4.1441
X6.1307Y-2.2441
X6.1307Y-4.1441
X6.2307Y-2.2441
X6.3307Y-2.2441
X6.3307Y-4.1441
X6.4307Y-2.2441
X6.4307Y-4.1441
X6.5307Y-2.2441
X6.5307Y-4.1441
X6.6307Y-2.2441
X6.6307Y-4.1441
X6.7307Y-2.2441
X6.7307Y-4.1441
X6.8307Y-2.2441
X6.8307Y-4.1441
X6.9307Y-4.1441
X7.0307Y-2.2441
X7.0307Y-4.1441
X7.1307Y-2.2441
X7.2307Y-2.2441
X7.2307Y-4.1441
X7.3307Y-2.2441
X7.3307Y-4.1441
X7.4307Y-2.2441
X7.4307Y-4.1441
X7.5307Y-2.2441
X7.5307Y-4.1441
X7.6307Y-2.2441
X7.6307Y-4.1441
X7.7307Y-2.2441
X7.7307Y-4.1441
X7.8307Y-4.1441
X7.9307Y-4.1441
X8.0307Y-2.2441
X8.0307Y-2.3441
X8.0307Y-2.4441
X8.0307Y-2.5441
X8.0307Y-2.6441
X8.0307Y-2.7441
X8.0307Y-2.8441
X8.0307Y-2.9441
X8.0307Y-3.0441
X8.0307Y-3.1441
X8.0307Y-3.2441
X8.0307Y-3.3441
X8.0307Y-3.4441
X8.0307Y-3.5441
X8.0307Y-3.6441
X8.0307Y-3.7441
X8.0307Y-3.8441
X8.0307Y-3.9441
X8.1307Y-2.2441
X8.1307Y-2.3441
X8.1307Y-2.4441
X8.1307Y-2.5441
X8.1307Y-2.6441
X8.1307Y-2.7441
X8.1307Y-2.8441
X8.1307Y-2.9441
X8.1307Y-3.0441
X8.1307Y-3.1441
X8.1307Y-3.2441
X8.1307Y-3.3441
X8.1307Y-3.4441
X8.1307Y-3.5441
X8.1307Y-3.6441
X8.1307Y-3.7441
X8.1307Y-3.8441
X8.1307Y-3.9441
T8
X8.0709Y-1.7323
X8.0709Y-1.9291
T9
X4.4685Y-2.315
X4.4685Y-3.2264
T0
M30
