G04 #@! TF.GenerationSoftware,KiCad,Pcbnew,(5.1.9-0-10_14)*
G04 #@! TF.CreationDate,2021-05-13T22:30:55+10:00*
G04 #@! TF.ProjectId,v0.4.3d,76302e34-2e33-4642-9e6b-696361645f70,4d*
G04 #@! TF.SameCoordinates,Original*
G04 #@! TF.FileFunction,Legend,Bot*
G04 #@! TF.FilePolarity,Positive*
%FSLAX46Y46*%
G04 Gerber Fmt 4.6, Leading zero omitted, Abs format (unit mm)*
G04 Created by KiCad (PCBNEW (5.1.9-0-10_14)) date 2021-05-13 22:30:55*
%MOMM*%
%LPD*%
G01*
G04 APERTURE LIST*
%ADD10C,0.150000*%
%ADD11C,0.120000*%
G04 APERTURE END LIST*
D10*
X162152000Y-88646000D02*
X164152000Y-90646000D01*
X164152000Y-88392000D02*
X162152000Y-90392000D01*
X144649880Y-111128571D02*
X144983214Y-111128571D01*
X144983214Y-111652380D02*
X144983214Y-110652380D01*
X144507023Y-110652380D01*
X143649880Y-111652380D02*
X144126071Y-111652380D01*
X144126071Y-110652380D01*
X143316547Y-111128571D02*
X142983214Y-111128571D01*
X142840357Y-111652380D02*
X143316547Y-111652380D01*
X143316547Y-110652380D01*
X142840357Y-110652380D01*
X142507023Y-110652380D02*
X141840357Y-111652380D01*
X141840357Y-110652380D02*
X142507023Y-111652380D01*
X143887976Y-113728571D02*
X144221309Y-113728571D01*
X144221309Y-114252380D02*
X144221309Y-113252380D01*
X143745119Y-113252380D01*
X143411785Y-113966666D02*
X142935595Y-113966666D01*
X143507023Y-114252380D02*
X143173690Y-113252380D01*
X142840357Y-114252380D01*
X142507023Y-114252380D02*
X142507023Y-113252380D01*
X141935595Y-114252380D01*
X141935595Y-113252380D01*
X149697500Y-116328571D02*
X150030833Y-116328571D01*
X150030833Y-116852380D02*
X150030833Y-115852380D01*
X149554642Y-115852380D01*
X149173690Y-115852380D02*
X149173690Y-116661904D01*
X149126071Y-116757142D01*
X149078452Y-116804761D01*
X148983214Y-116852380D01*
X148792738Y-116852380D01*
X148697500Y-116804761D01*
X148649880Y-116757142D01*
X148602261Y-116661904D01*
X148602261Y-115852380D01*
X148126071Y-116328571D02*
X147792738Y-116328571D01*
X147649880Y-116852380D02*
X148126071Y-116852380D01*
X148126071Y-115852380D01*
X147649880Y-115852380D01*
X146745119Y-116852380D02*
X147221309Y-116852380D01*
X147221309Y-115852380D01*
X145649880Y-116852380D02*
X145649880Y-115852380D01*
X145268928Y-115852380D01*
X145173690Y-115900000D01*
X145126071Y-115947619D01*
X145078452Y-116042857D01*
X145078452Y-116185714D01*
X145126071Y-116280952D01*
X145173690Y-116328571D01*
X145268928Y-116376190D01*
X145649880Y-116376190D01*
X144649880Y-115852380D02*
X144649880Y-116661904D01*
X144602261Y-116757142D01*
X144554642Y-116804761D01*
X144459404Y-116852380D01*
X144268928Y-116852380D01*
X144173690Y-116804761D01*
X144126071Y-116757142D01*
X144078452Y-116661904D01*
X144078452Y-115852380D01*
X143602261Y-116852380D02*
X143602261Y-115852380D01*
X143268928Y-116566666D01*
X142935595Y-115852380D01*
X142935595Y-116852380D01*
X142459404Y-116852380D02*
X142459404Y-115852380D01*
X142078452Y-115852380D01*
X141983214Y-115900000D01*
X141935595Y-115947619D01*
X141887976Y-116042857D01*
X141887976Y-116185714D01*
X141935595Y-116280952D01*
X141983214Y-116328571D01*
X142078452Y-116376190D01*
X142459404Y-116376190D01*
X146316547Y-118452380D02*
X145745119Y-118452380D01*
X146030833Y-119452380D02*
X146030833Y-118452380D01*
X145459404Y-119166666D02*
X144983214Y-119166666D01*
X145554642Y-119452380D02*
X145221309Y-118452380D01*
X144887976Y-119452380D01*
X143983214Y-119357142D02*
X144030833Y-119404761D01*
X144173690Y-119452380D01*
X144268928Y-119452380D01*
X144411785Y-119404761D01*
X144507023Y-119309523D01*
X144554642Y-119214285D01*
X144602261Y-119023809D01*
X144602261Y-118880952D01*
X144554642Y-118690476D01*
X144507023Y-118595238D01*
X144411785Y-118500000D01*
X144268928Y-118452380D01*
X144173690Y-118452380D01*
X144030833Y-118500000D01*
X143983214Y-118547619D01*
X143554642Y-119452380D02*
X143554642Y-118452380D01*
X143554642Y-118928571D02*
X142983214Y-118928571D01*
X142983214Y-119452380D02*
X142983214Y-118452380D01*
X142316547Y-118452380D02*
X142126071Y-118452380D01*
X142030833Y-118500000D01*
X141935595Y-118595238D01*
X141887976Y-118785714D01*
X141887976Y-119119047D01*
X141935595Y-119309523D01*
X142030833Y-119404761D01*
X142126071Y-119452380D01*
X142316547Y-119452380D01*
X142411785Y-119404761D01*
X142507023Y-119309523D01*
X142554642Y-119119047D01*
X142554642Y-118785714D01*
X142507023Y-118595238D01*
X142411785Y-118500000D01*
X142316547Y-118452380D01*
X146792738Y-122052380D02*
X147268928Y-122052380D01*
X147268928Y-121052380D01*
X146507023Y-121766666D02*
X146030833Y-121766666D01*
X146602261Y-122052380D02*
X146268928Y-121052380D01*
X145935595Y-122052380D01*
X145602261Y-121052380D02*
X145602261Y-121861904D01*
X145554642Y-121957142D01*
X145507023Y-122004761D01*
X145411785Y-122052380D01*
X145221309Y-122052380D01*
X145126071Y-122004761D01*
X145078452Y-121957142D01*
X145030833Y-121861904D01*
X145030833Y-121052380D01*
X144554642Y-122052380D02*
X144554642Y-121052380D01*
X143983214Y-122052380D01*
X143983214Y-121052380D01*
X142935595Y-121957142D02*
X142983214Y-122004761D01*
X143126071Y-122052380D01*
X143221309Y-122052380D01*
X143364166Y-122004761D01*
X143459404Y-121909523D01*
X143507023Y-121814285D01*
X143554642Y-121623809D01*
X143554642Y-121480952D01*
X143507023Y-121290476D01*
X143459404Y-121195238D01*
X143364166Y-121100000D01*
X143221309Y-121052380D01*
X143126071Y-121052380D01*
X142983214Y-121100000D01*
X142935595Y-121147619D01*
X142507023Y-122052380D02*
X142507023Y-121052380D01*
X142507023Y-121528571D02*
X141935595Y-121528571D01*
X141935595Y-122052380D02*
X141935595Y-121052380D01*
X162152000Y-88646000D02*
X162152000Y-90246000D01*
X161352000Y-89574000D02*
X162952000Y-89574000D01*
X160152000Y-88392000D02*
X162152000Y-90392000D01*
X160152000Y-90646000D02*
X162152000Y-88646000D01*
X144725238Y-89971523D02*
X144630000Y-90019142D01*
X144439523Y-90019142D01*
X144344285Y-89971523D01*
X144249047Y-89876285D01*
X144201428Y-89781047D01*
X144201428Y-89590571D01*
X144249047Y-89495333D01*
X144344285Y-89400095D01*
X144439523Y-89352476D01*
X144630000Y-89352476D01*
X144725238Y-89400095D01*
X144534761Y-90352476D02*
X144296666Y-90304857D01*
X144058571Y-90162000D01*
X143915714Y-89923904D01*
X143868095Y-89685809D01*
X143915714Y-89447714D01*
X144058571Y-89209619D01*
X144296666Y-89066761D01*
X144534761Y-89019142D01*
X144772857Y-89066761D01*
X145010952Y-89209619D01*
X145153809Y-89447714D01*
X145201428Y-89685809D01*
X145153809Y-89923904D01*
X145010952Y-90162000D01*
X144772857Y-90304857D01*
X144534761Y-90352476D01*
X146677619Y-90209619D02*
X146677619Y-89495333D01*
X146630000Y-89352476D01*
X146534761Y-89257238D01*
X146391904Y-89209619D01*
X146296666Y-89209619D01*
X147296666Y-89209619D02*
X147201428Y-89257238D01*
X147153809Y-89304857D01*
X147106190Y-89400095D01*
X147106190Y-89685809D01*
X147153809Y-89781047D01*
X147201428Y-89828666D01*
X147296666Y-89876285D01*
X147439523Y-89876285D01*
X147534761Y-89828666D01*
X147582380Y-89781047D01*
X147630000Y-89685809D01*
X147630000Y-89400095D01*
X147582380Y-89304857D01*
X147534761Y-89257238D01*
X147439523Y-89209619D01*
X147296666Y-89209619D01*
X148010952Y-89257238D02*
X148106190Y-89209619D01*
X148296666Y-89209619D01*
X148391904Y-89257238D01*
X148439523Y-89352476D01*
X148439523Y-89400095D01*
X148391904Y-89495333D01*
X148296666Y-89542952D01*
X148153809Y-89542952D01*
X148058571Y-89590571D01*
X148010952Y-89685809D01*
X148010952Y-89733428D01*
X148058571Y-89828666D01*
X148153809Y-89876285D01*
X148296666Y-89876285D01*
X148391904Y-89828666D01*
X148868095Y-89209619D02*
X148868095Y-90209619D01*
X149296666Y-89209619D02*
X149296666Y-89733428D01*
X149249047Y-89828666D01*
X149153809Y-89876285D01*
X149010952Y-89876285D01*
X148915714Y-89828666D01*
X148868095Y-89781047D01*
X150487142Y-89257238D02*
X150630000Y-89209619D01*
X150868095Y-89209619D01*
X150963333Y-89257238D01*
X151010952Y-89304857D01*
X151058571Y-89400095D01*
X151058571Y-89495333D01*
X151010952Y-89590571D01*
X150963333Y-89638190D01*
X150868095Y-89685809D01*
X150677619Y-89733428D01*
X150582380Y-89781047D01*
X150534761Y-89828666D01*
X150487142Y-89923904D01*
X150487142Y-90019142D01*
X150534761Y-90114380D01*
X150582380Y-90162000D01*
X150677619Y-90209619D01*
X150915714Y-90209619D01*
X151058571Y-90162000D01*
X151344285Y-89876285D02*
X151725238Y-89876285D01*
X151487142Y-90209619D02*
X151487142Y-89352476D01*
X151534761Y-89257238D01*
X151630000Y-89209619D01*
X151725238Y-89209619D01*
X152439523Y-89257238D02*
X152344285Y-89209619D01*
X152153809Y-89209619D01*
X152058571Y-89257238D01*
X152010952Y-89352476D01*
X152010952Y-89733428D01*
X152058571Y-89828666D01*
X152153809Y-89876285D01*
X152344285Y-89876285D01*
X152439523Y-89828666D01*
X152487142Y-89733428D01*
X152487142Y-89638190D01*
X152010952Y-89542952D01*
X152820476Y-89876285D02*
X153010952Y-89209619D01*
X153201428Y-89685809D01*
X153391904Y-89209619D01*
X153582380Y-89876285D01*
X154391904Y-89209619D02*
X154391904Y-89733428D01*
X154344285Y-89828666D01*
X154249047Y-89876285D01*
X154058571Y-89876285D01*
X153963333Y-89828666D01*
X154391904Y-89257238D02*
X154296666Y-89209619D01*
X154058571Y-89209619D01*
X153963333Y-89257238D01*
X153915714Y-89352476D01*
X153915714Y-89447714D01*
X153963333Y-89542952D01*
X154058571Y-89590571D01*
X154296666Y-89590571D01*
X154391904Y-89638190D01*
X154868095Y-89209619D02*
X154868095Y-89876285D01*
X154868095Y-89685809D02*
X154915714Y-89781047D01*
X154963333Y-89828666D01*
X155058571Y-89876285D01*
X155153809Y-89876285D01*
X155344285Y-89876285D02*
X155725238Y-89876285D01*
X155487142Y-90209619D02*
X155487142Y-89352476D01*
X155534761Y-89257238D01*
X155630000Y-89209619D01*
X155725238Y-89209619D01*
X157630000Y-89209619D02*
X157582380Y-89209619D01*
X157487142Y-89257238D01*
X157344285Y-89400095D01*
X157106190Y-89685809D01*
X157010952Y-89828666D01*
X156963333Y-89971523D01*
X156963333Y-90066761D01*
X157010952Y-90162000D01*
X157106190Y-90209619D01*
X157153809Y-90209619D01*
X157249047Y-90162000D01*
X157296666Y-90066761D01*
X157296666Y-90019142D01*
X157249047Y-89923904D01*
X157201428Y-89876285D01*
X156915714Y-89685809D01*
X156868095Y-89638190D01*
X156820476Y-89542952D01*
X156820476Y-89400095D01*
X156868095Y-89304857D01*
X156915714Y-89257238D01*
X157010952Y-89209619D01*
X157153809Y-89209619D01*
X157249047Y-89257238D01*
X157296666Y-89304857D01*
X157439523Y-89495333D01*
X157487142Y-89638190D01*
X157487142Y-89733428D01*
X145136952Y-91300380D02*
X145365523Y-91224190D01*
X145746476Y-91224190D01*
X145898857Y-91300380D01*
X145975047Y-91376571D01*
X146051238Y-91528952D01*
X146051238Y-91681333D01*
X145975047Y-91833714D01*
X145898857Y-91909904D01*
X145746476Y-91986095D01*
X145441714Y-92062285D01*
X145289333Y-92138476D01*
X145213142Y-92214666D01*
X145136952Y-92367047D01*
X145136952Y-92519428D01*
X145213142Y-92671809D01*
X145289333Y-92748000D01*
X145441714Y-92824190D01*
X145822666Y-92824190D01*
X146051238Y-92748000D01*
X146736952Y-92290857D02*
X146736952Y-90690857D01*
X146736952Y-92214666D02*
X146889333Y-92290857D01*
X147194095Y-92290857D01*
X147346476Y-92214666D01*
X147422666Y-92138476D01*
X147498857Y-91986095D01*
X147498857Y-91528952D01*
X147422666Y-91376571D01*
X147346476Y-91300380D01*
X147194095Y-91224190D01*
X146889333Y-91224190D01*
X146736952Y-91300380D01*
X148794095Y-91300380D02*
X148641714Y-91224190D01*
X148336952Y-91224190D01*
X148184571Y-91300380D01*
X148108380Y-91452761D01*
X148108380Y-92062285D01*
X148184571Y-92214666D01*
X148336952Y-92290857D01*
X148641714Y-92290857D01*
X148794095Y-92214666D01*
X148870285Y-92062285D01*
X148870285Y-91909904D01*
X148108380Y-91757523D01*
X150165523Y-91300380D02*
X150013142Y-91224190D01*
X149708380Y-91224190D01*
X149556000Y-91300380D01*
X149479809Y-91452761D01*
X149479809Y-92062285D01*
X149556000Y-92214666D01*
X149708380Y-92290857D01*
X150013142Y-92290857D01*
X150165523Y-92214666D01*
X150241714Y-92062285D01*
X150241714Y-91909904D01*
X149479809Y-91757523D01*
X151613142Y-91224190D02*
X151613142Y-92824190D01*
X151613142Y-91300380D02*
X151460761Y-91224190D01*
X151156000Y-91224190D01*
X151003619Y-91300380D01*
X150927428Y-91376571D01*
X150851238Y-91528952D01*
X150851238Y-91986095D01*
X150927428Y-92138476D01*
X151003619Y-92214666D01*
X151156000Y-92290857D01*
X151460761Y-92290857D01*
X151613142Y-92214666D01*
X153060761Y-92290857D02*
X153060761Y-91224190D01*
X152375047Y-92290857D02*
X152375047Y-91452761D01*
X152451238Y-91300380D01*
X152603619Y-91224190D01*
X152832190Y-91224190D01*
X152984571Y-91300380D01*
X153060761Y-91376571D01*
X153822666Y-91224190D02*
X153822666Y-92290857D01*
X153822666Y-92824190D02*
X153746476Y-92748000D01*
X153822666Y-92671809D01*
X153898857Y-92748000D01*
X153822666Y-92824190D01*
X153822666Y-92671809D01*
X154584571Y-92290857D02*
X154584571Y-91224190D01*
X154584571Y-92138476D02*
X154660761Y-92214666D01*
X154813142Y-92290857D01*
X155041714Y-92290857D01*
X155194095Y-92214666D01*
X155270285Y-92062285D01*
X155270285Y-91224190D01*
X156260761Y-91224190D02*
X156108380Y-91300380D01*
X156032190Y-91376571D01*
X155956000Y-91528952D01*
X155956000Y-91986095D01*
X156032190Y-92138476D01*
X156108380Y-92214666D01*
X156260761Y-92290857D01*
X156489333Y-92290857D01*
X156641714Y-92214666D01*
X156717904Y-92138476D01*
X156794095Y-91986095D01*
X156794095Y-91528952D01*
X156717904Y-91376571D01*
X156641714Y-91300380D01*
X156489333Y-91224190D01*
X156260761Y-91224190D01*
X158546476Y-92290857D02*
X158927428Y-91224190D01*
X159308380Y-92290857D01*
X160222666Y-92824190D02*
X160375047Y-92824190D01*
X160527428Y-92748000D01*
X160603619Y-92671809D01*
X160679809Y-92519428D01*
X160756000Y-92214666D01*
X160756000Y-91833714D01*
X160679809Y-91528952D01*
X160603619Y-91376571D01*
X160527428Y-91300380D01*
X160375047Y-91224190D01*
X160222666Y-91224190D01*
X160070285Y-91300380D01*
X159994095Y-91376571D01*
X159917904Y-91528952D01*
X159841714Y-91833714D01*
X159841714Y-92214666D01*
X159917904Y-92519428D01*
X159994095Y-92671809D01*
X160070285Y-92748000D01*
X160222666Y-92824190D01*
X161441714Y-91376571D02*
X161517904Y-91300380D01*
X161441714Y-91224190D01*
X161365523Y-91300380D01*
X161441714Y-91376571D01*
X161441714Y-91224190D01*
X162889333Y-92290857D02*
X162889333Y-91224190D01*
X162508380Y-92900380D02*
X162127428Y-91757523D01*
X163117904Y-91757523D01*
X163727428Y-91376571D02*
X163803619Y-91300380D01*
X163727428Y-91224190D01*
X163651238Y-91300380D01*
X163727428Y-91376571D01*
X163727428Y-91224190D01*
X164336952Y-92824190D02*
X165327428Y-92824190D01*
X164794095Y-92214666D01*
X165022666Y-92214666D01*
X165175047Y-92138476D01*
X165251238Y-92062285D01*
X165327428Y-91909904D01*
X165327428Y-91528952D01*
X165251238Y-91376571D01*
X165175047Y-91300380D01*
X165022666Y-91224190D01*
X164565523Y-91224190D01*
X164413142Y-91300380D01*
X164336952Y-91376571D01*
X166698857Y-91224190D02*
X166698857Y-92824190D01*
X166698857Y-91300380D02*
X166546476Y-91224190D01*
X166241714Y-91224190D01*
X166089333Y-91300380D01*
X166013142Y-91376571D01*
X165936952Y-91528952D01*
X165936952Y-91986095D01*
X166013142Y-92138476D01*
X166089333Y-92214666D01*
X166241714Y-92290857D01*
X166546476Y-92290857D01*
X166698857Y-92214666D01*
D11*
X141400000Y-122600000D02*
X141400000Y-120600000D01*
X138600000Y-122600000D02*
X141400000Y-122600000D01*
X138600000Y-120600000D02*
X138600000Y-122600000D01*
X141400000Y-120600000D02*
X138600000Y-120600000D01*
X141400000Y-120000000D02*
X141400000Y-118000000D01*
X138600000Y-120000000D02*
X141400000Y-120000000D01*
X138600000Y-118000000D02*
X138600000Y-120000000D01*
X141400000Y-118000000D02*
X138600000Y-118000000D01*
X141400000Y-117400000D02*
X141400000Y-115400000D01*
X138600000Y-117400000D02*
X141400000Y-117400000D01*
X138600000Y-115400000D02*
X138600000Y-117400000D01*
X141400000Y-115400000D02*
X138600000Y-115400000D01*
X141400000Y-114800000D02*
X141400000Y-112800000D01*
X138600000Y-114800000D02*
X141400000Y-114800000D01*
X138600000Y-112800000D02*
X138600000Y-114800000D01*
X141400000Y-112800000D02*
X138600000Y-112800000D01*
X141400000Y-112200000D02*
X141400000Y-110200000D01*
X138600000Y-112200000D02*
X141400000Y-112200000D01*
X138600000Y-110200000D02*
X138600000Y-112200000D01*
X141400000Y-110200000D02*
X138600000Y-110200000D01*
D10*
X137709523Y-121052380D02*
X137709523Y-121766666D01*
X137757142Y-121909523D01*
X137852380Y-122004761D01*
X137995238Y-122052380D01*
X138090476Y-122052380D01*
X137233333Y-122052380D02*
X137233333Y-121052380D01*
X136852380Y-121052380D01*
X136757142Y-121100000D01*
X136709523Y-121147619D01*
X136661904Y-121242857D01*
X136661904Y-121385714D01*
X136709523Y-121480952D01*
X136757142Y-121528571D01*
X136852380Y-121576190D01*
X137233333Y-121576190D01*
X135709523Y-122052380D02*
X136280952Y-122052380D01*
X135995238Y-122052380D02*
X135995238Y-121052380D01*
X136090476Y-121195238D01*
X136185714Y-121290476D01*
X136280952Y-121338095D01*
X135090476Y-121052380D02*
X134995238Y-121052380D01*
X134900000Y-121100000D01*
X134852380Y-121147619D01*
X134804761Y-121242857D01*
X134757142Y-121433333D01*
X134757142Y-121671428D01*
X134804761Y-121861904D01*
X134852380Y-121957142D01*
X134900000Y-122004761D01*
X134995238Y-122052380D01*
X135090476Y-122052380D01*
X135185714Y-122004761D01*
X135233333Y-121957142D01*
X135280952Y-121861904D01*
X135328571Y-121671428D01*
X135328571Y-121433333D01*
X135280952Y-121242857D01*
X135233333Y-121147619D01*
X135185714Y-121100000D01*
X135090476Y-121052380D01*
X137733333Y-118452380D02*
X137733333Y-119166666D01*
X137780952Y-119309523D01*
X137876190Y-119404761D01*
X138019047Y-119452380D01*
X138114285Y-119452380D01*
X137257142Y-119452380D02*
X137257142Y-118452380D01*
X136876190Y-118452380D01*
X136780952Y-118500000D01*
X136733333Y-118547619D01*
X136685714Y-118642857D01*
X136685714Y-118785714D01*
X136733333Y-118880952D01*
X136780952Y-118928571D01*
X136876190Y-118976190D01*
X137257142Y-118976190D01*
X136209523Y-119452380D02*
X136019047Y-119452380D01*
X135923809Y-119404761D01*
X135876190Y-119357142D01*
X135780952Y-119214285D01*
X135733333Y-119023809D01*
X135733333Y-118642857D01*
X135780952Y-118547619D01*
X135828571Y-118500000D01*
X135923809Y-118452380D01*
X136114285Y-118452380D01*
X136209523Y-118500000D01*
X136257142Y-118547619D01*
X136304761Y-118642857D01*
X136304761Y-118880952D01*
X136257142Y-118976190D01*
X136209523Y-119023809D01*
X136114285Y-119071428D01*
X135923809Y-119071428D01*
X135828571Y-119023809D01*
X135780952Y-118976190D01*
X135733333Y-118880952D01*
X137733333Y-115852380D02*
X137733333Y-116566666D01*
X137780952Y-116709523D01*
X137876190Y-116804761D01*
X138019047Y-116852380D01*
X138114285Y-116852380D01*
X137257142Y-116852380D02*
X137257142Y-115852380D01*
X136876190Y-115852380D01*
X136780952Y-115900000D01*
X136733333Y-115947619D01*
X136685714Y-116042857D01*
X136685714Y-116185714D01*
X136733333Y-116280952D01*
X136780952Y-116328571D01*
X136876190Y-116376190D01*
X137257142Y-116376190D01*
X136114285Y-116280952D02*
X136209523Y-116233333D01*
X136257142Y-116185714D01*
X136304761Y-116090476D01*
X136304761Y-116042857D01*
X136257142Y-115947619D01*
X136209523Y-115900000D01*
X136114285Y-115852380D01*
X135923809Y-115852380D01*
X135828571Y-115900000D01*
X135780952Y-115947619D01*
X135733333Y-116042857D01*
X135733333Y-116090476D01*
X135780952Y-116185714D01*
X135828571Y-116233333D01*
X135923809Y-116280952D01*
X136114285Y-116280952D01*
X136209523Y-116328571D01*
X136257142Y-116376190D01*
X136304761Y-116471428D01*
X136304761Y-116661904D01*
X136257142Y-116757142D01*
X136209523Y-116804761D01*
X136114285Y-116852380D01*
X135923809Y-116852380D01*
X135828571Y-116804761D01*
X135780952Y-116757142D01*
X135733333Y-116661904D01*
X135733333Y-116471428D01*
X135780952Y-116376190D01*
X135828571Y-116328571D01*
X135923809Y-116280952D01*
X137733333Y-113252380D02*
X137733333Y-113966666D01*
X137780952Y-114109523D01*
X137876190Y-114204761D01*
X138019047Y-114252380D01*
X138114285Y-114252380D01*
X137257142Y-114252380D02*
X137257142Y-113252380D01*
X136876190Y-113252380D01*
X136780952Y-113300000D01*
X136733333Y-113347619D01*
X136685714Y-113442857D01*
X136685714Y-113585714D01*
X136733333Y-113680952D01*
X136780952Y-113728571D01*
X136876190Y-113776190D01*
X137257142Y-113776190D01*
X136352380Y-113252380D02*
X135685714Y-113252380D01*
X136114285Y-114252380D01*
X137733333Y-110652380D02*
X137733333Y-111366666D01*
X137780952Y-111509523D01*
X137876190Y-111604761D01*
X138019047Y-111652380D01*
X138114285Y-111652380D01*
X137257142Y-111652380D02*
X137257142Y-110652380D01*
X136876190Y-110652380D01*
X136780952Y-110700000D01*
X136733333Y-110747619D01*
X136685714Y-110842857D01*
X136685714Y-110985714D01*
X136733333Y-111080952D01*
X136780952Y-111128571D01*
X136876190Y-111176190D01*
X137257142Y-111176190D01*
X135828571Y-110652380D02*
X136019047Y-110652380D01*
X136114285Y-110700000D01*
X136161904Y-110747619D01*
X136257142Y-110890476D01*
X136304761Y-111080952D01*
X136304761Y-111461904D01*
X136257142Y-111557142D01*
X136209523Y-111604761D01*
X136114285Y-111652380D01*
X135923809Y-111652380D01*
X135828571Y-111604761D01*
X135780952Y-111557142D01*
X135733333Y-111461904D01*
X135733333Y-111223809D01*
X135780952Y-111128571D01*
X135828571Y-111080952D01*
X135923809Y-111033333D01*
X136114285Y-111033333D01*
X136209523Y-111080952D01*
X136257142Y-111128571D01*
X136304761Y-111223809D01*
M02*
