%TF.GenerationSoftware,KiCad,Pcbnew,7.0.9*%
%TF.CreationDate,2024-08-07T13:19:35-07:00*%
%TF.ProjectId,v0.4.3d,76302e34-2e33-4642-9e6b-696361645f70,4d*%
%TF.SameCoordinates,Original*%
%TF.FileFunction,Drillmap*%
%TF.FilePolarity,Positive*%
%FSLAX45Y45*%
G04 Gerber Fmt 4.5, Leading zero omitted, Abs format (unit mm)*
G04 Created by KiCad (PCBNEW 7.0.9) date 2024-08-07 13:19:35*
%MOMM*%
%LPD*%
G01*
G04 APERTURE LIST*
%ADD10C,0.050000*%
%ADD11C,0.200000*%
%ADD12C,0.350000*%
G04 APERTURE END LIST*
D10*
X21050000Y-3700000D02*
X21050000Y-13700000D01*
X11050000Y-3700000D02*
X21050000Y-3700000D01*
X11050000Y-13700000D02*
X11050000Y-3700000D01*
X11050000Y-13700000D02*
X21050000Y-13700000D01*
D11*
D12*
X11509000Y-10711200D02*
X11859000Y-11061200D01*
X11859000Y-10711200D02*
X11509000Y-11061200D01*
X11509000Y-12844800D02*
X11859000Y-13194800D01*
X11859000Y-12844800D02*
X11509000Y-13194800D01*
X13780000Y-6987800D02*
X14130000Y-7337800D01*
X14130000Y-6987800D02*
X13780000Y-7337800D01*
X13780000Y-8054600D02*
X14130000Y-8404600D01*
X14130000Y-8054600D02*
X13780000Y-8404600D01*
X16091400Y-4498600D02*
X16441400Y-4848600D01*
X16441400Y-4498600D02*
X16091400Y-4848600D01*
D11*
X11308277Y-14013984D02*
X11308277Y-13813984D01*
X11308277Y-13813984D02*
X11355896Y-13813984D01*
X11355896Y-13813984D02*
X11384467Y-13823508D01*
X11384467Y-13823508D02*
X11403515Y-13842555D01*
X11403515Y-13842555D02*
X11413039Y-13861603D01*
X11413039Y-13861603D02*
X11422562Y-13899698D01*
X11422562Y-13899698D02*
X11422562Y-13928269D01*
X11422562Y-13928269D02*
X11413039Y-13966365D01*
X11413039Y-13966365D02*
X11403515Y-13985412D01*
X11403515Y-13985412D02*
X11384467Y-14004460D01*
X11384467Y-14004460D02*
X11355896Y-14013984D01*
X11355896Y-14013984D02*
X11308277Y-14013984D01*
X11508277Y-14013984D02*
X11508277Y-13880650D01*
X11508277Y-13918746D02*
X11517801Y-13899698D01*
X11517801Y-13899698D02*
X11527324Y-13890174D01*
X11527324Y-13890174D02*
X11546372Y-13880650D01*
X11546372Y-13880650D02*
X11565420Y-13880650D01*
X11632086Y-14013984D02*
X11632086Y-13880650D01*
X11632086Y-13813984D02*
X11622562Y-13823508D01*
X11622562Y-13823508D02*
X11632086Y-13833031D01*
X11632086Y-13833031D02*
X11641610Y-13823508D01*
X11641610Y-13823508D02*
X11632086Y-13813984D01*
X11632086Y-13813984D02*
X11632086Y-13833031D01*
X11755896Y-14013984D02*
X11736848Y-14004460D01*
X11736848Y-14004460D02*
X11727324Y-13985412D01*
X11727324Y-13985412D02*
X11727324Y-13813984D01*
X11860658Y-14013984D02*
X11841610Y-14004460D01*
X11841610Y-14004460D02*
X11832086Y-13985412D01*
X11832086Y-13985412D02*
X11832086Y-13813984D01*
X12089229Y-14013984D02*
X12089229Y-13813984D01*
X12089229Y-13813984D02*
X12155896Y-13956841D01*
X12155896Y-13956841D02*
X12222562Y-13813984D01*
X12222562Y-13813984D02*
X12222562Y-14013984D01*
X12403515Y-14013984D02*
X12403515Y-13909222D01*
X12403515Y-13909222D02*
X12393991Y-13890174D01*
X12393991Y-13890174D02*
X12374943Y-13880650D01*
X12374943Y-13880650D02*
X12336848Y-13880650D01*
X12336848Y-13880650D02*
X12317801Y-13890174D01*
X12403515Y-14004460D02*
X12384467Y-14013984D01*
X12384467Y-14013984D02*
X12336848Y-14013984D01*
X12336848Y-14013984D02*
X12317801Y-14004460D01*
X12317801Y-14004460D02*
X12308277Y-13985412D01*
X12308277Y-13985412D02*
X12308277Y-13966365D01*
X12308277Y-13966365D02*
X12317801Y-13947317D01*
X12317801Y-13947317D02*
X12336848Y-13937793D01*
X12336848Y-13937793D02*
X12384467Y-13937793D01*
X12384467Y-13937793D02*
X12403515Y-13928269D01*
X12498753Y-13880650D02*
X12498753Y-14080650D01*
X12498753Y-13890174D02*
X12517801Y-13880650D01*
X12517801Y-13880650D02*
X12555896Y-13880650D01*
X12555896Y-13880650D02*
X12574943Y-13890174D01*
X12574943Y-13890174D02*
X12584467Y-13899698D01*
X12584467Y-13899698D02*
X12593991Y-13918746D01*
X12593991Y-13918746D02*
X12593991Y-13975888D01*
X12593991Y-13975888D02*
X12584467Y-13994936D01*
X12584467Y-13994936D02*
X12574943Y-14004460D01*
X12574943Y-14004460D02*
X12555896Y-14013984D01*
X12555896Y-14013984D02*
X12517801Y-14013984D01*
X12517801Y-14013984D02*
X12498753Y-14004460D01*
X12679705Y-13994936D02*
X12689229Y-14004460D01*
X12689229Y-14004460D02*
X12679705Y-14013984D01*
X12679705Y-14013984D02*
X12670182Y-14004460D01*
X12670182Y-14004460D02*
X12679705Y-13994936D01*
X12679705Y-13994936D02*
X12679705Y-14013984D01*
X12679705Y-13890174D02*
X12689229Y-13899698D01*
X12689229Y-13899698D02*
X12679705Y-13909222D01*
X12679705Y-13909222D02*
X12670182Y-13899698D01*
X12670182Y-13899698D02*
X12679705Y-13890174D01*
X12679705Y-13890174D02*
X12679705Y-13909222D01*
X10847500Y-14242500D02*
X11047500Y-14442500D01*
X11047500Y-14242500D02*
X10847500Y-14442500D01*
X11289229Y-14233984D02*
X11413039Y-14233984D01*
X11413039Y-14233984D02*
X11346372Y-14310174D01*
X11346372Y-14310174D02*
X11374943Y-14310174D01*
X11374943Y-14310174D02*
X11393991Y-14319698D01*
X11393991Y-14319698D02*
X11403515Y-14329222D01*
X11403515Y-14329222D02*
X11413039Y-14348269D01*
X11413039Y-14348269D02*
X11413039Y-14395888D01*
X11413039Y-14395888D02*
X11403515Y-14414936D01*
X11403515Y-14414936D02*
X11393991Y-14424460D01*
X11393991Y-14424460D02*
X11374943Y-14433984D01*
X11374943Y-14433984D02*
X11317801Y-14433984D01*
X11317801Y-14433984D02*
X11298753Y-14424460D01*
X11298753Y-14424460D02*
X11289229Y-14414936D01*
X11498753Y-14414936D02*
X11508277Y-14424460D01*
X11508277Y-14424460D02*
X11498753Y-14433984D01*
X11498753Y-14433984D02*
X11489229Y-14424460D01*
X11489229Y-14424460D02*
X11498753Y-14414936D01*
X11498753Y-14414936D02*
X11498753Y-14433984D01*
X11689229Y-14233984D02*
X11593991Y-14233984D01*
X11593991Y-14233984D02*
X11584467Y-14329222D01*
X11584467Y-14329222D02*
X11593991Y-14319698D01*
X11593991Y-14319698D02*
X11613039Y-14310174D01*
X11613039Y-14310174D02*
X11660658Y-14310174D01*
X11660658Y-14310174D02*
X11679705Y-14319698D01*
X11679705Y-14319698D02*
X11689229Y-14329222D01*
X11689229Y-14329222D02*
X11698753Y-14348269D01*
X11698753Y-14348269D02*
X11698753Y-14395888D01*
X11698753Y-14395888D02*
X11689229Y-14414936D01*
X11689229Y-14414936D02*
X11679705Y-14424460D01*
X11679705Y-14424460D02*
X11660658Y-14433984D01*
X11660658Y-14433984D02*
X11613039Y-14433984D01*
X11613039Y-14433984D02*
X11593991Y-14424460D01*
X11593991Y-14424460D02*
X11584467Y-14414936D01*
X11822562Y-14233984D02*
X11841610Y-14233984D01*
X11841610Y-14233984D02*
X11860658Y-14243508D01*
X11860658Y-14243508D02*
X11870182Y-14253031D01*
X11870182Y-14253031D02*
X11879705Y-14272079D01*
X11879705Y-14272079D02*
X11889229Y-14310174D01*
X11889229Y-14310174D02*
X11889229Y-14357793D01*
X11889229Y-14357793D02*
X11879705Y-14395888D01*
X11879705Y-14395888D02*
X11870182Y-14414936D01*
X11870182Y-14414936D02*
X11860658Y-14424460D01*
X11860658Y-14424460D02*
X11841610Y-14433984D01*
X11841610Y-14433984D02*
X11822562Y-14433984D01*
X11822562Y-14433984D02*
X11803515Y-14424460D01*
X11803515Y-14424460D02*
X11793991Y-14414936D01*
X11793991Y-14414936D02*
X11784467Y-14395888D01*
X11784467Y-14395888D02*
X11774943Y-14357793D01*
X11774943Y-14357793D02*
X11774943Y-14310174D01*
X11774943Y-14310174D02*
X11784467Y-14272079D01*
X11784467Y-14272079D02*
X11793991Y-14253031D01*
X11793991Y-14253031D02*
X11803515Y-14243508D01*
X11803515Y-14243508D02*
X11822562Y-14233984D01*
X12013039Y-14233984D02*
X12032086Y-14233984D01*
X12032086Y-14233984D02*
X12051134Y-14243508D01*
X12051134Y-14243508D02*
X12060658Y-14253031D01*
X12060658Y-14253031D02*
X12070182Y-14272079D01*
X12070182Y-14272079D02*
X12079705Y-14310174D01*
X12079705Y-14310174D02*
X12079705Y-14357793D01*
X12079705Y-14357793D02*
X12070182Y-14395888D01*
X12070182Y-14395888D02*
X12060658Y-14414936D01*
X12060658Y-14414936D02*
X12051134Y-14424460D01*
X12051134Y-14424460D02*
X12032086Y-14433984D01*
X12032086Y-14433984D02*
X12013039Y-14433984D01*
X12013039Y-14433984D02*
X11993991Y-14424460D01*
X11993991Y-14424460D02*
X11984467Y-14414936D01*
X11984467Y-14414936D02*
X11974943Y-14395888D01*
X11974943Y-14395888D02*
X11965420Y-14357793D01*
X11965420Y-14357793D02*
X11965420Y-14310174D01*
X11965420Y-14310174D02*
X11974943Y-14272079D01*
X11974943Y-14272079D02*
X11984467Y-14253031D01*
X11984467Y-14253031D02*
X11993991Y-14243508D01*
X11993991Y-14243508D02*
X12013039Y-14233984D01*
X12165420Y-14433984D02*
X12165420Y-14300650D01*
X12165420Y-14319698D02*
X12174943Y-14310174D01*
X12174943Y-14310174D02*
X12193991Y-14300650D01*
X12193991Y-14300650D02*
X12222563Y-14300650D01*
X12222563Y-14300650D02*
X12241610Y-14310174D01*
X12241610Y-14310174D02*
X12251134Y-14329222D01*
X12251134Y-14329222D02*
X12251134Y-14433984D01*
X12251134Y-14329222D02*
X12260658Y-14310174D01*
X12260658Y-14310174D02*
X12279705Y-14300650D01*
X12279705Y-14300650D02*
X12308277Y-14300650D01*
X12308277Y-14300650D02*
X12327324Y-14310174D01*
X12327324Y-14310174D02*
X12336848Y-14329222D01*
X12336848Y-14329222D02*
X12336848Y-14433984D01*
X12432086Y-14433984D02*
X12432086Y-14300650D01*
X12432086Y-14319698D02*
X12441610Y-14310174D01*
X12441610Y-14310174D02*
X12460658Y-14300650D01*
X12460658Y-14300650D02*
X12489229Y-14300650D01*
X12489229Y-14300650D02*
X12508277Y-14310174D01*
X12508277Y-14310174D02*
X12517801Y-14329222D01*
X12517801Y-14329222D02*
X12517801Y-14433984D01*
X12517801Y-14329222D02*
X12527324Y-14310174D01*
X12527324Y-14310174D02*
X12546372Y-14300650D01*
X12546372Y-14300650D02*
X12574943Y-14300650D01*
X12574943Y-14300650D02*
X12593991Y-14310174D01*
X12593991Y-14310174D02*
X12603515Y-14329222D01*
X12603515Y-14329222D02*
X12603515Y-14433984D01*
X12993991Y-14224460D02*
X12822563Y-14481603D01*
X13251134Y-14233984D02*
X13270182Y-14233984D01*
X13270182Y-14233984D02*
X13289229Y-14243508D01*
X13289229Y-14243508D02*
X13298753Y-14253031D01*
X13298753Y-14253031D02*
X13308277Y-14272079D01*
X13308277Y-14272079D02*
X13317801Y-14310174D01*
X13317801Y-14310174D02*
X13317801Y-14357793D01*
X13317801Y-14357793D02*
X13308277Y-14395888D01*
X13308277Y-14395888D02*
X13298753Y-14414936D01*
X13298753Y-14414936D02*
X13289229Y-14424460D01*
X13289229Y-14424460D02*
X13270182Y-14433984D01*
X13270182Y-14433984D02*
X13251134Y-14433984D01*
X13251134Y-14433984D02*
X13232086Y-14424460D01*
X13232086Y-14424460D02*
X13222563Y-14414936D01*
X13222563Y-14414936D02*
X13213039Y-14395888D01*
X13213039Y-14395888D02*
X13203515Y-14357793D01*
X13203515Y-14357793D02*
X13203515Y-14310174D01*
X13203515Y-14310174D02*
X13213039Y-14272079D01*
X13213039Y-14272079D02*
X13222563Y-14253031D01*
X13222563Y-14253031D02*
X13232086Y-14243508D01*
X13232086Y-14243508D02*
X13251134Y-14233984D01*
X13403515Y-14414936D02*
X13413039Y-14424460D01*
X13413039Y-14424460D02*
X13403515Y-14433984D01*
X13403515Y-14433984D02*
X13393991Y-14424460D01*
X13393991Y-14424460D02*
X13403515Y-14414936D01*
X13403515Y-14414936D02*
X13403515Y-14433984D01*
X13603515Y-14433984D02*
X13489229Y-14433984D01*
X13546372Y-14433984D02*
X13546372Y-14233984D01*
X13546372Y-14233984D02*
X13527325Y-14262555D01*
X13527325Y-14262555D02*
X13508277Y-14281603D01*
X13508277Y-14281603D02*
X13489229Y-14291127D01*
X13670182Y-14233984D02*
X13793991Y-14233984D01*
X13793991Y-14233984D02*
X13727325Y-14310174D01*
X13727325Y-14310174D02*
X13755896Y-14310174D01*
X13755896Y-14310174D02*
X13774944Y-14319698D01*
X13774944Y-14319698D02*
X13784467Y-14329222D01*
X13784467Y-14329222D02*
X13793991Y-14348269D01*
X13793991Y-14348269D02*
X13793991Y-14395888D01*
X13793991Y-14395888D02*
X13784467Y-14414936D01*
X13784467Y-14414936D02*
X13774944Y-14424460D01*
X13774944Y-14424460D02*
X13755896Y-14433984D01*
X13755896Y-14433984D02*
X13698753Y-14433984D01*
X13698753Y-14433984D02*
X13679706Y-14424460D01*
X13679706Y-14424460D02*
X13670182Y-14414936D01*
X13860658Y-14233984D02*
X13993991Y-14233984D01*
X13993991Y-14233984D02*
X13908277Y-14433984D01*
X14098753Y-14319698D02*
X14079706Y-14310174D01*
X14079706Y-14310174D02*
X14070182Y-14300650D01*
X14070182Y-14300650D02*
X14060658Y-14281603D01*
X14060658Y-14281603D02*
X14060658Y-14272079D01*
X14060658Y-14272079D02*
X14070182Y-14253031D01*
X14070182Y-14253031D02*
X14079706Y-14243508D01*
X14079706Y-14243508D02*
X14098753Y-14233984D01*
X14098753Y-14233984D02*
X14136848Y-14233984D01*
X14136848Y-14233984D02*
X14155896Y-14243508D01*
X14155896Y-14243508D02*
X14165420Y-14253031D01*
X14165420Y-14253031D02*
X14174944Y-14272079D01*
X14174944Y-14272079D02*
X14174944Y-14281603D01*
X14174944Y-14281603D02*
X14165420Y-14300650D01*
X14165420Y-14300650D02*
X14155896Y-14310174D01*
X14155896Y-14310174D02*
X14136848Y-14319698D01*
X14136848Y-14319698D02*
X14098753Y-14319698D01*
X14098753Y-14319698D02*
X14079706Y-14329222D01*
X14079706Y-14329222D02*
X14070182Y-14338746D01*
X14070182Y-14338746D02*
X14060658Y-14357793D01*
X14060658Y-14357793D02*
X14060658Y-14395888D01*
X14060658Y-14395888D02*
X14070182Y-14414936D01*
X14070182Y-14414936D02*
X14079706Y-14424460D01*
X14079706Y-14424460D02*
X14098753Y-14433984D01*
X14098753Y-14433984D02*
X14136848Y-14433984D01*
X14136848Y-14433984D02*
X14155896Y-14424460D01*
X14155896Y-14424460D02*
X14165420Y-14414936D01*
X14165420Y-14414936D02*
X14174944Y-14395888D01*
X14174944Y-14395888D02*
X14174944Y-14357793D01*
X14174944Y-14357793D02*
X14165420Y-14338746D01*
X14165420Y-14338746D02*
X14155896Y-14329222D01*
X14155896Y-14329222D02*
X14136848Y-14319698D01*
X14251134Y-14233984D02*
X14251134Y-14272079D01*
X14327325Y-14233984D02*
X14327325Y-14272079D01*
X14622563Y-14510174D02*
X14613039Y-14500650D01*
X14613039Y-14500650D02*
X14593991Y-14472079D01*
X14593991Y-14472079D02*
X14584468Y-14453031D01*
X14584468Y-14453031D02*
X14574944Y-14424460D01*
X14574944Y-14424460D02*
X14565420Y-14376841D01*
X14565420Y-14376841D02*
X14565420Y-14338746D01*
X14565420Y-14338746D02*
X14574944Y-14291127D01*
X14574944Y-14291127D02*
X14584468Y-14262555D01*
X14584468Y-14262555D02*
X14593991Y-14243508D01*
X14593991Y-14243508D02*
X14613039Y-14214936D01*
X14613039Y-14214936D02*
X14622563Y-14205412D01*
X14793991Y-14233984D02*
X14698753Y-14233984D01*
X14698753Y-14233984D02*
X14689229Y-14329222D01*
X14689229Y-14329222D02*
X14698753Y-14319698D01*
X14698753Y-14319698D02*
X14717801Y-14310174D01*
X14717801Y-14310174D02*
X14765420Y-14310174D01*
X14765420Y-14310174D02*
X14784468Y-14319698D01*
X14784468Y-14319698D02*
X14793991Y-14329222D01*
X14793991Y-14329222D02*
X14803515Y-14348269D01*
X14803515Y-14348269D02*
X14803515Y-14395888D01*
X14803515Y-14395888D02*
X14793991Y-14414936D01*
X14793991Y-14414936D02*
X14784468Y-14424460D01*
X14784468Y-14424460D02*
X14765420Y-14433984D01*
X14765420Y-14433984D02*
X14717801Y-14433984D01*
X14717801Y-14433984D02*
X14698753Y-14424460D01*
X14698753Y-14424460D02*
X14689229Y-14414936D01*
X15041610Y-14433984D02*
X15041610Y-14233984D01*
X15127325Y-14433984D02*
X15127325Y-14329222D01*
X15127325Y-14329222D02*
X15117801Y-14310174D01*
X15117801Y-14310174D02*
X15098753Y-14300650D01*
X15098753Y-14300650D02*
X15070182Y-14300650D01*
X15070182Y-14300650D02*
X15051134Y-14310174D01*
X15051134Y-14310174D02*
X15041610Y-14319698D01*
X15251134Y-14433984D02*
X15232087Y-14424460D01*
X15232087Y-14424460D02*
X15222563Y-14414936D01*
X15222563Y-14414936D02*
X15213039Y-14395888D01*
X15213039Y-14395888D02*
X15213039Y-14338746D01*
X15213039Y-14338746D02*
X15222563Y-14319698D01*
X15222563Y-14319698D02*
X15232087Y-14310174D01*
X15232087Y-14310174D02*
X15251134Y-14300650D01*
X15251134Y-14300650D02*
X15279706Y-14300650D01*
X15279706Y-14300650D02*
X15298753Y-14310174D01*
X15298753Y-14310174D02*
X15308277Y-14319698D01*
X15308277Y-14319698D02*
X15317801Y-14338746D01*
X15317801Y-14338746D02*
X15317801Y-14395888D01*
X15317801Y-14395888D02*
X15308277Y-14414936D01*
X15308277Y-14414936D02*
X15298753Y-14424460D01*
X15298753Y-14424460D02*
X15279706Y-14433984D01*
X15279706Y-14433984D02*
X15251134Y-14433984D01*
X15432087Y-14433984D02*
X15413039Y-14424460D01*
X15413039Y-14424460D02*
X15403515Y-14405412D01*
X15403515Y-14405412D02*
X15403515Y-14233984D01*
X15584468Y-14424460D02*
X15565420Y-14433984D01*
X15565420Y-14433984D02*
X15527325Y-14433984D01*
X15527325Y-14433984D02*
X15508277Y-14424460D01*
X15508277Y-14424460D02*
X15498753Y-14405412D01*
X15498753Y-14405412D02*
X15498753Y-14329222D01*
X15498753Y-14329222D02*
X15508277Y-14310174D01*
X15508277Y-14310174D02*
X15527325Y-14300650D01*
X15527325Y-14300650D02*
X15565420Y-14300650D01*
X15565420Y-14300650D02*
X15584468Y-14310174D01*
X15584468Y-14310174D02*
X15593991Y-14329222D01*
X15593991Y-14329222D02*
X15593991Y-14348269D01*
X15593991Y-14348269D02*
X15498753Y-14367317D01*
X15670182Y-14424460D02*
X15689230Y-14433984D01*
X15689230Y-14433984D02*
X15727325Y-14433984D01*
X15727325Y-14433984D02*
X15746372Y-14424460D01*
X15746372Y-14424460D02*
X15755896Y-14405412D01*
X15755896Y-14405412D02*
X15755896Y-14395888D01*
X15755896Y-14395888D02*
X15746372Y-14376841D01*
X15746372Y-14376841D02*
X15727325Y-14367317D01*
X15727325Y-14367317D02*
X15698753Y-14367317D01*
X15698753Y-14367317D02*
X15679706Y-14357793D01*
X15679706Y-14357793D02*
X15670182Y-14338746D01*
X15670182Y-14338746D02*
X15670182Y-14329222D01*
X15670182Y-14329222D02*
X15679706Y-14310174D01*
X15679706Y-14310174D02*
X15698753Y-14300650D01*
X15698753Y-14300650D02*
X15727325Y-14300650D01*
X15727325Y-14300650D02*
X15746372Y-14310174D01*
X15822563Y-14510174D02*
X15832087Y-14500650D01*
X15832087Y-14500650D02*
X15851134Y-14472079D01*
X15851134Y-14472079D02*
X15860658Y-14453031D01*
X15860658Y-14453031D02*
X15870182Y-14424460D01*
X15870182Y-14424460D02*
X15879706Y-14376841D01*
X15879706Y-14376841D02*
X15879706Y-14338746D01*
X15879706Y-14338746D02*
X15870182Y-14291127D01*
X15870182Y-14291127D02*
X15860658Y-14262555D01*
X15860658Y-14262555D02*
X15851134Y-14243508D01*
X15851134Y-14243508D02*
X15832087Y-14214936D01*
X15832087Y-14214936D02*
X15822563Y-14205412D01*
X16184468Y-14510174D02*
X16174944Y-14500650D01*
X16174944Y-14500650D02*
X16155896Y-14472079D01*
X16155896Y-14472079D02*
X16146372Y-14453031D01*
X16146372Y-14453031D02*
X16136849Y-14424460D01*
X16136849Y-14424460D02*
X16127325Y-14376841D01*
X16127325Y-14376841D02*
X16127325Y-14338746D01*
X16127325Y-14338746D02*
X16136849Y-14291127D01*
X16136849Y-14291127D02*
X16146372Y-14262555D01*
X16146372Y-14262555D02*
X16155896Y-14243508D01*
X16155896Y-14243508D02*
X16174944Y-14214936D01*
X16174944Y-14214936D02*
X16184468Y-14205412D01*
X16260658Y-14300650D02*
X16260658Y-14433984D01*
X16260658Y-14319698D02*
X16270182Y-14310174D01*
X16270182Y-14310174D02*
X16289230Y-14300650D01*
X16289230Y-14300650D02*
X16317801Y-14300650D01*
X16317801Y-14300650D02*
X16336849Y-14310174D01*
X16336849Y-14310174D02*
X16346372Y-14329222D01*
X16346372Y-14329222D02*
X16346372Y-14433984D01*
X16470182Y-14433984D02*
X16451134Y-14424460D01*
X16451134Y-14424460D02*
X16441611Y-14414936D01*
X16441611Y-14414936D02*
X16432087Y-14395888D01*
X16432087Y-14395888D02*
X16432087Y-14338746D01*
X16432087Y-14338746D02*
X16441611Y-14319698D01*
X16441611Y-14319698D02*
X16451134Y-14310174D01*
X16451134Y-14310174D02*
X16470182Y-14300650D01*
X16470182Y-14300650D02*
X16498753Y-14300650D01*
X16498753Y-14300650D02*
X16517801Y-14310174D01*
X16517801Y-14310174D02*
X16527325Y-14319698D01*
X16527325Y-14319698D02*
X16536849Y-14338746D01*
X16536849Y-14338746D02*
X16536849Y-14395888D01*
X16536849Y-14395888D02*
X16527325Y-14414936D01*
X16527325Y-14414936D02*
X16517801Y-14424460D01*
X16517801Y-14424460D02*
X16498753Y-14433984D01*
X16498753Y-14433984D02*
X16470182Y-14433984D01*
X16593992Y-14300650D02*
X16670182Y-14300650D01*
X16622563Y-14233984D02*
X16622563Y-14405412D01*
X16622563Y-14405412D02*
X16632087Y-14424460D01*
X16632087Y-14424460D02*
X16651134Y-14433984D01*
X16651134Y-14433984D02*
X16670182Y-14433984D01*
X16889230Y-14300650D02*
X16889230Y-14500650D01*
X16889230Y-14310174D02*
X16908277Y-14300650D01*
X16908277Y-14300650D02*
X16946373Y-14300650D01*
X16946373Y-14300650D02*
X16965420Y-14310174D01*
X16965420Y-14310174D02*
X16974944Y-14319698D01*
X16974944Y-14319698D02*
X16984468Y-14338746D01*
X16984468Y-14338746D02*
X16984468Y-14395888D01*
X16984468Y-14395888D02*
X16974944Y-14414936D01*
X16974944Y-14414936D02*
X16965420Y-14424460D01*
X16965420Y-14424460D02*
X16946373Y-14433984D01*
X16946373Y-14433984D02*
X16908277Y-14433984D01*
X16908277Y-14433984D02*
X16889230Y-14424460D01*
X17098754Y-14433984D02*
X17079706Y-14424460D01*
X17079706Y-14424460D02*
X17070182Y-14405412D01*
X17070182Y-14405412D02*
X17070182Y-14233984D01*
X17260658Y-14433984D02*
X17260658Y-14329222D01*
X17260658Y-14329222D02*
X17251135Y-14310174D01*
X17251135Y-14310174D02*
X17232087Y-14300650D01*
X17232087Y-14300650D02*
X17193992Y-14300650D01*
X17193992Y-14300650D02*
X17174944Y-14310174D01*
X17260658Y-14424460D02*
X17241611Y-14433984D01*
X17241611Y-14433984D02*
X17193992Y-14433984D01*
X17193992Y-14433984D02*
X17174944Y-14424460D01*
X17174944Y-14424460D02*
X17165420Y-14405412D01*
X17165420Y-14405412D02*
X17165420Y-14386365D01*
X17165420Y-14386365D02*
X17174944Y-14367317D01*
X17174944Y-14367317D02*
X17193992Y-14357793D01*
X17193992Y-14357793D02*
X17241611Y-14357793D01*
X17241611Y-14357793D02*
X17260658Y-14348269D01*
X17327325Y-14300650D02*
X17403515Y-14300650D01*
X17355896Y-14233984D02*
X17355896Y-14405412D01*
X17355896Y-14405412D02*
X17365420Y-14424460D01*
X17365420Y-14424460D02*
X17384468Y-14433984D01*
X17384468Y-14433984D02*
X17403515Y-14433984D01*
X17546373Y-14424460D02*
X17527325Y-14433984D01*
X17527325Y-14433984D02*
X17489230Y-14433984D01*
X17489230Y-14433984D02*
X17470182Y-14424460D01*
X17470182Y-14424460D02*
X17460658Y-14405412D01*
X17460658Y-14405412D02*
X17460658Y-14329222D01*
X17460658Y-14329222D02*
X17470182Y-14310174D01*
X17470182Y-14310174D02*
X17489230Y-14300650D01*
X17489230Y-14300650D02*
X17527325Y-14300650D01*
X17527325Y-14300650D02*
X17546373Y-14310174D01*
X17546373Y-14310174D02*
X17555896Y-14329222D01*
X17555896Y-14329222D02*
X17555896Y-14348269D01*
X17555896Y-14348269D02*
X17460658Y-14367317D01*
X17727325Y-14433984D02*
X17727325Y-14233984D01*
X17727325Y-14424460D02*
X17708277Y-14433984D01*
X17708277Y-14433984D02*
X17670182Y-14433984D01*
X17670182Y-14433984D02*
X17651135Y-14424460D01*
X17651135Y-14424460D02*
X17641611Y-14414936D01*
X17641611Y-14414936D02*
X17632087Y-14395888D01*
X17632087Y-14395888D02*
X17632087Y-14338746D01*
X17632087Y-14338746D02*
X17641611Y-14319698D01*
X17641611Y-14319698D02*
X17651135Y-14310174D01*
X17651135Y-14310174D02*
X17670182Y-14300650D01*
X17670182Y-14300650D02*
X17708277Y-14300650D01*
X17708277Y-14300650D02*
X17727325Y-14310174D01*
X17803516Y-14510174D02*
X17813039Y-14500650D01*
X17813039Y-14500650D02*
X17832087Y-14472079D01*
X17832087Y-14472079D02*
X17841611Y-14453031D01*
X17841611Y-14453031D02*
X17851135Y-14424460D01*
X17851135Y-14424460D02*
X17860658Y-14376841D01*
X17860658Y-14376841D02*
X17860658Y-14338746D01*
X17860658Y-14338746D02*
X17851135Y-14291127D01*
X17851135Y-14291127D02*
X17841611Y-14262555D01*
X17841611Y-14262555D02*
X17832087Y-14243508D01*
X17832087Y-14243508D02*
X17813039Y-14214936D01*
X17813039Y-14214936D02*
X17803516Y-14205412D01*
M02*
