G04 #@! TF.GenerationSoftware,KiCad,Pcbnew,(5.1.9-0-10_14)*
G04 #@! TF.CreationDate,2021-10-14T15:51:02+11:00*
G04 #@! TF.ProjectId,MAP Card,4d415020-4361-4726-942e-6b696361645f,rev?*
G04 #@! TF.SameCoordinates,Original*
G04 #@! TF.FileFunction,Legend,Bot*
G04 #@! TF.FilePolarity,Positive*
%FSLAX46Y46*%
G04 Gerber Fmt 4.6, Leading zero omitted, Abs format (unit mm)*
G04 Created by KiCad (PCBNEW (5.1.9-0-10_14)) date 2021-10-14 15:51:02*
%MOMM*%
%LPD*%
G01*
G04 APERTURE LIST*
%ADD10C,0.150000*%
G04 APERTURE END LIST*
D10*
X157646142Y-98925571D02*
X157979476Y-98925571D01*
X157979476Y-99449380D02*
X157979476Y-98449380D01*
X157503285Y-98449380D01*
X156979476Y-99449380D02*
X157074714Y-99401761D01*
X157122333Y-99354142D01*
X157169952Y-99258904D01*
X157169952Y-98973190D01*
X157122333Y-98877952D01*
X157074714Y-98830333D01*
X156979476Y-98782714D01*
X156836619Y-98782714D01*
X156741380Y-98830333D01*
X156693761Y-98877952D01*
X156646142Y-98973190D01*
X156646142Y-99258904D01*
X156693761Y-99354142D01*
X156741380Y-99401761D01*
X156836619Y-99449380D01*
X156979476Y-99449380D01*
X156217571Y-99449380D02*
X156217571Y-98782714D01*
X156217571Y-98973190D02*
X156169952Y-98877952D01*
X156122333Y-98830333D01*
X156027095Y-98782714D01*
X155931857Y-98782714D01*
X154836619Y-99449380D02*
X154836619Y-98449380D01*
X154598523Y-98449380D01*
X154455666Y-98497000D01*
X154360428Y-98592238D01*
X154312809Y-98687476D01*
X154265190Y-98877952D01*
X154265190Y-99020809D01*
X154312809Y-99211285D01*
X154360428Y-99306523D01*
X154455666Y-99401761D01*
X154598523Y-99449380D01*
X154836619Y-99449380D01*
X153836619Y-99449380D02*
X153836619Y-98782714D01*
X153836619Y-98973190D02*
X153789000Y-98877952D01*
X153741380Y-98830333D01*
X153646142Y-98782714D01*
X153550904Y-98782714D01*
X153074714Y-99449380D02*
X153169952Y-99401761D01*
X153217571Y-99354142D01*
X153265190Y-99258904D01*
X153265190Y-98973190D01*
X153217571Y-98877952D01*
X153169952Y-98830333D01*
X153074714Y-98782714D01*
X152931857Y-98782714D01*
X152836619Y-98830333D01*
X152789000Y-98877952D01*
X152741380Y-98973190D01*
X152741380Y-99258904D01*
X152789000Y-99354142D01*
X152836619Y-99401761D01*
X152931857Y-99449380D01*
X153074714Y-99449380D01*
X152312809Y-98782714D02*
X152312809Y-99782714D01*
X152312809Y-98830333D02*
X152217571Y-98782714D01*
X152027095Y-98782714D01*
X151931857Y-98830333D01*
X151884238Y-98877952D01*
X151836619Y-98973190D01*
X151836619Y-99258904D01*
X151884238Y-99354142D01*
X151931857Y-99401761D01*
X152027095Y-99449380D01*
X152217571Y-99449380D01*
X152312809Y-99401761D01*
X151408047Y-99449380D02*
X151408047Y-98449380D01*
X151408047Y-98830333D02*
X151312809Y-98782714D01*
X151122333Y-98782714D01*
X151027095Y-98830333D01*
X150979476Y-98877952D01*
X150931857Y-98973190D01*
X150931857Y-99258904D01*
X150979476Y-99354142D01*
X151027095Y-99401761D01*
X151122333Y-99449380D01*
X151312809Y-99449380D01*
X151408047Y-99401761D01*
X150122333Y-99401761D02*
X150217571Y-99449380D01*
X150408047Y-99449380D01*
X150503285Y-99401761D01*
X150550904Y-99306523D01*
X150550904Y-98925571D01*
X150503285Y-98830333D01*
X150408047Y-98782714D01*
X150217571Y-98782714D01*
X150122333Y-98830333D01*
X150074714Y-98925571D01*
X150074714Y-99020809D01*
X150550904Y-99116047D01*
X149217571Y-99449380D02*
X149217571Y-98925571D01*
X149265190Y-98830333D01*
X149360428Y-98782714D01*
X149550904Y-98782714D01*
X149646142Y-98830333D01*
X149217571Y-99401761D02*
X149312809Y-99449380D01*
X149550904Y-99449380D01*
X149646142Y-99401761D01*
X149693761Y-99306523D01*
X149693761Y-99211285D01*
X149646142Y-99116047D01*
X149550904Y-99068428D01*
X149312809Y-99068428D01*
X149217571Y-99020809D01*
X148741380Y-99449380D02*
X148741380Y-98782714D01*
X148741380Y-98973190D02*
X148693761Y-98877952D01*
X148646142Y-98830333D01*
X148550904Y-98782714D01*
X148455666Y-98782714D01*
X158312809Y-100337476D02*
X158408047Y-100289857D01*
X158598523Y-100289857D01*
X158693761Y-100337476D01*
X158789000Y-100432714D01*
X158836619Y-100527952D01*
X158836619Y-100718428D01*
X158789000Y-100813666D01*
X158693761Y-100908904D01*
X158598523Y-100956523D01*
X158408047Y-100956523D01*
X158312809Y-100908904D01*
X158503285Y-99956523D02*
X158741380Y-100004142D01*
X158979476Y-100147000D01*
X159122333Y-100385095D01*
X159169952Y-100623190D01*
X159122333Y-100861285D01*
X158979476Y-101099380D01*
X158741380Y-101242238D01*
X158503285Y-101289857D01*
X158265190Y-101242238D01*
X158027095Y-101099380D01*
X157884238Y-100861285D01*
X157836619Y-100623190D01*
X157884238Y-100385095D01*
X158027095Y-100147000D01*
X158265190Y-100004142D01*
X158503285Y-99956523D01*
X156360428Y-100099380D02*
X156360428Y-100813666D01*
X156408047Y-100956523D01*
X156503285Y-101051761D01*
X156646142Y-101099380D01*
X156741380Y-101099380D01*
X155741380Y-101099380D02*
X155836619Y-101051761D01*
X155884238Y-101004142D01*
X155931857Y-100908904D01*
X155931857Y-100623190D01*
X155884238Y-100527952D01*
X155836619Y-100480333D01*
X155741380Y-100432714D01*
X155598523Y-100432714D01*
X155503285Y-100480333D01*
X155455666Y-100527952D01*
X155408047Y-100623190D01*
X155408047Y-100908904D01*
X155455666Y-101004142D01*
X155503285Y-101051761D01*
X155598523Y-101099380D01*
X155741380Y-101099380D01*
X155027095Y-101051761D02*
X154931857Y-101099380D01*
X154741380Y-101099380D01*
X154646142Y-101051761D01*
X154598523Y-100956523D01*
X154598523Y-100908904D01*
X154646142Y-100813666D01*
X154741380Y-100766047D01*
X154884238Y-100766047D01*
X154979476Y-100718428D01*
X155027095Y-100623190D01*
X155027095Y-100575571D01*
X154979476Y-100480333D01*
X154884238Y-100432714D01*
X154741380Y-100432714D01*
X154646142Y-100480333D01*
X154169952Y-101099380D02*
X154169952Y-100099380D01*
X153741380Y-101099380D02*
X153741380Y-100575571D01*
X153789000Y-100480333D01*
X153884238Y-100432714D01*
X154027095Y-100432714D01*
X154122333Y-100480333D01*
X154169952Y-100527952D01*
X152550904Y-101051761D02*
X152408047Y-101099380D01*
X152169952Y-101099380D01*
X152074714Y-101051761D01*
X152027095Y-101004142D01*
X151979476Y-100908904D01*
X151979476Y-100813666D01*
X152027095Y-100718428D01*
X152074714Y-100670809D01*
X152169952Y-100623190D01*
X152360428Y-100575571D01*
X152455666Y-100527952D01*
X152503285Y-100480333D01*
X152550904Y-100385095D01*
X152550904Y-100289857D01*
X152503285Y-100194619D01*
X152455666Y-100147000D01*
X152360428Y-100099380D01*
X152122333Y-100099380D01*
X151979476Y-100147000D01*
X151693761Y-100432714D02*
X151312809Y-100432714D01*
X151550904Y-100099380D02*
X151550904Y-100956523D01*
X151503285Y-101051761D01*
X151408047Y-101099380D01*
X151312809Y-101099380D01*
X150598523Y-101051761D02*
X150693761Y-101099380D01*
X150884238Y-101099380D01*
X150979476Y-101051761D01*
X151027095Y-100956523D01*
X151027095Y-100575571D01*
X150979476Y-100480333D01*
X150884238Y-100432714D01*
X150693761Y-100432714D01*
X150598523Y-100480333D01*
X150550904Y-100575571D01*
X150550904Y-100670809D01*
X151027095Y-100766047D01*
X150217571Y-100432714D02*
X150027095Y-101099380D01*
X149836619Y-100623190D01*
X149646142Y-101099380D01*
X149455666Y-100432714D01*
X148646142Y-101099380D02*
X148646142Y-100575571D01*
X148693761Y-100480333D01*
X148789000Y-100432714D01*
X148979476Y-100432714D01*
X149074714Y-100480333D01*
X148646142Y-101051761D02*
X148741380Y-101099380D01*
X148979476Y-101099380D01*
X149074714Y-101051761D01*
X149122333Y-100956523D01*
X149122333Y-100861285D01*
X149074714Y-100766047D01*
X148979476Y-100718428D01*
X148741380Y-100718428D01*
X148646142Y-100670809D01*
X148169952Y-101099380D02*
X148169952Y-100432714D01*
X148169952Y-100623190D02*
X148122333Y-100527952D01*
X148074714Y-100480333D01*
X147979476Y-100432714D01*
X147884238Y-100432714D01*
X147693761Y-100432714D02*
X147312809Y-100432714D01*
X147550904Y-100099380D02*
X147550904Y-100956523D01*
X147503285Y-101051761D01*
X147408047Y-101099380D01*
X147312809Y-101099380D01*
X162876333Y-96448619D02*
X162828714Y-96401000D01*
X162733476Y-96353380D01*
X162495380Y-96353380D01*
X162400142Y-96401000D01*
X162352523Y-96448619D01*
X162304904Y-96543857D01*
X162304904Y-96639095D01*
X162352523Y-96781952D01*
X162923952Y-97353380D01*
X162304904Y-97353380D01*
X161400142Y-96353380D02*
X161876333Y-96353380D01*
X161923952Y-96829571D01*
X161876333Y-96781952D01*
X161781095Y-96734333D01*
X161543000Y-96734333D01*
X161447761Y-96781952D01*
X161400142Y-96829571D01*
X161352523Y-96924809D01*
X161352523Y-97162904D01*
X161400142Y-97258142D01*
X161447761Y-97305761D01*
X161543000Y-97353380D01*
X161781095Y-97353380D01*
X161876333Y-97305761D01*
X161923952Y-97258142D01*
X160733476Y-96353380D02*
X160638238Y-96353380D01*
X160543000Y-96401000D01*
X160495380Y-96448619D01*
X160447761Y-96543857D01*
X160400142Y-96734333D01*
X160400142Y-96972428D01*
X160447761Y-97162904D01*
X160495380Y-97258142D01*
X160543000Y-97305761D01*
X160638238Y-97353380D01*
X160733476Y-97353380D01*
X160828714Y-97305761D01*
X160876333Y-97258142D01*
X160923952Y-97162904D01*
X160971571Y-96972428D01*
X160971571Y-96734333D01*
X160923952Y-96543857D01*
X160876333Y-96448619D01*
X160828714Y-96401000D01*
X160733476Y-96353380D01*
X159971571Y-97353380D02*
X159971571Y-96353380D01*
X159876333Y-96972428D02*
X159590619Y-97353380D01*
X159590619Y-96686714D02*
X159971571Y-97067666D01*
X159162047Y-97353380D02*
X159162047Y-96353380D01*
X158781095Y-96353380D01*
X158685857Y-96401000D01*
X158638238Y-96448619D01*
X158590619Y-96543857D01*
X158590619Y-96686714D01*
X158638238Y-96781952D01*
X158685857Y-96829571D01*
X158781095Y-96877190D01*
X159162047Y-96877190D01*
X157733476Y-97353380D02*
X157733476Y-96829571D01*
X157781095Y-96734333D01*
X157876333Y-96686714D01*
X158066809Y-96686714D01*
X158162047Y-96734333D01*
X157733476Y-97305761D02*
X157828714Y-97353380D01*
X158066809Y-97353380D01*
X158162047Y-97305761D01*
X158209666Y-97210523D01*
X158209666Y-97115285D01*
X158162047Y-97020047D01*
X158066809Y-96972428D01*
X157828714Y-96972428D01*
X157733476Y-96924809D01*
X156495380Y-97353380D02*
X156495380Y-96353380D01*
X156162047Y-97067666D01*
X155828714Y-96353380D01*
X155828714Y-97353380D01*
X155400142Y-97067666D02*
X154923952Y-97067666D01*
X155495380Y-97353380D02*
X155162047Y-96353380D01*
X154828714Y-97353380D01*
X154495380Y-97353380D02*
X154495380Y-96353380D01*
X154114428Y-96353380D01*
X154019190Y-96401000D01*
X153971571Y-96448619D01*
X153923952Y-96543857D01*
X153923952Y-96686714D01*
X153971571Y-96781952D01*
X154019190Y-96829571D01*
X154114428Y-96877190D01*
X154495380Y-96877190D01*
X152781095Y-97305761D02*
X152638238Y-97353380D01*
X152400142Y-97353380D01*
X152304904Y-97305761D01*
X152257285Y-97258142D01*
X152209666Y-97162904D01*
X152209666Y-97067666D01*
X152257285Y-96972428D01*
X152304904Y-96924809D01*
X152400142Y-96877190D01*
X152590619Y-96829571D01*
X152685857Y-96781952D01*
X152733476Y-96734333D01*
X152781095Y-96639095D01*
X152781095Y-96543857D01*
X152733476Y-96448619D01*
X152685857Y-96401000D01*
X152590619Y-96353380D01*
X152352523Y-96353380D01*
X152209666Y-96401000D01*
X151400142Y-97305761D02*
X151495380Y-97353380D01*
X151685857Y-97353380D01*
X151781095Y-97305761D01*
X151828714Y-97210523D01*
X151828714Y-96829571D01*
X151781095Y-96734333D01*
X151685857Y-96686714D01*
X151495380Y-96686714D01*
X151400142Y-96734333D01*
X151352523Y-96829571D01*
X151352523Y-96924809D01*
X151828714Y-97020047D01*
X150923952Y-96686714D02*
X150923952Y-97353380D01*
X150923952Y-96781952D02*
X150876333Y-96734333D01*
X150781095Y-96686714D01*
X150638238Y-96686714D01*
X150543000Y-96734333D01*
X150495380Y-96829571D01*
X150495380Y-97353380D01*
X150066809Y-97305761D02*
X149971571Y-97353380D01*
X149781095Y-97353380D01*
X149685857Y-97305761D01*
X149638238Y-97210523D01*
X149638238Y-97162904D01*
X149685857Y-97067666D01*
X149781095Y-97020047D01*
X149923952Y-97020047D01*
X150019190Y-96972428D01*
X150066809Y-96877190D01*
X150066809Y-96829571D01*
X150019190Y-96734333D01*
X149923952Y-96686714D01*
X149781095Y-96686714D01*
X149685857Y-96734333D01*
X149066809Y-97353380D02*
X149162047Y-97305761D01*
X149209666Y-97258142D01*
X149257285Y-97162904D01*
X149257285Y-96877190D01*
X149209666Y-96781952D01*
X149162047Y-96734333D01*
X149066809Y-96686714D01*
X148923952Y-96686714D01*
X148828714Y-96734333D01*
X148781095Y-96781952D01*
X148733476Y-96877190D01*
X148733476Y-97162904D01*
X148781095Y-97258142D01*
X148828714Y-97305761D01*
X148923952Y-97353380D01*
X149066809Y-97353380D01*
X148304904Y-97353380D02*
X148304904Y-96686714D01*
X148304904Y-96877190D02*
X148257285Y-96781952D01*
X148209666Y-96734333D01*
X148114428Y-96686714D01*
X148019190Y-96686714D01*
X147019190Y-96686714D02*
X146781095Y-97353380D01*
X146543000Y-96686714D01*
X145971571Y-96353380D02*
X145876333Y-96353380D01*
X145781095Y-96401000D01*
X145733476Y-96448619D01*
X145685857Y-96543857D01*
X145638238Y-96734333D01*
X145638238Y-96972428D01*
X145685857Y-97162904D01*
X145733476Y-97258142D01*
X145781095Y-97305761D01*
X145876333Y-97353380D01*
X145971571Y-97353380D01*
X146066809Y-97305761D01*
X146114428Y-97258142D01*
X146162047Y-97162904D01*
X146209666Y-96972428D01*
X146209666Y-96734333D01*
X146162047Y-96543857D01*
X146114428Y-96448619D01*
X146066809Y-96401000D01*
X145971571Y-96353380D01*
X145209666Y-97258142D02*
X145162047Y-97305761D01*
X145209666Y-97353380D01*
X145257285Y-97305761D01*
X145209666Y-97258142D01*
X145209666Y-97353380D01*
X144781095Y-96448619D02*
X144733476Y-96401000D01*
X144638238Y-96353380D01*
X144400142Y-96353380D01*
X144304904Y-96401000D01*
X144257285Y-96448619D01*
X144209666Y-96543857D01*
X144209666Y-96639095D01*
X144257285Y-96781952D01*
X144828714Y-97353380D01*
X144209666Y-97353380D01*
M02*
