G04 #@! TF.GenerationSoftware,KiCad,Pcbnew,(5.1.9-0-10_14)*
G04 #@! TF.CreationDate,2021-10-14T15:51:02+11:00*
G04 #@! TF.ProjectId,MAP Card,4d415020-4361-4726-942e-6b696361645f,rev?*
G04 #@! TF.SameCoordinates,Original*
G04 #@! TF.FileFunction,Paste,Top*
G04 #@! TF.FilePolarity,Positive*
%FSLAX46Y46*%
G04 Gerber Fmt 4.6, Leading zero omitted, Abs format (unit mm)*
G04 Created by KiCad (PCBNEW (5.1.9-0-10_14)) date 2021-10-14 15:51:02*
%MOMM*%
%LPD*%
G01*
G04 APERTURE LIST*
G04 APERTURE END LIST*
G36*
G01*
X148235500Y-98321000D02*
X148235500Y-98021000D01*
G75*
G02*
X148385500Y-97871000I150000J0D01*
G01*
X149810500Y-97871000D01*
G75*
G02*
X149960500Y-98021000I0J-150000D01*
G01*
X149960500Y-98321000D01*
G75*
G02*
X149810500Y-98471000I-150000J0D01*
G01*
X148385500Y-98471000D01*
G75*
G02*
X148235500Y-98321000I0J150000D01*
G01*
G37*
G36*
G01*
X148235500Y-99591000D02*
X148235500Y-99291000D01*
G75*
G02*
X148385500Y-99141000I150000J0D01*
G01*
X149810500Y-99141000D01*
G75*
G02*
X149960500Y-99291000I0J-150000D01*
G01*
X149960500Y-99591000D01*
G75*
G02*
X149810500Y-99741000I-150000J0D01*
G01*
X148385500Y-99741000D01*
G75*
G02*
X148235500Y-99591000I0J150000D01*
G01*
G37*
G36*
G01*
X148235500Y-100861000D02*
X148235500Y-100561000D01*
G75*
G02*
X148385500Y-100411000I150000J0D01*
G01*
X149810500Y-100411000D01*
G75*
G02*
X149960500Y-100561000I0J-150000D01*
G01*
X149960500Y-100861000D01*
G75*
G02*
X149810500Y-101011000I-150000J0D01*
G01*
X148385500Y-101011000D01*
G75*
G02*
X148235500Y-100861000I0J150000D01*
G01*
G37*
G36*
G01*
X148235500Y-102131000D02*
X148235500Y-101831000D01*
G75*
G02*
X148385500Y-101681000I150000J0D01*
G01*
X149810500Y-101681000D01*
G75*
G02*
X149960500Y-101831000I0J-150000D01*
G01*
X149960500Y-102131000D01*
G75*
G02*
X149810500Y-102281000I-150000J0D01*
G01*
X148385500Y-102281000D01*
G75*
G02*
X148235500Y-102131000I0J150000D01*
G01*
G37*
G36*
G01*
X158395500Y-102131000D02*
X158395500Y-101831000D01*
G75*
G02*
X158545500Y-101681000I150000J0D01*
G01*
X159970500Y-101681000D01*
G75*
G02*
X160120500Y-101831000I0J-150000D01*
G01*
X160120500Y-102131000D01*
G75*
G02*
X159970500Y-102281000I-150000J0D01*
G01*
X158545500Y-102281000D01*
G75*
G02*
X158395500Y-102131000I0J150000D01*
G01*
G37*
G36*
G01*
X158395500Y-100861000D02*
X158395500Y-100561000D01*
G75*
G02*
X158545500Y-100411000I150000J0D01*
G01*
X159970500Y-100411000D01*
G75*
G02*
X160120500Y-100561000I0J-150000D01*
G01*
X160120500Y-100861000D01*
G75*
G02*
X159970500Y-101011000I-150000J0D01*
G01*
X158545500Y-101011000D01*
G75*
G02*
X158395500Y-100861000I0J150000D01*
G01*
G37*
G36*
G01*
X158395500Y-99591000D02*
X158395500Y-99291000D01*
G75*
G02*
X158545500Y-99141000I150000J0D01*
G01*
X159970500Y-99141000D01*
G75*
G02*
X160120500Y-99291000I0J-150000D01*
G01*
X160120500Y-99591000D01*
G75*
G02*
X159970500Y-99741000I-150000J0D01*
G01*
X158545500Y-99741000D01*
G75*
G02*
X158395500Y-99591000I0J150000D01*
G01*
G37*
G36*
G01*
X158415500Y-98321000D02*
X158415500Y-98021000D01*
G75*
G02*
X158565500Y-97871000I150000J0D01*
G01*
X159990500Y-97871000D01*
G75*
G02*
X160140500Y-98021000I0J-150000D01*
G01*
X160140500Y-98321000D01*
G75*
G02*
X159990500Y-98471000I-150000J0D01*
G01*
X158565500Y-98471000D01*
G75*
G02*
X158415500Y-98321000I0J150000D01*
G01*
G37*
G36*
G01*
X161087750Y-98016000D02*
X162000250Y-98016000D01*
G75*
G02*
X162244000Y-98259750I0J-243750D01*
G01*
X162244000Y-98747250D01*
G75*
G02*
X162000250Y-98991000I-243750J0D01*
G01*
X161087750Y-98991000D01*
G75*
G02*
X160844000Y-98747250I0J243750D01*
G01*
X160844000Y-98259750D01*
G75*
G02*
X161087750Y-98016000I243750J0D01*
G01*
G37*
G36*
G01*
X161087750Y-99891000D02*
X162000250Y-99891000D01*
G75*
G02*
X162244000Y-100134750I0J-243750D01*
G01*
X162244000Y-100622250D01*
G75*
G02*
X162000250Y-100866000I-243750J0D01*
G01*
X161087750Y-100866000D01*
G75*
G02*
X160844000Y-100622250I0J243750D01*
G01*
X160844000Y-100134750D01*
G75*
G02*
X161087750Y-99891000I243750J0D01*
G01*
G37*
G36*
G01*
X160840000Y-103048750D02*
X160840000Y-103961250D01*
G75*
G02*
X160596250Y-104205000I-243750J0D01*
G01*
X160108750Y-104205000D01*
G75*
G02*
X159865000Y-103961250I0J243750D01*
G01*
X159865000Y-103048750D01*
G75*
G02*
X160108750Y-102805000I243750J0D01*
G01*
X160596250Y-102805000D01*
G75*
G02*
X160840000Y-103048750I0J-243750D01*
G01*
G37*
G36*
G01*
X162715000Y-103048750D02*
X162715000Y-103961250D01*
G75*
G02*
X162471250Y-104205000I-243750J0D01*
G01*
X161983750Y-104205000D01*
G75*
G02*
X161740000Y-103961250I0J243750D01*
G01*
X161740000Y-103048750D01*
G75*
G02*
X161983750Y-102805000I243750J0D01*
G01*
X162471250Y-102805000D01*
G75*
G02*
X162715000Y-103048750I0J-243750D01*
G01*
G37*
G36*
G01*
X144498000Y-102691250D02*
X144498000Y-101778750D01*
G75*
G02*
X144741750Y-101535000I243750J0D01*
G01*
X145229250Y-101535000D01*
G75*
G02*
X145473000Y-101778750I0J-243750D01*
G01*
X145473000Y-102691250D01*
G75*
G02*
X145229250Y-102935000I-243750J0D01*
G01*
X144741750Y-102935000D01*
G75*
G02*
X144498000Y-102691250I0J243750D01*
G01*
G37*
G36*
G01*
X146373000Y-102691250D02*
X146373000Y-101778750D01*
G75*
G02*
X146616750Y-101535000I243750J0D01*
G01*
X147104250Y-101535000D01*
G75*
G02*
X147348000Y-101778750I0J-243750D01*
G01*
X147348000Y-102691250D01*
G75*
G02*
X147104250Y-102935000I-243750J0D01*
G01*
X146616750Y-102935000D01*
G75*
G02*
X146373000Y-102691250I0J243750D01*
G01*
G37*
G36*
G01*
X147411500Y-97968750D02*
X147411500Y-98881250D01*
G75*
G02*
X147167750Y-99125000I-243750J0D01*
G01*
X146680250Y-99125000D01*
G75*
G02*
X146436500Y-98881250I0J243750D01*
G01*
X146436500Y-97968750D01*
G75*
G02*
X146680250Y-97725000I243750J0D01*
G01*
X147167750Y-97725000D01*
G75*
G02*
X147411500Y-97968750I0J-243750D01*
G01*
G37*
G36*
G01*
X145536500Y-97968750D02*
X145536500Y-98881250D01*
G75*
G02*
X145292750Y-99125000I-243750J0D01*
G01*
X144805250Y-99125000D01*
G75*
G02*
X144561500Y-98881250I0J243750D01*
G01*
X144561500Y-97968750D01*
G75*
G02*
X144805250Y-97725000I243750J0D01*
G01*
X145292750Y-97725000D01*
G75*
G02*
X145536500Y-97968750I0J-243750D01*
G01*
G37*
M02*
