G04 #@! TF.GenerationSoftware,KiCad,Pcbnew,(5.1.4-0-10_14)*
G04 #@! TF.CreationDate,2020-03-30T10:01:39+11:00*
G04 #@! TF.ProjectId,48-pin breakout,34382d70-696e-4206-9272-65616b6f7574,rev?*
G04 #@! TF.SameCoordinates,Original*
G04 #@! TF.FileFunction,Legend,Top*
G04 #@! TF.FilePolarity,Positive*
%FSLAX46Y46*%
G04 Gerber Fmt 4.6, Leading zero omitted, Abs format (unit mm)*
G04 Created by KiCad (PCBNEW (5.1.4-0-10_14)) date 2020-03-30 10:01:39*
%MOMM*%
%LPD*%
G04 APERTURE LIST*
%ADD10C,0.300000*%
%ADD11C,0.120000*%
%ADD12C,0.010000*%
%ADD13C,0.100000*%
%ADD14C,0.200000*%
%ADD15C,0.150000*%
%ADD16C,0.254000*%
G04 APERTURE END LIST*
D10*
X130213571Y-95454285D02*
X128713571Y-95454285D01*
X129785000Y-94954285D01*
X128713571Y-94454285D01*
X130213571Y-94454285D01*
X130213571Y-93740000D02*
X129213571Y-93740000D01*
X128713571Y-93740000D02*
X128785000Y-93811428D01*
X128856428Y-93740000D01*
X128785000Y-93668571D01*
X128713571Y-93740000D01*
X128856428Y-93740000D01*
X130213571Y-92382857D02*
X129427857Y-92382857D01*
X129285000Y-92454285D01*
X129213571Y-92597142D01*
X129213571Y-92882857D01*
X129285000Y-93025714D01*
X130142142Y-92382857D02*
X130213571Y-92525714D01*
X130213571Y-92882857D01*
X130142142Y-93025714D01*
X129999285Y-93097142D01*
X129856428Y-93097142D01*
X129713571Y-93025714D01*
X129642142Y-92882857D01*
X129642142Y-92525714D01*
X129570714Y-92382857D01*
X129213571Y-91882857D02*
X129213571Y-91311428D01*
X128713571Y-91668571D02*
X129999285Y-91668571D01*
X130142142Y-91597142D01*
X130213571Y-91454285D01*
X130213571Y-91311428D01*
X130213571Y-90168571D02*
X129427857Y-90168571D01*
X129285000Y-90240000D01*
X129213571Y-90382857D01*
X129213571Y-90668571D01*
X129285000Y-90811428D01*
X130142142Y-90168571D02*
X130213571Y-90311428D01*
X130213571Y-90668571D01*
X130142142Y-90811428D01*
X129999285Y-90882857D01*
X129856428Y-90882857D01*
X129713571Y-90811428D01*
X129642142Y-90668571D01*
X129642142Y-90311428D01*
X129570714Y-90168571D01*
X128642142Y-87240000D02*
X130570714Y-88525714D01*
X130213571Y-85597142D02*
X128713571Y-85597142D01*
X129785000Y-85097142D01*
X128713571Y-84597142D01*
X130213571Y-84597142D01*
X128713571Y-84025714D02*
X130213571Y-83025714D01*
X128713571Y-83025714D02*
X130213571Y-84025714D01*
X128713571Y-81740000D02*
X128713571Y-82454285D01*
X129427857Y-82525714D01*
X129356428Y-82454285D01*
X129285000Y-82311428D01*
X129285000Y-81954285D01*
X129356428Y-81811428D01*
X129427857Y-81740000D01*
X129570714Y-81668571D01*
X129927857Y-81668571D01*
X130070714Y-81740000D01*
X130142142Y-81811428D01*
X130213571Y-81954285D01*
X130213571Y-82311428D01*
X130142142Y-82454285D01*
X130070714Y-82525714D01*
X129356428Y-79668571D02*
X129285000Y-79811428D01*
X129213571Y-79882857D01*
X129070714Y-79954285D01*
X128999285Y-79954285D01*
X128856428Y-79882857D01*
X128785000Y-79811428D01*
X128713571Y-79668571D01*
X128713571Y-79382857D01*
X128785000Y-79240000D01*
X128856428Y-79168571D01*
X128999285Y-79097142D01*
X129070714Y-79097142D01*
X129213571Y-79168571D01*
X129285000Y-79240000D01*
X129356428Y-79382857D01*
X129356428Y-79668571D01*
X129427857Y-79811428D01*
X129499285Y-79882857D01*
X129642142Y-79954285D01*
X129927857Y-79954285D01*
X130070714Y-79882857D01*
X130142142Y-79811428D01*
X130213571Y-79668571D01*
X130213571Y-79382857D01*
X130142142Y-79240000D01*
X130070714Y-79168571D01*
X129927857Y-79097142D01*
X129642142Y-79097142D01*
X129499285Y-79168571D01*
X129427857Y-79240000D01*
X129356428Y-79382857D01*
X130213571Y-78382857D02*
X130213571Y-78097142D01*
X130142142Y-77954285D01*
X130070714Y-77882857D01*
X129856428Y-77740000D01*
X129570714Y-77668571D01*
X128999285Y-77668571D01*
X128856428Y-77740000D01*
X128785000Y-77811428D01*
X128713571Y-77954285D01*
X128713571Y-78240000D01*
X128785000Y-78382857D01*
X128856428Y-78454285D01*
X128999285Y-78525714D01*
X129356428Y-78525714D01*
X129499285Y-78454285D01*
X129570714Y-78382857D01*
X129642142Y-78240000D01*
X129642142Y-77954285D01*
X129570714Y-77811428D01*
X129499285Y-77740000D01*
X129356428Y-77668571D01*
X129642142Y-77025714D02*
X129642142Y-75882857D01*
X130213571Y-75097142D02*
X130213571Y-74811428D01*
X130142142Y-74668571D01*
X130070714Y-74597142D01*
X129856428Y-74454285D01*
X129570714Y-74382857D01*
X128999285Y-74382857D01*
X128856428Y-74454285D01*
X128785000Y-74525714D01*
X128713571Y-74668571D01*
X128713571Y-74954285D01*
X128785000Y-75097142D01*
X128856428Y-75168571D01*
X128999285Y-75239999D01*
X129356428Y-75239999D01*
X129499285Y-75168571D01*
X129570714Y-75097142D01*
X129642142Y-74954285D01*
X129642142Y-74668571D01*
X129570714Y-74525714D01*
X129499285Y-74454285D01*
X129356428Y-74382857D01*
X128713571Y-73025714D02*
X128713571Y-73740000D01*
X129427857Y-73811428D01*
X129356428Y-73740000D01*
X129285000Y-73597142D01*
X129285000Y-73240000D01*
X129356428Y-73097142D01*
X129427857Y-73025714D01*
X129570714Y-72954285D01*
X129927857Y-72954285D01*
X130070714Y-73025714D01*
X130142142Y-73097142D01*
X130213571Y-73240000D01*
X130213571Y-73597142D01*
X130142142Y-73740000D01*
X130070714Y-73811428D01*
X129427857Y-70668571D02*
X129499285Y-70454285D01*
X129570714Y-70382857D01*
X129713571Y-70311428D01*
X129927857Y-70311428D01*
X130070714Y-70382857D01*
X130142142Y-70454285D01*
X130213571Y-70597142D01*
X130213571Y-71168571D01*
X128713571Y-71168571D01*
X128713571Y-70668571D01*
X128785000Y-70525714D01*
X128856428Y-70454285D01*
X128999285Y-70382857D01*
X129142142Y-70382857D01*
X129285000Y-70454285D01*
X129356428Y-70525714D01*
X129427857Y-70668571D01*
X129427857Y-71168571D01*
X130213571Y-69668571D02*
X129213571Y-69668571D01*
X129499285Y-69668571D02*
X129356428Y-69597142D01*
X129285000Y-69525714D01*
X129213571Y-69382857D01*
X129213571Y-69240000D01*
X130142142Y-68168571D02*
X130213571Y-68311428D01*
X130213571Y-68597142D01*
X130142142Y-68740000D01*
X129999285Y-68811428D01*
X129427857Y-68811428D01*
X129285000Y-68740000D01*
X129213571Y-68597142D01*
X129213571Y-68311428D01*
X129285000Y-68168571D01*
X129427857Y-68097142D01*
X129570714Y-68097142D01*
X129713571Y-68811428D01*
X130213571Y-66811428D02*
X129427857Y-66811428D01*
X129285000Y-66882857D01*
X129213571Y-67025714D01*
X129213571Y-67311428D01*
X129285000Y-67454285D01*
X130142142Y-66811428D02*
X130213571Y-66954285D01*
X130213571Y-67311428D01*
X130142142Y-67454285D01*
X129999285Y-67525714D01*
X129856428Y-67525714D01*
X129713571Y-67454285D01*
X129642142Y-67311428D01*
X129642142Y-66954285D01*
X129570714Y-66811428D01*
X130213571Y-66097142D02*
X128713571Y-66097142D01*
X129642142Y-65954285D02*
X130213571Y-65525714D01*
X129213571Y-65525714D02*
X129785000Y-66097142D01*
X130213571Y-64668571D02*
X130142142Y-64811428D01*
X130070714Y-64882857D01*
X129927857Y-64954285D01*
X129499285Y-64954285D01*
X129356428Y-64882857D01*
X129285000Y-64811428D01*
X129213571Y-64668571D01*
X129213571Y-64454285D01*
X129285000Y-64311428D01*
X129356428Y-64240000D01*
X129499285Y-64168571D01*
X129927857Y-64168571D01*
X130070714Y-64240000D01*
X130142142Y-64311428D01*
X130213571Y-64454285D01*
X130213571Y-64668571D01*
X129213571Y-62882857D02*
X130213571Y-62882857D01*
X129213571Y-63525714D02*
X129999285Y-63525714D01*
X130142142Y-63454285D01*
X130213571Y-63311428D01*
X130213571Y-63097142D01*
X130142142Y-62954285D01*
X130070714Y-62882857D01*
X129213571Y-62382857D02*
X129213571Y-61811428D01*
X128713571Y-62168571D02*
X129999285Y-62168571D01*
X130142142Y-62097142D01*
X130213571Y-61954285D01*
X130213571Y-61811428D01*
X131263571Y-85204285D02*
X132335000Y-85204285D01*
X132549285Y-85275714D01*
X132692142Y-85418571D01*
X132763571Y-85632857D01*
X132763571Y-85775714D01*
X132763571Y-84275714D02*
X132692142Y-84418571D01*
X132620714Y-84490000D01*
X132477857Y-84561428D01*
X132049285Y-84561428D01*
X131906428Y-84490000D01*
X131835000Y-84418571D01*
X131763571Y-84275714D01*
X131763571Y-84061428D01*
X131835000Y-83918571D01*
X131906428Y-83847142D01*
X132049285Y-83775714D01*
X132477857Y-83775714D01*
X132620714Y-83847142D01*
X132692142Y-83918571D01*
X132763571Y-84061428D01*
X132763571Y-84275714D01*
X132692142Y-83204285D02*
X132763571Y-83061428D01*
X132763571Y-82775714D01*
X132692142Y-82632857D01*
X132549285Y-82561428D01*
X132477857Y-82561428D01*
X132335000Y-82632857D01*
X132263571Y-82775714D01*
X132263571Y-82990000D01*
X132192142Y-83132857D01*
X132049285Y-83204285D01*
X131977857Y-83204285D01*
X131835000Y-83132857D01*
X131763571Y-82990000D01*
X131763571Y-82775714D01*
X131835000Y-82632857D01*
X132763571Y-81918571D02*
X131263571Y-81918571D01*
X132763571Y-81275714D02*
X131977857Y-81275714D01*
X131835000Y-81347142D01*
X131763571Y-81490000D01*
X131763571Y-81704285D01*
X131835000Y-81847142D01*
X131906428Y-81918571D01*
X132692142Y-79490000D02*
X132763571Y-79275714D01*
X132763571Y-78918571D01*
X132692142Y-78775714D01*
X132620714Y-78704285D01*
X132477857Y-78632857D01*
X132335000Y-78632857D01*
X132192142Y-78704285D01*
X132120714Y-78775714D01*
X132049285Y-78918571D01*
X131977857Y-79204285D01*
X131906428Y-79347142D01*
X131835000Y-79418571D01*
X131692142Y-79490000D01*
X131549285Y-79490000D01*
X131406428Y-79418571D01*
X131335000Y-79347142D01*
X131263571Y-79204285D01*
X131263571Y-78847142D01*
X131335000Y-78632857D01*
X131763571Y-78204285D02*
X131763571Y-77632857D01*
X131263571Y-77990000D02*
X132549285Y-77990000D01*
X132692142Y-77918571D01*
X132763571Y-77775714D01*
X132763571Y-77632857D01*
X132692142Y-76561428D02*
X132763571Y-76704285D01*
X132763571Y-76990000D01*
X132692142Y-77132857D01*
X132549285Y-77204285D01*
X131977857Y-77204285D01*
X131835000Y-77132857D01*
X131763571Y-76990000D01*
X131763571Y-76704285D01*
X131835000Y-76561428D01*
X131977857Y-76490000D01*
X132120714Y-76490000D01*
X132263571Y-77204285D01*
X131763571Y-75990000D02*
X132763571Y-75704285D01*
X132049285Y-75418571D01*
X132763571Y-75132857D01*
X131763571Y-74847142D01*
X132763571Y-73632857D02*
X131977857Y-73632857D01*
X131835000Y-73704285D01*
X131763571Y-73847142D01*
X131763571Y-74132857D01*
X131835000Y-74275714D01*
X132692142Y-73632857D02*
X132763571Y-73775714D01*
X132763571Y-74132857D01*
X132692142Y-74275714D01*
X132549285Y-74347142D01*
X132406428Y-74347142D01*
X132263571Y-74275714D01*
X132192142Y-74132857D01*
X132192142Y-73775714D01*
X132120714Y-73632857D01*
X132763571Y-72918571D02*
X131763571Y-72918571D01*
X132049285Y-72918571D02*
X131906428Y-72847142D01*
X131835000Y-72775714D01*
X131763571Y-72632857D01*
X131763571Y-72490000D01*
X131763571Y-72204285D02*
X131763571Y-71632857D01*
X131263571Y-71990000D02*
X132549285Y-71990000D01*
X132692142Y-71918571D01*
X132763571Y-71775714D01*
X132763571Y-71632857D01*
D11*
X158750000Y-158750000D02*
X105410000Y-158750000D01*
X158750000Y-59690000D02*
X158750000Y-158750000D01*
X105410000Y-59690000D02*
X158750000Y-59690000D01*
X105410000Y-158750000D02*
X105410000Y-59690000D01*
D12*
G36*
X130793181Y-108955612D02*
G01*
X130840431Y-108795737D01*
X130923687Y-108683864D01*
X131046634Y-108615653D01*
X131212958Y-108586767D01*
X131273342Y-108585119D01*
X131534080Y-108615686D01*
X131787673Y-108703630D01*
X132026146Y-108842832D01*
X132241527Y-109027175D01*
X132425844Y-109250539D01*
X132571124Y-109506808D01*
X132615842Y-109615325D01*
X132650103Y-109727416D01*
X132677599Y-109853613D01*
X132696640Y-109979134D01*
X132705536Y-110089195D01*
X132702599Y-110169012D01*
X132686138Y-110203803D01*
X132683146Y-110204250D01*
X132645916Y-110192146D01*
X132557663Y-110157828D01*
X132425645Y-110104290D01*
X132257122Y-110034527D01*
X132059353Y-109951531D01*
X131839598Y-109858296D01*
X131712244Y-109803846D01*
X130778250Y-109403442D01*
X130778250Y-109167827D01*
X130793181Y-108955612D01*
X130793181Y-108955612D01*
G37*
X130793181Y-108955612D02*
X130840431Y-108795737D01*
X130923687Y-108683864D01*
X131046634Y-108615653D01*
X131212958Y-108586767D01*
X131273342Y-108585119D01*
X131534080Y-108615686D01*
X131787673Y-108703630D01*
X132026146Y-108842832D01*
X132241527Y-109027175D01*
X132425844Y-109250539D01*
X132571124Y-109506808D01*
X132615842Y-109615325D01*
X132650103Y-109727416D01*
X132677599Y-109853613D01*
X132696640Y-109979134D01*
X132705536Y-110089195D01*
X132702599Y-110169012D01*
X132686138Y-110203803D01*
X132683146Y-110204250D01*
X132645916Y-110192146D01*
X132557663Y-110157828D01*
X132425645Y-110104290D01*
X132257122Y-110034527D01*
X132059353Y-109951531D01*
X131839598Y-109858296D01*
X131712244Y-109803846D01*
X130778250Y-109403442D01*
X130778250Y-109167827D01*
X130793181Y-108955612D01*
G36*
X130796456Y-99961299D02*
G01*
X130807110Y-99881609D01*
X130831578Y-99825825D01*
X130875351Y-99774179D01*
X130882323Y-99767160D01*
X130929107Y-99724594D01*
X130976000Y-99698714D01*
X131039758Y-99685590D01*
X131137138Y-99681293D01*
X131247448Y-99681544D01*
X131407168Y-99687239D01*
X131535159Y-99705151D01*
X131662900Y-99741390D01*
X131778375Y-99784629D01*
X132043015Y-99911285D01*
X132268553Y-100063482D01*
X132450546Y-100235699D01*
X132584553Y-100422417D01*
X132666133Y-100618116D01*
X132690846Y-100817275D01*
X132682024Y-100907774D01*
X132641918Y-101036922D01*
X132565282Y-101126214D01*
X132495062Y-101169226D01*
X132332555Y-101218867D01*
X132138043Y-101225989D01*
X131923259Y-101194109D01*
X131699937Y-101126741D01*
X131479811Y-101027402D01*
X131274613Y-100899608D01*
X131100522Y-100751371D01*
X130963734Y-100601773D01*
X130872854Y-100468406D01*
X130819903Y-100333908D01*
X130796901Y-100180917D01*
X130794125Y-100084660D01*
X130796456Y-99961299D01*
X130796456Y-99961299D01*
G37*
X130796456Y-99961299D02*
X130807110Y-99881609D01*
X130831578Y-99825825D01*
X130875351Y-99774179D01*
X130882323Y-99767160D01*
X130929107Y-99724594D01*
X130976000Y-99698714D01*
X131039758Y-99685590D01*
X131137138Y-99681293D01*
X131247448Y-99681544D01*
X131407168Y-99687239D01*
X131535159Y-99705151D01*
X131662900Y-99741390D01*
X131778375Y-99784629D01*
X132043015Y-99911285D01*
X132268553Y-100063482D01*
X132450546Y-100235699D01*
X132584553Y-100422417D01*
X132666133Y-100618116D01*
X132690846Y-100817275D01*
X132682024Y-100907774D01*
X132641918Y-101036922D01*
X132565282Y-101126214D01*
X132495062Y-101169226D01*
X132332555Y-101218867D01*
X132138043Y-101225989D01*
X131923259Y-101194109D01*
X131699937Y-101126741D01*
X131479811Y-101027402D01*
X131274613Y-100899608D01*
X131100522Y-100751371D01*
X130963734Y-100601773D01*
X130872854Y-100468406D01*
X130819903Y-100333908D01*
X130796901Y-100180917D01*
X130794125Y-100084660D01*
X130796456Y-99961299D01*
G36*
X135318500Y-96583500D02*
G01*
X135318500Y-120586500D01*
X134080199Y-120586500D01*
X134080199Y-119899579D01*
X134187094Y-119845493D01*
X134266731Y-119735164D01*
X134319836Y-119567808D01*
X134335066Y-119475250D01*
X134342131Y-119390203D01*
X134348709Y-119254341D01*
X134354401Y-119080352D01*
X134358808Y-118880922D01*
X134361530Y-118668738D01*
X134361837Y-118625938D01*
X134366000Y-117951250D01*
X134254875Y-117951250D01*
X134239507Y-117948091D01*
X134239507Y-117819565D01*
X134307474Y-117818075D01*
X134405957Y-117810137D01*
X134457844Y-117794345D01*
X134480010Y-117760885D01*
X134487871Y-117713125D01*
X134507591Y-117629044D01*
X134535496Y-117573377D01*
X134552004Y-117521372D01*
X134565882Y-117411945D01*
X134576570Y-117251140D01*
X134583169Y-117060164D01*
X134587644Y-116878939D01*
X134592519Y-116751266D01*
X134599572Y-116667212D01*
X134610581Y-116616843D01*
X134627323Y-116590225D01*
X134651577Y-116577426D01*
X134670482Y-116572245D01*
X134734680Y-116535896D01*
X134740208Y-116478694D01*
X134707312Y-116429632D01*
X134683546Y-116391953D01*
X134707312Y-116373011D01*
X134726933Y-116336320D01*
X134740240Y-116255799D01*
X134746926Y-116150835D01*
X134746684Y-116040813D01*
X134739208Y-115945119D01*
X134724189Y-115883138D01*
X134715250Y-115871625D01*
X134692126Y-115828581D01*
X134683500Y-115761149D01*
X134695447Y-115692322D01*
X134744131Y-115658424D01*
X134776816Y-115649800D01*
X134839180Y-115626501D01*
X134875309Y-115579734D01*
X134896552Y-115491962D01*
X134901426Y-115457288D01*
X134885220Y-115407968D01*
X134867650Y-115385850D01*
X134806297Y-115351660D01*
X134780337Y-115347550D01*
X134732526Y-115322052D01*
X134681668Y-115260142D01*
X134677039Y-115252300D01*
X134628572Y-115187944D01*
X134582401Y-115157601D01*
X134578370Y-115157250D01*
X134556824Y-115141730D01*
X134539481Y-115089610D01*
X134524687Y-114992556D01*
X134510793Y-114842230D01*
X134507611Y-114800063D01*
X134496658Y-114642867D01*
X134487524Y-114497327D01*
X134481330Y-114382165D01*
X134479280Y-114326527D01*
X134472351Y-114244141D01*
X134458100Y-114192095D01*
X134455181Y-114188166D01*
X134452421Y-114147517D01*
X134471056Y-114105109D01*
X134492256Y-114051538D01*
X134465766Y-114017269D01*
X134463291Y-114015702D01*
X134434267Y-113984247D01*
X134456288Y-113940892D01*
X134459241Y-113937295D01*
X134484749Y-113886369D01*
X134460133Y-113838280D01*
X134436290Y-113787363D01*
X134456245Y-113752555D01*
X134489436Y-113696941D01*
X134474114Y-113634023D01*
X134414877Y-113558228D01*
X134357792Y-113472320D01*
X134339291Y-113366227D01*
X134339271Y-113339279D01*
X134339578Y-113294745D01*
X134339999Y-113189739D01*
X134340525Y-113027289D01*
X134341150Y-112810423D01*
X134341867Y-112542169D01*
X134342669Y-112225555D01*
X134343549Y-111863609D01*
X134344501Y-111459360D01*
X134345516Y-111015834D01*
X134346589Y-110536060D01*
X134347713Y-110023066D01*
X134348879Y-109479881D01*
X134350082Y-108909531D01*
X134351315Y-108315045D01*
X134352569Y-107699451D01*
X134353840Y-107065777D01*
X134354759Y-106600625D01*
X134356247Y-105763064D01*
X134357325Y-104975422D01*
X134357996Y-104238688D01*
X134358262Y-103553851D01*
X134358127Y-102921900D01*
X134357593Y-102343824D01*
X134356662Y-101820612D01*
X134355337Y-101353253D01*
X134353621Y-100942735D01*
X134351517Y-100590049D01*
X134349026Y-100296183D01*
X134346153Y-100062125D01*
X134342898Y-99888866D01*
X134339266Y-99777393D01*
X134336373Y-99735560D01*
X134288203Y-99478474D01*
X134212064Y-99268273D01*
X134110049Y-99110125D01*
X134064681Y-99064529D01*
X133984036Y-99007742D01*
X133867627Y-98942469D01*
X133739341Y-98881991D01*
X133727378Y-98876967D01*
X133609159Y-98829143D01*
X133445795Y-98764878D01*
X133243288Y-98686414D01*
X133007639Y-98595992D01*
X132744851Y-98495855D01*
X132460925Y-98388243D01*
X132161861Y-98275399D01*
X131853663Y-98159564D01*
X131542331Y-98042980D01*
X131233866Y-97927888D01*
X130934271Y-97816531D01*
X130649547Y-97711149D01*
X130385695Y-97613985D01*
X130148717Y-97527280D01*
X129944615Y-97453275D01*
X129779390Y-97394213D01*
X129659043Y-97352336D01*
X129589576Y-97329883D01*
X129577182Y-97326811D01*
X129461487Y-97321416D01*
X129371048Y-97350412D01*
X129302313Y-97419451D01*
X129251728Y-97534180D01*
X129215739Y-97700250D01*
X129190795Y-97923309D01*
X129189174Y-97943737D01*
X129177914Y-98122311D01*
X129169289Y-98326725D01*
X129163254Y-98547788D01*
X129159762Y-98776311D01*
X129158765Y-99003104D01*
X129160218Y-99218978D01*
X129164073Y-99414742D01*
X129170283Y-99581207D01*
X129178802Y-99709183D01*
X129189583Y-99789480D01*
X129198687Y-99812587D01*
X129248648Y-99839452D01*
X129336940Y-99877868D01*
X129417907Y-99909484D01*
X129597439Y-99976269D01*
X129609742Y-99272072D01*
X129614928Y-99026597D01*
X129621287Y-98836171D01*
X129629476Y-98692344D01*
X129640153Y-98586666D01*
X129653975Y-98510689D01*
X129671601Y-98455963D01*
X129673621Y-98451283D01*
X129754664Y-98324888D01*
X129862283Y-98255649D01*
X129999705Y-98241668D01*
X130025417Y-98244533D01*
X130082168Y-98259530D01*
X130191273Y-98295052D01*
X130345930Y-98348534D01*
X130539341Y-98417412D01*
X130764704Y-98499123D01*
X131015220Y-98591102D01*
X131284089Y-98690785D01*
X131564509Y-98795608D01*
X131849682Y-98903007D01*
X132132806Y-99010418D01*
X132407081Y-99115277D01*
X132665708Y-99215020D01*
X132901885Y-99307082D01*
X133108814Y-99388900D01*
X133279693Y-99457910D01*
X133407722Y-99511547D01*
X133486101Y-99547247D01*
X133499736Y-99554552D01*
X133636926Y-99654105D01*
X133742981Y-99778187D01*
X133822044Y-99935632D01*
X133878256Y-100135271D01*
X133915758Y-100385940D01*
X133922598Y-100456512D01*
X133925746Y-100523799D01*
X133928796Y-100651746D01*
X133931737Y-100837513D01*
X133934554Y-101078260D01*
X133937234Y-101371148D01*
X133939765Y-101713336D01*
X133942132Y-102101984D01*
X133944323Y-102534253D01*
X133946324Y-103007303D01*
X133948121Y-103518293D01*
X133949703Y-104064385D01*
X133951054Y-104642737D01*
X133952162Y-105250510D01*
X133953014Y-105884865D01*
X133953597Y-106542961D01*
X133953873Y-107131990D01*
X133955649Y-113474580D01*
X133888455Y-113545978D01*
X133838352Y-113629647D01*
X133837026Y-113716817D01*
X133838166Y-113796810D01*
X133818849Y-113850198D01*
X133818641Y-113850409D01*
X133803317Y-113896250D01*
X133825133Y-113933530D01*
X133849661Y-113984764D01*
X133826250Y-114030125D01*
X133804847Y-114090962D01*
X133815661Y-114117438D01*
X133831029Y-114169696D01*
X133838696Y-114254724D01*
X133837303Y-114342111D01*
X133828080Y-114395250D01*
X133824434Y-114431438D01*
X133818783Y-114517811D01*
X133811922Y-114641118D01*
X133805203Y-114776250D01*
X133793858Y-114950732D01*
X133778991Y-115074665D01*
X133761333Y-115142891D01*
X133751553Y-115154553D01*
X133707428Y-115184956D01*
X133644755Y-115243303D01*
X133630949Y-115257740D01*
X133563897Y-115316298D01*
X133505199Y-115346595D01*
X133496011Y-115347750D01*
X133463239Y-115363424D01*
X133447991Y-115419231D01*
X133445250Y-115491419D01*
X133448769Y-115580767D01*
X133466984Y-115626314D01*
X133511377Y-115647677D01*
X133540500Y-115654138D01*
X133609337Y-115678785D01*
X133633966Y-115728375D01*
X133635750Y-115762595D01*
X133625545Y-115834427D01*
X133604000Y-115871625D01*
X133586994Y-115912483D01*
X133576620Y-115996712D01*
X133572772Y-116104541D01*
X133575341Y-116216200D01*
X133584221Y-116311920D01*
X133599304Y-116371929D01*
X133606766Y-116381335D01*
X133624112Y-116413035D01*
X133606766Y-116437184D01*
X133573546Y-116499463D01*
X133600218Y-116550287D01*
X133651625Y-116572963D01*
X133712658Y-116605956D01*
X133734449Y-116645005D01*
X133736515Y-116696009D01*
X133739565Y-116795893D01*
X133743181Y-116930051D01*
X133746812Y-117078125D01*
X133752214Y-117271335D01*
X133760317Y-117410064D01*
X133774654Y-117503326D01*
X133798757Y-117560135D01*
X133836158Y-117589505D01*
X133890390Y-117600451D01*
X133952101Y-117602000D01*
X134049713Y-117607524D01*
X134104885Y-117629370D01*
X134137145Y-117673438D01*
X134171995Y-117744875D01*
X134193325Y-117673438D01*
X134225569Y-117621180D01*
X134292374Y-117602713D01*
X134318681Y-117602000D01*
X134405605Y-117618947D01*
X134443637Y-117663013D01*
X134426570Y-117724042D01*
X134407155Y-117746809D01*
X134327808Y-117784621D01*
X134264232Y-117784771D01*
X134193095Y-117783765D01*
X134155264Y-117799556D01*
X134173656Y-117813449D01*
X134239507Y-117819565D01*
X134239507Y-117948091D01*
X134153186Y-117930342D01*
X134068835Y-117877086D01*
X134021196Y-117805692D01*
X134016750Y-117776625D01*
X134001986Y-117734340D01*
X133989476Y-117729000D01*
X133977859Y-117758783D01*
X133965192Y-117840355D01*
X133952845Y-117962051D01*
X133942186Y-118112206D01*
X133940109Y-118149688D01*
X133925856Y-118375372D01*
X133908305Y-118547974D01*
X133884977Y-118677906D01*
X133853394Y-118775581D01*
X133811081Y-118851410D01*
X133758527Y-118912857D01*
X133688612Y-118973243D01*
X133623650Y-118994897D01*
X133530527Y-118988858D01*
X133530522Y-118988857D01*
X133478458Y-118974643D01*
X133373888Y-118940146D01*
X133223569Y-118887892D01*
X133034259Y-118820408D01*
X132812713Y-118740220D01*
X132801171Y-118735998D01*
X132801171Y-118417077D01*
X132830608Y-118414844D01*
X132859878Y-118383861D01*
X132862990Y-118379875D01*
X132961583Y-118205369D01*
X133019599Y-117996149D01*
X133035451Y-117767618D01*
X133007552Y-117535184D01*
X132974513Y-117421454D01*
X132974513Y-116511415D01*
X132991296Y-116487707D01*
X132998916Y-116425273D01*
X133000749Y-116311917D01*
X133000750Y-116307942D01*
X133000750Y-116089104D01*
X132961895Y-116072356D01*
X132961895Y-114469019D01*
X132976296Y-114462707D01*
X132986622Y-114435238D01*
X132993547Y-114379092D01*
X132997746Y-114286753D01*
X132999894Y-114150699D01*
X133000666Y-113963414D01*
X133000750Y-113815319D01*
X133000750Y-113137904D01*
X133000750Y-112648200D01*
X133000750Y-111290645D01*
X132976937Y-111281118D01*
X132976937Y-110798767D01*
X132988749Y-110776270D01*
X132996620Y-110701918D01*
X133000786Y-110587217D01*
X133001487Y-110443677D01*
X132998959Y-110282804D01*
X132993442Y-110116104D01*
X132985173Y-109955087D01*
X132974390Y-109811258D01*
X132961332Y-109696125D01*
X132953145Y-109648625D01*
X132880225Y-109403071D01*
X132767306Y-109148899D01*
X132626768Y-108910223D01*
X132541271Y-108800753D01*
X132541271Y-107990737D01*
X132713262Y-107968458D01*
X132850700Y-107894553D01*
X132951987Y-107771674D01*
X133015526Y-107602473D01*
X133039720Y-107389601D01*
X133028747Y-107181401D01*
X133003679Y-107057309D01*
X133003679Y-104644123D01*
X132994277Y-104448165D01*
X132984875Y-104252208D01*
X132111750Y-103881326D01*
X131889723Y-103786703D01*
X131685372Y-103699019D01*
X131506382Y-103621617D01*
X131360441Y-103557845D01*
X131255238Y-103511048D01*
X131198458Y-103484571D01*
X131191887Y-103481009D01*
X131185586Y-103461244D01*
X131230334Y-103438457D01*
X131331180Y-103410468D01*
X131382387Y-103398653D01*
X131484425Y-103374026D01*
X131634494Y-103335334D01*
X131819599Y-103286054D01*
X132026739Y-103229658D01*
X132242918Y-103169620D01*
X132310187Y-103150684D01*
X133000750Y-102955637D01*
X133000750Y-102622914D01*
X132707062Y-102494771D01*
X132532109Y-102418641D01*
X132331031Y-102331492D01*
X132223427Y-102284988D01*
X132223427Y-101718334D01*
X132454547Y-101701482D01*
X132663393Y-101633267D01*
X132778584Y-101564539D01*
X132887100Y-101470277D01*
X132961260Y-101363344D01*
X133005656Y-101231038D01*
X133024879Y-101060659D01*
X133025052Y-100882734D01*
X133018627Y-100729236D01*
X133006954Y-100617183D01*
X132985011Y-100524519D01*
X132947778Y-100429190D01*
X132898108Y-100325031D01*
X132727923Y-100048395D01*
X132505411Y-99793990D01*
X132240280Y-99570485D01*
X131942239Y-99386550D01*
X131746625Y-99296761D01*
X131589319Y-99242628D01*
X131432072Y-99210662D01*
X131243837Y-99194606D01*
X131238625Y-99194361D01*
X131097303Y-99189524D01*
X130998335Y-99193017D01*
X130920755Y-99208370D01*
X130843596Y-99239114D01*
X130778250Y-99271868D01*
X130617120Y-99387535D01*
X130505873Y-99541669D01*
X130444027Y-99735156D01*
X130429776Y-99915006D01*
X130450595Y-100187387D01*
X130514163Y-100434861D01*
X130625363Y-100668118D01*
X130789078Y-100897851D01*
X130967966Y-101093131D01*
X131210063Y-101306958D01*
X131463351Y-101478134D01*
X131721136Y-101604917D01*
X131976725Y-101685565D01*
X132223427Y-101718334D01*
X132223427Y-102284988D01*
X132111107Y-102236444D01*
X131879618Y-102136622D01*
X131643842Y-102035148D01*
X131411059Y-101935143D01*
X131188549Y-101839732D01*
X130983592Y-101752037D01*
X130803466Y-101675180D01*
X130655452Y-101612284D01*
X130546829Y-101566472D01*
X130484877Y-101540866D01*
X130473146Y-101536500D01*
X130466535Y-101565319D01*
X130462038Y-101640062D01*
X130460750Y-101722303D01*
X130460750Y-101908105D01*
X131381500Y-102299591D01*
X131606988Y-102396172D01*
X131812475Y-102485546D01*
X131990971Y-102564566D01*
X132135486Y-102630084D01*
X132239032Y-102678953D01*
X132294618Y-102708024D01*
X132302250Y-102714248D01*
X132274157Y-102733078D01*
X132203456Y-102753166D01*
X132167312Y-102760087D01*
X132102937Y-102774234D01*
X131987395Y-102802968D01*
X131830628Y-102843609D01*
X131642577Y-102893477D01*
X131433183Y-102949892D01*
X131212387Y-103010173D01*
X130990130Y-103071641D01*
X130776353Y-103131615D01*
X130580997Y-103187417D01*
X130563937Y-103192351D01*
X130502210Y-103214659D01*
X130471803Y-103247891D01*
X130461680Y-103311943D01*
X130460750Y-103378376D01*
X130467556Y-103483864D01*
X130491356Y-103543439D01*
X130518338Y-103565337D01*
X130559169Y-103584244D01*
X130651885Y-103625453D01*
X130790043Y-103686153D01*
X130967206Y-103763535D01*
X131176932Y-103854789D01*
X131412781Y-103957103D01*
X131668314Y-104067668D01*
X131789803Y-104120140D01*
X133003679Y-104644123D01*
X133003679Y-107057309D01*
X133003181Y-107054843D01*
X133000750Y-107047008D01*
X133000750Y-105782698D01*
X133000243Y-105556662D01*
X132999736Y-105330625D01*
X131912805Y-104864142D01*
X131657923Y-104754686D01*
X131414181Y-104649889D01*
X131189509Y-104553170D01*
X130991833Y-104467945D01*
X130829083Y-104397633D01*
X130709186Y-104345652D01*
X130641917Y-104316237D01*
X130457959Y-104234817D01*
X130467292Y-104463456D01*
X130476625Y-104692094D01*
X131738687Y-105237396D01*
X133000750Y-105782698D01*
X133000750Y-107047008D01*
X132957541Y-106907743D01*
X132910432Y-106791707D01*
X132764377Y-106553877D01*
X132563210Y-106344447D01*
X132310038Y-106166455D01*
X132222875Y-106118852D01*
X132142732Y-106079697D01*
X132021301Y-106022982D01*
X131867406Y-105952603D01*
X131689870Y-105872457D01*
X131497519Y-105786440D01*
X131299175Y-105698448D01*
X131103662Y-105612377D01*
X130919805Y-105532124D01*
X130756428Y-105461584D01*
X130622355Y-105404654D01*
X130526409Y-105365230D01*
X130477414Y-105347209D01*
X130473678Y-105346500D01*
X130466770Y-105375344D01*
X130464613Y-105450526D01*
X130467172Y-105543165D01*
X130476625Y-105739830D01*
X131254500Y-106076607D01*
X131525894Y-106194398D01*
X131745782Y-106290830D01*
X131921079Y-106369426D01*
X132058699Y-106433711D01*
X132165559Y-106487210D01*
X132248572Y-106533446D01*
X132314654Y-106575945D01*
X132370719Y-106618230D01*
X132423684Y-106663827D01*
X132445261Y-106683516D01*
X132579739Y-106833513D01*
X132658206Y-106989340D01*
X132687565Y-107165431D01*
X132688141Y-107191329D01*
X132669102Y-107340420D01*
X132609080Y-107441576D01*
X132507739Y-107494954D01*
X132364744Y-107500710D01*
X132179759Y-107459000D01*
X132140532Y-107445963D01*
X132062648Y-107416438D01*
X131937168Y-107365869D01*
X131774676Y-107298659D01*
X131585756Y-107219209D01*
X131380991Y-107131922D01*
X131254500Y-107077433D01*
X131054570Y-106991011D01*
X130872852Y-106912564D01*
X130717839Y-106845749D01*
X130598025Y-106794227D01*
X130521905Y-106761656D01*
X130498966Y-106752010D01*
X130477438Y-106757427D01*
X130466601Y-106801930D01*
X130465007Y-106895131D01*
X130467216Y-106962814D01*
X130476625Y-107190050D01*
X131064000Y-107444389D01*
X131380676Y-107580866D01*
X131645414Y-107693309D01*
X131864112Y-107783899D01*
X132042668Y-107854819D01*
X132186980Y-107908249D01*
X132302947Y-107946371D01*
X132396465Y-107971365D01*
X132473434Y-107985414D01*
X132539752Y-107990699D01*
X132541271Y-107990737D01*
X132541271Y-108800753D01*
X132472908Y-108713220D01*
X132267468Y-108519828D01*
X132043793Y-108359380D01*
X131809811Y-108233878D01*
X131573448Y-108145321D01*
X131342633Y-108095709D01*
X131125294Y-108087044D01*
X130929356Y-108121326D01*
X130762750Y-108200555D01*
X130687752Y-108262748D01*
X130621190Y-108336845D01*
X130570431Y-108415382D01*
X130533029Y-108508562D01*
X130506537Y-108626588D01*
X130488510Y-108779663D01*
X130476502Y-108977991D01*
X130469691Y-109172375D01*
X130454240Y-109712125D01*
X131703682Y-110249206D01*
X131968411Y-110363052D01*
X132215114Y-110469244D01*
X132437671Y-110565141D01*
X132629962Y-110648100D01*
X132785865Y-110715480D01*
X132899260Y-110764639D01*
X132964025Y-110792935D01*
X132976937Y-110798767D01*
X132976937Y-111281118D01*
X132873107Y-111239573D01*
X132791753Y-111208306D01*
X132738584Y-111190259D01*
X132730232Y-111188500D01*
X132724664Y-111218321D01*
X132720009Y-111300072D01*
X132716677Y-111422184D01*
X132715080Y-111573088D01*
X132715000Y-111617125D01*
X132712537Y-111813313D01*
X132705240Y-111950969D01*
X132693247Y-112028339D01*
X132681359Y-112045750D01*
X132641440Y-112033641D01*
X132554964Y-112000394D01*
X132433415Y-111950637D01*
X132288275Y-111888995D01*
X132236859Y-111866703D01*
X131826000Y-111687655D01*
X131826000Y-110947154D01*
X131682275Y-110877327D01*
X131597083Y-110837267D01*
X131538107Y-110812010D01*
X131523525Y-110807500D01*
X131517609Y-110837160D01*
X131512790Y-110917783D01*
X131509583Y-111036836D01*
X131508500Y-111172625D01*
X131507010Y-111316377D01*
X131502963Y-111433486D01*
X131496985Y-111511417D01*
X131490168Y-111537750D01*
X131455500Y-111525873D01*
X131374729Y-111493546D01*
X131259949Y-111445724D01*
X131125043Y-111388135D01*
X130778250Y-111238519D01*
X130778250Y-110852618D01*
X130778249Y-110466717D01*
X130619499Y-110400743D01*
X130460749Y-110334770D01*
X130461114Y-110944198D01*
X130461479Y-111553625D01*
X131548552Y-112020115D01*
X131803377Y-112129533D01*
X132046996Y-112234264D01*
X132271494Y-112330895D01*
X132468954Y-112416015D01*
X132631462Y-112486212D01*
X132751102Y-112538073D01*
X132818187Y-112567403D01*
X133000750Y-112648200D01*
X133000750Y-113137904D01*
X132715000Y-112999076D01*
X132715000Y-113443163D01*
X132713399Y-113602837D01*
X132709002Y-113737040D01*
X132702420Y-113834407D01*
X132694262Y-113883571D01*
X132691187Y-113887287D01*
X132654938Y-113875429D01*
X132571473Y-113842810D01*
X132451845Y-113793901D01*
X132307110Y-113733175D01*
X132246687Y-113707444D01*
X131826000Y-113527564D01*
X131826000Y-112778972D01*
X131679088Y-112713986D01*
X131592996Y-112676849D01*
X131534355Y-112653327D01*
X131520338Y-112649000D01*
X131515693Y-112678668D01*
X131511903Y-112759345D01*
X131509372Y-112878543D01*
X131508500Y-113016771D01*
X131506410Y-113159808D01*
X131500725Y-113274996D01*
X131492322Y-113350325D01*
X131482432Y-113373959D01*
X131444245Y-113358228D01*
X131360157Y-113323472D01*
X131242933Y-113274969D01*
X131117307Y-113222956D01*
X130778250Y-113082537D01*
X130778250Y-112307846D01*
X130627437Y-112242535D01*
X130476625Y-112177224D01*
X130467966Y-112767991D01*
X130466492Y-112955810D01*
X130467620Y-113121626D01*
X130471080Y-113255044D01*
X130476604Y-113345665D01*
X130483841Y-113383016D01*
X130517453Y-113400459D01*
X130603147Y-113440109D01*
X130734628Y-113499185D01*
X130905602Y-113574905D01*
X131109775Y-113664488D01*
X131340851Y-113765151D01*
X131592537Y-113874113D01*
X131696557Y-113918961D01*
X131956194Y-114030918D01*
X132199078Y-114135930D01*
X132418684Y-114231154D01*
X132608488Y-114313751D01*
X132761965Y-114380877D01*
X132872591Y-114429692D01*
X132933840Y-114457353D01*
X132942744Y-114461691D01*
X132961895Y-114469019D01*
X132961895Y-116072356D01*
X131897437Y-115613511D01*
X130794125Y-115137919D01*
X130784098Y-114999319D01*
X130782928Y-114855458D01*
X130807940Y-114757517D01*
X130864691Y-114691359D01*
X130917232Y-114660587D01*
X130982838Y-114633697D01*
X131041814Y-114626553D01*
X131118242Y-114639366D01*
X131204577Y-114663092D01*
X131382478Y-114742929D01*
X131533699Y-114865036D01*
X131648273Y-115017195D01*
X131716238Y-115187186D01*
X131730750Y-115308299D01*
X131754638Y-115363601D01*
X131831800Y-115412410D01*
X131858392Y-115423678D01*
X131940921Y-115455033D01*
X131996413Y-115473051D01*
X132005677Y-115474750D01*
X132017921Y-115446614D01*
X132016589Y-115372590D01*
X132004052Y-115268256D01*
X131982682Y-115149189D01*
X131954848Y-115030967D01*
X131922922Y-114929165D01*
X131922432Y-114927864D01*
X131865592Y-114804159D01*
X131786667Y-114664892D01*
X131715293Y-114557973D01*
X131553112Y-114385104D01*
X131358836Y-114256502D01*
X131145194Y-114178942D01*
X130964174Y-114158184D01*
X130799365Y-114176495D01*
X130675020Y-114236715D01*
X130577958Y-114346777D01*
X130540427Y-114413174D01*
X130514705Y-114472281D01*
X130496910Y-114538857D01*
X130485648Y-114625628D01*
X130479524Y-114745322D01*
X130477144Y-114910665D01*
X130476927Y-114992578D01*
X130476625Y-115447030D01*
X131683125Y-115968719D01*
X131944469Y-116081586D01*
X132189006Y-116186931D01*
X132410297Y-116281999D01*
X132601905Y-116364037D01*
X132757392Y-116430290D01*
X132870319Y-116478004D01*
X132934250Y-116504426D01*
X132945187Y-116508594D01*
X132974513Y-116511415D01*
X132974513Y-117421454D01*
X132965050Y-117388879D01*
X132888911Y-117238819D01*
X132777419Y-117090220D01*
X132645601Y-116958602D01*
X132508489Y-116859488D01*
X132409691Y-116815360D01*
X132265842Y-116782212D01*
X132133304Y-116776673D01*
X131995693Y-116801354D01*
X131836625Y-116858871D01*
X131679827Y-116931807D01*
X131478750Y-117027825D01*
X131321907Y-117092955D01*
X131199008Y-117128862D01*
X131099768Y-117137211D01*
X131013896Y-117119665D01*
X130931106Y-117077889D01*
X130900923Y-117057831D01*
X130830555Y-116982529D01*
X130767341Y-116871674D01*
X130724866Y-116752887D01*
X130714749Y-116679343D01*
X130728844Y-116611051D01*
X130763929Y-116520164D01*
X130776486Y-116494207D01*
X130838223Y-116373194D01*
X130718087Y-116255885D01*
X130644248Y-116189040D01*
X130598398Y-116164448D01*
X130567451Y-116175935D01*
X130561780Y-116182161D01*
X130491757Y-116306116D01*
X130445768Y-116471917D01*
X130429002Y-116660767D01*
X130429000Y-116663165D01*
X130453996Y-116899555D01*
X130524781Y-117114623D01*
X130635046Y-117300707D01*
X130778484Y-117450147D01*
X130948787Y-117555279D01*
X131139649Y-117608442D01*
X131211251Y-117613370D01*
X131295071Y-117609670D01*
X131379272Y-117592684D01*
X131479042Y-117557436D01*
X131609564Y-117498947D01*
X131711512Y-117449363D01*
X131853610Y-117381399D01*
X131983767Y-117323321D01*
X132086538Y-117281770D01*
X132142194Y-117264124D01*
X132312206Y-117260722D01*
X132469171Y-117317417D01*
X132569439Y-117395056D01*
X132683003Y-117545592D01*
X132734047Y-117705604D01*
X132722269Y-117871877D01*
X132647364Y-118041192D01*
X132632335Y-118064203D01*
X132551349Y-118183541D01*
X132682450Y-118313458D01*
X132756731Y-118385101D01*
X132801171Y-118417077D01*
X132801171Y-118735998D01*
X132565687Y-118649856D01*
X132299939Y-118551842D01*
X132022224Y-118448706D01*
X131739299Y-118342974D01*
X131457921Y-118237172D01*
X131184845Y-118133829D01*
X130926829Y-118035469D01*
X130690628Y-117944622D01*
X130483000Y-117863812D01*
X130310701Y-117795568D01*
X130180486Y-117742416D01*
X130099113Y-117706882D01*
X130087480Y-117701194D01*
X129934188Y-117592248D01*
X129798934Y-117437927D01*
X129696799Y-117256289D01*
X129679718Y-117212934D01*
X129672427Y-117191263D01*
X129665740Y-117166401D01*
X129659627Y-117135610D01*
X129654058Y-117096153D01*
X129649001Y-117045293D01*
X129644427Y-116980293D01*
X129640306Y-116898414D01*
X129636606Y-116796921D01*
X129633297Y-116673076D01*
X129630349Y-116524141D01*
X129627731Y-116347379D01*
X129625413Y-116140053D01*
X129623365Y-115899426D01*
X129621555Y-115622760D01*
X129619953Y-115307318D01*
X129618530Y-114950363D01*
X129617254Y-114549157D01*
X129616095Y-114100964D01*
X129615022Y-113603045D01*
X129614006Y-113052664D01*
X129613015Y-112447084D01*
X129612019Y-111783567D01*
X129610988Y-111059375D01*
X129610954Y-111034908D01*
X129602533Y-105023441D01*
X129680807Y-104930418D01*
X129719326Y-104879694D01*
X129741119Y-104829513D01*
X129749231Y-104762099D01*
X129746704Y-104659673D01*
X129741482Y-104576010D01*
X129734343Y-104442002D01*
X129737070Y-104349851D01*
X129753149Y-104278237D01*
X129786066Y-104205840D01*
X129808713Y-104164829D01*
X129877302Y-104060819D01*
X129954697Y-103967540D01*
X129988845Y-103934841D01*
X130084148Y-103854649D01*
X130062183Y-103592512D01*
X130045459Y-103453262D01*
X130022540Y-103344059D01*
X129996875Y-103280972D01*
X129994768Y-103278355D01*
X129976075Y-103243177D01*
X129963917Y-103181977D01*
X129957599Y-103085058D01*
X129956428Y-102942721D01*
X129958971Y-102778241D01*
X129962012Y-102599363D01*
X129961581Y-102474632D01*
X129956856Y-102394748D01*
X129947016Y-102350412D01*
X129931241Y-102332327D01*
X129919412Y-102330199D01*
X129863986Y-102318382D01*
X129826936Y-102276640D01*
X129805110Y-102195745D01*
X129795362Y-102066468D01*
X129793999Y-101962663D01*
X129791099Y-101810771D01*
X129781336Y-101711106D01*
X129763119Y-101652613D01*
X129746374Y-101631750D01*
X129705437Y-101559300D01*
X129705907Y-101455402D01*
X129735537Y-101363498D01*
X129755797Y-101292579D01*
X129732908Y-101237341D01*
X129724488Y-101227067D01*
X129676542Y-101157082D01*
X129656947Y-101115813D01*
X129625105Y-101068939D01*
X129604496Y-101060250D01*
X129581505Y-101032665D01*
X129571752Y-100966199D01*
X129571750Y-100965000D01*
X129560899Y-100894140D01*
X129522747Y-100870156D01*
X129513541Y-100869750D01*
X129452127Y-100859579D01*
X129434244Y-100821374D01*
X129455881Y-100743595D01*
X129463327Y-100725306D01*
X129501913Y-100619535D01*
X129503371Y-100557838D01*
X129461269Y-100528702D01*
X129369172Y-100520611D01*
X129348895Y-100520500D01*
X129255156Y-100522172D01*
X129210727Y-100533150D01*
X129201418Y-100562382D01*
X129210412Y-100607813D01*
X129236639Y-100694573D01*
X129260110Y-100751344D01*
X129273993Y-100822367D01*
X129233522Y-100863190D01*
X129188876Y-100869750D01*
X129137203Y-100893056D01*
X129127250Y-100933681D01*
X129100468Y-101039649D01*
X129023959Y-101165108D01*
X128987945Y-101209820D01*
X128949143Y-101268126D01*
X128949585Y-101325687D01*
X128967801Y-101376065D01*
X128991856Y-101502550D01*
X128984549Y-101575745D01*
X128972487Y-101654674D01*
X128960264Y-101775420D01*
X128949946Y-101916344D01*
X128947056Y-101968646D01*
X128939287Y-102105918D01*
X128928672Y-102197064D01*
X128909348Y-102259385D01*
X128875451Y-102310181D01*
X128821117Y-102366754D01*
X128807675Y-102379902D01*
X128734298Y-102457421D01*
X128697149Y-102522569D01*
X128684083Y-102604113D01*
X128682750Y-102675752D01*
X128689328Y-102794955D01*
X128706079Y-102904139D01*
X128717906Y-102947121D01*
X128735815Y-103045996D01*
X128735831Y-103196980D01*
X128725843Y-103330375D01*
X128698625Y-103616125D01*
X128594978Y-103626109D01*
X128522976Y-103649862D01*
X128440927Y-103700375D01*
X128364007Y-103764423D01*
X128307391Y-103828782D01*
X128286256Y-103880227D01*
X128289679Y-103892157D01*
X128284695Y-103935069D01*
X128253148Y-103982330D01*
X128229810Y-104013100D01*
X128225729Y-104044366D01*
X128246641Y-104087515D01*
X128298276Y-104153932D01*
X128386368Y-104255004D01*
X128395802Y-104265650D01*
X128495496Y-104375458D01*
X128567318Y-104439223D01*
X128625216Y-104458691D01*
X128683134Y-104435606D01*
X128755017Y-104371714D01*
X128808040Y-104317231D01*
X128884027Y-104250496D01*
X128953318Y-104209582D01*
X128978973Y-104203500D01*
X129006772Y-104207620D01*
X129023724Y-104227645D01*
X129031507Y-104275072D01*
X129031804Y-104361398D01*
X129026294Y-104498122D01*
X129025246Y-104520048D01*
X129019156Y-104665523D01*
X129019182Y-104761954D01*
X129027521Y-104823679D01*
X129046373Y-104865033D01*
X129077933Y-104900353D01*
X129084502Y-104906582D01*
X129159000Y-104976569D01*
X129159972Y-110963847D01*
X129160224Y-111582014D01*
X129160768Y-112186746D01*
X129161587Y-112774669D01*
X129162667Y-113342408D01*
X129163991Y-113886590D01*
X129165543Y-114403840D01*
X129167309Y-114890784D01*
X129169271Y-115344049D01*
X129171415Y-115760259D01*
X129173725Y-116136041D01*
X129176185Y-116468021D01*
X129178779Y-116752825D01*
X129181492Y-116987078D01*
X129184307Y-117167406D01*
X129187210Y-117290435D01*
X129189698Y-117346942D01*
X129203684Y-117520091D01*
X129218822Y-117646806D01*
X129238909Y-117744100D01*
X129267742Y-117828984D01*
X129309119Y-117918471D01*
X129323663Y-117947043D01*
X129392308Y-118067945D01*
X129459184Y-118149960D01*
X129543405Y-118214169D01*
X129591722Y-118242684D01*
X129652994Y-118271601D01*
X129767230Y-118320049D01*
X129928352Y-118385718D01*
X130130286Y-118466297D01*
X130366954Y-118559476D01*
X130632282Y-118662944D01*
X130920194Y-118774391D01*
X131224614Y-118891506D01*
X131539465Y-119011980D01*
X131858673Y-119133501D01*
X132176161Y-119253759D01*
X132485853Y-119370444D01*
X132781674Y-119481246D01*
X133057547Y-119583853D01*
X133307397Y-119675955D01*
X133525148Y-119755243D01*
X133704725Y-119819405D01*
X133840050Y-119866131D01*
X133925049Y-119893111D01*
X133945326Y-119898207D01*
X134080199Y-119899579D01*
X134080199Y-120586500D01*
X127571500Y-120586500D01*
X127571500Y-96583500D01*
X135318500Y-96583500D01*
X135318500Y-96583500D01*
G37*
X135318500Y-96583500D02*
X135318500Y-120586500D01*
X134080199Y-120586500D01*
X134080199Y-119899579D01*
X134187094Y-119845493D01*
X134266731Y-119735164D01*
X134319836Y-119567808D01*
X134335066Y-119475250D01*
X134342131Y-119390203D01*
X134348709Y-119254341D01*
X134354401Y-119080352D01*
X134358808Y-118880922D01*
X134361530Y-118668738D01*
X134361837Y-118625938D01*
X134366000Y-117951250D01*
X134254875Y-117951250D01*
X134239507Y-117948091D01*
X134239507Y-117819565D01*
X134307474Y-117818075D01*
X134405957Y-117810137D01*
X134457844Y-117794345D01*
X134480010Y-117760885D01*
X134487871Y-117713125D01*
X134507591Y-117629044D01*
X134535496Y-117573377D01*
X134552004Y-117521372D01*
X134565882Y-117411945D01*
X134576570Y-117251140D01*
X134583169Y-117060164D01*
X134587644Y-116878939D01*
X134592519Y-116751266D01*
X134599572Y-116667212D01*
X134610581Y-116616843D01*
X134627323Y-116590225D01*
X134651577Y-116577426D01*
X134670482Y-116572245D01*
X134734680Y-116535896D01*
X134740208Y-116478694D01*
X134707312Y-116429632D01*
X134683546Y-116391953D01*
X134707312Y-116373011D01*
X134726933Y-116336320D01*
X134740240Y-116255799D01*
X134746926Y-116150835D01*
X134746684Y-116040813D01*
X134739208Y-115945119D01*
X134724189Y-115883138D01*
X134715250Y-115871625D01*
X134692126Y-115828581D01*
X134683500Y-115761149D01*
X134695447Y-115692322D01*
X134744131Y-115658424D01*
X134776816Y-115649800D01*
X134839180Y-115626501D01*
X134875309Y-115579734D01*
X134896552Y-115491962D01*
X134901426Y-115457288D01*
X134885220Y-115407968D01*
X134867650Y-115385850D01*
X134806297Y-115351660D01*
X134780337Y-115347550D01*
X134732526Y-115322052D01*
X134681668Y-115260142D01*
X134677039Y-115252300D01*
X134628572Y-115187944D01*
X134582401Y-115157601D01*
X134578370Y-115157250D01*
X134556824Y-115141730D01*
X134539481Y-115089610D01*
X134524687Y-114992556D01*
X134510793Y-114842230D01*
X134507611Y-114800063D01*
X134496658Y-114642867D01*
X134487524Y-114497327D01*
X134481330Y-114382165D01*
X134479280Y-114326527D01*
X134472351Y-114244141D01*
X134458100Y-114192095D01*
X134455181Y-114188166D01*
X134452421Y-114147517D01*
X134471056Y-114105109D01*
X134492256Y-114051538D01*
X134465766Y-114017269D01*
X134463291Y-114015702D01*
X134434267Y-113984247D01*
X134456288Y-113940892D01*
X134459241Y-113937295D01*
X134484749Y-113886369D01*
X134460133Y-113838280D01*
X134436290Y-113787363D01*
X134456245Y-113752555D01*
X134489436Y-113696941D01*
X134474114Y-113634023D01*
X134414877Y-113558228D01*
X134357792Y-113472320D01*
X134339291Y-113366227D01*
X134339271Y-113339279D01*
X134339578Y-113294745D01*
X134339999Y-113189739D01*
X134340525Y-113027289D01*
X134341150Y-112810423D01*
X134341867Y-112542169D01*
X134342669Y-112225555D01*
X134343549Y-111863609D01*
X134344501Y-111459360D01*
X134345516Y-111015834D01*
X134346589Y-110536060D01*
X134347713Y-110023066D01*
X134348879Y-109479881D01*
X134350082Y-108909531D01*
X134351315Y-108315045D01*
X134352569Y-107699451D01*
X134353840Y-107065777D01*
X134354759Y-106600625D01*
X134356247Y-105763064D01*
X134357325Y-104975422D01*
X134357996Y-104238688D01*
X134358262Y-103553851D01*
X134358127Y-102921900D01*
X134357593Y-102343824D01*
X134356662Y-101820612D01*
X134355337Y-101353253D01*
X134353621Y-100942735D01*
X134351517Y-100590049D01*
X134349026Y-100296183D01*
X134346153Y-100062125D01*
X134342898Y-99888866D01*
X134339266Y-99777393D01*
X134336373Y-99735560D01*
X134288203Y-99478474D01*
X134212064Y-99268273D01*
X134110049Y-99110125D01*
X134064681Y-99064529D01*
X133984036Y-99007742D01*
X133867627Y-98942469D01*
X133739341Y-98881991D01*
X133727378Y-98876967D01*
X133609159Y-98829143D01*
X133445795Y-98764878D01*
X133243288Y-98686414D01*
X133007639Y-98595992D01*
X132744851Y-98495855D01*
X132460925Y-98388243D01*
X132161861Y-98275399D01*
X131853663Y-98159564D01*
X131542331Y-98042980D01*
X131233866Y-97927888D01*
X130934271Y-97816531D01*
X130649547Y-97711149D01*
X130385695Y-97613985D01*
X130148717Y-97527280D01*
X129944615Y-97453275D01*
X129779390Y-97394213D01*
X129659043Y-97352336D01*
X129589576Y-97329883D01*
X129577182Y-97326811D01*
X129461487Y-97321416D01*
X129371048Y-97350412D01*
X129302313Y-97419451D01*
X129251728Y-97534180D01*
X129215739Y-97700250D01*
X129190795Y-97923309D01*
X129189174Y-97943737D01*
X129177914Y-98122311D01*
X129169289Y-98326725D01*
X129163254Y-98547788D01*
X129159762Y-98776311D01*
X129158765Y-99003104D01*
X129160218Y-99218978D01*
X129164073Y-99414742D01*
X129170283Y-99581207D01*
X129178802Y-99709183D01*
X129189583Y-99789480D01*
X129198687Y-99812587D01*
X129248648Y-99839452D01*
X129336940Y-99877868D01*
X129417907Y-99909484D01*
X129597439Y-99976269D01*
X129609742Y-99272072D01*
X129614928Y-99026597D01*
X129621287Y-98836171D01*
X129629476Y-98692344D01*
X129640153Y-98586666D01*
X129653975Y-98510689D01*
X129671601Y-98455963D01*
X129673621Y-98451283D01*
X129754664Y-98324888D01*
X129862283Y-98255649D01*
X129999705Y-98241668D01*
X130025417Y-98244533D01*
X130082168Y-98259530D01*
X130191273Y-98295052D01*
X130345930Y-98348534D01*
X130539341Y-98417412D01*
X130764704Y-98499123D01*
X131015220Y-98591102D01*
X131284089Y-98690785D01*
X131564509Y-98795608D01*
X131849682Y-98903007D01*
X132132806Y-99010418D01*
X132407081Y-99115277D01*
X132665708Y-99215020D01*
X132901885Y-99307082D01*
X133108814Y-99388900D01*
X133279693Y-99457910D01*
X133407722Y-99511547D01*
X133486101Y-99547247D01*
X133499736Y-99554552D01*
X133636926Y-99654105D01*
X133742981Y-99778187D01*
X133822044Y-99935632D01*
X133878256Y-100135271D01*
X133915758Y-100385940D01*
X133922598Y-100456512D01*
X133925746Y-100523799D01*
X133928796Y-100651746D01*
X133931737Y-100837513D01*
X133934554Y-101078260D01*
X133937234Y-101371148D01*
X133939765Y-101713336D01*
X133942132Y-102101984D01*
X133944323Y-102534253D01*
X133946324Y-103007303D01*
X133948121Y-103518293D01*
X133949703Y-104064385D01*
X133951054Y-104642737D01*
X133952162Y-105250510D01*
X133953014Y-105884865D01*
X133953597Y-106542961D01*
X133953873Y-107131990D01*
X133955649Y-113474580D01*
X133888455Y-113545978D01*
X133838352Y-113629647D01*
X133837026Y-113716817D01*
X133838166Y-113796810D01*
X133818849Y-113850198D01*
X133818641Y-113850409D01*
X133803317Y-113896250D01*
X133825133Y-113933530D01*
X133849661Y-113984764D01*
X133826250Y-114030125D01*
X133804847Y-114090962D01*
X133815661Y-114117438D01*
X133831029Y-114169696D01*
X133838696Y-114254724D01*
X133837303Y-114342111D01*
X133828080Y-114395250D01*
X133824434Y-114431438D01*
X133818783Y-114517811D01*
X133811922Y-114641118D01*
X133805203Y-114776250D01*
X133793858Y-114950732D01*
X133778991Y-115074665D01*
X133761333Y-115142891D01*
X133751553Y-115154553D01*
X133707428Y-115184956D01*
X133644755Y-115243303D01*
X133630949Y-115257740D01*
X133563897Y-115316298D01*
X133505199Y-115346595D01*
X133496011Y-115347750D01*
X133463239Y-115363424D01*
X133447991Y-115419231D01*
X133445250Y-115491419D01*
X133448769Y-115580767D01*
X133466984Y-115626314D01*
X133511377Y-115647677D01*
X133540500Y-115654138D01*
X133609337Y-115678785D01*
X133633966Y-115728375D01*
X133635750Y-115762595D01*
X133625545Y-115834427D01*
X133604000Y-115871625D01*
X133586994Y-115912483D01*
X133576620Y-115996712D01*
X133572772Y-116104541D01*
X133575341Y-116216200D01*
X133584221Y-116311920D01*
X133599304Y-116371929D01*
X133606766Y-116381335D01*
X133624112Y-116413035D01*
X133606766Y-116437184D01*
X133573546Y-116499463D01*
X133600218Y-116550287D01*
X133651625Y-116572963D01*
X133712658Y-116605956D01*
X133734449Y-116645005D01*
X133736515Y-116696009D01*
X133739565Y-116795893D01*
X133743181Y-116930051D01*
X133746812Y-117078125D01*
X133752214Y-117271335D01*
X133760317Y-117410064D01*
X133774654Y-117503326D01*
X133798757Y-117560135D01*
X133836158Y-117589505D01*
X133890390Y-117600451D01*
X133952101Y-117602000D01*
X134049713Y-117607524D01*
X134104885Y-117629370D01*
X134137145Y-117673438D01*
X134171995Y-117744875D01*
X134193325Y-117673438D01*
X134225569Y-117621180D01*
X134292374Y-117602713D01*
X134318681Y-117602000D01*
X134405605Y-117618947D01*
X134443637Y-117663013D01*
X134426570Y-117724042D01*
X134407155Y-117746809D01*
X134327808Y-117784621D01*
X134264232Y-117784771D01*
X134193095Y-117783765D01*
X134155264Y-117799556D01*
X134173656Y-117813449D01*
X134239507Y-117819565D01*
X134239507Y-117948091D01*
X134153186Y-117930342D01*
X134068835Y-117877086D01*
X134021196Y-117805692D01*
X134016750Y-117776625D01*
X134001986Y-117734340D01*
X133989476Y-117729000D01*
X133977859Y-117758783D01*
X133965192Y-117840355D01*
X133952845Y-117962051D01*
X133942186Y-118112206D01*
X133940109Y-118149688D01*
X133925856Y-118375372D01*
X133908305Y-118547974D01*
X133884977Y-118677906D01*
X133853394Y-118775581D01*
X133811081Y-118851410D01*
X133758527Y-118912857D01*
X133688612Y-118973243D01*
X133623650Y-118994897D01*
X133530527Y-118988858D01*
X133530522Y-118988857D01*
X133478458Y-118974643D01*
X133373888Y-118940146D01*
X133223569Y-118887892D01*
X133034259Y-118820408D01*
X132812713Y-118740220D01*
X132801171Y-118735998D01*
X132801171Y-118417077D01*
X132830608Y-118414844D01*
X132859878Y-118383861D01*
X132862990Y-118379875D01*
X132961583Y-118205369D01*
X133019599Y-117996149D01*
X133035451Y-117767618D01*
X133007552Y-117535184D01*
X132974513Y-117421454D01*
X132974513Y-116511415D01*
X132991296Y-116487707D01*
X132998916Y-116425273D01*
X133000749Y-116311917D01*
X133000750Y-116307942D01*
X133000750Y-116089104D01*
X132961895Y-116072356D01*
X132961895Y-114469019D01*
X132976296Y-114462707D01*
X132986622Y-114435238D01*
X132993547Y-114379092D01*
X132997746Y-114286753D01*
X132999894Y-114150699D01*
X133000666Y-113963414D01*
X133000750Y-113815319D01*
X133000750Y-113137904D01*
X133000750Y-112648200D01*
X133000750Y-111290645D01*
X132976937Y-111281118D01*
X132976937Y-110798767D01*
X132988749Y-110776270D01*
X132996620Y-110701918D01*
X133000786Y-110587217D01*
X133001487Y-110443677D01*
X132998959Y-110282804D01*
X132993442Y-110116104D01*
X132985173Y-109955087D01*
X132974390Y-109811258D01*
X132961332Y-109696125D01*
X132953145Y-109648625D01*
X132880225Y-109403071D01*
X132767306Y-109148899D01*
X132626768Y-108910223D01*
X132541271Y-108800753D01*
X132541271Y-107990737D01*
X132713262Y-107968458D01*
X132850700Y-107894553D01*
X132951987Y-107771674D01*
X133015526Y-107602473D01*
X133039720Y-107389601D01*
X133028747Y-107181401D01*
X133003679Y-107057309D01*
X133003679Y-104644123D01*
X132994277Y-104448165D01*
X132984875Y-104252208D01*
X132111750Y-103881326D01*
X131889723Y-103786703D01*
X131685372Y-103699019D01*
X131506382Y-103621617D01*
X131360441Y-103557845D01*
X131255238Y-103511048D01*
X131198458Y-103484571D01*
X131191887Y-103481009D01*
X131185586Y-103461244D01*
X131230334Y-103438457D01*
X131331180Y-103410468D01*
X131382387Y-103398653D01*
X131484425Y-103374026D01*
X131634494Y-103335334D01*
X131819599Y-103286054D01*
X132026739Y-103229658D01*
X132242918Y-103169620D01*
X132310187Y-103150684D01*
X133000750Y-102955637D01*
X133000750Y-102622914D01*
X132707062Y-102494771D01*
X132532109Y-102418641D01*
X132331031Y-102331492D01*
X132223427Y-102284988D01*
X132223427Y-101718334D01*
X132454547Y-101701482D01*
X132663393Y-101633267D01*
X132778584Y-101564539D01*
X132887100Y-101470277D01*
X132961260Y-101363344D01*
X133005656Y-101231038D01*
X133024879Y-101060659D01*
X133025052Y-100882734D01*
X133018627Y-100729236D01*
X133006954Y-100617183D01*
X132985011Y-100524519D01*
X132947778Y-100429190D01*
X132898108Y-100325031D01*
X132727923Y-100048395D01*
X132505411Y-99793990D01*
X132240280Y-99570485D01*
X131942239Y-99386550D01*
X131746625Y-99296761D01*
X131589319Y-99242628D01*
X131432072Y-99210662D01*
X131243837Y-99194606D01*
X131238625Y-99194361D01*
X131097303Y-99189524D01*
X130998335Y-99193017D01*
X130920755Y-99208370D01*
X130843596Y-99239114D01*
X130778250Y-99271868D01*
X130617120Y-99387535D01*
X130505873Y-99541669D01*
X130444027Y-99735156D01*
X130429776Y-99915006D01*
X130450595Y-100187387D01*
X130514163Y-100434861D01*
X130625363Y-100668118D01*
X130789078Y-100897851D01*
X130967966Y-101093131D01*
X131210063Y-101306958D01*
X131463351Y-101478134D01*
X131721136Y-101604917D01*
X131976725Y-101685565D01*
X132223427Y-101718334D01*
X132223427Y-102284988D01*
X132111107Y-102236444D01*
X131879618Y-102136622D01*
X131643842Y-102035148D01*
X131411059Y-101935143D01*
X131188549Y-101839732D01*
X130983592Y-101752037D01*
X130803466Y-101675180D01*
X130655452Y-101612284D01*
X130546829Y-101566472D01*
X130484877Y-101540866D01*
X130473146Y-101536500D01*
X130466535Y-101565319D01*
X130462038Y-101640062D01*
X130460750Y-101722303D01*
X130460750Y-101908105D01*
X131381500Y-102299591D01*
X131606988Y-102396172D01*
X131812475Y-102485546D01*
X131990971Y-102564566D01*
X132135486Y-102630084D01*
X132239032Y-102678953D01*
X132294618Y-102708024D01*
X132302250Y-102714248D01*
X132274157Y-102733078D01*
X132203456Y-102753166D01*
X132167312Y-102760087D01*
X132102937Y-102774234D01*
X131987395Y-102802968D01*
X131830628Y-102843609D01*
X131642577Y-102893477D01*
X131433183Y-102949892D01*
X131212387Y-103010173D01*
X130990130Y-103071641D01*
X130776353Y-103131615D01*
X130580997Y-103187417D01*
X130563937Y-103192351D01*
X130502210Y-103214659D01*
X130471803Y-103247891D01*
X130461680Y-103311943D01*
X130460750Y-103378376D01*
X130467556Y-103483864D01*
X130491356Y-103543439D01*
X130518338Y-103565337D01*
X130559169Y-103584244D01*
X130651885Y-103625453D01*
X130790043Y-103686153D01*
X130967206Y-103763535D01*
X131176932Y-103854789D01*
X131412781Y-103957103D01*
X131668314Y-104067668D01*
X131789803Y-104120140D01*
X133003679Y-104644123D01*
X133003679Y-107057309D01*
X133003181Y-107054843D01*
X133000750Y-107047008D01*
X133000750Y-105782698D01*
X133000243Y-105556662D01*
X132999736Y-105330625D01*
X131912805Y-104864142D01*
X131657923Y-104754686D01*
X131414181Y-104649889D01*
X131189509Y-104553170D01*
X130991833Y-104467945D01*
X130829083Y-104397633D01*
X130709186Y-104345652D01*
X130641917Y-104316237D01*
X130457959Y-104234817D01*
X130467292Y-104463456D01*
X130476625Y-104692094D01*
X131738687Y-105237396D01*
X133000750Y-105782698D01*
X133000750Y-107047008D01*
X132957541Y-106907743D01*
X132910432Y-106791707D01*
X132764377Y-106553877D01*
X132563210Y-106344447D01*
X132310038Y-106166455D01*
X132222875Y-106118852D01*
X132142732Y-106079697D01*
X132021301Y-106022982D01*
X131867406Y-105952603D01*
X131689870Y-105872457D01*
X131497519Y-105786440D01*
X131299175Y-105698448D01*
X131103662Y-105612377D01*
X130919805Y-105532124D01*
X130756428Y-105461584D01*
X130622355Y-105404654D01*
X130526409Y-105365230D01*
X130477414Y-105347209D01*
X130473678Y-105346500D01*
X130466770Y-105375344D01*
X130464613Y-105450526D01*
X130467172Y-105543165D01*
X130476625Y-105739830D01*
X131254500Y-106076607D01*
X131525894Y-106194398D01*
X131745782Y-106290830D01*
X131921079Y-106369426D01*
X132058699Y-106433711D01*
X132165559Y-106487210D01*
X132248572Y-106533446D01*
X132314654Y-106575945D01*
X132370719Y-106618230D01*
X132423684Y-106663827D01*
X132445261Y-106683516D01*
X132579739Y-106833513D01*
X132658206Y-106989340D01*
X132687565Y-107165431D01*
X132688141Y-107191329D01*
X132669102Y-107340420D01*
X132609080Y-107441576D01*
X132507739Y-107494954D01*
X132364744Y-107500710D01*
X132179759Y-107459000D01*
X132140532Y-107445963D01*
X132062648Y-107416438D01*
X131937168Y-107365869D01*
X131774676Y-107298659D01*
X131585756Y-107219209D01*
X131380991Y-107131922D01*
X131254500Y-107077433D01*
X131054570Y-106991011D01*
X130872852Y-106912564D01*
X130717839Y-106845749D01*
X130598025Y-106794227D01*
X130521905Y-106761656D01*
X130498966Y-106752010D01*
X130477438Y-106757427D01*
X130466601Y-106801930D01*
X130465007Y-106895131D01*
X130467216Y-106962814D01*
X130476625Y-107190050D01*
X131064000Y-107444389D01*
X131380676Y-107580866D01*
X131645414Y-107693309D01*
X131864112Y-107783899D01*
X132042668Y-107854819D01*
X132186980Y-107908249D01*
X132302947Y-107946371D01*
X132396465Y-107971365D01*
X132473434Y-107985414D01*
X132539752Y-107990699D01*
X132541271Y-107990737D01*
X132541271Y-108800753D01*
X132472908Y-108713220D01*
X132267468Y-108519828D01*
X132043793Y-108359380D01*
X131809811Y-108233878D01*
X131573448Y-108145321D01*
X131342633Y-108095709D01*
X131125294Y-108087044D01*
X130929356Y-108121326D01*
X130762750Y-108200555D01*
X130687752Y-108262748D01*
X130621190Y-108336845D01*
X130570431Y-108415382D01*
X130533029Y-108508562D01*
X130506537Y-108626588D01*
X130488510Y-108779663D01*
X130476502Y-108977991D01*
X130469691Y-109172375D01*
X130454240Y-109712125D01*
X131703682Y-110249206D01*
X131968411Y-110363052D01*
X132215114Y-110469244D01*
X132437671Y-110565141D01*
X132629962Y-110648100D01*
X132785865Y-110715480D01*
X132899260Y-110764639D01*
X132964025Y-110792935D01*
X132976937Y-110798767D01*
X132976937Y-111281118D01*
X132873107Y-111239573D01*
X132791753Y-111208306D01*
X132738584Y-111190259D01*
X132730232Y-111188500D01*
X132724664Y-111218321D01*
X132720009Y-111300072D01*
X132716677Y-111422184D01*
X132715080Y-111573088D01*
X132715000Y-111617125D01*
X132712537Y-111813313D01*
X132705240Y-111950969D01*
X132693247Y-112028339D01*
X132681359Y-112045750D01*
X132641440Y-112033641D01*
X132554964Y-112000394D01*
X132433415Y-111950637D01*
X132288275Y-111888995D01*
X132236859Y-111866703D01*
X131826000Y-111687655D01*
X131826000Y-110947154D01*
X131682275Y-110877327D01*
X131597083Y-110837267D01*
X131538107Y-110812010D01*
X131523525Y-110807500D01*
X131517609Y-110837160D01*
X131512790Y-110917783D01*
X131509583Y-111036836D01*
X131508500Y-111172625D01*
X131507010Y-111316377D01*
X131502963Y-111433486D01*
X131496985Y-111511417D01*
X131490168Y-111537750D01*
X131455500Y-111525873D01*
X131374729Y-111493546D01*
X131259949Y-111445724D01*
X131125043Y-111388135D01*
X130778250Y-111238519D01*
X130778250Y-110852618D01*
X130778249Y-110466717D01*
X130619499Y-110400743D01*
X130460749Y-110334770D01*
X130461114Y-110944198D01*
X130461479Y-111553625D01*
X131548552Y-112020115D01*
X131803377Y-112129533D01*
X132046996Y-112234264D01*
X132271494Y-112330895D01*
X132468954Y-112416015D01*
X132631462Y-112486212D01*
X132751102Y-112538073D01*
X132818187Y-112567403D01*
X133000750Y-112648200D01*
X133000750Y-113137904D01*
X132715000Y-112999076D01*
X132715000Y-113443163D01*
X132713399Y-113602837D01*
X132709002Y-113737040D01*
X132702420Y-113834407D01*
X132694262Y-113883571D01*
X132691187Y-113887287D01*
X132654938Y-113875429D01*
X132571473Y-113842810D01*
X132451845Y-113793901D01*
X132307110Y-113733175D01*
X132246687Y-113707444D01*
X131826000Y-113527564D01*
X131826000Y-112778972D01*
X131679088Y-112713986D01*
X131592996Y-112676849D01*
X131534355Y-112653327D01*
X131520338Y-112649000D01*
X131515693Y-112678668D01*
X131511903Y-112759345D01*
X131509372Y-112878543D01*
X131508500Y-113016771D01*
X131506410Y-113159808D01*
X131500725Y-113274996D01*
X131492322Y-113350325D01*
X131482432Y-113373959D01*
X131444245Y-113358228D01*
X131360157Y-113323472D01*
X131242933Y-113274969D01*
X131117307Y-113222956D01*
X130778250Y-113082537D01*
X130778250Y-112307846D01*
X130627437Y-112242535D01*
X130476625Y-112177224D01*
X130467966Y-112767991D01*
X130466492Y-112955810D01*
X130467620Y-113121626D01*
X130471080Y-113255044D01*
X130476604Y-113345665D01*
X130483841Y-113383016D01*
X130517453Y-113400459D01*
X130603147Y-113440109D01*
X130734628Y-113499185D01*
X130905602Y-113574905D01*
X131109775Y-113664488D01*
X131340851Y-113765151D01*
X131592537Y-113874113D01*
X131696557Y-113918961D01*
X131956194Y-114030918D01*
X132199078Y-114135930D01*
X132418684Y-114231154D01*
X132608488Y-114313751D01*
X132761965Y-114380877D01*
X132872591Y-114429692D01*
X132933840Y-114457353D01*
X132942744Y-114461691D01*
X132961895Y-114469019D01*
X132961895Y-116072356D01*
X131897437Y-115613511D01*
X130794125Y-115137919D01*
X130784098Y-114999319D01*
X130782928Y-114855458D01*
X130807940Y-114757517D01*
X130864691Y-114691359D01*
X130917232Y-114660587D01*
X130982838Y-114633697D01*
X131041814Y-114626553D01*
X131118242Y-114639366D01*
X131204577Y-114663092D01*
X131382478Y-114742929D01*
X131533699Y-114865036D01*
X131648273Y-115017195D01*
X131716238Y-115187186D01*
X131730750Y-115308299D01*
X131754638Y-115363601D01*
X131831800Y-115412410D01*
X131858392Y-115423678D01*
X131940921Y-115455033D01*
X131996413Y-115473051D01*
X132005677Y-115474750D01*
X132017921Y-115446614D01*
X132016589Y-115372590D01*
X132004052Y-115268256D01*
X131982682Y-115149189D01*
X131954848Y-115030967D01*
X131922922Y-114929165D01*
X131922432Y-114927864D01*
X131865592Y-114804159D01*
X131786667Y-114664892D01*
X131715293Y-114557973D01*
X131553112Y-114385104D01*
X131358836Y-114256502D01*
X131145194Y-114178942D01*
X130964174Y-114158184D01*
X130799365Y-114176495D01*
X130675020Y-114236715D01*
X130577958Y-114346777D01*
X130540427Y-114413174D01*
X130514705Y-114472281D01*
X130496910Y-114538857D01*
X130485648Y-114625628D01*
X130479524Y-114745322D01*
X130477144Y-114910665D01*
X130476927Y-114992578D01*
X130476625Y-115447030D01*
X131683125Y-115968719D01*
X131944469Y-116081586D01*
X132189006Y-116186931D01*
X132410297Y-116281999D01*
X132601905Y-116364037D01*
X132757392Y-116430290D01*
X132870319Y-116478004D01*
X132934250Y-116504426D01*
X132945187Y-116508594D01*
X132974513Y-116511415D01*
X132974513Y-117421454D01*
X132965050Y-117388879D01*
X132888911Y-117238819D01*
X132777419Y-117090220D01*
X132645601Y-116958602D01*
X132508489Y-116859488D01*
X132409691Y-116815360D01*
X132265842Y-116782212D01*
X132133304Y-116776673D01*
X131995693Y-116801354D01*
X131836625Y-116858871D01*
X131679827Y-116931807D01*
X131478750Y-117027825D01*
X131321907Y-117092955D01*
X131199008Y-117128862D01*
X131099768Y-117137211D01*
X131013896Y-117119665D01*
X130931106Y-117077889D01*
X130900923Y-117057831D01*
X130830555Y-116982529D01*
X130767341Y-116871674D01*
X130724866Y-116752887D01*
X130714749Y-116679343D01*
X130728844Y-116611051D01*
X130763929Y-116520164D01*
X130776486Y-116494207D01*
X130838223Y-116373194D01*
X130718087Y-116255885D01*
X130644248Y-116189040D01*
X130598398Y-116164448D01*
X130567451Y-116175935D01*
X130561780Y-116182161D01*
X130491757Y-116306116D01*
X130445768Y-116471917D01*
X130429002Y-116660767D01*
X130429000Y-116663165D01*
X130453996Y-116899555D01*
X130524781Y-117114623D01*
X130635046Y-117300707D01*
X130778484Y-117450147D01*
X130948787Y-117555279D01*
X131139649Y-117608442D01*
X131211251Y-117613370D01*
X131295071Y-117609670D01*
X131379272Y-117592684D01*
X131479042Y-117557436D01*
X131609564Y-117498947D01*
X131711512Y-117449363D01*
X131853610Y-117381399D01*
X131983767Y-117323321D01*
X132086538Y-117281770D01*
X132142194Y-117264124D01*
X132312206Y-117260722D01*
X132469171Y-117317417D01*
X132569439Y-117395056D01*
X132683003Y-117545592D01*
X132734047Y-117705604D01*
X132722269Y-117871877D01*
X132647364Y-118041192D01*
X132632335Y-118064203D01*
X132551349Y-118183541D01*
X132682450Y-118313458D01*
X132756731Y-118385101D01*
X132801171Y-118417077D01*
X132801171Y-118735998D01*
X132565687Y-118649856D01*
X132299939Y-118551842D01*
X132022224Y-118448706D01*
X131739299Y-118342974D01*
X131457921Y-118237172D01*
X131184845Y-118133829D01*
X130926829Y-118035469D01*
X130690628Y-117944622D01*
X130483000Y-117863812D01*
X130310701Y-117795568D01*
X130180486Y-117742416D01*
X130099113Y-117706882D01*
X130087480Y-117701194D01*
X129934188Y-117592248D01*
X129798934Y-117437927D01*
X129696799Y-117256289D01*
X129679718Y-117212934D01*
X129672427Y-117191263D01*
X129665740Y-117166401D01*
X129659627Y-117135610D01*
X129654058Y-117096153D01*
X129649001Y-117045293D01*
X129644427Y-116980293D01*
X129640306Y-116898414D01*
X129636606Y-116796921D01*
X129633297Y-116673076D01*
X129630349Y-116524141D01*
X129627731Y-116347379D01*
X129625413Y-116140053D01*
X129623365Y-115899426D01*
X129621555Y-115622760D01*
X129619953Y-115307318D01*
X129618530Y-114950363D01*
X129617254Y-114549157D01*
X129616095Y-114100964D01*
X129615022Y-113603045D01*
X129614006Y-113052664D01*
X129613015Y-112447084D01*
X129612019Y-111783567D01*
X129610988Y-111059375D01*
X129610954Y-111034908D01*
X129602533Y-105023441D01*
X129680807Y-104930418D01*
X129719326Y-104879694D01*
X129741119Y-104829513D01*
X129749231Y-104762099D01*
X129746704Y-104659673D01*
X129741482Y-104576010D01*
X129734343Y-104442002D01*
X129737070Y-104349851D01*
X129753149Y-104278237D01*
X129786066Y-104205840D01*
X129808713Y-104164829D01*
X129877302Y-104060819D01*
X129954697Y-103967540D01*
X129988845Y-103934841D01*
X130084148Y-103854649D01*
X130062183Y-103592512D01*
X130045459Y-103453262D01*
X130022540Y-103344059D01*
X129996875Y-103280972D01*
X129994768Y-103278355D01*
X129976075Y-103243177D01*
X129963917Y-103181977D01*
X129957599Y-103085058D01*
X129956428Y-102942721D01*
X129958971Y-102778241D01*
X129962012Y-102599363D01*
X129961581Y-102474632D01*
X129956856Y-102394748D01*
X129947016Y-102350412D01*
X129931241Y-102332327D01*
X129919412Y-102330199D01*
X129863986Y-102318382D01*
X129826936Y-102276640D01*
X129805110Y-102195745D01*
X129795362Y-102066468D01*
X129793999Y-101962663D01*
X129791099Y-101810771D01*
X129781336Y-101711106D01*
X129763119Y-101652613D01*
X129746374Y-101631750D01*
X129705437Y-101559300D01*
X129705907Y-101455402D01*
X129735537Y-101363498D01*
X129755797Y-101292579D01*
X129732908Y-101237341D01*
X129724488Y-101227067D01*
X129676542Y-101157082D01*
X129656947Y-101115813D01*
X129625105Y-101068939D01*
X129604496Y-101060250D01*
X129581505Y-101032665D01*
X129571752Y-100966199D01*
X129571750Y-100965000D01*
X129560899Y-100894140D01*
X129522747Y-100870156D01*
X129513541Y-100869750D01*
X129452127Y-100859579D01*
X129434244Y-100821374D01*
X129455881Y-100743595D01*
X129463327Y-100725306D01*
X129501913Y-100619535D01*
X129503371Y-100557838D01*
X129461269Y-100528702D01*
X129369172Y-100520611D01*
X129348895Y-100520500D01*
X129255156Y-100522172D01*
X129210727Y-100533150D01*
X129201418Y-100562382D01*
X129210412Y-100607813D01*
X129236639Y-100694573D01*
X129260110Y-100751344D01*
X129273993Y-100822367D01*
X129233522Y-100863190D01*
X129188876Y-100869750D01*
X129137203Y-100893056D01*
X129127250Y-100933681D01*
X129100468Y-101039649D01*
X129023959Y-101165108D01*
X128987945Y-101209820D01*
X128949143Y-101268126D01*
X128949585Y-101325687D01*
X128967801Y-101376065D01*
X128991856Y-101502550D01*
X128984549Y-101575745D01*
X128972487Y-101654674D01*
X128960264Y-101775420D01*
X128949946Y-101916344D01*
X128947056Y-101968646D01*
X128939287Y-102105918D01*
X128928672Y-102197064D01*
X128909348Y-102259385D01*
X128875451Y-102310181D01*
X128821117Y-102366754D01*
X128807675Y-102379902D01*
X128734298Y-102457421D01*
X128697149Y-102522569D01*
X128684083Y-102604113D01*
X128682750Y-102675752D01*
X128689328Y-102794955D01*
X128706079Y-102904139D01*
X128717906Y-102947121D01*
X128735815Y-103045996D01*
X128735831Y-103196980D01*
X128725843Y-103330375D01*
X128698625Y-103616125D01*
X128594978Y-103626109D01*
X128522976Y-103649862D01*
X128440927Y-103700375D01*
X128364007Y-103764423D01*
X128307391Y-103828782D01*
X128286256Y-103880227D01*
X128289679Y-103892157D01*
X128284695Y-103935069D01*
X128253148Y-103982330D01*
X128229810Y-104013100D01*
X128225729Y-104044366D01*
X128246641Y-104087515D01*
X128298276Y-104153932D01*
X128386368Y-104255004D01*
X128395802Y-104265650D01*
X128495496Y-104375458D01*
X128567318Y-104439223D01*
X128625216Y-104458691D01*
X128683134Y-104435606D01*
X128755017Y-104371714D01*
X128808040Y-104317231D01*
X128884027Y-104250496D01*
X128953318Y-104209582D01*
X128978973Y-104203500D01*
X129006772Y-104207620D01*
X129023724Y-104227645D01*
X129031507Y-104275072D01*
X129031804Y-104361398D01*
X129026294Y-104498122D01*
X129025246Y-104520048D01*
X129019156Y-104665523D01*
X129019182Y-104761954D01*
X129027521Y-104823679D01*
X129046373Y-104865033D01*
X129077933Y-104900353D01*
X129084502Y-104906582D01*
X129159000Y-104976569D01*
X129159972Y-110963847D01*
X129160224Y-111582014D01*
X129160768Y-112186746D01*
X129161587Y-112774669D01*
X129162667Y-113342408D01*
X129163991Y-113886590D01*
X129165543Y-114403840D01*
X129167309Y-114890784D01*
X129169271Y-115344049D01*
X129171415Y-115760259D01*
X129173725Y-116136041D01*
X129176185Y-116468021D01*
X129178779Y-116752825D01*
X129181492Y-116987078D01*
X129184307Y-117167406D01*
X129187210Y-117290435D01*
X129189698Y-117346942D01*
X129203684Y-117520091D01*
X129218822Y-117646806D01*
X129238909Y-117744100D01*
X129267742Y-117828984D01*
X129309119Y-117918471D01*
X129323663Y-117947043D01*
X129392308Y-118067945D01*
X129459184Y-118149960D01*
X129543405Y-118214169D01*
X129591722Y-118242684D01*
X129652994Y-118271601D01*
X129767230Y-118320049D01*
X129928352Y-118385718D01*
X130130286Y-118466297D01*
X130366954Y-118559476D01*
X130632282Y-118662944D01*
X130920194Y-118774391D01*
X131224614Y-118891506D01*
X131539465Y-119011980D01*
X131858673Y-119133501D01*
X132176161Y-119253759D01*
X132485853Y-119370444D01*
X132781674Y-119481246D01*
X133057547Y-119583853D01*
X133307397Y-119675955D01*
X133525148Y-119755243D01*
X133704725Y-119819405D01*
X133840050Y-119866131D01*
X133925049Y-119893111D01*
X133945326Y-119898207D01*
X134080199Y-119899579D01*
X134080199Y-120586500D01*
X127571500Y-120586500D01*
X127571500Y-96583500D01*
X135318500Y-96583500D01*
D11*
X145712000Y-64710000D02*
X145712000Y-95310000D01*
X145712000Y-95310000D02*
X148372000Y-95310000D01*
X148372000Y-95310000D02*
X148372000Y-64710000D01*
X148372000Y-64710000D02*
X145712000Y-64710000D01*
X148372000Y-65660000D02*
X154372000Y-65660000D01*
X154372000Y-65660000D02*
X154372000Y-66420000D01*
X154372000Y-66420000D02*
X148372000Y-66420000D01*
X148372000Y-65720000D02*
X154372000Y-65720000D01*
X148372000Y-65840000D02*
X154372000Y-65840000D01*
X148372000Y-65960000D02*
X154372000Y-65960000D01*
X148372000Y-66080000D02*
X154372000Y-66080000D01*
X148372000Y-66200000D02*
X154372000Y-66200000D01*
X148372000Y-66320000D02*
X154372000Y-66320000D01*
X145382000Y-65660000D02*
X145712000Y-65660000D01*
X145382000Y-66420000D02*
X145712000Y-66420000D01*
X145712000Y-67310000D02*
X148372000Y-67310000D01*
X148372000Y-68200000D02*
X154372000Y-68200000D01*
X154372000Y-68200000D02*
X154372000Y-68960000D01*
X154372000Y-68960000D02*
X148372000Y-68960000D01*
X145314929Y-68200000D02*
X145712000Y-68200000D01*
X145314929Y-68960000D02*
X145712000Y-68960000D01*
X145712000Y-69850000D02*
X148372000Y-69850000D01*
X148372000Y-70740000D02*
X154372000Y-70740000D01*
X154372000Y-70740000D02*
X154372000Y-71500000D01*
X154372000Y-71500000D02*
X148372000Y-71500000D01*
X145314929Y-70740000D02*
X145712000Y-70740000D01*
X145314929Y-71500000D02*
X145712000Y-71500000D01*
X145712000Y-72390000D02*
X148372000Y-72390000D01*
X148372000Y-73280000D02*
X154372000Y-73280000D01*
X154372000Y-73280000D02*
X154372000Y-74040000D01*
X154372000Y-74040000D02*
X148372000Y-74040000D01*
X145314929Y-73280000D02*
X145712000Y-73280000D01*
X145314929Y-74040000D02*
X145712000Y-74040000D01*
X145712000Y-74930000D02*
X148372000Y-74930000D01*
X148372000Y-75820000D02*
X154372000Y-75820000D01*
X154372000Y-75820000D02*
X154372000Y-76580000D01*
X154372000Y-76580000D02*
X148372000Y-76580000D01*
X145314929Y-75820000D02*
X145712000Y-75820000D01*
X145314929Y-76580000D02*
X145712000Y-76580000D01*
X145712000Y-77470000D02*
X148372000Y-77470000D01*
X148372000Y-78360000D02*
X154372000Y-78360000D01*
X154372000Y-78360000D02*
X154372000Y-79120000D01*
X154372000Y-79120000D02*
X148372000Y-79120000D01*
X145314929Y-78360000D02*
X145712000Y-78360000D01*
X145314929Y-79120000D02*
X145712000Y-79120000D01*
X145712000Y-80010000D02*
X148372000Y-80010000D01*
X148372000Y-80900000D02*
X154372000Y-80900000D01*
X154372000Y-80900000D02*
X154372000Y-81660000D01*
X154372000Y-81660000D02*
X148372000Y-81660000D01*
X145314929Y-80900000D02*
X145712000Y-80900000D01*
X145314929Y-81660000D02*
X145712000Y-81660000D01*
X145712000Y-82550000D02*
X148372000Y-82550000D01*
X148372000Y-83440000D02*
X154372000Y-83440000D01*
X154372000Y-83440000D02*
X154372000Y-84200000D01*
X154372000Y-84200000D02*
X148372000Y-84200000D01*
X145314929Y-83440000D02*
X145712000Y-83440000D01*
X145314929Y-84200000D02*
X145712000Y-84200000D01*
X145712000Y-85090000D02*
X148372000Y-85090000D01*
X148372000Y-85980000D02*
X154372000Y-85980000D01*
X154372000Y-85980000D02*
X154372000Y-86740000D01*
X154372000Y-86740000D02*
X148372000Y-86740000D01*
X145314929Y-85980000D02*
X145712000Y-85980000D01*
X145314929Y-86740000D02*
X145712000Y-86740000D01*
X145712000Y-87630000D02*
X148372000Y-87630000D01*
X148372000Y-88520000D02*
X154372000Y-88520000D01*
X154372000Y-88520000D02*
X154372000Y-89280000D01*
X154372000Y-89280000D02*
X148372000Y-89280000D01*
X145314929Y-88520000D02*
X145712000Y-88520000D01*
X145314929Y-89280000D02*
X145712000Y-89280000D01*
X145712000Y-90170000D02*
X148372000Y-90170000D01*
X148372000Y-91060000D02*
X154372000Y-91060000D01*
X154372000Y-91060000D02*
X154372000Y-91820000D01*
X154372000Y-91820000D02*
X148372000Y-91820000D01*
X145314929Y-91060000D02*
X145712000Y-91060000D01*
X145314929Y-91820000D02*
X145712000Y-91820000D01*
X145712000Y-92710000D02*
X148372000Y-92710000D01*
X148372000Y-93600000D02*
X154372000Y-93600000D01*
X154372000Y-93600000D02*
X154372000Y-94360000D01*
X154372000Y-94360000D02*
X148372000Y-94360000D01*
X145314929Y-93600000D02*
X145712000Y-93600000D01*
X145314929Y-94360000D02*
X145712000Y-94360000D01*
X143002000Y-66040000D02*
X143002000Y-64770000D01*
X143002000Y-64770000D02*
X144272000Y-64770000D01*
X143256000Y-121920000D02*
X144526000Y-121920000D01*
X143256000Y-123190000D02*
X143256000Y-121920000D01*
X145568929Y-151510000D02*
X145966000Y-151510000D01*
X145568929Y-150750000D02*
X145966000Y-150750000D01*
X154626000Y-151510000D02*
X148626000Y-151510000D01*
X154626000Y-150750000D02*
X154626000Y-151510000D01*
X148626000Y-150750000D02*
X154626000Y-150750000D01*
X145966000Y-149860000D02*
X148626000Y-149860000D01*
X145568929Y-148970000D02*
X145966000Y-148970000D01*
X145568929Y-148210000D02*
X145966000Y-148210000D01*
X154626000Y-148970000D02*
X148626000Y-148970000D01*
X154626000Y-148210000D02*
X154626000Y-148970000D01*
X148626000Y-148210000D02*
X154626000Y-148210000D01*
X145966000Y-147320000D02*
X148626000Y-147320000D01*
X145568929Y-146430000D02*
X145966000Y-146430000D01*
X145568929Y-145670000D02*
X145966000Y-145670000D01*
X154626000Y-146430000D02*
X148626000Y-146430000D01*
X154626000Y-145670000D02*
X154626000Y-146430000D01*
X148626000Y-145670000D02*
X154626000Y-145670000D01*
X145966000Y-144780000D02*
X148626000Y-144780000D01*
X145568929Y-143890000D02*
X145966000Y-143890000D01*
X145568929Y-143130000D02*
X145966000Y-143130000D01*
X154626000Y-143890000D02*
X148626000Y-143890000D01*
X154626000Y-143130000D02*
X154626000Y-143890000D01*
X148626000Y-143130000D02*
X154626000Y-143130000D01*
X145966000Y-142240000D02*
X148626000Y-142240000D01*
X145568929Y-141350000D02*
X145966000Y-141350000D01*
X145568929Y-140590000D02*
X145966000Y-140590000D01*
X154626000Y-141350000D02*
X148626000Y-141350000D01*
X154626000Y-140590000D02*
X154626000Y-141350000D01*
X148626000Y-140590000D02*
X154626000Y-140590000D01*
X145966000Y-139700000D02*
X148626000Y-139700000D01*
X145568929Y-138810000D02*
X145966000Y-138810000D01*
X145568929Y-138050000D02*
X145966000Y-138050000D01*
X154626000Y-138810000D02*
X148626000Y-138810000D01*
X154626000Y-138050000D02*
X154626000Y-138810000D01*
X148626000Y-138050000D02*
X154626000Y-138050000D01*
X145966000Y-137160000D02*
X148626000Y-137160000D01*
X145568929Y-136270000D02*
X145966000Y-136270000D01*
X145568929Y-135510000D02*
X145966000Y-135510000D01*
X154626000Y-136270000D02*
X148626000Y-136270000D01*
X154626000Y-135510000D02*
X154626000Y-136270000D01*
X148626000Y-135510000D02*
X154626000Y-135510000D01*
X145966000Y-134620000D02*
X148626000Y-134620000D01*
X145568929Y-133730000D02*
X145966000Y-133730000D01*
X145568929Y-132970000D02*
X145966000Y-132970000D01*
X154626000Y-133730000D02*
X148626000Y-133730000D01*
X154626000Y-132970000D02*
X154626000Y-133730000D01*
X148626000Y-132970000D02*
X154626000Y-132970000D01*
X145966000Y-132080000D02*
X148626000Y-132080000D01*
X145568929Y-131190000D02*
X145966000Y-131190000D01*
X145568929Y-130430000D02*
X145966000Y-130430000D01*
X154626000Y-131190000D02*
X148626000Y-131190000D01*
X154626000Y-130430000D02*
X154626000Y-131190000D01*
X148626000Y-130430000D02*
X154626000Y-130430000D01*
X145966000Y-129540000D02*
X148626000Y-129540000D01*
X145568929Y-128650000D02*
X145966000Y-128650000D01*
X145568929Y-127890000D02*
X145966000Y-127890000D01*
X154626000Y-128650000D02*
X148626000Y-128650000D01*
X154626000Y-127890000D02*
X154626000Y-128650000D01*
X148626000Y-127890000D02*
X154626000Y-127890000D01*
X145966000Y-127000000D02*
X148626000Y-127000000D01*
X145568929Y-126110000D02*
X145966000Y-126110000D01*
X145568929Y-125350000D02*
X145966000Y-125350000D01*
X154626000Y-126110000D02*
X148626000Y-126110000D01*
X154626000Y-125350000D02*
X154626000Y-126110000D01*
X148626000Y-125350000D02*
X154626000Y-125350000D01*
X145966000Y-124460000D02*
X148626000Y-124460000D01*
X145636000Y-123570000D02*
X145966000Y-123570000D01*
X145636000Y-122810000D02*
X145966000Y-122810000D01*
X148626000Y-123470000D02*
X154626000Y-123470000D01*
X148626000Y-123350000D02*
X154626000Y-123350000D01*
X148626000Y-123230000D02*
X154626000Y-123230000D01*
X148626000Y-123110000D02*
X154626000Y-123110000D01*
X148626000Y-122990000D02*
X154626000Y-122990000D01*
X148626000Y-122870000D02*
X154626000Y-122870000D01*
X154626000Y-123570000D02*
X148626000Y-123570000D01*
X154626000Y-122810000D02*
X154626000Y-123570000D01*
X148626000Y-122810000D02*
X154626000Y-122810000D01*
X148626000Y-121860000D02*
X145966000Y-121860000D01*
X148626000Y-152460000D02*
X148626000Y-121860000D01*
X145966000Y-152460000D02*
X148626000Y-152460000D01*
X145966000Y-121860000D02*
X145966000Y-152460000D01*
D13*
X117206000Y-64216000D02*
X117206000Y-155316000D01*
X117206000Y-155316000D02*
X110806000Y-155316000D01*
X110806000Y-155316000D02*
X110806000Y-150766000D01*
X110806000Y-150766000D02*
X99206000Y-150766000D01*
X99206000Y-150766000D02*
X99006000Y-150766000D01*
X99006000Y-150766000D02*
X99006000Y-68766000D01*
X99006000Y-68766000D02*
X110806000Y-68766000D01*
X110806000Y-68766000D02*
X110806000Y-64216000D01*
X110806000Y-64216000D02*
X117206000Y-64216000D01*
D14*
X124306000Y-148366000D02*
X124306000Y-148366000D01*
X124106000Y-148366000D02*
X124106000Y-148366000D01*
X124106000Y-148366000D02*
G75*
G02X124306000Y-148366000I100000J0D01*
G01*
X124306000Y-148366000D02*
G75*
G02X124106000Y-148366000I-100000J0D01*
G01*
D11*
X146050000Y-117475000D02*
X148590000Y-117475000D01*
X148590000Y-113030000D02*
X151130000Y-116840000D01*
X151130000Y-114935000D02*
X149860000Y-114935000D01*
X146050000Y-109855000D02*
X148590000Y-109855000D01*
X148590000Y-109855000D02*
X148590000Y-113030000D01*
X147830000Y-101725000D02*
X148840000Y-102745000D01*
X152400000Y-102235000D02*
X152400000Y-100965000D01*
X149610000Y-102235000D02*
X152400000Y-102235000D01*
X144780000Y-102235000D02*
X147070000Y-102235000D01*
X144780000Y-100965000D02*
X144780000Y-102235000D01*
X147070000Y-102235000D02*
X147070000Y-101725000D01*
X147070000Y-101725000D02*
X149610000Y-101725000D01*
X149610000Y-101725000D02*
X149610000Y-102235000D01*
X149610000Y-102235000D02*
X149610000Y-102745000D01*
X149610000Y-102745000D02*
X147070000Y-102745000D01*
X147070000Y-102745000D02*
X147070000Y-102235000D01*
X143090000Y-98015000D02*
X143090000Y-119155000D01*
X143090000Y-119155000D02*
X154090000Y-119155000D01*
X143090000Y-98015000D02*
X154090000Y-98015000D01*
X154090000Y-98015000D02*
X154090000Y-119155000D01*
X148717000Y-113030000D02*
G75*
G03X148717000Y-113030000I-127000J0D01*
G01*
D15*
X148323666Y-63222380D02*
X148323666Y-63936666D01*
X148276047Y-64079523D01*
X148180809Y-64174761D01*
X148037952Y-64222380D01*
X147942714Y-64222380D01*
X148752238Y-63317619D02*
X148799857Y-63270000D01*
X148895095Y-63222380D01*
X149133190Y-63222380D01*
X149228428Y-63270000D01*
X149276047Y-63317619D01*
X149323666Y-63412857D01*
X149323666Y-63508095D01*
X149276047Y-63650952D01*
X148704619Y-64222380D01*
X149323666Y-64222380D01*
X138390476Y-94337142D02*
X138342857Y-94384761D01*
X138200000Y-94432380D01*
X138104761Y-94432380D01*
X137961904Y-94384761D01*
X137866666Y-94289523D01*
X137819047Y-94194285D01*
X137771428Y-94003809D01*
X137771428Y-93860952D01*
X137819047Y-93670476D01*
X137866666Y-93575238D01*
X137961904Y-93480000D01*
X138104761Y-93432380D01*
X138200000Y-93432380D01*
X138342857Y-93480000D01*
X138390476Y-93527619D01*
X138819047Y-94432380D02*
X138819047Y-93765714D01*
X138819047Y-93956190D02*
X138866666Y-93860952D01*
X138914285Y-93813333D01*
X139009523Y-93765714D01*
X139104761Y-93765714D01*
X139866666Y-94432380D02*
X139866666Y-93908571D01*
X139819047Y-93813333D01*
X139723809Y-93765714D01*
X139533333Y-93765714D01*
X139438095Y-93813333D01*
X139866666Y-94384761D02*
X139771428Y-94432380D01*
X139533333Y-94432380D01*
X139438095Y-94384761D01*
X139390476Y-94289523D01*
X139390476Y-94194285D01*
X139438095Y-94099047D01*
X139533333Y-94051428D01*
X139771428Y-94051428D01*
X139866666Y-94003809D01*
X140342857Y-93765714D02*
X140342857Y-94432380D01*
X140342857Y-93860952D02*
X140390476Y-93813333D01*
X140485714Y-93765714D01*
X140628571Y-93765714D01*
X140723809Y-93813333D01*
X140771428Y-93908571D01*
X140771428Y-94432380D01*
X141247619Y-94432380D02*
X141247619Y-93432380D01*
X141342857Y-94051428D02*
X141628571Y-94432380D01*
X141628571Y-93765714D02*
X141247619Y-94146666D01*
X139525476Y-91797142D02*
X139477857Y-91844761D01*
X139335000Y-91892380D01*
X139239761Y-91892380D01*
X139096904Y-91844761D01*
X139001666Y-91749523D01*
X138954047Y-91654285D01*
X138906428Y-91463809D01*
X138906428Y-91320952D01*
X138954047Y-91130476D01*
X139001666Y-91035238D01*
X139096904Y-90940000D01*
X139239761Y-90892380D01*
X139335000Y-90892380D01*
X139477857Y-90940000D01*
X139525476Y-90987619D01*
X140382619Y-91892380D02*
X140382619Y-91368571D01*
X140335000Y-91273333D01*
X140239761Y-91225714D01*
X140049285Y-91225714D01*
X139954047Y-91273333D01*
X140382619Y-91844761D02*
X140287380Y-91892380D01*
X140049285Y-91892380D01*
X139954047Y-91844761D01*
X139906428Y-91749523D01*
X139906428Y-91654285D01*
X139954047Y-91559047D01*
X140049285Y-91511428D01*
X140287380Y-91511428D01*
X140382619Y-91463809D01*
X140858809Y-91892380D02*
X140858809Y-91225714D01*
X140858809Y-91320952D02*
X140906428Y-91273333D01*
X141001666Y-91225714D01*
X141144523Y-91225714D01*
X141239761Y-91273333D01*
X141287380Y-91368571D01*
X141287380Y-91892380D01*
X141287380Y-91368571D02*
X141335000Y-91273333D01*
X141430238Y-91225714D01*
X141573095Y-91225714D01*
X141668333Y-91273333D01*
X141715952Y-91368571D01*
X141715952Y-91892380D01*
X137628571Y-88352380D02*
X138200000Y-88352380D01*
X137914285Y-89352380D02*
X137914285Y-88352380D01*
X138961904Y-89352380D02*
X138961904Y-88828571D01*
X138914285Y-88733333D01*
X138819047Y-88685714D01*
X138628571Y-88685714D01*
X138533333Y-88733333D01*
X138961904Y-89304761D02*
X138866666Y-89352380D01*
X138628571Y-89352380D01*
X138533333Y-89304761D01*
X138485714Y-89209523D01*
X138485714Y-89114285D01*
X138533333Y-89019047D01*
X138628571Y-88971428D01*
X138866666Y-88971428D01*
X138961904Y-88923809D01*
X139866666Y-89304761D02*
X139771428Y-89352380D01*
X139580952Y-89352380D01*
X139485714Y-89304761D01*
X139438095Y-89257142D01*
X139390476Y-89161904D01*
X139390476Y-88876190D01*
X139438095Y-88780952D01*
X139485714Y-88733333D01*
X139580952Y-88685714D01*
X139771428Y-88685714D01*
X139866666Y-88733333D01*
X140295238Y-89352380D02*
X140295238Y-88352380D01*
X140723809Y-89352380D02*
X140723809Y-88828571D01*
X140676190Y-88733333D01*
X140580952Y-88685714D01*
X140438095Y-88685714D01*
X140342857Y-88733333D01*
X140295238Y-88780952D01*
X141342857Y-89352380D02*
X141247619Y-89304761D01*
X141200000Y-89257142D01*
X141152380Y-89161904D01*
X141152380Y-88876190D01*
X141200000Y-88780952D01*
X141247619Y-88733333D01*
X141342857Y-88685714D01*
X141485714Y-88685714D01*
X141580952Y-88733333D01*
X141628571Y-88780952D01*
X141676190Y-88876190D01*
X141676190Y-89161904D01*
X141628571Y-89257142D01*
X141580952Y-89304761D01*
X141485714Y-89352380D01*
X141342857Y-89352380D01*
X139073095Y-85812380D02*
X139644523Y-85812380D01*
X139358809Y-86812380D02*
X139358809Y-85812380D01*
X139977857Y-86812380D02*
X139977857Y-85812380D01*
X140358809Y-85812380D01*
X140454047Y-85860000D01*
X140501666Y-85907619D01*
X140549285Y-86002857D01*
X140549285Y-86145714D01*
X140501666Y-86240952D01*
X140454047Y-86288571D01*
X140358809Y-86336190D01*
X139977857Y-86336190D01*
X140930238Y-86764761D02*
X141073095Y-86812380D01*
X141311190Y-86812380D01*
X141406428Y-86764761D01*
X141454047Y-86717142D01*
X141501666Y-86621904D01*
X141501666Y-86526666D01*
X141454047Y-86431428D01*
X141406428Y-86383809D01*
X141311190Y-86336190D01*
X141120714Y-86288571D01*
X141025476Y-86240952D01*
X140977857Y-86193333D01*
X140930238Y-86098095D01*
X140930238Y-86002857D01*
X140977857Y-85907619D01*
X141025476Y-85860000D01*
X141120714Y-85812380D01*
X141358809Y-85812380D01*
X141501666Y-85860000D01*
X139763571Y-83272380D02*
X139954047Y-83272380D01*
X140049285Y-83320000D01*
X140144523Y-83415238D01*
X140192142Y-83605714D01*
X140192142Y-83939047D01*
X140144523Y-84129523D01*
X140049285Y-84224761D01*
X139954047Y-84272380D01*
X139763571Y-84272380D01*
X139668333Y-84224761D01*
X139573095Y-84129523D01*
X139525476Y-83939047D01*
X139525476Y-83605714D01*
X139573095Y-83415238D01*
X139668333Y-83320000D01*
X139763571Y-83272380D01*
X140573095Y-83367619D02*
X140620714Y-83320000D01*
X140715952Y-83272380D01*
X140954047Y-83272380D01*
X141049285Y-83320000D01*
X141096904Y-83367619D01*
X141144523Y-83462857D01*
X141144523Y-83558095D01*
X141096904Y-83700952D01*
X140525476Y-84272380D01*
X141144523Y-84272380D01*
X139525476Y-81732380D02*
X139525476Y-80732380D01*
X139954047Y-81446666D02*
X140430238Y-81446666D01*
X139858809Y-81732380D02*
X140192142Y-80732380D01*
X140525476Y-81732380D01*
X140715952Y-80732380D02*
X141287380Y-80732380D01*
X141001666Y-81732380D02*
X141001666Y-80732380D01*
X139858809Y-79097142D02*
X139811190Y-79144761D01*
X139668333Y-79192380D01*
X139573095Y-79192380D01*
X139430238Y-79144761D01*
X139335000Y-79049523D01*
X139287380Y-78954285D01*
X139239761Y-78763809D01*
X139239761Y-78620952D01*
X139287380Y-78430476D01*
X139335000Y-78335238D01*
X139430238Y-78240000D01*
X139573095Y-78192380D01*
X139668333Y-78192380D01*
X139811190Y-78240000D01*
X139858809Y-78287619D01*
X140763571Y-79192380D02*
X140287380Y-79192380D01*
X140287380Y-78192380D01*
X140954047Y-78192380D02*
X141525476Y-78192380D01*
X141239761Y-79192380D02*
X141239761Y-78192380D01*
X139192142Y-76652380D02*
X139192142Y-75652380D01*
X140096904Y-76652380D02*
X140096904Y-75652380D01*
X140096904Y-76604761D02*
X140001666Y-76652380D01*
X139811190Y-76652380D01*
X139715952Y-76604761D01*
X139668333Y-76557142D01*
X139620714Y-76461904D01*
X139620714Y-76176190D01*
X139668333Y-76080952D01*
X139715952Y-76033333D01*
X139811190Y-75985714D01*
X140001666Y-75985714D01*
X140096904Y-76033333D01*
X140715952Y-76652380D02*
X140620714Y-76604761D01*
X140573095Y-76509523D01*
X140573095Y-75652380D01*
X141477857Y-76604761D02*
X141382619Y-76652380D01*
X141192142Y-76652380D01*
X141096904Y-76604761D01*
X141049285Y-76509523D01*
X141049285Y-76128571D01*
X141096904Y-76033333D01*
X141192142Y-75985714D01*
X141382619Y-75985714D01*
X141477857Y-76033333D01*
X141525476Y-76128571D01*
X141525476Y-76223809D01*
X141049285Y-76319047D01*
X138954047Y-74112380D02*
X138954047Y-73112380D01*
X139430238Y-74112380D02*
X139430238Y-73112380D01*
X140001666Y-74112380D01*
X140001666Y-73112380D01*
X140763571Y-73112380D02*
X140763571Y-73826666D01*
X140715952Y-73969523D01*
X140620714Y-74064761D01*
X140477857Y-74112380D01*
X140382619Y-74112380D01*
X141763571Y-74112380D02*
X141192142Y-74112380D01*
X141477857Y-74112380D02*
X141477857Y-73112380D01*
X141382619Y-73255238D01*
X141287380Y-73350476D01*
X141192142Y-73398095D01*
X138954047Y-71572380D02*
X138954047Y-70572380D01*
X139430238Y-71572380D02*
X139430238Y-70572380D01*
X140001666Y-71572380D01*
X140001666Y-70572380D01*
X140763571Y-70572380D02*
X140763571Y-71286666D01*
X140715952Y-71429523D01*
X140620714Y-71524761D01*
X140477857Y-71572380D01*
X140382619Y-71572380D01*
X141192142Y-70667619D02*
X141239761Y-70620000D01*
X141335000Y-70572380D01*
X141573095Y-70572380D01*
X141668333Y-70620000D01*
X141715952Y-70667619D01*
X141763571Y-70762857D01*
X141763571Y-70858095D01*
X141715952Y-71000952D01*
X141144523Y-71572380D01*
X141763571Y-71572380D01*
X138954047Y-69032380D02*
X138954047Y-68032380D01*
X139430238Y-69032380D02*
X139430238Y-68032380D01*
X140001666Y-69032380D01*
X140001666Y-68032380D01*
X140763571Y-68032380D02*
X140763571Y-68746666D01*
X140715952Y-68889523D01*
X140620714Y-68984761D01*
X140477857Y-69032380D01*
X140382619Y-69032380D01*
X141144523Y-68032380D02*
X141763571Y-68032380D01*
X141430238Y-68413333D01*
X141573095Y-68413333D01*
X141668333Y-68460952D01*
X141715952Y-68508571D01*
X141763571Y-68603809D01*
X141763571Y-68841904D01*
X141715952Y-68937142D01*
X141668333Y-68984761D01*
X141573095Y-69032380D01*
X141287380Y-69032380D01*
X141192142Y-68984761D01*
X141144523Y-68937142D01*
X138954047Y-66492380D02*
X138954047Y-65492380D01*
X139430238Y-66492380D02*
X139430238Y-65492380D01*
X140001666Y-66492380D01*
X140001666Y-65492380D01*
X140763571Y-65492380D02*
X140763571Y-66206666D01*
X140715952Y-66349523D01*
X140620714Y-66444761D01*
X140477857Y-66492380D01*
X140382619Y-66492380D01*
X141668333Y-65825714D02*
X141668333Y-66492380D01*
X141430238Y-65444761D02*
X141192142Y-66159047D01*
X141811190Y-66159047D01*
X148577666Y-120372380D02*
X148577666Y-121086666D01*
X148530047Y-121229523D01*
X148434809Y-121324761D01*
X148291952Y-121372380D01*
X148196714Y-121372380D01*
X148958619Y-120372380D02*
X149577666Y-120372380D01*
X149244333Y-120753333D01*
X149387190Y-120753333D01*
X149482428Y-120800952D01*
X149530047Y-120848571D01*
X149577666Y-120943809D01*
X149577666Y-121181904D01*
X149530047Y-121277142D01*
X149482428Y-121324761D01*
X149387190Y-121372380D01*
X149101476Y-121372380D01*
X149006238Y-121324761D01*
X148958619Y-121277142D01*
X137771428Y-123642380D02*
X137295238Y-123642380D01*
X137295238Y-122642380D01*
X138533333Y-123642380D02*
X138533333Y-123118571D01*
X138485714Y-123023333D01*
X138390476Y-122975714D01*
X138200000Y-122975714D01*
X138104761Y-123023333D01*
X138533333Y-123594761D02*
X138438095Y-123642380D01*
X138200000Y-123642380D01*
X138104761Y-123594761D01*
X138057142Y-123499523D01*
X138057142Y-123404285D01*
X138104761Y-123309047D01*
X138200000Y-123261428D01*
X138438095Y-123261428D01*
X138533333Y-123213809D01*
X139438095Y-122975714D02*
X139438095Y-123642380D01*
X139009523Y-122975714D02*
X139009523Y-123499523D01*
X139057142Y-123594761D01*
X139152380Y-123642380D01*
X139295238Y-123642380D01*
X139390476Y-123594761D01*
X139438095Y-123547142D01*
X139914285Y-122975714D02*
X139914285Y-123642380D01*
X139914285Y-123070952D02*
X139961904Y-123023333D01*
X140057142Y-122975714D01*
X140200000Y-122975714D01*
X140295238Y-123023333D01*
X140342857Y-123118571D01*
X140342857Y-123642380D01*
X141247619Y-123594761D02*
X141152380Y-123642380D01*
X140961904Y-123642380D01*
X140866666Y-123594761D01*
X140819047Y-123547142D01*
X140771428Y-123451904D01*
X140771428Y-123166190D01*
X140819047Y-123070952D01*
X140866666Y-123023333D01*
X140961904Y-122975714D01*
X141152380Y-122975714D01*
X141247619Y-123023333D01*
X141676190Y-123642380D02*
X141676190Y-122642380D01*
X142104761Y-123642380D02*
X142104761Y-123118571D01*
X142057142Y-123023333D01*
X141961904Y-122975714D01*
X141819047Y-122975714D01*
X141723809Y-123023333D01*
X141676190Y-123070952D01*
X140208095Y-125658571D02*
X139874761Y-125658571D01*
X139874761Y-126182380D02*
X139874761Y-125182380D01*
X140350952Y-125182380D01*
X141160476Y-126182380D02*
X141160476Y-125658571D01*
X141112857Y-125563333D01*
X141017619Y-125515714D01*
X140827142Y-125515714D01*
X140731904Y-125563333D01*
X141160476Y-126134761D02*
X141065238Y-126182380D01*
X140827142Y-126182380D01*
X140731904Y-126134761D01*
X140684285Y-126039523D01*
X140684285Y-125944285D01*
X140731904Y-125849047D01*
X140827142Y-125801428D01*
X141065238Y-125801428D01*
X141160476Y-125753809D01*
X141636666Y-125515714D02*
X141636666Y-126182380D01*
X141636666Y-125610952D02*
X141684285Y-125563333D01*
X141779523Y-125515714D01*
X141922380Y-125515714D01*
X142017619Y-125563333D01*
X142065238Y-125658571D01*
X142065238Y-126182380D01*
X134977619Y-128198571D02*
X134644285Y-128198571D01*
X134644285Y-128722380D02*
X134644285Y-127722380D01*
X135120476Y-127722380D01*
X135930000Y-128055714D02*
X135930000Y-128722380D01*
X135501428Y-128055714D02*
X135501428Y-128579523D01*
X135549047Y-128674761D01*
X135644285Y-128722380D01*
X135787142Y-128722380D01*
X135882380Y-128674761D01*
X135930000Y-128627142D01*
X136787142Y-128674761D02*
X136691904Y-128722380D01*
X136501428Y-128722380D01*
X136406190Y-128674761D01*
X136358571Y-128579523D01*
X136358571Y-128198571D01*
X136406190Y-128103333D01*
X136501428Y-128055714D01*
X136691904Y-128055714D01*
X136787142Y-128103333D01*
X136834761Y-128198571D01*
X136834761Y-128293809D01*
X136358571Y-128389047D01*
X137406190Y-128722380D02*
X137310952Y-128674761D01*
X137263333Y-128579523D01*
X137263333Y-127722380D01*
X138549047Y-128722380D02*
X138549047Y-127722380D01*
X138930000Y-127722380D01*
X139025238Y-127770000D01*
X139072857Y-127817619D01*
X139120476Y-127912857D01*
X139120476Y-128055714D01*
X139072857Y-128150952D01*
X139025238Y-128198571D01*
X138930000Y-128246190D01*
X138549047Y-128246190D01*
X139977619Y-128055714D02*
X139977619Y-128722380D01*
X139549047Y-128055714D02*
X139549047Y-128579523D01*
X139596666Y-128674761D01*
X139691904Y-128722380D01*
X139834761Y-128722380D01*
X139930000Y-128674761D01*
X139977619Y-128627142D01*
X140453809Y-128722380D02*
X140453809Y-128055714D01*
X140453809Y-128150952D02*
X140501428Y-128103333D01*
X140596666Y-128055714D01*
X140739523Y-128055714D01*
X140834761Y-128103333D01*
X140882380Y-128198571D01*
X140882380Y-128722380D01*
X140882380Y-128198571D02*
X140930000Y-128103333D01*
X141025238Y-128055714D01*
X141168095Y-128055714D01*
X141263333Y-128103333D01*
X141310952Y-128198571D01*
X141310952Y-128722380D01*
X141787142Y-128055714D02*
X141787142Y-129055714D01*
X141787142Y-128103333D02*
X141882380Y-128055714D01*
X142072857Y-128055714D01*
X142168095Y-128103333D01*
X142215714Y-128150952D01*
X142263333Y-128246190D01*
X142263333Y-128531904D01*
X142215714Y-128627142D01*
X142168095Y-128674761D01*
X142072857Y-128722380D01*
X141882380Y-128722380D01*
X141787142Y-128674761D01*
X141105000Y-135262857D02*
X141057380Y-135358095D01*
X141057380Y-135500952D01*
X141105000Y-135643809D01*
X141200238Y-135739047D01*
X141295476Y-135786666D01*
X141485952Y-135834285D01*
X141628809Y-135834285D01*
X141819285Y-135786666D01*
X141914523Y-135739047D01*
X142009761Y-135643809D01*
X142057380Y-135500952D01*
X142057380Y-135405714D01*
X142009761Y-135262857D01*
X141962142Y-135215238D01*
X141628809Y-135215238D01*
X141628809Y-135405714D01*
X141390714Y-134786666D02*
X142057380Y-134786666D01*
X141485952Y-134786666D02*
X141438333Y-134739047D01*
X141390714Y-134643809D01*
X141390714Y-134500952D01*
X141438333Y-134405714D01*
X141533571Y-134358095D01*
X142057380Y-134358095D01*
X142057380Y-133453333D02*
X141057380Y-133453333D01*
X142009761Y-133453333D02*
X142057380Y-133548571D01*
X142057380Y-133739047D01*
X142009761Y-133834285D01*
X141962142Y-133881904D01*
X141866904Y-133929523D01*
X141581190Y-133929523D01*
X141485952Y-133881904D01*
X141438333Y-133834285D01*
X141390714Y-133739047D01*
X141390714Y-133548571D01*
X141438333Y-133453333D01*
X138835000Y-143962380D02*
X138835000Y-142962380D01*
X139835000Y-143010000D02*
X139739761Y-142962380D01*
X139596904Y-142962380D01*
X139454047Y-143010000D01*
X139358809Y-143105238D01*
X139311190Y-143200476D01*
X139263571Y-143390952D01*
X139263571Y-143533809D01*
X139311190Y-143724285D01*
X139358809Y-143819523D01*
X139454047Y-143914761D01*
X139596904Y-143962380D01*
X139692142Y-143962380D01*
X139835000Y-143914761D01*
X139882619Y-143867142D01*
X139882619Y-143533809D01*
X139692142Y-143533809D01*
X140311190Y-143962380D02*
X140311190Y-142962380D01*
X140882619Y-143962380D01*
X140882619Y-142962380D01*
X141311190Y-143057619D02*
X141358809Y-143010000D01*
X141454047Y-142962380D01*
X141692142Y-142962380D01*
X141787380Y-143010000D01*
X141835000Y-143057619D01*
X141882619Y-143152857D01*
X141882619Y-143248095D01*
X141835000Y-143390952D01*
X141263571Y-143962380D01*
X141882619Y-143962380D01*
X138835000Y-146502380D02*
X138835000Y-145502380D01*
X139835000Y-145550000D02*
X139739761Y-145502380D01*
X139596904Y-145502380D01*
X139454047Y-145550000D01*
X139358809Y-145645238D01*
X139311190Y-145740476D01*
X139263571Y-145930952D01*
X139263571Y-146073809D01*
X139311190Y-146264285D01*
X139358809Y-146359523D01*
X139454047Y-146454761D01*
X139596904Y-146502380D01*
X139692142Y-146502380D01*
X139835000Y-146454761D01*
X139882619Y-146407142D01*
X139882619Y-146073809D01*
X139692142Y-146073809D01*
X140311190Y-146502380D02*
X140311190Y-145502380D01*
X140882619Y-146502380D01*
X140882619Y-145502380D01*
X141882619Y-146502380D02*
X141311190Y-146502380D01*
X141596904Y-146502380D02*
X141596904Y-145502380D01*
X141501666Y-145645238D01*
X141406428Y-145740476D01*
X141311190Y-145788095D01*
X138763571Y-148042380D02*
X139096904Y-149042380D01*
X139430238Y-148042380D01*
X140096904Y-148518571D02*
X140239761Y-148566190D01*
X140287380Y-148613809D01*
X140335000Y-148709047D01*
X140335000Y-148851904D01*
X140287380Y-148947142D01*
X140239761Y-148994761D01*
X140144523Y-149042380D01*
X139763571Y-149042380D01*
X139763571Y-148042380D01*
X140096904Y-148042380D01*
X140192142Y-148090000D01*
X140239761Y-148137619D01*
X140287380Y-148232857D01*
X140287380Y-148328095D01*
X140239761Y-148423333D01*
X140192142Y-148470952D01*
X140096904Y-148518571D01*
X139763571Y-148518571D01*
X141192142Y-149042380D02*
X141192142Y-148518571D01*
X141144523Y-148423333D01*
X141049285Y-148375714D01*
X140858809Y-148375714D01*
X140763571Y-148423333D01*
X141192142Y-148994761D02*
X141096904Y-149042380D01*
X140858809Y-149042380D01*
X140763571Y-148994761D01*
X140715952Y-148899523D01*
X140715952Y-148804285D01*
X140763571Y-148709047D01*
X140858809Y-148661428D01*
X141096904Y-148661428D01*
X141192142Y-148613809D01*
X141525476Y-148375714D02*
X141906428Y-148375714D01*
X141668333Y-148042380D02*
X141668333Y-148899523D01*
X141715952Y-148994761D01*
X141811190Y-149042380D01*
X141906428Y-149042380D01*
X132636190Y-151582380D02*
X132064761Y-151582380D01*
X132350476Y-151582380D02*
X132350476Y-150582380D01*
X132255238Y-150725238D01*
X132160000Y-150820476D01*
X132064761Y-150868095D01*
X133017142Y-150677619D02*
X133064761Y-150630000D01*
X133160000Y-150582380D01*
X133398095Y-150582380D01*
X133493333Y-150630000D01*
X133540952Y-150677619D01*
X133588571Y-150772857D01*
X133588571Y-150868095D01*
X133540952Y-151010952D01*
X132969523Y-151582380D01*
X133588571Y-151582380D01*
X133874285Y-150582380D02*
X134207619Y-151582380D01*
X134540952Y-150582380D01*
X134874285Y-151201428D02*
X135636190Y-151201428D01*
X136064761Y-151534761D02*
X136207619Y-151582380D01*
X136445714Y-151582380D01*
X136540952Y-151534761D01*
X136588571Y-151487142D01*
X136636190Y-151391904D01*
X136636190Y-151296666D01*
X136588571Y-151201428D01*
X136540952Y-151153809D01*
X136445714Y-151106190D01*
X136255238Y-151058571D01*
X136160000Y-151010952D01*
X136112380Y-150963333D01*
X136064761Y-150868095D01*
X136064761Y-150772857D01*
X136112380Y-150677619D01*
X136160000Y-150630000D01*
X136255238Y-150582380D01*
X136493333Y-150582380D01*
X136636190Y-150630000D01*
X136969523Y-150915714D02*
X137160000Y-151582380D01*
X137350476Y-151106190D01*
X137540952Y-151582380D01*
X137731428Y-150915714D01*
X138112380Y-151582380D02*
X138112380Y-150915714D01*
X138112380Y-150582380D02*
X138064761Y-150630000D01*
X138112380Y-150677619D01*
X138160000Y-150630000D01*
X138112380Y-150582380D01*
X138112380Y-150677619D01*
X138445714Y-150915714D02*
X138826666Y-150915714D01*
X138588571Y-150582380D02*
X138588571Y-151439523D01*
X138636190Y-151534761D01*
X138731428Y-151582380D01*
X138826666Y-151582380D01*
X139588571Y-151534761D02*
X139493333Y-151582380D01*
X139302857Y-151582380D01*
X139207619Y-151534761D01*
X139160000Y-151487142D01*
X139112380Y-151391904D01*
X139112380Y-151106190D01*
X139160000Y-151010952D01*
X139207619Y-150963333D01*
X139302857Y-150915714D01*
X139493333Y-150915714D01*
X139588571Y-150963333D01*
X140017142Y-151582380D02*
X140017142Y-150582380D01*
X140445714Y-151582380D02*
X140445714Y-151058571D01*
X140398095Y-150963333D01*
X140302857Y-150915714D01*
X140160000Y-150915714D01*
X140064761Y-150963333D01*
X140017142Y-151010952D01*
X141302857Y-151534761D02*
X141207619Y-151582380D01*
X141017142Y-151582380D01*
X140921904Y-151534761D01*
X140874285Y-151439523D01*
X140874285Y-151058571D01*
X140921904Y-150963333D01*
X141017142Y-150915714D01*
X141207619Y-150915714D01*
X141302857Y-150963333D01*
X141350476Y-151058571D01*
X141350476Y-151153809D01*
X140874285Y-151249047D01*
X142207619Y-151582380D02*
X142207619Y-150582380D01*
X142207619Y-151534761D02*
X142112380Y-151582380D01*
X141921904Y-151582380D01*
X141826666Y-151534761D01*
X141779047Y-151487142D01*
X141731428Y-151391904D01*
X141731428Y-151106190D01*
X141779047Y-151010952D01*
X141826666Y-150963333D01*
X141921904Y-150915714D01*
X142112380Y-150915714D01*
X142207619Y-150963333D01*
X138977857Y-140422380D02*
X139311190Y-141422380D01*
X139644523Y-140422380D01*
X139977857Y-141422380D02*
X139977857Y-140755714D01*
X139977857Y-140946190D02*
X140025476Y-140850952D01*
X140073095Y-140803333D01*
X140168333Y-140755714D01*
X140263571Y-140755714D01*
X140977857Y-141374761D02*
X140882619Y-141422380D01*
X140692142Y-141422380D01*
X140596904Y-141374761D01*
X140549285Y-141279523D01*
X140549285Y-140898571D01*
X140596904Y-140803333D01*
X140692142Y-140755714D01*
X140882619Y-140755714D01*
X140977857Y-140803333D01*
X141025476Y-140898571D01*
X141025476Y-140993809D01*
X140549285Y-141089047D01*
X141311190Y-140755714D02*
X141692142Y-140755714D01*
X141454047Y-141422380D02*
X141454047Y-140565238D01*
X141501666Y-140470000D01*
X141596904Y-140422380D01*
X141692142Y-140422380D01*
D16*
X111444666Y-109070523D02*
X111444666Y-109977666D01*
X111384190Y-110159095D01*
X111263238Y-110280047D01*
X111081809Y-110340523D01*
X110960857Y-110340523D01*
X112714666Y-110340523D02*
X111988952Y-110340523D01*
X112351809Y-110340523D02*
X112351809Y-109070523D01*
X112230857Y-109251952D01*
X112109904Y-109372904D01*
X111988952Y-109433380D01*
D15*
X155732380Y-109933095D02*
X154732380Y-109933095D01*
X155732380Y-109361666D02*
X155160952Y-109790238D01*
X154732380Y-109361666D02*
X155303809Y-109933095D01*
X155732380Y-108409285D02*
X155732380Y-108980714D01*
X155732380Y-108695000D02*
X154732380Y-108695000D01*
X154875238Y-108790238D01*
X154970476Y-108885476D01*
X155018095Y-108980714D01*
M02*
