G04 #@! TF.GenerationSoftware,KiCad,Pcbnew,(5.1.4-0-10_14)*
G04 #@! TF.CreationDate,2020-03-30T10:01:39+11:00*
G04 #@! TF.ProjectId,48-pin breakout,34382d70-696e-4206-9272-65616b6f7574,rev?*
G04 #@! TF.SameCoordinates,Original*
G04 #@! TF.FileFunction,Soldermask,Top*
G04 #@! TF.FilePolarity,Negative*
%FSLAX46Y46*%
G04 Gerber Fmt 4.6, Leading zero omitted, Abs format (unit mm)*
G04 Created by KiCad (PCBNEW (5.1.4-0-10_14)) date 2020-03-30 10:01:39*
%MOMM*%
%LPD*%
G04 APERTURE LIST*
%ADD10C,0.100000*%
G04 APERTURE END LIST*
D10*
G36*
X114460416Y-149477963D02*
G01*
X114786560Y-149542837D01*
X114988282Y-149626393D01*
X115273560Y-149744559D01*
X115273561Y-149744560D01*
X115711851Y-150037415D01*
X116084585Y-150410149D01*
X116229486Y-150627009D01*
X116377441Y-150848440D01*
X116579163Y-151335441D01*
X116682000Y-151852436D01*
X116682000Y-152379564D01*
X116579163Y-152896559D01*
X116377441Y-153383560D01*
X116377440Y-153383561D01*
X116084585Y-153821851D01*
X115711851Y-154194585D01*
X115418995Y-154390264D01*
X115273560Y-154487441D01*
X114988282Y-154605607D01*
X114786560Y-154689163D01*
X114528061Y-154740582D01*
X114269564Y-154792000D01*
X113742436Y-154792000D01*
X113483939Y-154740582D01*
X113225440Y-154689163D01*
X113023718Y-154605607D01*
X112738440Y-154487441D01*
X112593005Y-154390264D01*
X112300149Y-154194585D01*
X111927415Y-153821851D01*
X111634560Y-153383561D01*
X111634559Y-153383560D01*
X111432837Y-152896559D01*
X111330000Y-152379564D01*
X111330000Y-151852436D01*
X111432837Y-151335441D01*
X111634559Y-150848440D01*
X111782514Y-150627009D01*
X111927415Y-150410149D01*
X112300149Y-150037415D01*
X112738439Y-149744560D01*
X112738440Y-149744559D01*
X113023718Y-149626393D01*
X113225440Y-149542837D01*
X113551584Y-149477963D01*
X113742436Y-149440000D01*
X114269564Y-149440000D01*
X114460416Y-149477963D01*
X114460416Y-149477963D01*
G37*
G36*
X144636442Y-150235518D02*
G01*
X144702627Y-150242037D01*
X144872466Y-150293557D01*
X145028991Y-150377222D01*
X145064729Y-150406552D01*
X145166186Y-150489814D01*
X145249448Y-150591271D01*
X145278778Y-150627009D01*
X145362443Y-150783534D01*
X145413963Y-150953373D01*
X145431359Y-151130000D01*
X145413963Y-151306627D01*
X145362443Y-151476466D01*
X145278778Y-151632991D01*
X145249448Y-151668729D01*
X145166186Y-151770186D01*
X145065963Y-151852436D01*
X145028991Y-151882778D01*
X144872466Y-151966443D01*
X144702627Y-152017963D01*
X144636442Y-152024482D01*
X144570260Y-152031000D01*
X144481740Y-152031000D01*
X144415558Y-152024482D01*
X144349373Y-152017963D01*
X144179534Y-151966443D01*
X144023009Y-151882778D01*
X143986037Y-151852436D01*
X143885814Y-151770186D01*
X143802552Y-151668729D01*
X143773222Y-151632991D01*
X143689557Y-151476466D01*
X143638037Y-151306627D01*
X143620641Y-151130000D01*
X143638037Y-150953373D01*
X143689557Y-150783534D01*
X143773222Y-150627009D01*
X143802552Y-150591271D01*
X143885814Y-150489814D01*
X143987271Y-150406552D01*
X144023009Y-150377222D01*
X144179534Y-150293557D01*
X144349373Y-150242037D01*
X144415558Y-150235518D01*
X144481740Y-150229000D01*
X144570260Y-150229000D01*
X144636442Y-150235518D01*
X144636442Y-150235518D01*
G37*
G36*
X144636443Y-147695519D02*
G01*
X144702627Y-147702037D01*
X144872466Y-147753557D01*
X145028991Y-147837222D01*
X145064729Y-147866552D01*
X145166186Y-147949814D01*
X145249448Y-148051271D01*
X145278778Y-148087009D01*
X145362443Y-148243534D01*
X145413963Y-148413373D01*
X145431359Y-148590000D01*
X145413963Y-148766627D01*
X145362443Y-148936466D01*
X145278778Y-149092991D01*
X145249448Y-149128729D01*
X145166186Y-149230186D01*
X145064729Y-149313448D01*
X145028991Y-149342778D01*
X144872466Y-149426443D01*
X144702627Y-149477963D01*
X144636442Y-149484482D01*
X144570260Y-149491000D01*
X144481740Y-149491000D01*
X144415558Y-149484482D01*
X144349373Y-149477963D01*
X144179534Y-149426443D01*
X144023009Y-149342778D01*
X143987271Y-149313448D01*
X143885814Y-149230186D01*
X143802552Y-149128729D01*
X143773222Y-149092991D01*
X143689557Y-148936466D01*
X143638037Y-148766627D01*
X143620641Y-148590000D01*
X143638037Y-148413373D01*
X143689557Y-148243534D01*
X143773222Y-148087009D01*
X143802552Y-148051271D01*
X143885814Y-147949814D01*
X143987271Y-147866552D01*
X144023009Y-147837222D01*
X144179534Y-147753557D01*
X144349373Y-147702037D01*
X144415557Y-147695519D01*
X144481740Y-147689000D01*
X144570260Y-147689000D01*
X144636443Y-147695519D01*
X144636443Y-147695519D01*
G37*
G36*
X119961520Y-146223664D02*
G01*
X120120942Y-146289699D01*
X120264418Y-146385566D01*
X120386434Y-146507582D01*
X120482301Y-146651058D01*
X120548336Y-146810480D01*
X120582000Y-146979721D01*
X120582000Y-147152279D01*
X120548336Y-147321520D01*
X120482301Y-147480942D01*
X120386434Y-147624418D01*
X120264418Y-147746434D01*
X120120942Y-147842301D01*
X119961520Y-147908336D01*
X119792280Y-147942000D01*
X119619720Y-147942000D01*
X119450480Y-147908336D01*
X119291058Y-147842301D01*
X119147582Y-147746434D01*
X119025566Y-147624418D01*
X118929699Y-147480942D01*
X118863664Y-147321520D01*
X118830000Y-147152279D01*
X118830000Y-146979721D01*
X118863664Y-146810480D01*
X118929699Y-146651058D01*
X119025566Y-146507582D01*
X119147582Y-146385566D01*
X119291058Y-146289699D01*
X119450480Y-146223664D01*
X119619720Y-146190000D01*
X119792280Y-146190000D01*
X119961520Y-146223664D01*
X119961520Y-146223664D01*
G37*
G36*
X124461520Y-146223664D02*
G01*
X124620942Y-146289699D01*
X124764418Y-146385566D01*
X124886434Y-146507582D01*
X124982301Y-146651058D01*
X125048336Y-146810480D01*
X125082000Y-146979721D01*
X125082000Y-147152279D01*
X125048336Y-147321520D01*
X124982301Y-147480942D01*
X124886434Y-147624418D01*
X124764418Y-147746434D01*
X124620942Y-147842301D01*
X124461520Y-147908336D01*
X124292280Y-147942000D01*
X124119720Y-147942000D01*
X123950480Y-147908336D01*
X123791058Y-147842301D01*
X123647582Y-147746434D01*
X123525566Y-147624418D01*
X123429699Y-147480942D01*
X123363664Y-147321520D01*
X123330000Y-147152279D01*
X123330000Y-146979721D01*
X123363664Y-146810480D01*
X123429699Y-146651058D01*
X123525566Y-146507582D01*
X123647582Y-146385566D01*
X123791058Y-146289699D01*
X123950480Y-146223664D01*
X124119720Y-146190000D01*
X124292280Y-146190000D01*
X124461520Y-146223664D01*
X124461520Y-146223664D01*
G37*
G36*
X144636443Y-145155519D02*
G01*
X144702627Y-145162037D01*
X144872466Y-145213557D01*
X145028991Y-145297222D01*
X145064729Y-145326552D01*
X145166186Y-145409814D01*
X145249448Y-145511271D01*
X145278778Y-145547009D01*
X145362443Y-145703534D01*
X145413963Y-145873373D01*
X145431359Y-146050000D01*
X145413963Y-146226627D01*
X145362443Y-146396466D01*
X145278778Y-146552991D01*
X145249448Y-146588729D01*
X145166186Y-146690186D01*
X145064729Y-146773448D01*
X145028991Y-146802778D01*
X144872466Y-146886443D01*
X144702627Y-146937963D01*
X144636442Y-146944482D01*
X144570260Y-146951000D01*
X144481740Y-146951000D01*
X144415558Y-146944482D01*
X144349373Y-146937963D01*
X144179534Y-146886443D01*
X144023009Y-146802778D01*
X143987271Y-146773448D01*
X143885814Y-146690186D01*
X143802552Y-146588729D01*
X143773222Y-146552991D01*
X143689557Y-146396466D01*
X143638037Y-146226627D01*
X143620641Y-146050000D01*
X143638037Y-145873373D01*
X143689557Y-145703534D01*
X143773222Y-145547009D01*
X143802552Y-145511271D01*
X143885814Y-145409814D01*
X143987271Y-145326552D01*
X144023009Y-145297222D01*
X144179534Y-145213557D01*
X144349373Y-145162037D01*
X144415557Y-145155519D01*
X144481740Y-145149000D01*
X144570260Y-145149000D01*
X144636443Y-145155519D01*
X144636443Y-145155519D01*
G37*
G36*
X124376899Y-142706832D02*
G01*
X124461520Y-142723664D01*
X124620942Y-142789699D01*
X124764418Y-142885566D01*
X124886434Y-143007582D01*
X124982301Y-143151058D01*
X125048336Y-143310480D01*
X125082000Y-143479721D01*
X125082000Y-143652279D01*
X125048336Y-143821520D01*
X124982301Y-143980942D01*
X124886434Y-144124418D01*
X124764418Y-144246434D01*
X124620942Y-144342301D01*
X124461520Y-144408336D01*
X124376899Y-144425168D01*
X124292280Y-144442000D01*
X124119720Y-144442000D01*
X124035101Y-144425168D01*
X123950480Y-144408336D01*
X123791058Y-144342301D01*
X123647582Y-144246434D01*
X123525566Y-144124418D01*
X123429699Y-143980942D01*
X123363664Y-143821520D01*
X123330000Y-143652279D01*
X123330000Y-143479721D01*
X123363664Y-143310480D01*
X123429699Y-143151058D01*
X123525566Y-143007582D01*
X123647582Y-142885566D01*
X123791058Y-142789699D01*
X123950480Y-142723664D01*
X124035101Y-142706832D01*
X124119720Y-142690000D01*
X124292280Y-142690000D01*
X124376899Y-142706832D01*
X124376899Y-142706832D01*
G37*
G36*
X119876899Y-142706832D02*
G01*
X119961520Y-142723664D01*
X120120942Y-142789699D01*
X120264418Y-142885566D01*
X120386434Y-143007582D01*
X120482301Y-143151058D01*
X120548336Y-143310480D01*
X120582000Y-143479721D01*
X120582000Y-143652279D01*
X120548336Y-143821520D01*
X120482301Y-143980942D01*
X120386434Y-144124418D01*
X120264418Y-144246434D01*
X120120942Y-144342301D01*
X119961520Y-144408336D01*
X119876899Y-144425168D01*
X119792280Y-144442000D01*
X119619720Y-144442000D01*
X119535101Y-144425168D01*
X119450480Y-144408336D01*
X119291058Y-144342301D01*
X119147582Y-144246434D01*
X119025566Y-144124418D01*
X118929699Y-143980942D01*
X118863664Y-143821520D01*
X118830000Y-143652279D01*
X118830000Y-143479721D01*
X118863664Y-143310480D01*
X118929699Y-143151058D01*
X119025566Y-143007582D01*
X119147582Y-142885566D01*
X119291058Y-142789699D01*
X119450480Y-142723664D01*
X119535101Y-142706832D01*
X119619720Y-142690000D01*
X119792280Y-142690000D01*
X119876899Y-142706832D01*
X119876899Y-142706832D01*
G37*
G36*
X144636442Y-142615518D02*
G01*
X144702627Y-142622037D01*
X144872466Y-142673557D01*
X144872468Y-142673558D01*
X144950729Y-142715390D01*
X145028991Y-142757222D01*
X145064729Y-142786552D01*
X145166186Y-142869814D01*
X145249448Y-142971271D01*
X145278778Y-143007009D01*
X145278779Y-143007011D01*
X145355776Y-143151060D01*
X145362443Y-143163534D01*
X145413963Y-143333373D01*
X145431359Y-143510000D01*
X145413963Y-143686627D01*
X145362443Y-143856466D01*
X145278778Y-144012991D01*
X145249448Y-144048729D01*
X145166186Y-144150186D01*
X145064729Y-144233448D01*
X145028991Y-144262778D01*
X144872466Y-144346443D01*
X144702627Y-144397963D01*
X144636443Y-144404481D01*
X144570260Y-144411000D01*
X144481740Y-144411000D01*
X144415557Y-144404481D01*
X144349373Y-144397963D01*
X144179534Y-144346443D01*
X144023009Y-144262778D01*
X143987271Y-144233448D01*
X143885814Y-144150186D01*
X143802552Y-144048729D01*
X143773222Y-144012991D01*
X143689557Y-143856466D01*
X143638037Y-143686627D01*
X143620641Y-143510000D01*
X143638037Y-143333373D01*
X143689557Y-143163534D01*
X143696225Y-143151060D01*
X143773221Y-143007011D01*
X143773222Y-143007009D01*
X143802552Y-142971271D01*
X143885814Y-142869814D01*
X143987271Y-142786552D01*
X144023009Y-142757222D01*
X144101272Y-142715389D01*
X144179532Y-142673558D01*
X144179534Y-142673557D01*
X144349373Y-142622037D01*
X144415558Y-142615518D01*
X144481740Y-142609000D01*
X144570260Y-142609000D01*
X144636442Y-142615518D01*
X144636442Y-142615518D01*
G37*
G36*
X144636443Y-140075519D02*
G01*
X144702627Y-140082037D01*
X144872466Y-140133557D01*
X145028991Y-140217222D01*
X145064729Y-140246552D01*
X145166186Y-140329814D01*
X145249448Y-140431271D01*
X145278778Y-140467009D01*
X145362443Y-140623534D01*
X145413963Y-140793373D01*
X145431359Y-140970000D01*
X145413963Y-141146627D01*
X145362443Y-141316466D01*
X145278778Y-141472991D01*
X145249448Y-141508729D01*
X145166186Y-141610186D01*
X145064729Y-141693448D01*
X145028991Y-141722778D01*
X144872466Y-141806443D01*
X144702627Y-141857963D01*
X144636443Y-141864481D01*
X144570260Y-141871000D01*
X144481740Y-141871000D01*
X144415557Y-141864481D01*
X144349373Y-141857963D01*
X144179534Y-141806443D01*
X144023009Y-141722778D01*
X143987271Y-141693448D01*
X143885814Y-141610186D01*
X143802552Y-141508729D01*
X143773222Y-141472991D01*
X143689557Y-141316466D01*
X143638037Y-141146627D01*
X143620641Y-140970000D01*
X143638037Y-140793373D01*
X143689557Y-140623534D01*
X143773222Y-140467009D01*
X143802552Y-140431271D01*
X143885814Y-140329814D01*
X143987271Y-140246552D01*
X144023009Y-140217222D01*
X144179534Y-140133557D01*
X144349373Y-140082037D01*
X144415557Y-140075519D01*
X144481740Y-140069000D01*
X144570260Y-140069000D01*
X144636443Y-140075519D01*
X144636443Y-140075519D01*
G37*
G36*
X119876899Y-139606832D02*
G01*
X119961520Y-139623664D01*
X120120942Y-139689699D01*
X120264418Y-139785566D01*
X120386434Y-139907582D01*
X120482301Y-140051058D01*
X120548336Y-140210480D01*
X120582000Y-140379721D01*
X120582000Y-140552279D01*
X120548336Y-140721520D01*
X120482301Y-140880942D01*
X120386434Y-141024418D01*
X120264418Y-141146434D01*
X120120942Y-141242301D01*
X119961520Y-141308336D01*
X119876899Y-141325168D01*
X119792280Y-141342000D01*
X119619720Y-141342000D01*
X119535101Y-141325168D01*
X119450480Y-141308336D01*
X119291058Y-141242301D01*
X119147582Y-141146434D01*
X119025566Y-141024418D01*
X118929699Y-140880942D01*
X118863664Y-140721520D01*
X118830000Y-140552279D01*
X118830000Y-140379721D01*
X118863664Y-140210480D01*
X118929699Y-140051058D01*
X119025566Y-139907582D01*
X119147582Y-139785566D01*
X119291058Y-139689699D01*
X119450480Y-139623664D01*
X119535101Y-139606832D01*
X119619720Y-139590000D01*
X119792280Y-139590000D01*
X119876899Y-139606832D01*
X119876899Y-139606832D01*
G37*
G36*
X124376899Y-139606832D02*
G01*
X124461520Y-139623664D01*
X124620942Y-139689699D01*
X124764418Y-139785566D01*
X124886434Y-139907582D01*
X124982301Y-140051058D01*
X125048336Y-140210480D01*
X125082000Y-140379721D01*
X125082000Y-140552279D01*
X125048336Y-140721520D01*
X124982301Y-140880942D01*
X124886434Y-141024418D01*
X124764418Y-141146434D01*
X124620942Y-141242301D01*
X124461520Y-141308336D01*
X124376899Y-141325168D01*
X124292280Y-141342000D01*
X124119720Y-141342000D01*
X124035101Y-141325168D01*
X123950480Y-141308336D01*
X123791058Y-141242301D01*
X123647582Y-141146434D01*
X123525566Y-141024418D01*
X123429699Y-140880942D01*
X123363664Y-140721520D01*
X123330000Y-140552279D01*
X123330000Y-140379721D01*
X123363664Y-140210480D01*
X123429699Y-140051058D01*
X123525566Y-139907582D01*
X123647582Y-139785566D01*
X123791058Y-139689699D01*
X123950480Y-139623664D01*
X124035101Y-139606832D01*
X124119720Y-139590000D01*
X124292280Y-139590000D01*
X124376899Y-139606832D01*
X124376899Y-139606832D01*
G37*
G36*
X144636443Y-137535519D02*
G01*
X144702627Y-137542037D01*
X144872466Y-137593557D01*
X145028991Y-137677222D01*
X145064729Y-137706552D01*
X145166186Y-137789814D01*
X145240970Y-137880940D01*
X145278778Y-137927009D01*
X145362443Y-138083534D01*
X145413963Y-138253373D01*
X145431359Y-138430000D01*
X145413963Y-138606627D01*
X145362443Y-138776466D01*
X145278778Y-138932991D01*
X145249448Y-138968729D01*
X145166186Y-139070186D01*
X145064729Y-139153448D01*
X145028991Y-139182778D01*
X144872466Y-139266443D01*
X144702627Y-139317963D01*
X144636443Y-139324481D01*
X144570260Y-139331000D01*
X144481740Y-139331000D01*
X144415557Y-139324481D01*
X144349373Y-139317963D01*
X144179534Y-139266443D01*
X144023009Y-139182778D01*
X143987271Y-139153448D01*
X143885814Y-139070186D01*
X143802552Y-138968729D01*
X143773222Y-138932991D01*
X143689557Y-138776466D01*
X143638037Y-138606627D01*
X143620641Y-138430000D01*
X143638037Y-138253373D01*
X143689557Y-138083534D01*
X143773222Y-137927009D01*
X143811030Y-137880940D01*
X143885814Y-137789814D01*
X143987271Y-137706552D01*
X144023009Y-137677222D01*
X144179534Y-137593557D01*
X144349373Y-137542037D01*
X144415557Y-137535519D01*
X144481740Y-137529000D01*
X144570260Y-137529000D01*
X144636443Y-137535519D01*
X144636443Y-137535519D01*
G37*
G36*
X124376899Y-136606832D02*
G01*
X124461520Y-136623664D01*
X124620942Y-136689699D01*
X124764418Y-136785566D01*
X124886434Y-136907582D01*
X124982301Y-137051058D01*
X125048336Y-137210480D01*
X125082000Y-137379721D01*
X125082000Y-137552279D01*
X125048336Y-137721520D01*
X124982301Y-137880942D01*
X124886434Y-138024418D01*
X124764418Y-138146434D01*
X124620942Y-138242301D01*
X124461520Y-138308336D01*
X124376899Y-138325168D01*
X124292280Y-138342000D01*
X124119720Y-138342000D01*
X124035101Y-138325168D01*
X123950480Y-138308336D01*
X123791058Y-138242301D01*
X123647582Y-138146434D01*
X123525566Y-138024418D01*
X123429699Y-137880942D01*
X123363664Y-137721520D01*
X123330000Y-137552279D01*
X123330000Y-137379721D01*
X123363664Y-137210480D01*
X123429699Y-137051058D01*
X123525566Y-136907582D01*
X123647582Y-136785566D01*
X123791058Y-136689699D01*
X123950480Y-136623664D01*
X124035101Y-136606832D01*
X124119720Y-136590000D01*
X124292280Y-136590000D01*
X124376899Y-136606832D01*
X124376899Y-136606832D01*
G37*
G36*
X119876899Y-136606832D02*
G01*
X119961520Y-136623664D01*
X120120942Y-136689699D01*
X120264418Y-136785566D01*
X120386434Y-136907582D01*
X120482301Y-137051058D01*
X120548336Y-137210480D01*
X120582000Y-137379721D01*
X120582000Y-137552279D01*
X120548336Y-137721520D01*
X120482301Y-137880942D01*
X120386434Y-138024418D01*
X120264418Y-138146434D01*
X120120942Y-138242301D01*
X119961520Y-138308336D01*
X119876899Y-138325168D01*
X119792280Y-138342000D01*
X119619720Y-138342000D01*
X119535101Y-138325168D01*
X119450480Y-138308336D01*
X119291058Y-138242301D01*
X119147582Y-138146434D01*
X119025566Y-138024418D01*
X118929699Y-137880942D01*
X118863664Y-137721520D01*
X118830000Y-137552279D01*
X118830000Y-137379721D01*
X118863664Y-137210480D01*
X118929699Y-137051058D01*
X119025566Y-136907582D01*
X119147582Y-136785566D01*
X119291058Y-136689699D01*
X119450480Y-136623664D01*
X119535101Y-136606832D01*
X119619720Y-136590000D01*
X119792280Y-136590000D01*
X119876899Y-136606832D01*
X119876899Y-136606832D01*
G37*
G36*
X144636442Y-134995518D02*
G01*
X144702627Y-135002037D01*
X144872466Y-135053557D01*
X145028991Y-135137222D01*
X145064729Y-135166552D01*
X145166186Y-135249814D01*
X145241840Y-135342000D01*
X145278778Y-135387009D01*
X145362443Y-135543534D01*
X145413963Y-135713373D01*
X145431359Y-135890000D01*
X145413963Y-136066627D01*
X145362443Y-136236466D01*
X145278778Y-136392991D01*
X145249448Y-136428729D01*
X145166186Y-136530186D01*
X145093301Y-136590000D01*
X145028991Y-136642778D01*
X144872466Y-136726443D01*
X144702627Y-136777963D01*
X144636442Y-136784482D01*
X144570260Y-136791000D01*
X144481740Y-136791000D01*
X144415558Y-136784482D01*
X144349373Y-136777963D01*
X144179534Y-136726443D01*
X144023009Y-136642778D01*
X143958699Y-136590000D01*
X143885814Y-136530186D01*
X143802552Y-136428729D01*
X143773222Y-136392991D01*
X143689557Y-136236466D01*
X143638037Y-136066627D01*
X143620641Y-135890000D01*
X143638037Y-135713373D01*
X143689557Y-135543534D01*
X143773222Y-135387009D01*
X143810160Y-135342000D01*
X143885814Y-135249814D01*
X143987271Y-135166552D01*
X144023009Y-135137222D01*
X144179534Y-135053557D01*
X144349373Y-135002037D01*
X144415558Y-134995518D01*
X144481740Y-134989000D01*
X144570260Y-134989000D01*
X144636442Y-134995518D01*
X144636442Y-134995518D01*
G37*
G36*
X119876899Y-133606832D02*
G01*
X119961520Y-133623664D01*
X120120942Y-133689699D01*
X120264418Y-133785566D01*
X120386434Y-133907582D01*
X120482301Y-134051058D01*
X120548336Y-134210480D01*
X120582000Y-134379721D01*
X120582000Y-134552279D01*
X120548336Y-134721520D01*
X120482301Y-134880942D01*
X120386434Y-135024418D01*
X120264418Y-135146434D01*
X120120942Y-135242301D01*
X119961520Y-135308336D01*
X119876899Y-135325168D01*
X119792280Y-135342000D01*
X119619720Y-135342000D01*
X119535101Y-135325168D01*
X119450480Y-135308336D01*
X119291058Y-135242301D01*
X119147582Y-135146434D01*
X119025566Y-135024418D01*
X118929699Y-134880942D01*
X118863664Y-134721520D01*
X118830000Y-134552279D01*
X118830000Y-134379721D01*
X118863664Y-134210480D01*
X118929699Y-134051058D01*
X119025566Y-133907582D01*
X119147582Y-133785566D01*
X119291058Y-133689699D01*
X119450480Y-133623664D01*
X119535101Y-133606832D01*
X119619720Y-133590000D01*
X119792280Y-133590000D01*
X119876899Y-133606832D01*
X119876899Y-133606832D01*
G37*
G36*
X124376899Y-133606832D02*
G01*
X124461520Y-133623664D01*
X124620942Y-133689699D01*
X124764418Y-133785566D01*
X124886434Y-133907582D01*
X124982301Y-134051058D01*
X125048336Y-134210480D01*
X125082000Y-134379721D01*
X125082000Y-134552279D01*
X125048336Y-134721520D01*
X124982301Y-134880942D01*
X124886434Y-135024418D01*
X124764418Y-135146434D01*
X124620942Y-135242301D01*
X124461520Y-135308336D01*
X124376899Y-135325168D01*
X124292280Y-135342000D01*
X124119720Y-135342000D01*
X124035101Y-135325168D01*
X123950480Y-135308336D01*
X123791058Y-135242301D01*
X123647582Y-135146434D01*
X123525566Y-135024418D01*
X123429699Y-134880942D01*
X123363664Y-134721520D01*
X123330000Y-134552279D01*
X123330000Y-134379721D01*
X123363664Y-134210480D01*
X123429699Y-134051058D01*
X123525566Y-133907582D01*
X123647582Y-133785566D01*
X123791058Y-133689699D01*
X123950480Y-133623664D01*
X124035101Y-133606832D01*
X124119720Y-133590000D01*
X124292280Y-133590000D01*
X124376899Y-133606832D01*
X124376899Y-133606832D01*
G37*
G36*
X144636442Y-132455518D02*
G01*
X144702627Y-132462037D01*
X144872466Y-132513557D01*
X145028991Y-132597222D01*
X145064729Y-132626552D01*
X145166186Y-132709814D01*
X145249448Y-132811271D01*
X145278778Y-132847009D01*
X145362443Y-133003534D01*
X145413963Y-133173373D01*
X145431359Y-133350000D01*
X145413963Y-133526627D01*
X145362443Y-133696466D01*
X145278778Y-133852991D01*
X145249448Y-133888729D01*
X145166186Y-133990186D01*
X145064729Y-134073448D01*
X145028991Y-134102778D01*
X144872466Y-134186443D01*
X144702627Y-134237963D01*
X144636443Y-134244481D01*
X144570260Y-134251000D01*
X144481740Y-134251000D01*
X144415557Y-134244481D01*
X144349373Y-134237963D01*
X144179534Y-134186443D01*
X144023009Y-134102778D01*
X143987271Y-134073448D01*
X143885814Y-133990186D01*
X143802552Y-133888729D01*
X143773222Y-133852991D01*
X143689557Y-133696466D01*
X143638037Y-133526627D01*
X143620641Y-133350000D01*
X143638037Y-133173373D01*
X143689557Y-133003534D01*
X143773222Y-132847009D01*
X143802552Y-132811271D01*
X143885814Y-132709814D01*
X143987271Y-132626552D01*
X144023009Y-132597222D01*
X144179534Y-132513557D01*
X144349373Y-132462037D01*
X144415558Y-132455518D01*
X144481740Y-132449000D01*
X144570260Y-132449000D01*
X144636442Y-132455518D01*
X144636442Y-132455518D01*
G37*
G36*
X119876899Y-130606832D02*
G01*
X119961520Y-130623664D01*
X120120942Y-130689699D01*
X120264418Y-130785566D01*
X120386434Y-130907582D01*
X120482301Y-131051058D01*
X120525963Y-131156468D01*
X120548336Y-131210481D01*
X120582000Y-131379720D01*
X120582000Y-131552280D01*
X120548336Y-131721520D01*
X120482301Y-131880942D01*
X120386434Y-132024418D01*
X120264418Y-132146434D01*
X120120942Y-132242301D01*
X119961520Y-132308336D01*
X119876899Y-132325168D01*
X119792280Y-132342000D01*
X119619720Y-132342000D01*
X119535101Y-132325168D01*
X119450480Y-132308336D01*
X119291058Y-132242301D01*
X119147582Y-132146434D01*
X119025566Y-132024418D01*
X118929699Y-131880942D01*
X118863664Y-131721520D01*
X118830000Y-131552280D01*
X118830000Y-131379720D01*
X118863664Y-131210481D01*
X118886037Y-131156468D01*
X118929699Y-131051058D01*
X119025566Y-130907582D01*
X119147582Y-130785566D01*
X119291058Y-130689699D01*
X119450480Y-130623664D01*
X119535101Y-130606832D01*
X119619720Y-130590000D01*
X119792280Y-130590000D01*
X119876899Y-130606832D01*
X119876899Y-130606832D01*
G37*
G36*
X124376899Y-130606832D02*
G01*
X124461520Y-130623664D01*
X124620942Y-130689699D01*
X124764418Y-130785566D01*
X124886434Y-130907582D01*
X124982301Y-131051058D01*
X125025963Y-131156468D01*
X125048336Y-131210481D01*
X125082000Y-131379720D01*
X125082000Y-131552280D01*
X125048336Y-131721520D01*
X124982301Y-131880942D01*
X124886434Y-132024418D01*
X124764418Y-132146434D01*
X124620942Y-132242301D01*
X124461520Y-132308336D01*
X124376899Y-132325168D01*
X124292280Y-132342000D01*
X124119720Y-132342000D01*
X124035101Y-132325168D01*
X123950480Y-132308336D01*
X123791058Y-132242301D01*
X123647582Y-132146434D01*
X123525566Y-132024418D01*
X123429699Y-131880942D01*
X123363664Y-131721520D01*
X123330000Y-131552280D01*
X123330000Y-131379720D01*
X123363664Y-131210481D01*
X123386037Y-131156468D01*
X123429699Y-131051058D01*
X123525566Y-130907582D01*
X123647582Y-130785566D01*
X123791058Y-130689699D01*
X123950480Y-130623664D01*
X124035101Y-130606832D01*
X124119720Y-130590000D01*
X124292280Y-130590000D01*
X124376899Y-130606832D01*
X124376899Y-130606832D01*
G37*
G36*
X144636442Y-129915518D02*
G01*
X144702627Y-129922037D01*
X144872466Y-129973557D01*
X145028991Y-130057222D01*
X145064729Y-130086552D01*
X145166186Y-130169814D01*
X145249448Y-130271271D01*
X145278778Y-130307009D01*
X145362443Y-130463534D01*
X145413963Y-130633373D01*
X145431359Y-130810000D01*
X145413963Y-130986627D01*
X145362443Y-131156466D01*
X145278778Y-131312991D01*
X145249448Y-131348729D01*
X145166186Y-131450186D01*
X145064729Y-131533448D01*
X145028991Y-131562778D01*
X144872466Y-131646443D01*
X144702627Y-131697963D01*
X144636443Y-131704481D01*
X144570260Y-131711000D01*
X144481740Y-131711000D01*
X144415557Y-131704481D01*
X144349373Y-131697963D01*
X144179534Y-131646443D01*
X144023009Y-131562778D01*
X143987271Y-131533448D01*
X143885814Y-131450186D01*
X143802552Y-131348729D01*
X143773222Y-131312991D01*
X143689557Y-131156466D01*
X143638037Y-130986627D01*
X143620641Y-130810000D01*
X143638037Y-130633373D01*
X143689557Y-130463534D01*
X143773222Y-130307009D01*
X143802552Y-130271271D01*
X143885814Y-130169814D01*
X143987271Y-130086552D01*
X144023009Y-130057222D01*
X144179534Y-129973557D01*
X144349373Y-129922037D01*
X144415558Y-129915518D01*
X144481740Y-129909000D01*
X144570260Y-129909000D01*
X144636442Y-129915518D01*
X144636442Y-129915518D01*
G37*
G36*
X119876899Y-127606832D02*
G01*
X119961520Y-127623664D01*
X120120942Y-127689699D01*
X120264418Y-127785566D01*
X120386434Y-127907582D01*
X120482301Y-128051058D01*
X120499829Y-128093375D01*
X120548336Y-128210481D01*
X120582000Y-128379720D01*
X120582000Y-128552280D01*
X120569232Y-128616468D01*
X120548336Y-128721520D01*
X120482301Y-128880942D01*
X120386434Y-129024418D01*
X120264418Y-129146434D01*
X120120942Y-129242301D01*
X119961520Y-129308336D01*
X119876899Y-129325168D01*
X119792280Y-129342000D01*
X119619720Y-129342000D01*
X119535101Y-129325168D01*
X119450480Y-129308336D01*
X119291058Y-129242301D01*
X119147582Y-129146434D01*
X119025566Y-129024418D01*
X118929699Y-128880942D01*
X118863664Y-128721520D01*
X118842768Y-128616468D01*
X118830000Y-128552280D01*
X118830000Y-128379720D01*
X118863664Y-128210481D01*
X118912171Y-128093375D01*
X118929699Y-128051058D01*
X119025566Y-127907582D01*
X119147582Y-127785566D01*
X119291058Y-127689699D01*
X119450480Y-127623664D01*
X119535101Y-127606832D01*
X119619720Y-127590000D01*
X119792280Y-127590000D01*
X119876899Y-127606832D01*
X119876899Y-127606832D01*
G37*
G36*
X124376899Y-127606832D02*
G01*
X124461520Y-127623664D01*
X124620942Y-127689699D01*
X124764418Y-127785566D01*
X124886434Y-127907582D01*
X124982301Y-128051058D01*
X124999829Y-128093375D01*
X125048336Y-128210481D01*
X125082000Y-128379720D01*
X125082000Y-128552280D01*
X125069232Y-128616468D01*
X125048336Y-128721520D01*
X124982301Y-128880942D01*
X124886434Y-129024418D01*
X124764418Y-129146434D01*
X124620942Y-129242301D01*
X124461520Y-129308336D01*
X124376899Y-129325168D01*
X124292280Y-129342000D01*
X124119720Y-129342000D01*
X124035101Y-129325168D01*
X123950480Y-129308336D01*
X123791058Y-129242301D01*
X123647582Y-129146434D01*
X123525566Y-129024418D01*
X123429699Y-128880942D01*
X123363664Y-128721520D01*
X123342768Y-128616468D01*
X123330000Y-128552280D01*
X123330000Y-128379720D01*
X123363664Y-128210481D01*
X123412171Y-128093375D01*
X123429699Y-128051058D01*
X123525566Y-127907582D01*
X123647582Y-127785566D01*
X123791058Y-127689699D01*
X123950480Y-127623664D01*
X124035101Y-127606832D01*
X124119720Y-127590000D01*
X124292280Y-127590000D01*
X124376899Y-127606832D01*
X124376899Y-127606832D01*
G37*
G36*
X144636442Y-127375518D02*
G01*
X144702627Y-127382037D01*
X144872466Y-127433557D01*
X145028991Y-127517222D01*
X145064729Y-127546552D01*
X145166186Y-127629814D01*
X145249448Y-127731271D01*
X145278778Y-127767009D01*
X145362443Y-127923534D01*
X145413963Y-128093373D01*
X145431359Y-128270000D01*
X145413963Y-128446627D01*
X145362443Y-128616466D01*
X145278778Y-128772991D01*
X145249448Y-128808729D01*
X145166186Y-128910186D01*
X145064729Y-128993448D01*
X145028991Y-129022778D01*
X144872466Y-129106443D01*
X144702627Y-129157963D01*
X144636442Y-129164482D01*
X144570260Y-129171000D01*
X144481740Y-129171000D01*
X144415558Y-129164482D01*
X144349373Y-129157963D01*
X144179534Y-129106443D01*
X144023009Y-129022778D01*
X143987271Y-128993448D01*
X143885814Y-128910186D01*
X143802552Y-128808729D01*
X143773222Y-128772991D01*
X143689557Y-128616466D01*
X143638037Y-128446627D01*
X143620641Y-128270000D01*
X143638037Y-128093373D01*
X143689557Y-127923534D01*
X143773222Y-127767009D01*
X143802552Y-127731271D01*
X143885814Y-127629814D01*
X143987271Y-127546552D01*
X144023009Y-127517222D01*
X144179534Y-127433557D01*
X144349373Y-127382037D01*
X144415558Y-127375518D01*
X144481740Y-127369000D01*
X144570260Y-127369000D01*
X144636442Y-127375518D01*
X144636442Y-127375518D01*
G37*
G36*
X144636443Y-124835519D02*
G01*
X144702627Y-124842037D01*
X144872466Y-124893557D01*
X145028991Y-124977222D01*
X145064729Y-125006552D01*
X145166186Y-125089814D01*
X145249448Y-125191271D01*
X145278778Y-125227009D01*
X145362443Y-125383534D01*
X145413963Y-125553373D01*
X145431359Y-125730000D01*
X145413963Y-125906627D01*
X145362443Y-126076466D01*
X145278778Y-126232991D01*
X145271137Y-126242301D01*
X145166186Y-126370186D01*
X145064729Y-126453448D01*
X145028991Y-126482778D01*
X144872466Y-126566443D01*
X144702627Y-126617963D01*
X144636442Y-126624482D01*
X144570260Y-126631000D01*
X144481740Y-126631000D01*
X144415558Y-126624482D01*
X144349373Y-126617963D01*
X144179534Y-126566443D01*
X144023009Y-126482778D01*
X143987271Y-126453448D01*
X143885814Y-126370186D01*
X143780863Y-126242301D01*
X143773222Y-126232991D01*
X143689557Y-126076466D01*
X143638037Y-125906627D01*
X143620641Y-125730000D01*
X143638037Y-125553373D01*
X143689557Y-125383534D01*
X143773222Y-125227009D01*
X143802552Y-125191271D01*
X143885814Y-125089814D01*
X143987271Y-125006552D01*
X144023009Y-124977222D01*
X144179534Y-124893557D01*
X144349373Y-124842037D01*
X144415557Y-124835519D01*
X144481740Y-124829000D01*
X144570260Y-124829000D01*
X144636443Y-124835519D01*
X144636443Y-124835519D01*
G37*
G36*
X119876899Y-124606832D02*
G01*
X119961520Y-124623664D01*
X120120942Y-124689699D01*
X120264418Y-124785566D01*
X120386434Y-124907582D01*
X120482301Y-125051058D01*
X120548336Y-125210480D01*
X120548336Y-125210481D01*
X120582000Y-125379720D01*
X120582000Y-125552280D01*
X120581782Y-125553375D01*
X120548336Y-125721520D01*
X120482301Y-125880942D01*
X120386434Y-126024418D01*
X120264418Y-126146434D01*
X120120942Y-126242301D01*
X119961520Y-126308336D01*
X119876899Y-126325168D01*
X119792280Y-126342000D01*
X119619720Y-126342000D01*
X119535101Y-126325168D01*
X119450480Y-126308336D01*
X119291058Y-126242301D01*
X119147582Y-126146434D01*
X119025566Y-126024418D01*
X118929699Y-125880942D01*
X118863664Y-125721520D01*
X118830218Y-125553375D01*
X118830000Y-125552280D01*
X118830000Y-125379720D01*
X118863664Y-125210481D01*
X118863664Y-125210480D01*
X118929699Y-125051058D01*
X119025566Y-124907582D01*
X119147582Y-124785566D01*
X119291058Y-124689699D01*
X119450480Y-124623664D01*
X119535101Y-124606832D01*
X119619720Y-124590000D01*
X119792280Y-124590000D01*
X119876899Y-124606832D01*
X119876899Y-124606832D01*
G37*
G36*
X124376899Y-124606832D02*
G01*
X124461520Y-124623664D01*
X124620942Y-124689699D01*
X124764418Y-124785566D01*
X124886434Y-124907582D01*
X124982301Y-125051058D01*
X125048336Y-125210480D01*
X125048336Y-125210481D01*
X125082000Y-125379720D01*
X125082000Y-125552280D01*
X125081782Y-125553375D01*
X125048336Y-125721520D01*
X124982301Y-125880942D01*
X124886434Y-126024418D01*
X124764418Y-126146434D01*
X124620942Y-126242301D01*
X124461520Y-126308336D01*
X124376899Y-126325168D01*
X124292280Y-126342000D01*
X124119720Y-126342000D01*
X124035101Y-126325168D01*
X123950480Y-126308336D01*
X123791058Y-126242301D01*
X123647582Y-126146434D01*
X123525566Y-126024418D01*
X123429699Y-125880942D01*
X123363664Y-125721520D01*
X123330218Y-125553375D01*
X123330000Y-125552280D01*
X123330000Y-125379720D01*
X123363664Y-125210481D01*
X123363664Y-125210480D01*
X123429699Y-125051058D01*
X123525566Y-124907582D01*
X123647582Y-124785566D01*
X123791058Y-124689699D01*
X123950480Y-124623664D01*
X124035101Y-124606832D01*
X124119720Y-124590000D01*
X124292280Y-124590000D01*
X124376899Y-124606832D01*
X124376899Y-124606832D01*
G37*
G36*
X145427000Y-124091000D02*
G01*
X143625000Y-124091000D01*
X143625000Y-122289000D01*
X145427000Y-122289000D01*
X145427000Y-124091000D01*
X145427000Y-124091000D01*
G37*
G36*
X119961520Y-121623664D02*
G01*
X120120942Y-121689699D01*
X120264418Y-121785566D01*
X120386434Y-121907582D01*
X120482301Y-122051058D01*
X120548336Y-122210480D01*
X120582000Y-122379721D01*
X120582000Y-122552279D01*
X120548336Y-122721520D01*
X120482301Y-122880942D01*
X120386434Y-123024418D01*
X120264418Y-123146434D01*
X120120942Y-123242301D01*
X119961520Y-123308336D01*
X119876899Y-123325168D01*
X119792280Y-123342000D01*
X119619720Y-123342000D01*
X119535101Y-123325168D01*
X119450480Y-123308336D01*
X119291058Y-123242301D01*
X119147582Y-123146434D01*
X119025566Y-123024418D01*
X118929699Y-122880942D01*
X118863664Y-122721520D01*
X118830000Y-122552279D01*
X118830000Y-122379721D01*
X118863664Y-122210480D01*
X118929699Y-122051058D01*
X119025566Y-121907582D01*
X119147582Y-121785566D01*
X119291058Y-121689699D01*
X119450480Y-121623664D01*
X119619720Y-121590000D01*
X119792280Y-121590000D01*
X119961520Y-121623664D01*
X119961520Y-121623664D01*
G37*
G36*
X124461520Y-121623664D02*
G01*
X124620942Y-121689699D01*
X124764418Y-121785566D01*
X124886434Y-121907582D01*
X124982301Y-122051058D01*
X125048336Y-122210480D01*
X125082000Y-122379721D01*
X125082000Y-122552279D01*
X125048336Y-122721520D01*
X124982301Y-122880942D01*
X124886434Y-123024418D01*
X124764418Y-123146434D01*
X124620942Y-123242301D01*
X124461520Y-123308336D01*
X124376899Y-123325168D01*
X124292280Y-123342000D01*
X124119720Y-123342000D01*
X124035101Y-123325168D01*
X123950480Y-123308336D01*
X123791058Y-123242301D01*
X123647582Y-123146434D01*
X123525566Y-123024418D01*
X123429699Y-122880942D01*
X123363664Y-122721520D01*
X123330000Y-122552279D01*
X123330000Y-122379721D01*
X123363664Y-122210480D01*
X123429699Y-122051058D01*
X123525566Y-121907582D01*
X123647582Y-121785566D01*
X123791058Y-121689699D01*
X123950480Y-121623664D01*
X124119720Y-121590000D01*
X124292280Y-121590000D01*
X124461520Y-121623664D01*
X124461520Y-121623664D01*
G37*
G36*
X119876899Y-118606832D02*
G01*
X119961520Y-118623664D01*
X120120942Y-118689699D01*
X120264418Y-118785566D01*
X120386434Y-118907582D01*
X120482301Y-119051058D01*
X120548336Y-119210480D01*
X120582000Y-119379721D01*
X120582000Y-119552279D01*
X120548336Y-119721520D01*
X120482301Y-119880942D01*
X120386434Y-120024418D01*
X120264418Y-120146434D01*
X120120942Y-120242301D01*
X119961520Y-120308336D01*
X119792280Y-120342000D01*
X119619720Y-120342000D01*
X119450480Y-120308336D01*
X119291058Y-120242301D01*
X119147582Y-120146434D01*
X119025566Y-120024418D01*
X118929699Y-119880942D01*
X118863664Y-119721520D01*
X118830000Y-119552279D01*
X118830000Y-119379721D01*
X118863664Y-119210480D01*
X118929699Y-119051058D01*
X119025566Y-118907582D01*
X119147582Y-118785566D01*
X119291058Y-118689699D01*
X119450480Y-118623664D01*
X119535101Y-118606832D01*
X119619720Y-118590000D01*
X119792280Y-118590000D01*
X119876899Y-118606832D01*
X119876899Y-118606832D01*
G37*
G36*
X124376899Y-118606832D02*
G01*
X124461520Y-118623664D01*
X124620942Y-118689699D01*
X124764418Y-118785566D01*
X124886434Y-118907582D01*
X124982301Y-119051058D01*
X125048336Y-119210480D01*
X125082000Y-119379721D01*
X125082000Y-119552279D01*
X125048336Y-119721520D01*
X124982301Y-119880942D01*
X124886434Y-120024418D01*
X124764418Y-120146434D01*
X124620942Y-120242301D01*
X124461520Y-120308336D01*
X124292280Y-120342000D01*
X124119720Y-120342000D01*
X123950480Y-120308336D01*
X123791058Y-120242301D01*
X123647582Y-120146434D01*
X123525566Y-120024418D01*
X123429699Y-119880942D01*
X123363664Y-119721520D01*
X123330000Y-119552279D01*
X123330000Y-119379721D01*
X123363664Y-119210480D01*
X123429699Y-119051058D01*
X123525566Y-118907582D01*
X123647582Y-118785566D01*
X123791058Y-118689699D01*
X123950480Y-118623664D01*
X124035101Y-118606832D01*
X124119720Y-118590000D01*
X124292280Y-118590000D01*
X124376899Y-118606832D01*
X124376899Y-118606832D01*
G37*
G36*
X145130318Y-116320153D02*
G01*
X145348885Y-116410687D01*
X145348887Y-116410688D01*
X145545593Y-116542122D01*
X145712878Y-116709407D01*
X145844312Y-116906113D01*
X145844313Y-116906115D01*
X145934847Y-117124682D01*
X145981000Y-117356710D01*
X145981000Y-117593290D01*
X145934847Y-117825318D01*
X145844313Y-118043885D01*
X145844312Y-118043887D01*
X145712878Y-118240593D01*
X145545593Y-118407878D01*
X145348887Y-118539312D01*
X145348886Y-118539313D01*
X145348885Y-118539313D01*
X145130318Y-118629847D01*
X144898290Y-118676000D01*
X144661710Y-118676000D01*
X144429682Y-118629847D01*
X144211115Y-118539313D01*
X144211114Y-118539313D01*
X144211113Y-118539312D01*
X144014407Y-118407878D01*
X143847122Y-118240593D01*
X143715688Y-118043887D01*
X143715687Y-118043885D01*
X143625153Y-117825318D01*
X143579000Y-117593290D01*
X143579000Y-117356710D01*
X143625153Y-117124682D01*
X143715687Y-116906115D01*
X143715688Y-116906113D01*
X143847122Y-116709407D01*
X144014407Y-116542122D01*
X144211113Y-116410688D01*
X144211115Y-116410687D01*
X144429682Y-116320153D01*
X144661710Y-116274000D01*
X144898290Y-116274000D01*
X145130318Y-116320153D01*
X145130318Y-116320153D01*
G37*
G36*
X119862084Y-115503885D02*
G01*
X119961520Y-115523664D01*
X120120942Y-115589699D01*
X120264418Y-115685566D01*
X120386434Y-115807582D01*
X120482301Y-115951058D01*
X120548336Y-116110480D01*
X120582000Y-116279721D01*
X120582000Y-116452279D01*
X120548336Y-116621520D01*
X120482301Y-116780942D01*
X120386434Y-116924418D01*
X120264418Y-117046434D01*
X120120942Y-117142301D01*
X119961520Y-117208336D01*
X119876899Y-117225168D01*
X119792280Y-117242000D01*
X119619720Y-117242000D01*
X119535101Y-117225168D01*
X119450480Y-117208336D01*
X119291058Y-117142301D01*
X119147582Y-117046434D01*
X119025566Y-116924418D01*
X118929699Y-116780942D01*
X118863664Y-116621520D01*
X118830000Y-116452279D01*
X118830000Y-116279721D01*
X118863664Y-116110480D01*
X118929699Y-115951058D01*
X119025566Y-115807582D01*
X119147582Y-115685566D01*
X119291058Y-115589699D01*
X119450480Y-115523664D01*
X119549916Y-115503885D01*
X119619720Y-115490000D01*
X119792280Y-115490000D01*
X119862084Y-115503885D01*
X119862084Y-115503885D01*
G37*
G36*
X124362084Y-115503885D02*
G01*
X124461520Y-115523664D01*
X124620942Y-115589699D01*
X124764418Y-115685566D01*
X124886434Y-115807582D01*
X124982301Y-115951058D01*
X125048336Y-116110480D01*
X125082000Y-116279721D01*
X125082000Y-116452279D01*
X125048336Y-116621520D01*
X124982301Y-116780942D01*
X124886434Y-116924418D01*
X124764418Y-117046434D01*
X124620942Y-117142301D01*
X124461520Y-117208336D01*
X124376899Y-117225168D01*
X124292280Y-117242000D01*
X124119720Y-117242000D01*
X124035101Y-117225168D01*
X123950480Y-117208336D01*
X123791058Y-117142301D01*
X123647582Y-117046434D01*
X123525566Y-116924418D01*
X123429699Y-116780942D01*
X123363664Y-116621520D01*
X123330000Y-116452279D01*
X123330000Y-116279721D01*
X123363664Y-116110480D01*
X123429699Y-115951058D01*
X123525566Y-115807582D01*
X123647582Y-115685566D01*
X123791058Y-115589699D01*
X123950480Y-115523664D01*
X124049916Y-115503885D01*
X124119720Y-115490000D01*
X124292280Y-115490000D01*
X124362084Y-115503885D01*
X124362084Y-115503885D01*
G37*
G36*
X152750318Y-113780153D02*
G01*
X152968885Y-113870687D01*
X152968887Y-113870688D01*
X153165593Y-114002122D01*
X153332878Y-114169407D01*
X153464312Y-114366113D01*
X153464313Y-114366115D01*
X153554847Y-114584682D01*
X153601000Y-114816710D01*
X153601000Y-115053290D01*
X153554847Y-115285318D01*
X153470064Y-115490000D01*
X153464312Y-115503887D01*
X153332878Y-115700593D01*
X153165593Y-115867878D01*
X152968887Y-115999312D01*
X152968886Y-115999313D01*
X152968885Y-115999313D01*
X152750318Y-116089847D01*
X152518290Y-116136000D01*
X152281710Y-116136000D01*
X152049682Y-116089847D01*
X151831115Y-115999313D01*
X151831114Y-115999313D01*
X151831113Y-115999312D01*
X151634407Y-115867878D01*
X151467122Y-115700593D01*
X151335688Y-115503887D01*
X151329936Y-115490000D01*
X151245153Y-115285318D01*
X151199000Y-115053290D01*
X151199000Y-114816710D01*
X151245153Y-114584682D01*
X151335687Y-114366115D01*
X151335688Y-114366113D01*
X151467122Y-114169407D01*
X151634407Y-114002122D01*
X151831113Y-113870688D01*
X151831115Y-113870687D01*
X152049682Y-113780153D01*
X152281710Y-113734000D01*
X152518290Y-113734000D01*
X152750318Y-113780153D01*
X152750318Y-113780153D01*
G37*
G36*
X114423360Y-110620592D02*
G01*
X114786560Y-110692837D01*
X114988282Y-110776393D01*
X115273560Y-110894559D01*
X115273561Y-110894560D01*
X115711851Y-111187415D01*
X116084585Y-111560149D01*
X116280264Y-111853005D01*
X116377441Y-111998440D01*
X116495607Y-112283718D01*
X116579163Y-112485440D01*
X116682000Y-113002437D01*
X116682000Y-113529563D01*
X116579163Y-114046560D01*
X116495607Y-114248282D01*
X116377441Y-114533560D01*
X116377440Y-114533561D01*
X116084585Y-114971851D01*
X115711851Y-115344585D01*
X115494221Y-115490000D01*
X115273560Y-115637441D01*
X115121097Y-115700593D01*
X114786560Y-115839163D01*
X114528062Y-115890581D01*
X114269564Y-115942000D01*
X113742436Y-115942000D01*
X113483938Y-115890581D01*
X113225440Y-115839163D01*
X112890903Y-115700593D01*
X112738440Y-115637441D01*
X112517779Y-115490000D01*
X112300149Y-115344585D01*
X111927415Y-114971851D01*
X111634560Y-114533561D01*
X111634559Y-114533560D01*
X111516393Y-114248282D01*
X111432837Y-114046560D01*
X111330000Y-113529563D01*
X111330000Y-113002437D01*
X111432837Y-112485440D01*
X111516393Y-112283718D01*
X111634559Y-111998440D01*
X111731736Y-111853005D01*
X111927415Y-111560149D01*
X112300149Y-111187415D01*
X112738439Y-110894560D01*
X112738440Y-110894559D01*
X113023718Y-110776393D01*
X113225440Y-110692837D01*
X113588640Y-110620592D01*
X113742436Y-110590000D01*
X114269564Y-110590000D01*
X114423360Y-110620592D01*
X114423360Y-110620592D01*
G37*
G36*
X145130318Y-108700153D02*
G01*
X145348885Y-108790687D01*
X145348887Y-108790688D01*
X145545593Y-108922122D01*
X145712878Y-109089407D01*
X145844312Y-109286113D01*
X145844313Y-109286115D01*
X145934847Y-109504682D01*
X145981000Y-109736710D01*
X145981000Y-109973290D01*
X145934847Y-110205318D01*
X145844313Y-110423885D01*
X145844312Y-110423887D01*
X145712878Y-110620593D01*
X145545593Y-110787878D01*
X145348887Y-110919312D01*
X145348886Y-110919313D01*
X145348885Y-110919313D01*
X145130318Y-111009847D01*
X144898290Y-111056000D01*
X144661710Y-111056000D01*
X144429682Y-111009847D01*
X144211115Y-110919313D01*
X144211114Y-110919313D01*
X144211113Y-110919312D01*
X144014407Y-110787878D01*
X143847122Y-110620593D01*
X143715688Y-110423887D01*
X143715687Y-110423885D01*
X143625153Y-110205318D01*
X143579000Y-109973290D01*
X143579000Y-109736710D01*
X143625153Y-109504682D01*
X143715687Y-109286115D01*
X143715688Y-109286113D01*
X143847122Y-109089407D01*
X144014407Y-108922122D01*
X144211113Y-108790688D01*
X144211115Y-108790687D01*
X144429682Y-108700153D01*
X144661710Y-108654000D01*
X144898290Y-108654000D01*
X145130318Y-108700153D01*
X145130318Y-108700153D01*
G37*
G36*
X119961520Y-109323664D02*
G01*
X120120942Y-109389699D01*
X120264418Y-109485566D01*
X120386434Y-109607582D01*
X120482301Y-109751058D01*
X120548336Y-109910480D01*
X120582000Y-110079721D01*
X120582000Y-110252279D01*
X120548336Y-110421520D01*
X120482301Y-110580942D01*
X120386434Y-110724418D01*
X120264418Y-110846434D01*
X120120942Y-110942301D01*
X119961520Y-111008336D01*
X119792280Y-111042000D01*
X119619720Y-111042000D01*
X119450480Y-111008336D01*
X119291058Y-110942301D01*
X119147582Y-110846434D01*
X119025566Y-110724418D01*
X118929699Y-110580942D01*
X118863664Y-110421520D01*
X118830000Y-110252279D01*
X118830000Y-110079721D01*
X118863664Y-109910480D01*
X118929699Y-109751058D01*
X119025566Y-109607582D01*
X119147582Y-109485566D01*
X119291058Y-109389699D01*
X119450480Y-109323664D01*
X119619720Y-109290000D01*
X119792280Y-109290000D01*
X119961520Y-109323664D01*
X119961520Y-109323664D01*
G37*
G36*
X124461520Y-109323664D02*
G01*
X124620942Y-109389699D01*
X124764418Y-109485566D01*
X124886434Y-109607582D01*
X124982301Y-109751058D01*
X125048336Y-109910480D01*
X125082000Y-110079721D01*
X125082000Y-110252279D01*
X125048336Y-110421520D01*
X124982301Y-110580942D01*
X124886434Y-110724418D01*
X124764418Y-110846434D01*
X124620942Y-110942301D01*
X124461520Y-111008336D01*
X124292280Y-111042000D01*
X124119720Y-111042000D01*
X123950480Y-111008336D01*
X123791058Y-110942301D01*
X123647582Y-110846434D01*
X123525566Y-110724418D01*
X123429699Y-110580942D01*
X123363664Y-110421520D01*
X123330000Y-110252279D01*
X123330000Y-110079721D01*
X123363664Y-109910480D01*
X123429699Y-109751058D01*
X123525566Y-109607582D01*
X123647582Y-109485566D01*
X123791058Y-109389699D01*
X123950480Y-109323664D01*
X124119720Y-109290000D01*
X124292280Y-109290000D01*
X124461520Y-109323664D01*
X124461520Y-109323664D01*
G37*
G36*
X124461520Y-105823664D02*
G01*
X124620942Y-105889699D01*
X124764418Y-105985566D01*
X124886434Y-106107582D01*
X124982301Y-106251058D01*
X125048336Y-106410480D01*
X125082000Y-106579721D01*
X125082000Y-106752279D01*
X125048336Y-106921520D01*
X124982301Y-107080942D01*
X124886434Y-107224418D01*
X124764418Y-107346434D01*
X124620942Y-107442301D01*
X124461520Y-107508336D01*
X124376899Y-107525168D01*
X124292280Y-107542000D01*
X124119720Y-107542000D01*
X124035101Y-107525168D01*
X123950480Y-107508336D01*
X123791058Y-107442301D01*
X123647582Y-107346434D01*
X123525566Y-107224418D01*
X123429699Y-107080942D01*
X123363664Y-106921520D01*
X123330000Y-106752279D01*
X123330000Y-106579721D01*
X123363664Y-106410480D01*
X123429699Y-106251058D01*
X123525566Y-106107582D01*
X123647582Y-105985566D01*
X123791058Y-105889699D01*
X123950480Y-105823664D01*
X124119720Y-105790000D01*
X124292280Y-105790000D01*
X124461520Y-105823664D01*
X124461520Y-105823664D01*
G37*
G36*
X119961520Y-105823664D02*
G01*
X120120942Y-105889699D01*
X120264418Y-105985566D01*
X120386434Y-106107582D01*
X120482301Y-106251058D01*
X120548336Y-106410480D01*
X120582000Y-106579721D01*
X120582000Y-106752279D01*
X120548336Y-106921520D01*
X120482301Y-107080942D01*
X120386434Y-107224418D01*
X120264418Y-107346434D01*
X120120942Y-107442301D01*
X119961520Y-107508336D01*
X119876899Y-107525168D01*
X119792280Y-107542000D01*
X119619720Y-107542000D01*
X119535101Y-107525168D01*
X119450480Y-107508336D01*
X119291058Y-107442301D01*
X119147582Y-107346434D01*
X119025566Y-107224418D01*
X118929699Y-107080942D01*
X118863664Y-106921520D01*
X118830000Y-106752279D01*
X118830000Y-106579721D01*
X118863664Y-106410480D01*
X118929699Y-106251058D01*
X119025566Y-106107582D01*
X119147582Y-105985566D01*
X119291058Y-105889699D01*
X119450480Y-105823664D01*
X119619720Y-105790000D01*
X119792280Y-105790000D01*
X119961520Y-105823664D01*
X119961520Y-105823664D01*
G37*
G36*
X124461520Y-102723664D02*
G01*
X124620942Y-102789699D01*
X124764418Y-102885566D01*
X124886434Y-103007582D01*
X124982301Y-103151058D01*
X125048336Y-103310480D01*
X125082000Y-103479721D01*
X125082000Y-103652279D01*
X125048336Y-103821520D01*
X124982301Y-103980942D01*
X124886434Y-104124418D01*
X124764418Y-104246434D01*
X124620942Y-104342301D01*
X124461520Y-104408336D01*
X124376899Y-104425168D01*
X124292280Y-104442000D01*
X124119720Y-104442000D01*
X124035101Y-104425168D01*
X123950480Y-104408336D01*
X123791058Y-104342301D01*
X123647582Y-104246434D01*
X123525566Y-104124418D01*
X123429699Y-103980942D01*
X123363664Y-103821520D01*
X123330000Y-103652279D01*
X123330000Y-103479721D01*
X123363664Y-103310480D01*
X123429699Y-103151058D01*
X123525566Y-103007582D01*
X123647582Y-102885566D01*
X123791058Y-102789699D01*
X123950480Y-102723664D01*
X124035101Y-102706832D01*
X124119720Y-102690000D01*
X124292280Y-102690000D01*
X124461520Y-102723664D01*
X124461520Y-102723664D01*
G37*
G36*
X119961520Y-102723664D02*
G01*
X120120942Y-102789699D01*
X120264418Y-102885566D01*
X120386434Y-103007582D01*
X120482301Y-103151058D01*
X120548336Y-103310480D01*
X120582000Y-103479721D01*
X120582000Y-103652279D01*
X120548336Y-103821520D01*
X120482301Y-103980942D01*
X120386434Y-104124418D01*
X120264418Y-104246434D01*
X120120942Y-104342301D01*
X119961520Y-104408336D01*
X119876899Y-104425168D01*
X119792280Y-104442000D01*
X119619720Y-104442000D01*
X119535101Y-104425168D01*
X119450480Y-104408336D01*
X119291058Y-104342301D01*
X119147582Y-104246434D01*
X119025566Y-104124418D01*
X118929699Y-103980942D01*
X118863664Y-103821520D01*
X118830000Y-103652279D01*
X118830000Y-103479721D01*
X118863664Y-103310480D01*
X118929699Y-103151058D01*
X119025566Y-103007582D01*
X119147582Y-102885566D01*
X119291058Y-102789699D01*
X119450480Y-102723664D01*
X119535101Y-102706832D01*
X119619720Y-102690000D01*
X119792280Y-102690000D01*
X119961520Y-102723664D01*
X119961520Y-102723664D01*
G37*
G36*
X124376899Y-99706832D02*
G01*
X124461520Y-99723664D01*
X124620942Y-99789699D01*
X124764418Y-99885566D01*
X124886434Y-100007582D01*
X124982301Y-100151058D01*
X125048336Y-100310480D01*
X125082000Y-100479721D01*
X125082000Y-100652279D01*
X125048336Y-100821520D01*
X124982301Y-100980942D01*
X124886434Y-101124418D01*
X124764418Y-101246434D01*
X124620942Y-101342301D01*
X124461520Y-101408336D01*
X124292280Y-101442000D01*
X124119720Y-101442000D01*
X124035101Y-101425168D01*
X123950480Y-101408336D01*
X123791058Y-101342301D01*
X123647582Y-101246434D01*
X123525566Y-101124418D01*
X123429699Y-100980942D01*
X123363664Y-100821520D01*
X123330000Y-100652279D01*
X123330000Y-100479721D01*
X123363664Y-100310480D01*
X123429699Y-100151058D01*
X123525566Y-100007582D01*
X123647582Y-99885566D01*
X123791058Y-99789699D01*
X123950480Y-99723664D01*
X124035101Y-99706832D01*
X124119720Y-99690000D01*
X124292280Y-99690000D01*
X124376899Y-99706832D01*
X124376899Y-99706832D01*
G37*
G36*
X119876899Y-99706832D02*
G01*
X119961520Y-99723664D01*
X120120942Y-99789699D01*
X120264418Y-99885566D01*
X120386434Y-100007582D01*
X120482301Y-100151058D01*
X120548336Y-100310480D01*
X120582000Y-100479721D01*
X120582000Y-100652279D01*
X120548336Y-100821520D01*
X120482301Y-100980942D01*
X120386434Y-101124418D01*
X120264418Y-101246434D01*
X120120942Y-101342301D01*
X119961520Y-101408336D01*
X119792280Y-101442000D01*
X119619720Y-101442000D01*
X119535101Y-101425168D01*
X119450480Y-101408336D01*
X119291058Y-101342301D01*
X119147582Y-101246434D01*
X119025566Y-101124418D01*
X118929699Y-100980942D01*
X118863664Y-100821520D01*
X118830000Y-100652279D01*
X118830000Y-100479721D01*
X118863664Y-100310480D01*
X118929699Y-100151058D01*
X119025566Y-100007582D01*
X119147582Y-99885566D01*
X119291058Y-99789699D01*
X119450480Y-99723664D01*
X119535101Y-99706832D01*
X119619720Y-99690000D01*
X119792280Y-99690000D01*
X119876899Y-99706832D01*
X119876899Y-99706832D01*
G37*
G36*
X152750318Y-98540153D02*
G01*
X152968885Y-98630687D01*
X152968887Y-98630688D01*
X153165593Y-98762122D01*
X153332878Y-98929407D01*
X153464312Y-99126113D01*
X153464313Y-99126115D01*
X153554847Y-99344682D01*
X153601000Y-99576710D01*
X153601000Y-99813290D01*
X153554847Y-100045318D01*
X153511047Y-100151060D01*
X153464312Y-100263887D01*
X153332878Y-100460593D01*
X153165593Y-100627878D01*
X152968887Y-100759312D01*
X152968886Y-100759313D01*
X152968885Y-100759313D01*
X152750318Y-100849847D01*
X152518290Y-100896000D01*
X152281710Y-100896000D01*
X152049682Y-100849847D01*
X151831115Y-100759313D01*
X151831114Y-100759313D01*
X151831113Y-100759312D01*
X151634407Y-100627878D01*
X151467122Y-100460593D01*
X151335688Y-100263887D01*
X151288953Y-100151060D01*
X151245153Y-100045318D01*
X151199000Y-99813290D01*
X151199000Y-99576710D01*
X151245153Y-99344682D01*
X151335687Y-99126115D01*
X151335688Y-99126113D01*
X151467122Y-98929407D01*
X151634407Y-98762122D01*
X151831113Y-98630688D01*
X151831115Y-98630687D01*
X152049682Y-98540153D01*
X152281710Y-98494000D01*
X152518290Y-98494000D01*
X152750318Y-98540153D01*
X152750318Y-98540153D01*
G37*
G36*
X145981000Y-100896000D02*
G01*
X143579000Y-100896000D01*
X143579000Y-98494000D01*
X145981000Y-98494000D01*
X145981000Y-100896000D01*
X145981000Y-100896000D01*
G37*
G36*
X119876899Y-96706832D02*
G01*
X119961520Y-96723664D01*
X120120942Y-96789699D01*
X120264418Y-96885566D01*
X120386434Y-97007582D01*
X120482301Y-97151058D01*
X120548336Y-97310480D01*
X120582000Y-97479721D01*
X120582000Y-97652279D01*
X120548336Y-97821520D01*
X120482301Y-97980942D01*
X120386434Y-98124418D01*
X120264418Y-98246434D01*
X120120942Y-98342301D01*
X119961520Y-98408336D01*
X119876899Y-98425168D01*
X119792280Y-98442000D01*
X119619720Y-98442000D01*
X119450480Y-98408336D01*
X119291058Y-98342301D01*
X119147582Y-98246434D01*
X119025566Y-98124418D01*
X118929699Y-97980942D01*
X118863664Y-97821520D01*
X118830000Y-97652279D01*
X118830000Y-97479721D01*
X118863664Y-97310480D01*
X118929699Y-97151058D01*
X119025566Y-97007582D01*
X119147582Y-96885566D01*
X119291058Y-96789699D01*
X119450480Y-96723664D01*
X119535101Y-96706832D01*
X119619720Y-96690000D01*
X119792280Y-96690000D01*
X119876899Y-96706832D01*
X119876899Y-96706832D01*
G37*
G36*
X124376899Y-96706832D02*
G01*
X124461520Y-96723664D01*
X124620942Y-96789699D01*
X124764418Y-96885566D01*
X124886434Y-97007582D01*
X124982301Y-97151058D01*
X125048336Y-97310480D01*
X125082000Y-97479721D01*
X125082000Y-97652279D01*
X125048336Y-97821520D01*
X124982301Y-97980942D01*
X124886434Y-98124418D01*
X124764418Y-98246434D01*
X124620942Y-98342301D01*
X124461520Y-98408336D01*
X124376899Y-98425168D01*
X124292280Y-98442000D01*
X124119720Y-98442000D01*
X123950480Y-98408336D01*
X123791058Y-98342301D01*
X123647582Y-98246434D01*
X123525566Y-98124418D01*
X123429699Y-97980942D01*
X123363664Y-97821520D01*
X123330000Y-97652279D01*
X123330000Y-97479721D01*
X123363664Y-97310480D01*
X123429699Y-97151058D01*
X123525566Y-97007582D01*
X123647582Y-96885566D01*
X123791058Y-96789699D01*
X123950480Y-96723664D01*
X124035101Y-96706832D01*
X124119720Y-96690000D01*
X124292280Y-96690000D01*
X124376899Y-96706832D01*
X124376899Y-96706832D01*
G37*
G36*
X119961520Y-93723664D02*
G01*
X120120942Y-93789699D01*
X120264418Y-93885566D01*
X120386434Y-94007582D01*
X120482301Y-94151058D01*
X120548336Y-94310480D01*
X120582000Y-94479721D01*
X120582000Y-94652279D01*
X120548336Y-94821520D01*
X120482301Y-94980942D01*
X120386434Y-95124418D01*
X120264418Y-95246434D01*
X120120942Y-95342301D01*
X119961520Y-95408336D01*
X119792280Y-95442000D01*
X119619720Y-95442000D01*
X119535101Y-95425168D01*
X119450480Y-95408336D01*
X119291058Y-95342301D01*
X119147582Y-95246434D01*
X119025566Y-95124418D01*
X118929699Y-94980942D01*
X118863664Y-94821520D01*
X118830000Y-94652279D01*
X118830000Y-94479721D01*
X118863664Y-94310480D01*
X118929699Y-94151058D01*
X119025566Y-94007582D01*
X119147582Y-93885566D01*
X119291058Y-93789699D01*
X119450480Y-93723664D01*
X119619720Y-93690000D01*
X119792280Y-93690000D01*
X119961520Y-93723664D01*
X119961520Y-93723664D01*
G37*
G36*
X124461520Y-93723664D02*
G01*
X124620942Y-93789699D01*
X124764418Y-93885566D01*
X124886434Y-94007582D01*
X124982301Y-94151058D01*
X125048336Y-94310480D01*
X125082000Y-94479721D01*
X125082000Y-94652279D01*
X125048336Y-94821520D01*
X124982301Y-94980942D01*
X124886434Y-95124418D01*
X124764418Y-95246434D01*
X124620942Y-95342301D01*
X124461520Y-95408336D01*
X124292280Y-95442000D01*
X124119720Y-95442000D01*
X124035101Y-95425168D01*
X123950480Y-95408336D01*
X123791058Y-95342301D01*
X123647582Y-95246434D01*
X123525566Y-95124418D01*
X123429699Y-94980942D01*
X123363664Y-94821520D01*
X123330000Y-94652279D01*
X123330000Y-94479721D01*
X123363664Y-94310480D01*
X123429699Y-94151058D01*
X123525566Y-94007582D01*
X123647582Y-93885566D01*
X123791058Y-93789699D01*
X123950480Y-93723664D01*
X124119720Y-93690000D01*
X124292280Y-93690000D01*
X124461520Y-93723664D01*
X124461520Y-93723664D01*
G37*
G36*
X144382443Y-93085519D02*
G01*
X144448627Y-93092037D01*
X144618466Y-93143557D01*
X144774991Y-93227222D01*
X144810729Y-93256552D01*
X144912186Y-93339814D01*
X144995448Y-93441271D01*
X145024778Y-93477009D01*
X145108443Y-93633534D01*
X145159963Y-93803373D01*
X145177359Y-93980000D01*
X145159963Y-94156627D01*
X145108443Y-94326466D01*
X145024778Y-94482991D01*
X144995448Y-94518729D01*
X144912186Y-94620186D01*
X144810729Y-94703448D01*
X144774991Y-94732778D01*
X144618466Y-94816443D01*
X144448627Y-94867963D01*
X144382443Y-94874481D01*
X144316260Y-94881000D01*
X144227740Y-94881000D01*
X144161557Y-94874481D01*
X144095373Y-94867963D01*
X143925534Y-94816443D01*
X143769009Y-94732778D01*
X143733271Y-94703448D01*
X143631814Y-94620186D01*
X143548552Y-94518729D01*
X143519222Y-94482991D01*
X143435557Y-94326466D01*
X143384037Y-94156627D01*
X143366641Y-93980000D01*
X143384037Y-93803373D01*
X143435557Y-93633534D01*
X143519222Y-93477009D01*
X143548552Y-93441271D01*
X143631814Y-93339814D01*
X143733271Y-93256552D01*
X143769009Y-93227222D01*
X143925534Y-93143557D01*
X144095373Y-93092037D01*
X144161557Y-93085519D01*
X144227740Y-93079000D01*
X144316260Y-93079000D01*
X144382443Y-93085519D01*
X144382443Y-93085519D01*
G37*
G36*
X124376899Y-90706832D02*
G01*
X124461520Y-90723664D01*
X124620942Y-90789699D01*
X124764418Y-90885566D01*
X124886434Y-91007582D01*
X124982301Y-91151058D01*
X125048336Y-91310480D01*
X125082000Y-91479721D01*
X125082000Y-91652279D01*
X125048336Y-91821520D01*
X124982301Y-91980942D01*
X124886434Y-92124418D01*
X124764418Y-92246434D01*
X124620942Y-92342301D01*
X124461520Y-92408336D01*
X124292280Y-92442000D01*
X124119720Y-92442000D01*
X123950480Y-92408336D01*
X123791058Y-92342301D01*
X123647582Y-92246434D01*
X123525566Y-92124418D01*
X123429699Y-91980942D01*
X123363664Y-91821520D01*
X123330000Y-91652279D01*
X123330000Y-91479721D01*
X123363664Y-91310480D01*
X123429699Y-91151058D01*
X123525566Y-91007582D01*
X123647582Y-90885566D01*
X123791058Y-90789699D01*
X123950480Y-90723664D01*
X124119720Y-90690000D01*
X124292280Y-90690000D01*
X124376899Y-90706832D01*
X124376899Y-90706832D01*
G37*
G36*
X119876899Y-90706832D02*
G01*
X119961520Y-90723664D01*
X120120942Y-90789699D01*
X120264418Y-90885566D01*
X120386434Y-91007582D01*
X120482301Y-91151058D01*
X120548336Y-91310480D01*
X120582000Y-91479721D01*
X120582000Y-91652279D01*
X120548336Y-91821520D01*
X120482301Y-91980942D01*
X120386434Y-92124418D01*
X120264418Y-92246434D01*
X120120942Y-92342301D01*
X119961520Y-92408336D01*
X119792280Y-92442000D01*
X119619720Y-92442000D01*
X119450480Y-92408336D01*
X119291058Y-92342301D01*
X119147582Y-92246434D01*
X119025566Y-92124418D01*
X118929699Y-91980942D01*
X118863664Y-91821520D01*
X118830000Y-91652279D01*
X118830000Y-91479721D01*
X118863664Y-91310480D01*
X118929699Y-91151058D01*
X119025566Y-91007582D01*
X119147582Y-90885566D01*
X119291058Y-90789699D01*
X119450480Y-90723664D01*
X119619720Y-90690000D01*
X119792280Y-90690000D01*
X119876899Y-90706832D01*
X119876899Y-90706832D01*
G37*
G36*
X144382443Y-90545519D02*
G01*
X144448627Y-90552037D01*
X144618466Y-90603557D01*
X144774991Y-90687222D01*
X144810729Y-90716552D01*
X144912186Y-90799814D01*
X144982560Y-90885566D01*
X145024778Y-90937009D01*
X145108443Y-91093534D01*
X145159963Y-91263373D01*
X145177359Y-91440000D01*
X145159963Y-91616627D01*
X145108443Y-91786466D01*
X145024778Y-91942991D01*
X144995448Y-91978729D01*
X144912186Y-92080186D01*
X144810729Y-92163448D01*
X144774991Y-92192778D01*
X144618466Y-92276443D01*
X144448627Y-92327963D01*
X144382443Y-92334481D01*
X144316260Y-92341000D01*
X144227740Y-92341000D01*
X144161557Y-92334481D01*
X144095373Y-92327963D01*
X143925534Y-92276443D01*
X143769009Y-92192778D01*
X143733271Y-92163448D01*
X143631814Y-92080186D01*
X143548552Y-91978729D01*
X143519222Y-91942991D01*
X143435557Y-91786466D01*
X143384037Y-91616627D01*
X143366641Y-91440000D01*
X143384037Y-91263373D01*
X143435557Y-91093534D01*
X143519222Y-90937009D01*
X143561440Y-90885566D01*
X143631814Y-90799814D01*
X143733271Y-90716552D01*
X143769009Y-90687222D01*
X143925534Y-90603557D01*
X144095373Y-90552037D01*
X144161557Y-90545519D01*
X144227740Y-90539000D01*
X144316260Y-90539000D01*
X144382443Y-90545519D01*
X144382443Y-90545519D01*
G37*
G36*
X144382443Y-88005519D02*
G01*
X144448627Y-88012037D01*
X144618466Y-88063557D01*
X144774991Y-88147222D01*
X144810729Y-88176552D01*
X144912186Y-88259814D01*
X144995448Y-88361271D01*
X145024778Y-88397009D01*
X145108443Y-88553534D01*
X145159963Y-88723373D01*
X145177359Y-88900000D01*
X145159963Y-89076627D01*
X145108443Y-89246466D01*
X145024778Y-89402991D01*
X145020391Y-89408336D01*
X144912186Y-89540186D01*
X144810729Y-89623448D01*
X144774991Y-89652778D01*
X144618466Y-89736443D01*
X144448627Y-89787963D01*
X144382443Y-89794481D01*
X144316260Y-89801000D01*
X144227740Y-89801000D01*
X144161557Y-89794481D01*
X144095373Y-89787963D01*
X143925534Y-89736443D01*
X143769009Y-89652778D01*
X143733271Y-89623448D01*
X143631814Y-89540186D01*
X143523609Y-89408336D01*
X143519222Y-89402991D01*
X143435557Y-89246466D01*
X143384037Y-89076627D01*
X143366641Y-88900000D01*
X143384037Y-88723373D01*
X143435557Y-88553534D01*
X143519222Y-88397009D01*
X143548552Y-88361271D01*
X143631814Y-88259814D01*
X143733271Y-88176552D01*
X143769009Y-88147222D01*
X143925534Y-88063557D01*
X144095373Y-88012037D01*
X144161557Y-88005519D01*
X144227740Y-87999000D01*
X144316260Y-87999000D01*
X144382443Y-88005519D01*
X144382443Y-88005519D01*
G37*
G36*
X119961520Y-87723664D02*
G01*
X120120942Y-87789699D01*
X120264418Y-87885566D01*
X120386434Y-88007582D01*
X120482301Y-88151058D01*
X120548336Y-88310480D01*
X120582000Y-88479721D01*
X120582000Y-88652279D01*
X120548336Y-88821520D01*
X120482301Y-88980942D01*
X120386434Y-89124418D01*
X120264418Y-89246434D01*
X120120942Y-89342301D01*
X119961520Y-89408336D01*
X119792280Y-89442000D01*
X119619720Y-89442000D01*
X119450480Y-89408336D01*
X119291058Y-89342301D01*
X119147582Y-89246434D01*
X119025566Y-89124418D01*
X118929699Y-88980942D01*
X118863664Y-88821520D01*
X118830000Y-88652279D01*
X118830000Y-88479721D01*
X118863664Y-88310480D01*
X118929699Y-88151058D01*
X119025566Y-88007582D01*
X119147582Y-87885566D01*
X119291058Y-87789699D01*
X119450480Y-87723664D01*
X119619720Y-87690000D01*
X119792280Y-87690000D01*
X119961520Y-87723664D01*
X119961520Y-87723664D01*
G37*
G36*
X124461520Y-87723664D02*
G01*
X124620942Y-87789699D01*
X124764418Y-87885566D01*
X124886434Y-88007582D01*
X124982301Y-88151058D01*
X125048336Y-88310480D01*
X125082000Y-88479721D01*
X125082000Y-88652279D01*
X125048336Y-88821520D01*
X124982301Y-88980942D01*
X124886434Y-89124418D01*
X124764418Y-89246434D01*
X124620942Y-89342301D01*
X124461520Y-89408336D01*
X124292280Y-89442000D01*
X124119720Y-89442000D01*
X123950480Y-89408336D01*
X123791058Y-89342301D01*
X123647582Y-89246434D01*
X123525566Y-89124418D01*
X123429699Y-88980942D01*
X123363664Y-88821520D01*
X123330000Y-88652279D01*
X123330000Y-88479721D01*
X123363664Y-88310480D01*
X123429699Y-88151058D01*
X123525566Y-88007582D01*
X123647582Y-87885566D01*
X123791058Y-87789699D01*
X123950480Y-87723664D01*
X124119720Y-87690000D01*
X124292280Y-87690000D01*
X124461520Y-87723664D01*
X124461520Y-87723664D01*
G37*
G36*
X144382442Y-85465518D02*
G01*
X144448627Y-85472037D01*
X144618466Y-85523557D01*
X144774991Y-85607222D01*
X144810729Y-85636552D01*
X144912186Y-85719814D01*
X144995448Y-85821271D01*
X145024778Y-85857009D01*
X145108443Y-86013534D01*
X145159963Y-86183373D01*
X145177359Y-86360000D01*
X145159963Y-86536627D01*
X145108443Y-86706466D01*
X145024778Y-86862991D01*
X144995448Y-86898729D01*
X144912186Y-87000186D01*
X144810729Y-87083448D01*
X144774991Y-87112778D01*
X144618466Y-87196443D01*
X144448627Y-87247963D01*
X144382442Y-87254482D01*
X144316260Y-87261000D01*
X144227740Y-87261000D01*
X144161558Y-87254482D01*
X144095373Y-87247963D01*
X143925534Y-87196443D01*
X143769009Y-87112778D01*
X143733271Y-87083448D01*
X143631814Y-87000186D01*
X143548552Y-86898729D01*
X143519222Y-86862991D01*
X143435557Y-86706466D01*
X143384037Y-86536627D01*
X143366641Y-86360000D01*
X143384037Y-86183373D01*
X143435557Y-86013534D01*
X143519222Y-85857009D01*
X143548552Y-85821271D01*
X143631814Y-85719814D01*
X143733271Y-85636552D01*
X143769009Y-85607222D01*
X143925534Y-85523557D01*
X144095373Y-85472037D01*
X144161558Y-85465518D01*
X144227740Y-85459000D01*
X144316260Y-85459000D01*
X144382442Y-85465518D01*
X144382442Y-85465518D01*
G37*
G36*
X119961520Y-84723664D02*
G01*
X120120942Y-84789699D01*
X120264418Y-84885566D01*
X120386434Y-85007582D01*
X120482301Y-85151058D01*
X120548336Y-85310480D01*
X120548336Y-85310481D01*
X120577879Y-85459000D01*
X120582000Y-85479721D01*
X120582000Y-85652279D01*
X120548336Y-85821520D01*
X120482301Y-85980942D01*
X120386434Y-86124418D01*
X120264418Y-86246434D01*
X120120942Y-86342301D01*
X119961520Y-86408336D01*
X119876899Y-86425168D01*
X119792280Y-86442000D01*
X119619720Y-86442000D01*
X119450480Y-86408336D01*
X119291058Y-86342301D01*
X119147582Y-86246434D01*
X119025566Y-86124418D01*
X118929699Y-85980942D01*
X118863664Y-85821520D01*
X118830000Y-85652279D01*
X118830000Y-85479721D01*
X118834122Y-85459000D01*
X118863664Y-85310481D01*
X118863664Y-85310480D01*
X118929699Y-85151058D01*
X119025566Y-85007582D01*
X119147582Y-84885566D01*
X119291058Y-84789699D01*
X119450480Y-84723664D01*
X119535101Y-84706832D01*
X119619720Y-84690000D01*
X119792280Y-84690000D01*
X119961520Y-84723664D01*
X119961520Y-84723664D01*
G37*
G36*
X124461520Y-84723664D02*
G01*
X124620942Y-84789699D01*
X124764418Y-84885566D01*
X124886434Y-85007582D01*
X124982301Y-85151058D01*
X125048336Y-85310480D01*
X125048336Y-85310481D01*
X125077879Y-85459000D01*
X125082000Y-85479721D01*
X125082000Y-85652279D01*
X125048336Y-85821520D01*
X124982301Y-85980942D01*
X124886434Y-86124418D01*
X124764418Y-86246434D01*
X124620942Y-86342301D01*
X124461520Y-86408336D01*
X124376899Y-86425168D01*
X124292280Y-86442000D01*
X124119720Y-86442000D01*
X123950480Y-86408336D01*
X123791058Y-86342301D01*
X123647582Y-86246434D01*
X123525566Y-86124418D01*
X123429699Y-85980942D01*
X123363664Y-85821520D01*
X123330000Y-85652279D01*
X123330000Y-85479721D01*
X123334122Y-85459000D01*
X123363664Y-85310481D01*
X123363664Y-85310480D01*
X123429699Y-85151058D01*
X123525566Y-85007582D01*
X123647582Y-84885566D01*
X123791058Y-84789699D01*
X123950480Y-84723664D01*
X124035101Y-84706832D01*
X124119720Y-84690000D01*
X124292280Y-84690000D01*
X124461520Y-84723664D01*
X124461520Y-84723664D01*
G37*
G36*
X144382443Y-82925519D02*
G01*
X144448627Y-82932037D01*
X144618466Y-82983557D01*
X144774991Y-83067222D01*
X144810729Y-83096552D01*
X144912186Y-83179814D01*
X144995448Y-83281271D01*
X145024778Y-83317009D01*
X145108443Y-83473534D01*
X145159963Y-83643373D01*
X145177359Y-83820000D01*
X145159963Y-83996627D01*
X145108443Y-84166466D01*
X145024778Y-84322991D01*
X144995448Y-84358729D01*
X144912186Y-84460186D01*
X144810729Y-84543448D01*
X144774991Y-84572778D01*
X144618466Y-84656443D01*
X144448627Y-84707963D01*
X144382443Y-84714481D01*
X144316260Y-84721000D01*
X144227740Y-84721000D01*
X144161557Y-84714481D01*
X144095373Y-84707963D01*
X143925534Y-84656443D01*
X143769009Y-84572778D01*
X143733271Y-84543448D01*
X143631814Y-84460186D01*
X143548552Y-84358729D01*
X143519222Y-84322991D01*
X143435557Y-84166466D01*
X143384037Y-83996627D01*
X143366641Y-83820000D01*
X143384037Y-83643373D01*
X143435557Y-83473534D01*
X143519222Y-83317009D01*
X143548552Y-83281271D01*
X143631814Y-83179814D01*
X143733271Y-83096552D01*
X143769009Y-83067222D01*
X143925534Y-82983557D01*
X144095373Y-82932037D01*
X144161557Y-82925519D01*
X144227740Y-82919000D01*
X144316260Y-82919000D01*
X144382443Y-82925519D01*
X144382443Y-82925519D01*
G37*
G36*
X124376899Y-81706832D02*
G01*
X124461520Y-81723664D01*
X124620942Y-81789699D01*
X124764418Y-81885566D01*
X124886434Y-82007582D01*
X124982301Y-82151058D01*
X125048336Y-82310480D01*
X125082000Y-82479721D01*
X125082000Y-82652279D01*
X125048336Y-82821520D01*
X124982301Y-82980942D01*
X124886434Y-83124418D01*
X124764418Y-83246434D01*
X124620942Y-83342301D01*
X124461520Y-83408336D01*
X124376899Y-83425168D01*
X124292280Y-83442000D01*
X124119720Y-83442000D01*
X124035101Y-83425168D01*
X123950480Y-83408336D01*
X123791058Y-83342301D01*
X123647582Y-83246434D01*
X123525566Y-83124418D01*
X123429699Y-82980942D01*
X123363664Y-82821520D01*
X123330000Y-82652279D01*
X123330000Y-82479721D01*
X123363664Y-82310480D01*
X123429699Y-82151058D01*
X123525566Y-82007582D01*
X123647582Y-81885566D01*
X123791058Y-81789699D01*
X123950480Y-81723664D01*
X124035101Y-81706832D01*
X124119720Y-81690000D01*
X124292280Y-81690000D01*
X124376899Y-81706832D01*
X124376899Y-81706832D01*
G37*
G36*
X119876899Y-81706832D02*
G01*
X119961520Y-81723664D01*
X120120942Y-81789699D01*
X120264418Y-81885566D01*
X120386434Y-82007582D01*
X120482301Y-82151058D01*
X120548336Y-82310480D01*
X120582000Y-82479721D01*
X120582000Y-82652279D01*
X120548336Y-82821520D01*
X120482301Y-82980942D01*
X120386434Y-83124418D01*
X120264418Y-83246434D01*
X120120942Y-83342301D01*
X119961520Y-83408336D01*
X119876899Y-83425168D01*
X119792280Y-83442000D01*
X119619720Y-83442000D01*
X119535101Y-83425168D01*
X119450480Y-83408336D01*
X119291058Y-83342301D01*
X119147582Y-83246434D01*
X119025566Y-83124418D01*
X118929699Y-82980942D01*
X118863664Y-82821520D01*
X118830000Y-82652279D01*
X118830000Y-82479721D01*
X118863664Y-82310480D01*
X118929699Y-82151058D01*
X119025566Y-82007582D01*
X119147582Y-81885566D01*
X119291058Y-81789699D01*
X119450480Y-81723664D01*
X119535101Y-81706832D01*
X119619720Y-81690000D01*
X119792280Y-81690000D01*
X119876899Y-81706832D01*
X119876899Y-81706832D01*
G37*
G36*
X144382442Y-80385518D02*
G01*
X144448627Y-80392037D01*
X144618466Y-80443557D01*
X144774991Y-80527222D01*
X144810729Y-80556552D01*
X144912186Y-80639814D01*
X144995448Y-80741271D01*
X145024778Y-80777009D01*
X145108443Y-80933534D01*
X145159963Y-81103373D01*
X145177359Y-81280000D01*
X145159963Y-81456627D01*
X145108443Y-81626466D01*
X145024778Y-81782991D01*
X144995448Y-81818729D01*
X144912186Y-81920186D01*
X144810729Y-82003448D01*
X144774991Y-82032778D01*
X144618466Y-82116443D01*
X144448627Y-82167963D01*
X144382443Y-82174481D01*
X144316260Y-82181000D01*
X144227740Y-82181000D01*
X144161557Y-82174481D01*
X144095373Y-82167963D01*
X143925534Y-82116443D01*
X143769009Y-82032778D01*
X143733271Y-82003448D01*
X143631814Y-81920186D01*
X143548552Y-81818729D01*
X143519222Y-81782991D01*
X143435557Y-81626466D01*
X143384037Y-81456627D01*
X143366641Y-81280000D01*
X143384037Y-81103373D01*
X143435557Y-80933534D01*
X143519222Y-80777009D01*
X143548552Y-80741271D01*
X143631814Y-80639814D01*
X143733271Y-80556552D01*
X143769009Y-80527222D01*
X143925534Y-80443557D01*
X144095373Y-80392037D01*
X144161558Y-80385518D01*
X144227740Y-80379000D01*
X144316260Y-80379000D01*
X144382442Y-80385518D01*
X144382442Y-80385518D01*
G37*
G36*
X124461520Y-78623664D02*
G01*
X124620942Y-78689699D01*
X124764418Y-78785566D01*
X124886434Y-78907582D01*
X124982301Y-79051058D01*
X124996968Y-79086468D01*
X125048336Y-79210481D01*
X125082000Y-79379720D01*
X125082000Y-79552280D01*
X125066946Y-79627963D01*
X125048336Y-79721520D01*
X124982301Y-79880942D01*
X124886434Y-80024418D01*
X124764418Y-80146434D01*
X124620942Y-80242301D01*
X124461520Y-80308336D01*
X124376899Y-80325168D01*
X124292280Y-80342000D01*
X124119720Y-80342000D01*
X124035101Y-80325168D01*
X123950480Y-80308336D01*
X123791058Y-80242301D01*
X123647582Y-80146434D01*
X123525566Y-80024418D01*
X123429699Y-79880942D01*
X123363664Y-79721520D01*
X123345054Y-79627963D01*
X123330000Y-79552280D01*
X123330000Y-79379720D01*
X123363664Y-79210481D01*
X123415032Y-79086468D01*
X123429699Y-79051058D01*
X123525566Y-78907582D01*
X123647582Y-78785566D01*
X123791058Y-78689699D01*
X123950480Y-78623664D01*
X124119720Y-78590000D01*
X124292280Y-78590000D01*
X124461520Y-78623664D01*
X124461520Y-78623664D01*
G37*
G36*
X119961520Y-78623664D02*
G01*
X120120942Y-78689699D01*
X120264418Y-78785566D01*
X120386434Y-78907582D01*
X120482301Y-79051058D01*
X120496968Y-79086468D01*
X120548336Y-79210481D01*
X120582000Y-79379720D01*
X120582000Y-79552280D01*
X120566946Y-79627963D01*
X120548336Y-79721520D01*
X120482301Y-79880942D01*
X120386434Y-80024418D01*
X120264418Y-80146434D01*
X120120942Y-80242301D01*
X119961520Y-80308336D01*
X119876899Y-80325168D01*
X119792280Y-80342000D01*
X119619720Y-80342000D01*
X119535101Y-80325168D01*
X119450480Y-80308336D01*
X119291058Y-80242301D01*
X119147582Y-80146434D01*
X119025566Y-80024418D01*
X118929699Y-79880942D01*
X118863664Y-79721520D01*
X118845054Y-79627963D01*
X118830000Y-79552280D01*
X118830000Y-79379720D01*
X118863664Y-79210481D01*
X118915032Y-79086468D01*
X118929699Y-79051058D01*
X119025566Y-78907582D01*
X119147582Y-78785566D01*
X119291058Y-78689699D01*
X119450480Y-78623664D01*
X119619720Y-78590000D01*
X119792280Y-78590000D01*
X119961520Y-78623664D01*
X119961520Y-78623664D01*
G37*
G36*
X144382443Y-77845519D02*
G01*
X144448627Y-77852037D01*
X144618466Y-77903557D01*
X144774991Y-77987222D01*
X144810729Y-78016552D01*
X144912186Y-78099814D01*
X144995448Y-78201271D01*
X145024778Y-78237009D01*
X145108443Y-78393534D01*
X145159963Y-78563373D01*
X145177359Y-78740000D01*
X145159963Y-78916627D01*
X145108443Y-79086466D01*
X145024778Y-79242991D01*
X144995448Y-79278729D01*
X144912186Y-79380186D01*
X144810729Y-79463448D01*
X144774991Y-79492778D01*
X144618466Y-79576443D01*
X144448627Y-79627963D01*
X144382442Y-79634482D01*
X144316260Y-79641000D01*
X144227740Y-79641000D01*
X144161558Y-79634482D01*
X144095373Y-79627963D01*
X143925534Y-79576443D01*
X143769009Y-79492778D01*
X143733271Y-79463448D01*
X143631814Y-79380186D01*
X143548552Y-79278729D01*
X143519222Y-79242991D01*
X143435557Y-79086466D01*
X143384037Y-78916627D01*
X143366641Y-78740000D01*
X143384037Y-78563373D01*
X143435557Y-78393534D01*
X143519222Y-78237009D01*
X143548552Y-78201271D01*
X143631814Y-78099814D01*
X143733271Y-78016552D01*
X143769009Y-77987222D01*
X143925534Y-77903557D01*
X144095373Y-77852037D01*
X144161557Y-77845519D01*
X144227740Y-77839000D01*
X144316260Y-77839000D01*
X144382443Y-77845519D01*
X144382443Y-77845519D01*
G37*
G36*
X144382442Y-75305518D02*
G01*
X144448627Y-75312037D01*
X144618466Y-75363557D01*
X144774991Y-75447222D01*
X144810729Y-75476552D01*
X144912186Y-75559814D01*
X144995448Y-75661271D01*
X145024778Y-75697009D01*
X145108443Y-75853534D01*
X145159963Y-76023373D01*
X145177359Y-76200000D01*
X145159963Y-76376627D01*
X145108443Y-76546466D01*
X145024778Y-76702991D01*
X144995448Y-76738729D01*
X144912186Y-76840186D01*
X144810729Y-76923448D01*
X144774991Y-76952778D01*
X144618466Y-77036443D01*
X144448627Y-77087963D01*
X144382442Y-77094482D01*
X144316260Y-77101000D01*
X144227740Y-77101000D01*
X144161558Y-77094482D01*
X144095373Y-77087963D01*
X143925534Y-77036443D01*
X143769009Y-76952778D01*
X143733271Y-76923448D01*
X143631814Y-76840186D01*
X143548552Y-76738729D01*
X143519222Y-76702991D01*
X143435557Y-76546466D01*
X143384037Y-76376627D01*
X143366641Y-76200000D01*
X143384037Y-76023373D01*
X143435557Y-75853534D01*
X143519222Y-75697009D01*
X143548552Y-75661271D01*
X143631814Y-75559814D01*
X143733271Y-75476552D01*
X143769009Y-75447222D01*
X143925534Y-75363557D01*
X144095373Y-75312037D01*
X144161558Y-75305518D01*
X144227740Y-75299000D01*
X144316260Y-75299000D01*
X144382442Y-75305518D01*
X144382442Y-75305518D01*
G37*
G36*
X124461520Y-75123664D02*
G01*
X124620942Y-75189699D01*
X124764418Y-75285566D01*
X124886434Y-75407582D01*
X124982301Y-75551058D01*
X125048336Y-75710480D01*
X125082000Y-75879721D01*
X125082000Y-76052279D01*
X125048336Y-76221520D01*
X124982301Y-76380942D01*
X124886434Y-76524418D01*
X124764418Y-76646434D01*
X124620942Y-76742301D01*
X124461520Y-76808336D01*
X124376899Y-76825168D01*
X124292280Y-76842000D01*
X124119720Y-76842000D01*
X124035101Y-76825168D01*
X123950480Y-76808336D01*
X123791058Y-76742301D01*
X123647582Y-76646434D01*
X123525566Y-76524418D01*
X123429699Y-76380942D01*
X123363664Y-76221520D01*
X123330000Y-76052279D01*
X123330000Y-75879721D01*
X123363664Y-75710480D01*
X123429699Y-75551058D01*
X123525566Y-75407582D01*
X123647582Y-75285566D01*
X123791058Y-75189699D01*
X123950480Y-75123664D01*
X124119720Y-75090000D01*
X124292280Y-75090000D01*
X124461520Y-75123664D01*
X124461520Y-75123664D01*
G37*
G36*
X119961520Y-75123664D02*
G01*
X120120942Y-75189699D01*
X120264418Y-75285566D01*
X120386434Y-75407582D01*
X120482301Y-75551058D01*
X120548336Y-75710480D01*
X120582000Y-75879721D01*
X120582000Y-76052279D01*
X120548336Y-76221520D01*
X120482301Y-76380942D01*
X120386434Y-76524418D01*
X120264418Y-76646434D01*
X120120942Y-76742301D01*
X119961520Y-76808336D01*
X119876899Y-76825168D01*
X119792280Y-76842000D01*
X119619720Y-76842000D01*
X119535101Y-76825168D01*
X119450480Y-76808336D01*
X119291058Y-76742301D01*
X119147582Y-76646434D01*
X119025566Y-76524418D01*
X118929699Y-76380942D01*
X118863664Y-76221520D01*
X118830000Y-76052279D01*
X118830000Y-75879721D01*
X118863664Y-75710480D01*
X118929699Y-75551058D01*
X119025566Y-75407582D01*
X119147582Y-75285566D01*
X119291058Y-75189699D01*
X119450480Y-75123664D01*
X119619720Y-75090000D01*
X119792280Y-75090000D01*
X119961520Y-75123664D01*
X119961520Y-75123664D01*
G37*
G36*
X144382442Y-72765518D02*
G01*
X144448627Y-72772037D01*
X144618466Y-72823557D01*
X144774991Y-72907222D01*
X144810729Y-72936552D01*
X144912186Y-73019814D01*
X144995448Y-73121271D01*
X145024778Y-73157009D01*
X145108443Y-73313534D01*
X145159963Y-73483373D01*
X145177359Y-73660000D01*
X145159963Y-73836627D01*
X145108443Y-74006466D01*
X145024778Y-74162991D01*
X144995448Y-74198729D01*
X144912186Y-74300186D01*
X144810729Y-74383448D01*
X144774991Y-74412778D01*
X144618466Y-74496443D01*
X144448627Y-74547963D01*
X144382442Y-74554482D01*
X144316260Y-74561000D01*
X144227740Y-74561000D01*
X144161558Y-74554482D01*
X144095373Y-74547963D01*
X143925534Y-74496443D01*
X143769009Y-74412778D01*
X143733271Y-74383448D01*
X143631814Y-74300186D01*
X143548552Y-74198729D01*
X143519222Y-74162991D01*
X143435557Y-74006466D01*
X143384037Y-73836627D01*
X143366641Y-73660000D01*
X143384037Y-73483373D01*
X143435557Y-73313534D01*
X143519222Y-73157009D01*
X143548552Y-73121271D01*
X143631814Y-73019814D01*
X143733271Y-72936552D01*
X143769009Y-72907222D01*
X143925534Y-72823557D01*
X144095373Y-72772037D01*
X144161558Y-72765518D01*
X144227740Y-72759000D01*
X144316260Y-72759000D01*
X144382442Y-72765518D01*
X144382442Y-72765518D01*
G37*
G36*
X124376899Y-71606832D02*
G01*
X124461520Y-71623664D01*
X124620942Y-71689699D01*
X124764418Y-71785566D01*
X124886434Y-71907582D01*
X124982301Y-72051058D01*
X125048336Y-72210480D01*
X125082000Y-72379721D01*
X125082000Y-72552279D01*
X125048336Y-72721520D01*
X124982301Y-72880942D01*
X124886434Y-73024418D01*
X124764418Y-73146434D01*
X124620942Y-73242301D01*
X124461520Y-73308336D01*
X124376899Y-73325168D01*
X124292280Y-73342000D01*
X124119720Y-73342000D01*
X124035101Y-73325168D01*
X123950480Y-73308336D01*
X123791058Y-73242301D01*
X123647582Y-73146434D01*
X123525566Y-73024418D01*
X123429699Y-72880942D01*
X123363664Y-72721520D01*
X123330000Y-72552279D01*
X123330000Y-72379721D01*
X123363664Y-72210480D01*
X123429699Y-72051058D01*
X123525566Y-71907582D01*
X123647582Y-71785566D01*
X123791058Y-71689699D01*
X123950480Y-71623664D01*
X124035101Y-71606832D01*
X124119720Y-71590000D01*
X124292280Y-71590000D01*
X124376899Y-71606832D01*
X124376899Y-71606832D01*
G37*
G36*
X119876899Y-71606832D02*
G01*
X119961520Y-71623664D01*
X120120942Y-71689699D01*
X120264418Y-71785566D01*
X120386434Y-71907582D01*
X120482301Y-72051058D01*
X120548336Y-72210480D01*
X120582000Y-72379721D01*
X120582000Y-72552279D01*
X120548336Y-72721520D01*
X120482301Y-72880942D01*
X120386434Y-73024418D01*
X120264418Y-73146434D01*
X120120942Y-73242301D01*
X119961520Y-73308336D01*
X119876899Y-73325168D01*
X119792280Y-73342000D01*
X119619720Y-73342000D01*
X119535101Y-73325168D01*
X119450480Y-73308336D01*
X119291058Y-73242301D01*
X119147582Y-73146434D01*
X119025566Y-73024418D01*
X118929699Y-72880942D01*
X118863664Y-72721520D01*
X118830000Y-72552279D01*
X118830000Y-72379721D01*
X118863664Y-72210480D01*
X118929699Y-72051058D01*
X119025566Y-71907582D01*
X119147582Y-71785566D01*
X119291058Y-71689699D01*
X119450480Y-71623664D01*
X119535101Y-71606832D01*
X119619720Y-71590000D01*
X119792280Y-71590000D01*
X119876899Y-71606832D01*
X119876899Y-71606832D01*
G37*
G36*
X144382442Y-70225518D02*
G01*
X144448627Y-70232037D01*
X144618466Y-70283557D01*
X144774991Y-70367222D01*
X144810729Y-70396552D01*
X144912186Y-70479814D01*
X144995448Y-70581271D01*
X145024778Y-70617009D01*
X145108443Y-70773534D01*
X145159963Y-70943373D01*
X145177359Y-71120000D01*
X145159963Y-71296627D01*
X145108443Y-71466466D01*
X145024778Y-71622991D01*
X144995448Y-71658729D01*
X144912186Y-71760186D01*
X144810729Y-71843448D01*
X144774991Y-71872778D01*
X144618466Y-71956443D01*
X144448627Y-72007963D01*
X144382443Y-72014481D01*
X144316260Y-72021000D01*
X144227740Y-72021000D01*
X144161557Y-72014481D01*
X144095373Y-72007963D01*
X143925534Y-71956443D01*
X143769009Y-71872778D01*
X143733271Y-71843448D01*
X143631814Y-71760186D01*
X143548552Y-71658729D01*
X143519222Y-71622991D01*
X143435557Y-71466466D01*
X143384037Y-71296627D01*
X143366641Y-71120000D01*
X143384037Y-70943373D01*
X143435557Y-70773534D01*
X143519222Y-70617009D01*
X143548552Y-70581271D01*
X143631814Y-70479814D01*
X143733271Y-70396552D01*
X143769009Y-70367222D01*
X143925534Y-70283557D01*
X144095373Y-70232037D01*
X144161558Y-70225518D01*
X144227740Y-70219000D01*
X144316260Y-70219000D01*
X144382442Y-70225518D01*
X144382442Y-70225518D01*
G37*
G36*
X114528062Y-64791419D02*
G01*
X114786560Y-64842837D01*
X114988282Y-64926393D01*
X115273560Y-65044559D01*
X115273561Y-65044560D01*
X115711851Y-65337415D01*
X116084585Y-65710149D01*
X116280264Y-66003005D01*
X116377441Y-66148440D01*
X116495607Y-66433718D01*
X116579163Y-66635440D01*
X116682000Y-67152437D01*
X116682000Y-67679563D01*
X116579163Y-68196560D01*
X116495607Y-68398282D01*
X116377441Y-68683560D01*
X116328619Y-68756627D01*
X116084585Y-69121851D01*
X115711851Y-69494585D01*
X115418995Y-69690264D01*
X115273560Y-69787441D01*
X114988282Y-69905607D01*
X114786560Y-69989163D01*
X114528062Y-70040581D01*
X114269564Y-70092000D01*
X113742436Y-70092000D01*
X113483938Y-70040581D01*
X113225440Y-69989163D01*
X113023718Y-69905607D01*
X112738440Y-69787441D01*
X112593005Y-69690264D01*
X112300149Y-69494585D01*
X111927415Y-69121851D01*
X111683381Y-68756627D01*
X111634559Y-68683560D01*
X111516393Y-68398282D01*
X111432837Y-68196560D01*
X111330000Y-67679563D01*
X111330000Y-67152437D01*
X111432837Y-66635440D01*
X111516393Y-66433718D01*
X111634559Y-66148440D01*
X111731736Y-66003005D01*
X111927415Y-65710149D01*
X112300149Y-65337415D01*
X112738439Y-65044560D01*
X112738440Y-65044559D01*
X113023718Y-64926393D01*
X113225440Y-64842837D01*
X113483938Y-64791419D01*
X113742436Y-64740000D01*
X114269564Y-64740000D01*
X114528062Y-64791419D01*
X114528062Y-64791419D01*
G37*
G36*
X144382443Y-67685519D02*
G01*
X144448627Y-67692037D01*
X144618466Y-67743557D01*
X144774991Y-67827222D01*
X144810729Y-67856552D01*
X144912186Y-67939814D01*
X144995448Y-68041271D01*
X145024778Y-68077009D01*
X145108443Y-68233534D01*
X145159963Y-68403373D01*
X145177359Y-68580000D01*
X145159963Y-68756627D01*
X145108443Y-68926466D01*
X145024778Y-69082991D01*
X144995448Y-69118729D01*
X144912186Y-69220186D01*
X144810729Y-69303448D01*
X144774991Y-69332778D01*
X144618466Y-69416443D01*
X144448627Y-69467963D01*
X144382442Y-69474482D01*
X144316260Y-69481000D01*
X144227740Y-69481000D01*
X144161558Y-69474482D01*
X144095373Y-69467963D01*
X143925534Y-69416443D01*
X143769009Y-69332778D01*
X143733271Y-69303448D01*
X143631814Y-69220186D01*
X143548552Y-69118729D01*
X143519222Y-69082991D01*
X143435557Y-68926466D01*
X143384037Y-68756627D01*
X143366641Y-68580000D01*
X143384037Y-68403373D01*
X143435557Y-68233534D01*
X143519222Y-68077009D01*
X143548552Y-68041271D01*
X143631814Y-67939814D01*
X143733271Y-67856552D01*
X143769009Y-67827222D01*
X143925534Y-67743557D01*
X144095373Y-67692037D01*
X144161557Y-67685519D01*
X144227740Y-67679000D01*
X144316260Y-67679000D01*
X144382443Y-67685519D01*
X144382443Y-67685519D01*
G37*
G36*
X145173000Y-66941000D02*
G01*
X143371000Y-66941000D01*
X143371000Y-65139000D01*
X145173000Y-65139000D01*
X145173000Y-66941000D01*
X145173000Y-66941000D01*
G37*
M02*
