G04 #@! TF.GenerationSoftware,KiCad,Pcbnew,(5.1.4-0-10_14)*
G04 #@! TF.CreationDate,2020-03-30T10:01:39+11:00*
G04 #@! TF.ProjectId,48-pin breakout,34382d70-696e-4206-9272-65616b6f7574,rev?*
G04 #@! TF.SameCoordinates,Original*
G04 #@! TF.FileFunction,Copper,L1,Top*
G04 #@! TF.FilePolarity,Positive*
%FSLAX46Y46*%
G04 Gerber Fmt 4.6, Leading zero omitted, Abs format (unit mm)*
G04 Created by KiCad (PCBNEW (5.1.4-0-10_14)) date 2020-03-30 10:01:39*
%MOMM*%
%LPD*%
G04 APERTURE LIST*
%ADD10R,1.700000X1.700000*%
%ADD11O,1.700000X1.700000*%
%ADD12C,1.650000*%
%ADD13C,5.250000*%
%ADD14R,2.300000X2.300000*%
%ADD15C,2.300000*%
%ADD16C,0.800000*%
%ADD17C,0.500000*%
%ADD18C,0.250000*%
%ADD19C,0.750000*%
%ADD20C,0.254000*%
G04 APERTURE END LIST*
D10*
X144272000Y-66040000D03*
D11*
X144272000Y-68580000D03*
X144272000Y-71120000D03*
X144272000Y-73660000D03*
X144272000Y-76200000D03*
X144272000Y-78740000D03*
X144272000Y-81280000D03*
X144272000Y-83820000D03*
X144272000Y-86360000D03*
X144272000Y-88900000D03*
X144272000Y-91440000D03*
X144272000Y-93980000D03*
X144526000Y-151130000D03*
X144526000Y-148590000D03*
X144526000Y-146050000D03*
X144526000Y-143510000D03*
X144526000Y-140970000D03*
X144526000Y-138430000D03*
X144526000Y-135890000D03*
X144526000Y-133350000D03*
X144526000Y-130810000D03*
X144526000Y-128270000D03*
X144526000Y-125730000D03*
D10*
X144526000Y-123190000D03*
D12*
X124206000Y-147066000D03*
X124206000Y-143566000D03*
X124206000Y-140466000D03*
X124206000Y-137466000D03*
X124206000Y-134466000D03*
X124206000Y-131466000D03*
X124206000Y-128466000D03*
X124206000Y-125466000D03*
X124206000Y-122466000D03*
X124206000Y-119466000D03*
X124206000Y-116366000D03*
X124206000Y-110166000D03*
X124206000Y-106666000D03*
X124206000Y-103566000D03*
X124206000Y-100566000D03*
X124206000Y-97566000D03*
X124206000Y-94566000D03*
X124206000Y-91566000D03*
X124206000Y-88566000D03*
X124206000Y-85566000D03*
X124206000Y-82566000D03*
X124206000Y-79466000D03*
X124206000Y-75966000D03*
X124206000Y-72466000D03*
X119706000Y-147066000D03*
X119706000Y-143566000D03*
X119706000Y-140466000D03*
X119706000Y-137466000D03*
X119706000Y-134466000D03*
X119706000Y-131466000D03*
X119706000Y-128466000D03*
X119706000Y-125466000D03*
X119706000Y-122466000D03*
X119706000Y-119466000D03*
X119706000Y-116366000D03*
X119706000Y-110166000D03*
X119706000Y-106666000D03*
X119706000Y-103566000D03*
X119706000Y-100566000D03*
X119706000Y-97566000D03*
X119706000Y-94566000D03*
X119706000Y-91566000D03*
X119706000Y-88566000D03*
X119706000Y-85566000D03*
X119706000Y-82566000D03*
X119706000Y-79466000D03*
X119706000Y-75966000D03*
X119706000Y-72466000D03*
D13*
X114006000Y-67416000D03*
X114006000Y-113266000D03*
X114006000Y-152116000D03*
D14*
X144780000Y-99695000D03*
D15*
X144780000Y-109855000D03*
X144780000Y-117475000D03*
X152400000Y-114935000D03*
X152400000Y-99695000D03*
D16*
X131445000Y-133350000D03*
X137160000Y-110490000D03*
X139065000Y-133350000D03*
X140970000Y-116205000D03*
D17*
X135890000Y-70485000D02*
X121687000Y-70485000D01*
X121687000Y-70485000D02*
X119706000Y-72466000D01*
X140335000Y-66040000D02*
X135890000Y-70485000D01*
X144272000Y-66040000D02*
X140335000Y-66040000D01*
X137719000Y-72466000D02*
X124206000Y-72466000D01*
X141605000Y-68580000D02*
X137719000Y-72466000D01*
X144272000Y-68580000D02*
X141605000Y-68580000D01*
X127635000Y-77470000D02*
X122868726Y-77470000D01*
X138430000Y-75565000D02*
X129540000Y-75565000D01*
X142875000Y-71120000D02*
X138430000Y-75565000D01*
X120872726Y-79466000D02*
X119706000Y-79466000D01*
X122868726Y-77470000D02*
X120872726Y-79466000D01*
X129540000Y-75565000D02*
X127635000Y-77470000D01*
X144272000Y-71120000D02*
X142875000Y-71120000D01*
X128814000Y-79466000D02*
X124206000Y-79466000D01*
X130810000Y-77470000D02*
X128814000Y-79466000D01*
X140462000Y-77470000D02*
X130810000Y-77470000D01*
X144272000Y-73660000D02*
X140462000Y-77470000D01*
D18*
X132872000Y-88900000D02*
X124206000Y-97566000D01*
X144272000Y-88900000D02*
X132872000Y-88900000D01*
D17*
X120530999Y-121641001D02*
X119706000Y-122466000D01*
X120981001Y-121190999D02*
X120530999Y-121641001D01*
X139986999Y-121190999D02*
X120981001Y-121190999D01*
X144526000Y-125730000D02*
X139986999Y-121190999D01*
D19*
X123770000Y-151130000D02*
X119706000Y-147066000D01*
X144526000Y-151130000D02*
X123770000Y-151130000D01*
X125730000Y-148590000D02*
X144526000Y-148590000D01*
X124206000Y-147066000D02*
X125730000Y-148590000D01*
D18*
X133792000Y-93980000D02*
X124206000Y-103566000D01*
X144272000Y-93980000D02*
X133792000Y-93980000D01*
X133332000Y-91440000D02*
X124206000Y-100566000D01*
X144272000Y-91440000D02*
X133332000Y-91440000D01*
X122706000Y-91566000D02*
X119706000Y-94566000D01*
X124206000Y-91566000D02*
X122706000Y-91566000D01*
X127509000Y-91566000D02*
X124206000Y-91566000D01*
X132715000Y-86360000D02*
X127509000Y-91566000D01*
X144272000Y-86360000D02*
X132715000Y-86360000D01*
X120530999Y-90741001D02*
X119706000Y-91566000D01*
X120856001Y-90415999D02*
X120530999Y-90741001D01*
X126054296Y-90415999D02*
X120856001Y-90415999D01*
X132650295Y-83820000D02*
X126054296Y-90415999D01*
X144272000Y-83820000D02*
X132650295Y-83820000D01*
X120856001Y-87415999D02*
X120530999Y-87741001D01*
X126579001Y-87415999D02*
X120856001Y-87415999D01*
X120530999Y-87741001D02*
X119706000Y-88566000D01*
X132715000Y-81280000D02*
X126579001Y-87415999D01*
X144272000Y-81280000D02*
X132715000Y-81280000D01*
X125889000Y-85566000D02*
X124206000Y-85566000D01*
X132715000Y-78740000D02*
X125889000Y-85566000D01*
X144272000Y-78740000D02*
X132715000Y-78740000D01*
X120530999Y-115541001D02*
X119706000Y-116366000D01*
X135451999Y-115215999D02*
X120856001Y-115215999D01*
X143426000Y-123190000D02*
X135451999Y-115215999D01*
X120856001Y-115215999D02*
X120530999Y-115541001D01*
X144526000Y-123190000D02*
X143426000Y-123190000D01*
X132790000Y-146050000D02*
X124206000Y-137466000D01*
X144526000Y-146050000D02*
X132790000Y-146050000D01*
X121282000Y-135890000D02*
X120530999Y-136641001D01*
X125095000Y-135890000D02*
X121282000Y-135890000D01*
X133350000Y-144145000D02*
X125095000Y-135890000D01*
X120530999Y-136641001D02*
X119706000Y-137466000D01*
X143891000Y-144145000D02*
X133350000Y-144145000D01*
X144526000Y-143510000D02*
X143891000Y-144145000D01*
D19*
X144780000Y-109855000D02*
X144780000Y-100001766D01*
X119380000Y-113665000D02*
X140970000Y-113665000D01*
X115570000Y-117475000D02*
X119380000Y-113665000D01*
X115570000Y-142930000D02*
X115570000Y-117475000D01*
X140970000Y-113665000D02*
X144780000Y-109855000D01*
X119706000Y-147066000D02*
X115570000Y-142930000D01*
D17*
X118881001Y-83390999D02*
X119706000Y-82566000D01*
X117475000Y-84797000D02*
X118881001Y-83390999D01*
X117475000Y-90170000D02*
X117475000Y-84797000D01*
D18*
X119922795Y-90170000D02*
X117475000Y-90170000D01*
X121526795Y-88566000D02*
X119922795Y-90170000D01*
X124206000Y-88566000D02*
X121526795Y-88566000D01*
D19*
X149225000Y-109983000D02*
X149225000Y-102870000D01*
X149225000Y-102870000D02*
X152400000Y-99695000D01*
X147320000Y-111888000D02*
X149225000Y-109983000D01*
X147320000Y-125476000D02*
X147320000Y-111888000D01*
X144526000Y-128270000D02*
X147320000Y-125476000D01*
D17*
X117475000Y-107315000D02*
X117475000Y-90170000D01*
X118745000Y-108585000D02*
X117475000Y-107315000D01*
X152400000Y-97790000D02*
X151765000Y-97155000D01*
X132271000Y-108585000D02*
X118745000Y-108585000D01*
X143701000Y-97155000D02*
X132271000Y-108585000D01*
X151765000Y-97155000D02*
X143701000Y-97155000D01*
X152400000Y-99695000D02*
X152400000Y-97790000D01*
D18*
X120530999Y-129290999D02*
X119706000Y-128466000D01*
X125095000Y-130175000D02*
X121415000Y-130175000D01*
X127000000Y-132080000D02*
X125095000Y-130175000D01*
X133985000Y-142240000D02*
X127000000Y-135255000D01*
X143256000Y-142240000D02*
X133985000Y-142240000D01*
X121415000Y-130175000D02*
X120530999Y-129290999D01*
X127000000Y-135255000D02*
X127000000Y-132080000D01*
X144526000Y-140970000D02*
X143256000Y-142240000D01*
D20*
G36*
X157353000Y-62282606D02*
G01*
X157353000Y-154887394D01*
X154887394Y-157353000D01*
X108002606Y-157353000D01*
X106807000Y-156157394D01*
X106807000Y-151794918D01*
X110746000Y-151794918D01*
X110746000Y-152437082D01*
X110871280Y-153066907D01*
X111117025Y-153660189D01*
X111473792Y-154194129D01*
X111927871Y-154648208D01*
X112461811Y-155004975D01*
X113055093Y-155250720D01*
X113684918Y-155376000D01*
X114327082Y-155376000D01*
X114956907Y-155250720D01*
X115550189Y-155004975D01*
X116084129Y-154648208D01*
X116538208Y-154194129D01*
X116894975Y-153660189D01*
X117140720Y-153066907D01*
X117266000Y-152437082D01*
X117266000Y-151794918D01*
X117140720Y-151165093D01*
X116894975Y-150571811D01*
X116538208Y-150037871D01*
X116084129Y-149583792D01*
X115550189Y-149227025D01*
X114956907Y-148981280D01*
X114327082Y-148856000D01*
X113684918Y-148856000D01*
X113055093Y-148981280D01*
X112461811Y-149227025D01*
X111927871Y-149583792D01*
X111473792Y-150037871D01*
X111117025Y-150571811D01*
X110871280Y-151165093D01*
X110746000Y-151794918D01*
X106807000Y-151794918D01*
X106807000Y-112944918D01*
X110746000Y-112944918D01*
X110746000Y-113587082D01*
X110871280Y-114216907D01*
X111117025Y-114810189D01*
X111473792Y-115344129D01*
X111927871Y-115798208D01*
X112461811Y-116154975D01*
X113055093Y-116400720D01*
X113684918Y-116526000D01*
X114327082Y-116526000D01*
X114956907Y-116400720D01*
X115399078Y-116217567D01*
X114890901Y-116725744D01*
X114852368Y-116757367D01*
X114820745Y-116795900D01*
X114820744Y-116795901D01*
X114726154Y-116911160D01*
X114632368Y-117086621D01*
X114574615Y-117277006D01*
X114555114Y-117475000D01*
X114560001Y-117524618D01*
X114560000Y-142880392D01*
X114555114Y-142930000D01*
X114560000Y-142979607D01*
X114574615Y-143127993D01*
X114632368Y-143318379D01*
X114726153Y-143493840D01*
X114852367Y-143647633D01*
X114890906Y-143679261D01*
X118246000Y-147034355D01*
X118246000Y-147209797D01*
X118302107Y-147491866D01*
X118412165Y-147757569D01*
X118571944Y-147996696D01*
X118775304Y-148200056D01*
X119014431Y-148359835D01*
X119280134Y-148469893D01*
X119562203Y-148526000D01*
X119737645Y-148526000D01*
X123020744Y-151809100D01*
X123052367Y-151847633D01*
X123206160Y-151973847D01*
X123381620Y-152067632D01*
X123572005Y-152125385D01*
X123770000Y-152144886D01*
X123819608Y-152140000D01*
X143433825Y-152140000D01*
X143470866Y-152185134D01*
X143696986Y-152370706D01*
X143954966Y-152508599D01*
X144234889Y-152593513D01*
X144453050Y-152615000D01*
X144598950Y-152615000D01*
X144817111Y-152593513D01*
X145097034Y-152508599D01*
X145355014Y-152370706D01*
X145581134Y-152185134D01*
X145766706Y-151959014D01*
X145904599Y-151701034D01*
X145989513Y-151421111D01*
X146018185Y-151130000D01*
X145989513Y-150838889D01*
X145904599Y-150558966D01*
X145766706Y-150300986D01*
X145581134Y-150074866D01*
X145355014Y-149889294D01*
X145300209Y-149860000D01*
X145355014Y-149830706D01*
X145581134Y-149645134D01*
X145766706Y-149419014D01*
X145904599Y-149161034D01*
X145989513Y-148881111D01*
X146018185Y-148590000D01*
X145989513Y-148298889D01*
X145904599Y-148018966D01*
X145766706Y-147760986D01*
X145581134Y-147534866D01*
X145355014Y-147349294D01*
X145300209Y-147320000D01*
X145355014Y-147290706D01*
X145581134Y-147105134D01*
X145766706Y-146879014D01*
X145904599Y-146621034D01*
X145989513Y-146341111D01*
X146018185Y-146050000D01*
X145989513Y-145758889D01*
X145904599Y-145478966D01*
X145766706Y-145220986D01*
X145581134Y-144994866D01*
X145355014Y-144809294D01*
X145300209Y-144780000D01*
X145355014Y-144750706D01*
X145581134Y-144565134D01*
X145766706Y-144339014D01*
X145904599Y-144081034D01*
X145989513Y-143801111D01*
X146018185Y-143510000D01*
X145989513Y-143218889D01*
X145904599Y-142938966D01*
X145766706Y-142680986D01*
X145581134Y-142454866D01*
X145355014Y-142269294D01*
X145300209Y-142240000D01*
X145355014Y-142210706D01*
X145581134Y-142025134D01*
X145766706Y-141799014D01*
X145904599Y-141541034D01*
X145989513Y-141261111D01*
X146018185Y-140970000D01*
X145989513Y-140678889D01*
X145904599Y-140398966D01*
X145766706Y-140140986D01*
X145581134Y-139914866D01*
X145355014Y-139729294D01*
X145290477Y-139694799D01*
X145407355Y-139625178D01*
X145623588Y-139430269D01*
X145797641Y-139196920D01*
X145922825Y-138934099D01*
X145967476Y-138786890D01*
X145846155Y-138557000D01*
X144653000Y-138557000D01*
X144653000Y-138577000D01*
X144399000Y-138577000D01*
X144399000Y-138557000D01*
X143205845Y-138557000D01*
X143084524Y-138786890D01*
X143129175Y-138934099D01*
X143254359Y-139196920D01*
X143428412Y-139430269D01*
X143644645Y-139625178D01*
X143761523Y-139694799D01*
X143696986Y-139729294D01*
X143470866Y-139914866D01*
X143285294Y-140140986D01*
X143147401Y-140398966D01*
X143062487Y-140678889D01*
X143033815Y-140970000D01*
X143062487Y-141261111D01*
X143085203Y-141335996D01*
X142941199Y-141480000D01*
X134299802Y-141480000D01*
X129066692Y-136246890D01*
X143084524Y-136246890D01*
X143129175Y-136394099D01*
X143254359Y-136656920D01*
X143428412Y-136890269D01*
X143644645Y-137085178D01*
X143770255Y-137160000D01*
X143644645Y-137234822D01*
X143428412Y-137429731D01*
X143254359Y-137663080D01*
X143129175Y-137925901D01*
X143084524Y-138073110D01*
X143205845Y-138303000D01*
X144399000Y-138303000D01*
X144399000Y-136017000D01*
X144653000Y-136017000D01*
X144653000Y-138303000D01*
X145846155Y-138303000D01*
X145967476Y-138073110D01*
X145922825Y-137925901D01*
X145797641Y-137663080D01*
X145623588Y-137429731D01*
X145407355Y-137234822D01*
X145281745Y-137160000D01*
X145407355Y-137085178D01*
X145623588Y-136890269D01*
X145797641Y-136656920D01*
X145922825Y-136394099D01*
X145967476Y-136246890D01*
X145846155Y-136017000D01*
X144653000Y-136017000D01*
X144399000Y-136017000D01*
X143205845Y-136017000D01*
X143084524Y-136246890D01*
X129066692Y-136246890D01*
X127760000Y-134940199D01*
X127760000Y-133706890D01*
X143084524Y-133706890D01*
X143129175Y-133854099D01*
X143254359Y-134116920D01*
X143428412Y-134350269D01*
X143644645Y-134545178D01*
X143770255Y-134620000D01*
X143644645Y-134694822D01*
X143428412Y-134889731D01*
X143254359Y-135123080D01*
X143129175Y-135385901D01*
X143084524Y-135533110D01*
X143205845Y-135763000D01*
X144399000Y-135763000D01*
X144399000Y-133477000D01*
X144653000Y-133477000D01*
X144653000Y-135763000D01*
X145846155Y-135763000D01*
X145967476Y-135533110D01*
X145922825Y-135385901D01*
X145797641Y-135123080D01*
X145623588Y-134889731D01*
X145407355Y-134694822D01*
X145281745Y-134620000D01*
X145407355Y-134545178D01*
X145623588Y-134350269D01*
X145797641Y-134116920D01*
X145922825Y-133854099D01*
X145967476Y-133706890D01*
X145846155Y-133477000D01*
X144653000Y-133477000D01*
X144399000Y-133477000D01*
X143205845Y-133477000D01*
X143084524Y-133706890D01*
X127760000Y-133706890D01*
X127760000Y-132117323D01*
X127763676Y-132080000D01*
X127760000Y-132042677D01*
X127760000Y-132042667D01*
X127749003Y-131931014D01*
X127705546Y-131787753D01*
X127634974Y-131655724D01*
X127540001Y-131539999D01*
X127511003Y-131516201D01*
X127161692Y-131166890D01*
X143084524Y-131166890D01*
X143129175Y-131314099D01*
X143254359Y-131576920D01*
X143428412Y-131810269D01*
X143644645Y-132005178D01*
X143770255Y-132080000D01*
X143644645Y-132154822D01*
X143428412Y-132349731D01*
X143254359Y-132583080D01*
X143129175Y-132845901D01*
X143084524Y-132993110D01*
X143205845Y-133223000D01*
X144399000Y-133223000D01*
X144399000Y-130937000D01*
X144653000Y-130937000D01*
X144653000Y-133223000D01*
X145846155Y-133223000D01*
X145967476Y-132993110D01*
X145922825Y-132845901D01*
X145797641Y-132583080D01*
X145623588Y-132349731D01*
X145407355Y-132154822D01*
X145281745Y-132080000D01*
X145407355Y-132005178D01*
X145623588Y-131810269D01*
X145797641Y-131576920D01*
X145922825Y-131314099D01*
X145967476Y-131166890D01*
X145846155Y-130937000D01*
X144653000Y-130937000D01*
X144399000Y-130937000D01*
X143205845Y-130937000D01*
X143084524Y-131166890D01*
X127161692Y-131166890D01*
X125658804Y-129664003D01*
X125635001Y-129634999D01*
X125519276Y-129540026D01*
X125387247Y-129469454D01*
X125295215Y-129441537D01*
X125340056Y-129396696D01*
X125499835Y-129157569D01*
X125609893Y-128891866D01*
X125666000Y-128609797D01*
X125666000Y-128322203D01*
X125609893Y-128040134D01*
X125499835Y-127774431D01*
X125340056Y-127535304D01*
X125136696Y-127331944D01*
X124897569Y-127172165D01*
X124631866Y-127062107D01*
X124349797Y-127006000D01*
X124062203Y-127006000D01*
X123780134Y-127062107D01*
X123514431Y-127172165D01*
X123275304Y-127331944D01*
X123071944Y-127535304D01*
X122912165Y-127774431D01*
X122802107Y-128040134D01*
X122746000Y-128322203D01*
X122746000Y-128609797D01*
X122802107Y-128891866D01*
X122912165Y-129157569D01*
X123071944Y-129396696D01*
X123090248Y-129415000D01*
X121729802Y-129415000D01*
X121125949Y-128811148D01*
X121166000Y-128609797D01*
X121166000Y-128322203D01*
X121109893Y-128040134D01*
X120999835Y-127774431D01*
X120840056Y-127535304D01*
X120636696Y-127331944D01*
X120397569Y-127172165D01*
X120131866Y-127062107D01*
X119849797Y-127006000D01*
X119562203Y-127006000D01*
X119280134Y-127062107D01*
X119014431Y-127172165D01*
X118775304Y-127331944D01*
X118571944Y-127535304D01*
X118412165Y-127774431D01*
X118302107Y-128040134D01*
X118246000Y-128322203D01*
X118246000Y-128609797D01*
X118302107Y-128891866D01*
X118412165Y-129157569D01*
X118571944Y-129396696D01*
X118775304Y-129600056D01*
X119014431Y-129759835D01*
X119280134Y-129869893D01*
X119562203Y-129926000D01*
X119849797Y-129926000D01*
X120051148Y-129885949D01*
X120294792Y-130129593D01*
X120131866Y-130062107D01*
X119849797Y-130006000D01*
X119562203Y-130006000D01*
X119280134Y-130062107D01*
X119014431Y-130172165D01*
X118775304Y-130331944D01*
X118571944Y-130535304D01*
X118412165Y-130774431D01*
X118302107Y-131040134D01*
X118246000Y-131322203D01*
X118246000Y-131609797D01*
X118302107Y-131891866D01*
X118412165Y-132157569D01*
X118571944Y-132396696D01*
X118775304Y-132600056D01*
X119014431Y-132759835D01*
X119280134Y-132869893D01*
X119562203Y-132926000D01*
X119849797Y-132926000D01*
X120131866Y-132869893D01*
X120397569Y-132759835D01*
X120636696Y-132600056D01*
X120840056Y-132396696D01*
X120999835Y-132157569D01*
X121109893Y-131891866D01*
X121166000Y-131609797D01*
X121166000Y-131322203D01*
X121109893Y-131040134D01*
X121021335Y-130826336D01*
X121122753Y-130880546D01*
X121266014Y-130924003D01*
X121377667Y-130935000D01*
X121377676Y-130935000D01*
X121414999Y-130938676D01*
X121452322Y-130935000D01*
X122845655Y-130935000D01*
X122802107Y-131040134D01*
X122746000Y-131322203D01*
X122746000Y-131609797D01*
X122802107Y-131891866D01*
X122912165Y-132157569D01*
X123071944Y-132396696D01*
X123275304Y-132600056D01*
X123514431Y-132759835D01*
X123780134Y-132869893D01*
X124062203Y-132926000D01*
X124349797Y-132926000D01*
X124631866Y-132869893D01*
X124897569Y-132759835D01*
X125136696Y-132600056D01*
X125340056Y-132396696D01*
X125499835Y-132157569D01*
X125609893Y-131891866D01*
X125630992Y-131785794D01*
X126240001Y-132394803D01*
X126240000Y-135217677D01*
X126236324Y-135255000D01*
X126240000Y-135292322D01*
X126240000Y-135292332D01*
X126250997Y-135403985D01*
X126290166Y-135533110D01*
X126294454Y-135547246D01*
X126365026Y-135679276D01*
X126404871Y-135727826D01*
X126459999Y-135795001D01*
X126489003Y-135818804D01*
X133421201Y-142751003D01*
X133444999Y-142780001D01*
X133560724Y-142874974D01*
X133692753Y-142945546D01*
X133836014Y-142989003D01*
X133947667Y-143000000D01*
X133947675Y-143000000D01*
X133985000Y-143003676D01*
X134022325Y-143000000D01*
X143128886Y-143000000D01*
X143062487Y-143218889D01*
X143046126Y-143385000D01*
X133664802Y-143385000D01*
X125658804Y-135379003D01*
X125635001Y-135349999D01*
X125519276Y-135255026D01*
X125456969Y-135221722D01*
X125499835Y-135157569D01*
X125609893Y-134891866D01*
X125666000Y-134609797D01*
X125666000Y-134322203D01*
X125609893Y-134040134D01*
X125499835Y-133774431D01*
X125340056Y-133535304D01*
X125136696Y-133331944D01*
X124897569Y-133172165D01*
X124631866Y-133062107D01*
X124349797Y-133006000D01*
X124062203Y-133006000D01*
X123780134Y-133062107D01*
X123514431Y-133172165D01*
X123275304Y-133331944D01*
X123071944Y-133535304D01*
X122912165Y-133774431D01*
X122802107Y-134040134D01*
X122746000Y-134322203D01*
X122746000Y-134609797D01*
X122802107Y-134891866D01*
X122900746Y-135130000D01*
X121319323Y-135130000D01*
X121282000Y-135126324D01*
X121244677Y-135130000D01*
X121244667Y-135130000D01*
X121133014Y-135140997D01*
X120989753Y-135184454D01*
X120977492Y-135191008D01*
X120999835Y-135157569D01*
X121109893Y-134891866D01*
X121166000Y-134609797D01*
X121166000Y-134322203D01*
X121109893Y-134040134D01*
X120999835Y-133774431D01*
X120840056Y-133535304D01*
X120636696Y-133331944D01*
X120397569Y-133172165D01*
X120131866Y-133062107D01*
X119849797Y-133006000D01*
X119562203Y-133006000D01*
X119280134Y-133062107D01*
X119014431Y-133172165D01*
X118775304Y-133331944D01*
X118571944Y-133535304D01*
X118412165Y-133774431D01*
X118302107Y-134040134D01*
X118246000Y-134322203D01*
X118246000Y-134609797D01*
X118302107Y-134891866D01*
X118412165Y-135157569D01*
X118571944Y-135396696D01*
X118775304Y-135600056D01*
X119014431Y-135759835D01*
X119280134Y-135869893D01*
X119562203Y-135926000D01*
X119849797Y-135926000D01*
X120131866Y-135869893D01*
X120294792Y-135802407D01*
X120051148Y-136046051D01*
X119849797Y-136006000D01*
X119562203Y-136006000D01*
X119280134Y-136062107D01*
X119014431Y-136172165D01*
X118775304Y-136331944D01*
X118571944Y-136535304D01*
X118412165Y-136774431D01*
X118302107Y-137040134D01*
X118246000Y-137322203D01*
X118246000Y-137609797D01*
X118302107Y-137891866D01*
X118412165Y-138157569D01*
X118571944Y-138396696D01*
X118775304Y-138600056D01*
X119014431Y-138759835D01*
X119280134Y-138869893D01*
X119562203Y-138926000D01*
X119849797Y-138926000D01*
X120131866Y-138869893D01*
X120397569Y-138759835D01*
X120636696Y-138600056D01*
X120840056Y-138396696D01*
X120999835Y-138157569D01*
X121109893Y-137891866D01*
X121166000Y-137609797D01*
X121166000Y-137322203D01*
X121125949Y-137120852D01*
X121596802Y-136650000D01*
X122995307Y-136650000D01*
X122912165Y-136774431D01*
X122802107Y-137040134D01*
X122746000Y-137322203D01*
X122746000Y-137609797D01*
X122802107Y-137891866D01*
X122912165Y-138157569D01*
X123071944Y-138396696D01*
X123275304Y-138600056D01*
X123514431Y-138759835D01*
X123780134Y-138869893D01*
X124062203Y-138926000D01*
X124349797Y-138926000D01*
X124551148Y-138885949D01*
X124794792Y-139129593D01*
X124631866Y-139062107D01*
X124349797Y-139006000D01*
X124062203Y-139006000D01*
X123780134Y-139062107D01*
X123514431Y-139172165D01*
X123275304Y-139331944D01*
X123071944Y-139535304D01*
X122912165Y-139774431D01*
X122802107Y-140040134D01*
X122746000Y-140322203D01*
X122746000Y-140609797D01*
X122802107Y-140891866D01*
X122912165Y-141157569D01*
X123071944Y-141396696D01*
X123275304Y-141600056D01*
X123514431Y-141759835D01*
X123780134Y-141869893D01*
X124062203Y-141926000D01*
X124349797Y-141926000D01*
X124631866Y-141869893D01*
X124897569Y-141759835D01*
X125136696Y-141600056D01*
X125340056Y-141396696D01*
X125499835Y-141157569D01*
X125609893Y-140891866D01*
X125666000Y-140609797D01*
X125666000Y-140322203D01*
X125609893Y-140040134D01*
X125542407Y-139877208D01*
X132226201Y-146561003D01*
X132249999Y-146590001D01*
X132365724Y-146684974D01*
X132497753Y-146755546D01*
X132641014Y-146799003D01*
X132752667Y-146810000D01*
X132752676Y-146810000D01*
X132789999Y-146813676D01*
X132827322Y-146810000D01*
X143248405Y-146810000D01*
X143285294Y-146879014D01*
X143470866Y-147105134D01*
X143696986Y-147290706D01*
X143751791Y-147320000D01*
X143696986Y-147349294D01*
X143470866Y-147534866D01*
X143433825Y-147580000D01*
X126148356Y-147580000D01*
X125666000Y-147097645D01*
X125666000Y-146922203D01*
X125609893Y-146640134D01*
X125499835Y-146374431D01*
X125340056Y-146135304D01*
X125136696Y-145931944D01*
X124897569Y-145772165D01*
X124631866Y-145662107D01*
X124349797Y-145606000D01*
X124062203Y-145606000D01*
X123780134Y-145662107D01*
X123514431Y-145772165D01*
X123275304Y-145931944D01*
X123071944Y-146135304D01*
X122912165Y-146374431D01*
X122802107Y-146640134D01*
X122746000Y-146922203D01*
X122746000Y-147209797D01*
X122802107Y-147491866D01*
X122912165Y-147757569D01*
X123071944Y-147996696D01*
X123275304Y-148200056D01*
X123514431Y-148359835D01*
X123780134Y-148469893D01*
X124062203Y-148526000D01*
X124237645Y-148526000D01*
X124980744Y-149269099D01*
X125012367Y-149307633D01*
X125166160Y-149433847D01*
X125341620Y-149527632D01*
X125532006Y-149585385D01*
X125680392Y-149600000D01*
X125680401Y-149600000D01*
X125729999Y-149604885D01*
X125779597Y-149600000D01*
X143433825Y-149600000D01*
X143470866Y-149645134D01*
X143696986Y-149830706D01*
X143751791Y-149860000D01*
X143696986Y-149889294D01*
X143470866Y-150074866D01*
X143433825Y-150120000D01*
X124188356Y-150120000D01*
X121166000Y-147097645D01*
X121166000Y-146922203D01*
X121109893Y-146640134D01*
X120999835Y-146374431D01*
X120840056Y-146135304D01*
X120636696Y-145931944D01*
X120397569Y-145772165D01*
X120131866Y-145662107D01*
X119849797Y-145606000D01*
X119674355Y-145606000D01*
X117490558Y-143422203D01*
X118246000Y-143422203D01*
X118246000Y-143709797D01*
X118302107Y-143991866D01*
X118412165Y-144257569D01*
X118571944Y-144496696D01*
X118775304Y-144700056D01*
X119014431Y-144859835D01*
X119280134Y-144969893D01*
X119562203Y-145026000D01*
X119849797Y-145026000D01*
X120131866Y-144969893D01*
X120397569Y-144859835D01*
X120636696Y-144700056D01*
X120840056Y-144496696D01*
X120999835Y-144257569D01*
X121109893Y-143991866D01*
X121166000Y-143709797D01*
X121166000Y-143422203D01*
X122746000Y-143422203D01*
X122746000Y-143709797D01*
X122802107Y-143991866D01*
X122912165Y-144257569D01*
X123071944Y-144496696D01*
X123275304Y-144700056D01*
X123514431Y-144859835D01*
X123780134Y-144969893D01*
X124062203Y-145026000D01*
X124349797Y-145026000D01*
X124631866Y-144969893D01*
X124897569Y-144859835D01*
X125136696Y-144700056D01*
X125340056Y-144496696D01*
X125499835Y-144257569D01*
X125609893Y-143991866D01*
X125666000Y-143709797D01*
X125666000Y-143422203D01*
X125609893Y-143140134D01*
X125499835Y-142874431D01*
X125340056Y-142635304D01*
X125136696Y-142431944D01*
X124897569Y-142272165D01*
X124631866Y-142162107D01*
X124349797Y-142106000D01*
X124062203Y-142106000D01*
X123780134Y-142162107D01*
X123514431Y-142272165D01*
X123275304Y-142431944D01*
X123071944Y-142635304D01*
X122912165Y-142874431D01*
X122802107Y-143140134D01*
X122746000Y-143422203D01*
X121166000Y-143422203D01*
X121109893Y-143140134D01*
X120999835Y-142874431D01*
X120840056Y-142635304D01*
X120636696Y-142431944D01*
X120397569Y-142272165D01*
X120131866Y-142162107D01*
X119849797Y-142106000D01*
X119562203Y-142106000D01*
X119280134Y-142162107D01*
X119014431Y-142272165D01*
X118775304Y-142431944D01*
X118571944Y-142635304D01*
X118412165Y-142874431D01*
X118302107Y-143140134D01*
X118246000Y-143422203D01*
X117490558Y-143422203D01*
X116580000Y-142511645D01*
X116580000Y-140322203D01*
X118246000Y-140322203D01*
X118246000Y-140609797D01*
X118302107Y-140891866D01*
X118412165Y-141157569D01*
X118571944Y-141396696D01*
X118775304Y-141600056D01*
X119014431Y-141759835D01*
X119280134Y-141869893D01*
X119562203Y-141926000D01*
X119849797Y-141926000D01*
X120131866Y-141869893D01*
X120397569Y-141759835D01*
X120636696Y-141600056D01*
X120840056Y-141396696D01*
X120999835Y-141157569D01*
X121109893Y-140891866D01*
X121166000Y-140609797D01*
X121166000Y-140322203D01*
X121109893Y-140040134D01*
X120999835Y-139774431D01*
X120840056Y-139535304D01*
X120636696Y-139331944D01*
X120397569Y-139172165D01*
X120131866Y-139062107D01*
X119849797Y-139006000D01*
X119562203Y-139006000D01*
X119280134Y-139062107D01*
X119014431Y-139172165D01*
X118775304Y-139331944D01*
X118571944Y-139535304D01*
X118412165Y-139774431D01*
X118302107Y-140040134D01*
X118246000Y-140322203D01*
X116580000Y-140322203D01*
X116580000Y-125322203D01*
X118246000Y-125322203D01*
X118246000Y-125609797D01*
X118302107Y-125891866D01*
X118412165Y-126157569D01*
X118571944Y-126396696D01*
X118775304Y-126600056D01*
X119014431Y-126759835D01*
X119280134Y-126869893D01*
X119562203Y-126926000D01*
X119849797Y-126926000D01*
X120131866Y-126869893D01*
X120397569Y-126759835D01*
X120636696Y-126600056D01*
X120840056Y-126396696D01*
X120999835Y-126157569D01*
X121109893Y-125891866D01*
X121166000Y-125609797D01*
X121166000Y-125322203D01*
X122746000Y-125322203D01*
X122746000Y-125609797D01*
X122802107Y-125891866D01*
X122912165Y-126157569D01*
X123071944Y-126396696D01*
X123275304Y-126600056D01*
X123514431Y-126759835D01*
X123780134Y-126869893D01*
X124062203Y-126926000D01*
X124349797Y-126926000D01*
X124631866Y-126869893D01*
X124897569Y-126759835D01*
X125136696Y-126600056D01*
X125340056Y-126396696D01*
X125499835Y-126157569D01*
X125609893Y-125891866D01*
X125666000Y-125609797D01*
X125666000Y-125322203D01*
X125609893Y-125040134D01*
X125499835Y-124774431D01*
X125340056Y-124535304D01*
X125136696Y-124331944D01*
X124897569Y-124172165D01*
X124631866Y-124062107D01*
X124349797Y-124006000D01*
X124062203Y-124006000D01*
X123780134Y-124062107D01*
X123514431Y-124172165D01*
X123275304Y-124331944D01*
X123071944Y-124535304D01*
X122912165Y-124774431D01*
X122802107Y-125040134D01*
X122746000Y-125322203D01*
X121166000Y-125322203D01*
X121109893Y-125040134D01*
X120999835Y-124774431D01*
X120840056Y-124535304D01*
X120636696Y-124331944D01*
X120397569Y-124172165D01*
X120131866Y-124062107D01*
X119849797Y-124006000D01*
X119562203Y-124006000D01*
X119280134Y-124062107D01*
X119014431Y-124172165D01*
X118775304Y-124331944D01*
X118571944Y-124535304D01*
X118412165Y-124774431D01*
X118302107Y-125040134D01*
X118246000Y-125322203D01*
X116580000Y-125322203D01*
X116580000Y-117893355D01*
X118246000Y-116227356D01*
X118246000Y-116509797D01*
X118302107Y-116791866D01*
X118412165Y-117057569D01*
X118571944Y-117296696D01*
X118775304Y-117500056D01*
X119014431Y-117659835D01*
X119280134Y-117769893D01*
X119562203Y-117826000D01*
X119849797Y-117826000D01*
X120131866Y-117769893D01*
X120397569Y-117659835D01*
X120636696Y-117500056D01*
X120840056Y-117296696D01*
X120999835Y-117057569D01*
X121109893Y-116791866D01*
X121166000Y-116509797D01*
X121166000Y-116222203D01*
X121125949Y-116020852D01*
X121170802Y-115975999D01*
X122794973Y-115975999D01*
X122746000Y-116222203D01*
X122746000Y-116509797D01*
X122802107Y-116791866D01*
X122912165Y-117057569D01*
X123071944Y-117296696D01*
X123275304Y-117500056D01*
X123514431Y-117659835D01*
X123780134Y-117769893D01*
X124062203Y-117826000D01*
X124349797Y-117826000D01*
X124631866Y-117769893D01*
X124897569Y-117659835D01*
X125136696Y-117500056D01*
X125340056Y-117296696D01*
X125499835Y-117057569D01*
X125609893Y-116791866D01*
X125666000Y-116509797D01*
X125666000Y-116222203D01*
X125617027Y-115975999D01*
X135137198Y-115975999D01*
X139467197Y-120305999D01*
X125400658Y-120305999D01*
X125499835Y-120157569D01*
X125609893Y-119891866D01*
X125666000Y-119609797D01*
X125666000Y-119322203D01*
X125609893Y-119040134D01*
X125499835Y-118774431D01*
X125340056Y-118535304D01*
X125136696Y-118331944D01*
X124897569Y-118172165D01*
X124631866Y-118062107D01*
X124349797Y-118006000D01*
X124062203Y-118006000D01*
X123780134Y-118062107D01*
X123514431Y-118172165D01*
X123275304Y-118331944D01*
X123071944Y-118535304D01*
X122912165Y-118774431D01*
X122802107Y-119040134D01*
X122746000Y-119322203D01*
X122746000Y-119609797D01*
X122802107Y-119891866D01*
X122912165Y-120157569D01*
X123011342Y-120305999D01*
X121024470Y-120305999D01*
X120981001Y-120301718D01*
X120937532Y-120305999D01*
X120937524Y-120305999D01*
X120898061Y-120309886D01*
X120999835Y-120157569D01*
X121109893Y-119891866D01*
X121166000Y-119609797D01*
X121166000Y-119322203D01*
X121109893Y-119040134D01*
X120999835Y-118774431D01*
X120840056Y-118535304D01*
X120636696Y-118331944D01*
X120397569Y-118172165D01*
X120131866Y-118062107D01*
X119849797Y-118006000D01*
X119562203Y-118006000D01*
X119280134Y-118062107D01*
X119014431Y-118172165D01*
X118775304Y-118331944D01*
X118571944Y-118535304D01*
X118412165Y-118774431D01*
X118302107Y-119040134D01*
X118246000Y-119322203D01*
X118246000Y-119609797D01*
X118302107Y-119891866D01*
X118412165Y-120157569D01*
X118571944Y-120396696D01*
X118775304Y-120600056D01*
X119014431Y-120759835D01*
X119280134Y-120869893D01*
X119562203Y-120926000D01*
X119849797Y-120926000D01*
X120030333Y-120890089D01*
X119935958Y-120984464D01*
X119935952Y-120984469D01*
X119903699Y-121016722D01*
X119849797Y-121006000D01*
X119562203Y-121006000D01*
X119280134Y-121062107D01*
X119014431Y-121172165D01*
X118775304Y-121331944D01*
X118571944Y-121535304D01*
X118412165Y-121774431D01*
X118302107Y-122040134D01*
X118246000Y-122322203D01*
X118246000Y-122609797D01*
X118302107Y-122891866D01*
X118412165Y-123157569D01*
X118571944Y-123396696D01*
X118775304Y-123600056D01*
X119014431Y-123759835D01*
X119280134Y-123869893D01*
X119562203Y-123926000D01*
X119849797Y-123926000D01*
X120131866Y-123869893D01*
X120397569Y-123759835D01*
X120636696Y-123600056D01*
X120840056Y-123396696D01*
X120999835Y-123157569D01*
X121109893Y-122891866D01*
X121166000Y-122609797D01*
X121166000Y-122322203D01*
X121155278Y-122268301D01*
X121187531Y-122236048D01*
X121187536Y-122236042D01*
X121347579Y-122075999D01*
X122794973Y-122075999D01*
X122746000Y-122322203D01*
X122746000Y-122609797D01*
X122802107Y-122891866D01*
X122912165Y-123157569D01*
X123071944Y-123396696D01*
X123275304Y-123600056D01*
X123514431Y-123759835D01*
X123780134Y-123869893D01*
X124062203Y-123926000D01*
X124349797Y-123926000D01*
X124631866Y-123869893D01*
X124897569Y-123759835D01*
X125136696Y-123600056D01*
X125340056Y-123396696D01*
X125499835Y-123157569D01*
X125609893Y-122891866D01*
X125666000Y-122609797D01*
X125666000Y-122322203D01*
X125617027Y-122075999D01*
X139620421Y-122075999D01*
X143055388Y-125510967D01*
X143033815Y-125730000D01*
X143062487Y-126021111D01*
X143147401Y-126301034D01*
X143285294Y-126559014D01*
X143470866Y-126785134D01*
X143696986Y-126970706D01*
X143751791Y-127000000D01*
X143696986Y-127029294D01*
X143470866Y-127214866D01*
X143285294Y-127440986D01*
X143147401Y-127698966D01*
X143062487Y-127978889D01*
X143033815Y-128270000D01*
X143062487Y-128561111D01*
X143147401Y-128841034D01*
X143285294Y-129099014D01*
X143470866Y-129325134D01*
X143696986Y-129510706D01*
X143761523Y-129545201D01*
X143644645Y-129614822D01*
X143428412Y-129809731D01*
X143254359Y-130043080D01*
X143129175Y-130305901D01*
X143084524Y-130453110D01*
X143205845Y-130683000D01*
X144399000Y-130683000D01*
X144399000Y-130663000D01*
X144653000Y-130663000D01*
X144653000Y-130683000D01*
X145846155Y-130683000D01*
X145967476Y-130453110D01*
X145922825Y-130305901D01*
X145797641Y-130043080D01*
X145623588Y-129809731D01*
X145407355Y-129614822D01*
X145290477Y-129545201D01*
X145355014Y-129510706D01*
X145581134Y-129325134D01*
X145766706Y-129099014D01*
X145904599Y-128841034D01*
X145989513Y-128561111D01*
X146018185Y-128270000D01*
X146012462Y-128211893D01*
X147999100Y-126225256D01*
X148037633Y-126193633D01*
X148163847Y-126039840D01*
X148257632Y-125864380D01*
X148315385Y-125673994D01*
X148330000Y-125525608D01*
X148330000Y-125525607D01*
X148334886Y-125476000D01*
X148330000Y-125426392D01*
X148330000Y-114759193D01*
X150615000Y-114759193D01*
X150615000Y-115110807D01*
X150683596Y-115455665D01*
X150818153Y-115780515D01*
X151013500Y-116072871D01*
X151262129Y-116321500D01*
X151554485Y-116516847D01*
X151879335Y-116651404D01*
X152224193Y-116720000D01*
X152575807Y-116720000D01*
X152920665Y-116651404D01*
X153245515Y-116516847D01*
X153537871Y-116321500D01*
X153786500Y-116072871D01*
X153981847Y-115780515D01*
X154116404Y-115455665D01*
X154185000Y-115110807D01*
X154185000Y-114759193D01*
X154116404Y-114414335D01*
X153981847Y-114089485D01*
X153786500Y-113797129D01*
X153537871Y-113548500D01*
X153245515Y-113353153D01*
X152920665Y-113218596D01*
X152575807Y-113150000D01*
X152224193Y-113150000D01*
X151879335Y-113218596D01*
X151554485Y-113353153D01*
X151262129Y-113548500D01*
X151013500Y-113797129D01*
X150818153Y-114089485D01*
X150683596Y-114414335D01*
X150615000Y-114759193D01*
X148330000Y-114759193D01*
X148330000Y-112306355D01*
X149904100Y-110732256D01*
X149942633Y-110700633D01*
X150068847Y-110546840D01*
X150162632Y-110371380D01*
X150170451Y-110345605D01*
X150220385Y-110180995D01*
X150239886Y-109983000D01*
X150235000Y-109933392D01*
X150235000Y-103288355D01*
X152073358Y-101449997D01*
X152224193Y-101480000D01*
X152575807Y-101480000D01*
X152920665Y-101411404D01*
X153245515Y-101276847D01*
X153537871Y-101081500D01*
X153786500Y-100832871D01*
X153981847Y-100540515D01*
X154116404Y-100215665D01*
X154185000Y-99870807D01*
X154185000Y-99519193D01*
X154116404Y-99174335D01*
X153981847Y-98849485D01*
X153786500Y-98557129D01*
X153537871Y-98308500D01*
X153285000Y-98139536D01*
X153285000Y-97833469D01*
X153289281Y-97790000D01*
X153285000Y-97746531D01*
X153285000Y-97746523D01*
X153272195Y-97616510D01*
X153221589Y-97449687D01*
X153221589Y-97449686D01*
X153139411Y-97295941D01*
X153056532Y-97194953D01*
X153056530Y-97194951D01*
X153028817Y-97161183D01*
X152995049Y-97133470D01*
X152421534Y-96559956D01*
X152393817Y-96526183D01*
X152259059Y-96415589D01*
X152105313Y-96333411D01*
X151938490Y-96282805D01*
X151808477Y-96270000D01*
X151808469Y-96270000D01*
X151765000Y-96265719D01*
X151721531Y-96270000D01*
X143744466Y-96270000D01*
X143700999Y-96265719D01*
X143657533Y-96270000D01*
X143657523Y-96270000D01*
X143527510Y-96282805D01*
X143360687Y-96333411D01*
X143206941Y-96415589D01*
X143206939Y-96415590D01*
X143206940Y-96415590D01*
X143105953Y-96498468D01*
X143105951Y-96498470D01*
X143072183Y-96526183D01*
X143044470Y-96559951D01*
X131904422Y-107700000D01*
X125245874Y-107700000D01*
X125332741Y-107613133D01*
X125216553Y-107496945D01*
X125463073Y-107422337D01*
X125586473Y-107162561D01*
X125656823Y-106883703D01*
X125671417Y-106596479D01*
X125629697Y-106311926D01*
X125533265Y-106040980D01*
X125463073Y-105909663D01*
X125216551Y-105835054D01*
X124385605Y-106666000D01*
X124399748Y-106680143D01*
X124220143Y-106859748D01*
X124206000Y-106845605D01*
X124191858Y-106859748D01*
X124012253Y-106680143D01*
X124026395Y-106666000D01*
X123195449Y-105835054D01*
X122948927Y-105909663D01*
X122825527Y-106169439D01*
X122755177Y-106448297D01*
X122740583Y-106735521D01*
X122782303Y-107020074D01*
X122878735Y-107291020D01*
X122948927Y-107422337D01*
X123195447Y-107496945D01*
X123079259Y-107613133D01*
X123166126Y-107700000D01*
X120745874Y-107700000D01*
X120832741Y-107613133D01*
X120716553Y-107496945D01*
X120963073Y-107422337D01*
X121086473Y-107162561D01*
X121156823Y-106883703D01*
X121171417Y-106596479D01*
X121129697Y-106311926D01*
X121033265Y-106040980D01*
X120963073Y-105909663D01*
X120716551Y-105835054D01*
X119885605Y-106666000D01*
X119899748Y-106680143D01*
X119720143Y-106859748D01*
X119706000Y-106845605D01*
X119691858Y-106859748D01*
X119512253Y-106680143D01*
X119526395Y-106666000D01*
X118695449Y-105835054D01*
X118448927Y-105909663D01*
X118360000Y-106096868D01*
X118360000Y-105655449D01*
X118875054Y-105655449D01*
X119706000Y-106486395D01*
X120536946Y-105655449D01*
X123375054Y-105655449D01*
X124206000Y-106486395D01*
X125036946Y-105655449D01*
X124962337Y-105408927D01*
X124702561Y-105285527D01*
X124423703Y-105215177D01*
X124136479Y-105200583D01*
X123851926Y-105242303D01*
X123580980Y-105338735D01*
X123449663Y-105408927D01*
X123375054Y-105655449D01*
X120536946Y-105655449D01*
X120462337Y-105408927D01*
X120202561Y-105285527D01*
X119923703Y-105215177D01*
X119636479Y-105200583D01*
X119351926Y-105242303D01*
X119080980Y-105338735D01*
X118949663Y-105408927D01*
X118875054Y-105655449D01*
X118360000Y-105655449D01*
X118360000Y-104131632D01*
X118412165Y-104257569D01*
X118571944Y-104496696D01*
X118775304Y-104700056D01*
X119014431Y-104859835D01*
X119280134Y-104969893D01*
X119562203Y-105026000D01*
X119849797Y-105026000D01*
X120131866Y-104969893D01*
X120397569Y-104859835D01*
X120636696Y-104700056D01*
X120840056Y-104496696D01*
X120999835Y-104257569D01*
X121109893Y-103991866D01*
X121166000Y-103709797D01*
X121166000Y-103422203D01*
X121109893Y-103140134D01*
X120999835Y-102874431D01*
X120840056Y-102635304D01*
X120636696Y-102431944D01*
X120397569Y-102272165D01*
X120131866Y-102162107D01*
X119849797Y-102106000D01*
X119562203Y-102106000D01*
X119280134Y-102162107D01*
X119014431Y-102272165D01*
X118775304Y-102431944D01*
X118571944Y-102635304D01*
X118412165Y-102874431D01*
X118360000Y-103000368D01*
X118360000Y-101131632D01*
X118412165Y-101257569D01*
X118571944Y-101496696D01*
X118775304Y-101700056D01*
X119014431Y-101859835D01*
X119280134Y-101969893D01*
X119562203Y-102026000D01*
X119849797Y-102026000D01*
X120131866Y-101969893D01*
X120397569Y-101859835D01*
X120636696Y-101700056D01*
X120840056Y-101496696D01*
X120999835Y-101257569D01*
X121109893Y-100991866D01*
X121166000Y-100709797D01*
X121166000Y-100422203D01*
X121109893Y-100140134D01*
X120999835Y-99874431D01*
X120840056Y-99635304D01*
X120636696Y-99431944D01*
X120397569Y-99272165D01*
X120131866Y-99162107D01*
X119849797Y-99106000D01*
X119562203Y-99106000D01*
X119280134Y-99162107D01*
X119014431Y-99272165D01*
X118775304Y-99431944D01*
X118571944Y-99635304D01*
X118412165Y-99874431D01*
X118360000Y-100000368D01*
X118360000Y-98131632D01*
X118412165Y-98257569D01*
X118571944Y-98496696D01*
X118775304Y-98700056D01*
X119014431Y-98859835D01*
X119280134Y-98969893D01*
X119562203Y-99026000D01*
X119849797Y-99026000D01*
X120131866Y-98969893D01*
X120397569Y-98859835D01*
X120636696Y-98700056D01*
X120840056Y-98496696D01*
X120999835Y-98257569D01*
X121109893Y-97991866D01*
X121166000Y-97709797D01*
X121166000Y-97422203D01*
X121109893Y-97140134D01*
X120999835Y-96874431D01*
X120840056Y-96635304D01*
X120636696Y-96431944D01*
X120397569Y-96272165D01*
X120131866Y-96162107D01*
X119849797Y-96106000D01*
X119562203Y-96106000D01*
X119280134Y-96162107D01*
X119014431Y-96272165D01*
X118775304Y-96431944D01*
X118571944Y-96635304D01*
X118412165Y-96874431D01*
X118360000Y-97000368D01*
X118360000Y-95131632D01*
X118412165Y-95257569D01*
X118571944Y-95496696D01*
X118775304Y-95700056D01*
X119014431Y-95859835D01*
X119280134Y-95969893D01*
X119562203Y-96026000D01*
X119849797Y-96026000D01*
X120131866Y-95969893D01*
X120397569Y-95859835D01*
X120636696Y-95700056D01*
X120840056Y-95496696D01*
X120999835Y-95257569D01*
X121109893Y-94991866D01*
X121166000Y-94709797D01*
X121166000Y-94422203D01*
X121125949Y-94220852D01*
X122983088Y-92363714D01*
X123071944Y-92496696D01*
X123275304Y-92700056D01*
X123514431Y-92859835D01*
X123780134Y-92969893D01*
X124062203Y-93026000D01*
X124349797Y-93026000D01*
X124631866Y-92969893D01*
X124897569Y-92859835D01*
X125136696Y-92700056D01*
X125340056Y-92496696D01*
X125454111Y-92326000D01*
X127471678Y-92326000D01*
X127509000Y-92329676D01*
X127546322Y-92326000D01*
X127546333Y-92326000D01*
X127657986Y-92315003D01*
X127801247Y-92271546D01*
X127933276Y-92200974D01*
X128049001Y-92106001D01*
X128072804Y-92076997D01*
X133029802Y-87120000D01*
X142994405Y-87120000D01*
X143031294Y-87189014D01*
X143216866Y-87415134D01*
X143442986Y-87600706D01*
X143497791Y-87630000D01*
X143442986Y-87659294D01*
X143216866Y-87844866D01*
X143031294Y-88070986D01*
X142994405Y-88140000D01*
X132909325Y-88140000D01*
X132872000Y-88136324D01*
X132834675Y-88140000D01*
X132834667Y-88140000D01*
X132723014Y-88150997D01*
X132579753Y-88194454D01*
X132447724Y-88265026D01*
X132331999Y-88359999D01*
X132308201Y-88388997D01*
X125542407Y-95154792D01*
X125609893Y-94991866D01*
X125666000Y-94709797D01*
X125666000Y-94422203D01*
X125609893Y-94140134D01*
X125499835Y-93874431D01*
X125340056Y-93635304D01*
X125136696Y-93431944D01*
X124897569Y-93272165D01*
X124631866Y-93162107D01*
X124349797Y-93106000D01*
X124062203Y-93106000D01*
X123780134Y-93162107D01*
X123514431Y-93272165D01*
X123275304Y-93431944D01*
X123071944Y-93635304D01*
X122912165Y-93874431D01*
X122802107Y-94140134D01*
X122746000Y-94422203D01*
X122746000Y-94709797D01*
X122802107Y-94991866D01*
X122912165Y-95257569D01*
X123071944Y-95496696D01*
X123275304Y-95700056D01*
X123514431Y-95859835D01*
X123780134Y-95969893D01*
X124062203Y-96026000D01*
X124349797Y-96026000D01*
X124631866Y-95969893D01*
X124794792Y-95902407D01*
X124551148Y-96146051D01*
X124349797Y-96106000D01*
X124062203Y-96106000D01*
X123780134Y-96162107D01*
X123514431Y-96272165D01*
X123275304Y-96431944D01*
X123071944Y-96635304D01*
X122912165Y-96874431D01*
X122802107Y-97140134D01*
X122746000Y-97422203D01*
X122746000Y-97709797D01*
X122802107Y-97991866D01*
X122912165Y-98257569D01*
X123071944Y-98496696D01*
X123275304Y-98700056D01*
X123514431Y-98859835D01*
X123780134Y-98969893D01*
X124062203Y-99026000D01*
X124349797Y-99026000D01*
X124631866Y-98969893D01*
X124794792Y-98902407D01*
X124551148Y-99146051D01*
X124349797Y-99106000D01*
X124062203Y-99106000D01*
X123780134Y-99162107D01*
X123514431Y-99272165D01*
X123275304Y-99431944D01*
X123071944Y-99635304D01*
X122912165Y-99874431D01*
X122802107Y-100140134D01*
X122746000Y-100422203D01*
X122746000Y-100709797D01*
X122802107Y-100991866D01*
X122912165Y-101257569D01*
X123071944Y-101496696D01*
X123275304Y-101700056D01*
X123514431Y-101859835D01*
X123780134Y-101969893D01*
X124062203Y-102026000D01*
X124349797Y-102026000D01*
X124631866Y-101969893D01*
X124794792Y-101902407D01*
X124551148Y-102146051D01*
X124349797Y-102106000D01*
X124062203Y-102106000D01*
X123780134Y-102162107D01*
X123514431Y-102272165D01*
X123275304Y-102431944D01*
X123071944Y-102635304D01*
X122912165Y-102874431D01*
X122802107Y-103140134D01*
X122746000Y-103422203D01*
X122746000Y-103709797D01*
X122802107Y-103991866D01*
X122912165Y-104257569D01*
X123071944Y-104496696D01*
X123275304Y-104700056D01*
X123514431Y-104859835D01*
X123780134Y-104969893D01*
X124062203Y-105026000D01*
X124349797Y-105026000D01*
X124631866Y-104969893D01*
X124897569Y-104859835D01*
X125136696Y-104700056D01*
X125340056Y-104496696D01*
X125499835Y-104257569D01*
X125609893Y-103991866D01*
X125666000Y-103709797D01*
X125666000Y-103422203D01*
X125625949Y-103220852D01*
X134106802Y-94740000D01*
X142994405Y-94740000D01*
X143031294Y-94809014D01*
X143216866Y-95035134D01*
X143442986Y-95220706D01*
X143700966Y-95358599D01*
X143980889Y-95443513D01*
X144199050Y-95465000D01*
X144344950Y-95465000D01*
X144563111Y-95443513D01*
X144843034Y-95358599D01*
X145101014Y-95220706D01*
X145327134Y-95035134D01*
X145512706Y-94809014D01*
X145650599Y-94551034D01*
X145735513Y-94271111D01*
X145764185Y-93980000D01*
X145735513Y-93688889D01*
X145650599Y-93408966D01*
X145512706Y-93150986D01*
X145327134Y-92924866D01*
X145101014Y-92739294D01*
X145046209Y-92710000D01*
X145101014Y-92680706D01*
X145327134Y-92495134D01*
X145512706Y-92269014D01*
X145650599Y-92011034D01*
X145735513Y-91731111D01*
X145764185Y-91440000D01*
X145735513Y-91148889D01*
X145650599Y-90868966D01*
X145512706Y-90610986D01*
X145327134Y-90384866D01*
X145101014Y-90199294D01*
X145046209Y-90170000D01*
X145101014Y-90140706D01*
X145327134Y-89955134D01*
X145512706Y-89729014D01*
X145650599Y-89471034D01*
X145735513Y-89191111D01*
X145764185Y-88900000D01*
X145735513Y-88608889D01*
X145650599Y-88328966D01*
X145512706Y-88070986D01*
X145327134Y-87844866D01*
X145101014Y-87659294D01*
X145046209Y-87630000D01*
X145101014Y-87600706D01*
X145327134Y-87415134D01*
X145512706Y-87189014D01*
X145650599Y-86931034D01*
X145735513Y-86651111D01*
X145764185Y-86360000D01*
X145735513Y-86068889D01*
X145650599Y-85788966D01*
X145512706Y-85530986D01*
X145327134Y-85304866D01*
X145101014Y-85119294D01*
X145046209Y-85090000D01*
X145101014Y-85060706D01*
X145327134Y-84875134D01*
X145512706Y-84649014D01*
X145650599Y-84391034D01*
X145735513Y-84111111D01*
X145764185Y-83820000D01*
X145735513Y-83528889D01*
X145650599Y-83248966D01*
X145512706Y-82990986D01*
X145327134Y-82764866D01*
X145101014Y-82579294D01*
X145046209Y-82550000D01*
X145101014Y-82520706D01*
X145327134Y-82335134D01*
X145512706Y-82109014D01*
X145650599Y-81851034D01*
X145735513Y-81571111D01*
X145764185Y-81280000D01*
X145735513Y-80988889D01*
X145650599Y-80708966D01*
X145512706Y-80450986D01*
X145327134Y-80224866D01*
X145101014Y-80039294D01*
X145046209Y-80010000D01*
X145101014Y-79980706D01*
X145327134Y-79795134D01*
X145512706Y-79569014D01*
X145650599Y-79311034D01*
X145735513Y-79031111D01*
X145764185Y-78740000D01*
X145735513Y-78448889D01*
X145650599Y-78168966D01*
X145512706Y-77910986D01*
X145327134Y-77684866D01*
X145101014Y-77499294D01*
X145046209Y-77470000D01*
X145101014Y-77440706D01*
X145327134Y-77255134D01*
X145512706Y-77029014D01*
X145650599Y-76771034D01*
X145735513Y-76491111D01*
X145764185Y-76200000D01*
X145735513Y-75908889D01*
X145650599Y-75628966D01*
X145512706Y-75370986D01*
X145327134Y-75144866D01*
X145101014Y-74959294D01*
X145046209Y-74930000D01*
X145101014Y-74900706D01*
X145327134Y-74715134D01*
X145512706Y-74489014D01*
X145650599Y-74231034D01*
X145735513Y-73951111D01*
X145764185Y-73660000D01*
X145735513Y-73368889D01*
X145650599Y-73088966D01*
X145512706Y-72830986D01*
X145327134Y-72604866D01*
X145101014Y-72419294D01*
X145046209Y-72390000D01*
X145101014Y-72360706D01*
X145327134Y-72175134D01*
X145512706Y-71949014D01*
X145650599Y-71691034D01*
X145735513Y-71411111D01*
X145764185Y-71120000D01*
X145735513Y-70828889D01*
X145650599Y-70548966D01*
X145512706Y-70290986D01*
X145327134Y-70064866D01*
X145101014Y-69879294D01*
X145046209Y-69850000D01*
X145101014Y-69820706D01*
X145327134Y-69635134D01*
X145512706Y-69409014D01*
X145650599Y-69151034D01*
X145735513Y-68871111D01*
X145764185Y-68580000D01*
X145735513Y-68288889D01*
X145650599Y-68008966D01*
X145512706Y-67750986D01*
X145327134Y-67524866D01*
X145297313Y-67500393D01*
X145366180Y-67479502D01*
X145476494Y-67420537D01*
X145573185Y-67341185D01*
X145652537Y-67244494D01*
X145711502Y-67134180D01*
X145747812Y-67014482D01*
X145760072Y-66890000D01*
X145760072Y-65190000D01*
X145747812Y-65065518D01*
X145711502Y-64945820D01*
X145652537Y-64835506D01*
X145573185Y-64738815D01*
X145476494Y-64659463D01*
X145366180Y-64600498D01*
X145246482Y-64564188D01*
X145122000Y-64551928D01*
X143422000Y-64551928D01*
X143297518Y-64564188D01*
X143177820Y-64600498D01*
X143067506Y-64659463D01*
X142970815Y-64738815D01*
X142891463Y-64835506D01*
X142832498Y-64945820D01*
X142796188Y-65065518D01*
X142787375Y-65155000D01*
X140378465Y-65155000D01*
X140334999Y-65150719D01*
X140291533Y-65155000D01*
X140291523Y-65155000D01*
X140161510Y-65167805D01*
X139994687Y-65218411D01*
X139840941Y-65300589D01*
X139840939Y-65300590D01*
X139840940Y-65300590D01*
X139739953Y-65383468D01*
X139739951Y-65383470D01*
X139706183Y-65411183D01*
X139678470Y-65444951D01*
X135523422Y-69600000D01*
X121730466Y-69600000D01*
X121686999Y-69595719D01*
X121643533Y-69600000D01*
X121643523Y-69600000D01*
X121513510Y-69612805D01*
X121346687Y-69663411D01*
X121192941Y-69745589D01*
X121192939Y-69745590D01*
X121192940Y-69745590D01*
X121091953Y-69828468D01*
X121091951Y-69828470D01*
X121058183Y-69856183D01*
X121030470Y-69889951D01*
X119903700Y-71016722D01*
X119849797Y-71006000D01*
X119562203Y-71006000D01*
X119280134Y-71062107D01*
X119014431Y-71172165D01*
X118775304Y-71331944D01*
X118571944Y-71535304D01*
X118412165Y-71774431D01*
X118302107Y-72040134D01*
X118246000Y-72322203D01*
X118246000Y-72609797D01*
X118302107Y-72891866D01*
X118412165Y-73157569D01*
X118571944Y-73396696D01*
X118775304Y-73600056D01*
X119014431Y-73759835D01*
X119280134Y-73869893D01*
X119562203Y-73926000D01*
X119849797Y-73926000D01*
X120131866Y-73869893D01*
X120397569Y-73759835D01*
X120636696Y-73600056D01*
X120840056Y-73396696D01*
X120999835Y-73157569D01*
X121109893Y-72891866D01*
X121166000Y-72609797D01*
X121166000Y-72322203D01*
X121155278Y-72268300D01*
X122053579Y-71370000D01*
X123237248Y-71370000D01*
X123071944Y-71535304D01*
X122912165Y-71774431D01*
X122802107Y-72040134D01*
X122746000Y-72322203D01*
X122746000Y-72609797D01*
X122802107Y-72891866D01*
X122912165Y-73157569D01*
X123071944Y-73396696D01*
X123275304Y-73600056D01*
X123514431Y-73759835D01*
X123780134Y-73869893D01*
X124062203Y-73926000D01*
X124349797Y-73926000D01*
X124631866Y-73869893D01*
X124897569Y-73759835D01*
X125136696Y-73600056D01*
X125340056Y-73396696D01*
X125370589Y-73351000D01*
X137675531Y-73351000D01*
X137719000Y-73355281D01*
X137762469Y-73351000D01*
X137762477Y-73351000D01*
X137892490Y-73338195D01*
X138059313Y-73287589D01*
X138213059Y-73205411D01*
X138347817Y-73094817D01*
X138375534Y-73061044D01*
X141971579Y-69465000D01*
X143077241Y-69465000D01*
X143216866Y-69635134D01*
X143442986Y-69820706D01*
X143497791Y-69850000D01*
X143442986Y-69879294D01*
X143216866Y-70064866D01*
X143077241Y-70235000D01*
X142918465Y-70235000D01*
X142874999Y-70230719D01*
X142831533Y-70235000D01*
X142831523Y-70235000D01*
X142701510Y-70247805D01*
X142534687Y-70298411D01*
X142380941Y-70380589D01*
X142380939Y-70380590D01*
X142380940Y-70380590D01*
X142279953Y-70463468D01*
X142279951Y-70463470D01*
X142246183Y-70491183D01*
X142218470Y-70524951D01*
X138063422Y-74680000D01*
X129583469Y-74680000D01*
X129540000Y-74675719D01*
X129496531Y-74680000D01*
X129496523Y-74680000D01*
X129366510Y-74692805D01*
X129199687Y-74743411D01*
X129053776Y-74821401D01*
X129045941Y-74825589D01*
X128944953Y-74908468D01*
X128944951Y-74908470D01*
X128911183Y-74936183D01*
X128883470Y-74969951D01*
X127268422Y-76585000D01*
X125529894Y-76585000D01*
X125609893Y-76391866D01*
X125666000Y-76109797D01*
X125666000Y-75822203D01*
X125609893Y-75540134D01*
X125499835Y-75274431D01*
X125340056Y-75035304D01*
X125136696Y-74831944D01*
X124897569Y-74672165D01*
X124631866Y-74562107D01*
X124349797Y-74506000D01*
X124062203Y-74506000D01*
X123780134Y-74562107D01*
X123514431Y-74672165D01*
X123275304Y-74831944D01*
X123071944Y-75035304D01*
X122912165Y-75274431D01*
X122802107Y-75540134D01*
X122746000Y-75822203D01*
X122746000Y-76109797D01*
X122802107Y-76391866D01*
X122880826Y-76581911D01*
X122868725Y-76580719D01*
X122825259Y-76585000D01*
X122825249Y-76585000D01*
X122695236Y-76597805D01*
X122528413Y-76648411D01*
X122374667Y-76730589D01*
X122374665Y-76730590D01*
X122374666Y-76730590D01*
X122273679Y-76813468D01*
X122273677Y-76813470D01*
X122239909Y-76841183D01*
X122212196Y-76874951D01*
X120695950Y-78391198D01*
X120636696Y-78331944D01*
X120397569Y-78172165D01*
X120131866Y-78062107D01*
X119849797Y-78006000D01*
X119562203Y-78006000D01*
X119280134Y-78062107D01*
X119014431Y-78172165D01*
X118775304Y-78331944D01*
X118571944Y-78535304D01*
X118412165Y-78774431D01*
X118302107Y-79040134D01*
X118246000Y-79322203D01*
X118246000Y-79609797D01*
X118302107Y-79891866D01*
X118412165Y-80157569D01*
X118571944Y-80396696D01*
X118775304Y-80600056D01*
X119014431Y-80759835D01*
X119280134Y-80869893D01*
X119562203Y-80926000D01*
X119849797Y-80926000D01*
X120131866Y-80869893D01*
X120397569Y-80759835D01*
X120636696Y-80600056D01*
X120840056Y-80396696D01*
X120868037Y-80354819D01*
X120872726Y-80355281D01*
X120916195Y-80351000D01*
X120916203Y-80351000D01*
X121046216Y-80338195D01*
X121213039Y-80287589D01*
X121366785Y-80205411D01*
X121501543Y-80094817D01*
X121529260Y-80061044D01*
X123235305Y-78355000D01*
X123252248Y-78355000D01*
X123071944Y-78535304D01*
X122912165Y-78774431D01*
X122802107Y-79040134D01*
X122746000Y-79322203D01*
X122746000Y-79609797D01*
X122802107Y-79891866D01*
X122912165Y-80157569D01*
X123071944Y-80396696D01*
X123275304Y-80600056D01*
X123514431Y-80759835D01*
X123780134Y-80869893D01*
X124062203Y-80926000D01*
X124349797Y-80926000D01*
X124631866Y-80869893D01*
X124897569Y-80759835D01*
X125136696Y-80600056D01*
X125340056Y-80396696D01*
X125370589Y-80351000D01*
X128770531Y-80351000D01*
X128814000Y-80355281D01*
X128857469Y-80351000D01*
X128857477Y-80351000D01*
X128987490Y-80338195D01*
X129154313Y-80287589D01*
X129308059Y-80205411D01*
X129442817Y-80094817D01*
X129470534Y-80061044D01*
X131176579Y-78355000D01*
X132025198Y-78355000D01*
X125574199Y-84806000D01*
X125454111Y-84806000D01*
X125340056Y-84635304D01*
X125136696Y-84431944D01*
X124897569Y-84272165D01*
X124631866Y-84162107D01*
X124349797Y-84106000D01*
X124062203Y-84106000D01*
X123780134Y-84162107D01*
X123514431Y-84272165D01*
X123275304Y-84431944D01*
X123071944Y-84635304D01*
X122912165Y-84874431D01*
X122802107Y-85140134D01*
X122746000Y-85422203D01*
X122746000Y-85709797D01*
X122802107Y-85991866D01*
X122912165Y-86257569D01*
X123071944Y-86496696D01*
X123231247Y-86655999D01*
X120893323Y-86655999D01*
X120856000Y-86652323D01*
X120818677Y-86655999D01*
X120818668Y-86655999D01*
X120707015Y-86666996D01*
X120653533Y-86683219D01*
X120840056Y-86496696D01*
X120999835Y-86257569D01*
X121109893Y-85991866D01*
X121166000Y-85709797D01*
X121166000Y-85422203D01*
X121109893Y-85140134D01*
X120999835Y-84874431D01*
X120840056Y-84635304D01*
X120636696Y-84431944D01*
X120397569Y-84272165D01*
X120131866Y-84162107D01*
X119849797Y-84106000D01*
X119562203Y-84106000D01*
X119381668Y-84141911D01*
X119508301Y-84015278D01*
X119562203Y-84026000D01*
X119849797Y-84026000D01*
X120131866Y-83969893D01*
X120397569Y-83859835D01*
X120636696Y-83700056D01*
X120840056Y-83496696D01*
X120999835Y-83257569D01*
X121109893Y-82991866D01*
X121166000Y-82709797D01*
X121166000Y-82422203D01*
X122746000Y-82422203D01*
X122746000Y-82709797D01*
X122802107Y-82991866D01*
X122912165Y-83257569D01*
X123071944Y-83496696D01*
X123275304Y-83700056D01*
X123514431Y-83859835D01*
X123780134Y-83969893D01*
X124062203Y-84026000D01*
X124349797Y-84026000D01*
X124631866Y-83969893D01*
X124897569Y-83859835D01*
X125136696Y-83700056D01*
X125340056Y-83496696D01*
X125499835Y-83257569D01*
X125609893Y-82991866D01*
X125666000Y-82709797D01*
X125666000Y-82422203D01*
X125609893Y-82140134D01*
X125499835Y-81874431D01*
X125340056Y-81635304D01*
X125136696Y-81431944D01*
X124897569Y-81272165D01*
X124631866Y-81162107D01*
X124349797Y-81106000D01*
X124062203Y-81106000D01*
X123780134Y-81162107D01*
X123514431Y-81272165D01*
X123275304Y-81431944D01*
X123071944Y-81635304D01*
X122912165Y-81874431D01*
X122802107Y-82140134D01*
X122746000Y-82422203D01*
X121166000Y-82422203D01*
X121109893Y-82140134D01*
X120999835Y-81874431D01*
X120840056Y-81635304D01*
X120636696Y-81431944D01*
X120397569Y-81272165D01*
X120131866Y-81162107D01*
X119849797Y-81106000D01*
X119562203Y-81106000D01*
X119280134Y-81162107D01*
X119014431Y-81272165D01*
X118775304Y-81431944D01*
X118571944Y-81635304D01*
X118412165Y-81874431D01*
X118302107Y-82140134D01*
X118246000Y-82422203D01*
X118246000Y-82709797D01*
X118256722Y-82763699D01*
X116879951Y-84140471D01*
X116846184Y-84168183D01*
X116818471Y-84201951D01*
X116818468Y-84201954D01*
X116735590Y-84302941D01*
X116653412Y-84456687D01*
X116602805Y-84623510D01*
X116585719Y-84797000D01*
X116590001Y-84840479D01*
X116590000Y-90213476D01*
X116590001Y-90213486D01*
X116590000Y-107271531D01*
X116585719Y-107315000D01*
X116590000Y-107358469D01*
X116590000Y-107358476D01*
X116602805Y-107488489D01*
X116653411Y-107655312D01*
X116735589Y-107809058D01*
X116846183Y-107943817D01*
X116879956Y-107971534D01*
X118088470Y-109180049D01*
X118116183Y-109213817D01*
X118149951Y-109241530D01*
X118149953Y-109241532D01*
X118210425Y-109291160D01*
X118250941Y-109324411D01*
X118404687Y-109406589D01*
X118444631Y-109418706D01*
X118325527Y-109669439D01*
X118255177Y-109948297D01*
X118240583Y-110235521D01*
X118282303Y-110520074D01*
X118378735Y-110791020D01*
X118448927Y-110922337D01*
X118695449Y-110996946D01*
X119526395Y-110166000D01*
X119512253Y-110151858D01*
X119691858Y-109972253D01*
X119706000Y-109986395D01*
X119720143Y-109972253D01*
X119899748Y-110151858D01*
X119885605Y-110166000D01*
X120716551Y-110996946D01*
X120963073Y-110922337D01*
X121086473Y-110662561D01*
X121156823Y-110383703D01*
X121171417Y-110096479D01*
X121129697Y-109811926D01*
X121033265Y-109540980D01*
X120995325Y-109470000D01*
X122920265Y-109470000D01*
X122825527Y-109669439D01*
X122755177Y-109948297D01*
X122740583Y-110235521D01*
X122782303Y-110520074D01*
X122878735Y-110791020D01*
X122948927Y-110922337D01*
X123195449Y-110996946D01*
X124026395Y-110166000D01*
X124012253Y-110151858D01*
X124191858Y-109972253D01*
X124206000Y-109986395D01*
X124220143Y-109972253D01*
X124399748Y-110151858D01*
X124385605Y-110166000D01*
X125216551Y-110996946D01*
X125463073Y-110922337D01*
X125586473Y-110662561D01*
X125656823Y-110383703D01*
X125671417Y-110096479D01*
X125629697Y-109811926D01*
X125533265Y-109540980D01*
X125495325Y-109470000D01*
X132227531Y-109470000D01*
X132271000Y-109474281D01*
X132314469Y-109470000D01*
X132314477Y-109470000D01*
X132444490Y-109457195D01*
X132611313Y-109406589D01*
X132765059Y-109324411D01*
X132899817Y-109213817D01*
X132927534Y-109180044D01*
X142991928Y-99115651D01*
X142991928Y-100845000D01*
X143004188Y-100969482D01*
X143040498Y-101089180D01*
X143099463Y-101199494D01*
X143178815Y-101296185D01*
X143275506Y-101375537D01*
X143385820Y-101434502D01*
X143505518Y-101470812D01*
X143630000Y-101483072D01*
X143770001Y-101483072D01*
X143770000Y-108383059D01*
X143642129Y-108468500D01*
X143393500Y-108717129D01*
X143198153Y-109009485D01*
X143063596Y-109334335D01*
X142995000Y-109679193D01*
X142995000Y-110030807D01*
X143025003Y-110181642D01*
X140551645Y-112655000D01*
X119429608Y-112655000D01*
X119380000Y-112650114D01*
X119182005Y-112669615D01*
X118991620Y-112727368D01*
X118816160Y-112821153D01*
X118662367Y-112947367D01*
X118630744Y-112985900D01*
X116957568Y-114659077D01*
X117140720Y-114216907D01*
X117266000Y-113587082D01*
X117266000Y-112944918D01*
X117140720Y-112315093D01*
X116894975Y-111721811D01*
X116538208Y-111187871D01*
X116526888Y-111176551D01*
X118875054Y-111176551D01*
X118949663Y-111423073D01*
X119209439Y-111546473D01*
X119488297Y-111616823D01*
X119775521Y-111631417D01*
X120060074Y-111589697D01*
X120331020Y-111493265D01*
X120462337Y-111423073D01*
X120536946Y-111176551D01*
X123375054Y-111176551D01*
X123449663Y-111423073D01*
X123709439Y-111546473D01*
X123988297Y-111616823D01*
X124275521Y-111631417D01*
X124560074Y-111589697D01*
X124831020Y-111493265D01*
X124962337Y-111423073D01*
X125036946Y-111176551D01*
X124206000Y-110345605D01*
X123375054Y-111176551D01*
X120536946Y-111176551D01*
X119706000Y-110345605D01*
X118875054Y-111176551D01*
X116526888Y-111176551D01*
X116084129Y-110733792D01*
X115550189Y-110377025D01*
X114956907Y-110131280D01*
X114327082Y-110006000D01*
X113684918Y-110006000D01*
X113055093Y-110131280D01*
X112461811Y-110377025D01*
X111927871Y-110733792D01*
X111473792Y-111187871D01*
X111117025Y-111721811D01*
X110871280Y-112315093D01*
X110746000Y-112944918D01*
X106807000Y-112944918D01*
X106807000Y-75822203D01*
X118246000Y-75822203D01*
X118246000Y-76109797D01*
X118302107Y-76391866D01*
X118412165Y-76657569D01*
X118571944Y-76896696D01*
X118775304Y-77100056D01*
X119014431Y-77259835D01*
X119280134Y-77369893D01*
X119562203Y-77426000D01*
X119849797Y-77426000D01*
X120131866Y-77369893D01*
X120397569Y-77259835D01*
X120636696Y-77100056D01*
X120840056Y-76896696D01*
X120999835Y-76657569D01*
X121109893Y-76391866D01*
X121166000Y-76109797D01*
X121166000Y-75822203D01*
X121109893Y-75540134D01*
X120999835Y-75274431D01*
X120840056Y-75035304D01*
X120636696Y-74831944D01*
X120397569Y-74672165D01*
X120131866Y-74562107D01*
X119849797Y-74506000D01*
X119562203Y-74506000D01*
X119280134Y-74562107D01*
X119014431Y-74672165D01*
X118775304Y-74831944D01*
X118571944Y-75035304D01*
X118412165Y-75274431D01*
X118302107Y-75540134D01*
X118246000Y-75822203D01*
X106807000Y-75822203D01*
X106807000Y-67094918D01*
X110746000Y-67094918D01*
X110746000Y-67737082D01*
X110871280Y-68366907D01*
X111117025Y-68960189D01*
X111473792Y-69494129D01*
X111927871Y-69948208D01*
X112461811Y-70304975D01*
X113055093Y-70550720D01*
X113684918Y-70676000D01*
X114327082Y-70676000D01*
X114956907Y-70550720D01*
X115550189Y-70304975D01*
X116084129Y-69948208D01*
X116538208Y-69494129D01*
X116894975Y-68960189D01*
X117140720Y-68366907D01*
X117266000Y-67737082D01*
X117266000Y-67094918D01*
X117140720Y-66465093D01*
X116894975Y-65871811D01*
X116538208Y-65337871D01*
X116084129Y-64883792D01*
X115550189Y-64527025D01*
X114956907Y-64281280D01*
X114327082Y-64156000D01*
X113684918Y-64156000D01*
X113055093Y-64281280D01*
X112461811Y-64527025D01*
X111927871Y-64883792D01*
X111473792Y-65337871D01*
X111117025Y-65871811D01*
X110871280Y-66465093D01*
X110746000Y-67094918D01*
X106807000Y-67094918D01*
X106807000Y-62282606D01*
X108002606Y-61087000D01*
X156157394Y-61087000D01*
X157353000Y-62282606D01*
X157353000Y-62282606D01*
G37*
X157353000Y-62282606D02*
X157353000Y-154887394D01*
X154887394Y-157353000D01*
X108002606Y-157353000D01*
X106807000Y-156157394D01*
X106807000Y-151794918D01*
X110746000Y-151794918D01*
X110746000Y-152437082D01*
X110871280Y-153066907D01*
X111117025Y-153660189D01*
X111473792Y-154194129D01*
X111927871Y-154648208D01*
X112461811Y-155004975D01*
X113055093Y-155250720D01*
X113684918Y-155376000D01*
X114327082Y-155376000D01*
X114956907Y-155250720D01*
X115550189Y-155004975D01*
X116084129Y-154648208D01*
X116538208Y-154194129D01*
X116894975Y-153660189D01*
X117140720Y-153066907D01*
X117266000Y-152437082D01*
X117266000Y-151794918D01*
X117140720Y-151165093D01*
X116894975Y-150571811D01*
X116538208Y-150037871D01*
X116084129Y-149583792D01*
X115550189Y-149227025D01*
X114956907Y-148981280D01*
X114327082Y-148856000D01*
X113684918Y-148856000D01*
X113055093Y-148981280D01*
X112461811Y-149227025D01*
X111927871Y-149583792D01*
X111473792Y-150037871D01*
X111117025Y-150571811D01*
X110871280Y-151165093D01*
X110746000Y-151794918D01*
X106807000Y-151794918D01*
X106807000Y-112944918D01*
X110746000Y-112944918D01*
X110746000Y-113587082D01*
X110871280Y-114216907D01*
X111117025Y-114810189D01*
X111473792Y-115344129D01*
X111927871Y-115798208D01*
X112461811Y-116154975D01*
X113055093Y-116400720D01*
X113684918Y-116526000D01*
X114327082Y-116526000D01*
X114956907Y-116400720D01*
X115399078Y-116217567D01*
X114890901Y-116725744D01*
X114852368Y-116757367D01*
X114820745Y-116795900D01*
X114820744Y-116795901D01*
X114726154Y-116911160D01*
X114632368Y-117086621D01*
X114574615Y-117277006D01*
X114555114Y-117475000D01*
X114560001Y-117524618D01*
X114560000Y-142880392D01*
X114555114Y-142930000D01*
X114560000Y-142979607D01*
X114574615Y-143127993D01*
X114632368Y-143318379D01*
X114726153Y-143493840D01*
X114852367Y-143647633D01*
X114890906Y-143679261D01*
X118246000Y-147034355D01*
X118246000Y-147209797D01*
X118302107Y-147491866D01*
X118412165Y-147757569D01*
X118571944Y-147996696D01*
X118775304Y-148200056D01*
X119014431Y-148359835D01*
X119280134Y-148469893D01*
X119562203Y-148526000D01*
X119737645Y-148526000D01*
X123020744Y-151809100D01*
X123052367Y-151847633D01*
X123206160Y-151973847D01*
X123381620Y-152067632D01*
X123572005Y-152125385D01*
X123770000Y-152144886D01*
X123819608Y-152140000D01*
X143433825Y-152140000D01*
X143470866Y-152185134D01*
X143696986Y-152370706D01*
X143954966Y-152508599D01*
X144234889Y-152593513D01*
X144453050Y-152615000D01*
X144598950Y-152615000D01*
X144817111Y-152593513D01*
X145097034Y-152508599D01*
X145355014Y-152370706D01*
X145581134Y-152185134D01*
X145766706Y-151959014D01*
X145904599Y-151701034D01*
X145989513Y-151421111D01*
X146018185Y-151130000D01*
X145989513Y-150838889D01*
X145904599Y-150558966D01*
X145766706Y-150300986D01*
X145581134Y-150074866D01*
X145355014Y-149889294D01*
X145300209Y-149860000D01*
X145355014Y-149830706D01*
X145581134Y-149645134D01*
X145766706Y-149419014D01*
X145904599Y-149161034D01*
X145989513Y-148881111D01*
X146018185Y-148590000D01*
X145989513Y-148298889D01*
X145904599Y-148018966D01*
X145766706Y-147760986D01*
X145581134Y-147534866D01*
X145355014Y-147349294D01*
X145300209Y-147320000D01*
X145355014Y-147290706D01*
X145581134Y-147105134D01*
X145766706Y-146879014D01*
X145904599Y-146621034D01*
X145989513Y-146341111D01*
X146018185Y-146050000D01*
X145989513Y-145758889D01*
X145904599Y-145478966D01*
X145766706Y-145220986D01*
X145581134Y-144994866D01*
X145355014Y-144809294D01*
X145300209Y-144780000D01*
X145355014Y-144750706D01*
X145581134Y-144565134D01*
X145766706Y-144339014D01*
X145904599Y-144081034D01*
X145989513Y-143801111D01*
X146018185Y-143510000D01*
X145989513Y-143218889D01*
X145904599Y-142938966D01*
X145766706Y-142680986D01*
X145581134Y-142454866D01*
X145355014Y-142269294D01*
X145300209Y-142240000D01*
X145355014Y-142210706D01*
X145581134Y-142025134D01*
X145766706Y-141799014D01*
X145904599Y-141541034D01*
X145989513Y-141261111D01*
X146018185Y-140970000D01*
X145989513Y-140678889D01*
X145904599Y-140398966D01*
X145766706Y-140140986D01*
X145581134Y-139914866D01*
X145355014Y-139729294D01*
X145290477Y-139694799D01*
X145407355Y-139625178D01*
X145623588Y-139430269D01*
X145797641Y-139196920D01*
X145922825Y-138934099D01*
X145967476Y-138786890D01*
X145846155Y-138557000D01*
X144653000Y-138557000D01*
X144653000Y-138577000D01*
X144399000Y-138577000D01*
X144399000Y-138557000D01*
X143205845Y-138557000D01*
X143084524Y-138786890D01*
X143129175Y-138934099D01*
X143254359Y-139196920D01*
X143428412Y-139430269D01*
X143644645Y-139625178D01*
X143761523Y-139694799D01*
X143696986Y-139729294D01*
X143470866Y-139914866D01*
X143285294Y-140140986D01*
X143147401Y-140398966D01*
X143062487Y-140678889D01*
X143033815Y-140970000D01*
X143062487Y-141261111D01*
X143085203Y-141335996D01*
X142941199Y-141480000D01*
X134299802Y-141480000D01*
X129066692Y-136246890D01*
X143084524Y-136246890D01*
X143129175Y-136394099D01*
X143254359Y-136656920D01*
X143428412Y-136890269D01*
X143644645Y-137085178D01*
X143770255Y-137160000D01*
X143644645Y-137234822D01*
X143428412Y-137429731D01*
X143254359Y-137663080D01*
X143129175Y-137925901D01*
X143084524Y-138073110D01*
X143205845Y-138303000D01*
X144399000Y-138303000D01*
X144399000Y-136017000D01*
X144653000Y-136017000D01*
X144653000Y-138303000D01*
X145846155Y-138303000D01*
X145967476Y-138073110D01*
X145922825Y-137925901D01*
X145797641Y-137663080D01*
X145623588Y-137429731D01*
X145407355Y-137234822D01*
X145281745Y-137160000D01*
X145407355Y-137085178D01*
X145623588Y-136890269D01*
X145797641Y-136656920D01*
X145922825Y-136394099D01*
X145967476Y-136246890D01*
X145846155Y-136017000D01*
X144653000Y-136017000D01*
X144399000Y-136017000D01*
X143205845Y-136017000D01*
X143084524Y-136246890D01*
X129066692Y-136246890D01*
X127760000Y-134940199D01*
X127760000Y-133706890D01*
X143084524Y-133706890D01*
X143129175Y-133854099D01*
X143254359Y-134116920D01*
X143428412Y-134350269D01*
X143644645Y-134545178D01*
X143770255Y-134620000D01*
X143644645Y-134694822D01*
X143428412Y-134889731D01*
X143254359Y-135123080D01*
X143129175Y-135385901D01*
X143084524Y-135533110D01*
X143205845Y-135763000D01*
X144399000Y-135763000D01*
X144399000Y-133477000D01*
X144653000Y-133477000D01*
X144653000Y-135763000D01*
X145846155Y-135763000D01*
X145967476Y-135533110D01*
X145922825Y-135385901D01*
X145797641Y-135123080D01*
X145623588Y-134889731D01*
X145407355Y-134694822D01*
X145281745Y-134620000D01*
X145407355Y-134545178D01*
X145623588Y-134350269D01*
X145797641Y-134116920D01*
X145922825Y-133854099D01*
X145967476Y-133706890D01*
X145846155Y-133477000D01*
X144653000Y-133477000D01*
X144399000Y-133477000D01*
X143205845Y-133477000D01*
X143084524Y-133706890D01*
X127760000Y-133706890D01*
X127760000Y-132117323D01*
X127763676Y-132080000D01*
X127760000Y-132042677D01*
X127760000Y-132042667D01*
X127749003Y-131931014D01*
X127705546Y-131787753D01*
X127634974Y-131655724D01*
X127540001Y-131539999D01*
X127511003Y-131516201D01*
X127161692Y-131166890D01*
X143084524Y-131166890D01*
X143129175Y-131314099D01*
X143254359Y-131576920D01*
X143428412Y-131810269D01*
X143644645Y-132005178D01*
X143770255Y-132080000D01*
X143644645Y-132154822D01*
X143428412Y-132349731D01*
X143254359Y-132583080D01*
X143129175Y-132845901D01*
X143084524Y-132993110D01*
X143205845Y-133223000D01*
X144399000Y-133223000D01*
X144399000Y-130937000D01*
X144653000Y-130937000D01*
X144653000Y-133223000D01*
X145846155Y-133223000D01*
X145967476Y-132993110D01*
X145922825Y-132845901D01*
X145797641Y-132583080D01*
X145623588Y-132349731D01*
X145407355Y-132154822D01*
X145281745Y-132080000D01*
X145407355Y-132005178D01*
X145623588Y-131810269D01*
X145797641Y-131576920D01*
X145922825Y-131314099D01*
X145967476Y-131166890D01*
X145846155Y-130937000D01*
X144653000Y-130937000D01*
X144399000Y-130937000D01*
X143205845Y-130937000D01*
X143084524Y-131166890D01*
X127161692Y-131166890D01*
X125658804Y-129664003D01*
X125635001Y-129634999D01*
X125519276Y-129540026D01*
X125387247Y-129469454D01*
X125295215Y-129441537D01*
X125340056Y-129396696D01*
X125499835Y-129157569D01*
X125609893Y-128891866D01*
X125666000Y-128609797D01*
X125666000Y-128322203D01*
X125609893Y-128040134D01*
X125499835Y-127774431D01*
X125340056Y-127535304D01*
X125136696Y-127331944D01*
X124897569Y-127172165D01*
X124631866Y-127062107D01*
X124349797Y-127006000D01*
X124062203Y-127006000D01*
X123780134Y-127062107D01*
X123514431Y-127172165D01*
X123275304Y-127331944D01*
X123071944Y-127535304D01*
X122912165Y-127774431D01*
X122802107Y-128040134D01*
X122746000Y-128322203D01*
X122746000Y-128609797D01*
X122802107Y-128891866D01*
X122912165Y-129157569D01*
X123071944Y-129396696D01*
X123090248Y-129415000D01*
X121729802Y-129415000D01*
X121125949Y-128811148D01*
X121166000Y-128609797D01*
X121166000Y-128322203D01*
X121109893Y-128040134D01*
X120999835Y-127774431D01*
X120840056Y-127535304D01*
X120636696Y-127331944D01*
X120397569Y-127172165D01*
X120131866Y-127062107D01*
X119849797Y-127006000D01*
X119562203Y-127006000D01*
X119280134Y-127062107D01*
X119014431Y-127172165D01*
X118775304Y-127331944D01*
X118571944Y-127535304D01*
X118412165Y-127774431D01*
X118302107Y-128040134D01*
X118246000Y-128322203D01*
X118246000Y-128609797D01*
X118302107Y-128891866D01*
X118412165Y-129157569D01*
X118571944Y-129396696D01*
X118775304Y-129600056D01*
X119014431Y-129759835D01*
X119280134Y-129869893D01*
X119562203Y-129926000D01*
X119849797Y-129926000D01*
X120051148Y-129885949D01*
X120294792Y-130129593D01*
X120131866Y-130062107D01*
X119849797Y-130006000D01*
X119562203Y-130006000D01*
X119280134Y-130062107D01*
X119014431Y-130172165D01*
X118775304Y-130331944D01*
X118571944Y-130535304D01*
X118412165Y-130774431D01*
X118302107Y-131040134D01*
X118246000Y-131322203D01*
X118246000Y-131609797D01*
X118302107Y-131891866D01*
X118412165Y-132157569D01*
X118571944Y-132396696D01*
X118775304Y-132600056D01*
X119014431Y-132759835D01*
X119280134Y-132869893D01*
X119562203Y-132926000D01*
X119849797Y-132926000D01*
X120131866Y-132869893D01*
X120397569Y-132759835D01*
X120636696Y-132600056D01*
X120840056Y-132396696D01*
X120999835Y-132157569D01*
X121109893Y-131891866D01*
X121166000Y-131609797D01*
X121166000Y-131322203D01*
X121109893Y-131040134D01*
X121021335Y-130826336D01*
X121122753Y-130880546D01*
X121266014Y-130924003D01*
X121377667Y-130935000D01*
X121377676Y-130935000D01*
X121414999Y-130938676D01*
X121452322Y-130935000D01*
X122845655Y-130935000D01*
X122802107Y-131040134D01*
X122746000Y-131322203D01*
X122746000Y-131609797D01*
X122802107Y-131891866D01*
X122912165Y-132157569D01*
X123071944Y-132396696D01*
X123275304Y-132600056D01*
X123514431Y-132759835D01*
X123780134Y-132869893D01*
X124062203Y-132926000D01*
X124349797Y-132926000D01*
X124631866Y-132869893D01*
X124897569Y-132759835D01*
X125136696Y-132600056D01*
X125340056Y-132396696D01*
X125499835Y-132157569D01*
X125609893Y-131891866D01*
X125630992Y-131785794D01*
X126240001Y-132394803D01*
X126240000Y-135217677D01*
X126236324Y-135255000D01*
X126240000Y-135292322D01*
X126240000Y-135292332D01*
X126250997Y-135403985D01*
X126290166Y-135533110D01*
X126294454Y-135547246D01*
X126365026Y-135679276D01*
X126404871Y-135727826D01*
X126459999Y-135795001D01*
X126489003Y-135818804D01*
X133421201Y-142751003D01*
X133444999Y-142780001D01*
X133560724Y-142874974D01*
X133692753Y-142945546D01*
X133836014Y-142989003D01*
X133947667Y-143000000D01*
X133947675Y-143000000D01*
X133985000Y-143003676D01*
X134022325Y-143000000D01*
X143128886Y-143000000D01*
X143062487Y-143218889D01*
X143046126Y-143385000D01*
X133664802Y-143385000D01*
X125658804Y-135379003D01*
X125635001Y-135349999D01*
X125519276Y-135255026D01*
X125456969Y-135221722D01*
X125499835Y-135157569D01*
X125609893Y-134891866D01*
X125666000Y-134609797D01*
X125666000Y-134322203D01*
X125609893Y-134040134D01*
X125499835Y-133774431D01*
X125340056Y-133535304D01*
X125136696Y-133331944D01*
X124897569Y-133172165D01*
X124631866Y-133062107D01*
X124349797Y-133006000D01*
X124062203Y-133006000D01*
X123780134Y-133062107D01*
X123514431Y-133172165D01*
X123275304Y-133331944D01*
X123071944Y-133535304D01*
X122912165Y-133774431D01*
X122802107Y-134040134D01*
X122746000Y-134322203D01*
X122746000Y-134609797D01*
X122802107Y-134891866D01*
X122900746Y-135130000D01*
X121319323Y-135130000D01*
X121282000Y-135126324D01*
X121244677Y-135130000D01*
X121244667Y-135130000D01*
X121133014Y-135140997D01*
X120989753Y-135184454D01*
X120977492Y-135191008D01*
X120999835Y-135157569D01*
X121109893Y-134891866D01*
X121166000Y-134609797D01*
X121166000Y-134322203D01*
X121109893Y-134040134D01*
X120999835Y-133774431D01*
X120840056Y-133535304D01*
X120636696Y-133331944D01*
X120397569Y-133172165D01*
X120131866Y-133062107D01*
X119849797Y-133006000D01*
X119562203Y-133006000D01*
X119280134Y-133062107D01*
X119014431Y-133172165D01*
X118775304Y-133331944D01*
X118571944Y-133535304D01*
X118412165Y-133774431D01*
X118302107Y-134040134D01*
X118246000Y-134322203D01*
X118246000Y-134609797D01*
X118302107Y-134891866D01*
X118412165Y-135157569D01*
X118571944Y-135396696D01*
X118775304Y-135600056D01*
X119014431Y-135759835D01*
X119280134Y-135869893D01*
X119562203Y-135926000D01*
X119849797Y-135926000D01*
X120131866Y-135869893D01*
X120294792Y-135802407D01*
X120051148Y-136046051D01*
X119849797Y-136006000D01*
X119562203Y-136006000D01*
X119280134Y-136062107D01*
X119014431Y-136172165D01*
X118775304Y-136331944D01*
X118571944Y-136535304D01*
X118412165Y-136774431D01*
X118302107Y-137040134D01*
X118246000Y-137322203D01*
X118246000Y-137609797D01*
X118302107Y-137891866D01*
X118412165Y-138157569D01*
X118571944Y-138396696D01*
X118775304Y-138600056D01*
X119014431Y-138759835D01*
X119280134Y-138869893D01*
X119562203Y-138926000D01*
X119849797Y-138926000D01*
X120131866Y-138869893D01*
X120397569Y-138759835D01*
X120636696Y-138600056D01*
X120840056Y-138396696D01*
X120999835Y-138157569D01*
X121109893Y-137891866D01*
X121166000Y-137609797D01*
X121166000Y-137322203D01*
X121125949Y-137120852D01*
X121596802Y-136650000D01*
X122995307Y-136650000D01*
X122912165Y-136774431D01*
X122802107Y-137040134D01*
X122746000Y-137322203D01*
X122746000Y-137609797D01*
X122802107Y-137891866D01*
X122912165Y-138157569D01*
X123071944Y-138396696D01*
X123275304Y-138600056D01*
X123514431Y-138759835D01*
X123780134Y-138869893D01*
X124062203Y-138926000D01*
X124349797Y-138926000D01*
X124551148Y-138885949D01*
X124794792Y-139129593D01*
X124631866Y-139062107D01*
X124349797Y-139006000D01*
X124062203Y-139006000D01*
X123780134Y-139062107D01*
X123514431Y-139172165D01*
X123275304Y-139331944D01*
X123071944Y-139535304D01*
X122912165Y-139774431D01*
X122802107Y-140040134D01*
X122746000Y-140322203D01*
X122746000Y-140609797D01*
X122802107Y-140891866D01*
X122912165Y-141157569D01*
X123071944Y-141396696D01*
X123275304Y-141600056D01*
X123514431Y-141759835D01*
X123780134Y-141869893D01*
X124062203Y-141926000D01*
X124349797Y-141926000D01*
X124631866Y-141869893D01*
X124897569Y-141759835D01*
X125136696Y-141600056D01*
X125340056Y-141396696D01*
X125499835Y-141157569D01*
X125609893Y-140891866D01*
X125666000Y-140609797D01*
X125666000Y-140322203D01*
X125609893Y-140040134D01*
X125542407Y-139877208D01*
X132226201Y-146561003D01*
X132249999Y-146590001D01*
X132365724Y-146684974D01*
X132497753Y-146755546D01*
X132641014Y-146799003D01*
X132752667Y-146810000D01*
X132752676Y-146810000D01*
X132789999Y-146813676D01*
X132827322Y-146810000D01*
X143248405Y-146810000D01*
X143285294Y-146879014D01*
X143470866Y-147105134D01*
X143696986Y-147290706D01*
X143751791Y-147320000D01*
X143696986Y-147349294D01*
X143470866Y-147534866D01*
X143433825Y-147580000D01*
X126148356Y-147580000D01*
X125666000Y-147097645D01*
X125666000Y-146922203D01*
X125609893Y-146640134D01*
X125499835Y-146374431D01*
X125340056Y-146135304D01*
X125136696Y-145931944D01*
X124897569Y-145772165D01*
X124631866Y-145662107D01*
X124349797Y-145606000D01*
X124062203Y-145606000D01*
X123780134Y-145662107D01*
X123514431Y-145772165D01*
X123275304Y-145931944D01*
X123071944Y-146135304D01*
X122912165Y-146374431D01*
X122802107Y-146640134D01*
X122746000Y-146922203D01*
X122746000Y-147209797D01*
X122802107Y-147491866D01*
X122912165Y-147757569D01*
X123071944Y-147996696D01*
X123275304Y-148200056D01*
X123514431Y-148359835D01*
X123780134Y-148469893D01*
X124062203Y-148526000D01*
X124237645Y-148526000D01*
X124980744Y-149269099D01*
X125012367Y-149307633D01*
X125166160Y-149433847D01*
X125341620Y-149527632D01*
X125532006Y-149585385D01*
X125680392Y-149600000D01*
X125680401Y-149600000D01*
X125729999Y-149604885D01*
X125779597Y-149600000D01*
X143433825Y-149600000D01*
X143470866Y-149645134D01*
X143696986Y-149830706D01*
X143751791Y-149860000D01*
X143696986Y-149889294D01*
X143470866Y-150074866D01*
X143433825Y-150120000D01*
X124188356Y-150120000D01*
X121166000Y-147097645D01*
X121166000Y-146922203D01*
X121109893Y-146640134D01*
X120999835Y-146374431D01*
X120840056Y-146135304D01*
X120636696Y-145931944D01*
X120397569Y-145772165D01*
X120131866Y-145662107D01*
X119849797Y-145606000D01*
X119674355Y-145606000D01*
X117490558Y-143422203D01*
X118246000Y-143422203D01*
X118246000Y-143709797D01*
X118302107Y-143991866D01*
X118412165Y-144257569D01*
X118571944Y-144496696D01*
X118775304Y-144700056D01*
X119014431Y-144859835D01*
X119280134Y-144969893D01*
X119562203Y-145026000D01*
X119849797Y-145026000D01*
X120131866Y-144969893D01*
X120397569Y-144859835D01*
X120636696Y-144700056D01*
X120840056Y-144496696D01*
X120999835Y-144257569D01*
X121109893Y-143991866D01*
X121166000Y-143709797D01*
X121166000Y-143422203D01*
X122746000Y-143422203D01*
X122746000Y-143709797D01*
X122802107Y-143991866D01*
X122912165Y-144257569D01*
X123071944Y-144496696D01*
X123275304Y-144700056D01*
X123514431Y-144859835D01*
X123780134Y-144969893D01*
X124062203Y-145026000D01*
X124349797Y-145026000D01*
X124631866Y-144969893D01*
X124897569Y-144859835D01*
X125136696Y-144700056D01*
X125340056Y-144496696D01*
X125499835Y-144257569D01*
X125609893Y-143991866D01*
X125666000Y-143709797D01*
X125666000Y-143422203D01*
X125609893Y-143140134D01*
X125499835Y-142874431D01*
X125340056Y-142635304D01*
X125136696Y-142431944D01*
X124897569Y-142272165D01*
X124631866Y-142162107D01*
X124349797Y-142106000D01*
X124062203Y-142106000D01*
X123780134Y-142162107D01*
X123514431Y-142272165D01*
X123275304Y-142431944D01*
X123071944Y-142635304D01*
X122912165Y-142874431D01*
X122802107Y-143140134D01*
X122746000Y-143422203D01*
X121166000Y-143422203D01*
X121109893Y-143140134D01*
X120999835Y-142874431D01*
X120840056Y-142635304D01*
X120636696Y-142431944D01*
X120397569Y-142272165D01*
X120131866Y-142162107D01*
X119849797Y-142106000D01*
X119562203Y-142106000D01*
X119280134Y-142162107D01*
X119014431Y-142272165D01*
X118775304Y-142431944D01*
X118571944Y-142635304D01*
X118412165Y-142874431D01*
X118302107Y-143140134D01*
X118246000Y-143422203D01*
X117490558Y-143422203D01*
X116580000Y-142511645D01*
X116580000Y-140322203D01*
X118246000Y-140322203D01*
X118246000Y-140609797D01*
X118302107Y-140891866D01*
X118412165Y-141157569D01*
X118571944Y-141396696D01*
X118775304Y-141600056D01*
X119014431Y-141759835D01*
X119280134Y-141869893D01*
X119562203Y-141926000D01*
X119849797Y-141926000D01*
X120131866Y-141869893D01*
X120397569Y-141759835D01*
X120636696Y-141600056D01*
X120840056Y-141396696D01*
X120999835Y-141157569D01*
X121109893Y-140891866D01*
X121166000Y-140609797D01*
X121166000Y-140322203D01*
X121109893Y-140040134D01*
X120999835Y-139774431D01*
X120840056Y-139535304D01*
X120636696Y-139331944D01*
X120397569Y-139172165D01*
X120131866Y-139062107D01*
X119849797Y-139006000D01*
X119562203Y-139006000D01*
X119280134Y-139062107D01*
X119014431Y-139172165D01*
X118775304Y-139331944D01*
X118571944Y-139535304D01*
X118412165Y-139774431D01*
X118302107Y-140040134D01*
X118246000Y-140322203D01*
X116580000Y-140322203D01*
X116580000Y-125322203D01*
X118246000Y-125322203D01*
X118246000Y-125609797D01*
X118302107Y-125891866D01*
X118412165Y-126157569D01*
X118571944Y-126396696D01*
X118775304Y-126600056D01*
X119014431Y-126759835D01*
X119280134Y-126869893D01*
X119562203Y-126926000D01*
X119849797Y-126926000D01*
X120131866Y-126869893D01*
X120397569Y-126759835D01*
X120636696Y-126600056D01*
X120840056Y-126396696D01*
X120999835Y-126157569D01*
X121109893Y-125891866D01*
X121166000Y-125609797D01*
X121166000Y-125322203D01*
X122746000Y-125322203D01*
X122746000Y-125609797D01*
X122802107Y-125891866D01*
X122912165Y-126157569D01*
X123071944Y-126396696D01*
X123275304Y-126600056D01*
X123514431Y-126759835D01*
X123780134Y-126869893D01*
X124062203Y-126926000D01*
X124349797Y-126926000D01*
X124631866Y-126869893D01*
X124897569Y-126759835D01*
X125136696Y-126600056D01*
X125340056Y-126396696D01*
X125499835Y-126157569D01*
X125609893Y-125891866D01*
X125666000Y-125609797D01*
X125666000Y-125322203D01*
X125609893Y-125040134D01*
X125499835Y-124774431D01*
X125340056Y-124535304D01*
X125136696Y-124331944D01*
X124897569Y-124172165D01*
X124631866Y-124062107D01*
X124349797Y-124006000D01*
X124062203Y-124006000D01*
X123780134Y-124062107D01*
X123514431Y-124172165D01*
X123275304Y-124331944D01*
X123071944Y-124535304D01*
X122912165Y-124774431D01*
X122802107Y-125040134D01*
X122746000Y-125322203D01*
X121166000Y-125322203D01*
X121109893Y-125040134D01*
X120999835Y-124774431D01*
X120840056Y-124535304D01*
X120636696Y-124331944D01*
X120397569Y-124172165D01*
X120131866Y-124062107D01*
X119849797Y-124006000D01*
X119562203Y-124006000D01*
X119280134Y-124062107D01*
X119014431Y-124172165D01*
X118775304Y-124331944D01*
X118571944Y-124535304D01*
X118412165Y-124774431D01*
X118302107Y-125040134D01*
X118246000Y-125322203D01*
X116580000Y-125322203D01*
X116580000Y-117893355D01*
X118246000Y-116227356D01*
X118246000Y-116509797D01*
X118302107Y-116791866D01*
X118412165Y-117057569D01*
X118571944Y-117296696D01*
X118775304Y-117500056D01*
X119014431Y-117659835D01*
X119280134Y-117769893D01*
X119562203Y-117826000D01*
X119849797Y-117826000D01*
X120131866Y-117769893D01*
X120397569Y-117659835D01*
X120636696Y-117500056D01*
X120840056Y-117296696D01*
X120999835Y-117057569D01*
X121109893Y-116791866D01*
X121166000Y-116509797D01*
X121166000Y-116222203D01*
X121125949Y-116020852D01*
X121170802Y-115975999D01*
X122794973Y-115975999D01*
X122746000Y-116222203D01*
X122746000Y-116509797D01*
X122802107Y-116791866D01*
X122912165Y-117057569D01*
X123071944Y-117296696D01*
X123275304Y-117500056D01*
X123514431Y-117659835D01*
X123780134Y-117769893D01*
X124062203Y-117826000D01*
X124349797Y-117826000D01*
X124631866Y-117769893D01*
X124897569Y-117659835D01*
X125136696Y-117500056D01*
X125340056Y-117296696D01*
X125499835Y-117057569D01*
X125609893Y-116791866D01*
X125666000Y-116509797D01*
X125666000Y-116222203D01*
X125617027Y-115975999D01*
X135137198Y-115975999D01*
X139467197Y-120305999D01*
X125400658Y-120305999D01*
X125499835Y-120157569D01*
X125609893Y-119891866D01*
X125666000Y-119609797D01*
X125666000Y-119322203D01*
X125609893Y-119040134D01*
X125499835Y-118774431D01*
X125340056Y-118535304D01*
X125136696Y-118331944D01*
X124897569Y-118172165D01*
X124631866Y-118062107D01*
X124349797Y-118006000D01*
X124062203Y-118006000D01*
X123780134Y-118062107D01*
X123514431Y-118172165D01*
X123275304Y-118331944D01*
X123071944Y-118535304D01*
X122912165Y-118774431D01*
X122802107Y-119040134D01*
X122746000Y-119322203D01*
X122746000Y-119609797D01*
X122802107Y-119891866D01*
X122912165Y-120157569D01*
X123011342Y-120305999D01*
X121024470Y-120305999D01*
X120981001Y-120301718D01*
X120937532Y-120305999D01*
X120937524Y-120305999D01*
X120898061Y-120309886D01*
X120999835Y-120157569D01*
X121109893Y-119891866D01*
X121166000Y-119609797D01*
X121166000Y-119322203D01*
X121109893Y-119040134D01*
X120999835Y-118774431D01*
X120840056Y-118535304D01*
X120636696Y-118331944D01*
X120397569Y-118172165D01*
X120131866Y-118062107D01*
X119849797Y-118006000D01*
X119562203Y-118006000D01*
X119280134Y-118062107D01*
X119014431Y-118172165D01*
X118775304Y-118331944D01*
X118571944Y-118535304D01*
X118412165Y-118774431D01*
X118302107Y-119040134D01*
X118246000Y-119322203D01*
X118246000Y-119609797D01*
X118302107Y-119891866D01*
X118412165Y-120157569D01*
X118571944Y-120396696D01*
X118775304Y-120600056D01*
X119014431Y-120759835D01*
X119280134Y-120869893D01*
X119562203Y-120926000D01*
X119849797Y-120926000D01*
X120030333Y-120890089D01*
X119935958Y-120984464D01*
X119935952Y-120984469D01*
X119903699Y-121016722D01*
X119849797Y-121006000D01*
X119562203Y-121006000D01*
X119280134Y-121062107D01*
X119014431Y-121172165D01*
X118775304Y-121331944D01*
X118571944Y-121535304D01*
X118412165Y-121774431D01*
X118302107Y-122040134D01*
X118246000Y-122322203D01*
X118246000Y-122609797D01*
X118302107Y-122891866D01*
X118412165Y-123157569D01*
X118571944Y-123396696D01*
X118775304Y-123600056D01*
X119014431Y-123759835D01*
X119280134Y-123869893D01*
X119562203Y-123926000D01*
X119849797Y-123926000D01*
X120131866Y-123869893D01*
X120397569Y-123759835D01*
X120636696Y-123600056D01*
X120840056Y-123396696D01*
X120999835Y-123157569D01*
X121109893Y-122891866D01*
X121166000Y-122609797D01*
X121166000Y-122322203D01*
X121155278Y-122268301D01*
X121187531Y-122236048D01*
X121187536Y-122236042D01*
X121347579Y-122075999D01*
X122794973Y-122075999D01*
X122746000Y-122322203D01*
X122746000Y-122609797D01*
X122802107Y-122891866D01*
X122912165Y-123157569D01*
X123071944Y-123396696D01*
X123275304Y-123600056D01*
X123514431Y-123759835D01*
X123780134Y-123869893D01*
X124062203Y-123926000D01*
X124349797Y-123926000D01*
X124631866Y-123869893D01*
X124897569Y-123759835D01*
X125136696Y-123600056D01*
X125340056Y-123396696D01*
X125499835Y-123157569D01*
X125609893Y-122891866D01*
X125666000Y-122609797D01*
X125666000Y-122322203D01*
X125617027Y-122075999D01*
X139620421Y-122075999D01*
X143055388Y-125510967D01*
X143033815Y-125730000D01*
X143062487Y-126021111D01*
X143147401Y-126301034D01*
X143285294Y-126559014D01*
X143470866Y-126785134D01*
X143696986Y-126970706D01*
X143751791Y-127000000D01*
X143696986Y-127029294D01*
X143470866Y-127214866D01*
X143285294Y-127440986D01*
X143147401Y-127698966D01*
X143062487Y-127978889D01*
X143033815Y-128270000D01*
X143062487Y-128561111D01*
X143147401Y-128841034D01*
X143285294Y-129099014D01*
X143470866Y-129325134D01*
X143696986Y-129510706D01*
X143761523Y-129545201D01*
X143644645Y-129614822D01*
X143428412Y-129809731D01*
X143254359Y-130043080D01*
X143129175Y-130305901D01*
X143084524Y-130453110D01*
X143205845Y-130683000D01*
X144399000Y-130683000D01*
X144399000Y-130663000D01*
X144653000Y-130663000D01*
X144653000Y-130683000D01*
X145846155Y-130683000D01*
X145967476Y-130453110D01*
X145922825Y-130305901D01*
X145797641Y-130043080D01*
X145623588Y-129809731D01*
X145407355Y-129614822D01*
X145290477Y-129545201D01*
X145355014Y-129510706D01*
X145581134Y-129325134D01*
X145766706Y-129099014D01*
X145904599Y-128841034D01*
X145989513Y-128561111D01*
X146018185Y-128270000D01*
X146012462Y-128211893D01*
X147999100Y-126225256D01*
X148037633Y-126193633D01*
X148163847Y-126039840D01*
X148257632Y-125864380D01*
X148315385Y-125673994D01*
X148330000Y-125525608D01*
X148330000Y-125525607D01*
X148334886Y-125476000D01*
X148330000Y-125426392D01*
X148330000Y-114759193D01*
X150615000Y-114759193D01*
X150615000Y-115110807D01*
X150683596Y-115455665D01*
X150818153Y-115780515D01*
X151013500Y-116072871D01*
X151262129Y-116321500D01*
X151554485Y-116516847D01*
X151879335Y-116651404D01*
X152224193Y-116720000D01*
X152575807Y-116720000D01*
X152920665Y-116651404D01*
X153245515Y-116516847D01*
X153537871Y-116321500D01*
X153786500Y-116072871D01*
X153981847Y-115780515D01*
X154116404Y-115455665D01*
X154185000Y-115110807D01*
X154185000Y-114759193D01*
X154116404Y-114414335D01*
X153981847Y-114089485D01*
X153786500Y-113797129D01*
X153537871Y-113548500D01*
X153245515Y-113353153D01*
X152920665Y-113218596D01*
X152575807Y-113150000D01*
X152224193Y-113150000D01*
X151879335Y-113218596D01*
X151554485Y-113353153D01*
X151262129Y-113548500D01*
X151013500Y-113797129D01*
X150818153Y-114089485D01*
X150683596Y-114414335D01*
X150615000Y-114759193D01*
X148330000Y-114759193D01*
X148330000Y-112306355D01*
X149904100Y-110732256D01*
X149942633Y-110700633D01*
X150068847Y-110546840D01*
X150162632Y-110371380D01*
X150170451Y-110345605D01*
X150220385Y-110180995D01*
X150239886Y-109983000D01*
X150235000Y-109933392D01*
X150235000Y-103288355D01*
X152073358Y-101449997D01*
X152224193Y-101480000D01*
X152575807Y-101480000D01*
X152920665Y-101411404D01*
X153245515Y-101276847D01*
X153537871Y-101081500D01*
X153786500Y-100832871D01*
X153981847Y-100540515D01*
X154116404Y-100215665D01*
X154185000Y-99870807D01*
X154185000Y-99519193D01*
X154116404Y-99174335D01*
X153981847Y-98849485D01*
X153786500Y-98557129D01*
X153537871Y-98308500D01*
X153285000Y-98139536D01*
X153285000Y-97833469D01*
X153289281Y-97790000D01*
X153285000Y-97746531D01*
X153285000Y-97746523D01*
X153272195Y-97616510D01*
X153221589Y-97449687D01*
X153221589Y-97449686D01*
X153139411Y-97295941D01*
X153056532Y-97194953D01*
X153056530Y-97194951D01*
X153028817Y-97161183D01*
X152995049Y-97133470D01*
X152421534Y-96559956D01*
X152393817Y-96526183D01*
X152259059Y-96415589D01*
X152105313Y-96333411D01*
X151938490Y-96282805D01*
X151808477Y-96270000D01*
X151808469Y-96270000D01*
X151765000Y-96265719D01*
X151721531Y-96270000D01*
X143744466Y-96270000D01*
X143700999Y-96265719D01*
X143657533Y-96270000D01*
X143657523Y-96270000D01*
X143527510Y-96282805D01*
X143360687Y-96333411D01*
X143206941Y-96415589D01*
X143206939Y-96415590D01*
X143206940Y-96415590D01*
X143105953Y-96498468D01*
X143105951Y-96498470D01*
X143072183Y-96526183D01*
X143044470Y-96559951D01*
X131904422Y-107700000D01*
X125245874Y-107700000D01*
X125332741Y-107613133D01*
X125216553Y-107496945D01*
X125463073Y-107422337D01*
X125586473Y-107162561D01*
X125656823Y-106883703D01*
X125671417Y-106596479D01*
X125629697Y-106311926D01*
X125533265Y-106040980D01*
X125463073Y-105909663D01*
X125216551Y-105835054D01*
X124385605Y-106666000D01*
X124399748Y-106680143D01*
X124220143Y-106859748D01*
X124206000Y-106845605D01*
X124191858Y-106859748D01*
X124012253Y-106680143D01*
X124026395Y-106666000D01*
X123195449Y-105835054D01*
X122948927Y-105909663D01*
X122825527Y-106169439D01*
X122755177Y-106448297D01*
X122740583Y-106735521D01*
X122782303Y-107020074D01*
X122878735Y-107291020D01*
X122948927Y-107422337D01*
X123195447Y-107496945D01*
X123079259Y-107613133D01*
X123166126Y-107700000D01*
X120745874Y-107700000D01*
X120832741Y-107613133D01*
X120716553Y-107496945D01*
X120963073Y-107422337D01*
X121086473Y-107162561D01*
X121156823Y-106883703D01*
X121171417Y-106596479D01*
X121129697Y-106311926D01*
X121033265Y-106040980D01*
X120963073Y-105909663D01*
X120716551Y-105835054D01*
X119885605Y-106666000D01*
X119899748Y-106680143D01*
X119720143Y-106859748D01*
X119706000Y-106845605D01*
X119691858Y-106859748D01*
X119512253Y-106680143D01*
X119526395Y-106666000D01*
X118695449Y-105835054D01*
X118448927Y-105909663D01*
X118360000Y-106096868D01*
X118360000Y-105655449D01*
X118875054Y-105655449D01*
X119706000Y-106486395D01*
X120536946Y-105655449D01*
X123375054Y-105655449D01*
X124206000Y-106486395D01*
X125036946Y-105655449D01*
X124962337Y-105408927D01*
X124702561Y-105285527D01*
X124423703Y-105215177D01*
X124136479Y-105200583D01*
X123851926Y-105242303D01*
X123580980Y-105338735D01*
X123449663Y-105408927D01*
X123375054Y-105655449D01*
X120536946Y-105655449D01*
X120462337Y-105408927D01*
X120202561Y-105285527D01*
X119923703Y-105215177D01*
X119636479Y-105200583D01*
X119351926Y-105242303D01*
X119080980Y-105338735D01*
X118949663Y-105408927D01*
X118875054Y-105655449D01*
X118360000Y-105655449D01*
X118360000Y-104131632D01*
X118412165Y-104257569D01*
X118571944Y-104496696D01*
X118775304Y-104700056D01*
X119014431Y-104859835D01*
X119280134Y-104969893D01*
X119562203Y-105026000D01*
X119849797Y-105026000D01*
X120131866Y-104969893D01*
X120397569Y-104859835D01*
X120636696Y-104700056D01*
X120840056Y-104496696D01*
X120999835Y-104257569D01*
X121109893Y-103991866D01*
X121166000Y-103709797D01*
X121166000Y-103422203D01*
X121109893Y-103140134D01*
X120999835Y-102874431D01*
X120840056Y-102635304D01*
X120636696Y-102431944D01*
X120397569Y-102272165D01*
X120131866Y-102162107D01*
X119849797Y-102106000D01*
X119562203Y-102106000D01*
X119280134Y-102162107D01*
X119014431Y-102272165D01*
X118775304Y-102431944D01*
X118571944Y-102635304D01*
X118412165Y-102874431D01*
X118360000Y-103000368D01*
X118360000Y-101131632D01*
X118412165Y-101257569D01*
X118571944Y-101496696D01*
X118775304Y-101700056D01*
X119014431Y-101859835D01*
X119280134Y-101969893D01*
X119562203Y-102026000D01*
X119849797Y-102026000D01*
X120131866Y-101969893D01*
X120397569Y-101859835D01*
X120636696Y-101700056D01*
X120840056Y-101496696D01*
X120999835Y-101257569D01*
X121109893Y-100991866D01*
X121166000Y-100709797D01*
X121166000Y-100422203D01*
X121109893Y-100140134D01*
X120999835Y-99874431D01*
X120840056Y-99635304D01*
X120636696Y-99431944D01*
X120397569Y-99272165D01*
X120131866Y-99162107D01*
X119849797Y-99106000D01*
X119562203Y-99106000D01*
X119280134Y-99162107D01*
X119014431Y-99272165D01*
X118775304Y-99431944D01*
X118571944Y-99635304D01*
X118412165Y-99874431D01*
X118360000Y-100000368D01*
X118360000Y-98131632D01*
X118412165Y-98257569D01*
X118571944Y-98496696D01*
X118775304Y-98700056D01*
X119014431Y-98859835D01*
X119280134Y-98969893D01*
X119562203Y-99026000D01*
X119849797Y-99026000D01*
X120131866Y-98969893D01*
X120397569Y-98859835D01*
X120636696Y-98700056D01*
X120840056Y-98496696D01*
X120999835Y-98257569D01*
X121109893Y-97991866D01*
X121166000Y-97709797D01*
X121166000Y-97422203D01*
X121109893Y-97140134D01*
X120999835Y-96874431D01*
X120840056Y-96635304D01*
X120636696Y-96431944D01*
X120397569Y-96272165D01*
X120131866Y-96162107D01*
X119849797Y-96106000D01*
X119562203Y-96106000D01*
X119280134Y-96162107D01*
X119014431Y-96272165D01*
X118775304Y-96431944D01*
X118571944Y-96635304D01*
X118412165Y-96874431D01*
X118360000Y-97000368D01*
X118360000Y-95131632D01*
X118412165Y-95257569D01*
X118571944Y-95496696D01*
X118775304Y-95700056D01*
X119014431Y-95859835D01*
X119280134Y-95969893D01*
X119562203Y-96026000D01*
X119849797Y-96026000D01*
X120131866Y-95969893D01*
X120397569Y-95859835D01*
X120636696Y-95700056D01*
X120840056Y-95496696D01*
X120999835Y-95257569D01*
X121109893Y-94991866D01*
X121166000Y-94709797D01*
X121166000Y-94422203D01*
X121125949Y-94220852D01*
X122983088Y-92363714D01*
X123071944Y-92496696D01*
X123275304Y-92700056D01*
X123514431Y-92859835D01*
X123780134Y-92969893D01*
X124062203Y-93026000D01*
X124349797Y-93026000D01*
X124631866Y-92969893D01*
X124897569Y-92859835D01*
X125136696Y-92700056D01*
X125340056Y-92496696D01*
X125454111Y-92326000D01*
X127471678Y-92326000D01*
X127509000Y-92329676D01*
X127546322Y-92326000D01*
X127546333Y-92326000D01*
X127657986Y-92315003D01*
X127801247Y-92271546D01*
X127933276Y-92200974D01*
X128049001Y-92106001D01*
X128072804Y-92076997D01*
X133029802Y-87120000D01*
X142994405Y-87120000D01*
X143031294Y-87189014D01*
X143216866Y-87415134D01*
X143442986Y-87600706D01*
X143497791Y-87630000D01*
X143442986Y-87659294D01*
X143216866Y-87844866D01*
X143031294Y-88070986D01*
X142994405Y-88140000D01*
X132909325Y-88140000D01*
X132872000Y-88136324D01*
X132834675Y-88140000D01*
X132834667Y-88140000D01*
X132723014Y-88150997D01*
X132579753Y-88194454D01*
X132447724Y-88265026D01*
X132331999Y-88359999D01*
X132308201Y-88388997D01*
X125542407Y-95154792D01*
X125609893Y-94991866D01*
X125666000Y-94709797D01*
X125666000Y-94422203D01*
X125609893Y-94140134D01*
X125499835Y-93874431D01*
X125340056Y-93635304D01*
X125136696Y-93431944D01*
X124897569Y-93272165D01*
X124631866Y-93162107D01*
X124349797Y-93106000D01*
X124062203Y-93106000D01*
X123780134Y-93162107D01*
X123514431Y-93272165D01*
X123275304Y-93431944D01*
X123071944Y-93635304D01*
X122912165Y-93874431D01*
X122802107Y-94140134D01*
X122746000Y-94422203D01*
X122746000Y-94709797D01*
X122802107Y-94991866D01*
X122912165Y-95257569D01*
X123071944Y-95496696D01*
X123275304Y-95700056D01*
X123514431Y-95859835D01*
X123780134Y-95969893D01*
X124062203Y-96026000D01*
X124349797Y-96026000D01*
X124631866Y-95969893D01*
X124794792Y-95902407D01*
X124551148Y-96146051D01*
X124349797Y-96106000D01*
X124062203Y-96106000D01*
X123780134Y-96162107D01*
X123514431Y-96272165D01*
X123275304Y-96431944D01*
X123071944Y-96635304D01*
X122912165Y-96874431D01*
X122802107Y-97140134D01*
X122746000Y-97422203D01*
X122746000Y-97709797D01*
X122802107Y-97991866D01*
X122912165Y-98257569D01*
X123071944Y-98496696D01*
X123275304Y-98700056D01*
X123514431Y-98859835D01*
X123780134Y-98969893D01*
X124062203Y-99026000D01*
X124349797Y-99026000D01*
X124631866Y-98969893D01*
X124794792Y-98902407D01*
X124551148Y-99146051D01*
X124349797Y-99106000D01*
X124062203Y-99106000D01*
X123780134Y-99162107D01*
X123514431Y-99272165D01*
X123275304Y-99431944D01*
X123071944Y-99635304D01*
X122912165Y-99874431D01*
X122802107Y-100140134D01*
X122746000Y-100422203D01*
X122746000Y-100709797D01*
X122802107Y-100991866D01*
X122912165Y-101257569D01*
X123071944Y-101496696D01*
X123275304Y-101700056D01*
X123514431Y-101859835D01*
X123780134Y-101969893D01*
X124062203Y-102026000D01*
X124349797Y-102026000D01*
X124631866Y-101969893D01*
X124794792Y-101902407D01*
X124551148Y-102146051D01*
X124349797Y-102106000D01*
X124062203Y-102106000D01*
X123780134Y-102162107D01*
X123514431Y-102272165D01*
X123275304Y-102431944D01*
X123071944Y-102635304D01*
X122912165Y-102874431D01*
X122802107Y-103140134D01*
X122746000Y-103422203D01*
X122746000Y-103709797D01*
X122802107Y-103991866D01*
X122912165Y-104257569D01*
X123071944Y-104496696D01*
X123275304Y-104700056D01*
X123514431Y-104859835D01*
X123780134Y-104969893D01*
X124062203Y-105026000D01*
X124349797Y-105026000D01*
X124631866Y-104969893D01*
X124897569Y-104859835D01*
X125136696Y-104700056D01*
X125340056Y-104496696D01*
X125499835Y-104257569D01*
X125609893Y-103991866D01*
X125666000Y-103709797D01*
X125666000Y-103422203D01*
X125625949Y-103220852D01*
X134106802Y-94740000D01*
X142994405Y-94740000D01*
X143031294Y-94809014D01*
X143216866Y-95035134D01*
X143442986Y-95220706D01*
X143700966Y-95358599D01*
X143980889Y-95443513D01*
X144199050Y-95465000D01*
X144344950Y-95465000D01*
X144563111Y-95443513D01*
X144843034Y-95358599D01*
X145101014Y-95220706D01*
X145327134Y-95035134D01*
X145512706Y-94809014D01*
X145650599Y-94551034D01*
X145735513Y-94271111D01*
X145764185Y-93980000D01*
X145735513Y-93688889D01*
X145650599Y-93408966D01*
X145512706Y-93150986D01*
X145327134Y-92924866D01*
X145101014Y-92739294D01*
X145046209Y-92710000D01*
X145101014Y-92680706D01*
X145327134Y-92495134D01*
X145512706Y-92269014D01*
X145650599Y-92011034D01*
X145735513Y-91731111D01*
X145764185Y-91440000D01*
X145735513Y-91148889D01*
X145650599Y-90868966D01*
X145512706Y-90610986D01*
X145327134Y-90384866D01*
X145101014Y-90199294D01*
X145046209Y-90170000D01*
X145101014Y-90140706D01*
X145327134Y-89955134D01*
X145512706Y-89729014D01*
X145650599Y-89471034D01*
X145735513Y-89191111D01*
X145764185Y-88900000D01*
X145735513Y-88608889D01*
X145650599Y-88328966D01*
X145512706Y-88070986D01*
X145327134Y-87844866D01*
X145101014Y-87659294D01*
X145046209Y-87630000D01*
X145101014Y-87600706D01*
X145327134Y-87415134D01*
X145512706Y-87189014D01*
X145650599Y-86931034D01*
X145735513Y-86651111D01*
X145764185Y-86360000D01*
X145735513Y-86068889D01*
X145650599Y-85788966D01*
X145512706Y-85530986D01*
X145327134Y-85304866D01*
X145101014Y-85119294D01*
X145046209Y-85090000D01*
X145101014Y-85060706D01*
X145327134Y-84875134D01*
X145512706Y-84649014D01*
X145650599Y-84391034D01*
X145735513Y-84111111D01*
X145764185Y-83820000D01*
X145735513Y-83528889D01*
X145650599Y-83248966D01*
X145512706Y-82990986D01*
X145327134Y-82764866D01*
X145101014Y-82579294D01*
X145046209Y-82550000D01*
X145101014Y-82520706D01*
X145327134Y-82335134D01*
X145512706Y-82109014D01*
X145650599Y-81851034D01*
X145735513Y-81571111D01*
X145764185Y-81280000D01*
X145735513Y-80988889D01*
X145650599Y-80708966D01*
X145512706Y-80450986D01*
X145327134Y-80224866D01*
X145101014Y-80039294D01*
X145046209Y-80010000D01*
X145101014Y-79980706D01*
X145327134Y-79795134D01*
X145512706Y-79569014D01*
X145650599Y-79311034D01*
X145735513Y-79031111D01*
X145764185Y-78740000D01*
X145735513Y-78448889D01*
X145650599Y-78168966D01*
X145512706Y-77910986D01*
X145327134Y-77684866D01*
X145101014Y-77499294D01*
X145046209Y-77470000D01*
X145101014Y-77440706D01*
X145327134Y-77255134D01*
X145512706Y-77029014D01*
X145650599Y-76771034D01*
X145735513Y-76491111D01*
X145764185Y-76200000D01*
X145735513Y-75908889D01*
X145650599Y-75628966D01*
X145512706Y-75370986D01*
X145327134Y-75144866D01*
X145101014Y-74959294D01*
X145046209Y-74930000D01*
X145101014Y-74900706D01*
X145327134Y-74715134D01*
X145512706Y-74489014D01*
X145650599Y-74231034D01*
X145735513Y-73951111D01*
X145764185Y-73660000D01*
X145735513Y-73368889D01*
X145650599Y-73088966D01*
X145512706Y-72830986D01*
X145327134Y-72604866D01*
X145101014Y-72419294D01*
X145046209Y-72390000D01*
X145101014Y-72360706D01*
X145327134Y-72175134D01*
X145512706Y-71949014D01*
X145650599Y-71691034D01*
X145735513Y-71411111D01*
X145764185Y-71120000D01*
X145735513Y-70828889D01*
X145650599Y-70548966D01*
X145512706Y-70290986D01*
X145327134Y-70064866D01*
X145101014Y-69879294D01*
X145046209Y-69850000D01*
X145101014Y-69820706D01*
X145327134Y-69635134D01*
X145512706Y-69409014D01*
X145650599Y-69151034D01*
X145735513Y-68871111D01*
X145764185Y-68580000D01*
X145735513Y-68288889D01*
X145650599Y-68008966D01*
X145512706Y-67750986D01*
X145327134Y-67524866D01*
X145297313Y-67500393D01*
X145366180Y-67479502D01*
X145476494Y-67420537D01*
X145573185Y-67341185D01*
X145652537Y-67244494D01*
X145711502Y-67134180D01*
X145747812Y-67014482D01*
X145760072Y-66890000D01*
X145760072Y-65190000D01*
X145747812Y-65065518D01*
X145711502Y-64945820D01*
X145652537Y-64835506D01*
X145573185Y-64738815D01*
X145476494Y-64659463D01*
X145366180Y-64600498D01*
X145246482Y-64564188D01*
X145122000Y-64551928D01*
X143422000Y-64551928D01*
X143297518Y-64564188D01*
X143177820Y-64600498D01*
X143067506Y-64659463D01*
X142970815Y-64738815D01*
X142891463Y-64835506D01*
X142832498Y-64945820D01*
X142796188Y-65065518D01*
X142787375Y-65155000D01*
X140378465Y-65155000D01*
X140334999Y-65150719D01*
X140291533Y-65155000D01*
X140291523Y-65155000D01*
X140161510Y-65167805D01*
X139994687Y-65218411D01*
X139840941Y-65300589D01*
X139840939Y-65300590D01*
X139840940Y-65300590D01*
X139739953Y-65383468D01*
X139739951Y-65383470D01*
X139706183Y-65411183D01*
X139678470Y-65444951D01*
X135523422Y-69600000D01*
X121730466Y-69600000D01*
X121686999Y-69595719D01*
X121643533Y-69600000D01*
X121643523Y-69600000D01*
X121513510Y-69612805D01*
X121346687Y-69663411D01*
X121192941Y-69745589D01*
X121192939Y-69745590D01*
X121192940Y-69745590D01*
X121091953Y-69828468D01*
X121091951Y-69828470D01*
X121058183Y-69856183D01*
X121030470Y-69889951D01*
X119903700Y-71016722D01*
X119849797Y-71006000D01*
X119562203Y-71006000D01*
X119280134Y-71062107D01*
X119014431Y-71172165D01*
X118775304Y-71331944D01*
X118571944Y-71535304D01*
X118412165Y-71774431D01*
X118302107Y-72040134D01*
X118246000Y-72322203D01*
X118246000Y-72609797D01*
X118302107Y-72891866D01*
X118412165Y-73157569D01*
X118571944Y-73396696D01*
X118775304Y-73600056D01*
X119014431Y-73759835D01*
X119280134Y-73869893D01*
X119562203Y-73926000D01*
X119849797Y-73926000D01*
X120131866Y-73869893D01*
X120397569Y-73759835D01*
X120636696Y-73600056D01*
X120840056Y-73396696D01*
X120999835Y-73157569D01*
X121109893Y-72891866D01*
X121166000Y-72609797D01*
X121166000Y-72322203D01*
X121155278Y-72268300D01*
X122053579Y-71370000D01*
X123237248Y-71370000D01*
X123071944Y-71535304D01*
X122912165Y-71774431D01*
X122802107Y-72040134D01*
X122746000Y-72322203D01*
X122746000Y-72609797D01*
X122802107Y-72891866D01*
X122912165Y-73157569D01*
X123071944Y-73396696D01*
X123275304Y-73600056D01*
X123514431Y-73759835D01*
X123780134Y-73869893D01*
X124062203Y-73926000D01*
X124349797Y-73926000D01*
X124631866Y-73869893D01*
X124897569Y-73759835D01*
X125136696Y-73600056D01*
X125340056Y-73396696D01*
X125370589Y-73351000D01*
X137675531Y-73351000D01*
X137719000Y-73355281D01*
X137762469Y-73351000D01*
X137762477Y-73351000D01*
X137892490Y-73338195D01*
X138059313Y-73287589D01*
X138213059Y-73205411D01*
X138347817Y-73094817D01*
X138375534Y-73061044D01*
X141971579Y-69465000D01*
X143077241Y-69465000D01*
X143216866Y-69635134D01*
X143442986Y-69820706D01*
X143497791Y-69850000D01*
X143442986Y-69879294D01*
X143216866Y-70064866D01*
X143077241Y-70235000D01*
X142918465Y-70235000D01*
X142874999Y-70230719D01*
X142831533Y-70235000D01*
X142831523Y-70235000D01*
X142701510Y-70247805D01*
X142534687Y-70298411D01*
X142380941Y-70380589D01*
X142380939Y-70380590D01*
X142380940Y-70380590D01*
X142279953Y-70463468D01*
X142279951Y-70463470D01*
X142246183Y-70491183D01*
X142218470Y-70524951D01*
X138063422Y-74680000D01*
X129583469Y-74680000D01*
X129540000Y-74675719D01*
X129496531Y-74680000D01*
X129496523Y-74680000D01*
X129366510Y-74692805D01*
X129199687Y-74743411D01*
X129053776Y-74821401D01*
X129045941Y-74825589D01*
X128944953Y-74908468D01*
X128944951Y-74908470D01*
X128911183Y-74936183D01*
X128883470Y-74969951D01*
X127268422Y-76585000D01*
X125529894Y-76585000D01*
X125609893Y-76391866D01*
X125666000Y-76109797D01*
X125666000Y-75822203D01*
X125609893Y-75540134D01*
X125499835Y-75274431D01*
X125340056Y-75035304D01*
X125136696Y-74831944D01*
X124897569Y-74672165D01*
X124631866Y-74562107D01*
X124349797Y-74506000D01*
X124062203Y-74506000D01*
X123780134Y-74562107D01*
X123514431Y-74672165D01*
X123275304Y-74831944D01*
X123071944Y-75035304D01*
X122912165Y-75274431D01*
X122802107Y-75540134D01*
X122746000Y-75822203D01*
X122746000Y-76109797D01*
X122802107Y-76391866D01*
X122880826Y-76581911D01*
X122868725Y-76580719D01*
X122825259Y-76585000D01*
X122825249Y-76585000D01*
X122695236Y-76597805D01*
X122528413Y-76648411D01*
X122374667Y-76730589D01*
X122374665Y-76730590D01*
X122374666Y-76730590D01*
X122273679Y-76813468D01*
X122273677Y-76813470D01*
X122239909Y-76841183D01*
X122212196Y-76874951D01*
X120695950Y-78391198D01*
X120636696Y-78331944D01*
X120397569Y-78172165D01*
X120131866Y-78062107D01*
X119849797Y-78006000D01*
X119562203Y-78006000D01*
X119280134Y-78062107D01*
X119014431Y-78172165D01*
X118775304Y-78331944D01*
X118571944Y-78535304D01*
X118412165Y-78774431D01*
X118302107Y-79040134D01*
X118246000Y-79322203D01*
X118246000Y-79609797D01*
X118302107Y-79891866D01*
X118412165Y-80157569D01*
X118571944Y-80396696D01*
X118775304Y-80600056D01*
X119014431Y-80759835D01*
X119280134Y-80869893D01*
X119562203Y-80926000D01*
X119849797Y-80926000D01*
X120131866Y-80869893D01*
X120397569Y-80759835D01*
X120636696Y-80600056D01*
X120840056Y-80396696D01*
X120868037Y-80354819D01*
X120872726Y-80355281D01*
X120916195Y-80351000D01*
X120916203Y-80351000D01*
X121046216Y-80338195D01*
X121213039Y-80287589D01*
X121366785Y-80205411D01*
X121501543Y-80094817D01*
X121529260Y-80061044D01*
X123235305Y-78355000D01*
X123252248Y-78355000D01*
X123071944Y-78535304D01*
X122912165Y-78774431D01*
X122802107Y-79040134D01*
X122746000Y-79322203D01*
X122746000Y-79609797D01*
X122802107Y-79891866D01*
X122912165Y-80157569D01*
X123071944Y-80396696D01*
X123275304Y-80600056D01*
X123514431Y-80759835D01*
X123780134Y-80869893D01*
X124062203Y-80926000D01*
X124349797Y-80926000D01*
X124631866Y-80869893D01*
X124897569Y-80759835D01*
X125136696Y-80600056D01*
X125340056Y-80396696D01*
X125370589Y-80351000D01*
X128770531Y-80351000D01*
X128814000Y-80355281D01*
X128857469Y-80351000D01*
X128857477Y-80351000D01*
X128987490Y-80338195D01*
X129154313Y-80287589D01*
X129308059Y-80205411D01*
X129442817Y-80094817D01*
X129470534Y-80061044D01*
X131176579Y-78355000D01*
X132025198Y-78355000D01*
X125574199Y-84806000D01*
X125454111Y-84806000D01*
X125340056Y-84635304D01*
X125136696Y-84431944D01*
X124897569Y-84272165D01*
X124631866Y-84162107D01*
X124349797Y-84106000D01*
X124062203Y-84106000D01*
X123780134Y-84162107D01*
X123514431Y-84272165D01*
X123275304Y-84431944D01*
X123071944Y-84635304D01*
X122912165Y-84874431D01*
X122802107Y-85140134D01*
X122746000Y-85422203D01*
X122746000Y-85709797D01*
X122802107Y-85991866D01*
X122912165Y-86257569D01*
X123071944Y-86496696D01*
X123231247Y-86655999D01*
X120893323Y-86655999D01*
X120856000Y-86652323D01*
X120818677Y-86655999D01*
X120818668Y-86655999D01*
X120707015Y-86666996D01*
X120653533Y-86683219D01*
X120840056Y-86496696D01*
X120999835Y-86257569D01*
X121109893Y-85991866D01*
X121166000Y-85709797D01*
X121166000Y-85422203D01*
X121109893Y-85140134D01*
X120999835Y-84874431D01*
X120840056Y-84635304D01*
X120636696Y-84431944D01*
X120397569Y-84272165D01*
X120131866Y-84162107D01*
X119849797Y-84106000D01*
X119562203Y-84106000D01*
X119381668Y-84141911D01*
X119508301Y-84015278D01*
X119562203Y-84026000D01*
X119849797Y-84026000D01*
X120131866Y-83969893D01*
X120397569Y-83859835D01*
X120636696Y-83700056D01*
X120840056Y-83496696D01*
X120999835Y-83257569D01*
X121109893Y-82991866D01*
X121166000Y-82709797D01*
X121166000Y-82422203D01*
X122746000Y-82422203D01*
X122746000Y-82709797D01*
X122802107Y-82991866D01*
X122912165Y-83257569D01*
X123071944Y-83496696D01*
X123275304Y-83700056D01*
X123514431Y-83859835D01*
X123780134Y-83969893D01*
X124062203Y-84026000D01*
X124349797Y-84026000D01*
X124631866Y-83969893D01*
X124897569Y-83859835D01*
X125136696Y-83700056D01*
X125340056Y-83496696D01*
X125499835Y-83257569D01*
X125609893Y-82991866D01*
X125666000Y-82709797D01*
X125666000Y-82422203D01*
X125609893Y-82140134D01*
X125499835Y-81874431D01*
X125340056Y-81635304D01*
X125136696Y-81431944D01*
X124897569Y-81272165D01*
X124631866Y-81162107D01*
X124349797Y-81106000D01*
X124062203Y-81106000D01*
X123780134Y-81162107D01*
X123514431Y-81272165D01*
X123275304Y-81431944D01*
X123071944Y-81635304D01*
X122912165Y-81874431D01*
X122802107Y-82140134D01*
X122746000Y-82422203D01*
X121166000Y-82422203D01*
X121109893Y-82140134D01*
X120999835Y-81874431D01*
X120840056Y-81635304D01*
X120636696Y-81431944D01*
X120397569Y-81272165D01*
X120131866Y-81162107D01*
X119849797Y-81106000D01*
X119562203Y-81106000D01*
X119280134Y-81162107D01*
X119014431Y-81272165D01*
X118775304Y-81431944D01*
X118571944Y-81635304D01*
X118412165Y-81874431D01*
X118302107Y-82140134D01*
X118246000Y-82422203D01*
X118246000Y-82709797D01*
X118256722Y-82763699D01*
X116879951Y-84140471D01*
X116846184Y-84168183D01*
X116818471Y-84201951D01*
X116818468Y-84201954D01*
X116735590Y-84302941D01*
X116653412Y-84456687D01*
X116602805Y-84623510D01*
X116585719Y-84797000D01*
X116590001Y-84840479D01*
X116590000Y-90213476D01*
X116590001Y-90213486D01*
X116590000Y-107271531D01*
X116585719Y-107315000D01*
X116590000Y-107358469D01*
X116590000Y-107358476D01*
X116602805Y-107488489D01*
X116653411Y-107655312D01*
X116735589Y-107809058D01*
X116846183Y-107943817D01*
X116879956Y-107971534D01*
X118088470Y-109180049D01*
X118116183Y-109213817D01*
X118149951Y-109241530D01*
X118149953Y-109241532D01*
X118210425Y-109291160D01*
X118250941Y-109324411D01*
X118404687Y-109406589D01*
X118444631Y-109418706D01*
X118325527Y-109669439D01*
X118255177Y-109948297D01*
X118240583Y-110235521D01*
X118282303Y-110520074D01*
X118378735Y-110791020D01*
X118448927Y-110922337D01*
X118695449Y-110996946D01*
X119526395Y-110166000D01*
X119512253Y-110151858D01*
X119691858Y-109972253D01*
X119706000Y-109986395D01*
X119720143Y-109972253D01*
X119899748Y-110151858D01*
X119885605Y-110166000D01*
X120716551Y-110996946D01*
X120963073Y-110922337D01*
X121086473Y-110662561D01*
X121156823Y-110383703D01*
X121171417Y-110096479D01*
X121129697Y-109811926D01*
X121033265Y-109540980D01*
X120995325Y-109470000D01*
X122920265Y-109470000D01*
X122825527Y-109669439D01*
X122755177Y-109948297D01*
X122740583Y-110235521D01*
X122782303Y-110520074D01*
X122878735Y-110791020D01*
X122948927Y-110922337D01*
X123195449Y-110996946D01*
X124026395Y-110166000D01*
X124012253Y-110151858D01*
X124191858Y-109972253D01*
X124206000Y-109986395D01*
X124220143Y-109972253D01*
X124399748Y-110151858D01*
X124385605Y-110166000D01*
X125216551Y-110996946D01*
X125463073Y-110922337D01*
X125586473Y-110662561D01*
X125656823Y-110383703D01*
X125671417Y-110096479D01*
X125629697Y-109811926D01*
X125533265Y-109540980D01*
X125495325Y-109470000D01*
X132227531Y-109470000D01*
X132271000Y-109474281D01*
X132314469Y-109470000D01*
X132314477Y-109470000D01*
X132444490Y-109457195D01*
X132611313Y-109406589D01*
X132765059Y-109324411D01*
X132899817Y-109213817D01*
X132927534Y-109180044D01*
X142991928Y-99115651D01*
X142991928Y-100845000D01*
X143004188Y-100969482D01*
X143040498Y-101089180D01*
X143099463Y-101199494D01*
X143178815Y-101296185D01*
X143275506Y-101375537D01*
X143385820Y-101434502D01*
X143505518Y-101470812D01*
X143630000Y-101483072D01*
X143770001Y-101483072D01*
X143770000Y-108383059D01*
X143642129Y-108468500D01*
X143393500Y-108717129D01*
X143198153Y-109009485D01*
X143063596Y-109334335D01*
X142995000Y-109679193D01*
X142995000Y-110030807D01*
X143025003Y-110181642D01*
X140551645Y-112655000D01*
X119429608Y-112655000D01*
X119380000Y-112650114D01*
X119182005Y-112669615D01*
X118991620Y-112727368D01*
X118816160Y-112821153D01*
X118662367Y-112947367D01*
X118630744Y-112985900D01*
X116957568Y-114659077D01*
X117140720Y-114216907D01*
X117266000Y-113587082D01*
X117266000Y-112944918D01*
X117140720Y-112315093D01*
X116894975Y-111721811D01*
X116538208Y-111187871D01*
X116526888Y-111176551D01*
X118875054Y-111176551D01*
X118949663Y-111423073D01*
X119209439Y-111546473D01*
X119488297Y-111616823D01*
X119775521Y-111631417D01*
X120060074Y-111589697D01*
X120331020Y-111493265D01*
X120462337Y-111423073D01*
X120536946Y-111176551D01*
X123375054Y-111176551D01*
X123449663Y-111423073D01*
X123709439Y-111546473D01*
X123988297Y-111616823D01*
X124275521Y-111631417D01*
X124560074Y-111589697D01*
X124831020Y-111493265D01*
X124962337Y-111423073D01*
X125036946Y-111176551D01*
X124206000Y-110345605D01*
X123375054Y-111176551D01*
X120536946Y-111176551D01*
X119706000Y-110345605D01*
X118875054Y-111176551D01*
X116526888Y-111176551D01*
X116084129Y-110733792D01*
X115550189Y-110377025D01*
X114956907Y-110131280D01*
X114327082Y-110006000D01*
X113684918Y-110006000D01*
X113055093Y-110131280D01*
X112461811Y-110377025D01*
X111927871Y-110733792D01*
X111473792Y-111187871D01*
X111117025Y-111721811D01*
X110871280Y-112315093D01*
X110746000Y-112944918D01*
X106807000Y-112944918D01*
X106807000Y-75822203D01*
X118246000Y-75822203D01*
X118246000Y-76109797D01*
X118302107Y-76391866D01*
X118412165Y-76657569D01*
X118571944Y-76896696D01*
X118775304Y-77100056D01*
X119014431Y-77259835D01*
X119280134Y-77369893D01*
X119562203Y-77426000D01*
X119849797Y-77426000D01*
X120131866Y-77369893D01*
X120397569Y-77259835D01*
X120636696Y-77100056D01*
X120840056Y-76896696D01*
X120999835Y-76657569D01*
X121109893Y-76391866D01*
X121166000Y-76109797D01*
X121166000Y-75822203D01*
X121109893Y-75540134D01*
X120999835Y-75274431D01*
X120840056Y-75035304D01*
X120636696Y-74831944D01*
X120397569Y-74672165D01*
X120131866Y-74562107D01*
X119849797Y-74506000D01*
X119562203Y-74506000D01*
X119280134Y-74562107D01*
X119014431Y-74672165D01*
X118775304Y-74831944D01*
X118571944Y-75035304D01*
X118412165Y-75274431D01*
X118302107Y-75540134D01*
X118246000Y-75822203D01*
X106807000Y-75822203D01*
X106807000Y-67094918D01*
X110746000Y-67094918D01*
X110746000Y-67737082D01*
X110871280Y-68366907D01*
X111117025Y-68960189D01*
X111473792Y-69494129D01*
X111927871Y-69948208D01*
X112461811Y-70304975D01*
X113055093Y-70550720D01*
X113684918Y-70676000D01*
X114327082Y-70676000D01*
X114956907Y-70550720D01*
X115550189Y-70304975D01*
X116084129Y-69948208D01*
X116538208Y-69494129D01*
X116894975Y-68960189D01*
X117140720Y-68366907D01*
X117266000Y-67737082D01*
X117266000Y-67094918D01*
X117140720Y-66465093D01*
X116894975Y-65871811D01*
X116538208Y-65337871D01*
X116084129Y-64883792D01*
X115550189Y-64527025D01*
X114956907Y-64281280D01*
X114327082Y-64156000D01*
X113684918Y-64156000D01*
X113055093Y-64281280D01*
X112461811Y-64527025D01*
X111927871Y-64883792D01*
X111473792Y-65337871D01*
X111117025Y-65871811D01*
X110871280Y-66465093D01*
X110746000Y-67094918D01*
X106807000Y-67094918D01*
X106807000Y-62282606D01*
X108002606Y-61087000D01*
X156157394Y-61087000D01*
X157353000Y-62282606D01*
G36*
X151504784Y-98146362D02*
G01*
X151262129Y-98308500D01*
X151013500Y-98557129D01*
X150818153Y-98849485D01*
X150683596Y-99174335D01*
X150615000Y-99519193D01*
X150615000Y-99870807D01*
X150645003Y-100021642D01*
X148545901Y-102120744D01*
X148507368Y-102152367D01*
X148475745Y-102190900D01*
X148475744Y-102190901D01*
X148381154Y-102306160D01*
X148287368Y-102481621D01*
X148229615Y-102672006D01*
X148210114Y-102870000D01*
X148215001Y-102919618D01*
X148215000Y-109564644D01*
X146640901Y-111138744D01*
X146602368Y-111170367D01*
X146570745Y-111208900D01*
X146570744Y-111208901D01*
X146476154Y-111324160D01*
X146382368Y-111499621D01*
X146324615Y-111690006D01*
X146305114Y-111888000D01*
X146310001Y-111937618D01*
X146310001Y-116551892D01*
X146166500Y-116337129D01*
X145917871Y-116088500D01*
X145625515Y-115893153D01*
X145300665Y-115758596D01*
X144955807Y-115690000D01*
X144604193Y-115690000D01*
X144259335Y-115758596D01*
X143934485Y-115893153D01*
X143642129Y-116088500D01*
X143393500Y-116337129D01*
X143198153Y-116629485D01*
X143063596Y-116954335D01*
X142995000Y-117299193D01*
X142995000Y-117650807D01*
X143063596Y-117995665D01*
X143198153Y-118320515D01*
X143393500Y-118612871D01*
X143642129Y-118861500D01*
X143934485Y-119056847D01*
X144259335Y-119191404D01*
X144604193Y-119260000D01*
X144955807Y-119260000D01*
X145300665Y-119191404D01*
X145625515Y-119056847D01*
X145917871Y-118861500D01*
X146166500Y-118612871D01*
X146310001Y-118398108D01*
X146310000Y-125057644D01*
X145975372Y-125392272D01*
X145904599Y-125158966D01*
X145766706Y-124900986D01*
X145581134Y-124674866D01*
X145551313Y-124650393D01*
X145620180Y-124629502D01*
X145730494Y-124570537D01*
X145827185Y-124491185D01*
X145906537Y-124394494D01*
X145965502Y-124284180D01*
X146001812Y-124164482D01*
X146014072Y-124040000D01*
X146014072Y-122340000D01*
X146001812Y-122215518D01*
X145965502Y-122095820D01*
X145906537Y-121985506D01*
X145827185Y-121888815D01*
X145730494Y-121809463D01*
X145620180Y-121750498D01*
X145500482Y-121714188D01*
X145376000Y-121701928D01*
X143676000Y-121701928D01*
X143551518Y-121714188D01*
X143431820Y-121750498D01*
X143321506Y-121809463D01*
X143224815Y-121888815D01*
X143213457Y-121902655D01*
X136015803Y-114705002D01*
X135992000Y-114675998D01*
X135990784Y-114675000D01*
X140920392Y-114675000D01*
X140970000Y-114679886D01*
X141167994Y-114660385D01*
X141194976Y-114652200D01*
X141358380Y-114602632D01*
X141533840Y-114508847D01*
X141687633Y-114382633D01*
X141719261Y-114344094D01*
X144453358Y-111609997D01*
X144604193Y-111640000D01*
X144955807Y-111640000D01*
X145300665Y-111571404D01*
X145625515Y-111436847D01*
X145917871Y-111241500D01*
X146166500Y-110992871D01*
X146361847Y-110700515D01*
X146496404Y-110375665D01*
X146565000Y-110030807D01*
X146565000Y-109679193D01*
X146496404Y-109334335D01*
X146361847Y-109009485D01*
X146166500Y-108717129D01*
X145917871Y-108468500D01*
X145790000Y-108383059D01*
X145790000Y-101483072D01*
X145930000Y-101483072D01*
X146054482Y-101470812D01*
X146174180Y-101434502D01*
X146284494Y-101375537D01*
X146381185Y-101296185D01*
X146460537Y-101199494D01*
X146519502Y-101089180D01*
X146555812Y-100969482D01*
X146568072Y-100845000D01*
X146568072Y-98545000D01*
X146555812Y-98420518D01*
X146519502Y-98300820D01*
X146460537Y-98190506D01*
X146381185Y-98093815D01*
X146315611Y-98040000D01*
X151398422Y-98040000D01*
X151504784Y-98146362D01*
X151504784Y-98146362D01*
G37*
X151504784Y-98146362D02*
X151262129Y-98308500D01*
X151013500Y-98557129D01*
X150818153Y-98849485D01*
X150683596Y-99174335D01*
X150615000Y-99519193D01*
X150615000Y-99870807D01*
X150645003Y-100021642D01*
X148545901Y-102120744D01*
X148507368Y-102152367D01*
X148475745Y-102190900D01*
X148475744Y-102190901D01*
X148381154Y-102306160D01*
X148287368Y-102481621D01*
X148229615Y-102672006D01*
X148210114Y-102870000D01*
X148215001Y-102919618D01*
X148215000Y-109564644D01*
X146640901Y-111138744D01*
X146602368Y-111170367D01*
X146570745Y-111208900D01*
X146570744Y-111208901D01*
X146476154Y-111324160D01*
X146382368Y-111499621D01*
X146324615Y-111690006D01*
X146305114Y-111888000D01*
X146310001Y-111937618D01*
X146310001Y-116551892D01*
X146166500Y-116337129D01*
X145917871Y-116088500D01*
X145625515Y-115893153D01*
X145300665Y-115758596D01*
X144955807Y-115690000D01*
X144604193Y-115690000D01*
X144259335Y-115758596D01*
X143934485Y-115893153D01*
X143642129Y-116088500D01*
X143393500Y-116337129D01*
X143198153Y-116629485D01*
X143063596Y-116954335D01*
X142995000Y-117299193D01*
X142995000Y-117650807D01*
X143063596Y-117995665D01*
X143198153Y-118320515D01*
X143393500Y-118612871D01*
X143642129Y-118861500D01*
X143934485Y-119056847D01*
X144259335Y-119191404D01*
X144604193Y-119260000D01*
X144955807Y-119260000D01*
X145300665Y-119191404D01*
X145625515Y-119056847D01*
X145917871Y-118861500D01*
X146166500Y-118612871D01*
X146310001Y-118398108D01*
X146310000Y-125057644D01*
X145975372Y-125392272D01*
X145904599Y-125158966D01*
X145766706Y-124900986D01*
X145581134Y-124674866D01*
X145551313Y-124650393D01*
X145620180Y-124629502D01*
X145730494Y-124570537D01*
X145827185Y-124491185D01*
X145906537Y-124394494D01*
X145965502Y-124284180D01*
X146001812Y-124164482D01*
X146014072Y-124040000D01*
X146014072Y-122340000D01*
X146001812Y-122215518D01*
X145965502Y-122095820D01*
X145906537Y-121985506D01*
X145827185Y-121888815D01*
X145730494Y-121809463D01*
X145620180Y-121750498D01*
X145500482Y-121714188D01*
X145376000Y-121701928D01*
X143676000Y-121701928D01*
X143551518Y-121714188D01*
X143431820Y-121750498D01*
X143321506Y-121809463D01*
X143224815Y-121888815D01*
X143213457Y-121902655D01*
X136015803Y-114705002D01*
X135992000Y-114675998D01*
X135990784Y-114675000D01*
X140920392Y-114675000D01*
X140970000Y-114679886D01*
X141167994Y-114660385D01*
X141194976Y-114652200D01*
X141358380Y-114602632D01*
X141533840Y-114508847D01*
X141687633Y-114382633D01*
X141719261Y-114344094D01*
X144453358Y-111609997D01*
X144604193Y-111640000D01*
X144955807Y-111640000D01*
X145300665Y-111571404D01*
X145625515Y-111436847D01*
X145917871Y-111241500D01*
X146166500Y-110992871D01*
X146361847Y-110700515D01*
X146496404Y-110375665D01*
X146565000Y-110030807D01*
X146565000Y-109679193D01*
X146496404Y-109334335D01*
X146361847Y-109009485D01*
X146166500Y-108717129D01*
X145917871Y-108468500D01*
X145790000Y-108383059D01*
X145790000Y-101483072D01*
X145930000Y-101483072D01*
X146054482Y-101470812D01*
X146174180Y-101434502D01*
X146284494Y-101375537D01*
X146381185Y-101296185D01*
X146460537Y-101199494D01*
X146519502Y-101089180D01*
X146555812Y-100969482D01*
X146568072Y-100845000D01*
X146568072Y-98545000D01*
X146555812Y-98420518D01*
X146519502Y-98300820D01*
X146460537Y-98190506D01*
X146381185Y-98093815D01*
X146315611Y-98040000D01*
X151398422Y-98040000D01*
X151504784Y-98146362D01*
M02*
