G04 #@! TF.GenerationSoftware,KiCad,Pcbnew,(5.1.4-0-10_14)*
G04 #@! TF.CreationDate,2020-03-30T10:01:39+11:00*
G04 #@! TF.ProjectId,48-pin breakout,34382d70-696e-4206-9272-65616b6f7574,rev?*
G04 #@! TF.SameCoordinates,Original*
G04 #@! TF.FileFunction,Copper,L2,Bot*
G04 #@! TF.FilePolarity,Positive*
%FSLAX46Y46*%
G04 Gerber Fmt 4.6, Leading zero omitted, Abs format (unit mm)*
G04 Created by KiCad (PCBNEW (5.1.4-0-10_14)) date 2020-03-30 10:01:39*
%MOMM*%
%LPD*%
G04 APERTURE LIST*
%ADD10R,1.700000X1.700000*%
%ADD11O,1.700000X1.700000*%
%ADD12C,1.650000*%
%ADD13C,5.250000*%
%ADD14R,2.300000X2.300000*%
%ADD15C,2.300000*%
%ADD16C,0.800000*%
%ADD17C,0.500000*%
%ADD18C,0.250000*%
%ADD19C,0.254000*%
G04 APERTURE END LIST*
D10*
X144272000Y-66040000D03*
D11*
X144272000Y-68580000D03*
X144272000Y-71120000D03*
X144272000Y-73660000D03*
X144272000Y-76200000D03*
X144272000Y-78740000D03*
X144272000Y-81280000D03*
X144272000Y-83820000D03*
X144272000Y-86360000D03*
X144272000Y-88900000D03*
X144272000Y-91440000D03*
X144272000Y-93980000D03*
X144526000Y-151130000D03*
X144526000Y-148590000D03*
X144526000Y-146050000D03*
X144526000Y-143510000D03*
X144526000Y-140970000D03*
X144526000Y-138430000D03*
X144526000Y-135890000D03*
X144526000Y-133350000D03*
X144526000Y-130810000D03*
X144526000Y-128270000D03*
X144526000Y-125730000D03*
D10*
X144526000Y-123190000D03*
D12*
X124206000Y-147066000D03*
X124206000Y-143566000D03*
X124206000Y-140466000D03*
X124206000Y-137466000D03*
X124206000Y-134466000D03*
X124206000Y-131466000D03*
X124206000Y-128466000D03*
X124206000Y-125466000D03*
X124206000Y-122466000D03*
X124206000Y-119466000D03*
X124206000Y-116366000D03*
X124206000Y-110166000D03*
X124206000Y-106666000D03*
X124206000Y-103566000D03*
X124206000Y-100566000D03*
X124206000Y-97566000D03*
X124206000Y-94566000D03*
X124206000Y-91566000D03*
X124206000Y-88566000D03*
X124206000Y-85566000D03*
X124206000Y-82566000D03*
X124206000Y-79466000D03*
X124206000Y-75966000D03*
X124206000Y-72466000D03*
X119706000Y-147066000D03*
X119706000Y-143566000D03*
X119706000Y-140466000D03*
X119706000Y-137466000D03*
X119706000Y-134466000D03*
X119706000Y-131466000D03*
X119706000Y-128466000D03*
X119706000Y-125466000D03*
X119706000Y-122466000D03*
X119706000Y-119466000D03*
X119706000Y-116366000D03*
X119706000Y-110166000D03*
X119706000Y-106666000D03*
X119706000Y-103566000D03*
X119706000Y-100566000D03*
X119706000Y-97566000D03*
X119706000Y-94566000D03*
X119706000Y-91566000D03*
X119706000Y-88566000D03*
X119706000Y-85566000D03*
X119706000Y-82566000D03*
X119706000Y-79466000D03*
X119706000Y-75966000D03*
X119706000Y-72466000D03*
D13*
X114006000Y-67416000D03*
X114006000Y-113266000D03*
X114006000Y-152116000D03*
D14*
X144780000Y-99695000D03*
D15*
X144780000Y-109855000D03*
X144780000Y-117475000D03*
X152400000Y-114935000D03*
X152400000Y-99695000D03*
D16*
X131445000Y-133350000D03*
X137160000Y-110490000D03*
X139065000Y-133350000D03*
X140970000Y-116205000D03*
D17*
X124440000Y-76200000D02*
X124206000Y-75966000D01*
X144272000Y-76200000D02*
X124440000Y-76200000D01*
X118520000Y-145415000D02*
X121346001Y-145415000D01*
X117706001Y-146228999D02*
X118520000Y-145415000D01*
X123190000Y-153670000D02*
X117706001Y-148186001D01*
X144780000Y-153670000D02*
X123190000Y-153670000D01*
X123195001Y-143566000D02*
X124206000Y-143566000D01*
X150344000Y-148106000D02*
X144780000Y-153670000D01*
X117706001Y-148186001D02*
X117706001Y-146228999D01*
X121346001Y-145415000D02*
X123195001Y-143566000D01*
X150344000Y-123039000D02*
X150344000Y-147955000D01*
X144780000Y-117475000D02*
X150344000Y-123039000D01*
D18*
X121920000Y-132252000D02*
X120530999Y-133641001D01*
X120530999Y-133641001D02*
X119706000Y-134466000D01*
X121920000Y-124752000D02*
X121920000Y-132252000D01*
X124206000Y-122466000D02*
X121920000Y-124752000D01*
D19*
G36*
X157353000Y-62282606D02*
G01*
X157353000Y-154887394D01*
X154887394Y-157353000D01*
X108002606Y-157353000D01*
X106807000Y-156157394D01*
X106807000Y-151794918D01*
X110746000Y-151794918D01*
X110746000Y-152437082D01*
X110871280Y-153066907D01*
X111117025Y-153660189D01*
X111473792Y-154194129D01*
X111927871Y-154648208D01*
X112461811Y-155004975D01*
X113055093Y-155250720D01*
X113684918Y-155376000D01*
X114327082Y-155376000D01*
X114956907Y-155250720D01*
X115550189Y-155004975D01*
X116084129Y-154648208D01*
X116538208Y-154194129D01*
X116894975Y-153660189D01*
X117140720Y-153066907D01*
X117266000Y-152437082D01*
X117266000Y-151794918D01*
X117140720Y-151165093D01*
X116894975Y-150571811D01*
X116538208Y-150037871D01*
X116084129Y-149583792D01*
X115550189Y-149227025D01*
X114956907Y-148981280D01*
X114327082Y-148856000D01*
X113684918Y-148856000D01*
X113055093Y-148981280D01*
X112461811Y-149227025D01*
X111927871Y-149583792D01*
X111473792Y-150037871D01*
X111117025Y-150571811D01*
X110871280Y-151165093D01*
X110746000Y-151794918D01*
X106807000Y-151794918D01*
X106807000Y-146228999D01*
X116816720Y-146228999D01*
X116821002Y-146272478D01*
X116821001Y-148142532D01*
X116816720Y-148186001D01*
X116821001Y-148229470D01*
X116821001Y-148229477D01*
X116832213Y-148343315D01*
X116833806Y-148359491D01*
X116849158Y-148410097D01*
X116884412Y-148526313D01*
X116966590Y-148680059D01*
X117077184Y-148814818D01*
X117110957Y-148842535D01*
X122533470Y-154265049D01*
X122561183Y-154298817D01*
X122594951Y-154326530D01*
X122594953Y-154326532D01*
X122695940Y-154409410D01*
X122695941Y-154409411D01*
X122849687Y-154491589D01*
X123016510Y-154542195D01*
X123146523Y-154555000D01*
X123146531Y-154555000D01*
X123190000Y-154559281D01*
X123233469Y-154555000D01*
X144736531Y-154555000D01*
X144780000Y-154559281D01*
X144823469Y-154555000D01*
X144823477Y-154555000D01*
X144953490Y-154542195D01*
X145120313Y-154491589D01*
X145274059Y-154409411D01*
X145408817Y-154298817D01*
X145436534Y-154265044D01*
X151000532Y-148701047D01*
X151083410Y-148600060D01*
X151165588Y-148446314D01*
X151216194Y-148279491D01*
X151233281Y-148106001D01*
X151225845Y-148030506D01*
X151229000Y-147998477D01*
X151229000Y-123082465D01*
X151233281Y-123038999D01*
X151229000Y-122995533D01*
X151229000Y-122995523D01*
X151216195Y-122865510D01*
X151165589Y-122698687D01*
X151083411Y-122544941D01*
X150972817Y-122410183D01*
X150939051Y-122382472D01*
X146505668Y-117949090D01*
X146565000Y-117650807D01*
X146565000Y-117299193D01*
X146496404Y-116954335D01*
X146361847Y-116629485D01*
X146166500Y-116337129D01*
X145917871Y-116088500D01*
X145625515Y-115893153D01*
X145300665Y-115758596D01*
X144955807Y-115690000D01*
X144604193Y-115690000D01*
X144259335Y-115758596D01*
X143934485Y-115893153D01*
X143642129Y-116088500D01*
X143393500Y-116337129D01*
X143198153Y-116629485D01*
X143063596Y-116954335D01*
X142995000Y-117299193D01*
X142995000Y-117650807D01*
X143063596Y-117995665D01*
X143198153Y-118320515D01*
X143393500Y-118612871D01*
X143642129Y-118861500D01*
X143934485Y-119056847D01*
X144259335Y-119191404D01*
X144604193Y-119260000D01*
X144955807Y-119260000D01*
X145254090Y-119200668D01*
X149459000Y-123405579D01*
X149459001Y-147739420D01*
X146012697Y-151185725D01*
X146018185Y-151130000D01*
X145989513Y-150838889D01*
X145904599Y-150558966D01*
X145766706Y-150300986D01*
X145581134Y-150074866D01*
X145355014Y-149889294D01*
X145300209Y-149860000D01*
X145355014Y-149830706D01*
X145581134Y-149645134D01*
X145766706Y-149419014D01*
X145904599Y-149161034D01*
X145989513Y-148881111D01*
X146018185Y-148590000D01*
X145989513Y-148298889D01*
X145904599Y-148018966D01*
X145766706Y-147760986D01*
X145581134Y-147534866D01*
X145355014Y-147349294D01*
X145300209Y-147320000D01*
X145355014Y-147290706D01*
X145581134Y-147105134D01*
X145766706Y-146879014D01*
X145904599Y-146621034D01*
X145989513Y-146341111D01*
X146018185Y-146050000D01*
X145989513Y-145758889D01*
X145904599Y-145478966D01*
X145766706Y-145220986D01*
X145581134Y-144994866D01*
X145355014Y-144809294D01*
X145300209Y-144780000D01*
X145355014Y-144750706D01*
X145581134Y-144565134D01*
X145766706Y-144339014D01*
X145904599Y-144081034D01*
X145989513Y-143801111D01*
X146018185Y-143510000D01*
X145989513Y-143218889D01*
X145904599Y-142938966D01*
X145766706Y-142680986D01*
X145581134Y-142454866D01*
X145355014Y-142269294D01*
X145300209Y-142240000D01*
X145355014Y-142210706D01*
X145581134Y-142025134D01*
X145766706Y-141799014D01*
X145904599Y-141541034D01*
X145989513Y-141261111D01*
X146018185Y-140970000D01*
X145989513Y-140678889D01*
X145904599Y-140398966D01*
X145766706Y-140140986D01*
X145581134Y-139914866D01*
X145355014Y-139729294D01*
X145290477Y-139694799D01*
X145407355Y-139625178D01*
X145623588Y-139430269D01*
X145797641Y-139196920D01*
X145922825Y-138934099D01*
X145967476Y-138786890D01*
X145846155Y-138557000D01*
X144653000Y-138557000D01*
X144653000Y-138577000D01*
X144399000Y-138577000D01*
X144399000Y-138557000D01*
X143205845Y-138557000D01*
X143084524Y-138786890D01*
X143129175Y-138934099D01*
X143254359Y-139196920D01*
X143428412Y-139430269D01*
X143644645Y-139625178D01*
X143761523Y-139694799D01*
X143696986Y-139729294D01*
X143470866Y-139914866D01*
X143285294Y-140140986D01*
X143147401Y-140398966D01*
X143062487Y-140678889D01*
X143033815Y-140970000D01*
X143062487Y-141261111D01*
X143147401Y-141541034D01*
X143285294Y-141799014D01*
X143470866Y-142025134D01*
X143696986Y-142210706D01*
X143751791Y-142240000D01*
X143696986Y-142269294D01*
X143470866Y-142454866D01*
X143285294Y-142680986D01*
X143147401Y-142938966D01*
X143062487Y-143218889D01*
X143033815Y-143510000D01*
X143062487Y-143801111D01*
X143147401Y-144081034D01*
X143285294Y-144339014D01*
X143470866Y-144565134D01*
X143696986Y-144750706D01*
X143751791Y-144780000D01*
X143696986Y-144809294D01*
X143470866Y-144994866D01*
X143285294Y-145220986D01*
X143147401Y-145478966D01*
X143062487Y-145758889D01*
X143033815Y-146050000D01*
X143062487Y-146341111D01*
X143147401Y-146621034D01*
X143285294Y-146879014D01*
X143470866Y-147105134D01*
X143696986Y-147290706D01*
X143751791Y-147320000D01*
X143696986Y-147349294D01*
X143470866Y-147534866D01*
X143285294Y-147760986D01*
X143147401Y-148018966D01*
X143062487Y-148298889D01*
X143033815Y-148590000D01*
X143062487Y-148881111D01*
X143147401Y-149161034D01*
X143285294Y-149419014D01*
X143470866Y-149645134D01*
X143696986Y-149830706D01*
X143751791Y-149860000D01*
X143696986Y-149889294D01*
X143470866Y-150074866D01*
X143285294Y-150300986D01*
X143147401Y-150558966D01*
X143062487Y-150838889D01*
X143033815Y-151130000D01*
X143062487Y-151421111D01*
X143147401Y-151701034D01*
X143285294Y-151959014D01*
X143470866Y-152185134D01*
X143696986Y-152370706D01*
X143954966Y-152508599D01*
X144234889Y-152593513D01*
X144453050Y-152615000D01*
X144583422Y-152615000D01*
X144413422Y-152785000D01*
X123556579Y-152785000D01*
X119214132Y-148442554D01*
X119280134Y-148469893D01*
X119562203Y-148526000D01*
X119849797Y-148526000D01*
X120131866Y-148469893D01*
X120397569Y-148359835D01*
X120636696Y-148200056D01*
X120840056Y-147996696D01*
X120999835Y-147757569D01*
X121109893Y-147491866D01*
X121166000Y-147209797D01*
X121166000Y-146922203D01*
X122746000Y-146922203D01*
X122746000Y-147209797D01*
X122802107Y-147491866D01*
X122912165Y-147757569D01*
X123071944Y-147996696D01*
X123275304Y-148200056D01*
X123514431Y-148359835D01*
X123780134Y-148469893D01*
X124062203Y-148526000D01*
X124349797Y-148526000D01*
X124631866Y-148469893D01*
X124897569Y-148359835D01*
X125136696Y-148200056D01*
X125340056Y-147996696D01*
X125499835Y-147757569D01*
X125609893Y-147491866D01*
X125666000Y-147209797D01*
X125666000Y-146922203D01*
X125609893Y-146640134D01*
X125499835Y-146374431D01*
X125340056Y-146135304D01*
X125136696Y-145931944D01*
X124897569Y-145772165D01*
X124631866Y-145662107D01*
X124349797Y-145606000D01*
X124062203Y-145606000D01*
X123780134Y-145662107D01*
X123514431Y-145772165D01*
X123275304Y-145931944D01*
X123071944Y-146135304D01*
X122912165Y-146374431D01*
X122802107Y-146640134D01*
X122746000Y-146922203D01*
X121166000Y-146922203D01*
X121109893Y-146640134D01*
X120999835Y-146374431D01*
X120950102Y-146300000D01*
X121302532Y-146300000D01*
X121346001Y-146304281D01*
X121389470Y-146300000D01*
X121389478Y-146300000D01*
X121519491Y-146287195D01*
X121686314Y-146236589D01*
X121840060Y-146154411D01*
X121974818Y-146043817D01*
X122002535Y-146010044D01*
X123297616Y-144714964D01*
X123514431Y-144859835D01*
X123780134Y-144969893D01*
X124062203Y-145026000D01*
X124349797Y-145026000D01*
X124631866Y-144969893D01*
X124897569Y-144859835D01*
X125136696Y-144700056D01*
X125340056Y-144496696D01*
X125499835Y-144257569D01*
X125609893Y-143991866D01*
X125666000Y-143709797D01*
X125666000Y-143422203D01*
X125609893Y-143140134D01*
X125499835Y-142874431D01*
X125340056Y-142635304D01*
X125136696Y-142431944D01*
X124897569Y-142272165D01*
X124631866Y-142162107D01*
X124349797Y-142106000D01*
X124062203Y-142106000D01*
X123780134Y-142162107D01*
X123514431Y-142272165D01*
X123275304Y-142431944D01*
X123071944Y-142635304D01*
X123033654Y-142692609D01*
X123021511Y-142693805D01*
X122854688Y-142744411D01*
X122700942Y-142826589D01*
X122599954Y-142909468D01*
X122599952Y-142909470D01*
X122566184Y-142937183D01*
X122538471Y-142970951D01*
X120979423Y-144530000D01*
X120806752Y-144530000D01*
X120840056Y-144496696D01*
X120999835Y-144257569D01*
X121109893Y-143991866D01*
X121166000Y-143709797D01*
X121166000Y-143422203D01*
X121109893Y-143140134D01*
X120999835Y-142874431D01*
X120840056Y-142635304D01*
X120636696Y-142431944D01*
X120397569Y-142272165D01*
X120131866Y-142162107D01*
X119849797Y-142106000D01*
X119562203Y-142106000D01*
X119280134Y-142162107D01*
X119014431Y-142272165D01*
X118775304Y-142431944D01*
X118571944Y-142635304D01*
X118412165Y-142874431D01*
X118302107Y-143140134D01*
X118246000Y-143422203D01*
X118246000Y-143709797D01*
X118302107Y-143991866D01*
X118412165Y-144257569D01*
X118571944Y-144496696D01*
X118605248Y-144530000D01*
X118563465Y-144530000D01*
X118519999Y-144525719D01*
X118476533Y-144530000D01*
X118476523Y-144530000D01*
X118346510Y-144542805D01*
X118179687Y-144593411D01*
X118025941Y-144675589D01*
X118025939Y-144675590D01*
X118025940Y-144675590D01*
X117924953Y-144758468D01*
X117924951Y-144758470D01*
X117891183Y-144786183D01*
X117863470Y-144819951D01*
X117110952Y-145572470D01*
X117077185Y-145600182D01*
X117049472Y-145633950D01*
X117049469Y-145633953D01*
X116966591Y-145734940D01*
X116884413Y-145888686D01*
X116833806Y-146055509D01*
X116816720Y-146228999D01*
X106807000Y-146228999D01*
X106807000Y-140322203D01*
X118246000Y-140322203D01*
X118246000Y-140609797D01*
X118302107Y-140891866D01*
X118412165Y-141157569D01*
X118571944Y-141396696D01*
X118775304Y-141600056D01*
X119014431Y-141759835D01*
X119280134Y-141869893D01*
X119562203Y-141926000D01*
X119849797Y-141926000D01*
X120131866Y-141869893D01*
X120397569Y-141759835D01*
X120636696Y-141600056D01*
X120840056Y-141396696D01*
X120999835Y-141157569D01*
X121109893Y-140891866D01*
X121166000Y-140609797D01*
X121166000Y-140322203D01*
X122746000Y-140322203D01*
X122746000Y-140609797D01*
X122802107Y-140891866D01*
X122912165Y-141157569D01*
X123071944Y-141396696D01*
X123275304Y-141600056D01*
X123514431Y-141759835D01*
X123780134Y-141869893D01*
X124062203Y-141926000D01*
X124349797Y-141926000D01*
X124631866Y-141869893D01*
X124897569Y-141759835D01*
X125136696Y-141600056D01*
X125340056Y-141396696D01*
X125499835Y-141157569D01*
X125609893Y-140891866D01*
X125666000Y-140609797D01*
X125666000Y-140322203D01*
X125609893Y-140040134D01*
X125499835Y-139774431D01*
X125340056Y-139535304D01*
X125136696Y-139331944D01*
X124897569Y-139172165D01*
X124631866Y-139062107D01*
X124349797Y-139006000D01*
X124062203Y-139006000D01*
X123780134Y-139062107D01*
X123514431Y-139172165D01*
X123275304Y-139331944D01*
X123071944Y-139535304D01*
X122912165Y-139774431D01*
X122802107Y-140040134D01*
X122746000Y-140322203D01*
X121166000Y-140322203D01*
X121109893Y-140040134D01*
X120999835Y-139774431D01*
X120840056Y-139535304D01*
X120636696Y-139331944D01*
X120397569Y-139172165D01*
X120131866Y-139062107D01*
X119849797Y-139006000D01*
X119562203Y-139006000D01*
X119280134Y-139062107D01*
X119014431Y-139172165D01*
X118775304Y-139331944D01*
X118571944Y-139535304D01*
X118412165Y-139774431D01*
X118302107Y-140040134D01*
X118246000Y-140322203D01*
X106807000Y-140322203D01*
X106807000Y-137322203D01*
X118246000Y-137322203D01*
X118246000Y-137609797D01*
X118302107Y-137891866D01*
X118412165Y-138157569D01*
X118571944Y-138396696D01*
X118775304Y-138600056D01*
X119014431Y-138759835D01*
X119280134Y-138869893D01*
X119562203Y-138926000D01*
X119849797Y-138926000D01*
X120131866Y-138869893D01*
X120397569Y-138759835D01*
X120636696Y-138600056D01*
X120840056Y-138396696D01*
X120999835Y-138157569D01*
X121109893Y-137891866D01*
X121166000Y-137609797D01*
X121166000Y-137322203D01*
X122746000Y-137322203D01*
X122746000Y-137609797D01*
X122802107Y-137891866D01*
X122912165Y-138157569D01*
X123071944Y-138396696D01*
X123275304Y-138600056D01*
X123514431Y-138759835D01*
X123780134Y-138869893D01*
X124062203Y-138926000D01*
X124349797Y-138926000D01*
X124631866Y-138869893D01*
X124897569Y-138759835D01*
X125136696Y-138600056D01*
X125340056Y-138396696D01*
X125499835Y-138157569D01*
X125609893Y-137891866D01*
X125666000Y-137609797D01*
X125666000Y-137322203D01*
X125609893Y-137040134D01*
X125499835Y-136774431D01*
X125340056Y-136535304D01*
X125136696Y-136331944D01*
X125009404Y-136246890D01*
X143084524Y-136246890D01*
X143129175Y-136394099D01*
X143254359Y-136656920D01*
X143428412Y-136890269D01*
X143644645Y-137085178D01*
X143770255Y-137160000D01*
X143644645Y-137234822D01*
X143428412Y-137429731D01*
X143254359Y-137663080D01*
X143129175Y-137925901D01*
X143084524Y-138073110D01*
X143205845Y-138303000D01*
X144399000Y-138303000D01*
X144399000Y-136017000D01*
X144653000Y-136017000D01*
X144653000Y-138303000D01*
X145846155Y-138303000D01*
X145967476Y-138073110D01*
X145922825Y-137925901D01*
X145797641Y-137663080D01*
X145623588Y-137429731D01*
X145407355Y-137234822D01*
X145281745Y-137160000D01*
X145407355Y-137085178D01*
X145623588Y-136890269D01*
X145797641Y-136656920D01*
X145922825Y-136394099D01*
X145967476Y-136246890D01*
X145846155Y-136017000D01*
X144653000Y-136017000D01*
X144399000Y-136017000D01*
X143205845Y-136017000D01*
X143084524Y-136246890D01*
X125009404Y-136246890D01*
X124897569Y-136172165D01*
X124631866Y-136062107D01*
X124349797Y-136006000D01*
X124062203Y-136006000D01*
X123780134Y-136062107D01*
X123514431Y-136172165D01*
X123275304Y-136331944D01*
X123071944Y-136535304D01*
X122912165Y-136774431D01*
X122802107Y-137040134D01*
X122746000Y-137322203D01*
X121166000Y-137322203D01*
X121109893Y-137040134D01*
X120999835Y-136774431D01*
X120840056Y-136535304D01*
X120636696Y-136331944D01*
X120397569Y-136172165D01*
X120131866Y-136062107D01*
X119849797Y-136006000D01*
X119562203Y-136006000D01*
X119280134Y-136062107D01*
X119014431Y-136172165D01*
X118775304Y-136331944D01*
X118571944Y-136535304D01*
X118412165Y-136774431D01*
X118302107Y-137040134D01*
X118246000Y-137322203D01*
X106807000Y-137322203D01*
X106807000Y-125322203D01*
X118246000Y-125322203D01*
X118246000Y-125609797D01*
X118302107Y-125891866D01*
X118412165Y-126157569D01*
X118571944Y-126396696D01*
X118775304Y-126600056D01*
X119014431Y-126759835D01*
X119280134Y-126869893D01*
X119562203Y-126926000D01*
X119849797Y-126926000D01*
X120131866Y-126869893D01*
X120397569Y-126759835D01*
X120636696Y-126600056D01*
X120840056Y-126396696D01*
X120999835Y-126157569D01*
X121109893Y-125891866D01*
X121160000Y-125639960D01*
X121160000Y-128292041D01*
X121109893Y-128040134D01*
X120999835Y-127774431D01*
X120840056Y-127535304D01*
X120636696Y-127331944D01*
X120397569Y-127172165D01*
X120131866Y-127062107D01*
X119849797Y-127006000D01*
X119562203Y-127006000D01*
X119280134Y-127062107D01*
X119014431Y-127172165D01*
X118775304Y-127331944D01*
X118571944Y-127535304D01*
X118412165Y-127774431D01*
X118302107Y-128040134D01*
X118246000Y-128322203D01*
X118246000Y-128609797D01*
X118302107Y-128891866D01*
X118412165Y-129157569D01*
X118571944Y-129396696D01*
X118775304Y-129600056D01*
X119014431Y-129759835D01*
X119280134Y-129869893D01*
X119562203Y-129926000D01*
X119849797Y-129926000D01*
X120131866Y-129869893D01*
X120397569Y-129759835D01*
X120636696Y-129600056D01*
X120840056Y-129396696D01*
X120999835Y-129157569D01*
X121109893Y-128891866D01*
X121160001Y-128639958D01*
X121160001Y-131292043D01*
X121109893Y-131040134D01*
X120999835Y-130774431D01*
X120840056Y-130535304D01*
X120636696Y-130331944D01*
X120397569Y-130172165D01*
X120131866Y-130062107D01*
X119849797Y-130006000D01*
X119562203Y-130006000D01*
X119280134Y-130062107D01*
X119014431Y-130172165D01*
X118775304Y-130331944D01*
X118571944Y-130535304D01*
X118412165Y-130774431D01*
X118302107Y-131040134D01*
X118246000Y-131322203D01*
X118246000Y-131609797D01*
X118302107Y-131891866D01*
X118412165Y-132157569D01*
X118571944Y-132396696D01*
X118775304Y-132600056D01*
X119014431Y-132759835D01*
X119280134Y-132869893D01*
X119562203Y-132926000D01*
X119849797Y-132926000D01*
X120131866Y-132869893D01*
X120294792Y-132802407D01*
X120051148Y-133046051D01*
X119849797Y-133006000D01*
X119562203Y-133006000D01*
X119280134Y-133062107D01*
X119014431Y-133172165D01*
X118775304Y-133331944D01*
X118571944Y-133535304D01*
X118412165Y-133774431D01*
X118302107Y-134040134D01*
X118246000Y-134322203D01*
X118246000Y-134609797D01*
X118302107Y-134891866D01*
X118412165Y-135157569D01*
X118571944Y-135396696D01*
X118775304Y-135600056D01*
X119014431Y-135759835D01*
X119280134Y-135869893D01*
X119562203Y-135926000D01*
X119849797Y-135926000D01*
X120131866Y-135869893D01*
X120397569Y-135759835D01*
X120636696Y-135600056D01*
X120840056Y-135396696D01*
X120999835Y-135157569D01*
X121109893Y-134891866D01*
X121166000Y-134609797D01*
X121166000Y-134322203D01*
X122746000Y-134322203D01*
X122746000Y-134609797D01*
X122802107Y-134891866D01*
X122912165Y-135157569D01*
X123071944Y-135396696D01*
X123275304Y-135600056D01*
X123514431Y-135759835D01*
X123780134Y-135869893D01*
X124062203Y-135926000D01*
X124349797Y-135926000D01*
X124631866Y-135869893D01*
X124897569Y-135759835D01*
X125136696Y-135600056D01*
X125340056Y-135396696D01*
X125499835Y-135157569D01*
X125609893Y-134891866D01*
X125666000Y-134609797D01*
X125666000Y-134322203D01*
X125609893Y-134040134D01*
X125499835Y-133774431D01*
X125454706Y-133706890D01*
X143084524Y-133706890D01*
X143129175Y-133854099D01*
X143254359Y-134116920D01*
X143428412Y-134350269D01*
X143644645Y-134545178D01*
X143770255Y-134620000D01*
X143644645Y-134694822D01*
X143428412Y-134889731D01*
X143254359Y-135123080D01*
X143129175Y-135385901D01*
X143084524Y-135533110D01*
X143205845Y-135763000D01*
X144399000Y-135763000D01*
X144399000Y-133477000D01*
X144653000Y-133477000D01*
X144653000Y-135763000D01*
X145846155Y-135763000D01*
X145967476Y-135533110D01*
X145922825Y-135385901D01*
X145797641Y-135123080D01*
X145623588Y-134889731D01*
X145407355Y-134694822D01*
X145281745Y-134620000D01*
X145407355Y-134545178D01*
X145623588Y-134350269D01*
X145797641Y-134116920D01*
X145922825Y-133854099D01*
X145967476Y-133706890D01*
X145846155Y-133477000D01*
X144653000Y-133477000D01*
X144399000Y-133477000D01*
X143205845Y-133477000D01*
X143084524Y-133706890D01*
X125454706Y-133706890D01*
X125340056Y-133535304D01*
X125136696Y-133331944D01*
X124897569Y-133172165D01*
X124631866Y-133062107D01*
X124349797Y-133006000D01*
X124062203Y-133006000D01*
X123780134Y-133062107D01*
X123514431Y-133172165D01*
X123275304Y-133331944D01*
X123071944Y-133535304D01*
X122912165Y-133774431D01*
X122802107Y-134040134D01*
X122746000Y-134322203D01*
X121166000Y-134322203D01*
X121125949Y-134120852D01*
X122431003Y-132815799D01*
X122460001Y-132792001D01*
X122486399Y-132759835D01*
X122554974Y-132676277D01*
X122625546Y-132544247D01*
X122669003Y-132400986D01*
X122680000Y-132289333D01*
X122680000Y-132289324D01*
X122683676Y-132252001D01*
X122680000Y-132214678D01*
X122680000Y-131322203D01*
X122746000Y-131322203D01*
X122746000Y-131609797D01*
X122802107Y-131891866D01*
X122912165Y-132157569D01*
X123071944Y-132396696D01*
X123275304Y-132600056D01*
X123514431Y-132759835D01*
X123780134Y-132869893D01*
X124062203Y-132926000D01*
X124349797Y-132926000D01*
X124631866Y-132869893D01*
X124897569Y-132759835D01*
X125136696Y-132600056D01*
X125340056Y-132396696D01*
X125499835Y-132157569D01*
X125609893Y-131891866D01*
X125666000Y-131609797D01*
X125666000Y-131322203D01*
X125635107Y-131166890D01*
X143084524Y-131166890D01*
X143129175Y-131314099D01*
X143254359Y-131576920D01*
X143428412Y-131810269D01*
X143644645Y-132005178D01*
X143770255Y-132080000D01*
X143644645Y-132154822D01*
X143428412Y-132349731D01*
X143254359Y-132583080D01*
X143129175Y-132845901D01*
X143084524Y-132993110D01*
X143205845Y-133223000D01*
X144399000Y-133223000D01*
X144399000Y-130937000D01*
X144653000Y-130937000D01*
X144653000Y-133223000D01*
X145846155Y-133223000D01*
X145967476Y-132993110D01*
X145922825Y-132845901D01*
X145797641Y-132583080D01*
X145623588Y-132349731D01*
X145407355Y-132154822D01*
X145281745Y-132080000D01*
X145407355Y-132005178D01*
X145623588Y-131810269D01*
X145797641Y-131576920D01*
X145922825Y-131314099D01*
X145967476Y-131166890D01*
X145846155Y-130937000D01*
X144653000Y-130937000D01*
X144399000Y-130937000D01*
X143205845Y-130937000D01*
X143084524Y-131166890D01*
X125635107Y-131166890D01*
X125609893Y-131040134D01*
X125499835Y-130774431D01*
X125340056Y-130535304D01*
X125136696Y-130331944D01*
X124897569Y-130172165D01*
X124631866Y-130062107D01*
X124349797Y-130006000D01*
X124062203Y-130006000D01*
X123780134Y-130062107D01*
X123514431Y-130172165D01*
X123275304Y-130331944D01*
X123071944Y-130535304D01*
X122912165Y-130774431D01*
X122802107Y-131040134D01*
X122746000Y-131322203D01*
X122680000Y-131322203D01*
X122680000Y-128322203D01*
X122746000Y-128322203D01*
X122746000Y-128609797D01*
X122802107Y-128891866D01*
X122912165Y-129157569D01*
X123071944Y-129396696D01*
X123275304Y-129600056D01*
X123514431Y-129759835D01*
X123780134Y-129869893D01*
X124062203Y-129926000D01*
X124349797Y-129926000D01*
X124631866Y-129869893D01*
X124897569Y-129759835D01*
X125136696Y-129600056D01*
X125340056Y-129396696D01*
X125499835Y-129157569D01*
X125609893Y-128891866D01*
X125666000Y-128609797D01*
X125666000Y-128322203D01*
X125609893Y-128040134D01*
X125499835Y-127774431D01*
X125340056Y-127535304D01*
X125136696Y-127331944D01*
X124897569Y-127172165D01*
X124631866Y-127062107D01*
X124349797Y-127006000D01*
X124062203Y-127006000D01*
X123780134Y-127062107D01*
X123514431Y-127172165D01*
X123275304Y-127331944D01*
X123071944Y-127535304D01*
X122912165Y-127774431D01*
X122802107Y-128040134D01*
X122746000Y-128322203D01*
X122680000Y-128322203D01*
X122680000Y-125066801D01*
X122869593Y-124877208D01*
X122802107Y-125040134D01*
X122746000Y-125322203D01*
X122746000Y-125609797D01*
X122802107Y-125891866D01*
X122912165Y-126157569D01*
X123071944Y-126396696D01*
X123275304Y-126600056D01*
X123514431Y-126759835D01*
X123780134Y-126869893D01*
X124062203Y-126926000D01*
X124349797Y-126926000D01*
X124631866Y-126869893D01*
X124897569Y-126759835D01*
X125136696Y-126600056D01*
X125340056Y-126396696D01*
X125499835Y-126157569D01*
X125609893Y-125891866D01*
X125642090Y-125730000D01*
X143033815Y-125730000D01*
X143062487Y-126021111D01*
X143147401Y-126301034D01*
X143285294Y-126559014D01*
X143470866Y-126785134D01*
X143696986Y-126970706D01*
X143751791Y-127000000D01*
X143696986Y-127029294D01*
X143470866Y-127214866D01*
X143285294Y-127440986D01*
X143147401Y-127698966D01*
X143062487Y-127978889D01*
X143033815Y-128270000D01*
X143062487Y-128561111D01*
X143147401Y-128841034D01*
X143285294Y-129099014D01*
X143470866Y-129325134D01*
X143696986Y-129510706D01*
X143761523Y-129545201D01*
X143644645Y-129614822D01*
X143428412Y-129809731D01*
X143254359Y-130043080D01*
X143129175Y-130305901D01*
X143084524Y-130453110D01*
X143205845Y-130683000D01*
X144399000Y-130683000D01*
X144399000Y-130663000D01*
X144653000Y-130663000D01*
X144653000Y-130683000D01*
X145846155Y-130683000D01*
X145967476Y-130453110D01*
X145922825Y-130305901D01*
X145797641Y-130043080D01*
X145623588Y-129809731D01*
X145407355Y-129614822D01*
X145290477Y-129545201D01*
X145355014Y-129510706D01*
X145581134Y-129325134D01*
X145766706Y-129099014D01*
X145904599Y-128841034D01*
X145989513Y-128561111D01*
X146018185Y-128270000D01*
X145989513Y-127978889D01*
X145904599Y-127698966D01*
X145766706Y-127440986D01*
X145581134Y-127214866D01*
X145355014Y-127029294D01*
X145300209Y-127000000D01*
X145355014Y-126970706D01*
X145581134Y-126785134D01*
X145766706Y-126559014D01*
X145904599Y-126301034D01*
X145989513Y-126021111D01*
X146018185Y-125730000D01*
X145989513Y-125438889D01*
X145904599Y-125158966D01*
X145766706Y-124900986D01*
X145581134Y-124674866D01*
X145551313Y-124650393D01*
X145620180Y-124629502D01*
X145730494Y-124570537D01*
X145827185Y-124491185D01*
X145906537Y-124394494D01*
X145965502Y-124284180D01*
X146001812Y-124164482D01*
X146014072Y-124040000D01*
X146014072Y-122340000D01*
X146001812Y-122215518D01*
X145965502Y-122095820D01*
X145906537Y-121985506D01*
X145827185Y-121888815D01*
X145730494Y-121809463D01*
X145620180Y-121750498D01*
X145500482Y-121714188D01*
X145376000Y-121701928D01*
X143676000Y-121701928D01*
X143551518Y-121714188D01*
X143431820Y-121750498D01*
X143321506Y-121809463D01*
X143224815Y-121888815D01*
X143145463Y-121985506D01*
X143086498Y-122095820D01*
X143050188Y-122215518D01*
X143037928Y-122340000D01*
X143037928Y-124040000D01*
X143050188Y-124164482D01*
X143086498Y-124284180D01*
X143145463Y-124394494D01*
X143224815Y-124491185D01*
X143321506Y-124570537D01*
X143431820Y-124629502D01*
X143500687Y-124650393D01*
X143470866Y-124674866D01*
X143285294Y-124900986D01*
X143147401Y-125158966D01*
X143062487Y-125438889D01*
X143033815Y-125730000D01*
X125642090Y-125730000D01*
X125666000Y-125609797D01*
X125666000Y-125322203D01*
X125609893Y-125040134D01*
X125499835Y-124774431D01*
X125340056Y-124535304D01*
X125136696Y-124331944D01*
X124897569Y-124172165D01*
X124631866Y-124062107D01*
X124349797Y-124006000D01*
X124062203Y-124006000D01*
X123780134Y-124062107D01*
X123617208Y-124129593D01*
X123860853Y-123885949D01*
X124062203Y-123926000D01*
X124349797Y-123926000D01*
X124631866Y-123869893D01*
X124897569Y-123759835D01*
X125136696Y-123600056D01*
X125340056Y-123396696D01*
X125499835Y-123157569D01*
X125609893Y-122891866D01*
X125666000Y-122609797D01*
X125666000Y-122322203D01*
X125609893Y-122040134D01*
X125499835Y-121774431D01*
X125340056Y-121535304D01*
X125136696Y-121331944D01*
X124897569Y-121172165D01*
X124631866Y-121062107D01*
X124349797Y-121006000D01*
X124062203Y-121006000D01*
X123780134Y-121062107D01*
X123514431Y-121172165D01*
X123275304Y-121331944D01*
X123071944Y-121535304D01*
X122912165Y-121774431D01*
X122802107Y-122040134D01*
X122746000Y-122322203D01*
X122746000Y-122609797D01*
X122786051Y-122811147D01*
X121409003Y-124188196D01*
X121379999Y-124211999D01*
X121335282Y-124266487D01*
X121285026Y-124327724D01*
X121214455Y-124459753D01*
X121214454Y-124459754D01*
X121170997Y-124603015D01*
X121160000Y-124714668D01*
X121160000Y-124714678D01*
X121156324Y-124752000D01*
X121160000Y-124789322D01*
X121160000Y-125292039D01*
X121109893Y-125040134D01*
X120999835Y-124774431D01*
X120840056Y-124535304D01*
X120636696Y-124331944D01*
X120397569Y-124172165D01*
X120131866Y-124062107D01*
X119849797Y-124006000D01*
X119562203Y-124006000D01*
X119280134Y-124062107D01*
X119014431Y-124172165D01*
X118775304Y-124331944D01*
X118571944Y-124535304D01*
X118412165Y-124774431D01*
X118302107Y-125040134D01*
X118246000Y-125322203D01*
X106807000Y-125322203D01*
X106807000Y-122322203D01*
X118246000Y-122322203D01*
X118246000Y-122609797D01*
X118302107Y-122891866D01*
X118412165Y-123157569D01*
X118571944Y-123396696D01*
X118775304Y-123600056D01*
X119014431Y-123759835D01*
X119280134Y-123869893D01*
X119562203Y-123926000D01*
X119849797Y-123926000D01*
X120131866Y-123869893D01*
X120397569Y-123759835D01*
X120636696Y-123600056D01*
X120840056Y-123396696D01*
X120999835Y-123157569D01*
X121109893Y-122891866D01*
X121166000Y-122609797D01*
X121166000Y-122322203D01*
X121109893Y-122040134D01*
X120999835Y-121774431D01*
X120840056Y-121535304D01*
X120636696Y-121331944D01*
X120397569Y-121172165D01*
X120131866Y-121062107D01*
X119849797Y-121006000D01*
X119562203Y-121006000D01*
X119280134Y-121062107D01*
X119014431Y-121172165D01*
X118775304Y-121331944D01*
X118571944Y-121535304D01*
X118412165Y-121774431D01*
X118302107Y-122040134D01*
X118246000Y-122322203D01*
X106807000Y-122322203D01*
X106807000Y-119322203D01*
X118246000Y-119322203D01*
X118246000Y-119609797D01*
X118302107Y-119891866D01*
X118412165Y-120157569D01*
X118571944Y-120396696D01*
X118775304Y-120600056D01*
X119014431Y-120759835D01*
X119280134Y-120869893D01*
X119562203Y-120926000D01*
X119849797Y-120926000D01*
X120131866Y-120869893D01*
X120397569Y-120759835D01*
X120636696Y-120600056D01*
X120840056Y-120396696D01*
X120999835Y-120157569D01*
X121109893Y-119891866D01*
X121166000Y-119609797D01*
X121166000Y-119322203D01*
X122746000Y-119322203D01*
X122746000Y-119609797D01*
X122802107Y-119891866D01*
X122912165Y-120157569D01*
X123071944Y-120396696D01*
X123275304Y-120600056D01*
X123514431Y-120759835D01*
X123780134Y-120869893D01*
X124062203Y-120926000D01*
X124349797Y-120926000D01*
X124631866Y-120869893D01*
X124897569Y-120759835D01*
X125136696Y-120600056D01*
X125340056Y-120396696D01*
X125499835Y-120157569D01*
X125609893Y-119891866D01*
X125666000Y-119609797D01*
X125666000Y-119322203D01*
X125609893Y-119040134D01*
X125499835Y-118774431D01*
X125340056Y-118535304D01*
X125136696Y-118331944D01*
X124897569Y-118172165D01*
X124631866Y-118062107D01*
X124349797Y-118006000D01*
X124062203Y-118006000D01*
X123780134Y-118062107D01*
X123514431Y-118172165D01*
X123275304Y-118331944D01*
X123071944Y-118535304D01*
X122912165Y-118774431D01*
X122802107Y-119040134D01*
X122746000Y-119322203D01*
X121166000Y-119322203D01*
X121109893Y-119040134D01*
X120999835Y-118774431D01*
X120840056Y-118535304D01*
X120636696Y-118331944D01*
X120397569Y-118172165D01*
X120131866Y-118062107D01*
X119849797Y-118006000D01*
X119562203Y-118006000D01*
X119280134Y-118062107D01*
X119014431Y-118172165D01*
X118775304Y-118331944D01*
X118571944Y-118535304D01*
X118412165Y-118774431D01*
X118302107Y-119040134D01*
X118246000Y-119322203D01*
X106807000Y-119322203D01*
X106807000Y-112944918D01*
X110746000Y-112944918D01*
X110746000Y-113587082D01*
X110871280Y-114216907D01*
X111117025Y-114810189D01*
X111473792Y-115344129D01*
X111927871Y-115798208D01*
X112461811Y-116154975D01*
X113055093Y-116400720D01*
X113684918Y-116526000D01*
X114327082Y-116526000D01*
X114956907Y-116400720D01*
X115387885Y-116222203D01*
X118246000Y-116222203D01*
X118246000Y-116509797D01*
X118302107Y-116791866D01*
X118412165Y-117057569D01*
X118571944Y-117296696D01*
X118775304Y-117500056D01*
X119014431Y-117659835D01*
X119280134Y-117769893D01*
X119562203Y-117826000D01*
X119849797Y-117826000D01*
X120131866Y-117769893D01*
X120397569Y-117659835D01*
X120636696Y-117500056D01*
X120840056Y-117296696D01*
X120999835Y-117057569D01*
X121109893Y-116791866D01*
X121166000Y-116509797D01*
X121166000Y-116222203D01*
X122746000Y-116222203D01*
X122746000Y-116509797D01*
X122802107Y-116791866D01*
X122912165Y-117057569D01*
X123071944Y-117296696D01*
X123275304Y-117500056D01*
X123514431Y-117659835D01*
X123780134Y-117769893D01*
X124062203Y-117826000D01*
X124349797Y-117826000D01*
X124631866Y-117769893D01*
X124897569Y-117659835D01*
X125136696Y-117500056D01*
X125340056Y-117296696D01*
X125499835Y-117057569D01*
X125609893Y-116791866D01*
X125666000Y-116509797D01*
X125666000Y-116222203D01*
X125609893Y-115940134D01*
X125499835Y-115674431D01*
X125340056Y-115435304D01*
X125136696Y-115231944D01*
X124897569Y-115072165D01*
X124631866Y-114962107D01*
X124349797Y-114906000D01*
X124062203Y-114906000D01*
X123780134Y-114962107D01*
X123514431Y-115072165D01*
X123275304Y-115231944D01*
X123071944Y-115435304D01*
X122912165Y-115674431D01*
X122802107Y-115940134D01*
X122746000Y-116222203D01*
X121166000Y-116222203D01*
X121109893Y-115940134D01*
X120999835Y-115674431D01*
X120840056Y-115435304D01*
X120636696Y-115231944D01*
X120397569Y-115072165D01*
X120131866Y-114962107D01*
X119849797Y-114906000D01*
X119562203Y-114906000D01*
X119280134Y-114962107D01*
X119014431Y-115072165D01*
X118775304Y-115231944D01*
X118571944Y-115435304D01*
X118412165Y-115674431D01*
X118302107Y-115940134D01*
X118246000Y-116222203D01*
X115387885Y-116222203D01*
X115550189Y-116154975D01*
X116084129Y-115798208D01*
X116538208Y-115344129D01*
X116894975Y-114810189D01*
X116916098Y-114759193D01*
X150615000Y-114759193D01*
X150615000Y-115110807D01*
X150683596Y-115455665D01*
X150818153Y-115780515D01*
X151013500Y-116072871D01*
X151262129Y-116321500D01*
X151554485Y-116516847D01*
X151879335Y-116651404D01*
X152224193Y-116720000D01*
X152575807Y-116720000D01*
X152920665Y-116651404D01*
X153245515Y-116516847D01*
X153537871Y-116321500D01*
X153786500Y-116072871D01*
X153981847Y-115780515D01*
X154116404Y-115455665D01*
X154185000Y-115110807D01*
X154185000Y-114759193D01*
X154116404Y-114414335D01*
X153981847Y-114089485D01*
X153786500Y-113797129D01*
X153537871Y-113548500D01*
X153245515Y-113353153D01*
X152920665Y-113218596D01*
X152575807Y-113150000D01*
X152224193Y-113150000D01*
X151879335Y-113218596D01*
X151554485Y-113353153D01*
X151262129Y-113548500D01*
X151013500Y-113797129D01*
X150818153Y-114089485D01*
X150683596Y-114414335D01*
X150615000Y-114759193D01*
X116916098Y-114759193D01*
X117140720Y-114216907D01*
X117266000Y-113587082D01*
X117266000Y-112944918D01*
X117140720Y-112315093D01*
X116894975Y-111721811D01*
X116538208Y-111187871D01*
X116526888Y-111176551D01*
X118875054Y-111176551D01*
X118949663Y-111423073D01*
X119209439Y-111546473D01*
X119488297Y-111616823D01*
X119775521Y-111631417D01*
X120060074Y-111589697D01*
X120331020Y-111493265D01*
X120462337Y-111423073D01*
X120536946Y-111176551D01*
X123375054Y-111176551D01*
X123449663Y-111423073D01*
X123709439Y-111546473D01*
X123988297Y-111616823D01*
X124275521Y-111631417D01*
X124560074Y-111589697D01*
X124831020Y-111493265D01*
X124962337Y-111423073D01*
X125036946Y-111176551D01*
X124206000Y-110345605D01*
X123375054Y-111176551D01*
X120536946Y-111176551D01*
X119706000Y-110345605D01*
X118875054Y-111176551D01*
X116526888Y-111176551D01*
X116084129Y-110733792D01*
X115550189Y-110377025D01*
X115208568Y-110235521D01*
X118240583Y-110235521D01*
X118282303Y-110520074D01*
X118378735Y-110791020D01*
X118448927Y-110922337D01*
X118695449Y-110996946D01*
X119526395Y-110166000D01*
X119885605Y-110166000D01*
X120716551Y-110996946D01*
X120963073Y-110922337D01*
X121086473Y-110662561D01*
X121156823Y-110383703D01*
X121164352Y-110235521D01*
X122740583Y-110235521D01*
X122782303Y-110520074D01*
X122878735Y-110791020D01*
X122948927Y-110922337D01*
X123195449Y-110996946D01*
X124026395Y-110166000D01*
X124385605Y-110166000D01*
X125216551Y-110996946D01*
X125463073Y-110922337D01*
X125586473Y-110662561D01*
X125656823Y-110383703D01*
X125671417Y-110096479D01*
X125629697Y-109811926D01*
X125582457Y-109679193D01*
X142995000Y-109679193D01*
X142995000Y-110030807D01*
X143063596Y-110375665D01*
X143198153Y-110700515D01*
X143393500Y-110992871D01*
X143642129Y-111241500D01*
X143934485Y-111436847D01*
X144259335Y-111571404D01*
X144604193Y-111640000D01*
X144955807Y-111640000D01*
X145300665Y-111571404D01*
X145625515Y-111436847D01*
X145917871Y-111241500D01*
X146166500Y-110992871D01*
X146361847Y-110700515D01*
X146496404Y-110375665D01*
X146565000Y-110030807D01*
X146565000Y-109679193D01*
X146496404Y-109334335D01*
X146361847Y-109009485D01*
X146166500Y-108717129D01*
X145917871Y-108468500D01*
X145625515Y-108273153D01*
X145300665Y-108138596D01*
X144955807Y-108070000D01*
X144604193Y-108070000D01*
X144259335Y-108138596D01*
X143934485Y-108273153D01*
X143642129Y-108468500D01*
X143393500Y-108717129D01*
X143198153Y-109009485D01*
X143063596Y-109334335D01*
X142995000Y-109679193D01*
X125582457Y-109679193D01*
X125533265Y-109540980D01*
X125463073Y-109409663D01*
X125216551Y-109335054D01*
X124385605Y-110166000D01*
X124026395Y-110166000D01*
X123195449Y-109335054D01*
X122948927Y-109409663D01*
X122825527Y-109669439D01*
X122755177Y-109948297D01*
X122740583Y-110235521D01*
X121164352Y-110235521D01*
X121171417Y-110096479D01*
X121129697Y-109811926D01*
X121033265Y-109540980D01*
X120963073Y-109409663D01*
X120716551Y-109335054D01*
X119885605Y-110166000D01*
X119526395Y-110166000D01*
X118695449Y-109335054D01*
X118448927Y-109409663D01*
X118325527Y-109669439D01*
X118255177Y-109948297D01*
X118240583Y-110235521D01*
X115208568Y-110235521D01*
X114956907Y-110131280D01*
X114327082Y-110006000D01*
X113684918Y-110006000D01*
X113055093Y-110131280D01*
X112461811Y-110377025D01*
X111927871Y-110733792D01*
X111473792Y-111187871D01*
X111117025Y-111721811D01*
X110871280Y-112315093D01*
X110746000Y-112944918D01*
X106807000Y-112944918D01*
X106807000Y-109155449D01*
X118875054Y-109155449D01*
X119706000Y-109986395D01*
X120536946Y-109155449D01*
X123375054Y-109155449D01*
X124206000Y-109986395D01*
X125036946Y-109155449D01*
X124962337Y-108908927D01*
X124702561Y-108785527D01*
X124423703Y-108715177D01*
X124136479Y-108700583D01*
X123851926Y-108742303D01*
X123580980Y-108838735D01*
X123449663Y-108908927D01*
X123375054Y-109155449D01*
X120536946Y-109155449D01*
X120462337Y-108908927D01*
X120202561Y-108785527D01*
X119923703Y-108715177D01*
X119636479Y-108700583D01*
X119351926Y-108742303D01*
X119080980Y-108838735D01*
X118949663Y-108908927D01*
X118875054Y-109155449D01*
X106807000Y-109155449D01*
X106807000Y-107676551D01*
X118875054Y-107676551D01*
X118949663Y-107923073D01*
X119209439Y-108046473D01*
X119488297Y-108116823D01*
X119775521Y-108131417D01*
X120060074Y-108089697D01*
X120331020Y-107993265D01*
X120462337Y-107923073D01*
X120536946Y-107676551D01*
X123375054Y-107676551D01*
X123449663Y-107923073D01*
X123709439Y-108046473D01*
X123988297Y-108116823D01*
X124275521Y-108131417D01*
X124560074Y-108089697D01*
X124831020Y-107993265D01*
X124962337Y-107923073D01*
X125036946Y-107676551D01*
X124206000Y-106845605D01*
X123375054Y-107676551D01*
X120536946Y-107676551D01*
X119706000Y-106845605D01*
X118875054Y-107676551D01*
X106807000Y-107676551D01*
X106807000Y-106735521D01*
X118240583Y-106735521D01*
X118282303Y-107020074D01*
X118378735Y-107291020D01*
X118448927Y-107422337D01*
X118695449Y-107496946D01*
X119526395Y-106666000D01*
X119885605Y-106666000D01*
X120716551Y-107496946D01*
X120963073Y-107422337D01*
X121086473Y-107162561D01*
X121156823Y-106883703D01*
X121164352Y-106735521D01*
X122740583Y-106735521D01*
X122782303Y-107020074D01*
X122878735Y-107291020D01*
X122948927Y-107422337D01*
X123195449Y-107496946D01*
X124026395Y-106666000D01*
X124385605Y-106666000D01*
X125216551Y-107496946D01*
X125463073Y-107422337D01*
X125586473Y-107162561D01*
X125656823Y-106883703D01*
X125671417Y-106596479D01*
X125629697Y-106311926D01*
X125533265Y-106040980D01*
X125463073Y-105909663D01*
X125216551Y-105835054D01*
X124385605Y-106666000D01*
X124026395Y-106666000D01*
X123195449Y-105835054D01*
X122948927Y-105909663D01*
X122825527Y-106169439D01*
X122755177Y-106448297D01*
X122740583Y-106735521D01*
X121164352Y-106735521D01*
X121171417Y-106596479D01*
X121129697Y-106311926D01*
X121033265Y-106040980D01*
X120963073Y-105909663D01*
X120716551Y-105835054D01*
X119885605Y-106666000D01*
X119526395Y-106666000D01*
X118695449Y-105835054D01*
X118448927Y-105909663D01*
X118325527Y-106169439D01*
X118255177Y-106448297D01*
X118240583Y-106735521D01*
X106807000Y-106735521D01*
X106807000Y-105655449D01*
X118875054Y-105655449D01*
X119706000Y-106486395D01*
X120536946Y-105655449D01*
X123375054Y-105655449D01*
X124206000Y-106486395D01*
X125036946Y-105655449D01*
X124962337Y-105408927D01*
X124702561Y-105285527D01*
X124423703Y-105215177D01*
X124136479Y-105200583D01*
X123851926Y-105242303D01*
X123580980Y-105338735D01*
X123449663Y-105408927D01*
X123375054Y-105655449D01*
X120536946Y-105655449D01*
X120462337Y-105408927D01*
X120202561Y-105285527D01*
X119923703Y-105215177D01*
X119636479Y-105200583D01*
X119351926Y-105242303D01*
X119080980Y-105338735D01*
X118949663Y-105408927D01*
X118875054Y-105655449D01*
X106807000Y-105655449D01*
X106807000Y-103422203D01*
X118246000Y-103422203D01*
X118246000Y-103709797D01*
X118302107Y-103991866D01*
X118412165Y-104257569D01*
X118571944Y-104496696D01*
X118775304Y-104700056D01*
X119014431Y-104859835D01*
X119280134Y-104969893D01*
X119562203Y-105026000D01*
X119849797Y-105026000D01*
X120131866Y-104969893D01*
X120397569Y-104859835D01*
X120636696Y-104700056D01*
X120840056Y-104496696D01*
X120999835Y-104257569D01*
X121109893Y-103991866D01*
X121166000Y-103709797D01*
X121166000Y-103422203D01*
X122746000Y-103422203D01*
X122746000Y-103709797D01*
X122802107Y-103991866D01*
X122912165Y-104257569D01*
X123071944Y-104496696D01*
X123275304Y-104700056D01*
X123514431Y-104859835D01*
X123780134Y-104969893D01*
X124062203Y-105026000D01*
X124349797Y-105026000D01*
X124631866Y-104969893D01*
X124897569Y-104859835D01*
X125136696Y-104700056D01*
X125340056Y-104496696D01*
X125499835Y-104257569D01*
X125609893Y-103991866D01*
X125666000Y-103709797D01*
X125666000Y-103422203D01*
X125609893Y-103140134D01*
X125499835Y-102874431D01*
X125340056Y-102635304D01*
X125136696Y-102431944D01*
X124897569Y-102272165D01*
X124631866Y-102162107D01*
X124349797Y-102106000D01*
X124062203Y-102106000D01*
X123780134Y-102162107D01*
X123514431Y-102272165D01*
X123275304Y-102431944D01*
X123071944Y-102635304D01*
X122912165Y-102874431D01*
X122802107Y-103140134D01*
X122746000Y-103422203D01*
X121166000Y-103422203D01*
X121109893Y-103140134D01*
X120999835Y-102874431D01*
X120840056Y-102635304D01*
X120636696Y-102431944D01*
X120397569Y-102272165D01*
X120131866Y-102162107D01*
X119849797Y-102106000D01*
X119562203Y-102106000D01*
X119280134Y-102162107D01*
X119014431Y-102272165D01*
X118775304Y-102431944D01*
X118571944Y-102635304D01*
X118412165Y-102874431D01*
X118302107Y-103140134D01*
X118246000Y-103422203D01*
X106807000Y-103422203D01*
X106807000Y-100422203D01*
X118246000Y-100422203D01*
X118246000Y-100709797D01*
X118302107Y-100991866D01*
X118412165Y-101257569D01*
X118571944Y-101496696D01*
X118775304Y-101700056D01*
X119014431Y-101859835D01*
X119280134Y-101969893D01*
X119562203Y-102026000D01*
X119849797Y-102026000D01*
X120131866Y-101969893D01*
X120397569Y-101859835D01*
X120636696Y-101700056D01*
X120840056Y-101496696D01*
X120999835Y-101257569D01*
X121109893Y-100991866D01*
X121166000Y-100709797D01*
X121166000Y-100422203D01*
X122746000Y-100422203D01*
X122746000Y-100709797D01*
X122802107Y-100991866D01*
X122912165Y-101257569D01*
X123071944Y-101496696D01*
X123275304Y-101700056D01*
X123514431Y-101859835D01*
X123780134Y-101969893D01*
X124062203Y-102026000D01*
X124349797Y-102026000D01*
X124631866Y-101969893D01*
X124897569Y-101859835D01*
X125136696Y-101700056D01*
X125340056Y-101496696D01*
X125499835Y-101257569D01*
X125609893Y-100991866D01*
X125666000Y-100709797D01*
X125666000Y-100422203D01*
X125609893Y-100140134D01*
X125499835Y-99874431D01*
X125340056Y-99635304D01*
X125136696Y-99431944D01*
X124897569Y-99272165D01*
X124631866Y-99162107D01*
X124349797Y-99106000D01*
X124062203Y-99106000D01*
X123780134Y-99162107D01*
X123514431Y-99272165D01*
X123275304Y-99431944D01*
X123071944Y-99635304D01*
X122912165Y-99874431D01*
X122802107Y-100140134D01*
X122746000Y-100422203D01*
X121166000Y-100422203D01*
X121109893Y-100140134D01*
X120999835Y-99874431D01*
X120840056Y-99635304D01*
X120636696Y-99431944D01*
X120397569Y-99272165D01*
X120131866Y-99162107D01*
X119849797Y-99106000D01*
X119562203Y-99106000D01*
X119280134Y-99162107D01*
X119014431Y-99272165D01*
X118775304Y-99431944D01*
X118571944Y-99635304D01*
X118412165Y-99874431D01*
X118302107Y-100140134D01*
X118246000Y-100422203D01*
X106807000Y-100422203D01*
X106807000Y-97422203D01*
X118246000Y-97422203D01*
X118246000Y-97709797D01*
X118302107Y-97991866D01*
X118412165Y-98257569D01*
X118571944Y-98496696D01*
X118775304Y-98700056D01*
X119014431Y-98859835D01*
X119280134Y-98969893D01*
X119562203Y-99026000D01*
X119849797Y-99026000D01*
X120131866Y-98969893D01*
X120397569Y-98859835D01*
X120636696Y-98700056D01*
X120840056Y-98496696D01*
X120999835Y-98257569D01*
X121109893Y-97991866D01*
X121166000Y-97709797D01*
X121166000Y-97422203D01*
X122746000Y-97422203D01*
X122746000Y-97709797D01*
X122802107Y-97991866D01*
X122912165Y-98257569D01*
X123071944Y-98496696D01*
X123275304Y-98700056D01*
X123514431Y-98859835D01*
X123780134Y-98969893D01*
X124062203Y-99026000D01*
X124349797Y-99026000D01*
X124631866Y-98969893D01*
X124897569Y-98859835D01*
X125136696Y-98700056D01*
X125291752Y-98545000D01*
X142991928Y-98545000D01*
X142991928Y-100845000D01*
X143004188Y-100969482D01*
X143040498Y-101089180D01*
X143099463Y-101199494D01*
X143178815Y-101296185D01*
X143275506Y-101375537D01*
X143385820Y-101434502D01*
X143505518Y-101470812D01*
X143630000Y-101483072D01*
X145930000Y-101483072D01*
X146054482Y-101470812D01*
X146174180Y-101434502D01*
X146284494Y-101375537D01*
X146381185Y-101296185D01*
X146460537Y-101199494D01*
X146519502Y-101089180D01*
X146555812Y-100969482D01*
X146568072Y-100845000D01*
X146568072Y-99519193D01*
X150615000Y-99519193D01*
X150615000Y-99870807D01*
X150683596Y-100215665D01*
X150818153Y-100540515D01*
X151013500Y-100832871D01*
X151262129Y-101081500D01*
X151554485Y-101276847D01*
X151879335Y-101411404D01*
X152224193Y-101480000D01*
X152575807Y-101480000D01*
X152920665Y-101411404D01*
X153245515Y-101276847D01*
X153537871Y-101081500D01*
X153786500Y-100832871D01*
X153981847Y-100540515D01*
X154116404Y-100215665D01*
X154185000Y-99870807D01*
X154185000Y-99519193D01*
X154116404Y-99174335D01*
X153981847Y-98849485D01*
X153786500Y-98557129D01*
X153537871Y-98308500D01*
X153245515Y-98113153D01*
X152920665Y-97978596D01*
X152575807Y-97910000D01*
X152224193Y-97910000D01*
X151879335Y-97978596D01*
X151554485Y-98113153D01*
X151262129Y-98308500D01*
X151013500Y-98557129D01*
X150818153Y-98849485D01*
X150683596Y-99174335D01*
X150615000Y-99519193D01*
X146568072Y-99519193D01*
X146568072Y-98545000D01*
X146555812Y-98420518D01*
X146519502Y-98300820D01*
X146460537Y-98190506D01*
X146381185Y-98093815D01*
X146284494Y-98014463D01*
X146174180Y-97955498D01*
X146054482Y-97919188D01*
X145930000Y-97906928D01*
X143630000Y-97906928D01*
X143505518Y-97919188D01*
X143385820Y-97955498D01*
X143275506Y-98014463D01*
X143178815Y-98093815D01*
X143099463Y-98190506D01*
X143040498Y-98300820D01*
X143004188Y-98420518D01*
X142991928Y-98545000D01*
X125291752Y-98545000D01*
X125340056Y-98496696D01*
X125499835Y-98257569D01*
X125609893Y-97991866D01*
X125666000Y-97709797D01*
X125666000Y-97422203D01*
X125609893Y-97140134D01*
X125499835Y-96874431D01*
X125340056Y-96635304D01*
X125136696Y-96431944D01*
X124897569Y-96272165D01*
X124631866Y-96162107D01*
X124349797Y-96106000D01*
X124062203Y-96106000D01*
X123780134Y-96162107D01*
X123514431Y-96272165D01*
X123275304Y-96431944D01*
X123071944Y-96635304D01*
X122912165Y-96874431D01*
X122802107Y-97140134D01*
X122746000Y-97422203D01*
X121166000Y-97422203D01*
X121109893Y-97140134D01*
X120999835Y-96874431D01*
X120840056Y-96635304D01*
X120636696Y-96431944D01*
X120397569Y-96272165D01*
X120131866Y-96162107D01*
X119849797Y-96106000D01*
X119562203Y-96106000D01*
X119280134Y-96162107D01*
X119014431Y-96272165D01*
X118775304Y-96431944D01*
X118571944Y-96635304D01*
X118412165Y-96874431D01*
X118302107Y-97140134D01*
X118246000Y-97422203D01*
X106807000Y-97422203D01*
X106807000Y-94422203D01*
X118246000Y-94422203D01*
X118246000Y-94709797D01*
X118302107Y-94991866D01*
X118412165Y-95257569D01*
X118571944Y-95496696D01*
X118775304Y-95700056D01*
X119014431Y-95859835D01*
X119280134Y-95969893D01*
X119562203Y-96026000D01*
X119849797Y-96026000D01*
X120131866Y-95969893D01*
X120397569Y-95859835D01*
X120636696Y-95700056D01*
X120840056Y-95496696D01*
X120999835Y-95257569D01*
X121109893Y-94991866D01*
X121166000Y-94709797D01*
X121166000Y-94422203D01*
X122746000Y-94422203D01*
X122746000Y-94709797D01*
X122802107Y-94991866D01*
X122912165Y-95257569D01*
X123071944Y-95496696D01*
X123275304Y-95700056D01*
X123514431Y-95859835D01*
X123780134Y-95969893D01*
X124062203Y-96026000D01*
X124349797Y-96026000D01*
X124631866Y-95969893D01*
X124897569Y-95859835D01*
X125136696Y-95700056D01*
X125340056Y-95496696D01*
X125499835Y-95257569D01*
X125609893Y-94991866D01*
X125666000Y-94709797D01*
X125666000Y-94422203D01*
X125609893Y-94140134D01*
X125499835Y-93874431D01*
X125340056Y-93635304D01*
X125136696Y-93431944D01*
X124897569Y-93272165D01*
X124631866Y-93162107D01*
X124349797Y-93106000D01*
X124062203Y-93106000D01*
X123780134Y-93162107D01*
X123514431Y-93272165D01*
X123275304Y-93431944D01*
X123071944Y-93635304D01*
X122912165Y-93874431D01*
X122802107Y-94140134D01*
X122746000Y-94422203D01*
X121166000Y-94422203D01*
X121109893Y-94140134D01*
X120999835Y-93874431D01*
X120840056Y-93635304D01*
X120636696Y-93431944D01*
X120397569Y-93272165D01*
X120131866Y-93162107D01*
X119849797Y-93106000D01*
X119562203Y-93106000D01*
X119280134Y-93162107D01*
X119014431Y-93272165D01*
X118775304Y-93431944D01*
X118571944Y-93635304D01*
X118412165Y-93874431D01*
X118302107Y-94140134D01*
X118246000Y-94422203D01*
X106807000Y-94422203D01*
X106807000Y-91422203D01*
X118246000Y-91422203D01*
X118246000Y-91709797D01*
X118302107Y-91991866D01*
X118412165Y-92257569D01*
X118571944Y-92496696D01*
X118775304Y-92700056D01*
X119014431Y-92859835D01*
X119280134Y-92969893D01*
X119562203Y-93026000D01*
X119849797Y-93026000D01*
X120131866Y-92969893D01*
X120397569Y-92859835D01*
X120636696Y-92700056D01*
X120840056Y-92496696D01*
X120999835Y-92257569D01*
X121109893Y-91991866D01*
X121166000Y-91709797D01*
X121166000Y-91422203D01*
X122746000Y-91422203D01*
X122746000Y-91709797D01*
X122802107Y-91991866D01*
X122912165Y-92257569D01*
X123071944Y-92496696D01*
X123275304Y-92700056D01*
X123514431Y-92859835D01*
X123780134Y-92969893D01*
X124062203Y-93026000D01*
X124349797Y-93026000D01*
X124631866Y-92969893D01*
X124897569Y-92859835D01*
X125136696Y-92700056D01*
X125340056Y-92496696D01*
X125499835Y-92257569D01*
X125609893Y-91991866D01*
X125666000Y-91709797D01*
X125666000Y-91422203D01*
X125609893Y-91140134D01*
X125499835Y-90874431D01*
X125340056Y-90635304D01*
X125136696Y-90431944D01*
X124897569Y-90272165D01*
X124631866Y-90162107D01*
X124349797Y-90106000D01*
X124062203Y-90106000D01*
X123780134Y-90162107D01*
X123514431Y-90272165D01*
X123275304Y-90431944D01*
X123071944Y-90635304D01*
X122912165Y-90874431D01*
X122802107Y-91140134D01*
X122746000Y-91422203D01*
X121166000Y-91422203D01*
X121109893Y-91140134D01*
X120999835Y-90874431D01*
X120840056Y-90635304D01*
X120636696Y-90431944D01*
X120397569Y-90272165D01*
X120131866Y-90162107D01*
X119849797Y-90106000D01*
X119562203Y-90106000D01*
X119280134Y-90162107D01*
X119014431Y-90272165D01*
X118775304Y-90431944D01*
X118571944Y-90635304D01*
X118412165Y-90874431D01*
X118302107Y-91140134D01*
X118246000Y-91422203D01*
X106807000Y-91422203D01*
X106807000Y-88422203D01*
X118246000Y-88422203D01*
X118246000Y-88709797D01*
X118302107Y-88991866D01*
X118412165Y-89257569D01*
X118571944Y-89496696D01*
X118775304Y-89700056D01*
X119014431Y-89859835D01*
X119280134Y-89969893D01*
X119562203Y-90026000D01*
X119849797Y-90026000D01*
X120131866Y-89969893D01*
X120397569Y-89859835D01*
X120636696Y-89700056D01*
X120840056Y-89496696D01*
X120999835Y-89257569D01*
X121109893Y-88991866D01*
X121166000Y-88709797D01*
X121166000Y-88422203D01*
X122746000Y-88422203D01*
X122746000Y-88709797D01*
X122802107Y-88991866D01*
X122912165Y-89257569D01*
X123071944Y-89496696D01*
X123275304Y-89700056D01*
X123514431Y-89859835D01*
X123780134Y-89969893D01*
X124062203Y-90026000D01*
X124349797Y-90026000D01*
X124631866Y-89969893D01*
X124897569Y-89859835D01*
X125136696Y-89700056D01*
X125340056Y-89496696D01*
X125499835Y-89257569D01*
X125609893Y-88991866D01*
X125666000Y-88709797D01*
X125666000Y-88422203D01*
X125609893Y-88140134D01*
X125499835Y-87874431D01*
X125340056Y-87635304D01*
X125136696Y-87431944D01*
X124897569Y-87272165D01*
X124631866Y-87162107D01*
X124349797Y-87106000D01*
X124062203Y-87106000D01*
X123780134Y-87162107D01*
X123514431Y-87272165D01*
X123275304Y-87431944D01*
X123071944Y-87635304D01*
X122912165Y-87874431D01*
X122802107Y-88140134D01*
X122746000Y-88422203D01*
X121166000Y-88422203D01*
X121109893Y-88140134D01*
X120999835Y-87874431D01*
X120840056Y-87635304D01*
X120636696Y-87431944D01*
X120397569Y-87272165D01*
X120131866Y-87162107D01*
X119849797Y-87106000D01*
X119562203Y-87106000D01*
X119280134Y-87162107D01*
X119014431Y-87272165D01*
X118775304Y-87431944D01*
X118571944Y-87635304D01*
X118412165Y-87874431D01*
X118302107Y-88140134D01*
X118246000Y-88422203D01*
X106807000Y-88422203D01*
X106807000Y-85422203D01*
X118246000Y-85422203D01*
X118246000Y-85709797D01*
X118302107Y-85991866D01*
X118412165Y-86257569D01*
X118571944Y-86496696D01*
X118775304Y-86700056D01*
X119014431Y-86859835D01*
X119280134Y-86969893D01*
X119562203Y-87026000D01*
X119849797Y-87026000D01*
X120131866Y-86969893D01*
X120397569Y-86859835D01*
X120636696Y-86700056D01*
X120840056Y-86496696D01*
X120999835Y-86257569D01*
X121109893Y-85991866D01*
X121166000Y-85709797D01*
X121166000Y-85422203D01*
X122746000Y-85422203D01*
X122746000Y-85709797D01*
X122802107Y-85991866D01*
X122912165Y-86257569D01*
X123071944Y-86496696D01*
X123275304Y-86700056D01*
X123514431Y-86859835D01*
X123780134Y-86969893D01*
X124062203Y-87026000D01*
X124349797Y-87026000D01*
X124631866Y-86969893D01*
X124897569Y-86859835D01*
X125136696Y-86700056D01*
X125340056Y-86496696D01*
X125499835Y-86257569D01*
X125609893Y-85991866D01*
X125666000Y-85709797D01*
X125666000Y-85422203D01*
X125609893Y-85140134D01*
X125499835Y-84874431D01*
X125340056Y-84635304D01*
X125136696Y-84431944D01*
X124897569Y-84272165D01*
X124631866Y-84162107D01*
X124349797Y-84106000D01*
X124062203Y-84106000D01*
X123780134Y-84162107D01*
X123514431Y-84272165D01*
X123275304Y-84431944D01*
X123071944Y-84635304D01*
X122912165Y-84874431D01*
X122802107Y-85140134D01*
X122746000Y-85422203D01*
X121166000Y-85422203D01*
X121109893Y-85140134D01*
X120999835Y-84874431D01*
X120840056Y-84635304D01*
X120636696Y-84431944D01*
X120397569Y-84272165D01*
X120131866Y-84162107D01*
X119849797Y-84106000D01*
X119562203Y-84106000D01*
X119280134Y-84162107D01*
X119014431Y-84272165D01*
X118775304Y-84431944D01*
X118571944Y-84635304D01*
X118412165Y-84874431D01*
X118302107Y-85140134D01*
X118246000Y-85422203D01*
X106807000Y-85422203D01*
X106807000Y-82422203D01*
X118246000Y-82422203D01*
X118246000Y-82709797D01*
X118302107Y-82991866D01*
X118412165Y-83257569D01*
X118571944Y-83496696D01*
X118775304Y-83700056D01*
X119014431Y-83859835D01*
X119280134Y-83969893D01*
X119562203Y-84026000D01*
X119849797Y-84026000D01*
X120131866Y-83969893D01*
X120397569Y-83859835D01*
X120636696Y-83700056D01*
X120840056Y-83496696D01*
X120999835Y-83257569D01*
X121109893Y-82991866D01*
X121166000Y-82709797D01*
X121166000Y-82422203D01*
X122746000Y-82422203D01*
X122746000Y-82709797D01*
X122802107Y-82991866D01*
X122912165Y-83257569D01*
X123071944Y-83496696D01*
X123275304Y-83700056D01*
X123514431Y-83859835D01*
X123780134Y-83969893D01*
X124062203Y-84026000D01*
X124349797Y-84026000D01*
X124631866Y-83969893D01*
X124897569Y-83859835D01*
X125136696Y-83700056D01*
X125340056Y-83496696D01*
X125499835Y-83257569D01*
X125609893Y-82991866D01*
X125666000Y-82709797D01*
X125666000Y-82422203D01*
X125609893Y-82140134D01*
X125499835Y-81874431D01*
X125340056Y-81635304D01*
X125136696Y-81431944D01*
X124897569Y-81272165D01*
X124631866Y-81162107D01*
X124349797Y-81106000D01*
X124062203Y-81106000D01*
X123780134Y-81162107D01*
X123514431Y-81272165D01*
X123275304Y-81431944D01*
X123071944Y-81635304D01*
X122912165Y-81874431D01*
X122802107Y-82140134D01*
X122746000Y-82422203D01*
X121166000Y-82422203D01*
X121109893Y-82140134D01*
X120999835Y-81874431D01*
X120840056Y-81635304D01*
X120636696Y-81431944D01*
X120397569Y-81272165D01*
X120131866Y-81162107D01*
X119849797Y-81106000D01*
X119562203Y-81106000D01*
X119280134Y-81162107D01*
X119014431Y-81272165D01*
X118775304Y-81431944D01*
X118571944Y-81635304D01*
X118412165Y-81874431D01*
X118302107Y-82140134D01*
X118246000Y-82422203D01*
X106807000Y-82422203D01*
X106807000Y-79322203D01*
X118246000Y-79322203D01*
X118246000Y-79609797D01*
X118302107Y-79891866D01*
X118412165Y-80157569D01*
X118571944Y-80396696D01*
X118775304Y-80600056D01*
X119014431Y-80759835D01*
X119280134Y-80869893D01*
X119562203Y-80926000D01*
X119849797Y-80926000D01*
X120131866Y-80869893D01*
X120397569Y-80759835D01*
X120636696Y-80600056D01*
X120840056Y-80396696D01*
X120999835Y-80157569D01*
X121109893Y-79891866D01*
X121166000Y-79609797D01*
X121166000Y-79322203D01*
X122746000Y-79322203D01*
X122746000Y-79609797D01*
X122802107Y-79891866D01*
X122912165Y-80157569D01*
X123071944Y-80396696D01*
X123275304Y-80600056D01*
X123514431Y-80759835D01*
X123780134Y-80869893D01*
X124062203Y-80926000D01*
X124349797Y-80926000D01*
X124631866Y-80869893D01*
X124897569Y-80759835D01*
X125136696Y-80600056D01*
X125340056Y-80396696D01*
X125499835Y-80157569D01*
X125609893Y-79891866D01*
X125666000Y-79609797D01*
X125666000Y-79322203D01*
X125609893Y-79040134D01*
X125499835Y-78774431D01*
X125340056Y-78535304D01*
X125136696Y-78331944D01*
X124897569Y-78172165D01*
X124631866Y-78062107D01*
X124349797Y-78006000D01*
X124062203Y-78006000D01*
X123780134Y-78062107D01*
X123514431Y-78172165D01*
X123275304Y-78331944D01*
X123071944Y-78535304D01*
X122912165Y-78774431D01*
X122802107Y-79040134D01*
X122746000Y-79322203D01*
X121166000Y-79322203D01*
X121109893Y-79040134D01*
X120999835Y-78774431D01*
X120840056Y-78535304D01*
X120636696Y-78331944D01*
X120397569Y-78172165D01*
X120131866Y-78062107D01*
X119849797Y-78006000D01*
X119562203Y-78006000D01*
X119280134Y-78062107D01*
X119014431Y-78172165D01*
X118775304Y-78331944D01*
X118571944Y-78535304D01*
X118412165Y-78774431D01*
X118302107Y-79040134D01*
X118246000Y-79322203D01*
X106807000Y-79322203D01*
X106807000Y-75822203D01*
X118246000Y-75822203D01*
X118246000Y-76109797D01*
X118302107Y-76391866D01*
X118412165Y-76657569D01*
X118571944Y-76896696D01*
X118775304Y-77100056D01*
X119014431Y-77259835D01*
X119280134Y-77369893D01*
X119562203Y-77426000D01*
X119849797Y-77426000D01*
X120131866Y-77369893D01*
X120397569Y-77259835D01*
X120636696Y-77100056D01*
X120840056Y-76896696D01*
X120999835Y-76657569D01*
X121109893Y-76391866D01*
X121166000Y-76109797D01*
X121166000Y-75822203D01*
X122746000Y-75822203D01*
X122746000Y-76109797D01*
X122802107Y-76391866D01*
X122912165Y-76657569D01*
X123071944Y-76896696D01*
X123275304Y-77100056D01*
X123514431Y-77259835D01*
X123780134Y-77369893D01*
X124062203Y-77426000D01*
X124349797Y-77426000D01*
X124631866Y-77369893D01*
X124897569Y-77259835D01*
X125136696Y-77100056D01*
X125151752Y-77085000D01*
X143077241Y-77085000D01*
X143216866Y-77255134D01*
X143442986Y-77440706D01*
X143497791Y-77470000D01*
X143442986Y-77499294D01*
X143216866Y-77684866D01*
X143031294Y-77910986D01*
X142893401Y-78168966D01*
X142808487Y-78448889D01*
X142779815Y-78740000D01*
X142808487Y-79031111D01*
X142893401Y-79311034D01*
X143031294Y-79569014D01*
X143216866Y-79795134D01*
X143442986Y-79980706D01*
X143497791Y-80010000D01*
X143442986Y-80039294D01*
X143216866Y-80224866D01*
X143031294Y-80450986D01*
X142893401Y-80708966D01*
X142808487Y-80988889D01*
X142779815Y-81280000D01*
X142808487Y-81571111D01*
X142893401Y-81851034D01*
X143031294Y-82109014D01*
X143216866Y-82335134D01*
X143442986Y-82520706D01*
X143497791Y-82550000D01*
X143442986Y-82579294D01*
X143216866Y-82764866D01*
X143031294Y-82990986D01*
X142893401Y-83248966D01*
X142808487Y-83528889D01*
X142779815Y-83820000D01*
X142808487Y-84111111D01*
X142893401Y-84391034D01*
X143031294Y-84649014D01*
X143216866Y-84875134D01*
X143442986Y-85060706D01*
X143497791Y-85090000D01*
X143442986Y-85119294D01*
X143216866Y-85304866D01*
X143031294Y-85530986D01*
X142893401Y-85788966D01*
X142808487Y-86068889D01*
X142779815Y-86360000D01*
X142808487Y-86651111D01*
X142893401Y-86931034D01*
X143031294Y-87189014D01*
X143216866Y-87415134D01*
X143442986Y-87600706D01*
X143497791Y-87630000D01*
X143442986Y-87659294D01*
X143216866Y-87844866D01*
X143031294Y-88070986D01*
X142893401Y-88328966D01*
X142808487Y-88608889D01*
X142779815Y-88900000D01*
X142808487Y-89191111D01*
X142893401Y-89471034D01*
X143031294Y-89729014D01*
X143216866Y-89955134D01*
X143442986Y-90140706D01*
X143497791Y-90170000D01*
X143442986Y-90199294D01*
X143216866Y-90384866D01*
X143031294Y-90610986D01*
X142893401Y-90868966D01*
X142808487Y-91148889D01*
X142779815Y-91440000D01*
X142808487Y-91731111D01*
X142893401Y-92011034D01*
X143031294Y-92269014D01*
X143216866Y-92495134D01*
X143442986Y-92680706D01*
X143497791Y-92710000D01*
X143442986Y-92739294D01*
X143216866Y-92924866D01*
X143031294Y-93150986D01*
X142893401Y-93408966D01*
X142808487Y-93688889D01*
X142779815Y-93980000D01*
X142808487Y-94271111D01*
X142893401Y-94551034D01*
X143031294Y-94809014D01*
X143216866Y-95035134D01*
X143442986Y-95220706D01*
X143700966Y-95358599D01*
X143980889Y-95443513D01*
X144199050Y-95465000D01*
X144344950Y-95465000D01*
X144563111Y-95443513D01*
X144843034Y-95358599D01*
X145101014Y-95220706D01*
X145327134Y-95035134D01*
X145512706Y-94809014D01*
X145650599Y-94551034D01*
X145735513Y-94271111D01*
X145764185Y-93980000D01*
X145735513Y-93688889D01*
X145650599Y-93408966D01*
X145512706Y-93150986D01*
X145327134Y-92924866D01*
X145101014Y-92739294D01*
X145046209Y-92710000D01*
X145101014Y-92680706D01*
X145327134Y-92495134D01*
X145512706Y-92269014D01*
X145650599Y-92011034D01*
X145735513Y-91731111D01*
X145764185Y-91440000D01*
X145735513Y-91148889D01*
X145650599Y-90868966D01*
X145512706Y-90610986D01*
X145327134Y-90384866D01*
X145101014Y-90199294D01*
X145046209Y-90170000D01*
X145101014Y-90140706D01*
X145327134Y-89955134D01*
X145512706Y-89729014D01*
X145650599Y-89471034D01*
X145735513Y-89191111D01*
X145764185Y-88900000D01*
X145735513Y-88608889D01*
X145650599Y-88328966D01*
X145512706Y-88070986D01*
X145327134Y-87844866D01*
X145101014Y-87659294D01*
X145046209Y-87630000D01*
X145101014Y-87600706D01*
X145327134Y-87415134D01*
X145512706Y-87189014D01*
X145650599Y-86931034D01*
X145735513Y-86651111D01*
X145764185Y-86360000D01*
X145735513Y-86068889D01*
X145650599Y-85788966D01*
X145512706Y-85530986D01*
X145327134Y-85304866D01*
X145101014Y-85119294D01*
X145046209Y-85090000D01*
X145101014Y-85060706D01*
X145327134Y-84875134D01*
X145512706Y-84649014D01*
X145650599Y-84391034D01*
X145735513Y-84111111D01*
X145764185Y-83820000D01*
X145735513Y-83528889D01*
X145650599Y-83248966D01*
X145512706Y-82990986D01*
X145327134Y-82764866D01*
X145101014Y-82579294D01*
X145046209Y-82550000D01*
X145101014Y-82520706D01*
X145327134Y-82335134D01*
X145512706Y-82109014D01*
X145650599Y-81851034D01*
X145735513Y-81571111D01*
X145764185Y-81280000D01*
X145735513Y-80988889D01*
X145650599Y-80708966D01*
X145512706Y-80450986D01*
X145327134Y-80224866D01*
X145101014Y-80039294D01*
X145046209Y-80010000D01*
X145101014Y-79980706D01*
X145327134Y-79795134D01*
X145512706Y-79569014D01*
X145650599Y-79311034D01*
X145735513Y-79031111D01*
X145764185Y-78740000D01*
X145735513Y-78448889D01*
X145650599Y-78168966D01*
X145512706Y-77910986D01*
X145327134Y-77684866D01*
X145101014Y-77499294D01*
X145046209Y-77470000D01*
X145101014Y-77440706D01*
X145327134Y-77255134D01*
X145512706Y-77029014D01*
X145650599Y-76771034D01*
X145735513Y-76491111D01*
X145764185Y-76200000D01*
X145735513Y-75908889D01*
X145650599Y-75628966D01*
X145512706Y-75370986D01*
X145327134Y-75144866D01*
X145101014Y-74959294D01*
X145046209Y-74930000D01*
X145101014Y-74900706D01*
X145327134Y-74715134D01*
X145512706Y-74489014D01*
X145650599Y-74231034D01*
X145735513Y-73951111D01*
X145764185Y-73660000D01*
X145735513Y-73368889D01*
X145650599Y-73088966D01*
X145512706Y-72830986D01*
X145327134Y-72604866D01*
X145101014Y-72419294D01*
X145046209Y-72390000D01*
X145101014Y-72360706D01*
X145327134Y-72175134D01*
X145512706Y-71949014D01*
X145650599Y-71691034D01*
X145735513Y-71411111D01*
X145764185Y-71120000D01*
X145735513Y-70828889D01*
X145650599Y-70548966D01*
X145512706Y-70290986D01*
X145327134Y-70064866D01*
X145101014Y-69879294D01*
X145046209Y-69850000D01*
X145101014Y-69820706D01*
X145327134Y-69635134D01*
X145512706Y-69409014D01*
X145650599Y-69151034D01*
X145735513Y-68871111D01*
X145764185Y-68580000D01*
X145735513Y-68288889D01*
X145650599Y-68008966D01*
X145512706Y-67750986D01*
X145327134Y-67524866D01*
X145297313Y-67500393D01*
X145366180Y-67479502D01*
X145476494Y-67420537D01*
X145573185Y-67341185D01*
X145652537Y-67244494D01*
X145711502Y-67134180D01*
X145747812Y-67014482D01*
X145760072Y-66890000D01*
X145760072Y-65190000D01*
X145747812Y-65065518D01*
X145711502Y-64945820D01*
X145652537Y-64835506D01*
X145573185Y-64738815D01*
X145476494Y-64659463D01*
X145366180Y-64600498D01*
X145246482Y-64564188D01*
X145122000Y-64551928D01*
X143422000Y-64551928D01*
X143297518Y-64564188D01*
X143177820Y-64600498D01*
X143067506Y-64659463D01*
X142970815Y-64738815D01*
X142891463Y-64835506D01*
X142832498Y-64945820D01*
X142796188Y-65065518D01*
X142783928Y-65190000D01*
X142783928Y-66890000D01*
X142796188Y-67014482D01*
X142832498Y-67134180D01*
X142891463Y-67244494D01*
X142970815Y-67341185D01*
X143067506Y-67420537D01*
X143177820Y-67479502D01*
X143246687Y-67500393D01*
X143216866Y-67524866D01*
X143031294Y-67750986D01*
X142893401Y-68008966D01*
X142808487Y-68288889D01*
X142779815Y-68580000D01*
X142808487Y-68871111D01*
X142893401Y-69151034D01*
X143031294Y-69409014D01*
X143216866Y-69635134D01*
X143442986Y-69820706D01*
X143497791Y-69850000D01*
X143442986Y-69879294D01*
X143216866Y-70064866D01*
X143031294Y-70290986D01*
X142893401Y-70548966D01*
X142808487Y-70828889D01*
X142779815Y-71120000D01*
X142808487Y-71411111D01*
X142893401Y-71691034D01*
X143031294Y-71949014D01*
X143216866Y-72175134D01*
X143442986Y-72360706D01*
X143497791Y-72390000D01*
X143442986Y-72419294D01*
X143216866Y-72604866D01*
X143031294Y-72830986D01*
X142893401Y-73088966D01*
X142808487Y-73368889D01*
X142779815Y-73660000D01*
X142808487Y-73951111D01*
X142893401Y-74231034D01*
X143031294Y-74489014D01*
X143216866Y-74715134D01*
X143442986Y-74900706D01*
X143497791Y-74930000D01*
X143442986Y-74959294D01*
X143216866Y-75144866D01*
X143077241Y-75315000D01*
X125516639Y-75315000D01*
X125499835Y-75274431D01*
X125340056Y-75035304D01*
X125136696Y-74831944D01*
X124897569Y-74672165D01*
X124631866Y-74562107D01*
X124349797Y-74506000D01*
X124062203Y-74506000D01*
X123780134Y-74562107D01*
X123514431Y-74672165D01*
X123275304Y-74831944D01*
X123071944Y-75035304D01*
X122912165Y-75274431D01*
X122802107Y-75540134D01*
X122746000Y-75822203D01*
X121166000Y-75822203D01*
X121109893Y-75540134D01*
X120999835Y-75274431D01*
X120840056Y-75035304D01*
X120636696Y-74831944D01*
X120397569Y-74672165D01*
X120131866Y-74562107D01*
X119849797Y-74506000D01*
X119562203Y-74506000D01*
X119280134Y-74562107D01*
X119014431Y-74672165D01*
X118775304Y-74831944D01*
X118571944Y-75035304D01*
X118412165Y-75274431D01*
X118302107Y-75540134D01*
X118246000Y-75822203D01*
X106807000Y-75822203D01*
X106807000Y-72322203D01*
X118246000Y-72322203D01*
X118246000Y-72609797D01*
X118302107Y-72891866D01*
X118412165Y-73157569D01*
X118571944Y-73396696D01*
X118775304Y-73600056D01*
X119014431Y-73759835D01*
X119280134Y-73869893D01*
X119562203Y-73926000D01*
X119849797Y-73926000D01*
X120131866Y-73869893D01*
X120397569Y-73759835D01*
X120636696Y-73600056D01*
X120840056Y-73396696D01*
X120999835Y-73157569D01*
X121109893Y-72891866D01*
X121166000Y-72609797D01*
X121166000Y-72322203D01*
X122746000Y-72322203D01*
X122746000Y-72609797D01*
X122802107Y-72891866D01*
X122912165Y-73157569D01*
X123071944Y-73396696D01*
X123275304Y-73600056D01*
X123514431Y-73759835D01*
X123780134Y-73869893D01*
X124062203Y-73926000D01*
X124349797Y-73926000D01*
X124631866Y-73869893D01*
X124897569Y-73759835D01*
X125136696Y-73600056D01*
X125340056Y-73396696D01*
X125499835Y-73157569D01*
X125609893Y-72891866D01*
X125666000Y-72609797D01*
X125666000Y-72322203D01*
X125609893Y-72040134D01*
X125499835Y-71774431D01*
X125340056Y-71535304D01*
X125136696Y-71331944D01*
X124897569Y-71172165D01*
X124631866Y-71062107D01*
X124349797Y-71006000D01*
X124062203Y-71006000D01*
X123780134Y-71062107D01*
X123514431Y-71172165D01*
X123275304Y-71331944D01*
X123071944Y-71535304D01*
X122912165Y-71774431D01*
X122802107Y-72040134D01*
X122746000Y-72322203D01*
X121166000Y-72322203D01*
X121109893Y-72040134D01*
X120999835Y-71774431D01*
X120840056Y-71535304D01*
X120636696Y-71331944D01*
X120397569Y-71172165D01*
X120131866Y-71062107D01*
X119849797Y-71006000D01*
X119562203Y-71006000D01*
X119280134Y-71062107D01*
X119014431Y-71172165D01*
X118775304Y-71331944D01*
X118571944Y-71535304D01*
X118412165Y-71774431D01*
X118302107Y-72040134D01*
X118246000Y-72322203D01*
X106807000Y-72322203D01*
X106807000Y-67094918D01*
X110746000Y-67094918D01*
X110746000Y-67737082D01*
X110871280Y-68366907D01*
X111117025Y-68960189D01*
X111473792Y-69494129D01*
X111927871Y-69948208D01*
X112461811Y-70304975D01*
X113055093Y-70550720D01*
X113684918Y-70676000D01*
X114327082Y-70676000D01*
X114956907Y-70550720D01*
X115550189Y-70304975D01*
X116084129Y-69948208D01*
X116538208Y-69494129D01*
X116894975Y-68960189D01*
X117140720Y-68366907D01*
X117266000Y-67737082D01*
X117266000Y-67094918D01*
X117140720Y-66465093D01*
X116894975Y-65871811D01*
X116538208Y-65337871D01*
X116084129Y-64883792D01*
X115550189Y-64527025D01*
X114956907Y-64281280D01*
X114327082Y-64156000D01*
X113684918Y-64156000D01*
X113055093Y-64281280D01*
X112461811Y-64527025D01*
X111927871Y-64883792D01*
X111473792Y-65337871D01*
X111117025Y-65871811D01*
X110871280Y-66465093D01*
X110746000Y-67094918D01*
X106807000Y-67094918D01*
X106807000Y-62282606D01*
X108002606Y-61087000D01*
X156157394Y-61087000D01*
X157353000Y-62282606D01*
X157353000Y-62282606D01*
G37*
X157353000Y-62282606D02*
X157353000Y-154887394D01*
X154887394Y-157353000D01*
X108002606Y-157353000D01*
X106807000Y-156157394D01*
X106807000Y-151794918D01*
X110746000Y-151794918D01*
X110746000Y-152437082D01*
X110871280Y-153066907D01*
X111117025Y-153660189D01*
X111473792Y-154194129D01*
X111927871Y-154648208D01*
X112461811Y-155004975D01*
X113055093Y-155250720D01*
X113684918Y-155376000D01*
X114327082Y-155376000D01*
X114956907Y-155250720D01*
X115550189Y-155004975D01*
X116084129Y-154648208D01*
X116538208Y-154194129D01*
X116894975Y-153660189D01*
X117140720Y-153066907D01*
X117266000Y-152437082D01*
X117266000Y-151794918D01*
X117140720Y-151165093D01*
X116894975Y-150571811D01*
X116538208Y-150037871D01*
X116084129Y-149583792D01*
X115550189Y-149227025D01*
X114956907Y-148981280D01*
X114327082Y-148856000D01*
X113684918Y-148856000D01*
X113055093Y-148981280D01*
X112461811Y-149227025D01*
X111927871Y-149583792D01*
X111473792Y-150037871D01*
X111117025Y-150571811D01*
X110871280Y-151165093D01*
X110746000Y-151794918D01*
X106807000Y-151794918D01*
X106807000Y-146228999D01*
X116816720Y-146228999D01*
X116821002Y-146272478D01*
X116821001Y-148142532D01*
X116816720Y-148186001D01*
X116821001Y-148229470D01*
X116821001Y-148229477D01*
X116832213Y-148343315D01*
X116833806Y-148359491D01*
X116849158Y-148410097D01*
X116884412Y-148526313D01*
X116966590Y-148680059D01*
X117077184Y-148814818D01*
X117110957Y-148842535D01*
X122533470Y-154265049D01*
X122561183Y-154298817D01*
X122594951Y-154326530D01*
X122594953Y-154326532D01*
X122695940Y-154409410D01*
X122695941Y-154409411D01*
X122849687Y-154491589D01*
X123016510Y-154542195D01*
X123146523Y-154555000D01*
X123146531Y-154555000D01*
X123190000Y-154559281D01*
X123233469Y-154555000D01*
X144736531Y-154555000D01*
X144780000Y-154559281D01*
X144823469Y-154555000D01*
X144823477Y-154555000D01*
X144953490Y-154542195D01*
X145120313Y-154491589D01*
X145274059Y-154409411D01*
X145408817Y-154298817D01*
X145436534Y-154265044D01*
X151000532Y-148701047D01*
X151083410Y-148600060D01*
X151165588Y-148446314D01*
X151216194Y-148279491D01*
X151233281Y-148106001D01*
X151225845Y-148030506D01*
X151229000Y-147998477D01*
X151229000Y-123082465D01*
X151233281Y-123038999D01*
X151229000Y-122995533D01*
X151229000Y-122995523D01*
X151216195Y-122865510D01*
X151165589Y-122698687D01*
X151083411Y-122544941D01*
X150972817Y-122410183D01*
X150939051Y-122382472D01*
X146505668Y-117949090D01*
X146565000Y-117650807D01*
X146565000Y-117299193D01*
X146496404Y-116954335D01*
X146361847Y-116629485D01*
X146166500Y-116337129D01*
X145917871Y-116088500D01*
X145625515Y-115893153D01*
X145300665Y-115758596D01*
X144955807Y-115690000D01*
X144604193Y-115690000D01*
X144259335Y-115758596D01*
X143934485Y-115893153D01*
X143642129Y-116088500D01*
X143393500Y-116337129D01*
X143198153Y-116629485D01*
X143063596Y-116954335D01*
X142995000Y-117299193D01*
X142995000Y-117650807D01*
X143063596Y-117995665D01*
X143198153Y-118320515D01*
X143393500Y-118612871D01*
X143642129Y-118861500D01*
X143934485Y-119056847D01*
X144259335Y-119191404D01*
X144604193Y-119260000D01*
X144955807Y-119260000D01*
X145254090Y-119200668D01*
X149459000Y-123405579D01*
X149459001Y-147739420D01*
X146012697Y-151185725D01*
X146018185Y-151130000D01*
X145989513Y-150838889D01*
X145904599Y-150558966D01*
X145766706Y-150300986D01*
X145581134Y-150074866D01*
X145355014Y-149889294D01*
X145300209Y-149860000D01*
X145355014Y-149830706D01*
X145581134Y-149645134D01*
X145766706Y-149419014D01*
X145904599Y-149161034D01*
X145989513Y-148881111D01*
X146018185Y-148590000D01*
X145989513Y-148298889D01*
X145904599Y-148018966D01*
X145766706Y-147760986D01*
X145581134Y-147534866D01*
X145355014Y-147349294D01*
X145300209Y-147320000D01*
X145355014Y-147290706D01*
X145581134Y-147105134D01*
X145766706Y-146879014D01*
X145904599Y-146621034D01*
X145989513Y-146341111D01*
X146018185Y-146050000D01*
X145989513Y-145758889D01*
X145904599Y-145478966D01*
X145766706Y-145220986D01*
X145581134Y-144994866D01*
X145355014Y-144809294D01*
X145300209Y-144780000D01*
X145355014Y-144750706D01*
X145581134Y-144565134D01*
X145766706Y-144339014D01*
X145904599Y-144081034D01*
X145989513Y-143801111D01*
X146018185Y-143510000D01*
X145989513Y-143218889D01*
X145904599Y-142938966D01*
X145766706Y-142680986D01*
X145581134Y-142454866D01*
X145355014Y-142269294D01*
X145300209Y-142240000D01*
X145355014Y-142210706D01*
X145581134Y-142025134D01*
X145766706Y-141799014D01*
X145904599Y-141541034D01*
X145989513Y-141261111D01*
X146018185Y-140970000D01*
X145989513Y-140678889D01*
X145904599Y-140398966D01*
X145766706Y-140140986D01*
X145581134Y-139914866D01*
X145355014Y-139729294D01*
X145290477Y-139694799D01*
X145407355Y-139625178D01*
X145623588Y-139430269D01*
X145797641Y-139196920D01*
X145922825Y-138934099D01*
X145967476Y-138786890D01*
X145846155Y-138557000D01*
X144653000Y-138557000D01*
X144653000Y-138577000D01*
X144399000Y-138577000D01*
X144399000Y-138557000D01*
X143205845Y-138557000D01*
X143084524Y-138786890D01*
X143129175Y-138934099D01*
X143254359Y-139196920D01*
X143428412Y-139430269D01*
X143644645Y-139625178D01*
X143761523Y-139694799D01*
X143696986Y-139729294D01*
X143470866Y-139914866D01*
X143285294Y-140140986D01*
X143147401Y-140398966D01*
X143062487Y-140678889D01*
X143033815Y-140970000D01*
X143062487Y-141261111D01*
X143147401Y-141541034D01*
X143285294Y-141799014D01*
X143470866Y-142025134D01*
X143696986Y-142210706D01*
X143751791Y-142240000D01*
X143696986Y-142269294D01*
X143470866Y-142454866D01*
X143285294Y-142680986D01*
X143147401Y-142938966D01*
X143062487Y-143218889D01*
X143033815Y-143510000D01*
X143062487Y-143801111D01*
X143147401Y-144081034D01*
X143285294Y-144339014D01*
X143470866Y-144565134D01*
X143696986Y-144750706D01*
X143751791Y-144780000D01*
X143696986Y-144809294D01*
X143470866Y-144994866D01*
X143285294Y-145220986D01*
X143147401Y-145478966D01*
X143062487Y-145758889D01*
X143033815Y-146050000D01*
X143062487Y-146341111D01*
X143147401Y-146621034D01*
X143285294Y-146879014D01*
X143470866Y-147105134D01*
X143696986Y-147290706D01*
X143751791Y-147320000D01*
X143696986Y-147349294D01*
X143470866Y-147534866D01*
X143285294Y-147760986D01*
X143147401Y-148018966D01*
X143062487Y-148298889D01*
X143033815Y-148590000D01*
X143062487Y-148881111D01*
X143147401Y-149161034D01*
X143285294Y-149419014D01*
X143470866Y-149645134D01*
X143696986Y-149830706D01*
X143751791Y-149860000D01*
X143696986Y-149889294D01*
X143470866Y-150074866D01*
X143285294Y-150300986D01*
X143147401Y-150558966D01*
X143062487Y-150838889D01*
X143033815Y-151130000D01*
X143062487Y-151421111D01*
X143147401Y-151701034D01*
X143285294Y-151959014D01*
X143470866Y-152185134D01*
X143696986Y-152370706D01*
X143954966Y-152508599D01*
X144234889Y-152593513D01*
X144453050Y-152615000D01*
X144583422Y-152615000D01*
X144413422Y-152785000D01*
X123556579Y-152785000D01*
X119214132Y-148442554D01*
X119280134Y-148469893D01*
X119562203Y-148526000D01*
X119849797Y-148526000D01*
X120131866Y-148469893D01*
X120397569Y-148359835D01*
X120636696Y-148200056D01*
X120840056Y-147996696D01*
X120999835Y-147757569D01*
X121109893Y-147491866D01*
X121166000Y-147209797D01*
X121166000Y-146922203D01*
X122746000Y-146922203D01*
X122746000Y-147209797D01*
X122802107Y-147491866D01*
X122912165Y-147757569D01*
X123071944Y-147996696D01*
X123275304Y-148200056D01*
X123514431Y-148359835D01*
X123780134Y-148469893D01*
X124062203Y-148526000D01*
X124349797Y-148526000D01*
X124631866Y-148469893D01*
X124897569Y-148359835D01*
X125136696Y-148200056D01*
X125340056Y-147996696D01*
X125499835Y-147757569D01*
X125609893Y-147491866D01*
X125666000Y-147209797D01*
X125666000Y-146922203D01*
X125609893Y-146640134D01*
X125499835Y-146374431D01*
X125340056Y-146135304D01*
X125136696Y-145931944D01*
X124897569Y-145772165D01*
X124631866Y-145662107D01*
X124349797Y-145606000D01*
X124062203Y-145606000D01*
X123780134Y-145662107D01*
X123514431Y-145772165D01*
X123275304Y-145931944D01*
X123071944Y-146135304D01*
X122912165Y-146374431D01*
X122802107Y-146640134D01*
X122746000Y-146922203D01*
X121166000Y-146922203D01*
X121109893Y-146640134D01*
X120999835Y-146374431D01*
X120950102Y-146300000D01*
X121302532Y-146300000D01*
X121346001Y-146304281D01*
X121389470Y-146300000D01*
X121389478Y-146300000D01*
X121519491Y-146287195D01*
X121686314Y-146236589D01*
X121840060Y-146154411D01*
X121974818Y-146043817D01*
X122002535Y-146010044D01*
X123297616Y-144714964D01*
X123514431Y-144859835D01*
X123780134Y-144969893D01*
X124062203Y-145026000D01*
X124349797Y-145026000D01*
X124631866Y-144969893D01*
X124897569Y-144859835D01*
X125136696Y-144700056D01*
X125340056Y-144496696D01*
X125499835Y-144257569D01*
X125609893Y-143991866D01*
X125666000Y-143709797D01*
X125666000Y-143422203D01*
X125609893Y-143140134D01*
X125499835Y-142874431D01*
X125340056Y-142635304D01*
X125136696Y-142431944D01*
X124897569Y-142272165D01*
X124631866Y-142162107D01*
X124349797Y-142106000D01*
X124062203Y-142106000D01*
X123780134Y-142162107D01*
X123514431Y-142272165D01*
X123275304Y-142431944D01*
X123071944Y-142635304D01*
X123033654Y-142692609D01*
X123021511Y-142693805D01*
X122854688Y-142744411D01*
X122700942Y-142826589D01*
X122599954Y-142909468D01*
X122599952Y-142909470D01*
X122566184Y-142937183D01*
X122538471Y-142970951D01*
X120979423Y-144530000D01*
X120806752Y-144530000D01*
X120840056Y-144496696D01*
X120999835Y-144257569D01*
X121109893Y-143991866D01*
X121166000Y-143709797D01*
X121166000Y-143422203D01*
X121109893Y-143140134D01*
X120999835Y-142874431D01*
X120840056Y-142635304D01*
X120636696Y-142431944D01*
X120397569Y-142272165D01*
X120131866Y-142162107D01*
X119849797Y-142106000D01*
X119562203Y-142106000D01*
X119280134Y-142162107D01*
X119014431Y-142272165D01*
X118775304Y-142431944D01*
X118571944Y-142635304D01*
X118412165Y-142874431D01*
X118302107Y-143140134D01*
X118246000Y-143422203D01*
X118246000Y-143709797D01*
X118302107Y-143991866D01*
X118412165Y-144257569D01*
X118571944Y-144496696D01*
X118605248Y-144530000D01*
X118563465Y-144530000D01*
X118519999Y-144525719D01*
X118476533Y-144530000D01*
X118476523Y-144530000D01*
X118346510Y-144542805D01*
X118179687Y-144593411D01*
X118025941Y-144675589D01*
X118025939Y-144675590D01*
X118025940Y-144675590D01*
X117924953Y-144758468D01*
X117924951Y-144758470D01*
X117891183Y-144786183D01*
X117863470Y-144819951D01*
X117110952Y-145572470D01*
X117077185Y-145600182D01*
X117049472Y-145633950D01*
X117049469Y-145633953D01*
X116966591Y-145734940D01*
X116884413Y-145888686D01*
X116833806Y-146055509D01*
X116816720Y-146228999D01*
X106807000Y-146228999D01*
X106807000Y-140322203D01*
X118246000Y-140322203D01*
X118246000Y-140609797D01*
X118302107Y-140891866D01*
X118412165Y-141157569D01*
X118571944Y-141396696D01*
X118775304Y-141600056D01*
X119014431Y-141759835D01*
X119280134Y-141869893D01*
X119562203Y-141926000D01*
X119849797Y-141926000D01*
X120131866Y-141869893D01*
X120397569Y-141759835D01*
X120636696Y-141600056D01*
X120840056Y-141396696D01*
X120999835Y-141157569D01*
X121109893Y-140891866D01*
X121166000Y-140609797D01*
X121166000Y-140322203D01*
X122746000Y-140322203D01*
X122746000Y-140609797D01*
X122802107Y-140891866D01*
X122912165Y-141157569D01*
X123071944Y-141396696D01*
X123275304Y-141600056D01*
X123514431Y-141759835D01*
X123780134Y-141869893D01*
X124062203Y-141926000D01*
X124349797Y-141926000D01*
X124631866Y-141869893D01*
X124897569Y-141759835D01*
X125136696Y-141600056D01*
X125340056Y-141396696D01*
X125499835Y-141157569D01*
X125609893Y-140891866D01*
X125666000Y-140609797D01*
X125666000Y-140322203D01*
X125609893Y-140040134D01*
X125499835Y-139774431D01*
X125340056Y-139535304D01*
X125136696Y-139331944D01*
X124897569Y-139172165D01*
X124631866Y-139062107D01*
X124349797Y-139006000D01*
X124062203Y-139006000D01*
X123780134Y-139062107D01*
X123514431Y-139172165D01*
X123275304Y-139331944D01*
X123071944Y-139535304D01*
X122912165Y-139774431D01*
X122802107Y-140040134D01*
X122746000Y-140322203D01*
X121166000Y-140322203D01*
X121109893Y-140040134D01*
X120999835Y-139774431D01*
X120840056Y-139535304D01*
X120636696Y-139331944D01*
X120397569Y-139172165D01*
X120131866Y-139062107D01*
X119849797Y-139006000D01*
X119562203Y-139006000D01*
X119280134Y-139062107D01*
X119014431Y-139172165D01*
X118775304Y-139331944D01*
X118571944Y-139535304D01*
X118412165Y-139774431D01*
X118302107Y-140040134D01*
X118246000Y-140322203D01*
X106807000Y-140322203D01*
X106807000Y-137322203D01*
X118246000Y-137322203D01*
X118246000Y-137609797D01*
X118302107Y-137891866D01*
X118412165Y-138157569D01*
X118571944Y-138396696D01*
X118775304Y-138600056D01*
X119014431Y-138759835D01*
X119280134Y-138869893D01*
X119562203Y-138926000D01*
X119849797Y-138926000D01*
X120131866Y-138869893D01*
X120397569Y-138759835D01*
X120636696Y-138600056D01*
X120840056Y-138396696D01*
X120999835Y-138157569D01*
X121109893Y-137891866D01*
X121166000Y-137609797D01*
X121166000Y-137322203D01*
X122746000Y-137322203D01*
X122746000Y-137609797D01*
X122802107Y-137891866D01*
X122912165Y-138157569D01*
X123071944Y-138396696D01*
X123275304Y-138600056D01*
X123514431Y-138759835D01*
X123780134Y-138869893D01*
X124062203Y-138926000D01*
X124349797Y-138926000D01*
X124631866Y-138869893D01*
X124897569Y-138759835D01*
X125136696Y-138600056D01*
X125340056Y-138396696D01*
X125499835Y-138157569D01*
X125609893Y-137891866D01*
X125666000Y-137609797D01*
X125666000Y-137322203D01*
X125609893Y-137040134D01*
X125499835Y-136774431D01*
X125340056Y-136535304D01*
X125136696Y-136331944D01*
X125009404Y-136246890D01*
X143084524Y-136246890D01*
X143129175Y-136394099D01*
X143254359Y-136656920D01*
X143428412Y-136890269D01*
X143644645Y-137085178D01*
X143770255Y-137160000D01*
X143644645Y-137234822D01*
X143428412Y-137429731D01*
X143254359Y-137663080D01*
X143129175Y-137925901D01*
X143084524Y-138073110D01*
X143205845Y-138303000D01*
X144399000Y-138303000D01*
X144399000Y-136017000D01*
X144653000Y-136017000D01*
X144653000Y-138303000D01*
X145846155Y-138303000D01*
X145967476Y-138073110D01*
X145922825Y-137925901D01*
X145797641Y-137663080D01*
X145623588Y-137429731D01*
X145407355Y-137234822D01*
X145281745Y-137160000D01*
X145407355Y-137085178D01*
X145623588Y-136890269D01*
X145797641Y-136656920D01*
X145922825Y-136394099D01*
X145967476Y-136246890D01*
X145846155Y-136017000D01*
X144653000Y-136017000D01*
X144399000Y-136017000D01*
X143205845Y-136017000D01*
X143084524Y-136246890D01*
X125009404Y-136246890D01*
X124897569Y-136172165D01*
X124631866Y-136062107D01*
X124349797Y-136006000D01*
X124062203Y-136006000D01*
X123780134Y-136062107D01*
X123514431Y-136172165D01*
X123275304Y-136331944D01*
X123071944Y-136535304D01*
X122912165Y-136774431D01*
X122802107Y-137040134D01*
X122746000Y-137322203D01*
X121166000Y-137322203D01*
X121109893Y-137040134D01*
X120999835Y-136774431D01*
X120840056Y-136535304D01*
X120636696Y-136331944D01*
X120397569Y-136172165D01*
X120131866Y-136062107D01*
X119849797Y-136006000D01*
X119562203Y-136006000D01*
X119280134Y-136062107D01*
X119014431Y-136172165D01*
X118775304Y-136331944D01*
X118571944Y-136535304D01*
X118412165Y-136774431D01*
X118302107Y-137040134D01*
X118246000Y-137322203D01*
X106807000Y-137322203D01*
X106807000Y-125322203D01*
X118246000Y-125322203D01*
X118246000Y-125609797D01*
X118302107Y-125891866D01*
X118412165Y-126157569D01*
X118571944Y-126396696D01*
X118775304Y-126600056D01*
X119014431Y-126759835D01*
X119280134Y-126869893D01*
X119562203Y-126926000D01*
X119849797Y-126926000D01*
X120131866Y-126869893D01*
X120397569Y-126759835D01*
X120636696Y-126600056D01*
X120840056Y-126396696D01*
X120999835Y-126157569D01*
X121109893Y-125891866D01*
X121160000Y-125639960D01*
X121160000Y-128292041D01*
X121109893Y-128040134D01*
X120999835Y-127774431D01*
X120840056Y-127535304D01*
X120636696Y-127331944D01*
X120397569Y-127172165D01*
X120131866Y-127062107D01*
X119849797Y-127006000D01*
X119562203Y-127006000D01*
X119280134Y-127062107D01*
X119014431Y-127172165D01*
X118775304Y-127331944D01*
X118571944Y-127535304D01*
X118412165Y-127774431D01*
X118302107Y-128040134D01*
X118246000Y-128322203D01*
X118246000Y-128609797D01*
X118302107Y-128891866D01*
X118412165Y-129157569D01*
X118571944Y-129396696D01*
X118775304Y-129600056D01*
X119014431Y-129759835D01*
X119280134Y-129869893D01*
X119562203Y-129926000D01*
X119849797Y-129926000D01*
X120131866Y-129869893D01*
X120397569Y-129759835D01*
X120636696Y-129600056D01*
X120840056Y-129396696D01*
X120999835Y-129157569D01*
X121109893Y-128891866D01*
X121160001Y-128639958D01*
X121160001Y-131292043D01*
X121109893Y-131040134D01*
X120999835Y-130774431D01*
X120840056Y-130535304D01*
X120636696Y-130331944D01*
X120397569Y-130172165D01*
X120131866Y-130062107D01*
X119849797Y-130006000D01*
X119562203Y-130006000D01*
X119280134Y-130062107D01*
X119014431Y-130172165D01*
X118775304Y-130331944D01*
X118571944Y-130535304D01*
X118412165Y-130774431D01*
X118302107Y-131040134D01*
X118246000Y-131322203D01*
X118246000Y-131609797D01*
X118302107Y-131891866D01*
X118412165Y-132157569D01*
X118571944Y-132396696D01*
X118775304Y-132600056D01*
X119014431Y-132759835D01*
X119280134Y-132869893D01*
X119562203Y-132926000D01*
X119849797Y-132926000D01*
X120131866Y-132869893D01*
X120294792Y-132802407D01*
X120051148Y-133046051D01*
X119849797Y-133006000D01*
X119562203Y-133006000D01*
X119280134Y-133062107D01*
X119014431Y-133172165D01*
X118775304Y-133331944D01*
X118571944Y-133535304D01*
X118412165Y-133774431D01*
X118302107Y-134040134D01*
X118246000Y-134322203D01*
X118246000Y-134609797D01*
X118302107Y-134891866D01*
X118412165Y-135157569D01*
X118571944Y-135396696D01*
X118775304Y-135600056D01*
X119014431Y-135759835D01*
X119280134Y-135869893D01*
X119562203Y-135926000D01*
X119849797Y-135926000D01*
X120131866Y-135869893D01*
X120397569Y-135759835D01*
X120636696Y-135600056D01*
X120840056Y-135396696D01*
X120999835Y-135157569D01*
X121109893Y-134891866D01*
X121166000Y-134609797D01*
X121166000Y-134322203D01*
X122746000Y-134322203D01*
X122746000Y-134609797D01*
X122802107Y-134891866D01*
X122912165Y-135157569D01*
X123071944Y-135396696D01*
X123275304Y-135600056D01*
X123514431Y-135759835D01*
X123780134Y-135869893D01*
X124062203Y-135926000D01*
X124349797Y-135926000D01*
X124631866Y-135869893D01*
X124897569Y-135759835D01*
X125136696Y-135600056D01*
X125340056Y-135396696D01*
X125499835Y-135157569D01*
X125609893Y-134891866D01*
X125666000Y-134609797D01*
X125666000Y-134322203D01*
X125609893Y-134040134D01*
X125499835Y-133774431D01*
X125454706Y-133706890D01*
X143084524Y-133706890D01*
X143129175Y-133854099D01*
X143254359Y-134116920D01*
X143428412Y-134350269D01*
X143644645Y-134545178D01*
X143770255Y-134620000D01*
X143644645Y-134694822D01*
X143428412Y-134889731D01*
X143254359Y-135123080D01*
X143129175Y-135385901D01*
X143084524Y-135533110D01*
X143205845Y-135763000D01*
X144399000Y-135763000D01*
X144399000Y-133477000D01*
X144653000Y-133477000D01*
X144653000Y-135763000D01*
X145846155Y-135763000D01*
X145967476Y-135533110D01*
X145922825Y-135385901D01*
X145797641Y-135123080D01*
X145623588Y-134889731D01*
X145407355Y-134694822D01*
X145281745Y-134620000D01*
X145407355Y-134545178D01*
X145623588Y-134350269D01*
X145797641Y-134116920D01*
X145922825Y-133854099D01*
X145967476Y-133706890D01*
X145846155Y-133477000D01*
X144653000Y-133477000D01*
X144399000Y-133477000D01*
X143205845Y-133477000D01*
X143084524Y-133706890D01*
X125454706Y-133706890D01*
X125340056Y-133535304D01*
X125136696Y-133331944D01*
X124897569Y-133172165D01*
X124631866Y-133062107D01*
X124349797Y-133006000D01*
X124062203Y-133006000D01*
X123780134Y-133062107D01*
X123514431Y-133172165D01*
X123275304Y-133331944D01*
X123071944Y-133535304D01*
X122912165Y-133774431D01*
X122802107Y-134040134D01*
X122746000Y-134322203D01*
X121166000Y-134322203D01*
X121125949Y-134120852D01*
X122431003Y-132815799D01*
X122460001Y-132792001D01*
X122486399Y-132759835D01*
X122554974Y-132676277D01*
X122625546Y-132544247D01*
X122669003Y-132400986D01*
X122680000Y-132289333D01*
X122680000Y-132289324D01*
X122683676Y-132252001D01*
X122680000Y-132214678D01*
X122680000Y-131322203D01*
X122746000Y-131322203D01*
X122746000Y-131609797D01*
X122802107Y-131891866D01*
X122912165Y-132157569D01*
X123071944Y-132396696D01*
X123275304Y-132600056D01*
X123514431Y-132759835D01*
X123780134Y-132869893D01*
X124062203Y-132926000D01*
X124349797Y-132926000D01*
X124631866Y-132869893D01*
X124897569Y-132759835D01*
X125136696Y-132600056D01*
X125340056Y-132396696D01*
X125499835Y-132157569D01*
X125609893Y-131891866D01*
X125666000Y-131609797D01*
X125666000Y-131322203D01*
X125635107Y-131166890D01*
X143084524Y-131166890D01*
X143129175Y-131314099D01*
X143254359Y-131576920D01*
X143428412Y-131810269D01*
X143644645Y-132005178D01*
X143770255Y-132080000D01*
X143644645Y-132154822D01*
X143428412Y-132349731D01*
X143254359Y-132583080D01*
X143129175Y-132845901D01*
X143084524Y-132993110D01*
X143205845Y-133223000D01*
X144399000Y-133223000D01*
X144399000Y-130937000D01*
X144653000Y-130937000D01*
X144653000Y-133223000D01*
X145846155Y-133223000D01*
X145967476Y-132993110D01*
X145922825Y-132845901D01*
X145797641Y-132583080D01*
X145623588Y-132349731D01*
X145407355Y-132154822D01*
X145281745Y-132080000D01*
X145407355Y-132005178D01*
X145623588Y-131810269D01*
X145797641Y-131576920D01*
X145922825Y-131314099D01*
X145967476Y-131166890D01*
X145846155Y-130937000D01*
X144653000Y-130937000D01*
X144399000Y-130937000D01*
X143205845Y-130937000D01*
X143084524Y-131166890D01*
X125635107Y-131166890D01*
X125609893Y-131040134D01*
X125499835Y-130774431D01*
X125340056Y-130535304D01*
X125136696Y-130331944D01*
X124897569Y-130172165D01*
X124631866Y-130062107D01*
X124349797Y-130006000D01*
X124062203Y-130006000D01*
X123780134Y-130062107D01*
X123514431Y-130172165D01*
X123275304Y-130331944D01*
X123071944Y-130535304D01*
X122912165Y-130774431D01*
X122802107Y-131040134D01*
X122746000Y-131322203D01*
X122680000Y-131322203D01*
X122680000Y-128322203D01*
X122746000Y-128322203D01*
X122746000Y-128609797D01*
X122802107Y-128891866D01*
X122912165Y-129157569D01*
X123071944Y-129396696D01*
X123275304Y-129600056D01*
X123514431Y-129759835D01*
X123780134Y-129869893D01*
X124062203Y-129926000D01*
X124349797Y-129926000D01*
X124631866Y-129869893D01*
X124897569Y-129759835D01*
X125136696Y-129600056D01*
X125340056Y-129396696D01*
X125499835Y-129157569D01*
X125609893Y-128891866D01*
X125666000Y-128609797D01*
X125666000Y-128322203D01*
X125609893Y-128040134D01*
X125499835Y-127774431D01*
X125340056Y-127535304D01*
X125136696Y-127331944D01*
X124897569Y-127172165D01*
X124631866Y-127062107D01*
X124349797Y-127006000D01*
X124062203Y-127006000D01*
X123780134Y-127062107D01*
X123514431Y-127172165D01*
X123275304Y-127331944D01*
X123071944Y-127535304D01*
X122912165Y-127774431D01*
X122802107Y-128040134D01*
X122746000Y-128322203D01*
X122680000Y-128322203D01*
X122680000Y-125066801D01*
X122869593Y-124877208D01*
X122802107Y-125040134D01*
X122746000Y-125322203D01*
X122746000Y-125609797D01*
X122802107Y-125891866D01*
X122912165Y-126157569D01*
X123071944Y-126396696D01*
X123275304Y-126600056D01*
X123514431Y-126759835D01*
X123780134Y-126869893D01*
X124062203Y-126926000D01*
X124349797Y-126926000D01*
X124631866Y-126869893D01*
X124897569Y-126759835D01*
X125136696Y-126600056D01*
X125340056Y-126396696D01*
X125499835Y-126157569D01*
X125609893Y-125891866D01*
X125642090Y-125730000D01*
X143033815Y-125730000D01*
X143062487Y-126021111D01*
X143147401Y-126301034D01*
X143285294Y-126559014D01*
X143470866Y-126785134D01*
X143696986Y-126970706D01*
X143751791Y-127000000D01*
X143696986Y-127029294D01*
X143470866Y-127214866D01*
X143285294Y-127440986D01*
X143147401Y-127698966D01*
X143062487Y-127978889D01*
X143033815Y-128270000D01*
X143062487Y-128561111D01*
X143147401Y-128841034D01*
X143285294Y-129099014D01*
X143470866Y-129325134D01*
X143696986Y-129510706D01*
X143761523Y-129545201D01*
X143644645Y-129614822D01*
X143428412Y-129809731D01*
X143254359Y-130043080D01*
X143129175Y-130305901D01*
X143084524Y-130453110D01*
X143205845Y-130683000D01*
X144399000Y-130683000D01*
X144399000Y-130663000D01*
X144653000Y-130663000D01*
X144653000Y-130683000D01*
X145846155Y-130683000D01*
X145967476Y-130453110D01*
X145922825Y-130305901D01*
X145797641Y-130043080D01*
X145623588Y-129809731D01*
X145407355Y-129614822D01*
X145290477Y-129545201D01*
X145355014Y-129510706D01*
X145581134Y-129325134D01*
X145766706Y-129099014D01*
X145904599Y-128841034D01*
X145989513Y-128561111D01*
X146018185Y-128270000D01*
X145989513Y-127978889D01*
X145904599Y-127698966D01*
X145766706Y-127440986D01*
X145581134Y-127214866D01*
X145355014Y-127029294D01*
X145300209Y-127000000D01*
X145355014Y-126970706D01*
X145581134Y-126785134D01*
X145766706Y-126559014D01*
X145904599Y-126301034D01*
X145989513Y-126021111D01*
X146018185Y-125730000D01*
X145989513Y-125438889D01*
X145904599Y-125158966D01*
X145766706Y-124900986D01*
X145581134Y-124674866D01*
X145551313Y-124650393D01*
X145620180Y-124629502D01*
X145730494Y-124570537D01*
X145827185Y-124491185D01*
X145906537Y-124394494D01*
X145965502Y-124284180D01*
X146001812Y-124164482D01*
X146014072Y-124040000D01*
X146014072Y-122340000D01*
X146001812Y-122215518D01*
X145965502Y-122095820D01*
X145906537Y-121985506D01*
X145827185Y-121888815D01*
X145730494Y-121809463D01*
X145620180Y-121750498D01*
X145500482Y-121714188D01*
X145376000Y-121701928D01*
X143676000Y-121701928D01*
X143551518Y-121714188D01*
X143431820Y-121750498D01*
X143321506Y-121809463D01*
X143224815Y-121888815D01*
X143145463Y-121985506D01*
X143086498Y-122095820D01*
X143050188Y-122215518D01*
X143037928Y-122340000D01*
X143037928Y-124040000D01*
X143050188Y-124164482D01*
X143086498Y-124284180D01*
X143145463Y-124394494D01*
X143224815Y-124491185D01*
X143321506Y-124570537D01*
X143431820Y-124629502D01*
X143500687Y-124650393D01*
X143470866Y-124674866D01*
X143285294Y-124900986D01*
X143147401Y-125158966D01*
X143062487Y-125438889D01*
X143033815Y-125730000D01*
X125642090Y-125730000D01*
X125666000Y-125609797D01*
X125666000Y-125322203D01*
X125609893Y-125040134D01*
X125499835Y-124774431D01*
X125340056Y-124535304D01*
X125136696Y-124331944D01*
X124897569Y-124172165D01*
X124631866Y-124062107D01*
X124349797Y-124006000D01*
X124062203Y-124006000D01*
X123780134Y-124062107D01*
X123617208Y-124129593D01*
X123860853Y-123885949D01*
X124062203Y-123926000D01*
X124349797Y-123926000D01*
X124631866Y-123869893D01*
X124897569Y-123759835D01*
X125136696Y-123600056D01*
X125340056Y-123396696D01*
X125499835Y-123157569D01*
X125609893Y-122891866D01*
X125666000Y-122609797D01*
X125666000Y-122322203D01*
X125609893Y-122040134D01*
X125499835Y-121774431D01*
X125340056Y-121535304D01*
X125136696Y-121331944D01*
X124897569Y-121172165D01*
X124631866Y-121062107D01*
X124349797Y-121006000D01*
X124062203Y-121006000D01*
X123780134Y-121062107D01*
X123514431Y-121172165D01*
X123275304Y-121331944D01*
X123071944Y-121535304D01*
X122912165Y-121774431D01*
X122802107Y-122040134D01*
X122746000Y-122322203D01*
X122746000Y-122609797D01*
X122786051Y-122811147D01*
X121409003Y-124188196D01*
X121379999Y-124211999D01*
X121335282Y-124266487D01*
X121285026Y-124327724D01*
X121214455Y-124459753D01*
X121214454Y-124459754D01*
X121170997Y-124603015D01*
X121160000Y-124714668D01*
X121160000Y-124714678D01*
X121156324Y-124752000D01*
X121160000Y-124789322D01*
X121160000Y-125292039D01*
X121109893Y-125040134D01*
X120999835Y-124774431D01*
X120840056Y-124535304D01*
X120636696Y-124331944D01*
X120397569Y-124172165D01*
X120131866Y-124062107D01*
X119849797Y-124006000D01*
X119562203Y-124006000D01*
X119280134Y-124062107D01*
X119014431Y-124172165D01*
X118775304Y-124331944D01*
X118571944Y-124535304D01*
X118412165Y-124774431D01*
X118302107Y-125040134D01*
X118246000Y-125322203D01*
X106807000Y-125322203D01*
X106807000Y-122322203D01*
X118246000Y-122322203D01*
X118246000Y-122609797D01*
X118302107Y-122891866D01*
X118412165Y-123157569D01*
X118571944Y-123396696D01*
X118775304Y-123600056D01*
X119014431Y-123759835D01*
X119280134Y-123869893D01*
X119562203Y-123926000D01*
X119849797Y-123926000D01*
X120131866Y-123869893D01*
X120397569Y-123759835D01*
X120636696Y-123600056D01*
X120840056Y-123396696D01*
X120999835Y-123157569D01*
X121109893Y-122891866D01*
X121166000Y-122609797D01*
X121166000Y-122322203D01*
X121109893Y-122040134D01*
X120999835Y-121774431D01*
X120840056Y-121535304D01*
X120636696Y-121331944D01*
X120397569Y-121172165D01*
X120131866Y-121062107D01*
X119849797Y-121006000D01*
X119562203Y-121006000D01*
X119280134Y-121062107D01*
X119014431Y-121172165D01*
X118775304Y-121331944D01*
X118571944Y-121535304D01*
X118412165Y-121774431D01*
X118302107Y-122040134D01*
X118246000Y-122322203D01*
X106807000Y-122322203D01*
X106807000Y-119322203D01*
X118246000Y-119322203D01*
X118246000Y-119609797D01*
X118302107Y-119891866D01*
X118412165Y-120157569D01*
X118571944Y-120396696D01*
X118775304Y-120600056D01*
X119014431Y-120759835D01*
X119280134Y-120869893D01*
X119562203Y-120926000D01*
X119849797Y-120926000D01*
X120131866Y-120869893D01*
X120397569Y-120759835D01*
X120636696Y-120600056D01*
X120840056Y-120396696D01*
X120999835Y-120157569D01*
X121109893Y-119891866D01*
X121166000Y-119609797D01*
X121166000Y-119322203D01*
X122746000Y-119322203D01*
X122746000Y-119609797D01*
X122802107Y-119891866D01*
X122912165Y-120157569D01*
X123071944Y-120396696D01*
X123275304Y-120600056D01*
X123514431Y-120759835D01*
X123780134Y-120869893D01*
X124062203Y-120926000D01*
X124349797Y-120926000D01*
X124631866Y-120869893D01*
X124897569Y-120759835D01*
X125136696Y-120600056D01*
X125340056Y-120396696D01*
X125499835Y-120157569D01*
X125609893Y-119891866D01*
X125666000Y-119609797D01*
X125666000Y-119322203D01*
X125609893Y-119040134D01*
X125499835Y-118774431D01*
X125340056Y-118535304D01*
X125136696Y-118331944D01*
X124897569Y-118172165D01*
X124631866Y-118062107D01*
X124349797Y-118006000D01*
X124062203Y-118006000D01*
X123780134Y-118062107D01*
X123514431Y-118172165D01*
X123275304Y-118331944D01*
X123071944Y-118535304D01*
X122912165Y-118774431D01*
X122802107Y-119040134D01*
X122746000Y-119322203D01*
X121166000Y-119322203D01*
X121109893Y-119040134D01*
X120999835Y-118774431D01*
X120840056Y-118535304D01*
X120636696Y-118331944D01*
X120397569Y-118172165D01*
X120131866Y-118062107D01*
X119849797Y-118006000D01*
X119562203Y-118006000D01*
X119280134Y-118062107D01*
X119014431Y-118172165D01*
X118775304Y-118331944D01*
X118571944Y-118535304D01*
X118412165Y-118774431D01*
X118302107Y-119040134D01*
X118246000Y-119322203D01*
X106807000Y-119322203D01*
X106807000Y-112944918D01*
X110746000Y-112944918D01*
X110746000Y-113587082D01*
X110871280Y-114216907D01*
X111117025Y-114810189D01*
X111473792Y-115344129D01*
X111927871Y-115798208D01*
X112461811Y-116154975D01*
X113055093Y-116400720D01*
X113684918Y-116526000D01*
X114327082Y-116526000D01*
X114956907Y-116400720D01*
X115387885Y-116222203D01*
X118246000Y-116222203D01*
X118246000Y-116509797D01*
X118302107Y-116791866D01*
X118412165Y-117057569D01*
X118571944Y-117296696D01*
X118775304Y-117500056D01*
X119014431Y-117659835D01*
X119280134Y-117769893D01*
X119562203Y-117826000D01*
X119849797Y-117826000D01*
X120131866Y-117769893D01*
X120397569Y-117659835D01*
X120636696Y-117500056D01*
X120840056Y-117296696D01*
X120999835Y-117057569D01*
X121109893Y-116791866D01*
X121166000Y-116509797D01*
X121166000Y-116222203D01*
X122746000Y-116222203D01*
X122746000Y-116509797D01*
X122802107Y-116791866D01*
X122912165Y-117057569D01*
X123071944Y-117296696D01*
X123275304Y-117500056D01*
X123514431Y-117659835D01*
X123780134Y-117769893D01*
X124062203Y-117826000D01*
X124349797Y-117826000D01*
X124631866Y-117769893D01*
X124897569Y-117659835D01*
X125136696Y-117500056D01*
X125340056Y-117296696D01*
X125499835Y-117057569D01*
X125609893Y-116791866D01*
X125666000Y-116509797D01*
X125666000Y-116222203D01*
X125609893Y-115940134D01*
X125499835Y-115674431D01*
X125340056Y-115435304D01*
X125136696Y-115231944D01*
X124897569Y-115072165D01*
X124631866Y-114962107D01*
X124349797Y-114906000D01*
X124062203Y-114906000D01*
X123780134Y-114962107D01*
X123514431Y-115072165D01*
X123275304Y-115231944D01*
X123071944Y-115435304D01*
X122912165Y-115674431D01*
X122802107Y-115940134D01*
X122746000Y-116222203D01*
X121166000Y-116222203D01*
X121109893Y-115940134D01*
X120999835Y-115674431D01*
X120840056Y-115435304D01*
X120636696Y-115231944D01*
X120397569Y-115072165D01*
X120131866Y-114962107D01*
X119849797Y-114906000D01*
X119562203Y-114906000D01*
X119280134Y-114962107D01*
X119014431Y-115072165D01*
X118775304Y-115231944D01*
X118571944Y-115435304D01*
X118412165Y-115674431D01*
X118302107Y-115940134D01*
X118246000Y-116222203D01*
X115387885Y-116222203D01*
X115550189Y-116154975D01*
X116084129Y-115798208D01*
X116538208Y-115344129D01*
X116894975Y-114810189D01*
X116916098Y-114759193D01*
X150615000Y-114759193D01*
X150615000Y-115110807D01*
X150683596Y-115455665D01*
X150818153Y-115780515D01*
X151013500Y-116072871D01*
X151262129Y-116321500D01*
X151554485Y-116516847D01*
X151879335Y-116651404D01*
X152224193Y-116720000D01*
X152575807Y-116720000D01*
X152920665Y-116651404D01*
X153245515Y-116516847D01*
X153537871Y-116321500D01*
X153786500Y-116072871D01*
X153981847Y-115780515D01*
X154116404Y-115455665D01*
X154185000Y-115110807D01*
X154185000Y-114759193D01*
X154116404Y-114414335D01*
X153981847Y-114089485D01*
X153786500Y-113797129D01*
X153537871Y-113548500D01*
X153245515Y-113353153D01*
X152920665Y-113218596D01*
X152575807Y-113150000D01*
X152224193Y-113150000D01*
X151879335Y-113218596D01*
X151554485Y-113353153D01*
X151262129Y-113548500D01*
X151013500Y-113797129D01*
X150818153Y-114089485D01*
X150683596Y-114414335D01*
X150615000Y-114759193D01*
X116916098Y-114759193D01*
X117140720Y-114216907D01*
X117266000Y-113587082D01*
X117266000Y-112944918D01*
X117140720Y-112315093D01*
X116894975Y-111721811D01*
X116538208Y-111187871D01*
X116526888Y-111176551D01*
X118875054Y-111176551D01*
X118949663Y-111423073D01*
X119209439Y-111546473D01*
X119488297Y-111616823D01*
X119775521Y-111631417D01*
X120060074Y-111589697D01*
X120331020Y-111493265D01*
X120462337Y-111423073D01*
X120536946Y-111176551D01*
X123375054Y-111176551D01*
X123449663Y-111423073D01*
X123709439Y-111546473D01*
X123988297Y-111616823D01*
X124275521Y-111631417D01*
X124560074Y-111589697D01*
X124831020Y-111493265D01*
X124962337Y-111423073D01*
X125036946Y-111176551D01*
X124206000Y-110345605D01*
X123375054Y-111176551D01*
X120536946Y-111176551D01*
X119706000Y-110345605D01*
X118875054Y-111176551D01*
X116526888Y-111176551D01*
X116084129Y-110733792D01*
X115550189Y-110377025D01*
X115208568Y-110235521D01*
X118240583Y-110235521D01*
X118282303Y-110520074D01*
X118378735Y-110791020D01*
X118448927Y-110922337D01*
X118695449Y-110996946D01*
X119526395Y-110166000D01*
X119885605Y-110166000D01*
X120716551Y-110996946D01*
X120963073Y-110922337D01*
X121086473Y-110662561D01*
X121156823Y-110383703D01*
X121164352Y-110235521D01*
X122740583Y-110235521D01*
X122782303Y-110520074D01*
X122878735Y-110791020D01*
X122948927Y-110922337D01*
X123195449Y-110996946D01*
X124026395Y-110166000D01*
X124385605Y-110166000D01*
X125216551Y-110996946D01*
X125463073Y-110922337D01*
X125586473Y-110662561D01*
X125656823Y-110383703D01*
X125671417Y-110096479D01*
X125629697Y-109811926D01*
X125582457Y-109679193D01*
X142995000Y-109679193D01*
X142995000Y-110030807D01*
X143063596Y-110375665D01*
X143198153Y-110700515D01*
X143393500Y-110992871D01*
X143642129Y-111241500D01*
X143934485Y-111436847D01*
X144259335Y-111571404D01*
X144604193Y-111640000D01*
X144955807Y-111640000D01*
X145300665Y-111571404D01*
X145625515Y-111436847D01*
X145917871Y-111241500D01*
X146166500Y-110992871D01*
X146361847Y-110700515D01*
X146496404Y-110375665D01*
X146565000Y-110030807D01*
X146565000Y-109679193D01*
X146496404Y-109334335D01*
X146361847Y-109009485D01*
X146166500Y-108717129D01*
X145917871Y-108468500D01*
X145625515Y-108273153D01*
X145300665Y-108138596D01*
X144955807Y-108070000D01*
X144604193Y-108070000D01*
X144259335Y-108138596D01*
X143934485Y-108273153D01*
X143642129Y-108468500D01*
X143393500Y-108717129D01*
X143198153Y-109009485D01*
X143063596Y-109334335D01*
X142995000Y-109679193D01*
X125582457Y-109679193D01*
X125533265Y-109540980D01*
X125463073Y-109409663D01*
X125216551Y-109335054D01*
X124385605Y-110166000D01*
X124026395Y-110166000D01*
X123195449Y-109335054D01*
X122948927Y-109409663D01*
X122825527Y-109669439D01*
X122755177Y-109948297D01*
X122740583Y-110235521D01*
X121164352Y-110235521D01*
X121171417Y-110096479D01*
X121129697Y-109811926D01*
X121033265Y-109540980D01*
X120963073Y-109409663D01*
X120716551Y-109335054D01*
X119885605Y-110166000D01*
X119526395Y-110166000D01*
X118695449Y-109335054D01*
X118448927Y-109409663D01*
X118325527Y-109669439D01*
X118255177Y-109948297D01*
X118240583Y-110235521D01*
X115208568Y-110235521D01*
X114956907Y-110131280D01*
X114327082Y-110006000D01*
X113684918Y-110006000D01*
X113055093Y-110131280D01*
X112461811Y-110377025D01*
X111927871Y-110733792D01*
X111473792Y-111187871D01*
X111117025Y-111721811D01*
X110871280Y-112315093D01*
X110746000Y-112944918D01*
X106807000Y-112944918D01*
X106807000Y-109155449D01*
X118875054Y-109155449D01*
X119706000Y-109986395D01*
X120536946Y-109155449D01*
X123375054Y-109155449D01*
X124206000Y-109986395D01*
X125036946Y-109155449D01*
X124962337Y-108908927D01*
X124702561Y-108785527D01*
X124423703Y-108715177D01*
X124136479Y-108700583D01*
X123851926Y-108742303D01*
X123580980Y-108838735D01*
X123449663Y-108908927D01*
X123375054Y-109155449D01*
X120536946Y-109155449D01*
X120462337Y-108908927D01*
X120202561Y-108785527D01*
X119923703Y-108715177D01*
X119636479Y-108700583D01*
X119351926Y-108742303D01*
X119080980Y-108838735D01*
X118949663Y-108908927D01*
X118875054Y-109155449D01*
X106807000Y-109155449D01*
X106807000Y-107676551D01*
X118875054Y-107676551D01*
X118949663Y-107923073D01*
X119209439Y-108046473D01*
X119488297Y-108116823D01*
X119775521Y-108131417D01*
X120060074Y-108089697D01*
X120331020Y-107993265D01*
X120462337Y-107923073D01*
X120536946Y-107676551D01*
X123375054Y-107676551D01*
X123449663Y-107923073D01*
X123709439Y-108046473D01*
X123988297Y-108116823D01*
X124275521Y-108131417D01*
X124560074Y-108089697D01*
X124831020Y-107993265D01*
X124962337Y-107923073D01*
X125036946Y-107676551D01*
X124206000Y-106845605D01*
X123375054Y-107676551D01*
X120536946Y-107676551D01*
X119706000Y-106845605D01*
X118875054Y-107676551D01*
X106807000Y-107676551D01*
X106807000Y-106735521D01*
X118240583Y-106735521D01*
X118282303Y-107020074D01*
X118378735Y-107291020D01*
X118448927Y-107422337D01*
X118695449Y-107496946D01*
X119526395Y-106666000D01*
X119885605Y-106666000D01*
X120716551Y-107496946D01*
X120963073Y-107422337D01*
X121086473Y-107162561D01*
X121156823Y-106883703D01*
X121164352Y-106735521D01*
X122740583Y-106735521D01*
X122782303Y-107020074D01*
X122878735Y-107291020D01*
X122948927Y-107422337D01*
X123195449Y-107496946D01*
X124026395Y-106666000D01*
X124385605Y-106666000D01*
X125216551Y-107496946D01*
X125463073Y-107422337D01*
X125586473Y-107162561D01*
X125656823Y-106883703D01*
X125671417Y-106596479D01*
X125629697Y-106311926D01*
X125533265Y-106040980D01*
X125463073Y-105909663D01*
X125216551Y-105835054D01*
X124385605Y-106666000D01*
X124026395Y-106666000D01*
X123195449Y-105835054D01*
X122948927Y-105909663D01*
X122825527Y-106169439D01*
X122755177Y-106448297D01*
X122740583Y-106735521D01*
X121164352Y-106735521D01*
X121171417Y-106596479D01*
X121129697Y-106311926D01*
X121033265Y-106040980D01*
X120963073Y-105909663D01*
X120716551Y-105835054D01*
X119885605Y-106666000D01*
X119526395Y-106666000D01*
X118695449Y-105835054D01*
X118448927Y-105909663D01*
X118325527Y-106169439D01*
X118255177Y-106448297D01*
X118240583Y-106735521D01*
X106807000Y-106735521D01*
X106807000Y-105655449D01*
X118875054Y-105655449D01*
X119706000Y-106486395D01*
X120536946Y-105655449D01*
X123375054Y-105655449D01*
X124206000Y-106486395D01*
X125036946Y-105655449D01*
X124962337Y-105408927D01*
X124702561Y-105285527D01*
X124423703Y-105215177D01*
X124136479Y-105200583D01*
X123851926Y-105242303D01*
X123580980Y-105338735D01*
X123449663Y-105408927D01*
X123375054Y-105655449D01*
X120536946Y-105655449D01*
X120462337Y-105408927D01*
X120202561Y-105285527D01*
X119923703Y-105215177D01*
X119636479Y-105200583D01*
X119351926Y-105242303D01*
X119080980Y-105338735D01*
X118949663Y-105408927D01*
X118875054Y-105655449D01*
X106807000Y-105655449D01*
X106807000Y-103422203D01*
X118246000Y-103422203D01*
X118246000Y-103709797D01*
X118302107Y-103991866D01*
X118412165Y-104257569D01*
X118571944Y-104496696D01*
X118775304Y-104700056D01*
X119014431Y-104859835D01*
X119280134Y-104969893D01*
X119562203Y-105026000D01*
X119849797Y-105026000D01*
X120131866Y-104969893D01*
X120397569Y-104859835D01*
X120636696Y-104700056D01*
X120840056Y-104496696D01*
X120999835Y-104257569D01*
X121109893Y-103991866D01*
X121166000Y-103709797D01*
X121166000Y-103422203D01*
X122746000Y-103422203D01*
X122746000Y-103709797D01*
X122802107Y-103991866D01*
X122912165Y-104257569D01*
X123071944Y-104496696D01*
X123275304Y-104700056D01*
X123514431Y-104859835D01*
X123780134Y-104969893D01*
X124062203Y-105026000D01*
X124349797Y-105026000D01*
X124631866Y-104969893D01*
X124897569Y-104859835D01*
X125136696Y-104700056D01*
X125340056Y-104496696D01*
X125499835Y-104257569D01*
X125609893Y-103991866D01*
X125666000Y-103709797D01*
X125666000Y-103422203D01*
X125609893Y-103140134D01*
X125499835Y-102874431D01*
X125340056Y-102635304D01*
X125136696Y-102431944D01*
X124897569Y-102272165D01*
X124631866Y-102162107D01*
X124349797Y-102106000D01*
X124062203Y-102106000D01*
X123780134Y-102162107D01*
X123514431Y-102272165D01*
X123275304Y-102431944D01*
X123071944Y-102635304D01*
X122912165Y-102874431D01*
X122802107Y-103140134D01*
X122746000Y-103422203D01*
X121166000Y-103422203D01*
X121109893Y-103140134D01*
X120999835Y-102874431D01*
X120840056Y-102635304D01*
X120636696Y-102431944D01*
X120397569Y-102272165D01*
X120131866Y-102162107D01*
X119849797Y-102106000D01*
X119562203Y-102106000D01*
X119280134Y-102162107D01*
X119014431Y-102272165D01*
X118775304Y-102431944D01*
X118571944Y-102635304D01*
X118412165Y-102874431D01*
X118302107Y-103140134D01*
X118246000Y-103422203D01*
X106807000Y-103422203D01*
X106807000Y-100422203D01*
X118246000Y-100422203D01*
X118246000Y-100709797D01*
X118302107Y-100991866D01*
X118412165Y-101257569D01*
X118571944Y-101496696D01*
X118775304Y-101700056D01*
X119014431Y-101859835D01*
X119280134Y-101969893D01*
X119562203Y-102026000D01*
X119849797Y-102026000D01*
X120131866Y-101969893D01*
X120397569Y-101859835D01*
X120636696Y-101700056D01*
X120840056Y-101496696D01*
X120999835Y-101257569D01*
X121109893Y-100991866D01*
X121166000Y-100709797D01*
X121166000Y-100422203D01*
X122746000Y-100422203D01*
X122746000Y-100709797D01*
X122802107Y-100991866D01*
X122912165Y-101257569D01*
X123071944Y-101496696D01*
X123275304Y-101700056D01*
X123514431Y-101859835D01*
X123780134Y-101969893D01*
X124062203Y-102026000D01*
X124349797Y-102026000D01*
X124631866Y-101969893D01*
X124897569Y-101859835D01*
X125136696Y-101700056D01*
X125340056Y-101496696D01*
X125499835Y-101257569D01*
X125609893Y-100991866D01*
X125666000Y-100709797D01*
X125666000Y-100422203D01*
X125609893Y-100140134D01*
X125499835Y-99874431D01*
X125340056Y-99635304D01*
X125136696Y-99431944D01*
X124897569Y-99272165D01*
X124631866Y-99162107D01*
X124349797Y-99106000D01*
X124062203Y-99106000D01*
X123780134Y-99162107D01*
X123514431Y-99272165D01*
X123275304Y-99431944D01*
X123071944Y-99635304D01*
X122912165Y-99874431D01*
X122802107Y-100140134D01*
X122746000Y-100422203D01*
X121166000Y-100422203D01*
X121109893Y-100140134D01*
X120999835Y-99874431D01*
X120840056Y-99635304D01*
X120636696Y-99431944D01*
X120397569Y-99272165D01*
X120131866Y-99162107D01*
X119849797Y-99106000D01*
X119562203Y-99106000D01*
X119280134Y-99162107D01*
X119014431Y-99272165D01*
X118775304Y-99431944D01*
X118571944Y-99635304D01*
X118412165Y-99874431D01*
X118302107Y-100140134D01*
X118246000Y-100422203D01*
X106807000Y-100422203D01*
X106807000Y-97422203D01*
X118246000Y-97422203D01*
X118246000Y-97709797D01*
X118302107Y-97991866D01*
X118412165Y-98257569D01*
X118571944Y-98496696D01*
X118775304Y-98700056D01*
X119014431Y-98859835D01*
X119280134Y-98969893D01*
X119562203Y-99026000D01*
X119849797Y-99026000D01*
X120131866Y-98969893D01*
X120397569Y-98859835D01*
X120636696Y-98700056D01*
X120840056Y-98496696D01*
X120999835Y-98257569D01*
X121109893Y-97991866D01*
X121166000Y-97709797D01*
X121166000Y-97422203D01*
X122746000Y-97422203D01*
X122746000Y-97709797D01*
X122802107Y-97991866D01*
X122912165Y-98257569D01*
X123071944Y-98496696D01*
X123275304Y-98700056D01*
X123514431Y-98859835D01*
X123780134Y-98969893D01*
X124062203Y-99026000D01*
X124349797Y-99026000D01*
X124631866Y-98969893D01*
X124897569Y-98859835D01*
X125136696Y-98700056D01*
X125291752Y-98545000D01*
X142991928Y-98545000D01*
X142991928Y-100845000D01*
X143004188Y-100969482D01*
X143040498Y-101089180D01*
X143099463Y-101199494D01*
X143178815Y-101296185D01*
X143275506Y-101375537D01*
X143385820Y-101434502D01*
X143505518Y-101470812D01*
X143630000Y-101483072D01*
X145930000Y-101483072D01*
X146054482Y-101470812D01*
X146174180Y-101434502D01*
X146284494Y-101375537D01*
X146381185Y-101296185D01*
X146460537Y-101199494D01*
X146519502Y-101089180D01*
X146555812Y-100969482D01*
X146568072Y-100845000D01*
X146568072Y-99519193D01*
X150615000Y-99519193D01*
X150615000Y-99870807D01*
X150683596Y-100215665D01*
X150818153Y-100540515D01*
X151013500Y-100832871D01*
X151262129Y-101081500D01*
X151554485Y-101276847D01*
X151879335Y-101411404D01*
X152224193Y-101480000D01*
X152575807Y-101480000D01*
X152920665Y-101411404D01*
X153245515Y-101276847D01*
X153537871Y-101081500D01*
X153786500Y-100832871D01*
X153981847Y-100540515D01*
X154116404Y-100215665D01*
X154185000Y-99870807D01*
X154185000Y-99519193D01*
X154116404Y-99174335D01*
X153981847Y-98849485D01*
X153786500Y-98557129D01*
X153537871Y-98308500D01*
X153245515Y-98113153D01*
X152920665Y-97978596D01*
X152575807Y-97910000D01*
X152224193Y-97910000D01*
X151879335Y-97978596D01*
X151554485Y-98113153D01*
X151262129Y-98308500D01*
X151013500Y-98557129D01*
X150818153Y-98849485D01*
X150683596Y-99174335D01*
X150615000Y-99519193D01*
X146568072Y-99519193D01*
X146568072Y-98545000D01*
X146555812Y-98420518D01*
X146519502Y-98300820D01*
X146460537Y-98190506D01*
X146381185Y-98093815D01*
X146284494Y-98014463D01*
X146174180Y-97955498D01*
X146054482Y-97919188D01*
X145930000Y-97906928D01*
X143630000Y-97906928D01*
X143505518Y-97919188D01*
X143385820Y-97955498D01*
X143275506Y-98014463D01*
X143178815Y-98093815D01*
X143099463Y-98190506D01*
X143040498Y-98300820D01*
X143004188Y-98420518D01*
X142991928Y-98545000D01*
X125291752Y-98545000D01*
X125340056Y-98496696D01*
X125499835Y-98257569D01*
X125609893Y-97991866D01*
X125666000Y-97709797D01*
X125666000Y-97422203D01*
X125609893Y-97140134D01*
X125499835Y-96874431D01*
X125340056Y-96635304D01*
X125136696Y-96431944D01*
X124897569Y-96272165D01*
X124631866Y-96162107D01*
X124349797Y-96106000D01*
X124062203Y-96106000D01*
X123780134Y-96162107D01*
X123514431Y-96272165D01*
X123275304Y-96431944D01*
X123071944Y-96635304D01*
X122912165Y-96874431D01*
X122802107Y-97140134D01*
X122746000Y-97422203D01*
X121166000Y-97422203D01*
X121109893Y-97140134D01*
X120999835Y-96874431D01*
X120840056Y-96635304D01*
X120636696Y-96431944D01*
X120397569Y-96272165D01*
X120131866Y-96162107D01*
X119849797Y-96106000D01*
X119562203Y-96106000D01*
X119280134Y-96162107D01*
X119014431Y-96272165D01*
X118775304Y-96431944D01*
X118571944Y-96635304D01*
X118412165Y-96874431D01*
X118302107Y-97140134D01*
X118246000Y-97422203D01*
X106807000Y-97422203D01*
X106807000Y-94422203D01*
X118246000Y-94422203D01*
X118246000Y-94709797D01*
X118302107Y-94991866D01*
X118412165Y-95257569D01*
X118571944Y-95496696D01*
X118775304Y-95700056D01*
X119014431Y-95859835D01*
X119280134Y-95969893D01*
X119562203Y-96026000D01*
X119849797Y-96026000D01*
X120131866Y-95969893D01*
X120397569Y-95859835D01*
X120636696Y-95700056D01*
X120840056Y-95496696D01*
X120999835Y-95257569D01*
X121109893Y-94991866D01*
X121166000Y-94709797D01*
X121166000Y-94422203D01*
X122746000Y-94422203D01*
X122746000Y-94709797D01*
X122802107Y-94991866D01*
X122912165Y-95257569D01*
X123071944Y-95496696D01*
X123275304Y-95700056D01*
X123514431Y-95859835D01*
X123780134Y-95969893D01*
X124062203Y-96026000D01*
X124349797Y-96026000D01*
X124631866Y-95969893D01*
X124897569Y-95859835D01*
X125136696Y-95700056D01*
X125340056Y-95496696D01*
X125499835Y-95257569D01*
X125609893Y-94991866D01*
X125666000Y-94709797D01*
X125666000Y-94422203D01*
X125609893Y-94140134D01*
X125499835Y-93874431D01*
X125340056Y-93635304D01*
X125136696Y-93431944D01*
X124897569Y-93272165D01*
X124631866Y-93162107D01*
X124349797Y-93106000D01*
X124062203Y-93106000D01*
X123780134Y-93162107D01*
X123514431Y-93272165D01*
X123275304Y-93431944D01*
X123071944Y-93635304D01*
X122912165Y-93874431D01*
X122802107Y-94140134D01*
X122746000Y-94422203D01*
X121166000Y-94422203D01*
X121109893Y-94140134D01*
X120999835Y-93874431D01*
X120840056Y-93635304D01*
X120636696Y-93431944D01*
X120397569Y-93272165D01*
X120131866Y-93162107D01*
X119849797Y-93106000D01*
X119562203Y-93106000D01*
X119280134Y-93162107D01*
X119014431Y-93272165D01*
X118775304Y-93431944D01*
X118571944Y-93635304D01*
X118412165Y-93874431D01*
X118302107Y-94140134D01*
X118246000Y-94422203D01*
X106807000Y-94422203D01*
X106807000Y-91422203D01*
X118246000Y-91422203D01*
X118246000Y-91709797D01*
X118302107Y-91991866D01*
X118412165Y-92257569D01*
X118571944Y-92496696D01*
X118775304Y-92700056D01*
X119014431Y-92859835D01*
X119280134Y-92969893D01*
X119562203Y-93026000D01*
X119849797Y-93026000D01*
X120131866Y-92969893D01*
X120397569Y-92859835D01*
X120636696Y-92700056D01*
X120840056Y-92496696D01*
X120999835Y-92257569D01*
X121109893Y-91991866D01*
X121166000Y-91709797D01*
X121166000Y-91422203D01*
X122746000Y-91422203D01*
X122746000Y-91709797D01*
X122802107Y-91991866D01*
X122912165Y-92257569D01*
X123071944Y-92496696D01*
X123275304Y-92700056D01*
X123514431Y-92859835D01*
X123780134Y-92969893D01*
X124062203Y-93026000D01*
X124349797Y-93026000D01*
X124631866Y-92969893D01*
X124897569Y-92859835D01*
X125136696Y-92700056D01*
X125340056Y-92496696D01*
X125499835Y-92257569D01*
X125609893Y-91991866D01*
X125666000Y-91709797D01*
X125666000Y-91422203D01*
X125609893Y-91140134D01*
X125499835Y-90874431D01*
X125340056Y-90635304D01*
X125136696Y-90431944D01*
X124897569Y-90272165D01*
X124631866Y-90162107D01*
X124349797Y-90106000D01*
X124062203Y-90106000D01*
X123780134Y-90162107D01*
X123514431Y-90272165D01*
X123275304Y-90431944D01*
X123071944Y-90635304D01*
X122912165Y-90874431D01*
X122802107Y-91140134D01*
X122746000Y-91422203D01*
X121166000Y-91422203D01*
X121109893Y-91140134D01*
X120999835Y-90874431D01*
X120840056Y-90635304D01*
X120636696Y-90431944D01*
X120397569Y-90272165D01*
X120131866Y-90162107D01*
X119849797Y-90106000D01*
X119562203Y-90106000D01*
X119280134Y-90162107D01*
X119014431Y-90272165D01*
X118775304Y-90431944D01*
X118571944Y-90635304D01*
X118412165Y-90874431D01*
X118302107Y-91140134D01*
X118246000Y-91422203D01*
X106807000Y-91422203D01*
X106807000Y-88422203D01*
X118246000Y-88422203D01*
X118246000Y-88709797D01*
X118302107Y-88991866D01*
X118412165Y-89257569D01*
X118571944Y-89496696D01*
X118775304Y-89700056D01*
X119014431Y-89859835D01*
X119280134Y-89969893D01*
X119562203Y-90026000D01*
X119849797Y-90026000D01*
X120131866Y-89969893D01*
X120397569Y-89859835D01*
X120636696Y-89700056D01*
X120840056Y-89496696D01*
X120999835Y-89257569D01*
X121109893Y-88991866D01*
X121166000Y-88709797D01*
X121166000Y-88422203D01*
X122746000Y-88422203D01*
X122746000Y-88709797D01*
X122802107Y-88991866D01*
X122912165Y-89257569D01*
X123071944Y-89496696D01*
X123275304Y-89700056D01*
X123514431Y-89859835D01*
X123780134Y-89969893D01*
X124062203Y-90026000D01*
X124349797Y-90026000D01*
X124631866Y-89969893D01*
X124897569Y-89859835D01*
X125136696Y-89700056D01*
X125340056Y-89496696D01*
X125499835Y-89257569D01*
X125609893Y-88991866D01*
X125666000Y-88709797D01*
X125666000Y-88422203D01*
X125609893Y-88140134D01*
X125499835Y-87874431D01*
X125340056Y-87635304D01*
X125136696Y-87431944D01*
X124897569Y-87272165D01*
X124631866Y-87162107D01*
X124349797Y-87106000D01*
X124062203Y-87106000D01*
X123780134Y-87162107D01*
X123514431Y-87272165D01*
X123275304Y-87431944D01*
X123071944Y-87635304D01*
X122912165Y-87874431D01*
X122802107Y-88140134D01*
X122746000Y-88422203D01*
X121166000Y-88422203D01*
X121109893Y-88140134D01*
X120999835Y-87874431D01*
X120840056Y-87635304D01*
X120636696Y-87431944D01*
X120397569Y-87272165D01*
X120131866Y-87162107D01*
X119849797Y-87106000D01*
X119562203Y-87106000D01*
X119280134Y-87162107D01*
X119014431Y-87272165D01*
X118775304Y-87431944D01*
X118571944Y-87635304D01*
X118412165Y-87874431D01*
X118302107Y-88140134D01*
X118246000Y-88422203D01*
X106807000Y-88422203D01*
X106807000Y-85422203D01*
X118246000Y-85422203D01*
X118246000Y-85709797D01*
X118302107Y-85991866D01*
X118412165Y-86257569D01*
X118571944Y-86496696D01*
X118775304Y-86700056D01*
X119014431Y-86859835D01*
X119280134Y-86969893D01*
X119562203Y-87026000D01*
X119849797Y-87026000D01*
X120131866Y-86969893D01*
X120397569Y-86859835D01*
X120636696Y-86700056D01*
X120840056Y-86496696D01*
X120999835Y-86257569D01*
X121109893Y-85991866D01*
X121166000Y-85709797D01*
X121166000Y-85422203D01*
X122746000Y-85422203D01*
X122746000Y-85709797D01*
X122802107Y-85991866D01*
X122912165Y-86257569D01*
X123071944Y-86496696D01*
X123275304Y-86700056D01*
X123514431Y-86859835D01*
X123780134Y-86969893D01*
X124062203Y-87026000D01*
X124349797Y-87026000D01*
X124631866Y-86969893D01*
X124897569Y-86859835D01*
X125136696Y-86700056D01*
X125340056Y-86496696D01*
X125499835Y-86257569D01*
X125609893Y-85991866D01*
X125666000Y-85709797D01*
X125666000Y-85422203D01*
X125609893Y-85140134D01*
X125499835Y-84874431D01*
X125340056Y-84635304D01*
X125136696Y-84431944D01*
X124897569Y-84272165D01*
X124631866Y-84162107D01*
X124349797Y-84106000D01*
X124062203Y-84106000D01*
X123780134Y-84162107D01*
X123514431Y-84272165D01*
X123275304Y-84431944D01*
X123071944Y-84635304D01*
X122912165Y-84874431D01*
X122802107Y-85140134D01*
X122746000Y-85422203D01*
X121166000Y-85422203D01*
X121109893Y-85140134D01*
X120999835Y-84874431D01*
X120840056Y-84635304D01*
X120636696Y-84431944D01*
X120397569Y-84272165D01*
X120131866Y-84162107D01*
X119849797Y-84106000D01*
X119562203Y-84106000D01*
X119280134Y-84162107D01*
X119014431Y-84272165D01*
X118775304Y-84431944D01*
X118571944Y-84635304D01*
X118412165Y-84874431D01*
X118302107Y-85140134D01*
X118246000Y-85422203D01*
X106807000Y-85422203D01*
X106807000Y-82422203D01*
X118246000Y-82422203D01*
X118246000Y-82709797D01*
X118302107Y-82991866D01*
X118412165Y-83257569D01*
X118571944Y-83496696D01*
X118775304Y-83700056D01*
X119014431Y-83859835D01*
X119280134Y-83969893D01*
X119562203Y-84026000D01*
X119849797Y-84026000D01*
X120131866Y-83969893D01*
X120397569Y-83859835D01*
X120636696Y-83700056D01*
X120840056Y-83496696D01*
X120999835Y-83257569D01*
X121109893Y-82991866D01*
X121166000Y-82709797D01*
X121166000Y-82422203D01*
X122746000Y-82422203D01*
X122746000Y-82709797D01*
X122802107Y-82991866D01*
X122912165Y-83257569D01*
X123071944Y-83496696D01*
X123275304Y-83700056D01*
X123514431Y-83859835D01*
X123780134Y-83969893D01*
X124062203Y-84026000D01*
X124349797Y-84026000D01*
X124631866Y-83969893D01*
X124897569Y-83859835D01*
X125136696Y-83700056D01*
X125340056Y-83496696D01*
X125499835Y-83257569D01*
X125609893Y-82991866D01*
X125666000Y-82709797D01*
X125666000Y-82422203D01*
X125609893Y-82140134D01*
X125499835Y-81874431D01*
X125340056Y-81635304D01*
X125136696Y-81431944D01*
X124897569Y-81272165D01*
X124631866Y-81162107D01*
X124349797Y-81106000D01*
X124062203Y-81106000D01*
X123780134Y-81162107D01*
X123514431Y-81272165D01*
X123275304Y-81431944D01*
X123071944Y-81635304D01*
X122912165Y-81874431D01*
X122802107Y-82140134D01*
X122746000Y-82422203D01*
X121166000Y-82422203D01*
X121109893Y-82140134D01*
X120999835Y-81874431D01*
X120840056Y-81635304D01*
X120636696Y-81431944D01*
X120397569Y-81272165D01*
X120131866Y-81162107D01*
X119849797Y-81106000D01*
X119562203Y-81106000D01*
X119280134Y-81162107D01*
X119014431Y-81272165D01*
X118775304Y-81431944D01*
X118571944Y-81635304D01*
X118412165Y-81874431D01*
X118302107Y-82140134D01*
X118246000Y-82422203D01*
X106807000Y-82422203D01*
X106807000Y-79322203D01*
X118246000Y-79322203D01*
X118246000Y-79609797D01*
X118302107Y-79891866D01*
X118412165Y-80157569D01*
X118571944Y-80396696D01*
X118775304Y-80600056D01*
X119014431Y-80759835D01*
X119280134Y-80869893D01*
X119562203Y-80926000D01*
X119849797Y-80926000D01*
X120131866Y-80869893D01*
X120397569Y-80759835D01*
X120636696Y-80600056D01*
X120840056Y-80396696D01*
X120999835Y-80157569D01*
X121109893Y-79891866D01*
X121166000Y-79609797D01*
X121166000Y-79322203D01*
X122746000Y-79322203D01*
X122746000Y-79609797D01*
X122802107Y-79891866D01*
X122912165Y-80157569D01*
X123071944Y-80396696D01*
X123275304Y-80600056D01*
X123514431Y-80759835D01*
X123780134Y-80869893D01*
X124062203Y-80926000D01*
X124349797Y-80926000D01*
X124631866Y-80869893D01*
X124897569Y-80759835D01*
X125136696Y-80600056D01*
X125340056Y-80396696D01*
X125499835Y-80157569D01*
X125609893Y-79891866D01*
X125666000Y-79609797D01*
X125666000Y-79322203D01*
X125609893Y-79040134D01*
X125499835Y-78774431D01*
X125340056Y-78535304D01*
X125136696Y-78331944D01*
X124897569Y-78172165D01*
X124631866Y-78062107D01*
X124349797Y-78006000D01*
X124062203Y-78006000D01*
X123780134Y-78062107D01*
X123514431Y-78172165D01*
X123275304Y-78331944D01*
X123071944Y-78535304D01*
X122912165Y-78774431D01*
X122802107Y-79040134D01*
X122746000Y-79322203D01*
X121166000Y-79322203D01*
X121109893Y-79040134D01*
X120999835Y-78774431D01*
X120840056Y-78535304D01*
X120636696Y-78331944D01*
X120397569Y-78172165D01*
X120131866Y-78062107D01*
X119849797Y-78006000D01*
X119562203Y-78006000D01*
X119280134Y-78062107D01*
X119014431Y-78172165D01*
X118775304Y-78331944D01*
X118571944Y-78535304D01*
X118412165Y-78774431D01*
X118302107Y-79040134D01*
X118246000Y-79322203D01*
X106807000Y-79322203D01*
X106807000Y-75822203D01*
X118246000Y-75822203D01*
X118246000Y-76109797D01*
X118302107Y-76391866D01*
X118412165Y-76657569D01*
X118571944Y-76896696D01*
X118775304Y-77100056D01*
X119014431Y-77259835D01*
X119280134Y-77369893D01*
X119562203Y-77426000D01*
X119849797Y-77426000D01*
X120131866Y-77369893D01*
X120397569Y-77259835D01*
X120636696Y-77100056D01*
X120840056Y-76896696D01*
X120999835Y-76657569D01*
X121109893Y-76391866D01*
X121166000Y-76109797D01*
X121166000Y-75822203D01*
X122746000Y-75822203D01*
X122746000Y-76109797D01*
X122802107Y-76391866D01*
X122912165Y-76657569D01*
X123071944Y-76896696D01*
X123275304Y-77100056D01*
X123514431Y-77259835D01*
X123780134Y-77369893D01*
X124062203Y-77426000D01*
X124349797Y-77426000D01*
X124631866Y-77369893D01*
X124897569Y-77259835D01*
X125136696Y-77100056D01*
X125151752Y-77085000D01*
X143077241Y-77085000D01*
X143216866Y-77255134D01*
X143442986Y-77440706D01*
X143497791Y-77470000D01*
X143442986Y-77499294D01*
X143216866Y-77684866D01*
X143031294Y-77910986D01*
X142893401Y-78168966D01*
X142808487Y-78448889D01*
X142779815Y-78740000D01*
X142808487Y-79031111D01*
X142893401Y-79311034D01*
X143031294Y-79569014D01*
X143216866Y-79795134D01*
X143442986Y-79980706D01*
X143497791Y-80010000D01*
X143442986Y-80039294D01*
X143216866Y-80224866D01*
X143031294Y-80450986D01*
X142893401Y-80708966D01*
X142808487Y-80988889D01*
X142779815Y-81280000D01*
X142808487Y-81571111D01*
X142893401Y-81851034D01*
X143031294Y-82109014D01*
X143216866Y-82335134D01*
X143442986Y-82520706D01*
X143497791Y-82550000D01*
X143442986Y-82579294D01*
X143216866Y-82764866D01*
X143031294Y-82990986D01*
X142893401Y-83248966D01*
X142808487Y-83528889D01*
X142779815Y-83820000D01*
X142808487Y-84111111D01*
X142893401Y-84391034D01*
X143031294Y-84649014D01*
X143216866Y-84875134D01*
X143442986Y-85060706D01*
X143497791Y-85090000D01*
X143442986Y-85119294D01*
X143216866Y-85304866D01*
X143031294Y-85530986D01*
X142893401Y-85788966D01*
X142808487Y-86068889D01*
X142779815Y-86360000D01*
X142808487Y-86651111D01*
X142893401Y-86931034D01*
X143031294Y-87189014D01*
X143216866Y-87415134D01*
X143442986Y-87600706D01*
X143497791Y-87630000D01*
X143442986Y-87659294D01*
X143216866Y-87844866D01*
X143031294Y-88070986D01*
X142893401Y-88328966D01*
X142808487Y-88608889D01*
X142779815Y-88900000D01*
X142808487Y-89191111D01*
X142893401Y-89471034D01*
X143031294Y-89729014D01*
X143216866Y-89955134D01*
X143442986Y-90140706D01*
X143497791Y-90170000D01*
X143442986Y-90199294D01*
X143216866Y-90384866D01*
X143031294Y-90610986D01*
X142893401Y-90868966D01*
X142808487Y-91148889D01*
X142779815Y-91440000D01*
X142808487Y-91731111D01*
X142893401Y-92011034D01*
X143031294Y-92269014D01*
X143216866Y-92495134D01*
X143442986Y-92680706D01*
X143497791Y-92710000D01*
X143442986Y-92739294D01*
X143216866Y-92924866D01*
X143031294Y-93150986D01*
X142893401Y-93408966D01*
X142808487Y-93688889D01*
X142779815Y-93980000D01*
X142808487Y-94271111D01*
X142893401Y-94551034D01*
X143031294Y-94809014D01*
X143216866Y-95035134D01*
X143442986Y-95220706D01*
X143700966Y-95358599D01*
X143980889Y-95443513D01*
X144199050Y-95465000D01*
X144344950Y-95465000D01*
X144563111Y-95443513D01*
X144843034Y-95358599D01*
X145101014Y-95220706D01*
X145327134Y-95035134D01*
X145512706Y-94809014D01*
X145650599Y-94551034D01*
X145735513Y-94271111D01*
X145764185Y-93980000D01*
X145735513Y-93688889D01*
X145650599Y-93408966D01*
X145512706Y-93150986D01*
X145327134Y-92924866D01*
X145101014Y-92739294D01*
X145046209Y-92710000D01*
X145101014Y-92680706D01*
X145327134Y-92495134D01*
X145512706Y-92269014D01*
X145650599Y-92011034D01*
X145735513Y-91731111D01*
X145764185Y-91440000D01*
X145735513Y-91148889D01*
X145650599Y-90868966D01*
X145512706Y-90610986D01*
X145327134Y-90384866D01*
X145101014Y-90199294D01*
X145046209Y-90170000D01*
X145101014Y-90140706D01*
X145327134Y-89955134D01*
X145512706Y-89729014D01*
X145650599Y-89471034D01*
X145735513Y-89191111D01*
X145764185Y-88900000D01*
X145735513Y-88608889D01*
X145650599Y-88328966D01*
X145512706Y-88070986D01*
X145327134Y-87844866D01*
X145101014Y-87659294D01*
X145046209Y-87630000D01*
X145101014Y-87600706D01*
X145327134Y-87415134D01*
X145512706Y-87189014D01*
X145650599Y-86931034D01*
X145735513Y-86651111D01*
X145764185Y-86360000D01*
X145735513Y-86068889D01*
X145650599Y-85788966D01*
X145512706Y-85530986D01*
X145327134Y-85304866D01*
X145101014Y-85119294D01*
X145046209Y-85090000D01*
X145101014Y-85060706D01*
X145327134Y-84875134D01*
X145512706Y-84649014D01*
X145650599Y-84391034D01*
X145735513Y-84111111D01*
X145764185Y-83820000D01*
X145735513Y-83528889D01*
X145650599Y-83248966D01*
X145512706Y-82990986D01*
X145327134Y-82764866D01*
X145101014Y-82579294D01*
X145046209Y-82550000D01*
X145101014Y-82520706D01*
X145327134Y-82335134D01*
X145512706Y-82109014D01*
X145650599Y-81851034D01*
X145735513Y-81571111D01*
X145764185Y-81280000D01*
X145735513Y-80988889D01*
X145650599Y-80708966D01*
X145512706Y-80450986D01*
X145327134Y-80224866D01*
X145101014Y-80039294D01*
X145046209Y-80010000D01*
X145101014Y-79980706D01*
X145327134Y-79795134D01*
X145512706Y-79569014D01*
X145650599Y-79311034D01*
X145735513Y-79031111D01*
X145764185Y-78740000D01*
X145735513Y-78448889D01*
X145650599Y-78168966D01*
X145512706Y-77910986D01*
X145327134Y-77684866D01*
X145101014Y-77499294D01*
X145046209Y-77470000D01*
X145101014Y-77440706D01*
X145327134Y-77255134D01*
X145512706Y-77029014D01*
X145650599Y-76771034D01*
X145735513Y-76491111D01*
X145764185Y-76200000D01*
X145735513Y-75908889D01*
X145650599Y-75628966D01*
X145512706Y-75370986D01*
X145327134Y-75144866D01*
X145101014Y-74959294D01*
X145046209Y-74930000D01*
X145101014Y-74900706D01*
X145327134Y-74715134D01*
X145512706Y-74489014D01*
X145650599Y-74231034D01*
X145735513Y-73951111D01*
X145764185Y-73660000D01*
X145735513Y-73368889D01*
X145650599Y-73088966D01*
X145512706Y-72830986D01*
X145327134Y-72604866D01*
X145101014Y-72419294D01*
X145046209Y-72390000D01*
X145101014Y-72360706D01*
X145327134Y-72175134D01*
X145512706Y-71949014D01*
X145650599Y-71691034D01*
X145735513Y-71411111D01*
X145764185Y-71120000D01*
X145735513Y-70828889D01*
X145650599Y-70548966D01*
X145512706Y-70290986D01*
X145327134Y-70064866D01*
X145101014Y-69879294D01*
X145046209Y-69850000D01*
X145101014Y-69820706D01*
X145327134Y-69635134D01*
X145512706Y-69409014D01*
X145650599Y-69151034D01*
X145735513Y-68871111D01*
X145764185Y-68580000D01*
X145735513Y-68288889D01*
X145650599Y-68008966D01*
X145512706Y-67750986D01*
X145327134Y-67524866D01*
X145297313Y-67500393D01*
X145366180Y-67479502D01*
X145476494Y-67420537D01*
X145573185Y-67341185D01*
X145652537Y-67244494D01*
X145711502Y-67134180D01*
X145747812Y-67014482D01*
X145760072Y-66890000D01*
X145760072Y-65190000D01*
X145747812Y-65065518D01*
X145711502Y-64945820D01*
X145652537Y-64835506D01*
X145573185Y-64738815D01*
X145476494Y-64659463D01*
X145366180Y-64600498D01*
X145246482Y-64564188D01*
X145122000Y-64551928D01*
X143422000Y-64551928D01*
X143297518Y-64564188D01*
X143177820Y-64600498D01*
X143067506Y-64659463D01*
X142970815Y-64738815D01*
X142891463Y-64835506D01*
X142832498Y-64945820D01*
X142796188Y-65065518D01*
X142783928Y-65190000D01*
X142783928Y-66890000D01*
X142796188Y-67014482D01*
X142832498Y-67134180D01*
X142891463Y-67244494D01*
X142970815Y-67341185D01*
X143067506Y-67420537D01*
X143177820Y-67479502D01*
X143246687Y-67500393D01*
X143216866Y-67524866D01*
X143031294Y-67750986D01*
X142893401Y-68008966D01*
X142808487Y-68288889D01*
X142779815Y-68580000D01*
X142808487Y-68871111D01*
X142893401Y-69151034D01*
X143031294Y-69409014D01*
X143216866Y-69635134D01*
X143442986Y-69820706D01*
X143497791Y-69850000D01*
X143442986Y-69879294D01*
X143216866Y-70064866D01*
X143031294Y-70290986D01*
X142893401Y-70548966D01*
X142808487Y-70828889D01*
X142779815Y-71120000D01*
X142808487Y-71411111D01*
X142893401Y-71691034D01*
X143031294Y-71949014D01*
X143216866Y-72175134D01*
X143442986Y-72360706D01*
X143497791Y-72390000D01*
X143442986Y-72419294D01*
X143216866Y-72604866D01*
X143031294Y-72830986D01*
X142893401Y-73088966D01*
X142808487Y-73368889D01*
X142779815Y-73660000D01*
X142808487Y-73951111D01*
X142893401Y-74231034D01*
X143031294Y-74489014D01*
X143216866Y-74715134D01*
X143442986Y-74900706D01*
X143497791Y-74930000D01*
X143442986Y-74959294D01*
X143216866Y-75144866D01*
X143077241Y-75315000D01*
X125516639Y-75315000D01*
X125499835Y-75274431D01*
X125340056Y-75035304D01*
X125136696Y-74831944D01*
X124897569Y-74672165D01*
X124631866Y-74562107D01*
X124349797Y-74506000D01*
X124062203Y-74506000D01*
X123780134Y-74562107D01*
X123514431Y-74672165D01*
X123275304Y-74831944D01*
X123071944Y-75035304D01*
X122912165Y-75274431D01*
X122802107Y-75540134D01*
X122746000Y-75822203D01*
X121166000Y-75822203D01*
X121109893Y-75540134D01*
X120999835Y-75274431D01*
X120840056Y-75035304D01*
X120636696Y-74831944D01*
X120397569Y-74672165D01*
X120131866Y-74562107D01*
X119849797Y-74506000D01*
X119562203Y-74506000D01*
X119280134Y-74562107D01*
X119014431Y-74672165D01*
X118775304Y-74831944D01*
X118571944Y-75035304D01*
X118412165Y-75274431D01*
X118302107Y-75540134D01*
X118246000Y-75822203D01*
X106807000Y-75822203D01*
X106807000Y-72322203D01*
X118246000Y-72322203D01*
X118246000Y-72609797D01*
X118302107Y-72891866D01*
X118412165Y-73157569D01*
X118571944Y-73396696D01*
X118775304Y-73600056D01*
X119014431Y-73759835D01*
X119280134Y-73869893D01*
X119562203Y-73926000D01*
X119849797Y-73926000D01*
X120131866Y-73869893D01*
X120397569Y-73759835D01*
X120636696Y-73600056D01*
X120840056Y-73396696D01*
X120999835Y-73157569D01*
X121109893Y-72891866D01*
X121166000Y-72609797D01*
X121166000Y-72322203D01*
X122746000Y-72322203D01*
X122746000Y-72609797D01*
X122802107Y-72891866D01*
X122912165Y-73157569D01*
X123071944Y-73396696D01*
X123275304Y-73600056D01*
X123514431Y-73759835D01*
X123780134Y-73869893D01*
X124062203Y-73926000D01*
X124349797Y-73926000D01*
X124631866Y-73869893D01*
X124897569Y-73759835D01*
X125136696Y-73600056D01*
X125340056Y-73396696D01*
X125499835Y-73157569D01*
X125609893Y-72891866D01*
X125666000Y-72609797D01*
X125666000Y-72322203D01*
X125609893Y-72040134D01*
X125499835Y-71774431D01*
X125340056Y-71535304D01*
X125136696Y-71331944D01*
X124897569Y-71172165D01*
X124631866Y-71062107D01*
X124349797Y-71006000D01*
X124062203Y-71006000D01*
X123780134Y-71062107D01*
X123514431Y-71172165D01*
X123275304Y-71331944D01*
X123071944Y-71535304D01*
X122912165Y-71774431D01*
X122802107Y-72040134D01*
X122746000Y-72322203D01*
X121166000Y-72322203D01*
X121109893Y-72040134D01*
X120999835Y-71774431D01*
X120840056Y-71535304D01*
X120636696Y-71331944D01*
X120397569Y-71172165D01*
X120131866Y-71062107D01*
X119849797Y-71006000D01*
X119562203Y-71006000D01*
X119280134Y-71062107D01*
X119014431Y-71172165D01*
X118775304Y-71331944D01*
X118571944Y-71535304D01*
X118412165Y-71774431D01*
X118302107Y-72040134D01*
X118246000Y-72322203D01*
X106807000Y-72322203D01*
X106807000Y-67094918D01*
X110746000Y-67094918D01*
X110746000Y-67737082D01*
X110871280Y-68366907D01*
X111117025Y-68960189D01*
X111473792Y-69494129D01*
X111927871Y-69948208D01*
X112461811Y-70304975D01*
X113055093Y-70550720D01*
X113684918Y-70676000D01*
X114327082Y-70676000D01*
X114956907Y-70550720D01*
X115550189Y-70304975D01*
X116084129Y-69948208D01*
X116538208Y-69494129D01*
X116894975Y-68960189D01*
X117140720Y-68366907D01*
X117266000Y-67737082D01*
X117266000Y-67094918D01*
X117140720Y-66465093D01*
X116894975Y-65871811D01*
X116538208Y-65337871D01*
X116084129Y-64883792D01*
X115550189Y-64527025D01*
X114956907Y-64281280D01*
X114327082Y-64156000D01*
X113684918Y-64156000D01*
X113055093Y-64281280D01*
X112461811Y-64527025D01*
X111927871Y-64883792D01*
X111473792Y-65337871D01*
X111117025Y-65871811D01*
X110871280Y-66465093D01*
X110746000Y-67094918D01*
X106807000Y-67094918D01*
X106807000Y-62282606D01*
X108002606Y-61087000D01*
X156157394Y-61087000D01*
X157353000Y-62282606D01*
M02*
