M48
; DRILL file {KiCad (5.1.4-0-10_14)} date Monday, 30 March 2020 at 10:01:41 am
; FORMAT={-:-/ absolute / inch / decimal}
; #@! TF.CreationDate,2020-03-30T10:01:41+11:00
; #@! TF.GenerationSoftware,Kicad,Pcbnew,(5.1.4-0-10_14)
FMAT,2
INCH
T1C0.0157
T2C0.0394
T3C0.0433
T4C0.0512
T5C0.1378
%
G90
G05
T1
X5.175Y-5.25
X5.4Y-4.35
X5.475Y-5.25
X5.55Y-4.575
T2
X5.68Y-2.6
X5.68Y-2.7
X5.68Y-2.8
X5.68Y-2.9
X5.68Y-3.0
X5.68Y-3.1
X5.68Y-3.2
X5.68Y-3.3
X5.68Y-3.4
X5.68Y-3.5
X5.68Y-3.6
X5.68Y-3.7
X5.69Y-4.85
X5.69Y-4.95
X5.69Y-5.05
X5.69Y-5.15
X5.69Y-5.25
X5.69Y-5.35
X5.69Y-5.45
X5.69Y-5.55
X5.69Y-5.65
X5.69Y-5.75
X5.69Y-5.85
X5.69Y-5.95
T3
X4.7128Y-2.853
X4.7128Y-2.9908
X4.7128Y-3.1286
X4.7128Y-3.2506
X4.7128Y-3.3687
X4.7128Y-3.4869
X4.7128Y-3.605
X4.7128Y-3.7231
X4.7128Y-3.8412
X4.7128Y-3.9593
X4.7128Y-4.0774
X4.7128Y-4.1994
X4.7128Y-4.3372
X4.7128Y-4.5813
X4.7128Y-4.7034
X4.7128Y-4.8215
X4.7128Y-4.9396
X4.7128Y-5.0577
X4.7128Y-5.1758
X4.7128Y-5.2939
X4.7128Y-5.412
X4.7128Y-5.5302
X4.7128Y-5.6522
X4.7128Y-5.79
X4.89Y-2.853
X4.89Y-2.9908
X4.89Y-3.1286
X4.89Y-3.2506
X4.89Y-3.3687
X4.89Y-3.4869
X4.89Y-3.605
X4.89Y-3.7231
X4.89Y-3.8412
X4.89Y-3.9593
X4.89Y-4.0774
X4.89Y-4.1994
X4.89Y-4.3372
X4.89Y-4.5813
X4.89Y-4.7034
X4.89Y-4.8215
X4.89Y-4.9396
X4.89Y-5.0577
X4.89Y-5.1758
X4.89Y-5.2939
X4.89Y-5.412
X4.89Y-5.5302
X4.89Y-5.6522
X4.89Y-5.79
T4
X5.7Y-3.925
X5.7Y-4.325
X5.7Y-4.625
X6.0Y-3.925
X6.0Y-4.525
T5
X4.4884Y-2.6542
X4.4884Y-4.4593
X4.4884Y-5.9888
T0
M30
